G04 #@! TF.GenerationSoftware,KiCad,Pcbnew,(5.1.9)-1*
G04 #@! TF.CreationDate,2021-04-24T18:19:28-05:00*
G04 #@! TF.ProjectId,high-gain-diff-probe,68696768-2d67-4616-996e-2d646966662d,rev?*
G04 #@! TF.SameCoordinates,Original*
G04 #@! TF.FileFunction,Soldermask,Top*
G04 #@! TF.FilePolarity,Negative*
%FSLAX46Y46*%
G04 Gerber Fmt 4.6, Leading zero omitted, Abs format (unit mm)*
G04 Created by KiCad (PCBNEW (5.1.9)-1) date 2021-04-24 18:19:28*
%MOMM*%
%LPD*%
G01*
G04 APERTURE LIST*
%ADD10C,0.250000*%
%ADD11R,2.410000X3.810000*%
%ADD12C,1.800000*%
%ADD13R,1.800000X1.800000*%
%ADD14C,1.600000*%
%ADD15C,4.000000*%
%ADD16R,6.000000X6.000000*%
%ADD17C,1.700000*%
%ADD18C,2.000000*%
%ADD19R,1.100000X1.100000*%
%ADD20C,0.100000*%
%ADD21C,1.440000*%
%ADD22O,1.600000X1.600000*%
%ADD23R,0.800000X0.900000*%
%ADD24O,3.500000X2.000000*%
%ADD25O,2.000000X3.300000*%
%ADD26R,2.000000X4.000000*%
%ADD27R,1.400000X0.900000*%
%ADD28O,2.500000X1.600000*%
%ADD29O,7.000000X3.500000*%
%ADD30R,1.400000X1.300000*%
G04 APERTURE END LIST*
D10*
X111000000Y-100000000D02*
X126400000Y-100000000D01*
X154000000Y-99600000D02*
X154000000Y-96600000D01*
X155100000Y-100700000D02*
X154000000Y-99600000D01*
X155100000Y-103200000D02*
X155100000Y-100700000D01*
X145500000Y-95000000D02*
X145500000Y-94500000D01*
X144500000Y-96000000D02*
X145500000Y-95000000D01*
X140950000Y-96000000D02*
X144500000Y-96000000D01*
X140000000Y-95050000D02*
X140950000Y-96000000D01*
X140000000Y-94500000D02*
X140000000Y-95050000D01*
X141000000Y-104000000D02*
X140000000Y-105000000D01*
X144600000Y-104000000D02*
X141000000Y-104000000D01*
X145500000Y-104900000D02*
X144600000Y-104000000D01*
X145500000Y-106500000D02*
X145500000Y-104900000D01*
X144500000Y-107500000D02*
X145500000Y-106500000D01*
X141000000Y-107500000D02*
X144500000Y-107500000D01*
X140000000Y-106500000D02*
X141000000Y-107500000D01*
X140000000Y-105000000D02*
X140000000Y-106500000D01*
X108000000Y-110500000D02*
X107000000Y-109500000D01*
X110000000Y-110500000D02*
X108000000Y-110500000D01*
X111000000Y-109500000D02*
X110000000Y-110500000D01*
X111000000Y-90500000D02*
X111000000Y-109500000D01*
X110000000Y-89500000D02*
X111000000Y-90500000D01*
X108000000Y-89500000D02*
X110000000Y-89500000D01*
X107000000Y-90500000D02*
X108000000Y-89500000D01*
G36*
G01*
X194950000Y-72455000D02*
X194950000Y-72755000D01*
G75*
G02*
X194800000Y-72905000I-150000J0D01*
G01*
X193150000Y-72905000D01*
G75*
G02*
X193000000Y-72755000I0J150000D01*
G01*
X193000000Y-72455000D01*
G75*
G02*
X193150000Y-72305000I150000J0D01*
G01*
X194800000Y-72305000D01*
G75*
G02*
X194950000Y-72455000I0J-150000D01*
G01*
G37*
G36*
G01*
X194950000Y-71185000D02*
X194950000Y-71485000D01*
G75*
G02*
X194800000Y-71635000I-150000J0D01*
G01*
X193150000Y-71635000D01*
G75*
G02*
X193000000Y-71485000I0J150000D01*
G01*
X193000000Y-71185000D01*
G75*
G02*
X193150000Y-71035000I150000J0D01*
G01*
X194800000Y-71035000D01*
G75*
G02*
X194950000Y-71185000I0J-150000D01*
G01*
G37*
G36*
G01*
X194950000Y-69915000D02*
X194950000Y-70215000D01*
G75*
G02*
X194800000Y-70365000I-150000J0D01*
G01*
X193150000Y-70365000D01*
G75*
G02*
X193000000Y-70215000I0J150000D01*
G01*
X193000000Y-69915000D01*
G75*
G02*
X193150000Y-69765000I150000J0D01*
G01*
X194800000Y-69765000D01*
G75*
G02*
X194950000Y-69915000I0J-150000D01*
G01*
G37*
G36*
G01*
X194950000Y-68645000D02*
X194950000Y-68945000D01*
G75*
G02*
X194800000Y-69095000I-150000J0D01*
G01*
X193150000Y-69095000D01*
G75*
G02*
X193000000Y-68945000I0J150000D01*
G01*
X193000000Y-68645000D01*
G75*
G02*
X193150000Y-68495000I150000J0D01*
G01*
X194800000Y-68495000D01*
G75*
G02*
X194950000Y-68645000I0J-150000D01*
G01*
G37*
G36*
G01*
X190000000Y-68645000D02*
X190000000Y-68945000D01*
G75*
G02*
X189850000Y-69095000I-150000J0D01*
G01*
X188200000Y-69095000D01*
G75*
G02*
X188050000Y-68945000I0J150000D01*
G01*
X188050000Y-68645000D01*
G75*
G02*
X188200000Y-68495000I150000J0D01*
G01*
X189850000Y-68495000D01*
G75*
G02*
X190000000Y-68645000I0J-150000D01*
G01*
G37*
G36*
G01*
X190000000Y-69915000D02*
X190000000Y-70215000D01*
G75*
G02*
X189850000Y-70365000I-150000J0D01*
G01*
X188200000Y-70365000D01*
G75*
G02*
X188050000Y-70215000I0J150000D01*
G01*
X188050000Y-69915000D01*
G75*
G02*
X188200000Y-69765000I150000J0D01*
G01*
X189850000Y-69765000D01*
G75*
G02*
X190000000Y-69915000I0J-150000D01*
G01*
G37*
G36*
G01*
X190000000Y-71185000D02*
X190000000Y-71485000D01*
G75*
G02*
X189850000Y-71635000I-150000J0D01*
G01*
X188200000Y-71635000D01*
G75*
G02*
X188050000Y-71485000I0J150000D01*
G01*
X188050000Y-71185000D01*
G75*
G02*
X188200000Y-71035000I150000J0D01*
G01*
X189850000Y-71035000D01*
G75*
G02*
X190000000Y-71185000I0J-150000D01*
G01*
G37*
G36*
G01*
X190000000Y-72455000D02*
X190000000Y-72755000D01*
G75*
G02*
X189850000Y-72905000I-150000J0D01*
G01*
X188200000Y-72905000D01*
G75*
G02*
X188050000Y-72755000I0J150000D01*
G01*
X188050000Y-72455000D01*
G75*
G02*
X188200000Y-72305000I150000J0D01*
G01*
X189850000Y-72305000D01*
G75*
G02*
X190000000Y-72455000I0J-150000D01*
G01*
G37*
D11*
X191500000Y-70700000D03*
G36*
G01*
X179075000Y-119210000D02*
X179075000Y-118910000D01*
G75*
G02*
X179225000Y-118760000I150000J0D01*
G01*
X180875000Y-118760000D01*
G75*
G02*
X181025000Y-118910000I0J-150000D01*
G01*
X181025000Y-119210000D01*
G75*
G02*
X180875000Y-119360000I-150000J0D01*
G01*
X179225000Y-119360000D01*
G75*
G02*
X179075000Y-119210000I0J150000D01*
G01*
G37*
G36*
G01*
X179075000Y-120480000D02*
X179075000Y-120180000D01*
G75*
G02*
X179225000Y-120030000I150000J0D01*
G01*
X180875000Y-120030000D01*
G75*
G02*
X181025000Y-120180000I0J-150000D01*
G01*
X181025000Y-120480000D01*
G75*
G02*
X180875000Y-120630000I-150000J0D01*
G01*
X179225000Y-120630000D01*
G75*
G02*
X179075000Y-120480000I0J150000D01*
G01*
G37*
G36*
G01*
X179075000Y-121750000D02*
X179075000Y-121450000D01*
G75*
G02*
X179225000Y-121300000I150000J0D01*
G01*
X180875000Y-121300000D01*
G75*
G02*
X181025000Y-121450000I0J-150000D01*
G01*
X181025000Y-121750000D01*
G75*
G02*
X180875000Y-121900000I-150000J0D01*
G01*
X179225000Y-121900000D01*
G75*
G02*
X179075000Y-121750000I0J150000D01*
G01*
G37*
G36*
G01*
X179075000Y-123020000D02*
X179075000Y-122720000D01*
G75*
G02*
X179225000Y-122570000I150000J0D01*
G01*
X180875000Y-122570000D01*
G75*
G02*
X181025000Y-122720000I0J-150000D01*
G01*
X181025000Y-123020000D01*
G75*
G02*
X180875000Y-123170000I-150000J0D01*
G01*
X179225000Y-123170000D01*
G75*
G02*
X179075000Y-123020000I0J150000D01*
G01*
G37*
G36*
G01*
X184025000Y-123020000D02*
X184025000Y-122720000D01*
G75*
G02*
X184175000Y-122570000I150000J0D01*
G01*
X185825000Y-122570000D01*
G75*
G02*
X185975000Y-122720000I0J-150000D01*
G01*
X185975000Y-123020000D01*
G75*
G02*
X185825000Y-123170000I-150000J0D01*
G01*
X184175000Y-123170000D01*
G75*
G02*
X184025000Y-123020000I0J150000D01*
G01*
G37*
G36*
G01*
X184025000Y-121750000D02*
X184025000Y-121450000D01*
G75*
G02*
X184175000Y-121300000I150000J0D01*
G01*
X185825000Y-121300000D01*
G75*
G02*
X185975000Y-121450000I0J-150000D01*
G01*
X185975000Y-121750000D01*
G75*
G02*
X185825000Y-121900000I-150000J0D01*
G01*
X184175000Y-121900000D01*
G75*
G02*
X184025000Y-121750000I0J150000D01*
G01*
G37*
G36*
G01*
X184025000Y-120480000D02*
X184025000Y-120180000D01*
G75*
G02*
X184175000Y-120030000I150000J0D01*
G01*
X185825000Y-120030000D01*
G75*
G02*
X185975000Y-120180000I0J-150000D01*
G01*
X185975000Y-120480000D01*
G75*
G02*
X185825000Y-120630000I-150000J0D01*
G01*
X184175000Y-120630000D01*
G75*
G02*
X184025000Y-120480000I0J150000D01*
G01*
G37*
G36*
G01*
X184025000Y-119210000D02*
X184025000Y-118910000D01*
G75*
G02*
X184175000Y-118760000I150000J0D01*
G01*
X185825000Y-118760000D01*
G75*
G02*
X185975000Y-118910000I0J-150000D01*
G01*
X185975000Y-119210000D01*
G75*
G02*
X185825000Y-119360000I-150000J0D01*
G01*
X184175000Y-119360000D01*
G75*
G02*
X184025000Y-119210000I0J150000D01*
G01*
G37*
X182525000Y-120965000D03*
D12*
X203340000Y-100000000D03*
D13*
X200800000Y-100000000D03*
D14*
X116500000Y-114500000D03*
X116500000Y-119500000D03*
X116500000Y-80500000D03*
X116500000Y-85500000D03*
D15*
X147000000Y-74100000D03*
X147000000Y-82900000D03*
D12*
X154000000Y-76000000D03*
X154000000Y-78500000D03*
X154000000Y-81000000D03*
D16*
X100500000Y-127000000D03*
X117500000Y-127000000D03*
X100500000Y-73000000D03*
X117500000Y-73000000D03*
D17*
X174000000Y-92500000D03*
X172000000Y-92500000D03*
X170000000Y-92500000D03*
X168000000Y-92500000D03*
X166000000Y-92500000D03*
X164000000Y-92500000D03*
D18*
X162500000Y-95100000D03*
X175600000Y-95100000D03*
X175600000Y-89900000D03*
X162500000Y-89900000D03*
D17*
X171000000Y-122000000D03*
X171000000Y-120000000D03*
X171000000Y-118000000D03*
X171000000Y-116000000D03*
X171000000Y-114000000D03*
X171000000Y-112000000D03*
D18*
X168400000Y-110500000D03*
X168400000Y-123600000D03*
X173600000Y-123600000D03*
X173600000Y-110500000D03*
G36*
G01*
X146262500Y-126425000D02*
X146737500Y-126425000D01*
G75*
G02*
X146975000Y-126662500I0J-237500D01*
G01*
X146975000Y-127162500D01*
G75*
G02*
X146737500Y-127400000I-237500J0D01*
G01*
X146262500Y-127400000D01*
G75*
G02*
X146025000Y-127162500I0J237500D01*
G01*
X146025000Y-126662500D01*
G75*
G02*
X146262500Y-126425000I237500J0D01*
G01*
G37*
G36*
G01*
X146262500Y-124600000D02*
X146737500Y-124600000D01*
G75*
G02*
X146975000Y-124837500I0J-237500D01*
G01*
X146975000Y-125337500D01*
G75*
G02*
X146737500Y-125575000I-237500J0D01*
G01*
X146262500Y-125575000D01*
G75*
G02*
X146025000Y-125337500I0J237500D01*
G01*
X146025000Y-124837500D01*
G75*
G02*
X146262500Y-124600000I237500J0D01*
G01*
G37*
D19*
X199200000Y-75200000D03*
X199200000Y-72400000D03*
D20*
G36*
X193025000Y-74900000D02*
G01*
X193525000Y-74150000D01*
X194525000Y-74150000D01*
X194525000Y-75650000D01*
X193525000Y-75650000D01*
X193025000Y-74900000D01*
G37*
G36*
X192075000Y-74150000D02*
G01*
X193225000Y-74150000D01*
X192725000Y-74900000D01*
X193225000Y-75650000D01*
X192075000Y-75650000D01*
X192075000Y-74150000D01*
G37*
G36*
G01*
X181550000Y-69850000D02*
X180450000Y-69850000D01*
G75*
G02*
X180200000Y-69600000I0J250000D01*
G01*
X180200000Y-66600000D01*
G75*
G02*
X180450000Y-66350000I250000J0D01*
G01*
X181550000Y-66350000D01*
G75*
G02*
X181800000Y-66600000I0J-250000D01*
G01*
X181800000Y-69600000D01*
G75*
G02*
X181550000Y-69850000I-250000J0D01*
G01*
G37*
G36*
G01*
X181550000Y-75250000D02*
X180450000Y-75250000D01*
G75*
G02*
X180200000Y-75000000I0J250000D01*
G01*
X180200000Y-72000000D01*
G75*
G02*
X180450000Y-71750000I250000J0D01*
G01*
X181550000Y-71750000D01*
G75*
G02*
X181800000Y-72000000I0J-250000D01*
G01*
X181800000Y-75000000D01*
G75*
G02*
X181550000Y-75250000I-250000J0D01*
G01*
G37*
G36*
G01*
X181550000Y-79550000D02*
X180450000Y-79550000D01*
G75*
G02*
X180200000Y-79300000I0J250000D01*
G01*
X180200000Y-76300000D01*
G75*
G02*
X180450000Y-76050000I250000J0D01*
G01*
X181550000Y-76050000D01*
G75*
G02*
X181800000Y-76300000I0J-250000D01*
G01*
X181800000Y-79300000D01*
G75*
G02*
X181550000Y-79550000I-250000J0D01*
G01*
G37*
G36*
G01*
X181550000Y-84950000D02*
X180450000Y-84950000D01*
G75*
G02*
X180200000Y-84700000I0J250000D01*
G01*
X180200000Y-81700000D01*
G75*
G02*
X180450000Y-81450000I250000J0D01*
G01*
X181550000Y-81450000D01*
G75*
G02*
X181800000Y-81700000I0J-250000D01*
G01*
X181800000Y-84700000D01*
G75*
G02*
X181550000Y-84950000I-250000J0D01*
G01*
G37*
D21*
X162500000Y-115580000D03*
X165040000Y-113040000D03*
X162500000Y-110500000D03*
D22*
X153500000Y-119415000D03*
X153500000Y-114585000D03*
X149391436Y-118334953D03*
X150960768Y-120494953D03*
X153500000Y-121320000D03*
X156039232Y-120494953D03*
X157608564Y-118334953D03*
X157608564Y-115665047D03*
X156039232Y-113505047D03*
X153500000Y-112680000D03*
X150960768Y-113505047D03*
X149391436Y-115665047D03*
G36*
G01*
X204050000Y-72150000D02*
X205150000Y-72150000D01*
G75*
G02*
X205400000Y-72400000I0J-250000D01*
G01*
X205400000Y-75400000D01*
G75*
G02*
X205150000Y-75650000I-250000J0D01*
G01*
X204050000Y-75650000D01*
G75*
G02*
X203800000Y-75400000I0J250000D01*
G01*
X203800000Y-72400000D01*
G75*
G02*
X204050000Y-72150000I250000J0D01*
G01*
G37*
G36*
G01*
X204050000Y-66750000D02*
X205150000Y-66750000D01*
G75*
G02*
X205400000Y-67000000I0J-250000D01*
G01*
X205400000Y-70000000D01*
G75*
G02*
X205150000Y-70250000I-250000J0D01*
G01*
X204050000Y-70250000D01*
G75*
G02*
X203800000Y-70000000I0J250000D01*
G01*
X203800000Y-67000000D01*
G75*
G02*
X204050000Y-66750000I250000J0D01*
G01*
G37*
D21*
X142000000Y-115580000D03*
X144540000Y-113040000D03*
X142000000Y-110500000D03*
D22*
X128000000Y-119415000D03*
X128000000Y-114585000D03*
X123891436Y-118334953D03*
X125460768Y-120494953D03*
X128000000Y-121320000D03*
X130539232Y-120494953D03*
X132108564Y-118334953D03*
X132108564Y-115665047D03*
X130539232Y-113505047D03*
X128000000Y-112680000D03*
X125460768Y-113505047D03*
X123891436Y-115665047D03*
D21*
X173380000Y-100800000D03*
X170840000Y-98260000D03*
X168300000Y-100800000D03*
G36*
G01*
X169625000Y-103437500D02*
X169625000Y-102962500D01*
G75*
G02*
X169862500Y-102725000I237500J0D01*
G01*
X170362500Y-102725000D01*
G75*
G02*
X170600000Y-102962500I0J-237500D01*
G01*
X170600000Y-103437500D01*
G75*
G02*
X170362500Y-103675000I-237500J0D01*
G01*
X169862500Y-103675000D01*
G75*
G02*
X169625000Y-103437500I0J237500D01*
G01*
G37*
G36*
G01*
X167800000Y-103437500D02*
X167800000Y-102962500D01*
G75*
G02*
X168037500Y-102725000I237500J0D01*
G01*
X168537500Y-102725000D01*
G75*
G02*
X168775000Y-102962500I0J-237500D01*
G01*
X168775000Y-103437500D01*
G75*
G02*
X168537500Y-103675000I-237500J0D01*
G01*
X168037500Y-103675000D01*
G75*
G02*
X167800000Y-103437500I0J237500D01*
G01*
G37*
G36*
G01*
X173875000Y-102962500D02*
X173875000Y-103437500D01*
G75*
G02*
X173637500Y-103675000I-237500J0D01*
G01*
X173137500Y-103675000D01*
G75*
G02*
X172900000Y-103437500I0J237500D01*
G01*
X172900000Y-102962500D01*
G75*
G02*
X173137500Y-102725000I237500J0D01*
G01*
X173637500Y-102725000D01*
G75*
G02*
X173875000Y-102962500I0J-237500D01*
G01*
G37*
G36*
G01*
X175700000Y-102962500D02*
X175700000Y-103437500D01*
G75*
G02*
X175462500Y-103675000I-237500J0D01*
G01*
X174962500Y-103675000D01*
G75*
G02*
X174725000Y-103437500I0J237500D01*
G01*
X174725000Y-102962500D01*
G75*
G02*
X174962500Y-102725000I237500J0D01*
G01*
X175462500Y-102725000D01*
G75*
G02*
X175700000Y-102962500I0J-237500D01*
G01*
G37*
G36*
G01*
X120550000Y-108299999D02*
X120550000Y-109200001D01*
G75*
G02*
X120300001Y-109450000I-249999J0D01*
G01*
X119649999Y-109450000D01*
G75*
G02*
X119400000Y-109200001I0J249999D01*
G01*
X119400000Y-108299999D01*
G75*
G02*
X119649999Y-108050000I249999J0D01*
G01*
X120300001Y-108050000D01*
G75*
G02*
X120550000Y-108299999I0J-249999D01*
G01*
G37*
G36*
G01*
X122600000Y-108299999D02*
X122600000Y-109200001D01*
G75*
G02*
X122350001Y-109450000I-249999J0D01*
G01*
X121699999Y-109450000D01*
G75*
G02*
X121450000Y-109200001I0J249999D01*
G01*
X121450000Y-108299999D01*
G75*
G02*
X121699999Y-108050000I249999J0D01*
G01*
X122350001Y-108050000D01*
G75*
G02*
X122600000Y-108299999I0J-249999D01*
G01*
G37*
G36*
G01*
X120550000Y-97299999D02*
X120550000Y-98200001D01*
G75*
G02*
X120300001Y-98450000I-249999J0D01*
G01*
X119649999Y-98450000D01*
G75*
G02*
X119400000Y-98200001I0J249999D01*
G01*
X119400000Y-97299999D01*
G75*
G02*
X119649999Y-97050000I249999J0D01*
G01*
X120300001Y-97050000D01*
G75*
G02*
X120550000Y-97299999I0J-249999D01*
G01*
G37*
G36*
G01*
X122600000Y-97299999D02*
X122600000Y-98200001D01*
G75*
G02*
X122350001Y-98450000I-249999J0D01*
G01*
X121699999Y-98450000D01*
G75*
G02*
X121450000Y-98200001I0J249999D01*
G01*
X121450000Y-97299999D01*
G75*
G02*
X121699999Y-97050000I249999J0D01*
G01*
X122350001Y-97050000D01*
G75*
G02*
X122600000Y-97299999I0J-249999D01*
G01*
G37*
D23*
X145500000Y-131000000D03*
X144550000Y-129000000D03*
X146450000Y-129000000D03*
G36*
G01*
X122400000Y-131145300D02*
X122400000Y-125854700D01*
G75*
G02*
X122554700Y-125700000I154700J0D01*
G01*
X123545300Y-125700000D01*
G75*
G02*
X123700000Y-125854700I0J-154700D01*
G01*
X123700000Y-131145300D01*
G75*
G02*
X123545300Y-131300000I-154700J0D01*
G01*
X122554700Y-131300000D01*
G75*
G02*
X122400000Y-131145300I0J154700D01*
G01*
G37*
G36*
G01*
X126300000Y-131145300D02*
X126300000Y-125854700D01*
G75*
G02*
X126454700Y-125700000I154700J0D01*
G01*
X127445300Y-125700000D01*
G75*
G02*
X127600000Y-125854700I0J-154700D01*
G01*
X127600000Y-131145300D01*
G75*
G02*
X127445300Y-131300000I-154700J0D01*
G01*
X126454700Y-131300000D01*
G75*
G02*
X126300000Y-131145300I0J154700D01*
G01*
G37*
G36*
G01*
X127600000Y-68854700D02*
X127600000Y-74145300D01*
G75*
G02*
X127445300Y-74300000I-154700J0D01*
G01*
X126454700Y-74300000D01*
G75*
G02*
X126300000Y-74145300I0J154700D01*
G01*
X126300000Y-68854700D01*
G75*
G02*
X126454700Y-68700000I154700J0D01*
G01*
X127445300Y-68700000D01*
G75*
G02*
X127600000Y-68854700I0J-154700D01*
G01*
G37*
G36*
G01*
X123700000Y-68854700D02*
X123700000Y-74145300D01*
G75*
G02*
X123545300Y-74300000I-154700J0D01*
G01*
X122554700Y-74300000D01*
G75*
G02*
X122400000Y-74145300I0J154700D01*
G01*
X122400000Y-68854700D01*
G75*
G02*
X122554700Y-68700000I154700J0D01*
G01*
X123545300Y-68700000D01*
G75*
G02*
X123700000Y-68854700I0J-154700D01*
G01*
G37*
D22*
X128000000Y-85415000D03*
X128000000Y-80585000D03*
X123891436Y-84334953D03*
X125460768Y-86494953D03*
X128000000Y-87320000D03*
X130539232Y-86494953D03*
X132108564Y-84334953D03*
X132108564Y-81665047D03*
X130539232Y-79505047D03*
X128000000Y-78680000D03*
X125460768Y-79505047D03*
X123891436Y-81665047D03*
D15*
X169000000Y-82900000D03*
X169000000Y-74100000D03*
D12*
X162000000Y-81000000D03*
X162000000Y-78500000D03*
X162000000Y-76000000D03*
G36*
G01*
X197237500Y-68762500D02*
X196762500Y-68762500D01*
G75*
G02*
X196525000Y-68525000I0J237500D01*
G01*
X196525000Y-68025000D01*
G75*
G02*
X196762500Y-67787500I237500J0D01*
G01*
X197237500Y-67787500D01*
G75*
G02*
X197475000Y-68025000I0J-237500D01*
G01*
X197475000Y-68525000D01*
G75*
G02*
X197237500Y-68762500I-237500J0D01*
G01*
G37*
G36*
G01*
X197237500Y-70587500D02*
X196762500Y-70587500D01*
G75*
G02*
X196525000Y-70350000I0J237500D01*
G01*
X196525000Y-69850000D01*
G75*
G02*
X196762500Y-69612500I237500J0D01*
G01*
X197237500Y-69612500D01*
G75*
G02*
X197475000Y-69850000I0J-237500D01*
G01*
X197475000Y-70350000D01*
G75*
G02*
X197237500Y-70587500I-237500J0D01*
G01*
G37*
G36*
G01*
X198662500Y-69625000D02*
X199137500Y-69625000D01*
G75*
G02*
X199375000Y-69862500I0J-237500D01*
G01*
X199375000Y-70362500D01*
G75*
G02*
X199137500Y-70600000I-237500J0D01*
G01*
X198662500Y-70600000D01*
G75*
G02*
X198425000Y-70362500I0J237500D01*
G01*
X198425000Y-69862500D01*
G75*
G02*
X198662500Y-69625000I237500J0D01*
G01*
G37*
G36*
G01*
X198662500Y-67800000D02*
X199137500Y-67800000D01*
G75*
G02*
X199375000Y-68037500I0J-237500D01*
G01*
X199375000Y-68537500D01*
G75*
G02*
X199137500Y-68775000I-237500J0D01*
G01*
X198662500Y-68775000D01*
G75*
G02*
X198425000Y-68537500I0J237500D01*
G01*
X198425000Y-68037500D01*
G75*
G02*
X198662500Y-67800000I237500J0D01*
G01*
G37*
D14*
X205900000Y-82500000D03*
D24*
X203900000Y-78000000D03*
X203900000Y-87000000D03*
D25*
X202900000Y-82500000D03*
D26*
X196900000Y-82500000D03*
G36*
G01*
X181025000Y-116720000D02*
X181025000Y-117020000D01*
G75*
G02*
X180875000Y-117170000I-150000J0D01*
G01*
X179225000Y-117170000D01*
G75*
G02*
X179075000Y-117020000I0J150000D01*
G01*
X179075000Y-116720000D01*
G75*
G02*
X179225000Y-116570000I150000J0D01*
G01*
X180875000Y-116570000D01*
G75*
G02*
X181025000Y-116720000I0J-150000D01*
G01*
G37*
G36*
G01*
X181025000Y-115450000D02*
X181025000Y-115750000D01*
G75*
G02*
X180875000Y-115900000I-150000J0D01*
G01*
X179225000Y-115900000D01*
G75*
G02*
X179075000Y-115750000I0J150000D01*
G01*
X179075000Y-115450000D01*
G75*
G02*
X179225000Y-115300000I150000J0D01*
G01*
X180875000Y-115300000D01*
G75*
G02*
X181025000Y-115450000I0J-150000D01*
G01*
G37*
G36*
G01*
X181025000Y-114180000D02*
X181025000Y-114480000D01*
G75*
G02*
X180875000Y-114630000I-150000J0D01*
G01*
X179225000Y-114630000D01*
G75*
G02*
X179075000Y-114480000I0J150000D01*
G01*
X179075000Y-114180000D01*
G75*
G02*
X179225000Y-114030000I150000J0D01*
G01*
X180875000Y-114030000D01*
G75*
G02*
X181025000Y-114180000I0J-150000D01*
G01*
G37*
G36*
G01*
X181025000Y-112910000D02*
X181025000Y-113210000D01*
G75*
G02*
X180875000Y-113360000I-150000J0D01*
G01*
X179225000Y-113360000D01*
G75*
G02*
X179075000Y-113210000I0J150000D01*
G01*
X179075000Y-112910000D01*
G75*
G02*
X179225000Y-112760000I150000J0D01*
G01*
X180875000Y-112760000D01*
G75*
G02*
X181025000Y-112910000I0J-150000D01*
G01*
G37*
G36*
G01*
X185975000Y-112910000D02*
X185975000Y-113210000D01*
G75*
G02*
X185825000Y-113360000I-150000J0D01*
G01*
X184175000Y-113360000D01*
G75*
G02*
X184025000Y-113210000I0J150000D01*
G01*
X184025000Y-112910000D01*
G75*
G02*
X184175000Y-112760000I150000J0D01*
G01*
X185825000Y-112760000D01*
G75*
G02*
X185975000Y-112910000I0J-150000D01*
G01*
G37*
G36*
G01*
X185975000Y-114180000D02*
X185975000Y-114480000D01*
G75*
G02*
X185825000Y-114630000I-150000J0D01*
G01*
X184175000Y-114630000D01*
G75*
G02*
X184025000Y-114480000I0J150000D01*
G01*
X184025000Y-114180000D01*
G75*
G02*
X184175000Y-114030000I150000J0D01*
G01*
X185825000Y-114030000D01*
G75*
G02*
X185975000Y-114180000I0J-150000D01*
G01*
G37*
G36*
G01*
X185975000Y-115450000D02*
X185975000Y-115750000D01*
G75*
G02*
X185825000Y-115900000I-150000J0D01*
G01*
X184175000Y-115900000D01*
G75*
G02*
X184025000Y-115750000I0J150000D01*
G01*
X184025000Y-115450000D01*
G75*
G02*
X184175000Y-115300000I150000J0D01*
G01*
X185825000Y-115300000D01*
G75*
G02*
X185975000Y-115450000I0J-150000D01*
G01*
G37*
G36*
G01*
X185975000Y-116720000D02*
X185975000Y-117020000D01*
G75*
G02*
X185825000Y-117170000I-150000J0D01*
G01*
X184175000Y-117170000D01*
G75*
G02*
X184025000Y-117020000I0J150000D01*
G01*
X184025000Y-116720000D01*
G75*
G02*
X184175000Y-116570000I150000J0D01*
G01*
X185825000Y-116570000D01*
G75*
G02*
X185975000Y-116720000I0J-150000D01*
G01*
G37*
G36*
G01*
X156755000Y-91500000D02*
X157055000Y-91500000D01*
G75*
G02*
X157205000Y-91650000I0J-150000D01*
G01*
X157205000Y-93300000D01*
G75*
G02*
X157055000Y-93450000I-150000J0D01*
G01*
X156755000Y-93450000D01*
G75*
G02*
X156605000Y-93300000I0J150000D01*
G01*
X156605000Y-91650000D01*
G75*
G02*
X156755000Y-91500000I150000J0D01*
G01*
G37*
G36*
G01*
X155485000Y-91500000D02*
X155785000Y-91500000D01*
G75*
G02*
X155935000Y-91650000I0J-150000D01*
G01*
X155935000Y-93300000D01*
G75*
G02*
X155785000Y-93450000I-150000J0D01*
G01*
X155485000Y-93450000D01*
G75*
G02*
X155335000Y-93300000I0J150000D01*
G01*
X155335000Y-91650000D01*
G75*
G02*
X155485000Y-91500000I150000J0D01*
G01*
G37*
G36*
G01*
X154215000Y-91500000D02*
X154515000Y-91500000D01*
G75*
G02*
X154665000Y-91650000I0J-150000D01*
G01*
X154665000Y-93300000D01*
G75*
G02*
X154515000Y-93450000I-150000J0D01*
G01*
X154215000Y-93450000D01*
G75*
G02*
X154065000Y-93300000I0J150000D01*
G01*
X154065000Y-91650000D01*
G75*
G02*
X154215000Y-91500000I150000J0D01*
G01*
G37*
G36*
G01*
X152945000Y-91500000D02*
X153245000Y-91500000D01*
G75*
G02*
X153395000Y-91650000I0J-150000D01*
G01*
X153395000Y-93300000D01*
G75*
G02*
X153245000Y-93450000I-150000J0D01*
G01*
X152945000Y-93450000D01*
G75*
G02*
X152795000Y-93300000I0J150000D01*
G01*
X152795000Y-91650000D01*
G75*
G02*
X152945000Y-91500000I150000J0D01*
G01*
G37*
G36*
G01*
X152945000Y-86550000D02*
X153245000Y-86550000D01*
G75*
G02*
X153395000Y-86700000I0J-150000D01*
G01*
X153395000Y-88350000D01*
G75*
G02*
X153245000Y-88500000I-150000J0D01*
G01*
X152945000Y-88500000D01*
G75*
G02*
X152795000Y-88350000I0J150000D01*
G01*
X152795000Y-86700000D01*
G75*
G02*
X152945000Y-86550000I150000J0D01*
G01*
G37*
G36*
G01*
X154215000Y-86550000D02*
X154515000Y-86550000D01*
G75*
G02*
X154665000Y-86700000I0J-150000D01*
G01*
X154665000Y-88350000D01*
G75*
G02*
X154515000Y-88500000I-150000J0D01*
G01*
X154215000Y-88500000D01*
G75*
G02*
X154065000Y-88350000I0J150000D01*
G01*
X154065000Y-86700000D01*
G75*
G02*
X154215000Y-86550000I150000J0D01*
G01*
G37*
G36*
G01*
X155485000Y-86550000D02*
X155785000Y-86550000D01*
G75*
G02*
X155935000Y-86700000I0J-150000D01*
G01*
X155935000Y-88350000D01*
G75*
G02*
X155785000Y-88500000I-150000J0D01*
G01*
X155485000Y-88500000D01*
G75*
G02*
X155335000Y-88350000I0J150000D01*
G01*
X155335000Y-86700000D01*
G75*
G02*
X155485000Y-86550000I150000J0D01*
G01*
G37*
G36*
G01*
X156755000Y-86550000D02*
X157055000Y-86550000D01*
G75*
G02*
X157205000Y-86700000I0J-150000D01*
G01*
X157205000Y-88350000D01*
G75*
G02*
X157055000Y-88500000I-150000J0D01*
G01*
X156755000Y-88500000D01*
G75*
G02*
X156605000Y-88350000I0J150000D01*
G01*
X156605000Y-86700000D01*
G75*
G02*
X156755000Y-86550000I150000J0D01*
G01*
G37*
D21*
X134710000Y-102540000D03*
X137250000Y-100000000D03*
X134710000Y-97460000D03*
G36*
G01*
X189068458Y-115367418D02*
X188732582Y-115031542D01*
G75*
G02*
X188732582Y-114695666I167938J167938D01*
G01*
X189086136Y-114342112D01*
G75*
G02*
X189422012Y-114342112I167938J-167938D01*
G01*
X189757888Y-114677988D01*
G75*
G02*
X189757888Y-115013864I-167938J-167938D01*
G01*
X189404334Y-115367418D01*
G75*
G02*
X189068458Y-115367418I-167938J167938D01*
G01*
G37*
G36*
G01*
X187777988Y-116657888D02*
X187442112Y-116322012D01*
G75*
G02*
X187442112Y-115986136I167938J167938D01*
G01*
X187795666Y-115632582D01*
G75*
G02*
X188131542Y-115632582I167938J-167938D01*
G01*
X188467418Y-115968458D01*
G75*
G02*
X188467418Y-116304334I-167938J-167938D01*
G01*
X188113864Y-116657888D01*
G75*
G02*
X187777988Y-116657888I-167938J167938D01*
G01*
G37*
G36*
G01*
X164125000Y-107237500D02*
X164125000Y-106762500D01*
G75*
G02*
X164362500Y-106525000I237500J0D01*
G01*
X164862500Y-106525000D01*
G75*
G02*
X165100000Y-106762500I0J-237500D01*
G01*
X165100000Y-107237500D01*
G75*
G02*
X164862500Y-107475000I-237500J0D01*
G01*
X164362500Y-107475000D01*
G75*
G02*
X164125000Y-107237500I0J237500D01*
G01*
G37*
G36*
G01*
X162300000Y-107237500D02*
X162300000Y-106762500D01*
G75*
G02*
X162537500Y-106525000I237500J0D01*
G01*
X163037500Y-106525000D01*
G75*
G02*
X163275000Y-106762500I0J-237500D01*
G01*
X163275000Y-107237500D01*
G75*
G02*
X163037500Y-107475000I-237500J0D01*
G01*
X162537500Y-107475000D01*
G75*
G02*
X162300000Y-107237500I0J237500D01*
G01*
G37*
G36*
G01*
X147575000Y-109562500D02*
X147575000Y-110037500D01*
G75*
G02*
X147337500Y-110275000I-237500J0D01*
G01*
X146837500Y-110275000D01*
G75*
G02*
X146600000Y-110037500I0J237500D01*
G01*
X146600000Y-109562500D01*
G75*
G02*
X146837500Y-109325000I237500J0D01*
G01*
X147337500Y-109325000D01*
G75*
G02*
X147575000Y-109562500I0J-237500D01*
G01*
G37*
G36*
G01*
X149400000Y-109562500D02*
X149400000Y-110037500D01*
G75*
G02*
X149162500Y-110275000I-237500J0D01*
G01*
X148662500Y-110275000D01*
G75*
G02*
X148425000Y-110037500I0J237500D01*
G01*
X148425000Y-109562500D01*
G75*
G02*
X148662500Y-109325000I237500J0D01*
G01*
X149162500Y-109325000D01*
G75*
G02*
X149400000Y-109562500I0J-237500D01*
G01*
G37*
G36*
G01*
X129337500Y-108737500D02*
X129337500Y-108262500D01*
G75*
G02*
X129575000Y-108025000I237500J0D01*
G01*
X130075000Y-108025000D01*
G75*
G02*
X130312500Y-108262500I0J-237500D01*
G01*
X130312500Y-108737500D01*
G75*
G02*
X130075000Y-108975000I-237500J0D01*
G01*
X129575000Y-108975000D01*
G75*
G02*
X129337500Y-108737500I0J237500D01*
G01*
G37*
G36*
G01*
X127512500Y-108737500D02*
X127512500Y-108262500D01*
G75*
G02*
X127750000Y-108025000I237500J0D01*
G01*
X128250000Y-108025000D01*
G75*
G02*
X128487500Y-108262500I0J-237500D01*
G01*
X128487500Y-108737500D01*
G75*
G02*
X128250000Y-108975000I-237500J0D01*
G01*
X127750000Y-108975000D01*
G75*
G02*
X127512500Y-108737500I0J237500D01*
G01*
G37*
G36*
G01*
X129337500Y-91537500D02*
X129337500Y-91062500D01*
G75*
G02*
X129575000Y-90825000I237500J0D01*
G01*
X130075000Y-90825000D01*
G75*
G02*
X130312500Y-91062500I0J-237500D01*
G01*
X130312500Y-91537500D01*
G75*
G02*
X130075000Y-91775000I-237500J0D01*
G01*
X129575000Y-91775000D01*
G75*
G02*
X129337500Y-91537500I0J237500D01*
G01*
G37*
G36*
G01*
X127512500Y-91537500D02*
X127512500Y-91062500D01*
G75*
G02*
X127750000Y-90825000I237500J0D01*
G01*
X128250000Y-90825000D01*
G75*
G02*
X128487500Y-91062500I0J-237500D01*
G01*
X128487500Y-91537500D01*
G75*
G02*
X128250000Y-91775000I-237500J0D01*
G01*
X127750000Y-91775000D01*
G75*
G02*
X127512500Y-91537500I0J237500D01*
G01*
G37*
G36*
G01*
X119374999Y-105650000D02*
X120625001Y-105650000D01*
G75*
G02*
X120875000Y-105899999I0J-249999D01*
G01*
X120875000Y-106700001D01*
G75*
G02*
X120625001Y-106950000I-249999J0D01*
G01*
X119374999Y-106950000D01*
G75*
G02*
X119125000Y-106700001I0J249999D01*
G01*
X119125000Y-105899999D01*
G75*
G02*
X119374999Y-105650000I249999J0D01*
G01*
G37*
G36*
G01*
X119374999Y-102550000D02*
X120625001Y-102550000D01*
G75*
G02*
X120875000Y-102799999I0J-249999D01*
G01*
X120875000Y-103600001D01*
G75*
G02*
X120625001Y-103850000I-249999J0D01*
G01*
X119374999Y-103850000D01*
G75*
G02*
X119125000Y-103600001I0J249999D01*
G01*
X119125000Y-102799999D01*
G75*
G02*
X119374999Y-102550000I249999J0D01*
G01*
G37*
G36*
G01*
X115075000Y-111262500D02*
X115075000Y-111737500D01*
G75*
G02*
X114837500Y-111975000I-237500J0D01*
G01*
X114337500Y-111975000D01*
G75*
G02*
X114100000Y-111737500I0J237500D01*
G01*
X114100000Y-111262500D01*
G75*
G02*
X114337500Y-111025000I237500J0D01*
G01*
X114837500Y-111025000D01*
G75*
G02*
X115075000Y-111262500I0J-237500D01*
G01*
G37*
G36*
G01*
X116900000Y-111262500D02*
X116900000Y-111737500D01*
G75*
G02*
X116662500Y-111975000I-237500J0D01*
G01*
X116162500Y-111975000D01*
G75*
G02*
X115925000Y-111737500I0J237500D01*
G01*
X115925000Y-111262500D01*
G75*
G02*
X116162500Y-111025000I237500J0D01*
G01*
X116662500Y-111025000D01*
G75*
G02*
X116900000Y-111262500I0J-237500D01*
G01*
G37*
G36*
G01*
X115075000Y-88262500D02*
X115075000Y-88737500D01*
G75*
G02*
X114837500Y-88975000I-237500J0D01*
G01*
X114337500Y-88975000D01*
G75*
G02*
X114100000Y-88737500I0J237500D01*
G01*
X114100000Y-88262500D01*
G75*
G02*
X114337500Y-88025000I237500J0D01*
G01*
X114837500Y-88025000D01*
G75*
G02*
X115075000Y-88262500I0J-237500D01*
G01*
G37*
G36*
G01*
X116900000Y-88262500D02*
X116900000Y-88737500D01*
G75*
G02*
X116662500Y-88975000I-237500J0D01*
G01*
X116162500Y-88975000D01*
G75*
G02*
X115925000Y-88737500I0J237500D01*
G01*
X115925000Y-88262500D01*
G75*
G02*
X116162500Y-88025000I237500J0D01*
G01*
X116662500Y-88025000D01*
G75*
G02*
X116900000Y-88262500I0J-237500D01*
G01*
G37*
G36*
G01*
X108575001Y-113650000D02*
X106424999Y-113650000D01*
G75*
G02*
X106175000Y-113400001I0J249999D01*
G01*
X106175000Y-112599999D01*
G75*
G02*
X106424999Y-112350000I249999J0D01*
G01*
X108575001Y-112350000D01*
G75*
G02*
X108825000Y-112599999I0J-249999D01*
G01*
X108825000Y-113400001D01*
G75*
G02*
X108575001Y-113650000I-249999J0D01*
G01*
G37*
G36*
G01*
X108575001Y-116750000D02*
X106424999Y-116750000D01*
G75*
G02*
X106175000Y-116500001I0J249999D01*
G01*
X106175000Y-115699999D01*
G75*
G02*
X106424999Y-115450000I249999J0D01*
G01*
X108575001Y-115450000D01*
G75*
G02*
X108825000Y-115699999I0J-249999D01*
G01*
X108825000Y-116500001D01*
G75*
G02*
X108575001Y-116750000I-249999J0D01*
G01*
G37*
G36*
G01*
X106424999Y-86350000D02*
X108575001Y-86350000D01*
G75*
G02*
X108825000Y-86599999I0J-249999D01*
G01*
X108825000Y-87400001D01*
G75*
G02*
X108575001Y-87650000I-249999J0D01*
G01*
X106424999Y-87650000D01*
G75*
G02*
X106175000Y-87400001I0J249999D01*
G01*
X106175000Y-86599999D01*
G75*
G02*
X106424999Y-86350000I249999J0D01*
G01*
G37*
G36*
G01*
X106424999Y-83250000D02*
X108575001Y-83250000D01*
G75*
G02*
X108825000Y-83499999I0J-249999D01*
G01*
X108825000Y-84300001D01*
G75*
G02*
X108575001Y-84550000I-249999J0D01*
G01*
X106424999Y-84550000D01*
G75*
G02*
X106175000Y-84300001I0J249999D01*
G01*
X106175000Y-83499999D01*
G75*
G02*
X106424999Y-83250000I249999J0D01*
G01*
G37*
G36*
G01*
X119374999Y-94650000D02*
X120625001Y-94650000D01*
G75*
G02*
X120875000Y-94899999I0J-249999D01*
G01*
X120875000Y-95700001D01*
G75*
G02*
X120625001Y-95950000I-249999J0D01*
G01*
X119374999Y-95950000D01*
G75*
G02*
X119125000Y-95700001I0J249999D01*
G01*
X119125000Y-94899999D01*
G75*
G02*
X119374999Y-94650000I249999J0D01*
G01*
G37*
G36*
G01*
X119374999Y-91550000D02*
X120625001Y-91550000D01*
G75*
G02*
X120875000Y-91799999I0J-249999D01*
G01*
X120875000Y-92600001D01*
G75*
G02*
X120625001Y-92850000I-249999J0D01*
G01*
X119374999Y-92850000D01*
G75*
G02*
X119125000Y-92600001I0J249999D01*
G01*
X119125000Y-91799999D01*
G75*
G02*
X119374999Y-91550000I249999J0D01*
G01*
G37*
G36*
G01*
X109400000Y-109600000D02*
X109000000Y-109600000D01*
G75*
G02*
X108800000Y-109400000I0J200000D01*
G01*
X108800000Y-107740000D01*
G75*
G02*
X109000000Y-107540000I200000J0D01*
G01*
X109400000Y-107540000D01*
G75*
G02*
X109600000Y-107740000I0J-200000D01*
G01*
X109600000Y-109400000D01*
G75*
G02*
X109400000Y-109600000I-200000J0D01*
G01*
G37*
G36*
G01*
X112600000Y-109600000D02*
X112200000Y-109600000D01*
G75*
G02*
X112000000Y-109400000I0J200000D01*
G01*
X112000000Y-107740000D01*
G75*
G02*
X112200000Y-107540000I200000J0D01*
G01*
X112600000Y-107540000D01*
G75*
G02*
X112800000Y-107740000I0J-200000D01*
G01*
X112800000Y-109400000D01*
G75*
G02*
X112600000Y-109600000I-200000J0D01*
G01*
G37*
G36*
G01*
X114800000Y-109600000D02*
X114400000Y-109600000D01*
G75*
G02*
X114200000Y-109400000I0J200000D01*
G01*
X114200000Y-107740000D01*
G75*
G02*
X114400000Y-107540000I200000J0D01*
G01*
X114800000Y-107540000D01*
G75*
G02*
X115000000Y-107740000I0J-200000D01*
G01*
X115000000Y-109400000D01*
G75*
G02*
X114800000Y-109600000I-200000J0D01*
G01*
G37*
G36*
G01*
X117000000Y-109600000D02*
X116600000Y-109600000D01*
G75*
G02*
X116400000Y-109400000I0J200000D01*
G01*
X116400000Y-107740000D01*
G75*
G02*
X116600000Y-107540000I200000J0D01*
G01*
X117000000Y-107540000D01*
G75*
G02*
X117200000Y-107740000I0J-200000D01*
G01*
X117200000Y-109400000D01*
G75*
G02*
X117000000Y-109600000I-200000J0D01*
G01*
G37*
G36*
G01*
X117000000Y-103460000D02*
X116600000Y-103460000D01*
G75*
G02*
X116400000Y-103260000I0J200000D01*
G01*
X116400000Y-101600000D01*
G75*
G02*
X116600000Y-101400000I200000J0D01*
G01*
X117000000Y-101400000D01*
G75*
G02*
X117200000Y-101600000I0J-200000D01*
G01*
X117200000Y-103260000D01*
G75*
G02*
X117000000Y-103460000I-200000J0D01*
G01*
G37*
G36*
G01*
X114800000Y-103460000D02*
X114400000Y-103460000D01*
G75*
G02*
X114200000Y-103260000I0J200000D01*
G01*
X114200000Y-101600000D01*
G75*
G02*
X114400000Y-101400000I200000J0D01*
G01*
X114800000Y-101400000D01*
G75*
G02*
X115000000Y-101600000I0J-200000D01*
G01*
X115000000Y-103260000D01*
G75*
G02*
X114800000Y-103460000I-200000J0D01*
G01*
G37*
G36*
G01*
X112600000Y-103460000D02*
X112200000Y-103460000D01*
G75*
G02*
X112000000Y-103260000I0J200000D01*
G01*
X112000000Y-101600000D01*
G75*
G02*
X112200000Y-101400000I200000J0D01*
G01*
X112600000Y-101400000D01*
G75*
G02*
X112800000Y-101600000I0J-200000D01*
G01*
X112800000Y-103260000D01*
G75*
G02*
X112600000Y-103460000I-200000J0D01*
G01*
G37*
G36*
G01*
X109400000Y-103460000D02*
X109000000Y-103460000D01*
G75*
G02*
X108800000Y-103260000I0J200000D01*
G01*
X108800000Y-101600000D01*
G75*
G02*
X109000000Y-101400000I200000J0D01*
G01*
X109400000Y-101400000D01*
G75*
G02*
X109600000Y-101600000I0J-200000D01*
G01*
X109600000Y-103260000D01*
G75*
G02*
X109400000Y-103460000I-200000J0D01*
G01*
G37*
G36*
G01*
X109400000Y-98600000D02*
X109000000Y-98600000D01*
G75*
G02*
X108800000Y-98400000I0J200000D01*
G01*
X108800000Y-96740000D01*
G75*
G02*
X109000000Y-96540000I200000J0D01*
G01*
X109400000Y-96540000D01*
G75*
G02*
X109600000Y-96740000I0J-200000D01*
G01*
X109600000Y-98400000D01*
G75*
G02*
X109400000Y-98600000I-200000J0D01*
G01*
G37*
G36*
G01*
X112600000Y-98600000D02*
X112200000Y-98600000D01*
G75*
G02*
X112000000Y-98400000I0J200000D01*
G01*
X112000000Y-96740000D01*
G75*
G02*
X112200000Y-96540000I200000J0D01*
G01*
X112600000Y-96540000D01*
G75*
G02*
X112800000Y-96740000I0J-200000D01*
G01*
X112800000Y-98400000D01*
G75*
G02*
X112600000Y-98600000I-200000J0D01*
G01*
G37*
G36*
G01*
X114800000Y-98600000D02*
X114400000Y-98600000D01*
G75*
G02*
X114200000Y-98400000I0J200000D01*
G01*
X114200000Y-96740000D01*
G75*
G02*
X114400000Y-96540000I200000J0D01*
G01*
X114800000Y-96540000D01*
G75*
G02*
X115000000Y-96740000I0J-200000D01*
G01*
X115000000Y-98400000D01*
G75*
G02*
X114800000Y-98600000I-200000J0D01*
G01*
G37*
G36*
G01*
X117000000Y-98600000D02*
X116600000Y-98600000D01*
G75*
G02*
X116400000Y-98400000I0J200000D01*
G01*
X116400000Y-96740000D01*
G75*
G02*
X116600000Y-96540000I200000J0D01*
G01*
X117000000Y-96540000D01*
G75*
G02*
X117200000Y-96740000I0J-200000D01*
G01*
X117200000Y-98400000D01*
G75*
G02*
X117000000Y-98600000I-200000J0D01*
G01*
G37*
G36*
G01*
X117000000Y-92460000D02*
X116600000Y-92460000D01*
G75*
G02*
X116400000Y-92260000I0J200000D01*
G01*
X116400000Y-90600000D01*
G75*
G02*
X116600000Y-90400000I200000J0D01*
G01*
X117000000Y-90400000D01*
G75*
G02*
X117200000Y-90600000I0J-200000D01*
G01*
X117200000Y-92260000D01*
G75*
G02*
X117000000Y-92460000I-200000J0D01*
G01*
G37*
G36*
G01*
X114800000Y-92460000D02*
X114400000Y-92460000D01*
G75*
G02*
X114200000Y-92260000I0J200000D01*
G01*
X114200000Y-90600000D01*
G75*
G02*
X114400000Y-90400000I200000J0D01*
G01*
X114800000Y-90400000D01*
G75*
G02*
X115000000Y-90600000I0J-200000D01*
G01*
X115000000Y-92260000D01*
G75*
G02*
X114800000Y-92460000I-200000J0D01*
G01*
G37*
G36*
G01*
X112600000Y-92460000D02*
X112200000Y-92460000D01*
G75*
G02*
X112000000Y-92260000I0J200000D01*
G01*
X112000000Y-90600000D01*
G75*
G02*
X112200000Y-90400000I200000J0D01*
G01*
X112600000Y-90400000D01*
G75*
G02*
X112800000Y-90600000I0J-200000D01*
G01*
X112800000Y-92260000D01*
G75*
G02*
X112600000Y-92460000I-200000J0D01*
G01*
G37*
G36*
G01*
X109400000Y-92460000D02*
X109000000Y-92460000D01*
G75*
G02*
X108800000Y-92260000I0J200000D01*
G01*
X108800000Y-90600000D01*
G75*
G02*
X109000000Y-90400000I200000J0D01*
G01*
X109400000Y-90400000D01*
G75*
G02*
X109600000Y-90600000I0J-200000D01*
G01*
X109600000Y-92260000D01*
G75*
G02*
X109400000Y-92460000I-200000J0D01*
G01*
G37*
G36*
G01*
X196349999Y-74650000D02*
X197250001Y-74650000D01*
G75*
G02*
X197500000Y-74899999I0J-249999D01*
G01*
X197500000Y-75550001D01*
G75*
G02*
X197250001Y-75800000I-249999J0D01*
G01*
X196349999Y-75800000D01*
G75*
G02*
X196100000Y-75550001I0J249999D01*
G01*
X196100000Y-74899999D01*
G75*
G02*
X196349999Y-74650000I249999J0D01*
G01*
G37*
G36*
G01*
X196349999Y-72600000D02*
X197250001Y-72600000D01*
G75*
G02*
X197500000Y-72849999I0J-249999D01*
G01*
X197500000Y-73500001D01*
G75*
G02*
X197250001Y-73750000I-249999J0D01*
G01*
X196349999Y-73750000D01*
G75*
G02*
X196100000Y-73500001I0J249999D01*
G01*
X196100000Y-72849999D01*
G75*
G02*
X196349999Y-72600000I249999J0D01*
G01*
G37*
G36*
G01*
X182150000Y-111062500D02*
X182150000Y-111537500D01*
G75*
G02*
X181912500Y-111775000I-237500J0D01*
G01*
X181337500Y-111775000D01*
G75*
G02*
X181100000Y-111537500I0J237500D01*
G01*
X181100000Y-111062500D01*
G75*
G02*
X181337500Y-110825000I237500J0D01*
G01*
X181912500Y-110825000D01*
G75*
G02*
X182150000Y-111062500I0J-237500D01*
G01*
G37*
G36*
G01*
X183900000Y-111062500D02*
X183900000Y-111537500D01*
G75*
G02*
X183662500Y-111775000I-237500J0D01*
G01*
X183087500Y-111775000D01*
G75*
G02*
X182850000Y-111537500I0J237500D01*
G01*
X182850000Y-111062500D01*
G75*
G02*
X183087500Y-110825000I237500J0D01*
G01*
X183662500Y-110825000D01*
G75*
G02*
X183900000Y-111062500I0J-237500D01*
G01*
G37*
D27*
X123500000Y-106950000D03*
X123500000Y-103050000D03*
X123500000Y-95950000D03*
X123500000Y-92050000D03*
G36*
G01*
X195055000Y-99450000D02*
X195355000Y-99450000D01*
G75*
G02*
X195505000Y-99600000I0J-150000D01*
G01*
X195505000Y-101250000D01*
G75*
G02*
X195355000Y-101400000I-150000J0D01*
G01*
X195055000Y-101400000D01*
G75*
G02*
X194905000Y-101250000I0J150000D01*
G01*
X194905000Y-99600000D01*
G75*
G02*
X195055000Y-99450000I150000J0D01*
G01*
G37*
G36*
G01*
X193785000Y-99450000D02*
X194085000Y-99450000D01*
G75*
G02*
X194235000Y-99600000I0J-150000D01*
G01*
X194235000Y-101250000D01*
G75*
G02*
X194085000Y-101400000I-150000J0D01*
G01*
X193785000Y-101400000D01*
G75*
G02*
X193635000Y-101250000I0J150000D01*
G01*
X193635000Y-99600000D01*
G75*
G02*
X193785000Y-99450000I150000J0D01*
G01*
G37*
G36*
G01*
X192515000Y-99450000D02*
X192815000Y-99450000D01*
G75*
G02*
X192965000Y-99600000I0J-150000D01*
G01*
X192965000Y-101250000D01*
G75*
G02*
X192815000Y-101400000I-150000J0D01*
G01*
X192515000Y-101400000D01*
G75*
G02*
X192365000Y-101250000I0J150000D01*
G01*
X192365000Y-99600000D01*
G75*
G02*
X192515000Y-99450000I150000J0D01*
G01*
G37*
G36*
G01*
X191245000Y-99450000D02*
X191545000Y-99450000D01*
G75*
G02*
X191695000Y-99600000I0J-150000D01*
G01*
X191695000Y-101250000D01*
G75*
G02*
X191545000Y-101400000I-150000J0D01*
G01*
X191245000Y-101400000D01*
G75*
G02*
X191095000Y-101250000I0J150000D01*
G01*
X191095000Y-99600000D01*
G75*
G02*
X191245000Y-99450000I150000J0D01*
G01*
G37*
G36*
G01*
X191245000Y-104400000D02*
X191545000Y-104400000D01*
G75*
G02*
X191695000Y-104550000I0J-150000D01*
G01*
X191695000Y-106200000D01*
G75*
G02*
X191545000Y-106350000I-150000J0D01*
G01*
X191245000Y-106350000D01*
G75*
G02*
X191095000Y-106200000I0J150000D01*
G01*
X191095000Y-104550000D01*
G75*
G02*
X191245000Y-104400000I150000J0D01*
G01*
G37*
G36*
G01*
X192515000Y-104400000D02*
X192815000Y-104400000D01*
G75*
G02*
X192965000Y-104550000I0J-150000D01*
G01*
X192965000Y-106200000D01*
G75*
G02*
X192815000Y-106350000I-150000J0D01*
G01*
X192515000Y-106350000D01*
G75*
G02*
X192365000Y-106200000I0J150000D01*
G01*
X192365000Y-104550000D01*
G75*
G02*
X192515000Y-104400000I150000J0D01*
G01*
G37*
G36*
G01*
X193785000Y-104400000D02*
X194085000Y-104400000D01*
G75*
G02*
X194235000Y-104550000I0J-150000D01*
G01*
X194235000Y-106200000D01*
G75*
G02*
X194085000Y-106350000I-150000J0D01*
G01*
X193785000Y-106350000D01*
G75*
G02*
X193635000Y-106200000I0J150000D01*
G01*
X193635000Y-104550000D01*
G75*
G02*
X193785000Y-104400000I150000J0D01*
G01*
G37*
G36*
G01*
X195055000Y-104400000D02*
X195355000Y-104400000D01*
G75*
G02*
X195505000Y-104550000I0J-150000D01*
G01*
X195505000Y-106200000D01*
G75*
G02*
X195355000Y-106350000I-150000J0D01*
G01*
X195055000Y-106350000D01*
G75*
G02*
X194905000Y-106200000I0J150000D01*
G01*
X194905000Y-104550000D01*
G75*
G02*
X195055000Y-104400000I150000J0D01*
G01*
G37*
G36*
G01*
X155900000Y-98245000D02*
X155900000Y-97945000D01*
G75*
G02*
X156050000Y-97795000I150000J0D01*
G01*
X157700000Y-97795000D01*
G75*
G02*
X157850000Y-97945000I0J-150000D01*
G01*
X157850000Y-98245000D01*
G75*
G02*
X157700000Y-98395000I-150000J0D01*
G01*
X156050000Y-98395000D01*
G75*
G02*
X155900000Y-98245000I0J150000D01*
G01*
G37*
G36*
G01*
X155900000Y-99515000D02*
X155900000Y-99215000D01*
G75*
G02*
X156050000Y-99065000I150000J0D01*
G01*
X157700000Y-99065000D01*
G75*
G02*
X157850000Y-99215000I0J-150000D01*
G01*
X157850000Y-99515000D01*
G75*
G02*
X157700000Y-99665000I-150000J0D01*
G01*
X156050000Y-99665000D01*
G75*
G02*
X155900000Y-99515000I0J150000D01*
G01*
G37*
G36*
G01*
X155900000Y-100785000D02*
X155900000Y-100485000D01*
G75*
G02*
X156050000Y-100335000I150000J0D01*
G01*
X157700000Y-100335000D01*
G75*
G02*
X157850000Y-100485000I0J-150000D01*
G01*
X157850000Y-100785000D01*
G75*
G02*
X157700000Y-100935000I-150000J0D01*
G01*
X156050000Y-100935000D01*
G75*
G02*
X155900000Y-100785000I0J150000D01*
G01*
G37*
G36*
G01*
X155900000Y-102055000D02*
X155900000Y-101755000D01*
G75*
G02*
X156050000Y-101605000I150000J0D01*
G01*
X157700000Y-101605000D01*
G75*
G02*
X157850000Y-101755000I0J-150000D01*
G01*
X157850000Y-102055000D01*
G75*
G02*
X157700000Y-102205000I-150000J0D01*
G01*
X156050000Y-102205000D01*
G75*
G02*
X155900000Y-102055000I0J150000D01*
G01*
G37*
G36*
G01*
X150950000Y-102055000D02*
X150950000Y-101755000D01*
G75*
G02*
X151100000Y-101605000I150000J0D01*
G01*
X152750000Y-101605000D01*
G75*
G02*
X152900000Y-101755000I0J-150000D01*
G01*
X152900000Y-102055000D01*
G75*
G02*
X152750000Y-102205000I-150000J0D01*
G01*
X151100000Y-102205000D01*
G75*
G02*
X150950000Y-102055000I0J150000D01*
G01*
G37*
G36*
G01*
X150950000Y-100785000D02*
X150950000Y-100485000D01*
G75*
G02*
X151100000Y-100335000I150000J0D01*
G01*
X152750000Y-100335000D01*
G75*
G02*
X152900000Y-100485000I0J-150000D01*
G01*
X152900000Y-100785000D01*
G75*
G02*
X152750000Y-100935000I-150000J0D01*
G01*
X151100000Y-100935000D01*
G75*
G02*
X150950000Y-100785000I0J150000D01*
G01*
G37*
G36*
G01*
X150950000Y-99515000D02*
X150950000Y-99215000D01*
G75*
G02*
X151100000Y-99065000I150000J0D01*
G01*
X152750000Y-99065000D01*
G75*
G02*
X152900000Y-99215000I0J-150000D01*
G01*
X152900000Y-99515000D01*
G75*
G02*
X152750000Y-99665000I-150000J0D01*
G01*
X151100000Y-99665000D01*
G75*
G02*
X150950000Y-99515000I0J150000D01*
G01*
G37*
G36*
G01*
X150950000Y-98245000D02*
X150950000Y-97945000D01*
G75*
G02*
X151100000Y-97795000I150000J0D01*
G01*
X152750000Y-97795000D01*
G75*
G02*
X152900000Y-97945000I0J-150000D01*
G01*
X152900000Y-98245000D01*
G75*
G02*
X152750000Y-98395000I-150000J0D01*
G01*
X151100000Y-98395000D01*
G75*
G02*
X150950000Y-98245000I0J150000D01*
G01*
G37*
G36*
G01*
X205862500Y-99500000D02*
X206337500Y-99500000D01*
G75*
G02*
X206575000Y-99737500I0J-237500D01*
G01*
X206575000Y-100237500D01*
G75*
G02*
X206337500Y-100475000I-237500J0D01*
G01*
X205862500Y-100475000D01*
G75*
G02*
X205625000Y-100237500I0J237500D01*
G01*
X205625000Y-99737500D01*
G75*
G02*
X205862500Y-99500000I237500J0D01*
G01*
G37*
G36*
G01*
X205862500Y-101325000D02*
X206337500Y-101325000D01*
G75*
G02*
X206575000Y-101562500I0J-237500D01*
G01*
X206575000Y-102062500D01*
G75*
G02*
X206337500Y-102300000I-237500J0D01*
G01*
X205862500Y-102300000D01*
G75*
G02*
X205625000Y-102062500I0J237500D01*
G01*
X205625000Y-101562500D01*
G75*
G02*
X205862500Y-101325000I237500J0D01*
G01*
G37*
G36*
G01*
X187087500Y-104937500D02*
X187087500Y-104462500D01*
G75*
G02*
X187325000Y-104225000I237500J0D01*
G01*
X187825000Y-104225000D01*
G75*
G02*
X188062500Y-104462500I0J-237500D01*
G01*
X188062500Y-104937500D01*
G75*
G02*
X187825000Y-105175000I-237500J0D01*
G01*
X187325000Y-105175000D01*
G75*
G02*
X187087500Y-104937500I0J237500D01*
G01*
G37*
G36*
G01*
X188912500Y-104937500D02*
X188912500Y-104462500D01*
G75*
G02*
X189150000Y-104225000I237500J0D01*
G01*
X189650000Y-104225000D01*
G75*
G02*
X189887500Y-104462500I0J-237500D01*
G01*
X189887500Y-104937500D01*
G75*
G02*
X189650000Y-105175000I-237500J0D01*
G01*
X189150000Y-105175000D01*
G75*
G02*
X188912500Y-104937500I0J237500D01*
G01*
G37*
G36*
G01*
X189637500Y-103600000D02*
X189162500Y-103600000D01*
G75*
G02*
X188925000Y-103362500I0J237500D01*
G01*
X188925000Y-102862500D01*
G75*
G02*
X189162500Y-102625000I237500J0D01*
G01*
X189637500Y-102625000D01*
G75*
G02*
X189875000Y-102862500I0J-237500D01*
G01*
X189875000Y-103362500D01*
G75*
G02*
X189637500Y-103600000I-237500J0D01*
G01*
G37*
G36*
G01*
X189637500Y-101775000D02*
X189162500Y-101775000D01*
G75*
G02*
X188925000Y-101537500I0J237500D01*
G01*
X188925000Y-101037500D01*
G75*
G02*
X189162500Y-100800000I237500J0D01*
G01*
X189637500Y-100800000D01*
G75*
G02*
X189875000Y-101037500I0J-237500D01*
G01*
X189875000Y-101537500D01*
G75*
G02*
X189637500Y-101775000I-237500J0D01*
G01*
G37*
G36*
G01*
X189887500Y-99462500D02*
X189887500Y-99937500D01*
G75*
G02*
X189650000Y-100175000I-237500J0D01*
G01*
X189150000Y-100175000D01*
G75*
G02*
X188912500Y-99937500I0J237500D01*
G01*
X188912500Y-99462500D01*
G75*
G02*
X189150000Y-99225000I237500J0D01*
G01*
X189650000Y-99225000D01*
G75*
G02*
X189887500Y-99462500I0J-237500D01*
G01*
G37*
G36*
G01*
X188062500Y-99462500D02*
X188062500Y-99937500D01*
G75*
G02*
X187825000Y-100175000I-237500J0D01*
G01*
X187325000Y-100175000D01*
G75*
G02*
X187087500Y-99937500I0J237500D01*
G01*
X187087500Y-99462500D01*
G75*
G02*
X187325000Y-99225000I237500J0D01*
G01*
X187825000Y-99225000D01*
G75*
G02*
X188062500Y-99462500I0J-237500D01*
G01*
G37*
G36*
G01*
X189124999Y-120450000D02*
X191275001Y-120450000D01*
G75*
G02*
X191525000Y-120699999I0J-249999D01*
G01*
X191525000Y-121500001D01*
G75*
G02*
X191275001Y-121750000I-249999J0D01*
G01*
X189124999Y-121750000D01*
G75*
G02*
X188875000Y-121500001I0J249999D01*
G01*
X188875000Y-120699999D01*
G75*
G02*
X189124999Y-120450000I249999J0D01*
G01*
G37*
G36*
G01*
X189124999Y-117350000D02*
X191275001Y-117350000D01*
G75*
G02*
X191525000Y-117599999I0J-249999D01*
G01*
X191525000Y-118400001D01*
G75*
G02*
X191275001Y-118650000I-249999J0D01*
G01*
X189124999Y-118650000D01*
G75*
G02*
X188875000Y-118400001I0J249999D01*
G01*
X188875000Y-117599999D01*
G75*
G02*
X189124999Y-117350000I249999J0D01*
G01*
G37*
G36*
G01*
X158762500Y-79837500D02*
X159237500Y-79837500D01*
G75*
G02*
X159475000Y-80075000I0J-237500D01*
G01*
X159475000Y-80575000D01*
G75*
G02*
X159237500Y-80812500I-237500J0D01*
G01*
X158762500Y-80812500D01*
G75*
G02*
X158525000Y-80575000I0J237500D01*
G01*
X158525000Y-80075000D01*
G75*
G02*
X158762500Y-79837500I237500J0D01*
G01*
G37*
G36*
G01*
X158762500Y-78012500D02*
X159237500Y-78012500D01*
G75*
G02*
X159475000Y-78250000I0J-237500D01*
G01*
X159475000Y-78750000D01*
G75*
G02*
X159237500Y-78987500I-237500J0D01*
G01*
X158762500Y-78987500D01*
G75*
G02*
X158525000Y-78750000I0J237500D01*
G01*
X158525000Y-78250000D01*
G75*
G02*
X158762500Y-78012500I237500J0D01*
G01*
G37*
G36*
G01*
X157237500Y-78987500D02*
X156762500Y-78987500D01*
G75*
G02*
X156525000Y-78750000I0J237500D01*
G01*
X156525000Y-78250000D01*
G75*
G02*
X156762500Y-78012500I237500J0D01*
G01*
X157237500Y-78012500D01*
G75*
G02*
X157475000Y-78250000I0J-237500D01*
G01*
X157475000Y-78750000D01*
G75*
G02*
X157237500Y-78987500I-237500J0D01*
G01*
G37*
G36*
G01*
X157237500Y-80812500D02*
X156762500Y-80812500D01*
G75*
G02*
X156525000Y-80575000I0J237500D01*
G01*
X156525000Y-80075000D01*
G75*
G02*
X156762500Y-79837500I237500J0D01*
G01*
X157237500Y-79837500D01*
G75*
G02*
X157475000Y-80075000I0J-237500D01*
G01*
X157475000Y-80575000D01*
G75*
G02*
X157237500Y-80812500I-237500J0D01*
G01*
G37*
G36*
G01*
X159975000Y-99762500D02*
X159975000Y-100237500D01*
G75*
G02*
X159737500Y-100475000I-237500J0D01*
G01*
X159237500Y-100475000D01*
G75*
G02*
X159000000Y-100237500I0J237500D01*
G01*
X159000000Y-99762500D01*
G75*
G02*
X159237500Y-99525000I237500J0D01*
G01*
X159737500Y-99525000D01*
G75*
G02*
X159975000Y-99762500I0J-237500D01*
G01*
G37*
G36*
G01*
X161800000Y-99762500D02*
X161800000Y-100237500D01*
G75*
G02*
X161562500Y-100475000I-237500J0D01*
G01*
X161062500Y-100475000D01*
G75*
G02*
X160825000Y-100237500I0J237500D01*
G01*
X160825000Y-99762500D01*
G75*
G02*
X161062500Y-99525000I237500J0D01*
G01*
X161562500Y-99525000D01*
G75*
G02*
X161800000Y-99762500I0J-237500D01*
G01*
G37*
G36*
G01*
X145825000Y-102762500D02*
X145825000Y-103237500D01*
G75*
G02*
X145587500Y-103475000I-237500J0D01*
G01*
X145087500Y-103475000D01*
G75*
G02*
X144850000Y-103237500I0J237500D01*
G01*
X144850000Y-102762500D01*
G75*
G02*
X145087500Y-102525000I237500J0D01*
G01*
X145587500Y-102525000D01*
G75*
G02*
X145825000Y-102762500I0J-237500D01*
G01*
G37*
G36*
G01*
X147650000Y-102762500D02*
X147650000Y-103237500D01*
G75*
G02*
X147412500Y-103475000I-237500J0D01*
G01*
X146912500Y-103475000D01*
G75*
G02*
X146675000Y-103237500I0J237500D01*
G01*
X146675000Y-102762500D01*
G75*
G02*
X146912500Y-102525000I237500J0D01*
G01*
X147412500Y-102525000D01*
G75*
G02*
X147650000Y-102762500I0J-237500D01*
G01*
G37*
G36*
G01*
X145825000Y-96762500D02*
X145825000Y-97237500D01*
G75*
G02*
X145587500Y-97475000I-237500J0D01*
G01*
X145087500Y-97475000D01*
G75*
G02*
X144850000Y-97237500I0J237500D01*
G01*
X144850000Y-96762500D01*
G75*
G02*
X145087500Y-96525000I237500J0D01*
G01*
X145587500Y-96525000D01*
G75*
G02*
X145825000Y-96762500I0J-237500D01*
G01*
G37*
G36*
G01*
X147650000Y-96762500D02*
X147650000Y-97237500D01*
G75*
G02*
X147412500Y-97475000I-237500J0D01*
G01*
X146912500Y-97475000D01*
G75*
G02*
X146675000Y-97237500I0J237500D01*
G01*
X146675000Y-96762500D01*
G75*
G02*
X146912500Y-96525000I237500J0D01*
G01*
X147412500Y-96525000D01*
G75*
G02*
X147650000Y-96762500I0J-237500D01*
G01*
G37*
G36*
G01*
X130825000Y-104262500D02*
X130825000Y-104737500D01*
G75*
G02*
X130587500Y-104975000I-237500J0D01*
G01*
X130087500Y-104975000D01*
G75*
G02*
X129850000Y-104737500I0J237500D01*
G01*
X129850000Y-104262500D01*
G75*
G02*
X130087500Y-104025000I237500J0D01*
G01*
X130587500Y-104025000D01*
G75*
G02*
X130825000Y-104262500I0J-237500D01*
G01*
G37*
G36*
G01*
X132650000Y-104262500D02*
X132650000Y-104737500D01*
G75*
G02*
X132412500Y-104975000I-237500J0D01*
G01*
X131912500Y-104975000D01*
G75*
G02*
X131675000Y-104737500I0J237500D01*
G01*
X131675000Y-104262500D01*
G75*
G02*
X131912500Y-104025000I237500J0D01*
G01*
X132412500Y-104025000D01*
G75*
G02*
X132650000Y-104262500I0J-237500D01*
G01*
G37*
G36*
G01*
X131675000Y-95737500D02*
X131675000Y-95262500D01*
G75*
G02*
X131912500Y-95025000I237500J0D01*
G01*
X132412500Y-95025000D01*
G75*
G02*
X132650000Y-95262500I0J-237500D01*
G01*
X132650000Y-95737500D01*
G75*
G02*
X132412500Y-95975000I-237500J0D01*
G01*
X131912500Y-95975000D01*
G75*
G02*
X131675000Y-95737500I0J237500D01*
G01*
G37*
G36*
G01*
X129850000Y-95737500D02*
X129850000Y-95262500D01*
G75*
G02*
X130087500Y-95025000I237500J0D01*
G01*
X130587500Y-95025000D01*
G75*
G02*
X130825000Y-95262500I0J-237500D01*
G01*
X130825000Y-95737500D01*
G75*
G02*
X130587500Y-95975000I-237500J0D01*
G01*
X130087500Y-95975000D01*
G75*
G02*
X129850000Y-95737500I0J237500D01*
G01*
G37*
D28*
X196300000Y-114960000D03*
X196300000Y-117500000D03*
D29*
X201380000Y-122580000D03*
X201380000Y-112420000D03*
D28*
X103200000Y-115540000D03*
X103200000Y-113000000D03*
D29*
X98120000Y-107920000D03*
X98120000Y-118080000D03*
D28*
X103200000Y-89540000D03*
X103200000Y-87000000D03*
D29*
X98120000Y-81920000D03*
X98120000Y-92080000D03*
D30*
X190000000Y-81450000D03*
X190000000Y-78550000D03*
X187000000Y-78550000D03*
X187000000Y-81450000D03*
D23*
X142750000Y-99000000D03*
X143700000Y-101000000D03*
X141800000Y-101000000D03*
X142750000Y-103000000D03*
X143700000Y-105000000D03*
X141800000Y-105000000D03*
X142750000Y-97000000D03*
X141800000Y-95000000D03*
X143700000Y-95000000D03*
G36*
G01*
X197437500Y-102300000D02*
X196962500Y-102300000D01*
G75*
G02*
X196725000Y-102062500I0J237500D01*
G01*
X196725000Y-101487500D01*
G75*
G02*
X196962500Y-101250000I237500J0D01*
G01*
X197437500Y-101250000D01*
G75*
G02*
X197675000Y-101487500I0J-237500D01*
G01*
X197675000Y-102062500D01*
G75*
G02*
X197437500Y-102300000I-237500J0D01*
G01*
G37*
G36*
G01*
X197437500Y-100550000D02*
X196962500Y-100550000D01*
G75*
G02*
X196725000Y-100312500I0J237500D01*
G01*
X196725000Y-99737500D01*
G75*
G02*
X196962500Y-99500000I237500J0D01*
G01*
X197437500Y-99500000D01*
G75*
G02*
X197675000Y-99737500I0J-237500D01*
G01*
X197675000Y-100312500D01*
G75*
G02*
X197437500Y-100550000I-237500J0D01*
G01*
G37*
G36*
G01*
X186537500Y-68050000D02*
X186062500Y-68050000D01*
G75*
G02*
X185825000Y-67812500I0J237500D01*
G01*
X185825000Y-67237500D01*
G75*
G02*
X186062500Y-67000000I237500J0D01*
G01*
X186537500Y-67000000D01*
G75*
G02*
X186775000Y-67237500I0J-237500D01*
G01*
X186775000Y-67812500D01*
G75*
G02*
X186537500Y-68050000I-237500J0D01*
G01*
G37*
G36*
G01*
X186537500Y-69800000D02*
X186062500Y-69800000D01*
G75*
G02*
X185825000Y-69562500I0J237500D01*
G01*
X185825000Y-68987500D01*
G75*
G02*
X186062500Y-68750000I237500J0D01*
G01*
X186537500Y-68750000D01*
G75*
G02*
X186775000Y-68987500I0J-237500D01*
G01*
X186775000Y-69562500D01*
G75*
G02*
X186537500Y-69800000I-237500J0D01*
G01*
G37*
G36*
G01*
X186537500Y-72050000D02*
X186062500Y-72050000D01*
G75*
G02*
X185825000Y-71812500I0J237500D01*
G01*
X185825000Y-71237500D01*
G75*
G02*
X186062500Y-71000000I237500J0D01*
G01*
X186537500Y-71000000D01*
G75*
G02*
X186775000Y-71237500I0J-237500D01*
G01*
X186775000Y-71812500D01*
G75*
G02*
X186537500Y-72050000I-237500J0D01*
G01*
G37*
G36*
G01*
X186537500Y-73800000D02*
X186062500Y-73800000D01*
G75*
G02*
X185825000Y-73562500I0J237500D01*
G01*
X185825000Y-72987500D01*
G75*
G02*
X186062500Y-72750000I237500J0D01*
G01*
X186537500Y-72750000D01*
G75*
G02*
X186775000Y-72987500I0J-237500D01*
G01*
X186775000Y-73562500D01*
G75*
G02*
X186537500Y-73800000I-237500J0D01*
G01*
G37*
G36*
G01*
X189750000Y-74637500D02*
X189750000Y-74162500D01*
G75*
G02*
X189987500Y-73925000I237500J0D01*
G01*
X190562500Y-73925000D01*
G75*
G02*
X190800000Y-74162500I0J-237500D01*
G01*
X190800000Y-74637500D01*
G75*
G02*
X190562500Y-74875000I-237500J0D01*
G01*
X189987500Y-74875000D01*
G75*
G02*
X189750000Y-74637500I0J237500D01*
G01*
G37*
G36*
G01*
X188000000Y-74637500D02*
X188000000Y-74162500D01*
G75*
G02*
X188237500Y-73925000I237500J0D01*
G01*
X188812500Y-73925000D01*
G75*
G02*
X189050000Y-74162500I0J-237500D01*
G01*
X189050000Y-74637500D01*
G75*
G02*
X188812500Y-74875000I-237500J0D01*
G01*
X188237500Y-74875000D01*
G75*
G02*
X188000000Y-74637500I0J237500D01*
G01*
G37*
G36*
G01*
X175762500Y-111550000D02*
X176237500Y-111550000D01*
G75*
G02*
X176475000Y-111787500I0J-237500D01*
G01*
X176475000Y-112362500D01*
G75*
G02*
X176237500Y-112600000I-237500J0D01*
G01*
X175762500Y-112600000D01*
G75*
G02*
X175525000Y-112362500I0J237500D01*
G01*
X175525000Y-111787500D01*
G75*
G02*
X175762500Y-111550000I237500J0D01*
G01*
G37*
G36*
G01*
X175762500Y-109800000D02*
X176237500Y-109800000D01*
G75*
G02*
X176475000Y-110037500I0J-237500D01*
G01*
X176475000Y-110612500D01*
G75*
G02*
X176237500Y-110850000I-237500J0D01*
G01*
X175762500Y-110850000D01*
G75*
G02*
X175525000Y-110612500I0J237500D01*
G01*
X175525000Y-110037500D01*
G75*
G02*
X175762500Y-109800000I237500J0D01*
G01*
G37*
G36*
G01*
X153475001Y-85637500D02*
X153475001Y-85162500D01*
G75*
G02*
X153712501Y-84925000I237500J0D01*
G01*
X154287501Y-84925000D01*
G75*
G02*
X154525001Y-85162500I0J-237500D01*
G01*
X154525001Y-85637500D01*
G75*
G02*
X154287501Y-85875000I-237500J0D01*
G01*
X153712501Y-85875000D01*
G75*
G02*
X153475001Y-85637500I0J237500D01*
G01*
G37*
G36*
G01*
X151725001Y-85637500D02*
X151725001Y-85162500D01*
G75*
G02*
X151962501Y-84925000I237500J0D01*
G01*
X152537501Y-84925000D01*
G75*
G02*
X152775001Y-85162500I0J-237500D01*
G01*
X152775001Y-85637500D01*
G75*
G02*
X152537501Y-85875000I-237500J0D01*
G01*
X151962501Y-85875000D01*
G75*
G02*
X151725001Y-85637500I0J237500D01*
G01*
G37*
G36*
G01*
X170762500Y-107550000D02*
X171237500Y-107550000D01*
G75*
G02*
X171475000Y-107787500I0J-237500D01*
G01*
X171475000Y-108362500D01*
G75*
G02*
X171237500Y-108600000I-237500J0D01*
G01*
X170762500Y-108600000D01*
G75*
G02*
X170525000Y-108362500I0J237500D01*
G01*
X170525000Y-107787500D01*
G75*
G02*
X170762500Y-107550000I237500J0D01*
G01*
G37*
G36*
G01*
X170762500Y-105800000D02*
X171237500Y-105800000D01*
G75*
G02*
X171475000Y-106037500I0J-237500D01*
G01*
X171475000Y-106612500D01*
G75*
G02*
X171237500Y-106850000I-237500J0D01*
G01*
X170762500Y-106850000D01*
G75*
G02*
X170525000Y-106612500I0J237500D01*
G01*
X170525000Y-106037500D01*
G75*
G02*
X170762500Y-105800000I237500J0D01*
G01*
G37*
G36*
G01*
X146762500Y-100350000D02*
X147237500Y-100350000D01*
G75*
G02*
X147475000Y-100587500I0J-237500D01*
G01*
X147475000Y-101162500D01*
G75*
G02*
X147237500Y-101400000I-237500J0D01*
G01*
X146762500Y-101400000D01*
G75*
G02*
X146525000Y-101162500I0J237500D01*
G01*
X146525000Y-100587500D01*
G75*
G02*
X146762500Y-100350000I237500J0D01*
G01*
G37*
G36*
G01*
X146762500Y-98600000D02*
X147237500Y-98600000D01*
G75*
G02*
X147475000Y-98837500I0J-237500D01*
G01*
X147475000Y-99412500D01*
G75*
G02*
X147237500Y-99650000I-237500J0D01*
G01*
X146762500Y-99650000D01*
G75*
G02*
X146525000Y-99412500I0J237500D01*
G01*
X146525000Y-98837500D01*
G75*
G02*
X146762500Y-98600000I237500J0D01*
G01*
G37*
G36*
G01*
X148562500Y-102350000D02*
X149037500Y-102350000D01*
G75*
G02*
X149275000Y-102587500I0J-237500D01*
G01*
X149275000Y-103162500D01*
G75*
G02*
X149037500Y-103400000I-237500J0D01*
G01*
X148562500Y-103400000D01*
G75*
G02*
X148325000Y-103162500I0J237500D01*
G01*
X148325000Y-102587500D01*
G75*
G02*
X148562500Y-102350000I237500J0D01*
G01*
G37*
G36*
G01*
X148562500Y-100600000D02*
X149037500Y-100600000D01*
G75*
G02*
X149275000Y-100837500I0J-237500D01*
G01*
X149275000Y-101412500D01*
G75*
G02*
X149037500Y-101650000I-237500J0D01*
G01*
X148562500Y-101650000D01*
G75*
G02*
X148325000Y-101412500I0J237500D01*
G01*
X148325000Y-100837500D01*
G75*
G02*
X148562500Y-100600000I237500J0D01*
G01*
G37*
G36*
G01*
X148562500Y-98350000D02*
X149037500Y-98350000D01*
G75*
G02*
X149275000Y-98587500I0J-237500D01*
G01*
X149275000Y-99162500D01*
G75*
G02*
X149037500Y-99400000I-237500J0D01*
G01*
X148562500Y-99400000D01*
G75*
G02*
X148325000Y-99162500I0J237500D01*
G01*
X148325000Y-98587500D01*
G75*
G02*
X148562500Y-98350000I237500J0D01*
G01*
G37*
G36*
G01*
X148562500Y-96600000D02*
X149037500Y-96600000D01*
G75*
G02*
X149275000Y-96837500I0J-237500D01*
G01*
X149275000Y-97412500D01*
G75*
G02*
X149037500Y-97650000I-237500J0D01*
G01*
X148562500Y-97650000D01*
G75*
G02*
X148325000Y-97412500I0J237500D01*
G01*
X148325000Y-96837500D01*
G75*
G02*
X148562500Y-96600000I237500J0D01*
G01*
G37*
G36*
G01*
X130262500Y-102100000D02*
X130737500Y-102100000D01*
G75*
G02*
X130975000Y-102337500I0J-237500D01*
G01*
X130975000Y-102912500D01*
G75*
G02*
X130737500Y-103150000I-237500J0D01*
G01*
X130262500Y-103150000D01*
G75*
G02*
X130025000Y-102912500I0J237500D01*
G01*
X130025000Y-102337500D01*
G75*
G02*
X130262500Y-102100000I237500J0D01*
G01*
G37*
G36*
G01*
X130262500Y-100350000D02*
X130737500Y-100350000D01*
G75*
G02*
X130975000Y-100587500I0J-237500D01*
G01*
X130975000Y-101162500D01*
G75*
G02*
X130737500Y-101400000I-237500J0D01*
G01*
X130262500Y-101400000D01*
G75*
G02*
X130025000Y-101162500I0J237500D01*
G01*
X130025000Y-100587500D01*
G75*
G02*
X130262500Y-100350000I237500J0D01*
G01*
G37*
G36*
G01*
X130262500Y-98600000D02*
X130737500Y-98600000D01*
G75*
G02*
X130975000Y-98837500I0J-237500D01*
G01*
X130975000Y-99412500D01*
G75*
G02*
X130737500Y-99650000I-237500J0D01*
G01*
X130262500Y-99650000D01*
G75*
G02*
X130025000Y-99412500I0J237500D01*
G01*
X130025000Y-98837500D01*
G75*
G02*
X130262500Y-98600000I237500J0D01*
G01*
G37*
G36*
G01*
X130262500Y-96850000D02*
X130737500Y-96850000D01*
G75*
G02*
X130975000Y-97087500I0J-237500D01*
G01*
X130975000Y-97662500D01*
G75*
G02*
X130737500Y-97900000I-237500J0D01*
G01*
X130262500Y-97900000D01*
G75*
G02*
X130025000Y-97662500I0J237500D01*
G01*
X130025000Y-97087500D01*
G75*
G02*
X130262500Y-96850000I237500J0D01*
G01*
G37*
D27*
X127500000Y-100800000D03*
X127500000Y-104700000D03*
X127500000Y-99200000D03*
X127500000Y-95300000D03*
M02*
