G04 #@! TF.GenerationSoftware,KiCad,Pcbnew,(5.1.9)-1*
G04 #@! TF.CreationDate,2021-04-24T16:46:24-05:00*
G04 #@! TF.ProjectId,high-gain-diff-probe,68696768-2d67-4616-996e-2d646966662d,rev?*
G04 #@! TF.SameCoordinates,Original*
G04 #@! TF.FileFunction,Legend,Bot*
G04 #@! TF.FilePolarity,Positive*
%FSLAX46Y46*%
G04 Gerber Fmt 4.6, Leading zero omitted, Abs format (unit mm)*
G04 Created by KiCad (PCBNEW (5.1.9)-1) date 2021-04-24 16:46:24*
%MOMM*%
%LPD*%
G01*
G04 APERTURE LIST*
%ADD10C,0.150000*%
%ADD11C,0.120000*%
%ADD12C,1.600000*%
%ADD13C,0.100000*%
%ADD14C,4.000000*%
%ADD15C,1.800000*%
%ADD16C,1.700000*%
%ADD17C,2.000000*%
%ADD18R,1.100000X1.100000*%
%ADD19C,1.440000*%
%ADD20O,1.600000X1.600000*%
%ADD21O,3.500000X2.000000*%
%ADD22O,2.000000X3.300000*%
%ADD23R,2.000000X4.000000*%
%ADD24R,1.800000X1.800000*%
%ADD25O,2.500000X1.600000*%
%ADD26O,7.000000X3.500000*%
G04 APERTURE END LIST*
D10*
X194619047Y-129552380D02*
X194619047Y-130266666D01*
X194666666Y-130409523D01*
X194761904Y-130504761D01*
X194904761Y-130552380D01*
X195000000Y-130552380D01*
X193666666Y-130552380D02*
X194142857Y-130552380D01*
X194142857Y-129552380D01*
X192761904Y-130457142D02*
X192809523Y-130504761D01*
X192952380Y-130552380D01*
X193047619Y-130552380D01*
X193190476Y-130504761D01*
X193285714Y-130409523D01*
X193333333Y-130314285D01*
X193380952Y-130123809D01*
X193380952Y-129980952D01*
X193333333Y-129790476D01*
X193285714Y-129695238D01*
X193190476Y-129600000D01*
X193047619Y-129552380D01*
X192952380Y-129552380D01*
X192809523Y-129600000D01*
X192761904Y-129647619D01*
X192047619Y-129552380D02*
X192047619Y-130266666D01*
X192095238Y-130409523D01*
X192190476Y-130504761D01*
X192333333Y-130552380D01*
X192428571Y-130552380D01*
X191095238Y-130552380D02*
X191571428Y-130552380D01*
X191571428Y-129552380D01*
X190190476Y-130457142D02*
X190238095Y-130504761D01*
X190380952Y-130552380D01*
X190476190Y-130552380D01*
X190619047Y-130504761D01*
X190714285Y-130409523D01*
X190761904Y-130314285D01*
X190809523Y-130123809D01*
X190809523Y-129980952D01*
X190761904Y-129790476D01*
X190714285Y-129695238D01*
X190619047Y-129600000D01*
X190476190Y-129552380D01*
X190380952Y-129552380D01*
X190238095Y-129600000D01*
X190190476Y-129647619D01*
X189476190Y-129552380D02*
X189476190Y-130266666D01*
X189523809Y-130409523D01*
X189619047Y-130504761D01*
X189761904Y-130552380D01*
X189857142Y-130552380D01*
X188523809Y-130552380D02*
X189000000Y-130552380D01*
X189000000Y-129552380D01*
X187619047Y-130457142D02*
X187666666Y-130504761D01*
X187809523Y-130552380D01*
X187904761Y-130552380D01*
X188047619Y-130504761D01*
X188142857Y-130409523D01*
X188190476Y-130314285D01*
X188238095Y-130123809D01*
X188238095Y-129980952D01*
X188190476Y-129790476D01*
X188142857Y-129695238D01*
X188047619Y-129600000D01*
X187904761Y-129552380D01*
X187809523Y-129552380D01*
X187666666Y-129600000D01*
X187619047Y-129647619D01*
X186904761Y-129552380D02*
X186904761Y-130266666D01*
X186952380Y-130409523D01*
X187047619Y-130504761D01*
X187190476Y-130552380D01*
X187285714Y-130552380D01*
X185952380Y-130552380D02*
X186428571Y-130552380D01*
X186428571Y-129552380D01*
X185047619Y-130457142D02*
X185095238Y-130504761D01*
X185238095Y-130552380D01*
X185333333Y-130552380D01*
X185476190Y-130504761D01*
X185571428Y-130409523D01*
X185619047Y-130314285D01*
X185666666Y-130123809D01*
X185666666Y-129980952D01*
X185619047Y-129790476D01*
X185571428Y-129695238D01*
X185476190Y-129600000D01*
X185333333Y-129552380D01*
X185238095Y-129552380D01*
X185095238Y-129600000D01*
X185047619Y-129647619D01*
D11*
X178700000Y-118100000D02*
X178700000Y-120100000D01*
X181500000Y-118100000D02*
X178700000Y-118100000D01*
X181500000Y-120100000D02*
X181500000Y-118100000D01*
X178700000Y-120100000D02*
X181500000Y-120100000D01*
X107410000Y-98772936D02*
X107410000Y-100227064D01*
X105590000Y-98772936D02*
X105590000Y-100227064D01*
X107500000Y-107700000D02*
X107500000Y-103850000D01*
X105500000Y-107700000D02*
X105500000Y-103850000D01*
X107500000Y-107700000D02*
X105500000Y-107700000D01*
X107500000Y-96700000D02*
X107500000Y-92850000D01*
X105500000Y-96700000D02*
X105500000Y-92850000D01*
X107500000Y-96700000D02*
X105500000Y-96700000D01*
X181171267Y-123590000D02*
X180828733Y-123590000D01*
X181171267Y-124610000D02*
X180828733Y-124610000D01*
X185990000Y-121928733D02*
X185990000Y-122271267D01*
X187010000Y-121928733D02*
X187010000Y-122271267D01*
X188671267Y-112590000D02*
X188328733Y-112590000D01*
X188671267Y-113610000D02*
X188328733Y-113610000D01*
X176871267Y-115090000D02*
X176528733Y-115090000D01*
X176871267Y-116110000D02*
X176528733Y-116110000D01*
X150728733Y-90510000D02*
X151071267Y-90510000D01*
X150728733Y-89490000D02*
X151071267Y-89490000D01*
X157728733Y-90510000D02*
X158071267Y-90510000D01*
X157728733Y-89490000D02*
X158071267Y-89490000D01*
X205490000Y-71028733D02*
X205490000Y-71371267D01*
X206510000Y-71028733D02*
X206510000Y-71371267D01*
X159310000Y-103971267D02*
X159310000Y-103628733D01*
X158290000Y-103971267D02*
X158290000Y-103628733D01*
X159310000Y-96371267D02*
X159310000Y-96028733D01*
X158290000Y-96371267D02*
X158290000Y-96028733D01*
X193471267Y-103410000D02*
X193128733Y-103410000D01*
X193471267Y-102390000D02*
X193128733Y-102390000D01*
X185671267Y-118490000D02*
X185328733Y-118490000D01*
X185671267Y-119510000D02*
X185328733Y-119510000D01*
X154571267Y-89490000D02*
X154228733Y-89490000D01*
X154571267Y-90510000D02*
X154228733Y-90510000D01*
X158290000Y-99828733D02*
X158290000Y-100171267D01*
X159310000Y-99828733D02*
X159310000Y-100171267D01*
D10*
X180933333Y-120352380D02*
X180933333Y-121066666D01*
X180980952Y-121209523D01*
X181076190Y-121304761D01*
X181219047Y-121352380D01*
X181314285Y-121352380D01*
X180457142Y-121352380D02*
X180457142Y-120352380D01*
X180076190Y-120352380D01*
X179980952Y-120400000D01*
X179933333Y-120447619D01*
X179885714Y-120542857D01*
X179885714Y-120685714D01*
X179933333Y-120780952D01*
X179980952Y-120828571D01*
X180076190Y-120876190D01*
X180457142Y-120876190D01*
X178933333Y-121352380D02*
X179504761Y-121352380D01*
X179219047Y-121352380D02*
X179219047Y-120352380D01*
X179314285Y-120495238D01*
X179409523Y-120590476D01*
X179504761Y-120638095D01*
X108952380Y-98857142D02*
X108476190Y-98523809D01*
X108952380Y-98285714D02*
X107952380Y-98285714D01*
X107952380Y-98666666D01*
X108000000Y-98761904D01*
X108047619Y-98809523D01*
X108142857Y-98857142D01*
X108285714Y-98857142D01*
X108380952Y-98809523D01*
X108428571Y-98761904D01*
X108476190Y-98666666D01*
X108476190Y-98285714D01*
X108047619Y-99238095D02*
X108000000Y-99285714D01*
X107952380Y-99380952D01*
X107952380Y-99619047D01*
X108000000Y-99714285D01*
X108047619Y-99761904D01*
X108142857Y-99809523D01*
X108238095Y-99809523D01*
X108380952Y-99761904D01*
X108952380Y-99190476D01*
X108952380Y-99809523D01*
X107952380Y-100428571D02*
X107952380Y-100523809D01*
X108000000Y-100619047D01*
X108047619Y-100666666D01*
X108142857Y-100714285D01*
X108333333Y-100761904D01*
X108571428Y-100761904D01*
X108761904Y-100714285D01*
X108857142Y-100666666D01*
X108904761Y-100619047D01*
X108952380Y-100523809D01*
X108952380Y-100428571D01*
X108904761Y-100333333D01*
X108857142Y-100285714D01*
X108761904Y-100238095D01*
X108571428Y-100190476D01*
X108333333Y-100190476D01*
X108142857Y-100238095D01*
X108047619Y-100285714D01*
X108000000Y-100333333D01*
X107952380Y-100428571D01*
X108857380Y-104761904D02*
X107857380Y-104761904D01*
X107857380Y-105000000D01*
X107905000Y-105142857D01*
X108000238Y-105238095D01*
X108095476Y-105285714D01*
X108285952Y-105333333D01*
X108428809Y-105333333D01*
X108619285Y-105285714D01*
X108714523Y-105238095D01*
X108809761Y-105142857D01*
X108857380Y-105000000D01*
X108857380Y-104761904D01*
X107857380Y-106190476D02*
X107857380Y-106000000D01*
X107905000Y-105904761D01*
X107952619Y-105857142D01*
X108095476Y-105761904D01*
X108285952Y-105714285D01*
X108666904Y-105714285D01*
X108762142Y-105761904D01*
X108809761Y-105809523D01*
X108857380Y-105904761D01*
X108857380Y-106095238D01*
X108809761Y-106190476D01*
X108762142Y-106238095D01*
X108666904Y-106285714D01*
X108428809Y-106285714D01*
X108333571Y-106238095D01*
X108285952Y-106190476D01*
X108238333Y-106095238D01*
X108238333Y-105904761D01*
X108285952Y-105809523D01*
X108333571Y-105761904D01*
X108428809Y-105714285D01*
X108857380Y-93761904D02*
X107857380Y-93761904D01*
X107857380Y-94000000D01*
X107905000Y-94142857D01*
X108000238Y-94238095D01*
X108095476Y-94285714D01*
X108285952Y-94333333D01*
X108428809Y-94333333D01*
X108619285Y-94285714D01*
X108714523Y-94238095D01*
X108809761Y-94142857D01*
X108857380Y-94000000D01*
X108857380Y-93761904D01*
X107857380Y-95238095D02*
X107857380Y-94761904D01*
X108333571Y-94714285D01*
X108285952Y-94761904D01*
X108238333Y-94857142D01*
X108238333Y-95095238D01*
X108285952Y-95190476D01*
X108333571Y-95238095D01*
X108428809Y-95285714D01*
X108666904Y-95285714D01*
X108762142Y-95238095D01*
X108809761Y-95190476D01*
X108857380Y-95095238D01*
X108857380Y-94857142D01*
X108809761Y-94761904D01*
X108762142Y-94714285D01*
X181642857Y-123027142D02*
X181690476Y-123074761D01*
X181833333Y-123122380D01*
X181928571Y-123122380D01*
X182071428Y-123074761D01*
X182166666Y-122979523D01*
X182214285Y-122884285D01*
X182261904Y-122693809D01*
X182261904Y-122550952D01*
X182214285Y-122360476D01*
X182166666Y-122265238D01*
X182071428Y-122170000D01*
X181928571Y-122122380D01*
X181833333Y-122122380D01*
X181690476Y-122170000D01*
X181642857Y-122217619D01*
X181309523Y-122122380D02*
X180690476Y-122122380D01*
X181023809Y-122503333D01*
X180880952Y-122503333D01*
X180785714Y-122550952D01*
X180738095Y-122598571D01*
X180690476Y-122693809D01*
X180690476Y-122931904D01*
X180738095Y-123027142D01*
X180785714Y-123074761D01*
X180880952Y-123122380D01*
X181166666Y-123122380D01*
X181261904Y-123074761D01*
X181309523Y-123027142D01*
X179785714Y-122122380D02*
X180261904Y-122122380D01*
X180309523Y-122598571D01*
X180261904Y-122550952D01*
X180166666Y-122503333D01*
X179928571Y-122503333D01*
X179833333Y-122550952D01*
X179785714Y-122598571D01*
X179738095Y-122693809D01*
X179738095Y-122931904D01*
X179785714Y-123027142D01*
X179833333Y-123074761D01*
X179928571Y-123122380D01*
X180166666Y-123122380D01*
X180261904Y-123074761D01*
X180309523Y-123027142D01*
X185427142Y-121457142D02*
X185474761Y-121409523D01*
X185522380Y-121266666D01*
X185522380Y-121171428D01*
X185474761Y-121028571D01*
X185379523Y-120933333D01*
X185284285Y-120885714D01*
X185093809Y-120838095D01*
X184950952Y-120838095D01*
X184760476Y-120885714D01*
X184665238Y-120933333D01*
X184570000Y-121028571D01*
X184522380Y-121171428D01*
X184522380Y-121266666D01*
X184570000Y-121409523D01*
X184617619Y-121457142D01*
X184522380Y-121790476D02*
X184522380Y-122409523D01*
X184903333Y-122076190D01*
X184903333Y-122219047D01*
X184950952Y-122314285D01*
X184998571Y-122361904D01*
X185093809Y-122409523D01*
X185331904Y-122409523D01*
X185427142Y-122361904D01*
X185474761Y-122314285D01*
X185522380Y-122219047D01*
X185522380Y-121933333D01*
X185474761Y-121838095D01*
X185427142Y-121790476D01*
X184522380Y-122742857D02*
X184522380Y-123361904D01*
X184903333Y-123028571D01*
X184903333Y-123171428D01*
X184950952Y-123266666D01*
X184998571Y-123314285D01*
X185093809Y-123361904D01*
X185331904Y-123361904D01*
X185427142Y-123314285D01*
X185474761Y-123266666D01*
X185522380Y-123171428D01*
X185522380Y-122885714D01*
X185474761Y-122790476D01*
X185427142Y-122742857D01*
X189142857Y-112027142D02*
X189190476Y-112074761D01*
X189333333Y-112122380D01*
X189428571Y-112122380D01*
X189571428Y-112074761D01*
X189666666Y-111979523D01*
X189714285Y-111884285D01*
X189761904Y-111693809D01*
X189761904Y-111550952D01*
X189714285Y-111360476D01*
X189666666Y-111265238D01*
X189571428Y-111170000D01*
X189428571Y-111122380D01*
X189333333Y-111122380D01*
X189190476Y-111170000D01*
X189142857Y-111217619D01*
X188809523Y-111122380D02*
X188190476Y-111122380D01*
X188523809Y-111503333D01*
X188380952Y-111503333D01*
X188285714Y-111550952D01*
X188238095Y-111598571D01*
X188190476Y-111693809D01*
X188190476Y-111931904D01*
X188238095Y-112027142D01*
X188285714Y-112074761D01*
X188380952Y-112122380D01*
X188666666Y-112122380D01*
X188761904Y-112074761D01*
X188809523Y-112027142D01*
X187809523Y-111217619D02*
X187761904Y-111170000D01*
X187666666Y-111122380D01*
X187428571Y-111122380D01*
X187333333Y-111170000D01*
X187285714Y-111217619D01*
X187238095Y-111312857D01*
X187238095Y-111408095D01*
X187285714Y-111550952D01*
X187857142Y-112122380D01*
X187238095Y-112122380D01*
X177342857Y-114527142D02*
X177390476Y-114574761D01*
X177533333Y-114622380D01*
X177628571Y-114622380D01*
X177771428Y-114574761D01*
X177866666Y-114479523D01*
X177914285Y-114384285D01*
X177961904Y-114193809D01*
X177961904Y-114050952D01*
X177914285Y-113860476D01*
X177866666Y-113765238D01*
X177771428Y-113670000D01*
X177628571Y-113622380D01*
X177533333Y-113622380D01*
X177390476Y-113670000D01*
X177342857Y-113717619D01*
X176961904Y-113717619D02*
X176914285Y-113670000D01*
X176819047Y-113622380D01*
X176580952Y-113622380D01*
X176485714Y-113670000D01*
X176438095Y-113717619D01*
X176390476Y-113812857D01*
X176390476Y-113908095D01*
X176438095Y-114050952D01*
X177009523Y-114622380D01*
X176390476Y-114622380D01*
X175914285Y-114622380D02*
X175723809Y-114622380D01*
X175628571Y-114574761D01*
X175580952Y-114527142D01*
X175485714Y-114384285D01*
X175438095Y-114193809D01*
X175438095Y-113812857D01*
X175485714Y-113717619D01*
X175533333Y-113670000D01*
X175628571Y-113622380D01*
X175819047Y-113622380D01*
X175914285Y-113670000D01*
X175961904Y-113717619D01*
X176009523Y-113812857D01*
X176009523Y-114050952D01*
X175961904Y-114146190D01*
X175914285Y-114193809D01*
X175819047Y-114241428D01*
X175628571Y-114241428D01*
X175533333Y-114193809D01*
X175485714Y-114146190D01*
X175438095Y-114050952D01*
X151542857Y-88957142D02*
X151590476Y-89004761D01*
X151733333Y-89052380D01*
X151828571Y-89052380D01*
X151971428Y-89004761D01*
X152066666Y-88909523D01*
X152114285Y-88814285D01*
X152161904Y-88623809D01*
X152161904Y-88480952D01*
X152114285Y-88290476D01*
X152066666Y-88195238D01*
X151971428Y-88100000D01*
X151828571Y-88052380D01*
X151733333Y-88052380D01*
X151590476Y-88100000D01*
X151542857Y-88147619D01*
X151161904Y-88147619D02*
X151114285Y-88100000D01*
X151019047Y-88052380D01*
X150780952Y-88052380D01*
X150685714Y-88100000D01*
X150638095Y-88147619D01*
X150590476Y-88242857D01*
X150590476Y-88338095D01*
X150638095Y-88480952D01*
X151209523Y-89052380D01*
X150590476Y-89052380D01*
X150019047Y-88480952D02*
X150114285Y-88433333D01*
X150161904Y-88385714D01*
X150209523Y-88290476D01*
X150209523Y-88242857D01*
X150161904Y-88147619D01*
X150114285Y-88100000D01*
X150019047Y-88052380D01*
X149828571Y-88052380D01*
X149733333Y-88100000D01*
X149685714Y-88147619D01*
X149638095Y-88242857D01*
X149638095Y-88290476D01*
X149685714Y-88385714D01*
X149733333Y-88433333D01*
X149828571Y-88480952D01*
X150019047Y-88480952D01*
X150114285Y-88528571D01*
X150161904Y-88576190D01*
X150209523Y-88671428D01*
X150209523Y-88861904D01*
X150161904Y-88957142D01*
X150114285Y-89004761D01*
X150019047Y-89052380D01*
X149828571Y-89052380D01*
X149733333Y-89004761D01*
X149685714Y-88957142D01*
X149638095Y-88861904D01*
X149638095Y-88671428D01*
X149685714Y-88576190D01*
X149733333Y-88528571D01*
X149828571Y-88480952D01*
X158542857Y-88957142D02*
X158590476Y-89004761D01*
X158733333Y-89052380D01*
X158828571Y-89052380D01*
X158971428Y-89004761D01*
X159066666Y-88909523D01*
X159114285Y-88814285D01*
X159161904Y-88623809D01*
X159161904Y-88480952D01*
X159114285Y-88290476D01*
X159066666Y-88195238D01*
X158971428Y-88100000D01*
X158828571Y-88052380D01*
X158733333Y-88052380D01*
X158590476Y-88100000D01*
X158542857Y-88147619D01*
X158161904Y-88147619D02*
X158114285Y-88100000D01*
X158019047Y-88052380D01*
X157780952Y-88052380D01*
X157685714Y-88100000D01*
X157638095Y-88147619D01*
X157590476Y-88242857D01*
X157590476Y-88338095D01*
X157638095Y-88480952D01*
X158209523Y-89052380D01*
X157590476Y-89052380D01*
X156733333Y-88052380D02*
X156923809Y-88052380D01*
X157019047Y-88100000D01*
X157066666Y-88147619D01*
X157161904Y-88290476D01*
X157209523Y-88480952D01*
X157209523Y-88861904D01*
X157161904Y-88957142D01*
X157114285Y-89004761D01*
X157019047Y-89052380D01*
X156828571Y-89052380D01*
X156733333Y-89004761D01*
X156685714Y-88957142D01*
X156638095Y-88861904D01*
X156638095Y-88623809D01*
X156685714Y-88528571D01*
X156733333Y-88480952D01*
X156828571Y-88433333D01*
X157019047Y-88433333D01*
X157114285Y-88480952D01*
X157161904Y-88528571D01*
X157209523Y-88623809D01*
X207857142Y-70557142D02*
X207904761Y-70509523D01*
X207952380Y-70366666D01*
X207952380Y-70271428D01*
X207904761Y-70128571D01*
X207809523Y-70033333D01*
X207714285Y-69985714D01*
X207523809Y-69938095D01*
X207380952Y-69938095D01*
X207190476Y-69985714D01*
X207095238Y-70033333D01*
X207000000Y-70128571D01*
X206952380Y-70271428D01*
X206952380Y-70366666D01*
X207000000Y-70509523D01*
X207047619Y-70557142D01*
X207047619Y-70938095D02*
X207000000Y-70985714D01*
X206952380Y-71080952D01*
X206952380Y-71319047D01*
X207000000Y-71414285D01*
X207047619Y-71461904D01*
X207142857Y-71509523D01*
X207238095Y-71509523D01*
X207380952Y-71461904D01*
X207952380Y-70890476D01*
X207952380Y-71509523D01*
X206952380Y-71842857D02*
X206952380Y-72461904D01*
X207333333Y-72128571D01*
X207333333Y-72271428D01*
X207380952Y-72366666D01*
X207428571Y-72414285D01*
X207523809Y-72461904D01*
X207761904Y-72461904D01*
X207857142Y-72414285D01*
X207904761Y-72366666D01*
X207952380Y-72271428D01*
X207952380Y-71985714D01*
X207904761Y-71890476D01*
X207857142Y-71842857D01*
X160657142Y-103157142D02*
X160704761Y-103109523D01*
X160752380Y-102966666D01*
X160752380Y-102871428D01*
X160704761Y-102728571D01*
X160609523Y-102633333D01*
X160514285Y-102585714D01*
X160323809Y-102538095D01*
X160180952Y-102538095D01*
X159990476Y-102585714D01*
X159895238Y-102633333D01*
X159800000Y-102728571D01*
X159752380Y-102871428D01*
X159752380Y-102966666D01*
X159800000Y-103109523D01*
X159847619Y-103157142D01*
X159847619Y-103538095D02*
X159800000Y-103585714D01*
X159752380Y-103680952D01*
X159752380Y-103919047D01*
X159800000Y-104014285D01*
X159847619Y-104061904D01*
X159942857Y-104109523D01*
X160038095Y-104109523D01*
X160180952Y-104061904D01*
X160752380Y-103490476D01*
X160752380Y-104109523D01*
X159847619Y-104490476D02*
X159800000Y-104538095D01*
X159752380Y-104633333D01*
X159752380Y-104871428D01*
X159800000Y-104966666D01*
X159847619Y-105014285D01*
X159942857Y-105061904D01*
X160038095Y-105061904D01*
X160180952Y-105014285D01*
X160752380Y-104442857D01*
X160752380Y-105061904D01*
X160657142Y-95557142D02*
X160704761Y-95509523D01*
X160752380Y-95366666D01*
X160752380Y-95271428D01*
X160704761Y-95128571D01*
X160609523Y-95033333D01*
X160514285Y-94985714D01*
X160323809Y-94938095D01*
X160180952Y-94938095D01*
X159990476Y-94985714D01*
X159895238Y-95033333D01*
X159800000Y-95128571D01*
X159752380Y-95271428D01*
X159752380Y-95366666D01*
X159800000Y-95509523D01*
X159847619Y-95557142D01*
X160752380Y-96509523D02*
X160752380Y-95938095D01*
X160752380Y-96223809D02*
X159752380Y-96223809D01*
X159895238Y-96128571D01*
X159990476Y-96033333D01*
X160038095Y-95938095D01*
X159752380Y-96842857D02*
X159752380Y-97509523D01*
X160752380Y-97080952D01*
X193942857Y-101827142D02*
X193990476Y-101874761D01*
X194133333Y-101922380D01*
X194228571Y-101922380D01*
X194371428Y-101874761D01*
X194466666Y-101779523D01*
X194514285Y-101684285D01*
X194561904Y-101493809D01*
X194561904Y-101350952D01*
X194514285Y-101160476D01*
X194466666Y-101065238D01*
X194371428Y-100970000D01*
X194228571Y-100922380D01*
X194133333Y-100922380D01*
X193990476Y-100970000D01*
X193942857Y-101017619D01*
X193609523Y-100922380D02*
X192990476Y-100922380D01*
X193323809Y-101303333D01*
X193180952Y-101303333D01*
X193085714Y-101350952D01*
X193038095Y-101398571D01*
X192990476Y-101493809D01*
X192990476Y-101731904D01*
X193038095Y-101827142D01*
X193085714Y-101874761D01*
X193180952Y-101922380D01*
X193466666Y-101922380D01*
X193561904Y-101874761D01*
X193609523Y-101827142D01*
X192133333Y-101255714D02*
X192133333Y-101922380D01*
X192371428Y-100874761D02*
X192609523Y-101589047D01*
X191990476Y-101589047D01*
X186142857Y-117857142D02*
X186190476Y-117904761D01*
X186333333Y-117952380D01*
X186428571Y-117952380D01*
X186571428Y-117904761D01*
X186666666Y-117809523D01*
X186714285Y-117714285D01*
X186761904Y-117523809D01*
X186761904Y-117380952D01*
X186714285Y-117190476D01*
X186666666Y-117095238D01*
X186571428Y-117000000D01*
X186428571Y-116952380D01*
X186333333Y-116952380D01*
X186190476Y-117000000D01*
X186142857Y-117047619D01*
X185761904Y-117047619D02*
X185714285Y-117000000D01*
X185619047Y-116952380D01*
X185380952Y-116952380D01*
X185285714Y-117000000D01*
X185238095Y-117047619D01*
X185190476Y-117142857D01*
X185190476Y-117238095D01*
X185238095Y-117380952D01*
X185809523Y-117952380D01*
X185190476Y-117952380D01*
X184238095Y-117952380D02*
X184809523Y-117952380D01*
X184523809Y-117952380D02*
X184523809Y-116952380D01*
X184619047Y-117095238D01*
X184714285Y-117190476D01*
X184809523Y-117238095D01*
X155042857Y-88927142D02*
X155090476Y-88974761D01*
X155233333Y-89022380D01*
X155328571Y-89022380D01*
X155471428Y-88974761D01*
X155566666Y-88879523D01*
X155614285Y-88784285D01*
X155661904Y-88593809D01*
X155661904Y-88450952D01*
X155614285Y-88260476D01*
X155566666Y-88165238D01*
X155471428Y-88070000D01*
X155328571Y-88022380D01*
X155233333Y-88022380D01*
X155090476Y-88070000D01*
X155042857Y-88117619D01*
X154090476Y-89022380D02*
X154661904Y-89022380D01*
X154376190Y-89022380D02*
X154376190Y-88022380D01*
X154471428Y-88165238D01*
X154566666Y-88260476D01*
X154661904Y-88308095D01*
X153233333Y-88022380D02*
X153423809Y-88022380D01*
X153519047Y-88070000D01*
X153566666Y-88117619D01*
X153661904Y-88260476D01*
X153709523Y-88450952D01*
X153709523Y-88831904D01*
X153661904Y-88927142D01*
X153614285Y-88974761D01*
X153519047Y-89022380D01*
X153328571Y-89022380D01*
X153233333Y-88974761D01*
X153185714Y-88927142D01*
X153138095Y-88831904D01*
X153138095Y-88593809D01*
X153185714Y-88498571D01*
X153233333Y-88450952D01*
X153328571Y-88403333D01*
X153519047Y-88403333D01*
X153614285Y-88450952D01*
X153661904Y-88498571D01*
X153709523Y-88593809D01*
X160657142Y-99357142D02*
X160704761Y-99309523D01*
X160752380Y-99166666D01*
X160752380Y-99071428D01*
X160704761Y-98928571D01*
X160609523Y-98833333D01*
X160514285Y-98785714D01*
X160323809Y-98738095D01*
X160180952Y-98738095D01*
X159990476Y-98785714D01*
X159895238Y-98833333D01*
X159800000Y-98928571D01*
X159752380Y-99071428D01*
X159752380Y-99166666D01*
X159800000Y-99309523D01*
X159847619Y-99357142D01*
X160752380Y-100309523D02*
X160752380Y-99738095D01*
X160752380Y-100023809D02*
X159752380Y-100023809D01*
X159895238Y-99928571D01*
X159990476Y-99833333D01*
X160038095Y-99738095D01*
X160085714Y-101166666D02*
X160752380Y-101166666D01*
X159704761Y-100928571D02*
X160419047Y-100690476D01*
X160419047Y-101309523D01*
%LPC*%
D12*
X116500000Y-114500000D03*
X116500000Y-119500000D03*
X116500000Y-80500000D03*
X116500000Y-85500000D03*
D13*
G36*
X180375000Y-119100000D02*
G01*
X179875000Y-119850000D01*
X178875000Y-119850000D01*
X178875000Y-118350000D01*
X179875000Y-118350000D01*
X180375000Y-119100000D01*
G37*
G36*
X181325000Y-119850000D02*
G01*
X180175000Y-119850000D01*
X180675000Y-119100000D01*
X180175000Y-118350000D01*
X181325000Y-118350000D01*
X181325000Y-119850000D01*
G37*
D14*
X147000000Y-74100000D03*
X147000000Y-82900000D03*
D15*
X154000000Y-76000000D03*
X154000000Y-78500000D03*
X154000000Y-81000000D03*
D16*
X174000000Y-92500000D03*
X172000000Y-92500000D03*
X170000000Y-92500000D03*
X168000000Y-92500000D03*
X166000000Y-92500000D03*
X164000000Y-92500000D03*
D17*
X162500000Y-95100000D03*
X175600000Y-95100000D03*
X175600000Y-89900000D03*
X162500000Y-89900000D03*
D16*
X171000000Y-122000000D03*
X171000000Y-120000000D03*
X171000000Y-118000000D03*
X171000000Y-116000000D03*
X171000000Y-114000000D03*
X171000000Y-112000000D03*
D17*
X168400000Y-110500000D03*
X168400000Y-123600000D03*
X173600000Y-123600000D03*
X173600000Y-110500000D03*
G36*
G01*
X105874999Y-100400000D02*
X107125001Y-100400000D01*
G75*
G02*
X107375000Y-100649999I0J-249999D01*
G01*
X107375000Y-101450001D01*
G75*
G02*
X107125001Y-101700000I-249999J0D01*
G01*
X105874999Y-101700000D01*
G75*
G02*
X105625000Y-101450001I0J249999D01*
G01*
X105625000Y-100649999D01*
G75*
G02*
X105874999Y-100400000I249999J0D01*
G01*
G37*
G36*
G01*
X105874999Y-97300000D02*
X107125001Y-97300000D01*
G75*
G02*
X107375000Y-97549999I0J-249999D01*
G01*
X107375000Y-98350001D01*
G75*
G02*
X107125001Y-98600000I-249999J0D01*
G01*
X105874999Y-98600000D01*
G75*
G02*
X105625000Y-98350001I0J249999D01*
G01*
X105625000Y-97549999D01*
G75*
G02*
X105874999Y-97300000I249999J0D01*
G01*
G37*
D18*
X106500000Y-104100000D03*
X106500000Y-106900000D03*
X106500000Y-93100000D03*
X106500000Y-95900000D03*
G36*
G01*
X180650000Y-123862500D02*
X180650000Y-124337500D01*
G75*
G02*
X180412500Y-124575000I-237500J0D01*
G01*
X179837500Y-124575000D01*
G75*
G02*
X179600000Y-124337500I0J237500D01*
G01*
X179600000Y-123862500D01*
G75*
G02*
X179837500Y-123625000I237500J0D01*
G01*
X180412500Y-123625000D01*
G75*
G02*
X180650000Y-123862500I0J-237500D01*
G01*
G37*
G36*
G01*
X182400000Y-123862500D02*
X182400000Y-124337500D01*
G75*
G02*
X182162500Y-124575000I-237500J0D01*
G01*
X181587500Y-124575000D01*
G75*
G02*
X181350000Y-124337500I0J237500D01*
G01*
X181350000Y-123862500D01*
G75*
G02*
X181587500Y-123625000I237500J0D01*
G01*
X182162500Y-123625000D01*
G75*
G02*
X182400000Y-123862500I0J-237500D01*
G01*
G37*
G36*
G01*
X186262500Y-122450000D02*
X186737500Y-122450000D01*
G75*
G02*
X186975000Y-122687500I0J-237500D01*
G01*
X186975000Y-123262500D01*
G75*
G02*
X186737500Y-123500000I-237500J0D01*
G01*
X186262500Y-123500000D01*
G75*
G02*
X186025000Y-123262500I0J237500D01*
G01*
X186025000Y-122687500D01*
G75*
G02*
X186262500Y-122450000I237500J0D01*
G01*
G37*
G36*
G01*
X186262500Y-120700000D02*
X186737500Y-120700000D01*
G75*
G02*
X186975000Y-120937500I0J-237500D01*
G01*
X186975000Y-121512500D01*
G75*
G02*
X186737500Y-121750000I-237500J0D01*
G01*
X186262500Y-121750000D01*
G75*
G02*
X186025000Y-121512500I0J237500D01*
G01*
X186025000Y-120937500D01*
G75*
G02*
X186262500Y-120700000I237500J0D01*
G01*
G37*
G36*
G01*
X188150000Y-112862500D02*
X188150000Y-113337500D01*
G75*
G02*
X187912500Y-113575000I-237500J0D01*
G01*
X187337500Y-113575000D01*
G75*
G02*
X187100000Y-113337500I0J237500D01*
G01*
X187100000Y-112862500D01*
G75*
G02*
X187337500Y-112625000I237500J0D01*
G01*
X187912500Y-112625000D01*
G75*
G02*
X188150000Y-112862500I0J-237500D01*
G01*
G37*
G36*
G01*
X189900000Y-112862500D02*
X189900000Y-113337500D01*
G75*
G02*
X189662500Y-113575000I-237500J0D01*
G01*
X189087500Y-113575000D01*
G75*
G02*
X188850000Y-113337500I0J237500D01*
G01*
X188850000Y-112862500D01*
G75*
G02*
X189087500Y-112625000I237500J0D01*
G01*
X189662500Y-112625000D01*
G75*
G02*
X189900000Y-112862500I0J-237500D01*
G01*
G37*
G36*
G01*
X176350000Y-115362500D02*
X176350000Y-115837500D01*
G75*
G02*
X176112500Y-116075000I-237500J0D01*
G01*
X175537500Y-116075000D01*
G75*
G02*
X175300000Y-115837500I0J237500D01*
G01*
X175300000Y-115362500D01*
G75*
G02*
X175537500Y-115125000I237500J0D01*
G01*
X176112500Y-115125000D01*
G75*
G02*
X176350000Y-115362500I0J-237500D01*
G01*
G37*
G36*
G01*
X178100000Y-115362500D02*
X178100000Y-115837500D01*
G75*
G02*
X177862500Y-116075000I-237500J0D01*
G01*
X177287500Y-116075000D01*
G75*
G02*
X177050000Y-115837500I0J237500D01*
G01*
X177050000Y-115362500D01*
G75*
G02*
X177287500Y-115125000I237500J0D01*
G01*
X177862500Y-115125000D01*
G75*
G02*
X178100000Y-115362500I0J-237500D01*
G01*
G37*
G36*
G01*
X151250000Y-90237500D02*
X151250000Y-89762500D01*
G75*
G02*
X151487500Y-89525000I237500J0D01*
G01*
X152062500Y-89525000D01*
G75*
G02*
X152300000Y-89762500I0J-237500D01*
G01*
X152300000Y-90237500D01*
G75*
G02*
X152062500Y-90475000I-237500J0D01*
G01*
X151487500Y-90475000D01*
G75*
G02*
X151250000Y-90237500I0J237500D01*
G01*
G37*
G36*
G01*
X149500000Y-90237500D02*
X149500000Y-89762500D01*
G75*
G02*
X149737500Y-89525000I237500J0D01*
G01*
X150312500Y-89525000D01*
G75*
G02*
X150550000Y-89762500I0J-237500D01*
G01*
X150550000Y-90237500D01*
G75*
G02*
X150312500Y-90475000I-237500J0D01*
G01*
X149737500Y-90475000D01*
G75*
G02*
X149500000Y-90237500I0J237500D01*
G01*
G37*
G36*
G01*
X158250000Y-90237500D02*
X158250000Y-89762500D01*
G75*
G02*
X158487500Y-89525000I237500J0D01*
G01*
X159062500Y-89525000D01*
G75*
G02*
X159300000Y-89762500I0J-237500D01*
G01*
X159300000Y-90237500D01*
G75*
G02*
X159062500Y-90475000I-237500J0D01*
G01*
X158487500Y-90475000D01*
G75*
G02*
X158250000Y-90237500I0J237500D01*
G01*
G37*
G36*
G01*
X156500000Y-90237500D02*
X156500000Y-89762500D01*
G75*
G02*
X156737500Y-89525000I237500J0D01*
G01*
X157312500Y-89525000D01*
G75*
G02*
X157550000Y-89762500I0J-237500D01*
G01*
X157550000Y-90237500D01*
G75*
G02*
X157312500Y-90475000I-237500J0D01*
G01*
X156737500Y-90475000D01*
G75*
G02*
X156500000Y-90237500I0J237500D01*
G01*
G37*
D19*
X162500000Y-115580000D03*
X165040000Y-113040000D03*
X162500000Y-110500000D03*
D20*
X153500000Y-119415000D03*
X153500000Y-114585000D03*
X149391436Y-118334953D03*
X150960768Y-120494953D03*
X153500000Y-121320000D03*
X156039232Y-120494953D03*
X157608564Y-118334953D03*
X157608564Y-115665047D03*
X156039232Y-113505047D03*
X153500000Y-112680000D03*
X150960768Y-113505047D03*
X149391436Y-115665047D03*
G36*
G01*
X205762500Y-71550000D02*
X206237500Y-71550000D01*
G75*
G02*
X206475000Y-71787500I0J-237500D01*
G01*
X206475000Y-72362500D01*
G75*
G02*
X206237500Y-72600000I-237500J0D01*
G01*
X205762500Y-72600000D01*
G75*
G02*
X205525000Y-72362500I0J237500D01*
G01*
X205525000Y-71787500D01*
G75*
G02*
X205762500Y-71550000I237500J0D01*
G01*
G37*
G36*
G01*
X205762500Y-69800000D02*
X206237500Y-69800000D01*
G75*
G02*
X206475000Y-70037500I0J-237500D01*
G01*
X206475000Y-70612500D01*
G75*
G02*
X206237500Y-70850000I-237500J0D01*
G01*
X205762500Y-70850000D01*
G75*
G02*
X205525000Y-70612500I0J237500D01*
G01*
X205525000Y-70037500D01*
G75*
G02*
X205762500Y-69800000I237500J0D01*
G01*
G37*
D19*
X142000000Y-115580000D03*
X144540000Y-113040000D03*
X142000000Y-110500000D03*
D20*
X128000000Y-119415000D03*
X128000000Y-114585000D03*
X123891436Y-118334953D03*
X125460768Y-120494953D03*
X128000000Y-121320000D03*
X130539232Y-120494953D03*
X132108564Y-118334953D03*
X132108564Y-115665047D03*
X130539232Y-113505047D03*
X128000000Y-112680000D03*
X125460768Y-113505047D03*
X123891436Y-115665047D03*
D19*
X173380000Y-100800000D03*
X170840000Y-98260000D03*
X168300000Y-100800000D03*
G36*
G01*
X159037500Y-103450000D02*
X158562500Y-103450000D01*
G75*
G02*
X158325000Y-103212500I0J237500D01*
G01*
X158325000Y-102637500D01*
G75*
G02*
X158562500Y-102400000I237500J0D01*
G01*
X159037500Y-102400000D01*
G75*
G02*
X159275000Y-102637500I0J-237500D01*
G01*
X159275000Y-103212500D01*
G75*
G02*
X159037500Y-103450000I-237500J0D01*
G01*
G37*
G36*
G01*
X159037500Y-105200000D02*
X158562500Y-105200000D01*
G75*
G02*
X158325000Y-104962500I0J237500D01*
G01*
X158325000Y-104387500D01*
G75*
G02*
X158562500Y-104150000I237500J0D01*
G01*
X159037500Y-104150000D01*
G75*
G02*
X159275000Y-104387500I0J-237500D01*
G01*
X159275000Y-104962500D01*
G75*
G02*
X159037500Y-105200000I-237500J0D01*
G01*
G37*
G36*
G01*
X159037500Y-95850000D02*
X158562500Y-95850000D01*
G75*
G02*
X158325000Y-95612500I0J237500D01*
G01*
X158325000Y-95037500D01*
G75*
G02*
X158562500Y-94800000I237500J0D01*
G01*
X159037500Y-94800000D01*
G75*
G02*
X159275000Y-95037500I0J-237500D01*
G01*
X159275000Y-95612500D01*
G75*
G02*
X159037500Y-95850000I-237500J0D01*
G01*
G37*
G36*
G01*
X159037500Y-97600000D02*
X158562500Y-97600000D01*
G75*
G02*
X158325000Y-97362500I0J237500D01*
G01*
X158325000Y-96787500D01*
G75*
G02*
X158562500Y-96550000I237500J0D01*
G01*
X159037500Y-96550000D01*
G75*
G02*
X159275000Y-96787500I0J-237500D01*
G01*
X159275000Y-97362500D01*
G75*
G02*
X159037500Y-97600000I-237500J0D01*
G01*
G37*
D20*
X128000000Y-85415000D03*
X128000000Y-80585000D03*
X123891436Y-84334953D03*
X125460768Y-86494953D03*
X128000000Y-87320000D03*
X130539232Y-86494953D03*
X132108564Y-84334953D03*
X132108564Y-81665047D03*
X130539232Y-79505047D03*
X128000000Y-78680000D03*
X125460768Y-79505047D03*
X123891436Y-81665047D03*
D14*
X169000000Y-82900000D03*
X169000000Y-74100000D03*
D15*
X162000000Y-81000000D03*
X162000000Y-78500000D03*
X162000000Y-76000000D03*
D12*
X205900000Y-82500000D03*
D21*
X203900000Y-78000000D03*
X203900000Y-87000000D03*
D22*
X202900000Y-82500000D03*
D23*
X196900000Y-82500000D03*
D19*
X134710000Y-102540000D03*
X137250000Y-100000000D03*
X134710000Y-97460000D03*
D24*
X200800000Y-100000000D03*
D15*
X203340000Y-100000000D03*
D25*
X196300000Y-114960000D03*
X196300000Y-117500000D03*
D26*
X201380000Y-122580000D03*
X201380000Y-112420000D03*
D25*
X103200000Y-115540000D03*
X103200000Y-113000000D03*
D26*
X98120000Y-107920000D03*
X98120000Y-118080000D03*
D25*
X103200000Y-89540000D03*
X103200000Y-87000000D03*
D26*
X98120000Y-81920000D03*
X98120000Y-92080000D03*
G36*
G01*
X194700000Y-102662500D02*
X194700000Y-103137500D01*
G75*
G02*
X194462500Y-103375000I-237500J0D01*
G01*
X193887500Y-103375000D01*
G75*
G02*
X193650000Y-103137500I0J237500D01*
G01*
X193650000Y-102662500D01*
G75*
G02*
X193887500Y-102425000I237500J0D01*
G01*
X194462500Y-102425000D01*
G75*
G02*
X194700000Y-102662500I0J-237500D01*
G01*
G37*
G36*
G01*
X192950000Y-102662500D02*
X192950000Y-103137500D01*
G75*
G02*
X192712500Y-103375000I-237500J0D01*
G01*
X192137500Y-103375000D01*
G75*
G02*
X191900000Y-103137500I0J237500D01*
G01*
X191900000Y-102662500D01*
G75*
G02*
X192137500Y-102425000I237500J0D01*
G01*
X192712500Y-102425000D01*
G75*
G02*
X192950000Y-102662500I0J-237500D01*
G01*
G37*
G36*
G01*
X185150000Y-118762500D02*
X185150000Y-119237500D01*
G75*
G02*
X184912500Y-119475000I-237500J0D01*
G01*
X184337500Y-119475000D01*
G75*
G02*
X184100000Y-119237500I0J237500D01*
G01*
X184100000Y-118762500D01*
G75*
G02*
X184337500Y-118525000I237500J0D01*
G01*
X184912500Y-118525000D01*
G75*
G02*
X185150000Y-118762500I0J-237500D01*
G01*
G37*
G36*
G01*
X186900000Y-118762500D02*
X186900000Y-119237500D01*
G75*
G02*
X186662500Y-119475000I-237500J0D01*
G01*
X186087500Y-119475000D01*
G75*
G02*
X185850000Y-119237500I0J237500D01*
G01*
X185850000Y-118762500D01*
G75*
G02*
X186087500Y-118525000I237500J0D01*
G01*
X186662500Y-118525000D01*
G75*
G02*
X186900000Y-118762500I0J-237500D01*
G01*
G37*
G36*
G01*
X154050000Y-89762500D02*
X154050000Y-90237500D01*
G75*
G02*
X153812500Y-90475000I-237500J0D01*
G01*
X153237500Y-90475000D01*
G75*
G02*
X153000000Y-90237500I0J237500D01*
G01*
X153000000Y-89762500D01*
G75*
G02*
X153237500Y-89525000I237500J0D01*
G01*
X153812500Y-89525000D01*
G75*
G02*
X154050000Y-89762500I0J-237500D01*
G01*
G37*
G36*
G01*
X155800000Y-89762500D02*
X155800000Y-90237500D01*
G75*
G02*
X155562500Y-90475000I-237500J0D01*
G01*
X154987500Y-90475000D01*
G75*
G02*
X154750000Y-90237500I0J237500D01*
G01*
X154750000Y-89762500D01*
G75*
G02*
X154987500Y-89525000I237500J0D01*
G01*
X155562500Y-89525000D01*
G75*
G02*
X155800000Y-89762500I0J-237500D01*
G01*
G37*
G36*
G01*
X158562500Y-100350000D02*
X159037500Y-100350000D01*
G75*
G02*
X159275000Y-100587500I0J-237500D01*
G01*
X159275000Y-101162500D01*
G75*
G02*
X159037500Y-101400000I-237500J0D01*
G01*
X158562500Y-101400000D01*
G75*
G02*
X158325000Y-101162500I0J237500D01*
G01*
X158325000Y-100587500D01*
G75*
G02*
X158562500Y-100350000I237500J0D01*
G01*
G37*
G36*
G01*
X158562500Y-98600000D02*
X159037500Y-98600000D01*
G75*
G02*
X159275000Y-98837500I0J-237500D01*
G01*
X159275000Y-99412500D01*
G75*
G02*
X159037500Y-99650000I-237500J0D01*
G01*
X158562500Y-99650000D01*
G75*
G02*
X158325000Y-99412500I0J237500D01*
G01*
X158325000Y-98837500D01*
G75*
G02*
X158562500Y-98600000I237500J0D01*
G01*
G37*
M02*
