M48
; DRILL file {KiCad (5.1.9)-1} date 04/25/21 13:37:51
; FORMAT={-:-/ absolute / metric / decimal}
; #@! TF.CreationDate,2021-04-25T13:37:51-05:00
; #@! TF.GenerationSoftware,Kicad,Pcbnew,(5.1.9)-1
; #@! TF.FileFunction,Plated,1,4,PTH
FMAT,2
METRIC
T1C0.450
T2C0.800
T3C0.890
T4C0.900
T5C1.000
T6C1.200
T7C2.010
%
G90
G05
T1
X95.0Y-65.0
X95.0Y-135.0
X105.0Y-65.0
X105.0Y-135.0
X107.0Y-90.5
X107.0Y-109.5
X109.2Y-93.1
X109.2Y-95.9
X109.2Y-104.1
X109.2Y-106.9
X111.0Y-100.0
X114.6Y-99.2
X114.6Y-100.8
X115.0Y-65.0
X115.0Y-135.0
X125.0Y-65.0
X125.0Y-135.0
X126.4Y-100.0
X126.4Y-100.0
X128.5Y-69.5
X128.5Y-71.5
X128.5Y-73.5
X128.5Y-126.5
X128.5Y-128.5
X128.5Y-130.5
X128.6Y-100.0
X129.8Y-100.0
X131.0Y-91.3
X131.1Y-108.5
X131.2Y-100.0
X135.0Y-65.0
X135.0Y-135.0
X140.0Y-94.5
X140.0Y-103.0
X140.0Y-105.5
X140.0Y-97.0
X141.8Y-93.75
X141.8Y-106.25
X141.8Y-133.25
X143.7Y-93.75
X143.7Y-106.25
X144.55Y-128.05
X145.0Y-65.0
X145.0Y-135.0
X145.5Y-94.5
X145.5Y-105.5
X148.2Y-100.0
X148.8Y-91.1
X149.4Y-100.0
X151.0Y-86.5
X152.7Y-90.2
X153.5Y-108.0
X154.0Y-96.6
X155.0Y-65.0
X155.0Y-135.0
X155.1Y-103.2
X155.3Y-108.0
X156.1Y-92.0
X158.8Y-94.2
X158.8Y-98.095
X158.8Y-101.905
X158.8Y-105.8
X160.0Y-91.1
X165.0Y-65.0
X165.0Y-135.0
X167.1Y-100.3
X175.0Y-65.0
X175.0Y-135.0
X175.8Y-116.7
X177.8Y-100.6
X178.44Y-119.06
X178.6Y-115.6
X179.0Y-124.1
X181.1Y-100.0
X181.1Y-89.4
X181.1Y-94.8
X181.1Y-105.4
X181.825Y-119.565
X181.825Y-120.965
X181.825Y-122.365
X183.0Y-124.1
X183.225Y-119.565
X183.225Y-120.965
X183.225Y-122.365
X183.9Y-100.0
X183.9Y-89.4
X183.9Y-94.8
X183.9Y-105.4
X185.0Y-65.0
X185.0Y-135.0
X185.225Y-73.275
X185.225Y-67.525
X185.7Y-70.4
X186.5Y-120.1
X186.5Y-124.2
X186.56Y-113.06
X186.6Y-70.4
X187.0Y-77.3
X187.0Y-82.7
X187.435Y-70.065
X187.435Y-71.335
X187.5Y-74.4
X188.4Y-96.6
X188.4Y-107.8
X190.0Y-77.3
X190.0Y-82.7
X190.0Y-114.1
X190.3Y-101.9
X190.5Y-113.1
X190.8Y-69.3
X190.8Y-70.7
X190.8Y-72.1
X191.3Y-74.4
X192.2Y-69.3
X192.2Y-70.7
X192.2Y-72.1
X194.3Y-103.9
X195.0Y-65.0
X195.0Y-135.0
X195.325Y-96.325
X195.8Y-68.3
X202.7Y-102.9
X205.0Y-65.0
X205.0Y-135.0
X206.0Y-68.5
X206.0Y-69.4
X206.0Y-73.0
X206.0Y-73.9
T2
X116.5Y-80.5
X116.5Y-85.5
X116.5Y-114.5
X116.5Y-119.5
X134.71Y-97.46
X134.71Y-102.54
X137.25Y-100.0
X142.0Y-110.5
X142.0Y-115.58
X144.54Y-113.04
X162.5Y-110.5
X162.5Y-115.58
X165.04Y-113.04
X169.3Y-103.5
X171.84Y-100.96
X174.38Y-103.5
T3
X103.2Y-87.0
X103.2Y-89.54
X103.2Y-113.0
X103.2Y-115.54
X196.3Y-114.96
X196.3Y-117.5
T4
X123.891Y-81.665
X123.891Y-84.335
X123.891Y-115.665
X123.891Y-118.335
X125.461Y-79.505
X125.461Y-86.495
X125.461Y-113.505
X125.461Y-120.495
X128.0Y-78.68
X128.0Y-80.585
X128.0Y-85.415
X128.0Y-87.32
X128.0Y-112.68
X128.0Y-114.585
X128.0Y-119.415
X128.0Y-121.32
X130.539Y-79.505
X130.539Y-86.495
X130.539Y-113.505
X130.539Y-120.495
X132.109Y-81.665
X132.109Y-84.335
X132.109Y-115.665
X132.109Y-118.335
X149.391Y-115.665
X149.391Y-118.335
X150.961Y-113.505
X150.961Y-120.495
X153.5Y-112.68
X153.5Y-114.585
X153.5Y-119.415
X153.5Y-121.32
X156.039Y-113.505
X156.039Y-120.495
X157.609Y-115.665
X157.609Y-118.335
X164.8Y-95.2
X166.8Y-95.2
X168.8Y-95.2
X170.8Y-95.2
X172.8Y-95.2
X172.9Y-112.0
X172.9Y-114.0
X172.9Y-116.0
X172.9Y-118.0
X172.9Y-120.0
X172.9Y-122.0
X174.8Y-95.2
X197.4Y-100.0
X199.94Y-100.0
T5
X161.0Y-75.9
X161.0Y-78.4
X161.0Y-80.9
X184.0Y-75.9
X184.0Y-78.4
X184.0Y-80.9
T6
X163.3Y-92.6
X163.3Y-97.8
X170.3Y-110.5
X170.3Y-123.6
X175.5Y-110.5
X175.5Y-123.6
X176.4Y-92.6
X176.4Y-97.8
T7
X98.12Y-81.92
X98.12Y-92.08
X98.12Y-107.92
X98.12Y-118.08
X201.38Y-112.42
X201.38Y-122.58
T5
X197.4Y-83.5G85X197.4Y-81.5
G05
X203.4Y-83.15G85X203.4Y-81.85
G05
X203.65Y-78.0G85X205.15Y-78.0
G05
X203.65Y-87.0G85X205.15Y-87.0
G05
T0
M30
