G04 #@! TF.GenerationSoftware,KiCad,Pcbnew,(5.1.9)-1*
G04 #@! TF.CreationDate,2021-04-27T21:59:47-05:00*
G04 #@! TF.ProjectId,high-gain-diff-probe,68696768-2d67-4616-996e-2d646966662d,rev?*
G04 #@! TF.SameCoordinates,Original*
G04 #@! TF.FileFunction,OtherDrawing,Comment*
%FSLAX46Y46*%
G04 Gerber Fmt 4.6, Leading zero omitted, Abs format (unit mm)*
G04 Created by KiCad (PCBNEW (5.1.9)-1) date 2021-04-27 21:59:47*
%MOMM*%
%LPD*%
G01*
G04 APERTURE LIST*
%ADD10C,0.150000*%
G04 APERTURE END LIST*
D10*
X209900000Y-137600000D02*
X212100000Y-141300000D01*
X212392738Y-141627380D02*
X212964166Y-141627380D01*
X212678452Y-142627380D02*
X212678452Y-141627380D01*
X213726071Y-142627380D02*
X213726071Y-142103571D01*
X213678452Y-142008333D01*
X213583214Y-141960714D01*
X213392738Y-141960714D01*
X213297500Y-142008333D01*
X213726071Y-142579761D02*
X213630833Y-142627380D01*
X213392738Y-142627380D01*
X213297500Y-142579761D01*
X213249880Y-142484523D01*
X213249880Y-142389285D01*
X213297500Y-142294047D01*
X213392738Y-142246428D01*
X213630833Y-142246428D01*
X213726071Y-142198809D01*
X214202261Y-142627380D02*
X214202261Y-141627380D01*
X214202261Y-142008333D02*
X214297500Y-141960714D01*
X214487976Y-141960714D01*
X214583214Y-142008333D01*
X214630833Y-142055952D01*
X214678452Y-142151190D01*
X214678452Y-142436904D01*
X214630833Y-142532142D01*
X214583214Y-142579761D01*
X214487976Y-142627380D01*
X214297500Y-142627380D01*
X214202261Y-142579761D01*
X215059404Y-142579761D02*
X215154642Y-142627380D01*
X215345119Y-142627380D01*
X215440357Y-142579761D01*
X215487976Y-142484523D01*
X215487976Y-142436904D01*
X215440357Y-142341666D01*
X215345119Y-142294047D01*
X215202261Y-142294047D01*
X215107023Y-142246428D01*
X215059404Y-142151190D01*
X215059404Y-142103571D01*
X215107023Y-142008333D01*
X215202261Y-141960714D01*
X215345119Y-141960714D01*
X215440357Y-142008333D01*
X217107023Y-142579761D02*
X217011785Y-142627380D01*
X216821309Y-142627380D01*
X216726071Y-142579761D01*
X216678452Y-142532142D01*
X216630833Y-142436904D01*
X216630833Y-142151190D01*
X216678452Y-142055952D01*
X216726071Y-142008333D01*
X216821309Y-141960714D01*
X217011785Y-141960714D01*
X217107023Y-142008333D01*
X217964166Y-142627380D02*
X217964166Y-142103571D01*
X217916547Y-142008333D01*
X217821309Y-141960714D01*
X217630833Y-141960714D01*
X217535595Y-142008333D01*
X217964166Y-142579761D02*
X217868928Y-142627380D01*
X217630833Y-142627380D01*
X217535595Y-142579761D01*
X217487976Y-142484523D01*
X217487976Y-142389285D01*
X217535595Y-142294047D01*
X217630833Y-142246428D01*
X217868928Y-142246428D01*
X217964166Y-142198809D01*
X218440357Y-141960714D02*
X218440357Y-142627380D01*
X218440357Y-142055952D02*
X218487976Y-142008333D01*
X218583214Y-141960714D01*
X218726071Y-141960714D01*
X218821309Y-142008333D01*
X218868928Y-142103571D01*
X218868928Y-142627380D01*
X220107023Y-142627380D02*
X220107023Y-141627380D01*
X220107023Y-142008333D02*
X220202261Y-141960714D01*
X220392738Y-141960714D01*
X220487976Y-142008333D01*
X220535595Y-142055952D01*
X220583214Y-142151190D01*
X220583214Y-142436904D01*
X220535595Y-142532142D01*
X220487976Y-142579761D01*
X220392738Y-142627380D01*
X220202261Y-142627380D01*
X220107023Y-142579761D01*
X221392738Y-142579761D02*
X221297500Y-142627380D01*
X221107023Y-142627380D01*
X221011785Y-142579761D01*
X220964166Y-142484523D01*
X220964166Y-142103571D01*
X221011785Y-142008333D01*
X221107023Y-141960714D01*
X221297500Y-141960714D01*
X221392738Y-142008333D01*
X221440357Y-142103571D01*
X221440357Y-142198809D01*
X220964166Y-142294047D01*
X222487976Y-141960714D02*
X222868928Y-141960714D01*
X222630833Y-142627380D02*
X222630833Y-141770238D01*
X222678452Y-141675000D01*
X222773690Y-141627380D01*
X222868928Y-141627380D01*
X223202261Y-142627380D02*
X223202261Y-141960714D01*
X223202261Y-141627380D02*
X223154642Y-141675000D01*
X223202261Y-141722619D01*
X223249880Y-141675000D01*
X223202261Y-141627380D01*
X223202261Y-141722619D01*
X223821309Y-142627380D02*
X223726071Y-142579761D01*
X223678452Y-142484523D01*
X223678452Y-141627380D01*
X224583214Y-142579761D02*
X224487976Y-142627380D01*
X224297500Y-142627380D01*
X224202261Y-142579761D01*
X224154642Y-142484523D01*
X224154642Y-142103571D01*
X224202261Y-142008333D01*
X224297500Y-141960714D01*
X224487976Y-141960714D01*
X224583214Y-142008333D01*
X224630833Y-142103571D01*
X224630833Y-142198809D01*
X224154642Y-142294047D01*
X225487976Y-142627380D02*
X225487976Y-141627380D01*
X225487976Y-142579761D02*
X225392738Y-142627380D01*
X225202261Y-142627380D01*
X225107023Y-142579761D01*
X225059404Y-142532142D01*
X225011785Y-142436904D01*
X225011785Y-142151190D01*
X225059404Y-142055952D01*
X225107023Y-142008333D01*
X225202261Y-141960714D01*
X225392738Y-141960714D01*
X225487976Y-142008333D01*
X227154642Y-142627380D02*
X227154642Y-141627380D01*
X227154642Y-142579761D02*
X227059404Y-142627380D01*
X226868928Y-142627380D01*
X226773690Y-142579761D01*
X226726071Y-142532142D01*
X226678452Y-142436904D01*
X226678452Y-142151190D01*
X226726071Y-142055952D01*
X226773690Y-142008333D01*
X226868928Y-141960714D01*
X227059404Y-141960714D01*
X227154642Y-142008333D01*
X227773690Y-142627380D02*
X227678452Y-142579761D01*
X227630833Y-142532142D01*
X227583214Y-142436904D01*
X227583214Y-142151190D01*
X227630833Y-142055952D01*
X227678452Y-142008333D01*
X227773690Y-141960714D01*
X227916547Y-141960714D01*
X228011785Y-142008333D01*
X228059404Y-142055952D01*
X228107023Y-142151190D01*
X228107023Y-142436904D01*
X228059404Y-142532142D01*
X228011785Y-142579761D01*
X227916547Y-142627380D01*
X227773690Y-142627380D01*
X228440357Y-141960714D02*
X228630833Y-142627380D01*
X228821309Y-142151190D01*
X229011785Y-142627380D01*
X229202261Y-141960714D01*
X229583214Y-141960714D02*
X229583214Y-142627380D01*
X229583214Y-142055952D02*
X229630833Y-142008333D01*
X229726071Y-141960714D01*
X229868928Y-141960714D01*
X229964166Y-142008333D01*
X230011785Y-142103571D01*
X230011785Y-142627380D01*
X231107023Y-141960714D02*
X231487976Y-141960714D01*
X231249880Y-141627380D02*
X231249880Y-142484523D01*
X231297500Y-142579761D01*
X231392738Y-142627380D01*
X231487976Y-142627380D01*
X231964166Y-142627380D02*
X231868928Y-142579761D01*
X231821309Y-142532142D01*
X231773690Y-142436904D01*
X231773690Y-142151190D01*
X231821309Y-142055952D01*
X231868928Y-142008333D01*
X231964166Y-141960714D01*
X232107023Y-141960714D01*
X232202261Y-142008333D01*
X232249880Y-142055952D01*
X232297500Y-142151190D01*
X232297500Y-142436904D01*
X232249880Y-142532142D01*
X232202261Y-142579761D01*
X232107023Y-142627380D01*
X231964166Y-142627380D01*
X233345119Y-141960714D02*
X233726071Y-141960714D01*
X233487976Y-142627380D02*
X233487976Y-141770238D01*
X233535595Y-141675000D01*
X233630833Y-141627380D01*
X233726071Y-141627380D01*
X234059404Y-142627380D02*
X234059404Y-141960714D01*
X234059404Y-141627380D02*
X234011785Y-141675000D01*
X234059404Y-141722619D01*
X234107023Y-141675000D01*
X234059404Y-141627380D01*
X234059404Y-141722619D01*
X234392738Y-141960714D02*
X234773690Y-141960714D01*
X234535595Y-141627380D02*
X234535595Y-142484523D01*
X234583214Y-142579761D01*
X234678452Y-142627380D01*
X234773690Y-142627380D01*
X212487976Y-144229761D02*
X212583214Y-144277380D01*
X212773690Y-144277380D01*
X212868928Y-144229761D01*
X212916547Y-144134523D01*
X212916547Y-144086904D01*
X212868928Y-143991666D01*
X212773690Y-143944047D01*
X212630833Y-143944047D01*
X212535595Y-143896428D01*
X212487976Y-143801190D01*
X212487976Y-143753571D01*
X212535595Y-143658333D01*
X212630833Y-143610714D01*
X212773690Y-143610714D01*
X212868928Y-143658333D01*
X213345119Y-143610714D02*
X213345119Y-144277380D01*
X213345119Y-143705952D02*
X213392738Y-143658333D01*
X213487976Y-143610714D01*
X213630833Y-143610714D01*
X213726071Y-143658333D01*
X213773690Y-143753571D01*
X213773690Y-144277380D01*
X214678452Y-143610714D02*
X214678452Y-144277380D01*
X214249880Y-143610714D02*
X214249880Y-144134523D01*
X214297500Y-144229761D01*
X214392738Y-144277380D01*
X214535595Y-144277380D01*
X214630833Y-144229761D01*
X214678452Y-144182142D01*
X215583214Y-143610714D02*
X215583214Y-144420238D01*
X215535595Y-144515476D01*
X215487976Y-144563095D01*
X215392738Y-144610714D01*
X215249880Y-144610714D01*
X215154642Y-144563095D01*
X215583214Y-144229761D02*
X215487976Y-144277380D01*
X215297500Y-144277380D01*
X215202261Y-144229761D01*
X215154642Y-144182142D01*
X215107023Y-144086904D01*
X215107023Y-143801190D01*
X215154642Y-143705952D01*
X215202261Y-143658333D01*
X215297500Y-143610714D01*
X215487976Y-143610714D01*
X215583214Y-143658333D01*
X216202261Y-144277380D02*
X216107023Y-144229761D01*
X216059404Y-144134523D01*
X216059404Y-143277380D01*
X216487976Y-143610714D02*
X216726071Y-144277380D01*
X216964166Y-143610714D02*
X216726071Y-144277380D01*
X216630833Y-144515476D01*
X216583214Y-144563095D01*
X216487976Y-144610714D01*
X218107023Y-144277380D02*
X218107023Y-143610714D01*
X218107023Y-143277380D02*
X218059404Y-143325000D01*
X218107023Y-143372619D01*
X218154642Y-143325000D01*
X218107023Y-143277380D01*
X218107023Y-143372619D01*
X218583214Y-143610714D02*
X218583214Y-144277380D01*
X218583214Y-143705952D02*
X218630833Y-143658333D01*
X218726071Y-143610714D01*
X218868928Y-143610714D01*
X218964166Y-143658333D01*
X219011785Y-143753571D01*
X219011785Y-144277380D01*
X219345119Y-143610714D02*
X219726071Y-143610714D01*
X219487976Y-143277380D02*
X219487976Y-144134523D01*
X219535595Y-144229761D01*
X219630833Y-144277380D01*
X219726071Y-144277380D01*
X220202261Y-144277380D02*
X220107023Y-144229761D01*
X220059404Y-144182142D01*
X220011785Y-144086904D01*
X220011785Y-143801190D01*
X220059404Y-143705952D01*
X220107023Y-143658333D01*
X220202261Y-143610714D01*
X220345119Y-143610714D01*
X220440357Y-143658333D01*
X220487976Y-143705952D01*
X220535595Y-143801190D01*
X220535595Y-144086904D01*
X220487976Y-144182142D01*
X220440357Y-144229761D01*
X220345119Y-144277380D01*
X220202261Y-144277380D01*
X221583214Y-143610714D02*
X221964166Y-143610714D01*
X221726071Y-143277380D02*
X221726071Y-144134523D01*
X221773690Y-144229761D01*
X221868928Y-144277380D01*
X221964166Y-144277380D01*
X222297500Y-144277380D02*
X222297500Y-143277380D01*
X222726071Y-144277380D02*
X222726071Y-143753571D01*
X222678452Y-143658333D01*
X222583214Y-143610714D01*
X222440357Y-143610714D01*
X222345119Y-143658333D01*
X222297500Y-143705952D01*
X223583214Y-144229761D02*
X223487976Y-144277380D01*
X223297500Y-144277380D01*
X223202261Y-144229761D01*
X223154642Y-144134523D01*
X223154642Y-143753571D01*
X223202261Y-143658333D01*
X223297500Y-143610714D01*
X223487976Y-143610714D01*
X223583214Y-143658333D01*
X223630833Y-143753571D01*
X223630833Y-143848809D01*
X223154642Y-143944047D01*
X225249880Y-144229761D02*
X225154642Y-144277380D01*
X224964166Y-144277380D01*
X224868928Y-144229761D01*
X224821309Y-144182142D01*
X224773690Y-144086904D01*
X224773690Y-143801190D01*
X224821309Y-143705952D01*
X224868928Y-143658333D01*
X224964166Y-143610714D01*
X225154642Y-143610714D01*
X225249880Y-143658333D01*
X226107023Y-144277380D02*
X226107023Y-143753571D01*
X226059404Y-143658333D01*
X225964166Y-143610714D01*
X225773690Y-143610714D01*
X225678452Y-143658333D01*
X226107023Y-144229761D02*
X226011785Y-144277380D01*
X225773690Y-144277380D01*
X225678452Y-144229761D01*
X225630833Y-144134523D01*
X225630833Y-144039285D01*
X225678452Y-143944047D01*
X225773690Y-143896428D01*
X226011785Y-143896428D01*
X226107023Y-143848809D01*
X226535595Y-144229761D02*
X226630833Y-144277380D01*
X226821309Y-144277380D01*
X226916547Y-144229761D01*
X226964166Y-144134523D01*
X226964166Y-144086904D01*
X226916547Y-143991666D01*
X226821309Y-143944047D01*
X226678452Y-143944047D01*
X226583214Y-143896428D01*
X226535595Y-143801190D01*
X226535595Y-143753571D01*
X226583214Y-143658333D01*
X226678452Y-143610714D01*
X226821309Y-143610714D01*
X226916547Y-143658333D01*
X227773690Y-144229761D02*
X227678452Y-144277380D01*
X227487976Y-144277380D01*
X227392738Y-144229761D01*
X227345119Y-144134523D01*
X227345119Y-143753571D01*
X227392738Y-143658333D01*
X227487976Y-143610714D01*
X227678452Y-143610714D01*
X227773690Y-143658333D01*
X227821309Y-143753571D01*
X227821309Y-143848809D01*
X227345119Y-143944047D01*
X228868928Y-143610714D02*
X229249880Y-143610714D01*
X229011785Y-143277380D02*
X229011785Y-144134523D01*
X229059404Y-144229761D01*
X229154642Y-144277380D01*
X229249880Y-144277380D01*
X229726071Y-144277380D02*
X229630833Y-144229761D01*
X229583214Y-144182142D01*
X229535595Y-144086904D01*
X229535595Y-143801190D01*
X229583214Y-143705952D01*
X229630833Y-143658333D01*
X229726071Y-143610714D01*
X229868928Y-143610714D01*
X229964166Y-143658333D01*
X230011785Y-143705952D01*
X230059404Y-143801190D01*
X230059404Y-144086904D01*
X230011785Y-144182142D01*
X229964166Y-144229761D01*
X229868928Y-144277380D01*
X229726071Y-144277380D01*
X230630833Y-144277380D02*
X230535595Y-144229761D01*
X230487976Y-144134523D01*
X230487976Y-143277380D01*
X231392738Y-144229761D02*
X231297500Y-144277380D01*
X231107023Y-144277380D01*
X231011785Y-144229761D01*
X230964166Y-144134523D01*
X230964166Y-143753571D01*
X231011785Y-143658333D01*
X231107023Y-143610714D01*
X231297500Y-143610714D01*
X231392738Y-143658333D01*
X231440357Y-143753571D01*
X231440357Y-143848809D01*
X230964166Y-143944047D01*
X231868928Y-144277380D02*
X231868928Y-143610714D01*
X231868928Y-143801190D02*
X231916547Y-143705952D01*
X231964166Y-143658333D01*
X232059404Y-143610714D01*
X232154642Y-143610714D01*
X232916547Y-144277380D02*
X232916547Y-143753571D01*
X232868928Y-143658333D01*
X232773690Y-143610714D01*
X232583214Y-143610714D01*
X232487976Y-143658333D01*
X232916547Y-144229761D02*
X232821309Y-144277380D01*
X232583214Y-144277380D01*
X232487976Y-144229761D01*
X232440357Y-144134523D01*
X232440357Y-144039285D01*
X232487976Y-143944047D01*
X232583214Y-143896428D01*
X232821309Y-143896428D01*
X232916547Y-143848809D01*
X233392738Y-143610714D02*
X233392738Y-144277380D01*
X233392738Y-143705952D02*
X233440357Y-143658333D01*
X233535595Y-143610714D01*
X233678452Y-143610714D01*
X233773690Y-143658333D01*
X233821309Y-143753571D01*
X233821309Y-144277380D01*
X234726071Y-144229761D02*
X234630833Y-144277380D01*
X234440357Y-144277380D01*
X234345119Y-144229761D01*
X234297500Y-144182142D01*
X234249880Y-144086904D01*
X234249880Y-143801190D01*
X234297500Y-143705952D01*
X234345119Y-143658333D01*
X234440357Y-143610714D01*
X234630833Y-143610714D01*
X234726071Y-143658333D01*
X235535595Y-144229761D02*
X235440357Y-144277380D01*
X235249880Y-144277380D01*
X235154642Y-144229761D01*
X235107023Y-144134523D01*
X235107023Y-143753571D01*
X235154642Y-143658333D01*
X235249880Y-143610714D01*
X235440357Y-143610714D01*
X235535595Y-143658333D01*
X235583214Y-143753571D01*
X235583214Y-143848809D01*
X235107023Y-143944047D01*
X236011785Y-144182142D02*
X236059404Y-144229761D01*
X236011785Y-144277380D01*
X235964166Y-144229761D01*
X236011785Y-144182142D01*
X236011785Y-144277380D01*
X209500000Y-129250000D02*
X90000000Y-129250000D01*
X216419047Y-129773809D02*
X216466666Y-129678571D01*
X216514285Y-129630952D01*
X216609523Y-129583333D01*
X216657142Y-129583333D01*
X216752380Y-129630952D01*
X216800000Y-129678571D01*
X216847619Y-129773809D01*
X216847619Y-129964285D01*
X216800000Y-130059523D01*
X216752380Y-130107142D01*
X216657142Y-130154761D01*
X216609523Y-130154761D01*
X216514285Y-130107142D01*
X216466666Y-130059523D01*
X216419047Y-129964285D01*
X216419047Y-129773809D01*
X216371428Y-129678571D01*
X216323809Y-129630952D01*
X216228571Y-129583333D01*
X216038095Y-129583333D01*
X215942857Y-129630952D01*
X215895238Y-129678571D01*
X215847619Y-129773809D01*
X215847619Y-129964285D01*
X215895238Y-130059523D01*
X215942857Y-130107142D01*
X216038095Y-130154761D01*
X216228571Y-130154761D01*
X216323809Y-130107142D01*
X216371428Y-130059523D01*
X216419047Y-129964285D01*
X215942857Y-130583333D02*
X215895238Y-130630952D01*
X215847619Y-130583333D01*
X215895238Y-130535714D01*
X215942857Y-130583333D01*
X215847619Y-130583333D01*
X216847619Y-131250000D02*
X216847619Y-131345238D01*
X216800000Y-131440476D01*
X216752380Y-131488095D01*
X216657142Y-131535714D01*
X216466666Y-131583333D01*
X216228571Y-131583333D01*
X216038095Y-131535714D01*
X215942857Y-131488095D01*
X215895238Y-131440476D01*
X215847619Y-131345238D01*
X215847619Y-131250000D01*
X215895238Y-131154761D01*
X215942857Y-131107142D01*
X216038095Y-131059523D01*
X216228571Y-131011904D01*
X216466666Y-131011904D01*
X216657142Y-131059523D01*
X216752380Y-131107142D01*
X216800000Y-131154761D01*
X216847619Y-131250000D01*
X216847619Y-132202380D02*
X216847619Y-132297619D01*
X216800000Y-132392857D01*
X216752380Y-132440476D01*
X216657142Y-132488095D01*
X216466666Y-132535714D01*
X216228571Y-132535714D01*
X216038095Y-132488095D01*
X215942857Y-132440476D01*
X215895238Y-132392857D01*
X215847619Y-132297619D01*
X215847619Y-132202380D01*
X215895238Y-132107142D01*
X215942857Y-132059523D01*
X216038095Y-132011904D01*
X216228571Y-131964285D01*
X216466666Y-131964285D01*
X216657142Y-132011904D01*
X216752380Y-132059523D01*
X216800000Y-132107142D01*
X216847619Y-132202380D01*
X216847619Y-133154761D02*
X216847619Y-133250000D01*
X216800000Y-133345238D01*
X216752380Y-133392857D01*
X216657142Y-133440476D01*
X216466666Y-133488095D01*
X216228571Y-133488095D01*
X216038095Y-133440476D01*
X215942857Y-133392857D01*
X215895238Y-133345238D01*
X215847619Y-133250000D01*
X215847619Y-133154761D01*
X215895238Y-133059523D01*
X215942857Y-133011904D01*
X216038095Y-132964285D01*
X216228571Y-132916666D01*
X216466666Y-132916666D01*
X216657142Y-132964285D01*
X216752380Y-133011904D01*
X216800000Y-133059523D01*
X216847619Y-133154761D01*
X215847619Y-134678571D02*
X216514285Y-134678571D01*
X216419047Y-134678571D02*
X216466666Y-134726190D01*
X216514285Y-134821428D01*
X216514285Y-134964285D01*
X216466666Y-135059523D01*
X216371428Y-135107142D01*
X215847619Y-135107142D01*
X216371428Y-135107142D02*
X216466666Y-135154761D01*
X216514285Y-135250000D01*
X216514285Y-135392857D01*
X216466666Y-135488095D01*
X216371428Y-135535714D01*
X215847619Y-135535714D01*
X215847619Y-136011904D02*
X216514285Y-136011904D01*
X216419047Y-136011904D02*
X216466666Y-136059523D01*
X216514285Y-136154761D01*
X216514285Y-136297619D01*
X216466666Y-136392857D01*
X216371428Y-136440476D01*
X215847619Y-136440476D01*
X216371428Y-136440476D02*
X216466666Y-136488095D01*
X216514285Y-136583333D01*
X216514285Y-136726190D01*
X216466666Y-136821428D01*
X216371428Y-136869047D01*
X215847619Y-136869047D01*
X215000000Y-129250000D02*
X215000000Y-137250000D01*
X209500000Y-129250000D02*
X215586421Y-129250000D01*
X209500000Y-137250000D02*
X215586421Y-137250000D01*
X215000000Y-137250000D02*
X214413579Y-136123496D01*
X215000000Y-137250000D02*
X215586421Y-136123496D01*
X215000000Y-129250000D02*
X214413579Y-130376504D01*
X215000000Y-129250000D02*
X215586421Y-130376504D01*
X213097619Y-132035714D02*
X213097619Y-132654761D01*
X212716666Y-132321428D01*
X212716666Y-132464285D01*
X212669047Y-132559523D01*
X212621428Y-132607142D01*
X212526190Y-132654761D01*
X212288095Y-132654761D01*
X212192857Y-132607142D01*
X212145238Y-132559523D01*
X212097619Y-132464285D01*
X212097619Y-132178571D01*
X212145238Y-132083333D01*
X212192857Y-132035714D01*
X212192857Y-133083333D02*
X212145238Y-133130952D01*
X212097619Y-133083333D01*
X212145238Y-133035714D01*
X212192857Y-133083333D01*
X212097619Y-133083333D01*
X213097619Y-133750000D02*
X213097619Y-133845238D01*
X213050000Y-133940476D01*
X213002380Y-133988095D01*
X212907142Y-134035714D01*
X212716666Y-134083333D01*
X212478571Y-134083333D01*
X212288095Y-134035714D01*
X212192857Y-133988095D01*
X212145238Y-133940476D01*
X212097619Y-133845238D01*
X212097619Y-133750000D01*
X212145238Y-133654761D01*
X212192857Y-133607142D01*
X212288095Y-133559523D01*
X212478571Y-133511904D01*
X212716666Y-133511904D01*
X212907142Y-133559523D01*
X213002380Y-133607142D01*
X213050000Y-133654761D01*
X213097619Y-133750000D01*
X213097619Y-134702380D02*
X213097619Y-134797619D01*
X213050000Y-134892857D01*
X213002380Y-134940476D01*
X212907142Y-134988095D01*
X212716666Y-135035714D01*
X212478571Y-135035714D01*
X212288095Y-134988095D01*
X212192857Y-134940476D01*
X212145238Y-134892857D01*
X212097619Y-134797619D01*
X212097619Y-134702380D01*
X212145238Y-134607142D01*
X212192857Y-134559523D01*
X212288095Y-134511904D01*
X212478571Y-134464285D01*
X212716666Y-134464285D01*
X212907142Y-134511904D01*
X213002380Y-134559523D01*
X213050000Y-134607142D01*
X213097619Y-134702380D01*
X213097619Y-135654761D02*
X213097619Y-135750000D01*
X213050000Y-135845238D01*
X213002380Y-135892857D01*
X212907142Y-135940476D01*
X212716666Y-135988095D01*
X212478571Y-135988095D01*
X212288095Y-135940476D01*
X212192857Y-135892857D01*
X212145238Y-135845238D01*
X212097619Y-135750000D01*
X212097619Y-135654761D01*
X212145238Y-135559523D01*
X212192857Y-135511904D01*
X212288095Y-135464285D01*
X212478571Y-135416666D01*
X212716666Y-135416666D01*
X212907142Y-135464285D01*
X213002380Y-135511904D01*
X213050000Y-135559523D01*
X213097619Y-135654761D01*
X212097619Y-137178571D02*
X212764285Y-137178571D01*
X212669047Y-137178571D02*
X212716666Y-137226190D01*
X212764285Y-137321428D01*
X212764285Y-137464285D01*
X212716666Y-137559523D01*
X212621428Y-137607142D01*
X212097619Y-137607142D01*
X212621428Y-137607142D02*
X212716666Y-137654761D01*
X212764285Y-137750000D01*
X212764285Y-137892857D01*
X212716666Y-137988095D01*
X212621428Y-138035714D01*
X212097619Y-138035714D01*
X212097619Y-138511904D02*
X212764285Y-138511904D01*
X212669047Y-138511904D02*
X212716666Y-138559523D01*
X212764285Y-138654761D01*
X212764285Y-138797619D01*
X212716666Y-138892857D01*
X212621428Y-138940476D01*
X212097619Y-138940476D01*
X212621428Y-138940476D02*
X212716666Y-138988095D01*
X212764285Y-139083333D01*
X212764285Y-139226190D01*
X212716666Y-139321428D01*
X212621428Y-139369047D01*
X212097619Y-139369047D01*
X211250000Y-134250000D02*
X211250000Y-137250000D01*
X209500000Y-134250000D02*
X211836421Y-134250000D01*
X209500000Y-137250000D02*
X211836421Y-137250000D01*
X211250000Y-137250000D02*
X210663579Y-136123496D01*
X211250000Y-137250000D02*
X211836421Y-136123496D01*
X211250000Y-134250000D02*
X210663579Y-135376504D01*
X211250000Y-134250000D02*
X211836421Y-135376504D01*
X211250000Y-62250000D02*
X211250000Y-59000000D01*
X219500000Y-67000000D02*
X217500000Y-67000000D01*
X219952380Y-66928571D02*
X220285714Y-66928571D01*
X220428571Y-67452380D02*
X219952380Y-67452380D01*
X219952380Y-66452380D01*
X220428571Y-66452380D01*
X221285714Y-67452380D02*
X221285714Y-66452380D01*
X221285714Y-67404761D02*
X221190476Y-67452380D01*
X221000000Y-67452380D01*
X220904761Y-67404761D01*
X220857142Y-67357142D01*
X220809523Y-67261904D01*
X220809523Y-66976190D01*
X220857142Y-66880952D01*
X220904761Y-66833333D01*
X221000000Y-66785714D01*
X221190476Y-66785714D01*
X221285714Y-66833333D01*
X222190476Y-66785714D02*
X222190476Y-67595238D01*
X222142857Y-67690476D01*
X222095238Y-67738095D01*
X222000000Y-67785714D01*
X221857142Y-67785714D01*
X221761904Y-67738095D01*
X222190476Y-67404761D02*
X222095238Y-67452380D01*
X221904761Y-67452380D01*
X221809523Y-67404761D01*
X221761904Y-67357142D01*
X221714285Y-67261904D01*
X221714285Y-66976190D01*
X221761904Y-66880952D01*
X221809523Y-66833333D01*
X221904761Y-66785714D01*
X222095238Y-66785714D01*
X222190476Y-66833333D01*
X223047619Y-67404761D02*
X222952380Y-67452380D01*
X222761904Y-67452380D01*
X222666666Y-67404761D01*
X222619047Y-67309523D01*
X222619047Y-66928571D01*
X222666666Y-66833333D01*
X222761904Y-66785714D01*
X222952380Y-66785714D01*
X223047619Y-66833333D01*
X223095238Y-66928571D01*
X223095238Y-67023809D01*
X222619047Y-67119047D01*
X224428571Y-67452380D02*
X224333333Y-67404761D01*
X224285714Y-67357142D01*
X224238095Y-67261904D01*
X224238095Y-66976190D01*
X224285714Y-66880952D01*
X224333333Y-66833333D01*
X224428571Y-66785714D01*
X224571428Y-66785714D01*
X224666666Y-66833333D01*
X224714285Y-66880952D01*
X224761904Y-66976190D01*
X224761904Y-67261904D01*
X224714285Y-67357142D01*
X224666666Y-67404761D01*
X224571428Y-67452380D01*
X224428571Y-67452380D01*
X225047619Y-66785714D02*
X225428571Y-66785714D01*
X225190476Y-67452380D02*
X225190476Y-66595238D01*
X225238095Y-66500000D01*
X225333333Y-66452380D01*
X225428571Y-66452380D01*
X226380952Y-66452380D02*
X226952380Y-66452380D01*
X226666666Y-67452380D02*
X226666666Y-66452380D01*
X227428571Y-67452380D02*
X227333333Y-67404761D01*
X227285714Y-67357142D01*
X227238095Y-67261904D01*
X227238095Y-66976190D01*
X227285714Y-66880952D01*
X227333333Y-66833333D01*
X227428571Y-66785714D01*
X227571428Y-66785714D01*
X227666666Y-66833333D01*
X227714285Y-66880952D01*
X227761904Y-66976190D01*
X227761904Y-67261904D01*
X227714285Y-67357142D01*
X227666666Y-67404761D01*
X227571428Y-67452380D01*
X227428571Y-67452380D01*
X228190476Y-66785714D02*
X228190476Y-67785714D01*
X228190476Y-66833333D02*
X228285714Y-66785714D01*
X228476190Y-66785714D01*
X228571428Y-66833333D01*
X228619047Y-66880952D01*
X228666666Y-66976190D01*
X228666666Y-67261904D01*
X228619047Y-67357142D01*
X228571428Y-67404761D01*
X228476190Y-67452380D01*
X228285714Y-67452380D01*
X228190476Y-67404761D01*
X229857142Y-67452380D02*
X229857142Y-66452380D01*
X230238095Y-66452380D01*
X230333333Y-66500000D01*
X230380952Y-66547619D01*
X230428571Y-66642857D01*
X230428571Y-66785714D01*
X230380952Y-66880952D01*
X230333333Y-66928571D01*
X230238095Y-66976190D01*
X229857142Y-66976190D01*
X231285714Y-67452380D02*
X231285714Y-66928571D01*
X231238095Y-66833333D01*
X231142857Y-66785714D01*
X230952380Y-66785714D01*
X230857142Y-66833333D01*
X231285714Y-67404761D02*
X231190476Y-67452380D01*
X230952380Y-67452380D01*
X230857142Y-67404761D01*
X230809523Y-67309523D01*
X230809523Y-67214285D01*
X230857142Y-67119047D01*
X230952380Y-67071428D01*
X231190476Y-67071428D01*
X231285714Y-67023809D01*
X231761904Y-66785714D02*
X231761904Y-67452380D01*
X231761904Y-66880952D02*
X231809523Y-66833333D01*
X231904761Y-66785714D01*
X232047619Y-66785714D01*
X232142857Y-66833333D01*
X232190476Y-66928571D01*
X232190476Y-67452380D01*
X233047619Y-67404761D02*
X232952380Y-67452380D01*
X232761904Y-67452380D01*
X232666666Y-67404761D01*
X232619047Y-67309523D01*
X232619047Y-66928571D01*
X232666666Y-66833333D01*
X232761904Y-66785714D01*
X232952380Y-66785714D01*
X233047619Y-66833333D01*
X233095238Y-66928571D01*
X233095238Y-67023809D01*
X232619047Y-67119047D01*
X233666666Y-67452380D02*
X233571428Y-67404761D01*
X233523809Y-67309523D01*
X233523809Y-66452380D01*
X235095238Y-67833333D02*
X235047619Y-67785714D01*
X234952380Y-67642857D01*
X234904761Y-67547619D01*
X234857142Y-67404761D01*
X234809523Y-67166666D01*
X234809523Y-66976190D01*
X234857142Y-66738095D01*
X234904761Y-66595238D01*
X234952380Y-66500000D01*
X235047619Y-66357142D01*
X235095238Y-66309523D01*
X235857142Y-67404761D02*
X235761904Y-67452380D01*
X235571428Y-67452380D01*
X235476190Y-67404761D01*
X235428571Y-67309523D01*
X235428571Y-66928571D01*
X235476190Y-66833333D01*
X235571428Y-66785714D01*
X235761904Y-66785714D01*
X235857142Y-66833333D01*
X235904761Y-66928571D01*
X235904761Y-67023809D01*
X235428571Y-67119047D01*
X236285714Y-67404761D02*
X236380952Y-67452380D01*
X236571428Y-67452380D01*
X236666666Y-67404761D01*
X236714285Y-67309523D01*
X236714285Y-67261904D01*
X236666666Y-67166666D01*
X236571428Y-67119047D01*
X236428571Y-67119047D01*
X236333333Y-67071428D01*
X236285714Y-66976190D01*
X236285714Y-66928571D01*
X236333333Y-66833333D01*
X236428571Y-66785714D01*
X236571428Y-66785714D01*
X236666666Y-66833333D01*
X237000000Y-66785714D02*
X237380952Y-66785714D01*
X237142857Y-66452380D02*
X237142857Y-67309523D01*
X237190476Y-67404761D01*
X237285714Y-67452380D01*
X237380952Y-67452380D01*
X237714285Y-67452380D02*
X237714285Y-66785714D01*
X237714285Y-66452380D02*
X237666666Y-66500000D01*
X237714285Y-66547619D01*
X237761904Y-66500000D01*
X237714285Y-66452380D01*
X237714285Y-66547619D01*
X238190476Y-67452380D02*
X238190476Y-66785714D01*
X238190476Y-66880952D02*
X238238095Y-66833333D01*
X238333333Y-66785714D01*
X238476190Y-66785714D01*
X238571428Y-66833333D01*
X238619047Y-66928571D01*
X238619047Y-67452380D01*
X238619047Y-66928571D02*
X238666666Y-66833333D01*
X238761904Y-66785714D01*
X238904761Y-66785714D01*
X239000000Y-66833333D01*
X239047619Y-66928571D01*
X239047619Y-67452380D01*
X239952380Y-67452380D02*
X239952380Y-66928571D01*
X239904761Y-66833333D01*
X239809523Y-66785714D01*
X239619047Y-66785714D01*
X239523809Y-66833333D01*
X239952380Y-67404761D02*
X239857142Y-67452380D01*
X239619047Y-67452380D01*
X239523809Y-67404761D01*
X239476190Y-67309523D01*
X239476190Y-67214285D01*
X239523809Y-67119047D01*
X239619047Y-67071428D01*
X239857142Y-67071428D01*
X239952380Y-67023809D01*
X240285714Y-66785714D02*
X240666666Y-66785714D01*
X240428571Y-66452380D02*
X240428571Y-67309523D01*
X240476190Y-67404761D01*
X240571428Y-67452380D01*
X240666666Y-67452380D01*
X241380952Y-67404761D02*
X241285714Y-67452380D01*
X241095238Y-67452380D01*
X240999999Y-67404761D01*
X240952380Y-67309523D01*
X240952380Y-66928571D01*
X240999999Y-66833333D01*
X241095238Y-66785714D01*
X241285714Y-66785714D01*
X241380952Y-66833333D01*
X241428571Y-66928571D01*
X241428571Y-67023809D01*
X240952380Y-67119047D01*
X241761904Y-67833333D02*
X241809523Y-67785714D01*
X241904761Y-67642857D01*
X241952380Y-67547619D01*
X241999999Y-67404761D01*
X242047619Y-67166666D01*
X242047619Y-66976190D01*
X241999999Y-66738095D01*
X241952380Y-66595238D01*
X241904761Y-66500000D01*
X241809523Y-66357142D01*
X241761904Y-66309523D01*
X203642857Y-58107142D02*
X203595238Y-58154761D01*
X203452380Y-58202380D01*
X203357142Y-58202380D01*
X203214285Y-58154761D01*
X203119047Y-58059523D01*
X203071428Y-57964285D01*
X203023809Y-57773809D01*
X203023809Y-57630952D01*
X203071428Y-57440476D01*
X203119047Y-57345238D01*
X203214285Y-57250000D01*
X203357142Y-57202380D01*
X203452380Y-57202380D01*
X203595238Y-57250000D01*
X203642857Y-57297619D01*
X204214285Y-58202380D02*
X204119047Y-58154761D01*
X204071428Y-58107142D01*
X204023809Y-58011904D01*
X204023809Y-57726190D01*
X204071428Y-57630952D01*
X204119047Y-57583333D01*
X204214285Y-57535714D01*
X204357142Y-57535714D01*
X204452380Y-57583333D01*
X204500000Y-57630952D01*
X204547619Y-57726190D01*
X204547619Y-58011904D01*
X204500000Y-58107142D01*
X204452380Y-58154761D01*
X204357142Y-58202380D01*
X204214285Y-58202380D01*
X204880952Y-57535714D02*
X205119047Y-58202380D01*
X205357142Y-57535714D01*
X206119047Y-58154761D02*
X206023809Y-58202380D01*
X205833333Y-58202380D01*
X205738095Y-58154761D01*
X205690476Y-58059523D01*
X205690476Y-57678571D01*
X205738095Y-57583333D01*
X205833333Y-57535714D01*
X206023809Y-57535714D01*
X206119047Y-57583333D01*
X206166666Y-57678571D01*
X206166666Y-57773809D01*
X205690476Y-57869047D01*
X206595238Y-58202380D02*
X206595238Y-57535714D01*
X206595238Y-57726190D02*
X206642857Y-57630952D01*
X206690476Y-57583333D01*
X206785714Y-57535714D01*
X206880952Y-57535714D01*
X207595238Y-58154761D02*
X207500000Y-58202380D01*
X207309523Y-58202380D01*
X207214285Y-58154761D01*
X207166666Y-58059523D01*
X207166666Y-57678571D01*
X207214285Y-57583333D01*
X207309523Y-57535714D01*
X207500000Y-57535714D01*
X207595238Y-57583333D01*
X207642857Y-57678571D01*
X207642857Y-57773809D01*
X207166666Y-57869047D01*
X208500000Y-58202380D02*
X208500000Y-57202380D01*
X208500000Y-58154761D02*
X208404761Y-58202380D01*
X208214285Y-58202380D01*
X208119047Y-58154761D01*
X208071428Y-58107142D01*
X208023809Y-58011904D01*
X208023809Y-57726190D01*
X208071428Y-57630952D01*
X208119047Y-57583333D01*
X208214285Y-57535714D01*
X208404761Y-57535714D01*
X208500000Y-57583333D01*
X209738095Y-58202380D02*
X209738095Y-57202380D01*
X209738095Y-57583333D02*
X209833333Y-57535714D01*
X210023809Y-57535714D01*
X210119047Y-57583333D01*
X210166666Y-57630952D01*
X210214285Y-57726190D01*
X210214285Y-58011904D01*
X210166666Y-58107142D01*
X210119047Y-58154761D01*
X210023809Y-58202380D01*
X209833333Y-58202380D01*
X209738095Y-58154761D01*
X210547619Y-57535714D02*
X210785714Y-58202380D01*
X211023809Y-57535714D02*
X210785714Y-58202380D01*
X210690476Y-58440476D01*
X210642857Y-58488095D01*
X210547619Y-58535714D01*
X212547619Y-58154761D02*
X212452380Y-58202380D01*
X212261904Y-58202380D01*
X212166666Y-58154761D01*
X212119047Y-58059523D01*
X212119047Y-57678571D01*
X212166666Y-57583333D01*
X212261904Y-57535714D01*
X212452380Y-57535714D01*
X212547619Y-57583333D01*
X212595238Y-57678571D01*
X212595238Y-57773809D01*
X212119047Y-57869047D01*
X212928571Y-58202380D02*
X213452380Y-57535714D01*
X212928571Y-57535714D02*
X213452380Y-58202380D01*
X213690476Y-57535714D02*
X214071428Y-57535714D01*
X213833333Y-57202380D02*
X213833333Y-58059523D01*
X213880952Y-58154761D01*
X213976190Y-58202380D01*
X214071428Y-58202380D01*
X214404761Y-58202380D02*
X214404761Y-57535714D01*
X214404761Y-57726190D02*
X214452380Y-57630952D01*
X214500000Y-57583333D01*
X214595238Y-57535714D01*
X214690476Y-57535714D01*
X215452380Y-57535714D02*
X215452380Y-58202380D01*
X215023809Y-57535714D02*
X215023809Y-58059523D01*
X215071428Y-58154761D01*
X215166666Y-58202380D01*
X215309523Y-58202380D01*
X215404761Y-58154761D01*
X215452380Y-58107142D01*
X215880952Y-58154761D02*
X215976190Y-58202380D01*
X216166666Y-58202380D01*
X216261904Y-58154761D01*
X216309523Y-58059523D01*
X216309523Y-58011904D01*
X216261904Y-57916666D01*
X216166666Y-57869047D01*
X216023809Y-57869047D01*
X215928571Y-57821428D01*
X215880952Y-57726190D01*
X215880952Y-57678571D01*
X215928571Y-57583333D01*
X216023809Y-57535714D01*
X216166666Y-57535714D01*
X216261904Y-57583333D01*
X216738095Y-58202380D02*
X216738095Y-57535714D01*
X216738095Y-57202380D02*
X216690476Y-57250000D01*
X216738095Y-57297619D01*
X216785714Y-57250000D01*
X216738095Y-57202380D01*
X216738095Y-57297619D01*
X217357142Y-58202380D02*
X217261904Y-58154761D01*
X217214285Y-58107142D01*
X217166666Y-58011904D01*
X217166666Y-57726190D01*
X217214285Y-57630952D01*
X217261904Y-57583333D01*
X217357142Y-57535714D01*
X217500000Y-57535714D01*
X217595238Y-57583333D01*
X217642857Y-57630952D01*
X217690476Y-57726190D01*
X217690476Y-58011904D01*
X217642857Y-58107142D01*
X217595238Y-58154761D01*
X217500000Y-58202380D01*
X217357142Y-58202380D01*
X218119047Y-57535714D02*
X218119047Y-58202380D01*
X218119047Y-57630952D02*
X218166666Y-57583333D01*
X218261904Y-57535714D01*
X218404761Y-57535714D01*
X218500000Y-57583333D01*
X218547619Y-57678571D01*
X218547619Y-58202380D01*
X219738095Y-58154761D02*
X219833333Y-58202380D01*
X220023809Y-58202380D01*
X220119047Y-58154761D01*
X220166666Y-58059523D01*
X220166666Y-58011904D01*
X220119047Y-57916666D01*
X220023809Y-57869047D01*
X219880952Y-57869047D01*
X219785714Y-57821428D01*
X219738095Y-57726190D01*
X219738095Y-57678571D01*
X219785714Y-57583333D01*
X219880952Y-57535714D01*
X220023809Y-57535714D01*
X220119047Y-57583333D01*
X220738095Y-58202380D02*
X220642857Y-58154761D01*
X220595238Y-58059523D01*
X220595238Y-57202380D01*
X221261904Y-58202380D02*
X221166666Y-58154761D01*
X221119047Y-58107142D01*
X221071428Y-58011904D01*
X221071428Y-57726190D01*
X221119047Y-57630952D01*
X221166666Y-57583333D01*
X221261904Y-57535714D01*
X221404761Y-57535714D01*
X221500000Y-57583333D01*
X221547619Y-57630952D01*
X221595238Y-57726190D01*
X221595238Y-58011904D01*
X221547619Y-58107142D01*
X221500000Y-58154761D01*
X221404761Y-58202380D01*
X221261904Y-58202380D01*
X221880952Y-57535714D02*
X222261904Y-57535714D01*
X222023809Y-57202380D02*
X222023809Y-58059523D01*
X222071428Y-58154761D01*
X222166666Y-58202380D01*
X222261904Y-58202380D01*
X222547619Y-58154761D02*
X222642857Y-58202380D01*
X222833333Y-58202380D01*
X222928571Y-58154761D01*
X222976190Y-58059523D01*
X222976190Y-58011904D01*
X222928571Y-57916666D01*
X222833333Y-57869047D01*
X222690476Y-57869047D01*
X222595238Y-57821428D01*
X222547619Y-57726190D01*
X222547619Y-57678571D01*
X222595238Y-57583333D01*
X222690476Y-57535714D01*
X222833333Y-57535714D01*
X222928571Y-57583333D01*
X216419047Y-63273809D02*
X216466666Y-63178571D01*
X216514285Y-63130952D01*
X216609523Y-63083333D01*
X216657142Y-63083333D01*
X216752380Y-63130952D01*
X216800000Y-63178571D01*
X216847619Y-63273809D01*
X216847619Y-63464285D01*
X216800000Y-63559523D01*
X216752380Y-63607142D01*
X216657142Y-63654761D01*
X216609523Y-63654761D01*
X216514285Y-63607142D01*
X216466666Y-63559523D01*
X216419047Y-63464285D01*
X216419047Y-63273809D01*
X216371428Y-63178571D01*
X216323809Y-63130952D01*
X216228571Y-63083333D01*
X216038095Y-63083333D01*
X215942857Y-63130952D01*
X215895238Y-63178571D01*
X215847619Y-63273809D01*
X215847619Y-63464285D01*
X215895238Y-63559523D01*
X215942857Y-63607142D01*
X216038095Y-63654761D01*
X216228571Y-63654761D01*
X216323809Y-63607142D01*
X216371428Y-63559523D01*
X216419047Y-63464285D01*
X215942857Y-64083333D02*
X215895238Y-64130952D01*
X215847619Y-64083333D01*
X215895238Y-64035714D01*
X215942857Y-64083333D01*
X215847619Y-64083333D01*
X216847619Y-64750000D02*
X216847619Y-64845238D01*
X216800000Y-64940476D01*
X216752380Y-64988095D01*
X216657142Y-65035714D01*
X216466666Y-65083333D01*
X216228571Y-65083333D01*
X216038095Y-65035714D01*
X215942857Y-64988095D01*
X215895238Y-64940476D01*
X215847619Y-64845238D01*
X215847619Y-64750000D01*
X215895238Y-64654761D01*
X215942857Y-64607142D01*
X216038095Y-64559523D01*
X216228571Y-64511904D01*
X216466666Y-64511904D01*
X216657142Y-64559523D01*
X216752380Y-64607142D01*
X216800000Y-64654761D01*
X216847619Y-64750000D01*
X216847619Y-65702380D02*
X216847619Y-65797619D01*
X216800000Y-65892857D01*
X216752380Y-65940476D01*
X216657142Y-65988095D01*
X216466666Y-66035714D01*
X216228571Y-66035714D01*
X216038095Y-65988095D01*
X215942857Y-65940476D01*
X215895238Y-65892857D01*
X215847619Y-65797619D01*
X215847619Y-65702380D01*
X215895238Y-65607142D01*
X215942857Y-65559523D01*
X216038095Y-65511904D01*
X216228571Y-65464285D01*
X216466666Y-65464285D01*
X216657142Y-65511904D01*
X216752380Y-65559523D01*
X216800000Y-65607142D01*
X216847619Y-65702380D01*
X216847619Y-66654761D02*
X216847619Y-66750000D01*
X216800000Y-66845238D01*
X216752380Y-66892857D01*
X216657142Y-66940476D01*
X216466666Y-66988095D01*
X216228571Y-66988095D01*
X216038095Y-66940476D01*
X215942857Y-66892857D01*
X215895238Y-66845238D01*
X215847619Y-66750000D01*
X215847619Y-66654761D01*
X215895238Y-66559523D01*
X215942857Y-66511904D01*
X216038095Y-66464285D01*
X216228571Y-66416666D01*
X216466666Y-66416666D01*
X216657142Y-66464285D01*
X216752380Y-66511904D01*
X216800000Y-66559523D01*
X216847619Y-66654761D01*
X215847619Y-68178571D02*
X216514285Y-68178571D01*
X216419047Y-68178571D02*
X216466666Y-68226190D01*
X216514285Y-68321428D01*
X216514285Y-68464285D01*
X216466666Y-68559523D01*
X216371428Y-68607142D01*
X215847619Y-68607142D01*
X216371428Y-68607142D02*
X216466666Y-68654761D01*
X216514285Y-68750000D01*
X216514285Y-68892857D01*
X216466666Y-68988095D01*
X216371428Y-69035714D01*
X215847619Y-69035714D01*
X215847619Y-69511904D02*
X216514285Y-69511904D01*
X216419047Y-69511904D02*
X216466666Y-69559523D01*
X216514285Y-69654761D01*
X216514285Y-69797619D01*
X216466666Y-69892857D01*
X216371428Y-69940476D01*
X215847619Y-69940476D01*
X216371428Y-69940476D02*
X216466666Y-69988095D01*
X216514285Y-70083333D01*
X216514285Y-70226190D01*
X216466666Y-70321428D01*
X216371428Y-70369047D01*
X215847619Y-70369047D01*
X215000000Y-62750000D02*
X215000000Y-70750000D01*
X209500000Y-62750000D02*
X215586421Y-62750000D01*
X209500000Y-70750000D02*
X215586421Y-70750000D01*
X215000000Y-70750000D02*
X214413579Y-69623496D01*
X215000000Y-70750000D02*
X215586421Y-69623496D01*
X215000000Y-62750000D02*
X214413579Y-63876504D01*
X215000000Y-62750000D02*
X215586421Y-63876504D01*
X213097619Y-60535714D02*
X213097619Y-61154761D01*
X212716666Y-60821428D01*
X212716666Y-60964285D01*
X212669047Y-61059523D01*
X212621428Y-61107142D01*
X212526190Y-61154761D01*
X212288095Y-61154761D01*
X212192857Y-61107142D01*
X212145238Y-61059523D01*
X212097619Y-60964285D01*
X212097619Y-60678571D01*
X212145238Y-60583333D01*
X212192857Y-60535714D01*
X212192857Y-61583333D02*
X212145238Y-61630952D01*
X212097619Y-61583333D01*
X212145238Y-61535714D01*
X212192857Y-61583333D01*
X212097619Y-61583333D01*
X213097619Y-62250000D02*
X213097619Y-62345238D01*
X213050000Y-62440476D01*
X213002380Y-62488095D01*
X212907142Y-62535714D01*
X212716666Y-62583333D01*
X212478571Y-62583333D01*
X212288095Y-62535714D01*
X212192857Y-62488095D01*
X212145238Y-62440476D01*
X212097619Y-62345238D01*
X212097619Y-62250000D01*
X212145238Y-62154761D01*
X212192857Y-62107142D01*
X212288095Y-62059523D01*
X212478571Y-62011904D01*
X212716666Y-62011904D01*
X212907142Y-62059523D01*
X213002380Y-62107142D01*
X213050000Y-62154761D01*
X213097619Y-62250000D01*
X213097619Y-63202380D02*
X213097619Y-63297619D01*
X213050000Y-63392857D01*
X213002380Y-63440476D01*
X212907142Y-63488095D01*
X212716666Y-63535714D01*
X212478571Y-63535714D01*
X212288095Y-63488095D01*
X212192857Y-63440476D01*
X212145238Y-63392857D01*
X212097619Y-63297619D01*
X212097619Y-63202380D01*
X212145238Y-63107142D01*
X212192857Y-63059523D01*
X212288095Y-63011904D01*
X212478571Y-62964285D01*
X212716666Y-62964285D01*
X212907142Y-63011904D01*
X213002380Y-63059523D01*
X213050000Y-63107142D01*
X213097619Y-63202380D01*
X213097619Y-64154761D02*
X213097619Y-64250000D01*
X213050000Y-64345238D01*
X213002380Y-64392857D01*
X212907142Y-64440476D01*
X212716666Y-64488095D01*
X212478571Y-64488095D01*
X212288095Y-64440476D01*
X212192857Y-64392857D01*
X212145238Y-64345238D01*
X212097619Y-64250000D01*
X212097619Y-64154761D01*
X212145238Y-64059523D01*
X212192857Y-64011904D01*
X212288095Y-63964285D01*
X212478571Y-63916666D01*
X212716666Y-63916666D01*
X212907142Y-63964285D01*
X213002380Y-64011904D01*
X213050000Y-64059523D01*
X213097619Y-64154761D01*
X212097619Y-65678571D02*
X212764285Y-65678571D01*
X212669047Y-65678571D02*
X212716666Y-65726190D01*
X212764285Y-65821428D01*
X212764285Y-65964285D01*
X212716666Y-66059523D01*
X212621428Y-66107142D01*
X212097619Y-66107142D01*
X212621428Y-66107142D02*
X212716666Y-66154761D01*
X212764285Y-66250000D01*
X212764285Y-66392857D01*
X212716666Y-66488095D01*
X212621428Y-66535714D01*
X212097619Y-66535714D01*
X212097619Y-67011904D02*
X212764285Y-67011904D01*
X212669047Y-67011904D02*
X212716666Y-67059523D01*
X212764285Y-67154761D01*
X212764285Y-67297619D01*
X212716666Y-67392857D01*
X212621428Y-67440476D01*
X212097619Y-67440476D01*
X212621428Y-67440476D02*
X212716666Y-67488095D01*
X212764285Y-67583333D01*
X212764285Y-67726190D01*
X212716666Y-67821428D01*
X212621428Y-67869047D01*
X212097619Y-67869047D01*
X211250000Y-62750000D02*
X211250000Y-65750000D01*
X209500000Y-62750000D02*
X211836421Y-62750000D01*
X209500000Y-65750000D02*
X211836421Y-65750000D01*
X211250000Y-65750000D02*
X210663579Y-64623496D01*
X211250000Y-65750000D02*
X211836421Y-64623496D01*
X211250000Y-62750000D02*
X210663579Y-63876504D01*
X211250000Y-62750000D02*
X211836421Y-63876504D01*
X90000000Y-70750000D02*
X209500000Y-70750000D01*
X145702380Y-144252380D02*
X145130952Y-144252380D01*
X145416666Y-144252380D02*
X145416666Y-143252380D01*
X145321428Y-143395238D01*
X145226190Y-143490476D01*
X145130952Y-143538095D01*
X146654761Y-144252380D02*
X146083333Y-144252380D01*
X146369047Y-144252380D02*
X146369047Y-143252380D01*
X146273809Y-143395238D01*
X146178571Y-143490476D01*
X146083333Y-143538095D01*
X147130952Y-144252380D02*
X147321428Y-144252380D01*
X147416666Y-144204761D01*
X147464285Y-144157142D01*
X147559523Y-144014285D01*
X147607142Y-143823809D01*
X147607142Y-143442857D01*
X147559523Y-143347619D01*
X147511904Y-143300000D01*
X147416666Y-143252380D01*
X147226190Y-143252380D01*
X147130952Y-143300000D01*
X147083333Y-143347619D01*
X147035714Y-143442857D01*
X147035714Y-143680952D01*
X147083333Y-143776190D01*
X147130952Y-143823809D01*
X147226190Y-143871428D01*
X147416666Y-143871428D01*
X147511904Y-143823809D01*
X147559523Y-143776190D01*
X147607142Y-143680952D01*
X148035714Y-144157142D02*
X148083333Y-144204761D01*
X148035714Y-144252380D01*
X147988095Y-144204761D01*
X148035714Y-144157142D01*
X148035714Y-144252380D01*
X148988095Y-143252380D02*
X148511904Y-143252380D01*
X148464285Y-143728571D01*
X148511904Y-143680952D01*
X148607142Y-143633333D01*
X148845238Y-143633333D01*
X148940476Y-143680952D01*
X148988095Y-143728571D01*
X149035714Y-143823809D01*
X149035714Y-144061904D01*
X148988095Y-144157142D01*
X148940476Y-144204761D01*
X148845238Y-144252380D01*
X148607142Y-144252380D01*
X148511904Y-144204761D01*
X148464285Y-144157142D01*
X149654761Y-143252380D02*
X149750000Y-143252380D01*
X149845238Y-143300000D01*
X149892857Y-143347619D01*
X149940476Y-143442857D01*
X149988095Y-143633333D01*
X149988095Y-143871428D01*
X149940476Y-144061904D01*
X149892857Y-144157142D01*
X149845238Y-144204761D01*
X149750000Y-144252380D01*
X149654761Y-144252380D01*
X149559523Y-144204761D01*
X149511904Y-144157142D01*
X149464285Y-144061904D01*
X149416666Y-143871428D01*
X149416666Y-143633333D01*
X149464285Y-143442857D01*
X149511904Y-143347619D01*
X149559523Y-143300000D01*
X149654761Y-143252380D01*
X150607142Y-143252380D02*
X150702380Y-143252380D01*
X150797619Y-143300000D01*
X150845238Y-143347619D01*
X150892857Y-143442857D01*
X150940476Y-143633333D01*
X150940476Y-143871428D01*
X150892857Y-144061904D01*
X150845238Y-144157142D01*
X150797619Y-144204761D01*
X150702380Y-144252380D01*
X150607142Y-144252380D01*
X150511904Y-144204761D01*
X150464285Y-144157142D01*
X150416666Y-144061904D01*
X150369047Y-143871428D01*
X150369047Y-143633333D01*
X150416666Y-143442857D01*
X150464285Y-143347619D01*
X150511904Y-143300000D01*
X150607142Y-143252380D01*
X152130952Y-144252380D02*
X152130952Y-143585714D01*
X152130952Y-143680952D02*
X152178571Y-143633333D01*
X152273809Y-143585714D01*
X152416666Y-143585714D01*
X152511904Y-143633333D01*
X152559523Y-143728571D01*
X152559523Y-144252380D01*
X152559523Y-143728571D02*
X152607142Y-143633333D01*
X152702380Y-143585714D01*
X152845238Y-143585714D01*
X152940476Y-143633333D01*
X152988095Y-143728571D01*
X152988095Y-144252380D01*
X153464285Y-144252380D02*
X153464285Y-143585714D01*
X153464285Y-143680952D02*
X153511904Y-143633333D01*
X153607142Y-143585714D01*
X153750000Y-143585714D01*
X153845238Y-143633333D01*
X153892857Y-143728571D01*
X153892857Y-144252380D01*
X153892857Y-143728571D02*
X153940476Y-143633333D01*
X154035714Y-143585714D01*
X154178571Y-143585714D01*
X154273809Y-143633333D01*
X154321428Y-143728571D01*
X154321428Y-144252380D01*
X90000000Y-142500000D02*
X209500000Y-142500000D01*
X90000000Y-137250000D02*
X90000000Y-143086421D01*
X209500000Y-137250000D02*
X209500000Y-143086421D01*
X209500000Y-142500000D02*
X208373496Y-143086421D01*
X209500000Y-142500000D02*
X208373496Y-141913579D01*
X90000000Y-142500000D02*
X91126504Y-143086421D01*
X90000000Y-142500000D02*
X91126504Y-141913579D01*
X84247620Y-77184523D02*
X84247620Y-77803571D01*
X83866667Y-77470238D01*
X83866667Y-77613095D01*
X83819048Y-77708333D01*
X83771429Y-77755952D01*
X83676191Y-77803571D01*
X83438096Y-77803571D01*
X83342858Y-77755952D01*
X83295239Y-77708333D01*
X83247620Y-77613095D01*
X83247620Y-77327380D01*
X83295239Y-77232142D01*
X83342858Y-77184523D01*
X84247620Y-78136904D02*
X84247620Y-78803571D01*
X83247620Y-78375000D01*
X83342858Y-79184523D02*
X83295239Y-79232142D01*
X83247620Y-79184523D01*
X83295239Y-79136904D01*
X83342858Y-79184523D01*
X83247620Y-79184523D01*
X84152381Y-79613095D02*
X84200001Y-79660714D01*
X84247620Y-79755952D01*
X84247620Y-79994047D01*
X84200001Y-80089285D01*
X84152381Y-80136904D01*
X84057143Y-80184523D01*
X83961905Y-80184523D01*
X83819048Y-80136904D01*
X83247620Y-79565476D01*
X83247620Y-80184523D01*
X84247620Y-81089285D02*
X84247620Y-80613095D01*
X83771429Y-80565476D01*
X83819048Y-80613095D01*
X83866667Y-80708333D01*
X83866667Y-80946428D01*
X83819048Y-81041666D01*
X83771429Y-81089285D01*
X83676191Y-81136904D01*
X83438096Y-81136904D01*
X83342858Y-81089285D01*
X83295239Y-81041666D01*
X83247620Y-80946428D01*
X83247620Y-80708333D01*
X83295239Y-80613095D01*
X83342858Y-80565476D01*
X84247620Y-81755952D02*
X84247620Y-81851190D01*
X84200001Y-81946428D01*
X84152381Y-81994047D01*
X84057143Y-82041666D01*
X83866667Y-82089285D01*
X83628572Y-82089285D01*
X83438096Y-82041666D01*
X83342858Y-81994047D01*
X83295239Y-81946428D01*
X83247620Y-81851190D01*
X83247620Y-81755952D01*
X83295239Y-81660714D01*
X83342858Y-81613095D01*
X83438096Y-81565476D01*
X83628572Y-81517857D01*
X83866667Y-81517857D01*
X84057143Y-81565476D01*
X84152381Y-81613095D01*
X84200001Y-81660714D01*
X84247620Y-81755952D01*
X83247620Y-83279761D02*
X83914286Y-83279761D01*
X83819048Y-83279761D02*
X83866667Y-83327380D01*
X83914286Y-83422619D01*
X83914286Y-83565476D01*
X83866667Y-83660714D01*
X83771429Y-83708333D01*
X83247620Y-83708333D01*
X83771429Y-83708333D02*
X83866667Y-83755952D01*
X83914286Y-83851190D01*
X83914286Y-83994047D01*
X83866667Y-84089285D01*
X83771429Y-84136904D01*
X83247620Y-84136904D01*
X83247620Y-84613095D02*
X83914286Y-84613095D01*
X83819048Y-84613095D02*
X83866667Y-84660714D01*
X83914286Y-84755952D01*
X83914286Y-84898809D01*
X83866667Y-84994047D01*
X83771429Y-85041666D01*
X83247620Y-85041666D01*
X83771429Y-85041666D02*
X83866667Y-85089285D01*
X83914286Y-85184523D01*
X83914286Y-85327380D01*
X83866667Y-85422619D01*
X83771429Y-85470238D01*
X83247620Y-85470238D01*
X85000001Y-62750000D02*
X85000001Y-100000000D01*
X90000000Y-62750000D02*
X84413580Y-62750000D01*
X90000000Y-100000000D02*
X84413580Y-100000000D01*
X85000001Y-100000000D02*
X84413580Y-98873496D01*
X85000001Y-100000000D02*
X85586422Y-98873496D01*
X85000001Y-62750000D02*
X84413580Y-63876504D01*
X85000001Y-62750000D02*
X85586422Y-63876504D01*
X84247620Y-114434523D02*
X84247620Y-115053571D01*
X83866667Y-114720238D01*
X83866667Y-114863095D01*
X83819048Y-114958333D01*
X83771429Y-115005952D01*
X83676191Y-115053571D01*
X83438096Y-115053571D01*
X83342858Y-115005952D01*
X83295239Y-114958333D01*
X83247620Y-114863095D01*
X83247620Y-114577380D01*
X83295239Y-114482142D01*
X83342858Y-114434523D01*
X84247620Y-115386904D02*
X84247620Y-116053571D01*
X83247620Y-115625000D01*
X83342858Y-116434523D02*
X83295239Y-116482142D01*
X83247620Y-116434523D01*
X83295239Y-116386904D01*
X83342858Y-116434523D01*
X83247620Y-116434523D01*
X84152381Y-116863095D02*
X84200001Y-116910714D01*
X84247620Y-117005952D01*
X84247620Y-117244047D01*
X84200001Y-117339285D01*
X84152381Y-117386904D01*
X84057143Y-117434523D01*
X83961905Y-117434523D01*
X83819048Y-117386904D01*
X83247620Y-116815476D01*
X83247620Y-117434523D01*
X84247620Y-118339285D02*
X84247620Y-117863095D01*
X83771429Y-117815476D01*
X83819048Y-117863095D01*
X83866667Y-117958333D01*
X83866667Y-118196428D01*
X83819048Y-118291666D01*
X83771429Y-118339285D01*
X83676191Y-118386904D01*
X83438096Y-118386904D01*
X83342858Y-118339285D01*
X83295239Y-118291666D01*
X83247620Y-118196428D01*
X83247620Y-117958333D01*
X83295239Y-117863095D01*
X83342858Y-117815476D01*
X84247620Y-119005952D02*
X84247620Y-119101190D01*
X84200001Y-119196428D01*
X84152381Y-119244047D01*
X84057143Y-119291666D01*
X83866667Y-119339285D01*
X83628572Y-119339285D01*
X83438096Y-119291666D01*
X83342858Y-119244047D01*
X83295239Y-119196428D01*
X83247620Y-119101190D01*
X83247620Y-119005952D01*
X83295239Y-118910714D01*
X83342858Y-118863095D01*
X83438096Y-118815476D01*
X83628572Y-118767857D01*
X83866667Y-118767857D01*
X84057143Y-118815476D01*
X84152381Y-118863095D01*
X84200001Y-118910714D01*
X84247620Y-119005952D01*
X83247620Y-120529761D02*
X83914286Y-120529761D01*
X83819048Y-120529761D02*
X83866667Y-120577380D01*
X83914286Y-120672619D01*
X83914286Y-120815476D01*
X83866667Y-120910714D01*
X83771429Y-120958333D01*
X83247620Y-120958333D01*
X83771429Y-120958333D02*
X83866667Y-121005952D01*
X83914286Y-121101190D01*
X83914286Y-121244047D01*
X83866667Y-121339285D01*
X83771429Y-121386904D01*
X83247620Y-121386904D01*
X83247620Y-121863095D02*
X83914286Y-121863095D01*
X83819048Y-121863095D02*
X83866667Y-121910714D01*
X83914286Y-122005952D01*
X83914286Y-122148809D01*
X83866667Y-122244047D01*
X83771429Y-122291666D01*
X83247620Y-122291666D01*
X83771429Y-122291666D02*
X83866667Y-122339285D01*
X83914286Y-122434523D01*
X83914286Y-122577380D01*
X83866667Y-122672619D01*
X83771429Y-122720238D01*
X83247620Y-122720238D01*
X85000001Y-100000000D02*
X85000001Y-137250000D01*
X90000000Y-100000000D02*
X84413580Y-100000000D01*
X90000000Y-137250000D02*
X84413580Y-137250000D01*
X85000001Y-137250000D02*
X84413580Y-136123496D01*
X85000001Y-137250000D02*
X85586422Y-136123496D01*
X85000001Y-100000000D02*
X84413580Y-101126504D01*
X85000001Y-100000000D02*
X85586422Y-101126504D01*
X90000000Y-100000000D02*
X220000000Y-100000000D01*
M02*
