G04 #@! TF.GenerationSoftware,KiCad,Pcbnew,(5.1.9)-1*
G04 #@! TF.CreationDate,2021-04-27T21:59:47-05:00*
G04 #@! TF.ProjectId,high-gain-diff-probe,68696768-2d67-4616-996e-2d646966662d,rev?*
G04 #@! TF.SameCoordinates,Original*
G04 #@! TF.FileFunction,Other,User*
%FSLAX46Y46*%
G04 Gerber Fmt 4.6, Leading zero omitted, Abs format (unit mm)*
G04 Created by KiCad (PCBNEW (5.1.9)-1) date 2021-04-27 21:59:47*
%MOMM*%
%LPD*%
G01*
G04 APERTURE LIST*
%ADD10C,0.050000*%
%ADD11C,0.120000*%
G04 APERTURE END LIST*
D10*
X187000000Y-99520000D02*
X187000000Y-108680000D01*
X187000000Y-108680000D02*
X194400000Y-108680000D01*
X194400000Y-108680000D02*
X194400000Y-99520000D01*
X194400000Y-99520000D02*
X187000000Y-99520000D01*
X183670000Y-100950000D02*
X185130000Y-100950000D01*
X185130000Y-100950000D02*
X185130000Y-104250000D01*
X185130000Y-104250000D02*
X183670000Y-104250000D01*
X183670000Y-104250000D02*
X183670000Y-100950000D01*
X186450000Y-104470000D02*
X186450000Y-105930000D01*
X186450000Y-105930000D02*
X183150000Y-105930000D01*
X183150000Y-105930000D02*
X183150000Y-104470000D01*
X183150000Y-104470000D02*
X186450000Y-104470000D01*
X198130000Y-109250000D02*
X196670000Y-109250000D01*
X196670000Y-109250000D02*
X196670000Y-105950000D01*
X196670000Y-105950000D02*
X198130000Y-105950000D01*
X198130000Y-105950000D02*
X198130000Y-109250000D01*
X196930000Y-104750000D02*
X195470000Y-104750000D01*
X195470000Y-104750000D02*
X195470000Y-101450000D01*
X195470000Y-101450000D02*
X196930000Y-101450000D01*
X196930000Y-101450000D02*
X196930000Y-104750000D01*
X183150000Y-107630000D02*
X183150000Y-106170000D01*
X183150000Y-106170000D02*
X186450000Y-106170000D01*
X186450000Y-106170000D02*
X186450000Y-107630000D01*
X186450000Y-107630000D02*
X183150000Y-107630000D01*
X190250000Y-95570000D02*
X190250000Y-97030000D01*
X190250000Y-97030000D02*
X186950000Y-97030000D01*
X186950000Y-97030000D02*
X186950000Y-95570000D01*
X186950000Y-95570000D02*
X190250000Y-95570000D01*
X190250000Y-97470000D02*
X190250000Y-98930000D01*
X190250000Y-98930000D02*
X186950000Y-98930000D01*
X186950000Y-98930000D02*
X186950000Y-97470000D01*
X186950000Y-97470000D02*
X190250000Y-97470000D01*
X191050000Y-98930000D02*
X191050000Y-97470000D01*
X191050000Y-97470000D02*
X194350000Y-97470000D01*
X194350000Y-97470000D02*
X194350000Y-98930000D01*
X194350000Y-98930000D02*
X191050000Y-98930000D01*
D11*
X125400000Y-126800000D02*
X117400000Y-126800000D01*
X117400000Y-126800000D02*
X117400000Y-133800000D01*
X117400000Y-133800000D02*
X125400000Y-133800000D01*
X125400000Y-133800000D02*
X125400000Y-126800000D01*
X125400000Y-66200000D02*
X117400000Y-66200000D01*
X117400000Y-66200000D02*
X117400000Y-73200000D01*
X117400000Y-73200000D02*
X125400000Y-73200000D01*
X125400000Y-73200000D02*
X125400000Y-66200000D01*
D10*
X116600000Y-120750000D02*
X108750000Y-120750000D01*
X116600000Y-105100000D02*
X116600000Y-120750000D01*
X108750000Y-105100000D02*
X116600000Y-105100000D01*
X108750000Y-120750000D02*
X108750000Y-105100000D01*
X108600000Y-79250000D02*
X116450000Y-79250000D01*
X108600000Y-94900000D02*
X108600000Y-79250000D01*
X116450000Y-94900000D02*
X108600000Y-94900000D01*
X116450000Y-79250000D02*
X116450000Y-94900000D01*
X169250000Y-99200000D02*
X169250000Y-91350000D01*
X184900000Y-99200000D02*
X169250000Y-99200000D01*
X184900000Y-91350000D02*
X184900000Y-99200000D01*
X169250000Y-91350000D02*
X184900000Y-91350000D01*
X170500000Y-109150000D02*
X178350000Y-109150000D01*
X170500000Y-124800000D02*
X170500000Y-109150000D01*
X178350000Y-124800000D02*
X170500000Y-124800000D01*
X178350000Y-109150000D02*
X178350000Y-124800000D01*
X118000000Y-126100000D02*
X117000000Y-126100000D01*
X118000000Y-129100000D02*
X118000000Y-126100000D01*
X117000000Y-129100000D02*
X118000000Y-129100000D01*
X85000000Y-132880000D02*
X90000000Y-132880000D01*
X85000000Y-122320000D02*
X85000000Y-132880000D01*
X90000000Y-122320000D02*
X85000000Y-122320000D01*
X90000000Y-121350000D02*
X117000000Y-121350000D01*
X90000000Y-122320000D02*
X90000000Y-121350000D01*
X90000000Y-133850000D02*
X90000000Y-132880000D01*
X117000000Y-133850000D02*
X90000000Y-133850000D01*
X117000000Y-133850000D02*
X117000000Y-129100000D01*
X117000000Y-126100000D02*
X117000000Y-121350000D01*
X118000000Y-70900000D02*
X117000000Y-70900000D01*
X118000000Y-73900000D02*
X118000000Y-70900000D01*
X117000000Y-73900000D02*
X118000000Y-73900000D01*
X85000000Y-77680000D02*
X90000000Y-77680000D01*
X85000000Y-67120000D02*
X85000000Y-77680000D01*
X90000000Y-67120000D02*
X85000000Y-67120000D01*
X90000000Y-66150000D02*
X117000000Y-66150000D01*
X90000000Y-67120000D02*
X90000000Y-66150000D01*
X90000000Y-78650000D02*
X90000000Y-77680000D01*
X117000000Y-78650000D02*
X90000000Y-78650000D01*
X117000000Y-78650000D02*
X117000000Y-73900000D01*
X117000000Y-70900000D02*
X117000000Y-66150000D01*
X137800000Y-108150000D02*
X137800000Y-125650000D01*
X137800000Y-125650000D02*
X122800000Y-125650000D01*
X122800000Y-125650000D02*
X122800000Y-108150000D01*
X122800000Y-108150000D02*
X137800000Y-108150000D01*
X146500000Y-125650000D02*
X146500000Y-108150000D01*
X146500000Y-108150000D02*
X161500000Y-108150000D01*
X161500000Y-108150000D02*
X161500000Y-125650000D01*
X161500000Y-125650000D02*
X146500000Y-125650000D01*
X122800000Y-91850000D02*
X122800000Y-74350000D01*
X122800000Y-74350000D02*
X137800000Y-74350000D01*
X137800000Y-74350000D02*
X137800000Y-91850000D01*
X137800000Y-91850000D02*
X122800000Y-91850000D01*
X134150000Y-74250000D02*
X134150000Y-66550000D01*
X134150000Y-66550000D02*
X126450000Y-66550000D01*
X126450000Y-66550000D02*
X126450000Y-74250000D01*
X126450000Y-74250000D02*
X134150000Y-74250000D01*
X134150000Y-133450000D02*
X134150000Y-125750000D01*
X134150000Y-125750000D02*
X126450000Y-125750000D01*
X126450000Y-125750000D02*
X126450000Y-133450000D01*
X126450000Y-133450000D02*
X134150000Y-133450000D01*
X104250000Y-102530000D02*
X104250000Y-101070000D01*
X104250000Y-101070000D02*
X107550000Y-101070000D01*
X107550000Y-101070000D02*
X107550000Y-102530000D01*
X107550000Y-102530000D02*
X104250000Y-102530000D01*
X108260000Y-104700000D02*
X116910000Y-104700000D01*
X116910000Y-104700000D02*
X116910000Y-101100000D01*
X116910000Y-101100000D02*
X108260000Y-101100000D01*
X108260000Y-101100000D02*
X108260000Y-104700000D01*
X108260000Y-98900000D02*
X116910000Y-98900000D01*
X116910000Y-98900000D02*
X116910000Y-95300000D01*
X116910000Y-95300000D02*
X108260000Y-95300000D01*
X108260000Y-95300000D02*
X108260000Y-98900000D01*
X200350000Y-71450000D02*
X200350000Y-76150000D01*
X200350000Y-76150000D02*
X198050000Y-76150000D01*
X198050000Y-76150000D02*
X198050000Y-71450000D01*
X200350000Y-71450000D02*
X198050000Y-71450000D01*
X187800000Y-73400000D02*
X195200000Y-73400000D01*
X187800000Y-68000000D02*
X187800000Y-73400000D01*
X195200000Y-68000000D02*
X187800000Y-68000000D01*
X195200000Y-73400000D02*
X195200000Y-68000000D01*
X187775000Y-118265000D02*
X180375000Y-118265000D01*
X187775000Y-123665000D02*
X187775000Y-118265000D01*
X180375000Y-123665000D02*
X187775000Y-123665000D01*
X180375000Y-118265000D02*
X180375000Y-123665000D01*
X92750000Y-103250000D02*
X99250000Y-103250000D01*
X99250000Y-103250000D02*
X99250000Y-96800000D01*
X99250000Y-96800000D02*
X92750000Y-96800000D01*
X92750000Y-96800000D02*
X92750000Y-103250000D01*
X162150000Y-85050000D02*
X162150000Y-71750000D01*
X162150000Y-71750000D02*
X147750000Y-71750000D01*
X147750000Y-71750000D02*
X147750000Y-85050000D01*
X147750000Y-85050000D02*
X162150000Y-85050000D01*
X194950000Y-76150000D02*
X191650000Y-76150000D01*
X194950000Y-76150000D02*
X194950000Y-73650000D01*
X191650000Y-73650000D02*
X191650000Y-76150000D01*
X191650000Y-73650000D02*
X194950000Y-73650000D01*
X205450000Y-101250000D02*
X205450000Y-103750000D01*
X205450000Y-103750000D02*
X206600000Y-103750000D01*
X206600000Y-103750000D02*
X206600000Y-105850000D01*
X206600000Y-105850000D02*
X205450000Y-105850000D01*
X205450000Y-105850000D02*
X205450000Y-108350000D01*
X199500000Y-108350000D02*
X205450000Y-108350000D01*
X199500000Y-101250000D02*
X205450000Y-101250000D01*
X198350000Y-107200000D02*
X199500000Y-108350000D01*
X198350000Y-102400000D02*
X199500000Y-101250000D01*
X198350000Y-102400000D02*
X198350000Y-103750000D01*
X198350000Y-105850000D02*
X198350000Y-107200000D01*
X198350000Y-103750000D02*
X197200000Y-103750000D01*
X197200000Y-103750000D02*
X197200000Y-105850000D01*
X197200000Y-105850000D02*
X198350000Y-105850000D01*
X205450000Y-93450000D02*
X205450000Y-95950000D01*
X205450000Y-95950000D02*
X206600000Y-95950000D01*
X206600000Y-95950000D02*
X206600000Y-98050000D01*
X206600000Y-98050000D02*
X205450000Y-98050000D01*
X205450000Y-98050000D02*
X205450000Y-100550000D01*
X199500000Y-100550000D02*
X205450000Y-100550000D01*
X199500000Y-93450000D02*
X205450000Y-93450000D01*
X198350000Y-99400000D02*
X199500000Y-100550000D01*
X198350000Y-94600000D02*
X199500000Y-93450000D01*
X198350000Y-94600000D02*
X198350000Y-95950000D01*
X198350000Y-98050000D02*
X198350000Y-99400000D01*
X198350000Y-95950000D02*
X197200000Y-95950000D01*
X197200000Y-95950000D02*
X197200000Y-98050000D01*
X197200000Y-98050000D02*
X198350000Y-98050000D01*
X161500000Y-121400000D02*
X166850000Y-121400000D01*
X166850000Y-121400000D02*
X166850000Y-111300000D01*
X166850000Y-111300000D02*
X161500000Y-111300000D01*
X161500000Y-111300000D02*
X161500000Y-121400000D01*
X208150000Y-74750000D02*
X205650000Y-74750000D01*
X205650000Y-74750000D02*
X205650000Y-75900000D01*
X205650000Y-75900000D02*
X203550000Y-75900000D01*
X203550000Y-75900000D02*
X203550000Y-74750000D01*
X203550000Y-74750000D02*
X201050000Y-74750000D01*
X201050000Y-68800000D02*
X201050000Y-74750000D01*
X208150000Y-68800000D02*
X208150000Y-74750000D01*
X202200000Y-67650000D02*
X201050000Y-68800000D01*
X207000000Y-67650000D02*
X208150000Y-68800000D01*
X207000000Y-67650000D02*
X205650000Y-67650000D01*
X203550000Y-67650000D02*
X202200000Y-67650000D01*
X205650000Y-67650000D02*
X205650000Y-66500000D01*
X205650000Y-66500000D02*
X203550000Y-66500000D01*
X203550000Y-66500000D02*
X203550000Y-67650000D01*
X141000000Y-125600000D02*
X146350000Y-125600000D01*
X146350000Y-125600000D02*
X146350000Y-115500000D01*
X146350000Y-115500000D02*
X141000000Y-115500000D01*
X141000000Y-115500000D02*
X141000000Y-125600000D01*
X181100000Y-104900000D02*
X181100000Y-99550000D01*
X181100000Y-99550000D02*
X171000000Y-99550000D01*
X171000000Y-99550000D02*
X171000000Y-104900000D01*
X171000000Y-104900000D02*
X181100000Y-104900000D01*
X170830000Y-104250000D02*
X169370000Y-104250000D01*
X169370000Y-104250000D02*
X169370000Y-100950000D01*
X169370000Y-100950000D02*
X170830000Y-100950000D01*
X170830000Y-100950000D02*
X170830000Y-104250000D01*
X181270000Y-100950000D02*
X182730000Y-100950000D01*
X182730000Y-100950000D02*
X182730000Y-104250000D01*
X182730000Y-104250000D02*
X181270000Y-104250000D01*
X181270000Y-104250000D02*
X181270000Y-100950000D01*
X120050000Y-113150000D02*
X121950000Y-113150000D01*
X121950000Y-113150000D02*
X121950000Y-116850000D01*
X121950000Y-116850000D02*
X120050000Y-116850000D01*
X120050000Y-116850000D02*
X120050000Y-113150000D01*
X121950000Y-86850000D02*
X120050000Y-86850000D01*
X120050000Y-86850000D02*
X120050000Y-83150000D01*
X120050000Y-83150000D02*
X121950000Y-83150000D01*
X121950000Y-83150000D02*
X121950000Y-86850000D01*
X185150000Y-85050000D02*
X185150000Y-71750000D01*
X185150000Y-71750000D02*
X170750000Y-71750000D01*
X170750000Y-71750000D02*
X170750000Y-85050000D01*
X170750000Y-85050000D02*
X185150000Y-85050000D01*
X197730000Y-70837500D02*
X196270000Y-70837500D01*
X196270000Y-70837500D02*
X196270000Y-67537500D01*
X196270000Y-67537500D02*
X197730000Y-67537500D01*
X197730000Y-67537500D02*
X197730000Y-70837500D01*
X198170000Y-67550000D02*
X199630000Y-67550000D01*
X199630000Y-67550000D02*
X199630000Y-70850000D01*
X199630000Y-70850000D02*
X198170000Y-70850000D01*
X198170000Y-70850000D02*
X198170000Y-67550000D01*
X195900000Y-88500000D02*
X209900000Y-88500000D01*
X209900000Y-88500000D02*
X209900000Y-76500000D01*
X209900000Y-76500000D02*
X195900000Y-76500000D01*
X195900000Y-76500000D02*
X195900000Y-88500000D01*
X187775000Y-117665000D02*
X187775000Y-112265000D01*
X187775000Y-112265000D02*
X180375000Y-112265000D01*
X180375000Y-112265000D02*
X180375000Y-117665000D01*
X180375000Y-117665000D02*
X187775000Y-117665000D01*
X157700000Y-87400000D02*
X152300000Y-87400000D01*
X152300000Y-87400000D02*
X152300000Y-94800000D01*
X152300000Y-94800000D02*
X157700000Y-94800000D01*
X157700000Y-94800000D02*
X157700000Y-87400000D01*
X126310000Y-105060000D02*
X131660000Y-105060000D01*
X131660000Y-105060000D02*
X131660000Y-94960000D01*
X131660000Y-94960000D02*
X126310000Y-94960000D01*
X126310000Y-94960000D02*
X126310000Y-105060000D01*
X191030000Y-116850000D02*
X189570000Y-116850000D01*
X189570000Y-116850000D02*
X189570000Y-113550000D01*
X189570000Y-113550000D02*
X191030000Y-113550000D01*
X191030000Y-113550000D02*
X191030000Y-116850000D01*
X162450000Y-111030000D02*
X162450000Y-109570000D01*
X162450000Y-109570000D02*
X165750000Y-109570000D01*
X165750000Y-109570000D02*
X165750000Y-111030000D01*
X165750000Y-111030000D02*
X162450000Y-111030000D01*
X149250000Y-125770000D02*
X149250000Y-127230000D01*
X149250000Y-127230000D02*
X145950000Y-127230000D01*
X145950000Y-127230000D02*
X145950000Y-125770000D01*
X145950000Y-125770000D02*
X149250000Y-125770000D01*
X107550000Y-97470000D02*
X107550000Y-98930000D01*
X107550000Y-98930000D02*
X104250000Y-98930000D01*
X104250000Y-98930000D02*
X104250000Y-97470000D01*
X104250000Y-97470000D02*
X107550000Y-97470000D01*
X117380000Y-112550000D02*
X119620000Y-112550000D01*
X119620000Y-112550000D02*
X119620000Y-117450000D01*
X119620000Y-117450000D02*
X117380000Y-117450000D01*
X117380000Y-117450000D02*
X117380000Y-112550000D01*
X119620000Y-87450000D02*
X117380000Y-87450000D01*
X117380000Y-87450000D02*
X117380000Y-82550000D01*
X117380000Y-82550000D02*
X119620000Y-82550000D01*
X119620000Y-82550000D02*
X119620000Y-87450000D01*
X195850000Y-72150000D02*
X197750000Y-72150000D01*
X197750000Y-72150000D02*
X197750000Y-75850000D01*
X197750000Y-75850000D02*
X195850000Y-75850000D01*
X195850000Y-75850000D02*
X195850000Y-72150000D01*
X185700000Y-110570000D02*
X185700000Y-112030000D01*
X185700000Y-112030000D02*
X182400000Y-112030000D01*
X182400000Y-112030000D02*
X182400000Y-110570000D01*
X182400000Y-110570000D02*
X185700000Y-110570000D01*
X117250000Y-108150000D02*
X117250000Y-111850000D01*
X117250000Y-111850000D02*
X122550000Y-111850000D01*
X122550000Y-111850000D02*
X122550000Y-108150000D01*
X122550000Y-108150000D02*
X117250000Y-108150000D01*
X117250000Y-88150000D02*
X117250000Y-91850000D01*
X117250000Y-91850000D02*
X122550000Y-91850000D01*
X122550000Y-91850000D02*
X122550000Y-88150000D01*
X122550000Y-88150000D02*
X117250000Y-88150000D01*
X150700000Y-97300000D02*
X150700000Y-102700000D01*
X150700000Y-102700000D02*
X158100000Y-102700000D01*
X158100000Y-102700000D02*
X158100000Y-97300000D01*
X158100000Y-97300000D02*
X150700000Y-97300000D01*
X141250000Y-69530000D02*
X141250000Y-68070000D01*
X141250000Y-68070000D02*
X144550000Y-68070000D01*
X144550000Y-68070000D02*
X144550000Y-69530000D01*
X144550000Y-69530000D02*
X141250000Y-69530000D01*
X189062500Y-110230000D02*
X189062500Y-108770000D01*
X189062500Y-108770000D02*
X192362500Y-108770000D01*
X192362500Y-108770000D02*
X192362500Y-110230000D01*
X192362500Y-110230000D02*
X189062500Y-110230000D01*
X194870000Y-105950000D02*
X196330000Y-105950000D01*
X196330000Y-105950000D02*
X196330000Y-109250000D01*
X196330000Y-109250000D02*
X194870000Y-109250000D01*
X194870000Y-109250000D02*
X194870000Y-105950000D01*
X189570000Y-117100000D02*
X192730000Y-117100000D01*
X192730000Y-117100000D02*
X192730000Y-122000000D01*
X192730000Y-122000000D02*
X189570000Y-122000000D01*
X189570000Y-122000000D02*
X189570000Y-117100000D01*
X168270000Y-77650000D02*
X169730000Y-77650000D01*
X169730000Y-77650000D02*
X169730000Y-80950000D01*
X169730000Y-80950000D02*
X168270000Y-80950000D01*
X168270000Y-80950000D02*
X168270000Y-77650000D01*
X167830000Y-80950000D02*
X166370000Y-80950000D01*
X166370000Y-80950000D02*
X166370000Y-77650000D01*
X166370000Y-77650000D02*
X167830000Y-77650000D01*
X167830000Y-77650000D02*
X167830000Y-80950000D01*
X161862500Y-99270000D02*
X161862500Y-100730000D01*
X161862500Y-100730000D02*
X158562500Y-100730000D01*
X158562500Y-100730000D02*
X158562500Y-99270000D01*
X158562500Y-99270000D02*
X161862500Y-99270000D01*
X147900000Y-102270000D02*
X147900000Y-103730000D01*
X147900000Y-103730000D02*
X144600000Y-103730000D01*
X144600000Y-103730000D02*
X144600000Y-102270000D01*
X144600000Y-102270000D02*
X147900000Y-102270000D01*
X147900000Y-96270000D02*
X147900000Y-97730000D01*
X147900000Y-97730000D02*
X144600000Y-97730000D01*
X144600000Y-97730000D02*
X144600000Y-96270000D01*
X144600000Y-96270000D02*
X147900000Y-96270000D01*
X125900000Y-103770000D02*
X125900000Y-105230000D01*
X125900000Y-105230000D02*
X122600000Y-105230000D01*
X122600000Y-105230000D02*
X122600000Y-103770000D01*
X122600000Y-103770000D02*
X125900000Y-103770000D01*
X122600000Y-96230000D02*
X122600000Y-94770000D01*
X122600000Y-94770000D02*
X125900000Y-94770000D01*
X125900000Y-94770000D02*
X125900000Y-96230000D01*
X125900000Y-96230000D02*
X122600000Y-96230000D01*
X193600000Y-109650000D02*
X193600000Y-125350000D01*
X193600000Y-109650000D02*
X230100000Y-109650000D01*
X230100000Y-125350000D02*
X230100000Y-109650000D01*
X193600000Y-125350000D02*
X230100000Y-125350000D01*
X105900000Y-120850000D02*
X105900000Y-105150000D01*
X105900000Y-120850000D02*
X69400000Y-120850000D01*
X69400000Y-105150000D02*
X69400000Y-120850000D01*
X105900000Y-105150000D02*
X69400000Y-105150000D01*
X105900000Y-94850000D02*
X105900000Y-79150000D01*
X105900000Y-94850000D02*
X69400000Y-94850000D01*
X69400000Y-79150000D02*
X69400000Y-94850000D01*
X105900000Y-79150000D02*
X69400000Y-79150000D01*
X193050000Y-79750000D02*
X193050000Y-84450000D01*
X193050000Y-84450000D02*
X190750000Y-84450000D01*
X190750000Y-84450000D02*
X190750000Y-79750000D01*
X190750000Y-79750000D02*
X193050000Y-79750000D01*
X187750000Y-84450000D02*
X187750000Y-79750000D01*
X187750000Y-79750000D02*
X190050000Y-79750000D01*
X190050000Y-79750000D02*
X190050000Y-84450000D01*
X190050000Y-84450000D02*
X187750000Y-84450000D01*
X141000000Y-101700000D02*
X141000000Y-98300000D01*
X141000000Y-98300000D02*
X144500000Y-98300000D01*
X144500000Y-98300000D02*
X144500000Y-101700000D01*
X144500000Y-101700000D02*
X141000000Y-101700000D01*
X141000000Y-105700000D02*
X141000000Y-102300000D01*
X141000000Y-102300000D02*
X144500000Y-102300000D01*
X144500000Y-102300000D02*
X144500000Y-105700000D01*
X144500000Y-105700000D02*
X141000000Y-105700000D01*
X144500000Y-94300000D02*
X144500000Y-97700000D01*
X144500000Y-97700000D02*
X141000000Y-97700000D01*
X141000000Y-97700000D02*
X141000000Y-94300000D01*
X141000000Y-94300000D02*
X144500000Y-94300000D01*
X194350000Y-95570000D02*
X194350000Y-97030000D01*
X194350000Y-97030000D02*
X191050000Y-97030000D01*
X191050000Y-97030000D02*
X191050000Y-95570000D01*
X191050000Y-95570000D02*
X194350000Y-95570000D01*
X186830000Y-102050000D02*
X185370000Y-102050000D01*
X185370000Y-102050000D02*
X185370000Y-98750000D01*
X185370000Y-98750000D02*
X186830000Y-98750000D01*
X186830000Y-98750000D02*
X186830000Y-102050000D01*
X187030000Y-69750000D02*
X185570000Y-69750000D01*
X185570000Y-69750000D02*
X185570000Y-66450000D01*
X185570000Y-66450000D02*
X187030000Y-66450000D01*
X187030000Y-66450000D02*
X187030000Y-69750000D01*
X187030000Y-73650000D02*
X185570000Y-73650000D01*
X185570000Y-73650000D02*
X185570000Y-70350000D01*
X185570000Y-70350000D02*
X187030000Y-70350000D01*
X187030000Y-70350000D02*
X187030000Y-73650000D01*
X187750000Y-75130000D02*
X187750000Y-73670000D01*
X187750000Y-73670000D02*
X191050000Y-73670000D01*
X191050000Y-73670000D02*
X191050000Y-75130000D01*
X191050000Y-75130000D02*
X187750000Y-75130000D01*
X178670000Y-108450000D02*
X180130000Y-108450000D01*
X180130000Y-108450000D02*
X180130000Y-111750000D01*
X180130000Y-111750000D02*
X178670000Y-111750000D01*
X178670000Y-111750000D02*
X178670000Y-108450000D01*
X151475001Y-87230000D02*
X151475001Y-85770000D01*
X151475001Y-85770000D02*
X154775001Y-85770000D01*
X154775001Y-85770000D02*
X154775001Y-87230000D01*
X154775001Y-87230000D02*
X151475001Y-87230000D01*
X173770000Y-105450000D02*
X175230000Y-105450000D01*
X175230000Y-105450000D02*
X175230000Y-108750000D01*
X175230000Y-108750000D02*
X173770000Y-108750000D01*
X173770000Y-108750000D02*
X173770000Y-105450000D01*
X146270000Y-98350000D02*
X147730000Y-98350000D01*
X147730000Y-98350000D02*
X147730000Y-101650000D01*
X147730000Y-101650000D02*
X146270000Y-101650000D01*
X146270000Y-101650000D02*
X146270000Y-98350000D01*
X148070000Y-100350000D02*
X149530000Y-100350000D01*
X149530000Y-100350000D02*
X149530000Y-103650000D01*
X149530000Y-103650000D02*
X148070000Y-103650000D01*
X148070000Y-103650000D02*
X148070000Y-100350000D01*
X148070000Y-96350000D02*
X149530000Y-96350000D01*
X149530000Y-96350000D02*
X149530000Y-99650000D01*
X149530000Y-99650000D02*
X148070000Y-99650000D01*
X148070000Y-99650000D02*
X148070000Y-96350000D01*
X122770000Y-100100000D02*
X124230000Y-100100000D01*
X124230000Y-100100000D02*
X124230000Y-103400000D01*
X124230000Y-103400000D02*
X122770000Y-103400000D01*
X122770000Y-103400000D02*
X122770000Y-100100000D01*
X122770000Y-96600000D02*
X124230000Y-96600000D01*
X124230000Y-96600000D02*
X124230000Y-99900000D01*
X124230000Y-99900000D02*
X122770000Y-99900000D01*
X122770000Y-99900000D02*
X122770000Y-96600000D01*
X118650000Y-105400000D02*
X122350000Y-105400000D01*
X122350000Y-105400000D02*
X122350000Y-100100000D01*
X122350000Y-100100000D02*
X118650000Y-100100000D01*
X118650000Y-100100000D02*
X118650000Y-105400000D01*
X122350000Y-94600000D02*
X118650000Y-94600000D01*
X118650000Y-94600000D02*
X118650000Y-99900000D01*
X118650000Y-99900000D02*
X122350000Y-99900000D01*
X122350000Y-99900000D02*
X122350000Y-94600000D01*
M02*
