%FSLAX45Y45*%
G04 Gerber Fmt 4.5, Leading zero omitted, Abs format (unit mm)*
G04 Created by KiCad (PCBNEW (5.1.9)-1) date 2021-04-27 00:06:22*
%MOMM*%
%LPD*%
G01*
G04 APERTURE LIST*
%TA.AperFunction,Profile*%
%ADD10C,0.050000*%
%TD*%
%ADD11C,0.200000*%
%ADD12C,0.300000*%
G04 APERTURE END LIST*
D10*
X20950000Y-13725000D02*
X9000000Y-13725000D01*
X20950000Y-6275000D02*
X20950000Y-13725000D01*
X9000000Y-6275000D02*
X20950000Y-6275000D01*
X9000000Y-13725000D02*
X9000000Y-6275000D01*
D11*
X20560000Y-8170000D02*
X20720000Y-8330000D01*
X20720000Y-8170000D02*
X20560000Y-8330000D01*
X15500000Y-7400000D02*
G75*
G03*
X15500000Y-7400000I-100000J0D01*
G01*
X15500000Y-8280000D02*
G75*
G03*
X15500000Y-8280000I-100000J0D01*
G01*
X17800000Y-7400000D02*
G75*
G03*
X17800000Y-7400000I-100000J0D01*
G01*
X17800000Y-8280000D02*
G75*
G03*
X17800000Y-8280000I-100000J0D01*
G01*
D12*
X9283928Y-14193214D02*
X9283928Y-13893214D01*
X9355357Y-13893214D01*
X9398214Y-13907500D01*
X9426786Y-13936071D01*
X9441071Y-13964643D01*
X9455357Y-14021786D01*
X9455357Y-14064643D01*
X9441071Y-14121786D01*
X9426786Y-14150357D01*
X9398214Y-14178929D01*
X9355357Y-14193214D01*
X9283928Y-14193214D01*
X9583928Y-14193214D02*
X9583928Y-13993214D01*
X9583928Y-14050357D02*
X9598214Y-14021786D01*
X9612500Y-14007500D01*
X9641071Y-13993214D01*
X9669643Y-13993214D01*
X9769643Y-14193214D02*
X9769643Y-13993214D01*
X9769643Y-13893214D02*
X9755357Y-13907500D01*
X9769643Y-13921786D01*
X9783928Y-13907500D01*
X9769643Y-13893214D01*
X9769643Y-13921786D01*
X9955357Y-14193214D02*
X9926786Y-14178929D01*
X9912500Y-14150357D01*
X9912500Y-13893214D01*
X10112500Y-14193214D02*
X10083928Y-14178929D01*
X10069643Y-14150357D01*
X10069643Y-13893214D01*
X10455357Y-14193214D02*
X10455357Y-13893214D01*
X10555357Y-14107500D01*
X10655357Y-13893214D01*
X10655357Y-14193214D01*
X10926786Y-14193214D02*
X10926786Y-14036071D01*
X10912500Y-14007500D01*
X10883928Y-13993214D01*
X10826786Y-13993214D01*
X10798214Y-14007500D01*
X10926786Y-14178929D02*
X10898214Y-14193214D01*
X10826786Y-14193214D01*
X10798214Y-14178929D01*
X10783928Y-14150357D01*
X10783928Y-14121786D01*
X10798214Y-14093214D01*
X10826786Y-14078929D01*
X10898214Y-14078929D01*
X10926786Y-14064643D01*
X11069643Y-13993214D02*
X11069643Y-14293214D01*
X11069643Y-14007500D02*
X11098214Y-13993214D01*
X11155357Y-13993214D01*
X11183928Y-14007500D01*
X11198214Y-14021786D01*
X11212500Y-14050357D01*
X11212500Y-14136071D01*
X11198214Y-14164643D01*
X11183928Y-14178929D01*
X11155357Y-14193214D01*
X11098214Y-14193214D01*
X11069643Y-14178929D01*
X11341071Y-14164643D02*
X11355357Y-14178929D01*
X11341071Y-14193214D01*
X11326786Y-14178929D01*
X11341071Y-14164643D01*
X11341071Y-14193214D01*
X11341071Y-14007500D02*
X11355357Y-14021786D01*
X11341071Y-14036071D01*
X11326786Y-14021786D01*
X11341071Y-14007500D01*
X11341071Y-14036071D01*
X8837500Y-14607500D02*
X8997500Y-14767500D01*
X8997500Y-14607500D02*
X8837500Y-14767500D01*
X9441071Y-14823214D02*
X9269643Y-14823214D01*
X9355357Y-14823214D02*
X9355357Y-14523214D01*
X9326786Y-14566071D01*
X9298214Y-14594643D01*
X9269643Y-14608929D01*
X9569643Y-14794643D02*
X9583928Y-14808929D01*
X9569643Y-14823214D01*
X9555357Y-14808929D01*
X9569643Y-14794643D01*
X9569643Y-14823214D01*
X9841071Y-14523214D02*
X9783928Y-14523214D01*
X9755357Y-14537500D01*
X9741071Y-14551786D01*
X9712500Y-14594643D01*
X9698214Y-14651786D01*
X9698214Y-14766071D01*
X9712500Y-14794643D01*
X9726786Y-14808929D01*
X9755357Y-14823214D01*
X9812500Y-14823214D01*
X9841071Y-14808929D01*
X9855357Y-14794643D01*
X9869643Y-14766071D01*
X9869643Y-14694643D01*
X9855357Y-14666071D01*
X9841071Y-14651786D01*
X9812500Y-14637500D01*
X9755357Y-14637500D01*
X9726786Y-14651786D01*
X9712500Y-14666071D01*
X9698214Y-14694643D01*
X10055357Y-14523214D02*
X10083928Y-14523214D01*
X10112500Y-14537500D01*
X10126786Y-14551786D01*
X10141071Y-14580357D01*
X10155357Y-14637500D01*
X10155357Y-14708929D01*
X10141071Y-14766071D01*
X10126786Y-14794643D01*
X10112500Y-14808929D01*
X10083928Y-14823214D01*
X10055357Y-14823214D01*
X10026786Y-14808929D01*
X10012500Y-14794643D01*
X9998214Y-14766071D01*
X9983928Y-14708929D01*
X9983928Y-14637500D01*
X9998214Y-14580357D01*
X10012500Y-14551786D01*
X10026786Y-14537500D01*
X10055357Y-14523214D01*
X10283928Y-14823214D02*
X10283928Y-14623214D01*
X10283928Y-14651786D02*
X10298214Y-14637500D01*
X10326786Y-14623214D01*
X10369643Y-14623214D01*
X10398214Y-14637500D01*
X10412500Y-14666071D01*
X10412500Y-14823214D01*
X10412500Y-14666071D02*
X10426786Y-14637500D01*
X10455357Y-14623214D01*
X10498214Y-14623214D01*
X10526786Y-14637500D01*
X10541071Y-14666071D01*
X10541071Y-14823214D01*
X10683928Y-14823214D02*
X10683928Y-14623214D01*
X10683928Y-14651786D02*
X10698214Y-14637500D01*
X10726786Y-14623214D01*
X10769643Y-14623214D01*
X10798214Y-14637500D01*
X10812500Y-14666071D01*
X10812500Y-14823214D01*
X10812500Y-14666071D02*
X10826786Y-14637500D01*
X10855357Y-14623214D01*
X10898214Y-14623214D01*
X10926786Y-14637500D01*
X10941071Y-14666071D01*
X10941071Y-14823214D01*
X11526786Y-14508929D02*
X11269643Y-14894643D01*
X11912500Y-14523214D02*
X11941071Y-14523214D01*
X11969643Y-14537500D01*
X11983928Y-14551786D01*
X11998214Y-14580357D01*
X12012500Y-14637500D01*
X12012500Y-14708929D01*
X11998214Y-14766071D01*
X11983928Y-14794643D01*
X11969643Y-14808929D01*
X11941071Y-14823214D01*
X11912500Y-14823214D01*
X11883928Y-14808929D01*
X11869643Y-14794643D01*
X11855357Y-14766071D01*
X11841071Y-14708929D01*
X11841071Y-14637500D01*
X11855357Y-14580357D01*
X11869643Y-14551786D01*
X11883928Y-14537500D01*
X11912500Y-14523214D01*
X12141071Y-14794643D02*
X12155357Y-14808929D01*
X12141071Y-14823214D01*
X12126786Y-14808929D01*
X12141071Y-14794643D01*
X12141071Y-14823214D01*
X12341071Y-14523214D02*
X12369643Y-14523214D01*
X12398214Y-14537500D01*
X12412500Y-14551786D01*
X12426786Y-14580357D01*
X12441071Y-14637500D01*
X12441071Y-14708929D01*
X12426786Y-14766071D01*
X12412500Y-14794643D01*
X12398214Y-14808929D01*
X12369643Y-14823214D01*
X12341071Y-14823214D01*
X12312500Y-14808929D01*
X12298214Y-14794643D01*
X12283928Y-14766071D01*
X12269643Y-14708929D01*
X12269643Y-14637500D01*
X12283928Y-14580357D01*
X12298214Y-14551786D01*
X12312500Y-14537500D01*
X12341071Y-14523214D01*
X12698214Y-14523214D02*
X12641071Y-14523214D01*
X12612500Y-14537500D01*
X12598214Y-14551786D01*
X12569643Y-14594643D01*
X12555357Y-14651786D01*
X12555357Y-14766071D01*
X12569643Y-14794643D01*
X12583928Y-14808929D01*
X12612500Y-14823214D01*
X12669643Y-14823214D01*
X12698214Y-14808929D01*
X12712500Y-14794643D01*
X12726786Y-14766071D01*
X12726786Y-14694643D01*
X12712500Y-14666071D01*
X12698214Y-14651786D01*
X12669643Y-14637500D01*
X12612500Y-14637500D01*
X12583928Y-14651786D01*
X12569643Y-14666071D01*
X12555357Y-14694643D01*
X12826786Y-14523214D02*
X13012500Y-14523214D01*
X12912500Y-14637500D01*
X12955357Y-14637500D01*
X12983928Y-14651786D01*
X12998214Y-14666071D01*
X13012500Y-14694643D01*
X13012500Y-14766071D01*
X12998214Y-14794643D01*
X12983928Y-14808929D01*
X12955357Y-14823214D01*
X12869643Y-14823214D01*
X12841071Y-14808929D01*
X12826786Y-14794643D01*
X13126786Y-14523214D02*
X13126786Y-14580357D01*
X13241071Y-14523214D02*
X13241071Y-14580357D01*
X13683928Y-14937500D02*
X13669643Y-14923214D01*
X13641071Y-14880357D01*
X13626786Y-14851786D01*
X13612500Y-14808929D01*
X13598214Y-14737500D01*
X13598214Y-14680357D01*
X13612500Y-14608929D01*
X13626786Y-14566071D01*
X13641071Y-14537500D01*
X13669643Y-14494643D01*
X13683928Y-14480357D01*
X13955357Y-14823214D02*
X13783928Y-14823214D01*
X13869643Y-14823214D02*
X13869643Y-14523214D01*
X13841071Y-14566071D01*
X13812500Y-14594643D01*
X13783928Y-14608929D01*
X14312500Y-14823214D02*
X14312500Y-14523214D01*
X14441071Y-14823214D02*
X14441071Y-14666071D01*
X14426786Y-14637500D01*
X14398214Y-14623214D01*
X14355357Y-14623214D01*
X14326786Y-14637500D01*
X14312500Y-14651786D01*
X14626786Y-14823214D02*
X14598214Y-14808929D01*
X14583928Y-14794643D01*
X14569643Y-14766071D01*
X14569643Y-14680357D01*
X14583928Y-14651786D01*
X14598214Y-14637500D01*
X14626786Y-14623214D01*
X14669643Y-14623214D01*
X14698214Y-14637500D01*
X14712500Y-14651786D01*
X14726786Y-14680357D01*
X14726786Y-14766071D01*
X14712500Y-14794643D01*
X14698214Y-14808929D01*
X14669643Y-14823214D01*
X14626786Y-14823214D01*
X14898214Y-14823214D02*
X14869643Y-14808929D01*
X14855357Y-14780357D01*
X14855357Y-14523214D01*
X15126786Y-14808929D02*
X15098214Y-14823214D01*
X15041071Y-14823214D01*
X15012500Y-14808929D01*
X14998214Y-14780357D01*
X14998214Y-14666071D01*
X15012500Y-14637500D01*
X15041071Y-14623214D01*
X15098214Y-14623214D01*
X15126786Y-14637500D01*
X15141071Y-14666071D01*
X15141071Y-14694643D01*
X14998214Y-14723214D01*
X15241071Y-14937500D02*
X15255357Y-14923214D01*
X15283928Y-14880357D01*
X15298214Y-14851786D01*
X15312500Y-14808929D01*
X15326786Y-14737500D01*
X15326786Y-14680357D01*
X15312500Y-14608929D01*
X15298214Y-14566071D01*
X15283928Y-14537500D01*
X15255357Y-14494643D01*
X15241071Y-14480357D01*
X15783928Y-14937500D02*
X15769643Y-14923214D01*
X15741071Y-14880357D01*
X15726786Y-14851786D01*
X15712500Y-14808929D01*
X15698214Y-14737500D01*
X15698214Y-14680357D01*
X15712500Y-14608929D01*
X15726786Y-14566071D01*
X15741071Y-14537500D01*
X15769643Y-14494643D01*
X15783928Y-14480357D01*
X15898214Y-14623214D02*
X15898214Y-14823214D01*
X15898214Y-14651786D02*
X15912500Y-14637500D01*
X15941071Y-14623214D01*
X15983928Y-14623214D01*
X16012500Y-14637500D01*
X16026786Y-14666071D01*
X16026786Y-14823214D01*
X16212500Y-14823214D02*
X16183928Y-14808929D01*
X16169643Y-14794643D01*
X16155357Y-14766071D01*
X16155357Y-14680357D01*
X16169643Y-14651786D01*
X16183928Y-14637500D01*
X16212500Y-14623214D01*
X16255357Y-14623214D01*
X16283928Y-14637500D01*
X16298214Y-14651786D01*
X16312500Y-14680357D01*
X16312500Y-14766071D01*
X16298214Y-14794643D01*
X16283928Y-14808929D01*
X16255357Y-14823214D01*
X16212500Y-14823214D01*
X16398214Y-14623214D02*
X16512500Y-14623214D01*
X16441071Y-14523214D02*
X16441071Y-14780357D01*
X16455357Y-14808929D01*
X16483928Y-14823214D01*
X16512500Y-14823214D01*
X16841071Y-14623214D02*
X16841071Y-14923214D01*
X16841071Y-14637500D02*
X16869643Y-14623214D01*
X16926786Y-14623214D01*
X16955357Y-14637500D01*
X16969643Y-14651786D01*
X16983928Y-14680357D01*
X16983928Y-14766071D01*
X16969643Y-14794643D01*
X16955357Y-14808929D01*
X16926786Y-14823214D01*
X16869643Y-14823214D01*
X16841071Y-14808929D01*
X17155357Y-14823214D02*
X17126786Y-14808929D01*
X17112500Y-14780357D01*
X17112500Y-14523214D01*
X17398214Y-14823214D02*
X17398214Y-14666071D01*
X17383928Y-14637500D01*
X17355357Y-14623214D01*
X17298214Y-14623214D01*
X17269643Y-14637500D01*
X17398214Y-14808929D02*
X17369643Y-14823214D01*
X17298214Y-14823214D01*
X17269643Y-14808929D01*
X17255357Y-14780357D01*
X17255357Y-14751786D01*
X17269643Y-14723214D01*
X17298214Y-14708929D01*
X17369643Y-14708929D01*
X17398214Y-14694643D01*
X17498214Y-14623214D02*
X17612500Y-14623214D01*
X17541071Y-14523214D02*
X17541071Y-14780357D01*
X17555357Y-14808929D01*
X17583928Y-14823214D01*
X17612500Y-14823214D01*
X17826786Y-14808929D02*
X17798214Y-14823214D01*
X17741071Y-14823214D01*
X17712500Y-14808929D01*
X17698214Y-14780357D01*
X17698214Y-14666071D01*
X17712500Y-14637500D01*
X17741071Y-14623214D01*
X17798214Y-14623214D01*
X17826786Y-14637500D01*
X17841071Y-14666071D01*
X17841071Y-14694643D01*
X17698214Y-14723214D01*
X18098214Y-14823214D02*
X18098214Y-14523214D01*
X18098214Y-14808929D02*
X18069643Y-14823214D01*
X18012500Y-14823214D01*
X17983928Y-14808929D01*
X17969643Y-14794643D01*
X17955357Y-14766071D01*
X17955357Y-14680357D01*
X17969643Y-14651786D01*
X17983928Y-14637500D01*
X18012500Y-14623214D01*
X18069643Y-14623214D01*
X18098214Y-14637500D01*
X18212500Y-14937500D02*
X18226786Y-14923214D01*
X18255357Y-14880357D01*
X18269643Y-14851786D01*
X18283928Y-14808929D01*
X18298214Y-14737500D01*
X18298214Y-14680357D01*
X18283928Y-14608929D01*
X18269643Y-14566071D01*
X18255357Y-14537500D01*
X18226786Y-14494643D01*
X18212500Y-14480357D01*
X8997500Y-15083500D02*
G75*
G03*
X8997500Y-15083500I-100000J0D01*
G01*
X9269643Y-14947786D02*
X9283928Y-14933500D01*
X9312500Y-14919214D01*
X9383928Y-14919214D01*
X9412500Y-14933500D01*
X9426786Y-14947786D01*
X9441071Y-14976357D01*
X9441071Y-15004929D01*
X9426786Y-15047786D01*
X9255357Y-15219214D01*
X9441071Y-15219214D01*
X9569643Y-15190643D02*
X9583928Y-15204929D01*
X9569643Y-15219214D01*
X9555357Y-15204929D01*
X9569643Y-15190643D01*
X9569643Y-15219214D01*
X9769643Y-14919214D02*
X9798214Y-14919214D01*
X9826786Y-14933500D01*
X9841071Y-14947786D01*
X9855357Y-14976357D01*
X9869643Y-15033500D01*
X9869643Y-15104929D01*
X9855357Y-15162071D01*
X9841071Y-15190643D01*
X9826786Y-15204929D01*
X9798214Y-15219214D01*
X9769643Y-15219214D01*
X9741071Y-15204929D01*
X9726786Y-15190643D01*
X9712500Y-15162071D01*
X9698214Y-15104929D01*
X9698214Y-15033500D01*
X9712500Y-14976357D01*
X9726786Y-14947786D01*
X9741071Y-14933500D01*
X9769643Y-14919214D01*
X10055357Y-14919214D02*
X10083928Y-14919214D01*
X10112500Y-14933500D01*
X10126786Y-14947786D01*
X10141071Y-14976357D01*
X10155357Y-15033500D01*
X10155357Y-15104929D01*
X10141071Y-15162071D01*
X10126786Y-15190643D01*
X10112500Y-15204929D01*
X10083928Y-15219214D01*
X10055357Y-15219214D01*
X10026786Y-15204929D01*
X10012500Y-15190643D01*
X9998214Y-15162071D01*
X9983928Y-15104929D01*
X9983928Y-15033500D01*
X9998214Y-14976357D01*
X10012500Y-14947786D01*
X10026786Y-14933500D01*
X10055357Y-14919214D01*
X10283928Y-15219214D02*
X10283928Y-15019214D01*
X10283928Y-15047786D02*
X10298214Y-15033500D01*
X10326786Y-15019214D01*
X10369643Y-15019214D01*
X10398214Y-15033500D01*
X10412500Y-15062071D01*
X10412500Y-15219214D01*
X10412500Y-15062071D02*
X10426786Y-15033500D01*
X10455357Y-15019214D01*
X10498214Y-15019214D01*
X10526786Y-15033500D01*
X10541071Y-15062071D01*
X10541071Y-15219214D01*
X10683928Y-15219214D02*
X10683928Y-15019214D01*
X10683928Y-15047786D02*
X10698214Y-15033500D01*
X10726786Y-15019214D01*
X10769643Y-15019214D01*
X10798214Y-15033500D01*
X10812500Y-15062071D01*
X10812500Y-15219214D01*
X10812500Y-15062071D02*
X10826786Y-15033500D01*
X10855357Y-15019214D01*
X10898214Y-15019214D01*
X10926786Y-15033500D01*
X10941071Y-15062071D01*
X10941071Y-15219214D01*
X11526786Y-14904929D02*
X11269643Y-15290643D01*
X11912500Y-14919214D02*
X11941071Y-14919214D01*
X11969643Y-14933500D01*
X11983928Y-14947786D01*
X11998214Y-14976357D01*
X12012500Y-15033500D01*
X12012500Y-15104929D01*
X11998214Y-15162071D01*
X11983928Y-15190643D01*
X11969643Y-15204929D01*
X11941071Y-15219214D01*
X11912500Y-15219214D01*
X11883928Y-15204929D01*
X11869643Y-15190643D01*
X11855357Y-15162071D01*
X11841071Y-15104929D01*
X11841071Y-15033500D01*
X11855357Y-14976357D01*
X11869643Y-14947786D01*
X11883928Y-14933500D01*
X11912500Y-14919214D01*
X12141071Y-15190643D02*
X12155357Y-15204929D01*
X12141071Y-15219214D01*
X12126786Y-15204929D01*
X12141071Y-15190643D01*
X12141071Y-15219214D01*
X12341071Y-14919214D02*
X12369643Y-14919214D01*
X12398214Y-14933500D01*
X12412500Y-14947786D01*
X12426786Y-14976357D01*
X12441071Y-15033500D01*
X12441071Y-15104929D01*
X12426786Y-15162071D01*
X12412500Y-15190643D01*
X12398214Y-15204929D01*
X12369643Y-15219214D01*
X12341071Y-15219214D01*
X12312500Y-15204929D01*
X12298214Y-15190643D01*
X12283928Y-15162071D01*
X12269643Y-15104929D01*
X12269643Y-15033500D01*
X12283928Y-14976357D01*
X12298214Y-14947786D01*
X12312500Y-14933500D01*
X12341071Y-14919214D01*
X12541071Y-14919214D02*
X12741071Y-14919214D01*
X12612500Y-15219214D01*
X12869643Y-15219214D02*
X12926786Y-15219214D01*
X12955357Y-15204929D01*
X12969643Y-15190643D01*
X12998214Y-15147786D01*
X13012500Y-15090643D01*
X13012500Y-14976357D01*
X12998214Y-14947786D01*
X12983928Y-14933500D01*
X12955357Y-14919214D01*
X12898214Y-14919214D01*
X12869643Y-14933500D01*
X12855357Y-14947786D01*
X12841071Y-14976357D01*
X12841071Y-15047786D01*
X12855357Y-15076357D01*
X12869643Y-15090643D01*
X12898214Y-15104929D01*
X12955357Y-15104929D01*
X12983928Y-15090643D01*
X12998214Y-15076357D01*
X13012500Y-15047786D01*
X13126786Y-14919214D02*
X13126786Y-14976357D01*
X13241071Y-14919214D02*
X13241071Y-14976357D01*
X13683928Y-15333500D02*
X13669643Y-15319214D01*
X13641071Y-15276357D01*
X13626786Y-15247786D01*
X13612500Y-15204929D01*
X13598214Y-15133500D01*
X13598214Y-15076357D01*
X13612500Y-15004929D01*
X13626786Y-14962071D01*
X13641071Y-14933500D01*
X13669643Y-14890643D01*
X13683928Y-14876357D01*
X13926786Y-15019214D02*
X13926786Y-15219214D01*
X13855357Y-14904929D02*
X13783928Y-15119214D01*
X13969643Y-15119214D01*
X14312500Y-15219214D02*
X14312500Y-14919214D01*
X14441071Y-15219214D02*
X14441071Y-15062071D01*
X14426786Y-15033500D01*
X14398214Y-15019214D01*
X14355357Y-15019214D01*
X14326786Y-15033500D01*
X14312500Y-15047786D01*
X14626786Y-15219214D02*
X14598214Y-15204929D01*
X14583928Y-15190643D01*
X14569643Y-15162071D01*
X14569643Y-15076357D01*
X14583928Y-15047786D01*
X14598214Y-15033500D01*
X14626786Y-15019214D01*
X14669643Y-15019214D01*
X14698214Y-15033500D01*
X14712500Y-15047786D01*
X14726786Y-15076357D01*
X14726786Y-15162071D01*
X14712500Y-15190643D01*
X14698214Y-15204929D01*
X14669643Y-15219214D01*
X14626786Y-15219214D01*
X14898214Y-15219214D02*
X14869643Y-15204929D01*
X14855357Y-15176357D01*
X14855357Y-14919214D01*
X15126786Y-15204929D02*
X15098214Y-15219214D01*
X15041071Y-15219214D01*
X15012500Y-15204929D01*
X14998214Y-15176357D01*
X14998214Y-15062071D01*
X15012500Y-15033500D01*
X15041071Y-15019214D01*
X15098214Y-15019214D01*
X15126786Y-15033500D01*
X15141071Y-15062071D01*
X15141071Y-15090643D01*
X14998214Y-15119214D01*
X15255357Y-15204929D02*
X15283928Y-15219214D01*
X15341071Y-15219214D01*
X15369643Y-15204929D01*
X15383928Y-15176357D01*
X15383928Y-15162071D01*
X15369643Y-15133500D01*
X15341071Y-15119214D01*
X15298214Y-15119214D01*
X15269643Y-15104929D01*
X15255357Y-15076357D01*
X15255357Y-15062071D01*
X15269643Y-15033500D01*
X15298214Y-15019214D01*
X15341071Y-15019214D01*
X15369643Y-15033500D01*
X15483928Y-15333500D02*
X15498214Y-15319214D01*
X15526786Y-15276357D01*
X15541071Y-15247786D01*
X15555357Y-15204929D01*
X15569643Y-15133500D01*
X15569643Y-15076357D01*
X15555357Y-15004929D01*
X15541071Y-14962071D01*
X15526786Y-14933500D01*
X15498214Y-14890643D01*
X15483928Y-14876357D01*
X16026786Y-15333500D02*
X16012500Y-15319214D01*
X15983928Y-15276357D01*
X15969643Y-15247786D01*
X15955357Y-15204929D01*
X15941071Y-15133500D01*
X15941071Y-15076357D01*
X15955357Y-15004929D01*
X15969643Y-14962071D01*
X15983928Y-14933500D01*
X16012500Y-14890643D01*
X16026786Y-14876357D01*
X16141071Y-15019214D02*
X16141071Y-15219214D01*
X16141071Y-15047786D02*
X16155357Y-15033500D01*
X16183928Y-15019214D01*
X16226786Y-15019214D01*
X16255357Y-15033500D01*
X16269643Y-15062071D01*
X16269643Y-15219214D01*
X16455357Y-15219214D02*
X16426786Y-15204929D01*
X16412500Y-15190643D01*
X16398214Y-15162071D01*
X16398214Y-15076357D01*
X16412500Y-15047786D01*
X16426786Y-15033500D01*
X16455357Y-15019214D01*
X16498214Y-15019214D01*
X16526786Y-15033500D01*
X16541071Y-15047786D01*
X16555357Y-15076357D01*
X16555357Y-15162071D01*
X16541071Y-15190643D01*
X16526786Y-15204929D01*
X16498214Y-15219214D01*
X16455357Y-15219214D01*
X16641071Y-15019214D02*
X16755357Y-15019214D01*
X16683928Y-14919214D02*
X16683928Y-15176357D01*
X16698214Y-15204929D01*
X16726786Y-15219214D01*
X16755357Y-15219214D01*
X17083928Y-15019214D02*
X17083928Y-15319214D01*
X17083928Y-15033500D02*
X17112500Y-15019214D01*
X17169643Y-15019214D01*
X17198214Y-15033500D01*
X17212500Y-15047786D01*
X17226786Y-15076357D01*
X17226786Y-15162071D01*
X17212500Y-15190643D01*
X17198214Y-15204929D01*
X17169643Y-15219214D01*
X17112500Y-15219214D01*
X17083928Y-15204929D01*
X17398214Y-15219214D02*
X17369643Y-15204929D01*
X17355357Y-15176357D01*
X17355357Y-14919214D01*
X17641071Y-15219214D02*
X17641071Y-15062071D01*
X17626786Y-15033500D01*
X17598214Y-15019214D01*
X17541071Y-15019214D01*
X17512500Y-15033500D01*
X17641071Y-15204929D02*
X17612500Y-15219214D01*
X17541071Y-15219214D01*
X17512500Y-15204929D01*
X17498214Y-15176357D01*
X17498214Y-15147786D01*
X17512500Y-15119214D01*
X17541071Y-15104929D01*
X17612500Y-15104929D01*
X17641071Y-15090643D01*
X17741071Y-15019214D02*
X17855357Y-15019214D01*
X17783928Y-14919214D02*
X17783928Y-15176357D01*
X17798214Y-15204929D01*
X17826786Y-15219214D01*
X17855357Y-15219214D01*
X18069643Y-15204929D02*
X18041071Y-15219214D01*
X17983928Y-15219214D01*
X17955357Y-15204929D01*
X17941071Y-15176357D01*
X17941071Y-15062071D01*
X17955357Y-15033500D01*
X17983928Y-15019214D01*
X18041071Y-15019214D01*
X18069643Y-15033500D01*
X18083928Y-15062071D01*
X18083928Y-15090643D01*
X17941071Y-15119214D01*
X18341071Y-15219214D02*
X18341071Y-14919214D01*
X18341071Y-15204929D02*
X18312500Y-15219214D01*
X18255357Y-15219214D01*
X18226786Y-15204929D01*
X18212500Y-15190643D01*
X18198214Y-15162071D01*
X18198214Y-15076357D01*
X18212500Y-15047786D01*
X18226786Y-15033500D01*
X18255357Y-15019214D01*
X18312500Y-15019214D01*
X18341071Y-15033500D01*
X18455357Y-15333500D02*
X18469643Y-15319214D01*
X18498214Y-15276357D01*
X18512500Y-15247786D01*
X18526786Y-15204929D01*
X18541071Y-15133500D01*
X18541071Y-15076357D01*
X18526786Y-15004929D01*
X18512500Y-14962071D01*
X18498214Y-14933500D01*
X18469643Y-14890643D01*
X18455357Y-14876357D01*
M02*
