%FSLAX45Y45*%
G04 Gerber Fmt 4.5, Leading zero omitted, Abs format (unit mm)*
G04 Created by KiCad (PCBNEW (5.1.9)-1) date 2021-04-24 22:48:05*
%MOMM*%
%LPD*%
G01*
G04 APERTURE LIST*
%TA.AperFunction,Profile*%
%ADD10C,0.050000*%
%TD*%
%ADD11C,0.200000*%
%ADD12C,0.300000*%
G04 APERTURE END LIST*
D10*
X9000000Y-13000000D02*
X9000000Y-13725000D01*
X8950000Y-12400000D02*
X9000000Y-12400000D01*
X8950000Y-13000000D02*
X8950000Y-12400000D01*
X9000000Y-13000000D02*
X8950000Y-13000000D01*
X9000000Y-6275000D02*
X9000000Y-7000000D01*
X8950000Y-7600000D02*
X9000000Y-7600000D01*
X8950000Y-7000000D02*
X8950000Y-7600000D01*
X9000000Y-7000000D02*
X8950000Y-7000000D01*
X20950000Y-13725000D02*
X9000000Y-13725000D01*
X20950000Y-6275000D02*
X20950000Y-13725000D01*
X9000000Y-6275000D02*
X20950000Y-6275000D01*
X9000000Y-12400000D02*
X9000000Y-7600000D01*
D11*
X9477500Y-6477500D02*
X9522500Y-6522500D01*
X9522500Y-6477500D02*
X9477500Y-6522500D01*
X9477500Y-13477500D02*
X9522500Y-13522500D01*
X9522500Y-13477500D02*
X9477500Y-13522500D01*
X10477500Y-6477500D02*
X10522500Y-6522500D01*
X10522500Y-6477500D02*
X10477500Y-6522500D01*
X10477500Y-13477500D02*
X10522500Y-13522500D01*
X10522500Y-13477500D02*
X10477500Y-13522500D01*
X10677500Y-9027500D02*
X10722500Y-9072500D01*
X10722500Y-9027500D02*
X10677500Y-9072500D01*
X10677500Y-10927500D02*
X10722500Y-10972500D01*
X10722500Y-10927500D02*
X10677500Y-10972500D01*
X10897500Y-9287500D02*
X10942500Y-9332500D01*
X10942500Y-9287500D02*
X10897500Y-9332500D01*
X10897500Y-9567500D02*
X10942500Y-9612500D01*
X10942500Y-9567500D02*
X10897500Y-9612500D01*
X10897500Y-10387500D02*
X10942500Y-10432500D01*
X10942500Y-10387500D02*
X10897500Y-10432500D01*
X10897500Y-10667500D02*
X10942500Y-10712500D01*
X10942500Y-10667500D02*
X10897500Y-10712500D01*
X11077500Y-9977500D02*
X11122500Y-10022500D01*
X11122500Y-9977500D02*
X11077500Y-10022500D01*
X11437500Y-9897500D02*
X11482500Y-9942500D01*
X11482500Y-9897500D02*
X11437500Y-9942500D01*
X11437500Y-10057500D02*
X11482500Y-10102500D01*
X11482500Y-10057500D02*
X11437500Y-10102500D01*
X11477500Y-6477500D02*
X11522500Y-6522500D01*
X11522500Y-6477500D02*
X11477500Y-6522500D01*
X11477500Y-13477500D02*
X11522500Y-13522500D01*
X11522500Y-13477500D02*
X11477500Y-13522500D01*
X12477500Y-6477500D02*
X12522500Y-6522500D01*
X12522500Y-6477500D02*
X12477500Y-6522500D01*
X12477500Y-13477500D02*
X12522500Y-13522500D01*
X12522500Y-13477500D02*
X12477500Y-13522500D01*
X12617500Y-9977500D02*
X12662500Y-10022500D01*
X12662500Y-9977500D02*
X12617500Y-10022500D01*
X12617500Y-9977500D02*
X12662500Y-10022500D01*
X12662500Y-9977500D02*
X12617500Y-10022500D01*
X12827500Y-6927500D02*
X12872500Y-6972500D01*
X12872500Y-6927500D02*
X12827500Y-6972500D01*
X12827500Y-7127500D02*
X12872500Y-7172500D01*
X12872500Y-7127500D02*
X12827500Y-7172500D01*
X12827500Y-7327500D02*
X12872500Y-7372500D01*
X12872500Y-7327500D02*
X12827500Y-7372500D01*
X12827500Y-12627500D02*
X12872500Y-12672500D01*
X12872500Y-12627500D02*
X12827500Y-12672500D01*
X12827500Y-12827500D02*
X12872500Y-12872500D01*
X12872500Y-12827500D02*
X12827500Y-12872500D01*
X12827500Y-13027500D02*
X12872500Y-13072500D01*
X12872500Y-13027500D02*
X12827500Y-13072500D01*
X12837500Y-9977500D02*
X12882500Y-10022500D01*
X12882500Y-9977500D02*
X12837500Y-10022500D01*
X12957500Y-9977500D02*
X13002500Y-10022500D01*
X13002500Y-9977500D02*
X12957500Y-10022500D01*
X13077500Y-9107500D02*
X13122500Y-9152500D01*
X13122500Y-9107500D02*
X13077500Y-9152500D01*
X13087500Y-10827500D02*
X13132500Y-10872500D01*
X13132500Y-10827500D02*
X13087500Y-10872500D01*
X13097500Y-9977500D02*
X13142500Y-10022500D01*
X13142500Y-9977500D02*
X13097500Y-10022500D01*
X13477500Y-6477500D02*
X13522500Y-6522500D01*
X13522500Y-6477500D02*
X13477500Y-6522500D01*
X13477500Y-13477500D02*
X13522500Y-13522500D01*
X13522500Y-13477500D02*
X13477500Y-13522500D01*
X13977500Y-9427500D02*
X14022500Y-9472500D01*
X14022500Y-9427500D02*
X13977500Y-9472500D01*
X13977500Y-10277500D02*
X14022500Y-10322500D01*
X14022500Y-10277500D02*
X13977500Y-10322500D01*
X13977500Y-10527500D02*
X14022500Y-10572500D01*
X14022500Y-10527500D02*
X13977500Y-10572500D01*
X13977501Y-9677500D02*
X14022501Y-9722500D01*
X14022501Y-9677500D02*
X13977501Y-9722500D01*
X14157500Y-9352502D02*
X14202500Y-9397502D01*
X14202500Y-9352502D02*
X14157500Y-9397502D01*
X14157500Y-10602500D02*
X14202500Y-10647500D01*
X14202500Y-10602500D02*
X14157500Y-10647500D01*
X14157500Y-13302498D02*
X14202500Y-13347498D01*
X14202500Y-13302498D02*
X14157500Y-13347498D01*
X14347500Y-9352497D02*
X14392500Y-9397497D01*
X14392500Y-9352497D02*
X14347500Y-9397497D01*
X14347500Y-10602500D02*
X14392500Y-10647500D01*
X14392500Y-10602500D02*
X14347500Y-10647500D01*
X14432501Y-12782501D02*
X14477501Y-12827501D01*
X14477501Y-12782501D02*
X14432501Y-12827501D01*
X14477500Y-6477500D02*
X14522500Y-6522500D01*
X14522500Y-6477500D02*
X14477500Y-6522500D01*
X14477500Y-13477500D02*
X14522500Y-13522500D01*
X14522500Y-13477500D02*
X14477500Y-13522500D01*
X14527500Y-9427500D02*
X14572500Y-9472500D01*
X14572500Y-9427500D02*
X14527500Y-9472500D01*
X14527500Y-10527500D02*
X14572500Y-10572500D01*
X14572500Y-10527500D02*
X14527500Y-10572500D01*
X14797500Y-9977500D02*
X14842500Y-10022500D01*
X14842500Y-9977500D02*
X14797500Y-10022500D01*
X14857500Y-9087500D02*
X14902500Y-9132500D01*
X14902500Y-9087500D02*
X14857500Y-9132500D01*
X14917500Y-9977500D02*
X14962500Y-10022500D01*
X14962500Y-9977500D02*
X14917500Y-10022500D01*
X15077500Y-8627500D02*
X15122500Y-8672500D01*
X15122500Y-8627500D02*
X15077500Y-8672500D01*
X15247500Y-8997500D02*
X15292500Y-9042500D01*
X15292500Y-8997500D02*
X15247500Y-9042500D01*
X15327500Y-10777500D02*
X15372500Y-10822500D01*
X15372500Y-10777500D02*
X15327500Y-10822500D01*
X15377500Y-9637500D02*
X15422500Y-9682500D01*
X15422500Y-9637500D02*
X15377500Y-9682500D01*
X15477500Y-6477500D02*
X15522500Y-6522500D01*
X15522500Y-6477500D02*
X15477500Y-6522500D01*
X15477500Y-13477500D02*
X15522500Y-13522500D01*
X15522500Y-13477500D02*
X15477500Y-13522500D01*
X15487500Y-10297500D02*
X15532500Y-10342500D01*
X15532500Y-10297500D02*
X15487500Y-10342500D01*
X15507500Y-10777500D02*
X15552500Y-10822500D01*
X15552500Y-10777500D02*
X15507500Y-10822500D01*
X15587500Y-9177500D02*
X15632500Y-9222500D01*
X15632500Y-9177500D02*
X15587500Y-9222500D01*
X15857500Y-9397500D02*
X15902500Y-9442500D01*
X15902500Y-9397500D02*
X15857500Y-9442500D01*
X15857500Y-9787000D02*
X15902500Y-9832000D01*
X15902500Y-9787000D02*
X15857500Y-9832000D01*
X15857500Y-10168000D02*
X15902500Y-10213000D01*
X15902500Y-10168000D02*
X15857500Y-10213000D01*
X15857500Y-10557500D02*
X15902500Y-10602500D01*
X15902500Y-10557500D02*
X15857500Y-10602500D01*
X15977500Y-9087500D02*
X16022500Y-9132500D01*
X16022500Y-9087500D02*
X15977500Y-9132500D01*
X16477500Y-6477500D02*
X16522500Y-6522500D01*
X16522500Y-6477500D02*
X16477500Y-6522500D01*
X16477500Y-13477500D02*
X16522500Y-13522500D01*
X16522500Y-13477500D02*
X16477500Y-13522500D01*
X16687500Y-10007500D02*
X16732500Y-10052500D01*
X16732500Y-10007500D02*
X16687500Y-10052500D01*
X17477500Y-6477500D02*
X17522500Y-6522500D01*
X17522500Y-6477500D02*
X17477500Y-6522500D01*
X17477500Y-13477500D02*
X17522500Y-13522500D01*
X17522500Y-13477500D02*
X17477500Y-13522500D01*
X17557500Y-11647500D02*
X17602500Y-11692500D01*
X17602500Y-11647500D02*
X17557500Y-11692500D01*
X17757500Y-10037500D02*
X17802500Y-10082500D01*
X17802500Y-10037500D02*
X17757500Y-10082500D01*
X17821499Y-11883501D02*
X17866499Y-11928501D01*
X17866499Y-11883501D02*
X17821499Y-11928501D01*
X17837500Y-11537500D02*
X17882500Y-11582500D01*
X17882500Y-11537500D02*
X17837500Y-11582500D01*
X17877500Y-12387500D02*
X17922500Y-12432500D01*
X17922500Y-12387500D02*
X17877500Y-12432500D01*
X18087500Y-9977500D02*
X18132500Y-10022500D01*
X18132500Y-9977500D02*
X18087500Y-10022500D01*
X18087500Y-8917500D02*
X18132500Y-8962500D01*
X18132500Y-8917500D02*
X18087500Y-8962500D01*
X18087500Y-9457500D02*
X18132500Y-9502500D01*
X18132500Y-9457500D02*
X18087500Y-9502500D01*
X18087500Y-10517500D02*
X18132500Y-10562500D01*
X18132500Y-10517500D02*
X18087500Y-10562500D01*
X18160000Y-11934000D02*
X18205000Y-11979000D01*
X18205000Y-11934000D02*
X18160000Y-11979000D01*
X18160000Y-12074000D02*
X18205000Y-12119000D01*
X18205000Y-12074000D02*
X18160000Y-12119000D01*
X18160000Y-12214000D02*
X18205000Y-12259000D01*
X18205000Y-12214000D02*
X18160000Y-12259000D01*
X18277500Y-12387500D02*
X18322500Y-12432500D01*
X18322500Y-12387500D02*
X18277500Y-12432500D01*
X18300000Y-11934000D02*
X18345000Y-11979000D01*
X18345000Y-11934000D02*
X18300000Y-11979000D01*
X18300000Y-12074000D02*
X18345000Y-12119000D01*
X18345000Y-12074000D02*
X18300000Y-12119000D01*
X18300000Y-12214000D02*
X18345000Y-12259000D01*
X18345000Y-12214000D02*
X18300000Y-12259000D01*
X18367500Y-9977500D02*
X18412500Y-10022500D01*
X18412500Y-9977500D02*
X18367500Y-10022500D01*
X18367500Y-8917500D02*
X18412500Y-8962500D01*
X18412500Y-8917500D02*
X18367500Y-8962500D01*
X18367500Y-9457500D02*
X18412500Y-9502500D01*
X18412500Y-9457500D02*
X18367500Y-9502500D01*
X18367500Y-10517500D02*
X18412500Y-10562500D01*
X18412500Y-10517500D02*
X18367500Y-10562500D01*
X18477500Y-6477500D02*
X18522500Y-6522500D01*
X18522500Y-6477500D02*
X18477500Y-6522500D01*
X18477500Y-13477500D02*
X18522500Y-13522500D01*
X18522500Y-13477500D02*
X18477500Y-13522500D01*
X18499998Y-7305000D02*
X18544998Y-7350000D01*
X18544998Y-7305000D02*
X18499998Y-7350000D01*
X18499999Y-6729999D02*
X18544999Y-6774999D01*
X18544999Y-6729999D02*
X18499999Y-6774999D01*
X18547500Y-7017500D02*
X18592500Y-7062500D01*
X18592500Y-7017500D02*
X18547500Y-7062500D01*
X18627500Y-11987500D02*
X18672500Y-12032500D01*
X18672500Y-11987500D02*
X18627500Y-12032500D01*
X18627500Y-12397500D02*
X18672500Y-12442500D01*
X18672500Y-12397500D02*
X18627500Y-12442500D01*
X18633500Y-11283500D02*
X18678500Y-11328500D01*
X18678500Y-11283500D02*
X18633500Y-11328500D01*
X18637500Y-7017500D02*
X18682500Y-7062500D01*
X18682500Y-7017500D02*
X18637500Y-7062500D01*
X18677500Y-7707500D02*
X18722500Y-7752500D01*
X18722500Y-7707500D02*
X18677500Y-7752500D01*
X18677500Y-8247500D02*
X18722500Y-8292500D01*
X18722500Y-8247500D02*
X18677500Y-8292500D01*
X18721001Y-6983999D02*
X18766001Y-7028999D01*
X18766001Y-6983999D02*
X18721001Y-7028999D01*
X18721003Y-7111003D02*
X18766003Y-7156003D01*
X18766003Y-7111003D02*
X18721003Y-7156003D01*
X18727500Y-7417500D02*
X18772500Y-7462500D01*
X18772500Y-7417500D02*
X18727500Y-7462500D01*
X18817500Y-9637500D02*
X18862500Y-9682500D01*
X18862500Y-9637500D02*
X18817500Y-9682500D01*
X18817500Y-10757500D02*
X18862500Y-10802500D01*
X18862500Y-10757500D02*
X18817500Y-10802500D01*
X18977500Y-7707500D02*
X19022500Y-7752500D01*
X19022500Y-7707500D02*
X18977500Y-7752500D01*
X18977500Y-8247500D02*
X19022500Y-8292500D01*
X19022500Y-8247500D02*
X18977500Y-8292500D01*
X18977500Y-11387500D02*
X19022500Y-11432500D01*
X19022500Y-11387500D02*
X18977500Y-11432500D01*
X19007500Y-10167500D02*
X19052500Y-10212500D01*
X19052500Y-10167500D02*
X19007500Y-10212500D01*
X19027500Y-11287500D02*
X19072500Y-11332500D01*
X19072500Y-11287500D02*
X19027500Y-11332500D01*
X19057500Y-6907500D02*
X19102500Y-6952500D01*
X19102500Y-6907500D02*
X19057500Y-6952500D01*
X19057500Y-7047500D02*
X19102500Y-7092500D01*
X19102500Y-7047500D02*
X19057500Y-7092500D01*
X19057500Y-7187500D02*
X19102500Y-7232500D01*
X19102500Y-7187500D02*
X19057500Y-7232500D01*
X19107500Y-7417500D02*
X19152500Y-7462500D01*
X19152500Y-7417500D02*
X19107500Y-7462500D01*
X19197500Y-6907500D02*
X19242500Y-6952500D01*
X19242500Y-6907500D02*
X19197500Y-6952500D01*
X19197500Y-7047500D02*
X19242500Y-7092500D01*
X19242500Y-7047500D02*
X19197500Y-7092500D01*
X19197500Y-7187500D02*
X19242500Y-7232500D01*
X19242500Y-7187500D02*
X19197500Y-7232500D01*
X19407500Y-10367500D02*
X19452500Y-10412500D01*
X19452500Y-10367500D02*
X19407500Y-10412500D01*
X19477500Y-6477500D02*
X19522500Y-6522500D01*
X19522500Y-6477500D02*
X19477500Y-6522500D01*
X19477500Y-13477500D02*
X19522500Y-13522500D01*
X19522500Y-13477500D02*
X19477500Y-13522500D01*
X19510003Y-9610003D02*
X19555003Y-9655003D01*
X19555003Y-9610003D02*
X19510003Y-9655003D01*
X19557500Y-6807500D02*
X19602500Y-6852500D01*
X19602500Y-6807500D02*
X19557500Y-6852500D01*
X20247500Y-10267500D02*
X20292500Y-10312500D01*
X20292500Y-10267500D02*
X20247500Y-10312500D01*
X20477500Y-6477500D02*
X20522500Y-6522500D01*
X20522500Y-6477500D02*
X20477500Y-6522500D01*
X20477500Y-13477500D02*
X20522500Y-13522500D01*
X20522500Y-13477500D02*
X20477500Y-13522500D01*
X20577500Y-6827500D02*
X20622500Y-6872500D01*
X20622500Y-6827500D02*
X20577500Y-6872500D01*
X20577500Y-6917500D02*
X20622500Y-6962500D01*
X20622500Y-6917500D02*
X20577500Y-6962500D01*
X20577500Y-7277500D02*
X20622500Y-7322500D01*
X20622500Y-7277500D02*
X20577500Y-7322500D01*
X20577500Y-7367500D02*
X20622500Y-7412500D01*
X20622500Y-7367500D02*
X20577500Y-7412500D01*
X11690000Y-8050000D02*
G75*
G03*
X11690000Y-8050000I-40000J0D01*
G01*
X11690000Y-8550000D02*
G75*
G03*
X11690000Y-8550000I-40000J0D01*
G01*
X11690000Y-11450000D02*
G75*
G03*
X11690000Y-11450000I-40000J0D01*
G01*
X11690000Y-11950000D02*
G75*
G03*
X11690000Y-11950000I-40000J0D01*
G01*
X13511000Y-9746000D02*
G75*
G03*
X13511000Y-9746000I-40000J0D01*
G01*
X13511000Y-10254000D02*
G75*
G03*
X13511000Y-10254000I-40000J0D01*
G01*
X13765000Y-10000000D02*
G75*
G03*
X13765000Y-10000000I-40000J0D01*
G01*
X14240000Y-11050000D02*
G75*
G03*
X14240000Y-11050000I-40000J0D01*
G01*
X14240000Y-11558000D02*
G75*
G03*
X14240000Y-11558000I-40000J0D01*
G01*
X14494000Y-11304000D02*
G75*
G03*
X14494000Y-11304000I-40000J0D01*
G01*
X16290000Y-11050000D02*
G75*
G03*
X16290000Y-11050000I-40000J0D01*
G01*
X16290000Y-11558000D02*
G75*
G03*
X16290000Y-11558000I-40000J0D01*
G01*
X16544000Y-11304000D02*
G75*
G03*
X16544000Y-11304000I-40000J0D01*
G01*
X16970000Y-10350000D02*
G75*
G03*
X16970000Y-10350000I-40000J0D01*
G01*
X17224000Y-10096000D02*
G75*
G03*
X17224000Y-10096000I-40000J0D01*
G01*
X17478000Y-10350000D02*
G75*
G03*
X17478000Y-10350000I-40000J0D01*
G01*
X10320000Y-8655500D02*
X10320000Y-8744500D01*
X10275500Y-8700000D02*
X10364500Y-8700000D01*
X10320000Y-8909500D02*
X10320000Y-8998500D01*
X10275500Y-8954000D02*
X10364500Y-8954000D01*
X10320000Y-11255500D02*
X10320000Y-11344500D01*
X10275500Y-11300000D02*
X10364500Y-11300000D01*
X10320000Y-11509500D02*
X10320000Y-11598500D01*
X10275500Y-11554000D02*
X10364500Y-11554000D01*
X19630000Y-11451500D02*
X19630000Y-11540500D01*
X19585500Y-11496000D02*
X19674500Y-11496000D01*
X19630000Y-11705500D02*
X19630000Y-11794500D01*
X19585500Y-11750000D02*
X19674500Y-11750000D01*
X12420964Y-8198325D02*
X12420964Y-8134685D01*
X12357323Y-8134685D01*
X12357323Y-8198325D01*
X12420964Y-8198325D01*
X12420964Y-8465315D02*
X12420964Y-8401675D01*
X12357323Y-8401675D01*
X12357323Y-8465315D01*
X12420964Y-8465315D01*
X12420964Y-11598325D02*
X12420964Y-11534685D01*
X12357323Y-11534685D01*
X12357323Y-11598325D01*
X12420964Y-11598325D01*
X12420964Y-11865315D02*
X12420964Y-11801675D01*
X12357323Y-11801675D01*
X12357323Y-11865315D01*
X12420964Y-11865315D01*
X12577897Y-7982325D02*
X12577897Y-7918685D01*
X12514257Y-7918685D01*
X12514257Y-7982325D01*
X12577897Y-7982325D01*
X12577897Y-8681315D02*
X12577897Y-8617675D01*
X12514257Y-8617675D01*
X12514257Y-8681315D01*
X12577897Y-8681315D01*
X12577897Y-11382325D02*
X12577897Y-11318685D01*
X12514257Y-11318685D01*
X12514257Y-11382325D01*
X12577897Y-11382325D01*
X12577897Y-12081315D02*
X12577897Y-12017675D01*
X12514257Y-12017675D01*
X12514257Y-12081315D01*
X12577897Y-12081315D01*
X12831820Y-7899820D02*
X12831820Y-7836180D01*
X12768180Y-7836180D01*
X12768180Y-7899820D01*
X12831820Y-7899820D01*
X12831820Y-8090320D02*
X12831820Y-8026680D01*
X12768180Y-8026680D01*
X12768180Y-8090320D01*
X12831820Y-8090320D01*
X12831820Y-8573320D02*
X12831820Y-8509680D01*
X12768180Y-8509680D01*
X12768180Y-8573320D01*
X12831820Y-8573320D01*
X12831820Y-8763820D02*
X12831820Y-8700180D01*
X12768180Y-8700180D01*
X12768180Y-8763820D01*
X12831820Y-8763820D01*
X12831820Y-11299820D02*
X12831820Y-11236180D01*
X12768180Y-11236180D01*
X12768180Y-11299820D01*
X12831820Y-11299820D01*
X12831820Y-11490320D02*
X12831820Y-11426680D01*
X12768180Y-11426680D01*
X12768180Y-11490320D01*
X12831820Y-11490320D01*
X12831820Y-11973320D02*
X12831820Y-11909680D01*
X12768180Y-11909680D01*
X12768180Y-11973320D01*
X12831820Y-11973320D01*
X12831820Y-12163820D02*
X12831820Y-12100180D01*
X12768180Y-12100180D01*
X12768180Y-12163820D01*
X12831820Y-12163820D01*
X13085743Y-7982325D02*
X13085743Y-7918685D01*
X13022103Y-7918685D01*
X13022103Y-7982325D01*
X13085743Y-7982325D01*
X13085743Y-8681315D02*
X13085743Y-8617675D01*
X13022103Y-8617675D01*
X13022103Y-8681315D01*
X13085743Y-8681315D01*
X13085743Y-11382325D02*
X13085743Y-11318685D01*
X13022103Y-11318685D01*
X13022103Y-11382325D01*
X13085743Y-11382325D01*
X13085743Y-12081315D02*
X13085743Y-12017675D01*
X13022103Y-12017675D01*
X13022103Y-12081315D01*
X13085743Y-12081315D01*
X13242676Y-8198325D02*
X13242676Y-8134685D01*
X13179036Y-8134685D01*
X13179036Y-8198325D01*
X13242676Y-8198325D01*
X13242676Y-8465315D02*
X13242676Y-8401675D01*
X13179036Y-8401675D01*
X13179036Y-8465315D01*
X13242676Y-8465315D01*
X13242676Y-11598325D02*
X13242676Y-11534685D01*
X13179036Y-11534685D01*
X13179036Y-11598325D01*
X13242676Y-11598325D01*
X13242676Y-11865315D02*
X13242676Y-11801675D01*
X13179036Y-11801675D01*
X13179036Y-11865315D01*
X13242676Y-11865315D01*
X14970964Y-11598325D02*
X14970964Y-11534685D01*
X14907323Y-11534685D01*
X14907323Y-11598325D01*
X14970964Y-11598325D01*
X14970964Y-11865315D02*
X14970964Y-11801675D01*
X14907323Y-11801675D01*
X14907323Y-11865315D01*
X14970964Y-11865315D01*
X15127897Y-11382325D02*
X15127897Y-11318685D01*
X15064257Y-11318685D01*
X15064257Y-11382325D01*
X15127897Y-11382325D01*
X15127897Y-12081315D02*
X15127897Y-12017675D01*
X15064257Y-12017675D01*
X15064257Y-12081315D01*
X15127897Y-12081315D01*
X15381820Y-11299820D02*
X15381820Y-11236180D01*
X15318180Y-11236180D01*
X15318180Y-11299820D01*
X15381820Y-11299820D01*
X15381820Y-11490320D02*
X15381820Y-11426680D01*
X15318180Y-11426680D01*
X15318180Y-11490320D01*
X15381820Y-11490320D01*
X15381820Y-11973320D02*
X15381820Y-11909680D01*
X15318180Y-11909680D01*
X15318180Y-11973320D01*
X15381820Y-11973320D01*
X15381820Y-12163820D02*
X15381820Y-12100180D01*
X15318180Y-12100180D01*
X15318180Y-12163820D01*
X15381820Y-12163820D01*
X15635743Y-11382325D02*
X15635743Y-11318685D01*
X15572103Y-11318685D01*
X15572103Y-11382325D01*
X15635743Y-11382325D01*
X15635743Y-12081315D02*
X15635743Y-12017675D01*
X15572103Y-12017675D01*
X15572103Y-12081315D01*
X15635743Y-12081315D01*
X15792676Y-11598325D02*
X15792676Y-11534685D01*
X15729036Y-11534685D01*
X15729036Y-11598325D01*
X15792676Y-11598325D01*
X15792676Y-11865315D02*
X15792676Y-11801675D01*
X15729036Y-11801675D01*
X15729036Y-11865315D01*
X15792676Y-11865315D01*
X16511820Y-9551820D02*
X16511820Y-9488180D01*
X16448180Y-9488180D01*
X16448180Y-9551820D01*
X16511820Y-9551820D01*
X16711820Y-9551820D02*
X16711820Y-9488180D01*
X16648180Y-9488180D01*
X16648180Y-9551820D01*
X16711820Y-9551820D01*
X16911820Y-9551820D02*
X16911820Y-9488180D01*
X16848180Y-9488180D01*
X16848180Y-9551820D01*
X16911820Y-9551820D01*
X17111820Y-9551820D02*
X17111820Y-9488180D01*
X17048180Y-9488180D01*
X17048180Y-9551820D01*
X17111820Y-9551820D01*
X17311820Y-9551820D02*
X17311820Y-9488180D01*
X17248180Y-9488180D01*
X17248180Y-9551820D01*
X17311820Y-9551820D01*
X17321820Y-11231820D02*
X17321820Y-11168180D01*
X17258180Y-11168180D01*
X17258180Y-11231820D01*
X17321820Y-11231820D01*
X17321820Y-11431820D02*
X17321820Y-11368180D01*
X17258180Y-11368180D01*
X17258180Y-11431820D01*
X17321820Y-11431820D01*
X17321820Y-11631820D02*
X17321820Y-11568180D01*
X17258180Y-11568180D01*
X17258180Y-11631820D01*
X17321820Y-11631820D01*
X17321820Y-11831820D02*
X17321820Y-11768180D01*
X17258180Y-11768180D01*
X17258180Y-11831820D01*
X17321820Y-11831820D01*
X17321820Y-12031820D02*
X17321820Y-11968180D01*
X17258180Y-11968180D01*
X17258180Y-12031820D01*
X17321820Y-12031820D01*
X17321820Y-12231820D02*
X17321820Y-12168180D01*
X17258180Y-12168180D01*
X17258180Y-12231820D01*
X17321820Y-12231820D01*
X17511820Y-9551820D02*
X17511820Y-9488180D01*
X17448180Y-9488180D01*
X17448180Y-9551820D01*
X17511820Y-9551820D01*
X19771820Y-10031820D02*
X19771820Y-9968180D01*
X19708180Y-9968180D01*
X19708180Y-10031820D01*
X19771820Y-10031820D01*
X20025820Y-10031820D02*
X20025820Y-9968180D01*
X19962180Y-9968180D01*
X19962180Y-10031820D01*
X20025820Y-10031820D01*
X16100000Y-7640000D02*
X16150000Y-7590000D01*
X16100000Y-7540000D01*
X16050000Y-7590000D01*
X16100000Y-7640000D01*
X16100000Y-7890000D02*
X16150000Y-7840000D01*
X16100000Y-7790000D01*
X16050000Y-7840000D01*
X16100000Y-7890000D01*
X16100000Y-8140000D02*
X16150000Y-8090000D01*
X16100000Y-8040000D01*
X16050000Y-8090000D01*
X16100000Y-8140000D01*
X18400000Y-7640000D02*
X18450000Y-7590000D01*
X18400000Y-7540000D01*
X18350000Y-7590000D01*
X18400000Y-7640000D01*
X18400000Y-7890000D02*
X18450000Y-7840000D01*
X18400000Y-7790000D01*
X18350000Y-7840000D01*
X18400000Y-7890000D01*
X18400000Y-8140000D02*
X18450000Y-8090000D01*
X18400000Y-8040000D01*
X18350000Y-8090000D01*
X18400000Y-8140000D01*
X19740000Y-8300000D02*
X19790000Y-8250000D01*
X19740000Y-8200000D01*
X19690000Y-8250000D01*
X19740000Y-8300000D01*
X19780000Y-8350000D02*
X19780000Y-8150000D01*
X19700000Y-8350000D02*
X19700000Y-8150000D01*
X19780000Y-8150000D02*
G75*
G03*
X19700000Y-8150000I-40000J0D01*
G01*
X19700000Y-8350000D02*
G75*
G03*
X19780000Y-8350000I40000J0D01*
G01*
X20340000Y-8300000D02*
X20390000Y-8250000D01*
X20340000Y-8200000D01*
X20290000Y-8250000D01*
X20340000Y-8300000D01*
X20380000Y-8315000D02*
X20380000Y-8185000D01*
X20300000Y-8315000D02*
X20300000Y-8185000D01*
X20380000Y-8185000D02*
G75*
G03*
X20300000Y-8185000I-40000J0D01*
G01*
X20300000Y-8315000D02*
G75*
G03*
X20380000Y-8315000I40000J0D01*
G01*
X20440000Y-7850000D02*
X20490000Y-7800000D01*
X20440000Y-7750000D01*
X20390000Y-7800000D01*
X20440000Y-7850000D01*
X20365000Y-7840000D02*
X20515000Y-7840000D01*
X20365000Y-7760000D02*
X20515000Y-7760000D01*
X20515000Y-7840000D02*
G75*
G03*
X20515000Y-7760000I0J40000D01*
G01*
X20365000Y-7760000D02*
G75*
G03*
X20365000Y-7840000I0J-40000D01*
G01*
X20440000Y-8750000D02*
X20490000Y-8700000D01*
X20440000Y-8650000D01*
X20390000Y-8700000D01*
X20440000Y-8750000D01*
X20365000Y-8740000D02*
X20515000Y-8740000D01*
X20365000Y-8660000D02*
X20515000Y-8660000D01*
X20515000Y-8740000D02*
G75*
G03*
X20515000Y-8660000I0J40000D01*
G01*
X20365000Y-8660000D02*
G75*
G03*
X20365000Y-8740000I0J-40000D01*
G01*
X16270000Y-9200000D02*
X16390000Y-9320000D01*
X16390000Y-9200000D02*
X16270000Y-9320000D01*
X16390000Y-9260000D02*
G75*
G03*
X16390000Y-9260000I-60000J0D01*
G01*
X16270000Y-9720000D02*
X16390000Y-9840000D01*
X16390000Y-9720000D02*
X16270000Y-9840000D01*
X16390000Y-9780000D02*
G75*
G03*
X16390000Y-9780000I-60000J0D01*
G01*
X16970000Y-10990000D02*
X17090000Y-11110000D01*
X17090000Y-10990000D02*
X16970000Y-11110000D01*
X17090000Y-11050000D02*
G75*
G03*
X17090000Y-11050000I-60000J0D01*
G01*
X16970000Y-12300000D02*
X17090000Y-12420000D01*
X17090000Y-12300000D02*
X16970000Y-12420000D01*
X17090000Y-12360000D02*
G75*
G03*
X17090000Y-12360000I-60000J0D01*
G01*
X17490000Y-10990000D02*
X17610000Y-11110000D01*
X17610000Y-10990000D02*
X17490000Y-11110000D01*
X17610000Y-11050000D02*
G75*
G03*
X17610000Y-11050000I-60000J0D01*
G01*
X17490000Y-12300000D02*
X17610000Y-12420000D01*
X17610000Y-12300000D02*
X17490000Y-12420000D01*
X17610000Y-12360000D02*
G75*
G03*
X17610000Y-12360000I-60000J0D01*
G01*
X17580000Y-9200000D02*
X17700000Y-9320000D01*
X17700000Y-9200000D02*
X17580000Y-9320000D01*
X17700000Y-9260000D02*
G75*
G03*
X17700000Y-9260000I-60000J0D01*
G01*
X17580000Y-9720000D02*
X17700000Y-9840000D01*
X17700000Y-9720000D02*
X17580000Y-9840000D01*
X17700000Y-9780000D02*
G75*
G03*
X17700000Y-9780000I-60000J0D01*
G01*
X9711500Y-8091500D02*
X9912500Y-8292500D01*
X9912500Y-8091500D02*
X9711500Y-8292500D01*
X9812000Y-8091500D02*
X9812000Y-8292500D01*
X9711500Y-8192000D02*
X9912500Y-8192000D01*
X9711500Y-9107500D02*
X9912500Y-9308500D01*
X9912500Y-9107500D02*
X9711500Y-9308500D01*
X9812000Y-9107500D02*
X9812000Y-9308500D01*
X9711500Y-9208000D02*
X9912500Y-9208000D01*
X9711500Y-10691500D02*
X9912500Y-10892500D01*
X9912500Y-10691500D02*
X9711500Y-10892500D01*
X9812000Y-10691500D02*
X9812000Y-10892500D01*
X9711500Y-10792000D02*
X9912500Y-10792000D01*
X9711500Y-11707500D02*
X9912500Y-11908500D01*
X9912500Y-11707500D02*
X9711500Y-11908500D01*
X9812000Y-11707500D02*
X9812000Y-11908500D01*
X9711500Y-11808000D02*
X9912500Y-11808000D01*
X20037500Y-11141500D02*
X20238500Y-11342500D01*
X20238500Y-11141500D02*
X20037500Y-11342500D01*
X20138000Y-11141500D02*
X20138000Y-11342500D01*
X20037500Y-11242000D02*
X20238500Y-11242000D01*
X20037500Y-12157500D02*
X20238500Y-12358500D01*
X20238500Y-12157500D02*
X20037500Y-12358500D01*
X20138000Y-12157500D02*
X20138000Y-12358500D01*
X20037500Y-12258000D02*
X20238500Y-12258000D01*
D12*
X9233928Y-14193214D02*
X9233928Y-13893214D01*
X9305357Y-13893214D01*
X9348214Y-13907500D01*
X9376786Y-13936071D01*
X9391071Y-13964643D01*
X9405357Y-14021786D01*
X9405357Y-14064643D01*
X9391071Y-14121786D01*
X9376786Y-14150357D01*
X9348214Y-14178929D01*
X9305357Y-14193214D01*
X9233928Y-14193214D01*
X9533928Y-14193214D02*
X9533928Y-13993214D01*
X9533928Y-14050357D02*
X9548214Y-14021786D01*
X9562500Y-14007500D01*
X9591071Y-13993214D01*
X9619643Y-13993214D01*
X9719643Y-14193214D02*
X9719643Y-13993214D01*
X9719643Y-13893214D02*
X9705357Y-13907500D01*
X9719643Y-13921786D01*
X9733928Y-13907500D01*
X9719643Y-13893214D01*
X9719643Y-13921786D01*
X9905357Y-14193214D02*
X9876786Y-14178929D01*
X9862500Y-14150357D01*
X9862500Y-13893214D01*
X10062500Y-14193214D02*
X10033928Y-14178929D01*
X10019643Y-14150357D01*
X10019643Y-13893214D01*
X10405357Y-14193214D02*
X10405357Y-13893214D01*
X10505357Y-14107500D01*
X10605357Y-13893214D01*
X10605357Y-14193214D01*
X10876786Y-14193214D02*
X10876786Y-14036071D01*
X10862500Y-14007500D01*
X10833928Y-13993214D01*
X10776786Y-13993214D01*
X10748214Y-14007500D01*
X10876786Y-14178929D02*
X10848214Y-14193214D01*
X10776786Y-14193214D01*
X10748214Y-14178929D01*
X10733928Y-14150357D01*
X10733928Y-14121786D01*
X10748214Y-14093214D01*
X10776786Y-14078929D01*
X10848214Y-14078929D01*
X10876786Y-14064643D01*
X11019643Y-13993214D02*
X11019643Y-14293214D01*
X11019643Y-14007500D02*
X11048214Y-13993214D01*
X11105357Y-13993214D01*
X11133928Y-14007500D01*
X11148214Y-14021786D01*
X11162500Y-14050357D01*
X11162500Y-14136071D01*
X11148214Y-14164643D01*
X11133928Y-14178929D01*
X11105357Y-14193214D01*
X11048214Y-14193214D01*
X11019643Y-14178929D01*
X11291071Y-14164643D02*
X11305357Y-14178929D01*
X11291071Y-14193214D01*
X11276786Y-14178929D01*
X11291071Y-14164643D01*
X11291071Y-14193214D01*
X11291071Y-14007500D02*
X11305357Y-14021786D01*
X11291071Y-14036071D01*
X11276786Y-14021786D01*
X11291071Y-14007500D01*
X11291071Y-14036071D01*
X8902500Y-14665000D02*
X8947500Y-14710000D01*
X8947500Y-14665000D02*
X8902500Y-14710000D01*
X9291071Y-14523214D02*
X9319643Y-14523214D01*
X9348214Y-14537500D01*
X9362500Y-14551786D01*
X9376786Y-14580357D01*
X9391071Y-14637500D01*
X9391071Y-14708929D01*
X9376786Y-14766071D01*
X9362500Y-14794643D01*
X9348214Y-14808929D01*
X9319643Y-14823214D01*
X9291071Y-14823214D01*
X9262500Y-14808929D01*
X9248214Y-14794643D01*
X9233928Y-14766071D01*
X9219643Y-14708929D01*
X9219643Y-14637500D01*
X9233928Y-14580357D01*
X9248214Y-14551786D01*
X9262500Y-14537500D01*
X9291071Y-14523214D01*
X9519643Y-14794643D02*
X9533928Y-14808929D01*
X9519643Y-14823214D01*
X9505357Y-14808929D01*
X9519643Y-14794643D01*
X9519643Y-14823214D01*
X9791071Y-14623214D02*
X9791071Y-14823214D01*
X9719643Y-14508929D02*
X9648214Y-14723214D01*
X9833928Y-14723214D01*
X10091071Y-14523214D02*
X9948214Y-14523214D01*
X9933928Y-14666071D01*
X9948214Y-14651786D01*
X9976786Y-14637500D01*
X10048214Y-14637500D01*
X10076786Y-14651786D01*
X10091071Y-14666071D01*
X10105357Y-14694643D01*
X10105357Y-14766071D01*
X10091071Y-14794643D01*
X10076786Y-14808929D01*
X10048214Y-14823214D01*
X9976786Y-14823214D01*
X9948214Y-14808929D01*
X9933928Y-14794643D01*
X10233928Y-14823214D02*
X10233928Y-14623214D01*
X10233928Y-14651786D02*
X10248214Y-14637500D01*
X10276786Y-14623214D01*
X10319643Y-14623214D01*
X10348214Y-14637500D01*
X10362500Y-14666071D01*
X10362500Y-14823214D01*
X10362500Y-14666071D02*
X10376786Y-14637500D01*
X10405357Y-14623214D01*
X10448214Y-14623214D01*
X10476786Y-14637500D01*
X10491071Y-14666071D01*
X10491071Y-14823214D01*
X10633928Y-14823214D02*
X10633928Y-14623214D01*
X10633928Y-14651786D02*
X10648214Y-14637500D01*
X10676786Y-14623214D01*
X10719643Y-14623214D01*
X10748214Y-14637500D01*
X10762500Y-14666071D01*
X10762500Y-14823214D01*
X10762500Y-14666071D02*
X10776786Y-14637500D01*
X10805357Y-14623214D01*
X10848214Y-14623214D01*
X10876786Y-14637500D01*
X10891071Y-14666071D01*
X10891071Y-14823214D01*
X11476786Y-14508929D02*
X11219643Y-14894643D01*
X11862500Y-14523214D02*
X11891071Y-14523214D01*
X11919643Y-14537500D01*
X11933928Y-14551786D01*
X11948214Y-14580357D01*
X11962500Y-14637500D01*
X11962500Y-14708929D01*
X11948214Y-14766071D01*
X11933928Y-14794643D01*
X11919643Y-14808929D01*
X11891071Y-14823214D01*
X11862500Y-14823214D01*
X11833928Y-14808929D01*
X11819643Y-14794643D01*
X11805357Y-14766071D01*
X11791071Y-14708929D01*
X11791071Y-14637500D01*
X11805357Y-14580357D01*
X11819643Y-14551786D01*
X11833928Y-14537500D01*
X11862500Y-14523214D01*
X12091071Y-14794643D02*
X12105357Y-14808929D01*
X12091071Y-14823214D01*
X12076786Y-14808929D01*
X12091071Y-14794643D01*
X12091071Y-14823214D01*
X12291071Y-14523214D02*
X12319643Y-14523214D01*
X12348214Y-14537500D01*
X12362500Y-14551786D01*
X12376786Y-14580357D01*
X12391071Y-14637500D01*
X12391071Y-14708929D01*
X12376786Y-14766071D01*
X12362500Y-14794643D01*
X12348214Y-14808929D01*
X12319643Y-14823214D01*
X12291071Y-14823214D01*
X12262500Y-14808929D01*
X12248214Y-14794643D01*
X12233928Y-14766071D01*
X12219643Y-14708929D01*
X12219643Y-14637500D01*
X12233928Y-14580357D01*
X12248214Y-14551786D01*
X12262500Y-14537500D01*
X12291071Y-14523214D01*
X12676786Y-14823214D02*
X12505357Y-14823214D01*
X12591071Y-14823214D02*
X12591071Y-14523214D01*
X12562500Y-14566071D01*
X12533928Y-14594643D01*
X12505357Y-14608929D01*
X12848214Y-14651786D02*
X12819643Y-14637500D01*
X12805357Y-14623214D01*
X12791071Y-14594643D01*
X12791071Y-14580357D01*
X12805357Y-14551786D01*
X12819643Y-14537500D01*
X12848214Y-14523214D01*
X12905357Y-14523214D01*
X12933928Y-14537500D01*
X12948214Y-14551786D01*
X12962500Y-14580357D01*
X12962500Y-14594643D01*
X12948214Y-14623214D01*
X12933928Y-14637500D01*
X12905357Y-14651786D01*
X12848214Y-14651786D01*
X12819643Y-14666071D01*
X12805357Y-14680357D01*
X12791071Y-14708929D01*
X12791071Y-14766071D01*
X12805357Y-14794643D01*
X12819643Y-14808929D01*
X12848214Y-14823214D01*
X12905357Y-14823214D01*
X12933928Y-14808929D01*
X12948214Y-14794643D01*
X12962500Y-14766071D01*
X12962500Y-14708929D01*
X12948214Y-14680357D01*
X12933928Y-14666071D01*
X12905357Y-14651786D01*
X13076786Y-14523214D02*
X13076786Y-14580357D01*
X13191071Y-14523214D02*
X13191071Y-14580357D01*
X13633928Y-14937500D02*
X13619643Y-14923214D01*
X13591071Y-14880357D01*
X13576786Y-14851786D01*
X13562500Y-14808929D01*
X13548214Y-14737500D01*
X13548214Y-14680357D01*
X13562500Y-14608929D01*
X13576786Y-14566071D01*
X13591071Y-14537500D01*
X13619643Y-14494643D01*
X13633928Y-14480357D01*
X13905357Y-14823214D02*
X13733928Y-14823214D01*
X13819643Y-14823214D02*
X13819643Y-14523214D01*
X13791071Y-14566071D01*
X13762500Y-14594643D01*
X13733928Y-14608929D01*
X14019643Y-14551786D02*
X14033928Y-14537500D01*
X14062500Y-14523214D01*
X14133928Y-14523214D01*
X14162500Y-14537500D01*
X14176786Y-14551786D01*
X14191071Y-14580357D01*
X14191071Y-14608929D01*
X14176786Y-14651786D01*
X14005357Y-14823214D01*
X14191071Y-14823214D01*
X14362500Y-14651786D02*
X14333928Y-14637500D01*
X14319643Y-14623214D01*
X14305357Y-14594643D01*
X14305357Y-14580357D01*
X14319643Y-14551786D01*
X14333928Y-14537500D01*
X14362500Y-14523214D01*
X14419643Y-14523214D01*
X14448214Y-14537500D01*
X14462500Y-14551786D01*
X14476786Y-14580357D01*
X14476786Y-14594643D01*
X14462500Y-14623214D01*
X14448214Y-14637500D01*
X14419643Y-14651786D01*
X14362500Y-14651786D01*
X14333928Y-14666071D01*
X14319643Y-14680357D01*
X14305357Y-14708929D01*
X14305357Y-14766071D01*
X14319643Y-14794643D01*
X14333928Y-14808929D01*
X14362500Y-14823214D01*
X14419643Y-14823214D01*
X14448214Y-14808929D01*
X14462500Y-14794643D01*
X14476786Y-14766071D01*
X14476786Y-14708929D01*
X14462500Y-14680357D01*
X14448214Y-14666071D01*
X14419643Y-14651786D01*
X14833928Y-14823214D02*
X14833928Y-14523214D01*
X14962500Y-14823214D02*
X14962500Y-14666071D01*
X14948214Y-14637500D01*
X14919643Y-14623214D01*
X14876786Y-14623214D01*
X14848214Y-14637500D01*
X14833928Y-14651786D01*
X15148214Y-14823214D02*
X15119643Y-14808929D01*
X15105357Y-14794643D01*
X15091071Y-14766071D01*
X15091071Y-14680357D01*
X15105357Y-14651786D01*
X15119643Y-14637500D01*
X15148214Y-14623214D01*
X15191071Y-14623214D01*
X15219643Y-14637500D01*
X15233928Y-14651786D01*
X15248214Y-14680357D01*
X15248214Y-14766071D01*
X15233928Y-14794643D01*
X15219643Y-14808929D01*
X15191071Y-14823214D01*
X15148214Y-14823214D01*
X15419643Y-14823214D02*
X15391071Y-14808929D01*
X15376786Y-14780357D01*
X15376786Y-14523214D01*
X15648214Y-14808929D02*
X15619643Y-14823214D01*
X15562500Y-14823214D01*
X15533928Y-14808929D01*
X15519643Y-14780357D01*
X15519643Y-14666071D01*
X15533928Y-14637500D01*
X15562500Y-14623214D01*
X15619643Y-14623214D01*
X15648214Y-14637500D01*
X15662500Y-14666071D01*
X15662500Y-14694643D01*
X15519643Y-14723214D01*
X15776786Y-14808929D02*
X15805357Y-14823214D01*
X15862500Y-14823214D01*
X15891071Y-14808929D01*
X15905357Y-14780357D01*
X15905357Y-14766071D01*
X15891071Y-14737500D01*
X15862500Y-14723214D01*
X15819643Y-14723214D01*
X15791071Y-14708929D01*
X15776786Y-14680357D01*
X15776786Y-14666071D01*
X15791071Y-14637500D01*
X15819643Y-14623214D01*
X15862500Y-14623214D01*
X15891071Y-14637500D01*
X16005357Y-14937500D02*
X16019643Y-14923214D01*
X16048214Y-14880357D01*
X16062500Y-14851786D01*
X16076786Y-14808929D01*
X16091071Y-14737500D01*
X16091071Y-14680357D01*
X16076786Y-14608929D01*
X16062500Y-14566071D01*
X16048214Y-14537500D01*
X16019643Y-14494643D01*
X16005357Y-14480357D01*
X8947500Y-15083500D02*
G75*
G03*
X8947500Y-15083500I-40000J0D01*
G01*
X9291071Y-14919214D02*
X9319643Y-14919214D01*
X9348214Y-14933500D01*
X9362500Y-14947786D01*
X9376786Y-14976357D01*
X9391071Y-15033500D01*
X9391071Y-15104929D01*
X9376786Y-15162071D01*
X9362500Y-15190643D01*
X9348214Y-15204929D01*
X9319643Y-15219214D01*
X9291071Y-15219214D01*
X9262500Y-15204929D01*
X9248214Y-15190643D01*
X9233928Y-15162071D01*
X9219643Y-15104929D01*
X9219643Y-15033500D01*
X9233928Y-14976357D01*
X9248214Y-14947786D01*
X9262500Y-14933500D01*
X9291071Y-14919214D01*
X9519643Y-15190643D02*
X9533928Y-15204929D01*
X9519643Y-15219214D01*
X9505357Y-15204929D01*
X9519643Y-15190643D01*
X9519643Y-15219214D01*
X9705357Y-15047786D02*
X9676786Y-15033500D01*
X9662500Y-15019214D01*
X9648214Y-14990643D01*
X9648214Y-14976357D01*
X9662500Y-14947786D01*
X9676786Y-14933500D01*
X9705357Y-14919214D01*
X9762500Y-14919214D01*
X9791071Y-14933500D01*
X9805357Y-14947786D01*
X9819643Y-14976357D01*
X9819643Y-14990643D01*
X9805357Y-15019214D01*
X9791071Y-15033500D01*
X9762500Y-15047786D01*
X9705357Y-15047786D01*
X9676786Y-15062071D01*
X9662500Y-15076357D01*
X9648214Y-15104929D01*
X9648214Y-15162071D01*
X9662500Y-15190643D01*
X9676786Y-15204929D01*
X9705357Y-15219214D01*
X9762500Y-15219214D01*
X9791071Y-15204929D01*
X9805357Y-15190643D01*
X9819643Y-15162071D01*
X9819643Y-15104929D01*
X9805357Y-15076357D01*
X9791071Y-15062071D01*
X9762500Y-15047786D01*
X10005357Y-14919214D02*
X10033928Y-14919214D01*
X10062500Y-14933500D01*
X10076786Y-14947786D01*
X10091071Y-14976357D01*
X10105357Y-15033500D01*
X10105357Y-15104929D01*
X10091071Y-15162071D01*
X10076786Y-15190643D01*
X10062500Y-15204929D01*
X10033928Y-15219214D01*
X10005357Y-15219214D01*
X9976786Y-15204929D01*
X9962500Y-15190643D01*
X9948214Y-15162071D01*
X9933928Y-15104929D01*
X9933928Y-15033500D01*
X9948214Y-14976357D01*
X9962500Y-14947786D01*
X9976786Y-14933500D01*
X10005357Y-14919214D01*
X10233928Y-15219214D02*
X10233928Y-15019214D01*
X10233928Y-15047786D02*
X10248214Y-15033500D01*
X10276786Y-15019214D01*
X10319643Y-15019214D01*
X10348214Y-15033500D01*
X10362500Y-15062071D01*
X10362500Y-15219214D01*
X10362500Y-15062071D02*
X10376786Y-15033500D01*
X10405357Y-15019214D01*
X10448214Y-15019214D01*
X10476786Y-15033500D01*
X10491071Y-15062071D01*
X10491071Y-15219214D01*
X10633928Y-15219214D02*
X10633928Y-15019214D01*
X10633928Y-15047786D02*
X10648214Y-15033500D01*
X10676786Y-15019214D01*
X10719643Y-15019214D01*
X10748214Y-15033500D01*
X10762500Y-15062071D01*
X10762500Y-15219214D01*
X10762500Y-15062071D02*
X10776786Y-15033500D01*
X10805357Y-15019214D01*
X10848214Y-15019214D01*
X10876786Y-15033500D01*
X10891071Y-15062071D01*
X10891071Y-15219214D01*
X11476786Y-14904929D02*
X11219643Y-15290643D01*
X11862500Y-14919214D02*
X11891071Y-14919214D01*
X11919643Y-14933500D01*
X11933928Y-14947786D01*
X11948214Y-14976357D01*
X11962500Y-15033500D01*
X11962500Y-15104929D01*
X11948214Y-15162071D01*
X11933928Y-15190643D01*
X11919643Y-15204929D01*
X11891071Y-15219214D01*
X11862500Y-15219214D01*
X11833928Y-15204929D01*
X11819643Y-15190643D01*
X11805357Y-15162071D01*
X11791071Y-15104929D01*
X11791071Y-15033500D01*
X11805357Y-14976357D01*
X11819643Y-14947786D01*
X11833928Y-14933500D01*
X11862500Y-14919214D01*
X12091071Y-15190643D02*
X12105357Y-15204929D01*
X12091071Y-15219214D01*
X12076786Y-15204929D01*
X12091071Y-15190643D01*
X12091071Y-15219214D01*
X12291071Y-14919214D02*
X12319643Y-14919214D01*
X12348214Y-14933500D01*
X12362500Y-14947786D01*
X12376786Y-14976357D01*
X12391071Y-15033500D01*
X12391071Y-15104929D01*
X12376786Y-15162071D01*
X12362500Y-15190643D01*
X12348214Y-15204929D01*
X12319643Y-15219214D01*
X12291071Y-15219214D01*
X12262500Y-15204929D01*
X12248214Y-15190643D01*
X12233928Y-15162071D01*
X12219643Y-15104929D01*
X12219643Y-15033500D01*
X12233928Y-14976357D01*
X12248214Y-14947786D01*
X12262500Y-14933500D01*
X12291071Y-14919214D01*
X12491071Y-14919214D02*
X12676786Y-14919214D01*
X12576786Y-15033500D01*
X12619643Y-15033500D01*
X12648214Y-15047786D01*
X12662500Y-15062071D01*
X12676786Y-15090643D01*
X12676786Y-15162071D01*
X12662500Y-15190643D01*
X12648214Y-15204929D01*
X12619643Y-15219214D01*
X12533928Y-15219214D01*
X12505357Y-15204929D01*
X12491071Y-15190643D01*
X12962500Y-15219214D02*
X12791071Y-15219214D01*
X12876786Y-15219214D02*
X12876786Y-14919214D01*
X12848214Y-14962071D01*
X12819643Y-14990643D01*
X12791071Y-15004929D01*
X13076786Y-14919214D02*
X13076786Y-14976357D01*
X13191071Y-14919214D02*
X13191071Y-14976357D01*
X13633928Y-15333500D02*
X13619643Y-15319214D01*
X13591071Y-15276357D01*
X13576786Y-15247786D01*
X13562500Y-15204929D01*
X13548214Y-15133500D01*
X13548214Y-15076357D01*
X13562500Y-15004929D01*
X13576786Y-14962071D01*
X13591071Y-14933500D01*
X13619643Y-14890643D01*
X13633928Y-14876357D01*
X13905357Y-15219214D02*
X13733928Y-15219214D01*
X13819643Y-15219214D02*
X13819643Y-14919214D01*
X13791071Y-14962071D01*
X13762500Y-14990643D01*
X13733928Y-15004929D01*
X14162500Y-14919214D02*
X14105357Y-14919214D01*
X14076786Y-14933500D01*
X14062500Y-14947786D01*
X14033928Y-14990643D01*
X14019643Y-15047786D01*
X14019643Y-15162071D01*
X14033928Y-15190643D01*
X14048214Y-15204929D01*
X14076786Y-15219214D01*
X14133928Y-15219214D01*
X14162500Y-15204929D01*
X14176786Y-15190643D01*
X14191071Y-15162071D01*
X14191071Y-15090643D01*
X14176786Y-15062071D01*
X14162500Y-15047786D01*
X14133928Y-15033500D01*
X14076786Y-15033500D01*
X14048214Y-15047786D01*
X14033928Y-15062071D01*
X14019643Y-15090643D01*
X14548214Y-15219214D02*
X14548214Y-14919214D01*
X14676786Y-15219214D02*
X14676786Y-15062071D01*
X14662500Y-15033500D01*
X14633928Y-15019214D01*
X14591071Y-15019214D01*
X14562500Y-15033500D01*
X14548214Y-15047786D01*
X14862500Y-15219214D02*
X14833928Y-15204929D01*
X14819643Y-15190643D01*
X14805357Y-15162071D01*
X14805357Y-15076357D01*
X14819643Y-15047786D01*
X14833928Y-15033500D01*
X14862500Y-15019214D01*
X14905357Y-15019214D01*
X14933928Y-15033500D01*
X14948214Y-15047786D01*
X14962500Y-15076357D01*
X14962500Y-15162071D01*
X14948214Y-15190643D01*
X14933928Y-15204929D01*
X14905357Y-15219214D01*
X14862500Y-15219214D01*
X15133928Y-15219214D02*
X15105357Y-15204929D01*
X15091071Y-15176357D01*
X15091071Y-14919214D01*
X15362500Y-15204929D02*
X15333928Y-15219214D01*
X15276786Y-15219214D01*
X15248214Y-15204929D01*
X15233928Y-15176357D01*
X15233928Y-15062071D01*
X15248214Y-15033500D01*
X15276786Y-15019214D01*
X15333928Y-15019214D01*
X15362500Y-15033500D01*
X15376786Y-15062071D01*
X15376786Y-15090643D01*
X15233928Y-15119214D01*
X15491071Y-15204929D02*
X15519643Y-15219214D01*
X15576786Y-15219214D01*
X15605357Y-15204929D01*
X15619643Y-15176357D01*
X15619643Y-15162071D01*
X15605357Y-15133500D01*
X15576786Y-15119214D01*
X15533928Y-15119214D01*
X15505357Y-15104929D01*
X15491071Y-15076357D01*
X15491071Y-15062071D01*
X15505357Y-15033500D01*
X15533928Y-15019214D01*
X15576786Y-15019214D01*
X15605357Y-15033500D01*
X15719643Y-15333500D02*
X15733928Y-15319214D01*
X15762500Y-15276357D01*
X15776786Y-15247786D01*
X15791071Y-15204929D01*
X15805357Y-15133500D01*
X15805357Y-15076357D01*
X15791071Y-15004929D01*
X15776786Y-14962071D01*
X15762500Y-14933500D01*
X15733928Y-14890643D01*
X15719643Y-14876357D01*
X8903000Y-15435000D02*
X8903000Y-15524000D01*
X8858500Y-15479500D02*
X8947500Y-15479500D01*
X9291071Y-15315214D02*
X9319643Y-15315214D01*
X9348214Y-15329500D01*
X9362500Y-15343786D01*
X9376786Y-15372357D01*
X9391071Y-15429500D01*
X9391071Y-15500929D01*
X9376786Y-15558071D01*
X9362500Y-15586643D01*
X9348214Y-15600929D01*
X9319643Y-15615214D01*
X9291071Y-15615214D01*
X9262500Y-15600929D01*
X9248214Y-15586643D01*
X9233928Y-15558071D01*
X9219643Y-15500929D01*
X9219643Y-15429500D01*
X9233928Y-15372357D01*
X9248214Y-15343786D01*
X9262500Y-15329500D01*
X9291071Y-15315214D01*
X9519643Y-15586643D02*
X9533928Y-15600929D01*
X9519643Y-15615214D01*
X9505357Y-15600929D01*
X9519643Y-15586643D01*
X9519643Y-15615214D01*
X9705357Y-15443786D02*
X9676786Y-15429500D01*
X9662500Y-15415214D01*
X9648214Y-15386643D01*
X9648214Y-15372357D01*
X9662500Y-15343786D01*
X9676786Y-15329500D01*
X9705357Y-15315214D01*
X9762500Y-15315214D01*
X9791071Y-15329500D01*
X9805357Y-15343786D01*
X9819643Y-15372357D01*
X9819643Y-15386643D01*
X9805357Y-15415214D01*
X9791071Y-15429500D01*
X9762500Y-15443786D01*
X9705357Y-15443786D01*
X9676786Y-15458071D01*
X9662500Y-15472357D01*
X9648214Y-15500929D01*
X9648214Y-15558071D01*
X9662500Y-15586643D01*
X9676786Y-15600929D01*
X9705357Y-15615214D01*
X9762500Y-15615214D01*
X9791071Y-15600929D01*
X9805357Y-15586643D01*
X9819643Y-15558071D01*
X9819643Y-15500929D01*
X9805357Y-15472357D01*
X9791071Y-15458071D01*
X9762500Y-15443786D01*
X9962500Y-15615214D02*
X10019643Y-15615214D01*
X10048214Y-15600929D01*
X10062500Y-15586643D01*
X10091071Y-15543786D01*
X10105357Y-15486643D01*
X10105357Y-15372357D01*
X10091071Y-15343786D01*
X10076786Y-15329500D01*
X10048214Y-15315214D01*
X9991071Y-15315214D01*
X9962500Y-15329500D01*
X9948214Y-15343786D01*
X9933928Y-15372357D01*
X9933928Y-15443786D01*
X9948214Y-15472357D01*
X9962500Y-15486643D01*
X9991071Y-15500929D01*
X10048214Y-15500929D01*
X10076786Y-15486643D01*
X10091071Y-15472357D01*
X10105357Y-15443786D01*
X10233928Y-15615214D02*
X10233928Y-15415214D01*
X10233928Y-15443786D02*
X10248214Y-15429500D01*
X10276786Y-15415214D01*
X10319643Y-15415214D01*
X10348214Y-15429500D01*
X10362500Y-15458071D01*
X10362500Y-15615214D01*
X10362500Y-15458071D02*
X10376786Y-15429500D01*
X10405357Y-15415214D01*
X10448214Y-15415214D01*
X10476786Y-15429500D01*
X10491071Y-15458071D01*
X10491071Y-15615214D01*
X10633928Y-15615214D02*
X10633928Y-15415214D01*
X10633928Y-15443786D02*
X10648214Y-15429500D01*
X10676786Y-15415214D01*
X10719643Y-15415214D01*
X10748214Y-15429500D01*
X10762500Y-15458071D01*
X10762500Y-15615214D01*
X10762500Y-15458071D02*
X10776786Y-15429500D01*
X10805357Y-15415214D01*
X10848214Y-15415214D01*
X10876786Y-15429500D01*
X10891071Y-15458071D01*
X10891071Y-15615214D01*
X11476786Y-15300929D02*
X11219643Y-15686643D01*
X11862500Y-15315214D02*
X11891071Y-15315214D01*
X11919643Y-15329500D01*
X11933928Y-15343786D01*
X11948214Y-15372357D01*
X11962500Y-15429500D01*
X11962500Y-15500929D01*
X11948214Y-15558071D01*
X11933928Y-15586643D01*
X11919643Y-15600929D01*
X11891071Y-15615214D01*
X11862500Y-15615214D01*
X11833928Y-15600929D01*
X11819643Y-15586643D01*
X11805357Y-15558071D01*
X11791071Y-15500929D01*
X11791071Y-15429500D01*
X11805357Y-15372357D01*
X11819643Y-15343786D01*
X11833928Y-15329500D01*
X11862500Y-15315214D01*
X12091071Y-15586643D02*
X12105357Y-15600929D01*
X12091071Y-15615214D01*
X12076786Y-15600929D01*
X12091071Y-15586643D01*
X12091071Y-15615214D01*
X12291071Y-15315214D02*
X12319643Y-15315214D01*
X12348214Y-15329500D01*
X12362500Y-15343786D01*
X12376786Y-15372357D01*
X12391071Y-15429500D01*
X12391071Y-15500929D01*
X12376786Y-15558071D01*
X12362500Y-15586643D01*
X12348214Y-15600929D01*
X12319643Y-15615214D01*
X12291071Y-15615214D01*
X12262500Y-15600929D01*
X12248214Y-15586643D01*
X12233928Y-15558071D01*
X12219643Y-15500929D01*
X12219643Y-15429500D01*
X12233928Y-15372357D01*
X12248214Y-15343786D01*
X12262500Y-15329500D01*
X12291071Y-15315214D01*
X12491071Y-15315214D02*
X12676786Y-15315214D01*
X12576786Y-15429500D01*
X12619643Y-15429500D01*
X12648214Y-15443786D01*
X12662500Y-15458071D01*
X12676786Y-15486643D01*
X12676786Y-15558071D01*
X12662500Y-15586643D01*
X12648214Y-15600929D01*
X12619643Y-15615214D01*
X12533928Y-15615214D01*
X12505357Y-15600929D01*
X12491071Y-15586643D01*
X12948214Y-15315214D02*
X12805357Y-15315214D01*
X12791071Y-15458071D01*
X12805357Y-15443786D01*
X12833928Y-15429500D01*
X12905357Y-15429500D01*
X12933928Y-15443786D01*
X12948214Y-15458071D01*
X12962500Y-15486643D01*
X12962500Y-15558071D01*
X12948214Y-15586643D01*
X12933928Y-15600929D01*
X12905357Y-15615214D01*
X12833928Y-15615214D01*
X12805357Y-15600929D01*
X12791071Y-15586643D01*
X13076786Y-15315214D02*
X13076786Y-15372357D01*
X13191071Y-15315214D02*
X13191071Y-15372357D01*
X13633928Y-15729500D02*
X13619643Y-15715214D01*
X13591071Y-15672357D01*
X13576786Y-15643786D01*
X13562500Y-15600929D01*
X13548214Y-15529500D01*
X13548214Y-15472357D01*
X13562500Y-15400929D01*
X13576786Y-15358071D01*
X13591071Y-15329500D01*
X13619643Y-15286643D01*
X13633928Y-15272357D01*
X13876786Y-15315214D02*
X13819643Y-15315214D01*
X13791071Y-15329500D01*
X13776786Y-15343786D01*
X13748214Y-15386643D01*
X13733928Y-15443786D01*
X13733928Y-15558071D01*
X13748214Y-15586643D01*
X13762500Y-15600929D01*
X13791071Y-15615214D01*
X13848214Y-15615214D01*
X13876786Y-15600929D01*
X13891071Y-15586643D01*
X13905357Y-15558071D01*
X13905357Y-15486643D01*
X13891071Y-15458071D01*
X13876786Y-15443786D01*
X13848214Y-15429500D01*
X13791071Y-15429500D01*
X13762500Y-15443786D01*
X13748214Y-15458071D01*
X13733928Y-15486643D01*
X14262500Y-15615214D02*
X14262500Y-15315214D01*
X14391071Y-15615214D02*
X14391071Y-15458071D01*
X14376786Y-15429500D01*
X14348214Y-15415214D01*
X14305357Y-15415214D01*
X14276786Y-15429500D01*
X14262500Y-15443786D01*
X14576786Y-15615214D02*
X14548214Y-15600929D01*
X14533928Y-15586643D01*
X14519643Y-15558071D01*
X14519643Y-15472357D01*
X14533928Y-15443786D01*
X14548214Y-15429500D01*
X14576786Y-15415214D01*
X14619643Y-15415214D01*
X14648214Y-15429500D01*
X14662500Y-15443786D01*
X14676786Y-15472357D01*
X14676786Y-15558071D01*
X14662500Y-15586643D01*
X14648214Y-15600929D01*
X14619643Y-15615214D01*
X14576786Y-15615214D01*
X14848214Y-15615214D02*
X14819643Y-15600929D01*
X14805357Y-15572357D01*
X14805357Y-15315214D01*
X15076786Y-15600929D02*
X15048214Y-15615214D01*
X14991071Y-15615214D01*
X14962500Y-15600929D01*
X14948214Y-15572357D01*
X14948214Y-15458071D01*
X14962500Y-15429500D01*
X14991071Y-15415214D01*
X15048214Y-15415214D01*
X15076786Y-15429500D01*
X15091071Y-15458071D01*
X15091071Y-15486643D01*
X14948214Y-15515214D01*
X15205357Y-15600929D02*
X15233928Y-15615214D01*
X15291071Y-15615214D01*
X15319643Y-15600929D01*
X15333928Y-15572357D01*
X15333928Y-15558071D01*
X15319643Y-15529500D01*
X15291071Y-15515214D01*
X15248214Y-15515214D01*
X15219643Y-15500929D01*
X15205357Y-15472357D01*
X15205357Y-15458071D01*
X15219643Y-15429500D01*
X15248214Y-15415214D01*
X15291071Y-15415214D01*
X15319643Y-15429500D01*
X15433928Y-15729500D02*
X15448214Y-15715214D01*
X15476786Y-15672357D01*
X15491071Y-15643786D01*
X15505357Y-15600929D01*
X15519643Y-15529500D01*
X15519643Y-15472357D01*
X15505357Y-15400929D01*
X15491071Y-15358071D01*
X15476786Y-15329500D01*
X15448214Y-15286643D01*
X15433928Y-15272357D01*
X8934320Y-15907320D02*
X8934320Y-15843680D01*
X8870680Y-15843680D01*
X8870680Y-15907320D01*
X8934320Y-15907320D01*
X9291071Y-15711214D02*
X9319643Y-15711214D01*
X9348214Y-15725500D01*
X9362500Y-15739786D01*
X9376786Y-15768357D01*
X9391071Y-15825500D01*
X9391071Y-15896929D01*
X9376786Y-15954071D01*
X9362500Y-15982643D01*
X9348214Y-15996929D01*
X9319643Y-16011214D01*
X9291071Y-16011214D01*
X9262500Y-15996929D01*
X9248214Y-15982643D01*
X9233928Y-15954071D01*
X9219643Y-15896929D01*
X9219643Y-15825500D01*
X9233928Y-15768357D01*
X9248214Y-15739786D01*
X9262500Y-15725500D01*
X9291071Y-15711214D01*
X9519643Y-15982643D02*
X9533928Y-15996929D01*
X9519643Y-16011214D01*
X9505357Y-15996929D01*
X9519643Y-15982643D01*
X9519643Y-16011214D01*
X9676786Y-16011214D02*
X9733928Y-16011214D01*
X9762500Y-15996929D01*
X9776786Y-15982643D01*
X9805357Y-15939786D01*
X9819643Y-15882643D01*
X9819643Y-15768357D01*
X9805357Y-15739786D01*
X9791071Y-15725500D01*
X9762500Y-15711214D01*
X9705357Y-15711214D01*
X9676786Y-15725500D01*
X9662500Y-15739786D01*
X9648214Y-15768357D01*
X9648214Y-15839786D01*
X9662500Y-15868357D01*
X9676786Y-15882643D01*
X9705357Y-15896929D01*
X9762500Y-15896929D01*
X9791071Y-15882643D01*
X9805357Y-15868357D01*
X9819643Y-15839786D01*
X10005357Y-15711214D02*
X10033928Y-15711214D01*
X10062500Y-15725500D01*
X10076786Y-15739786D01*
X10091071Y-15768357D01*
X10105357Y-15825500D01*
X10105357Y-15896929D01*
X10091071Y-15954071D01*
X10076786Y-15982643D01*
X10062500Y-15996929D01*
X10033928Y-16011214D01*
X10005357Y-16011214D01*
X9976786Y-15996929D01*
X9962500Y-15982643D01*
X9948214Y-15954071D01*
X9933928Y-15896929D01*
X9933928Y-15825500D01*
X9948214Y-15768357D01*
X9962500Y-15739786D01*
X9976786Y-15725500D01*
X10005357Y-15711214D01*
X10233928Y-16011214D02*
X10233928Y-15811214D01*
X10233928Y-15839786D02*
X10248214Y-15825500D01*
X10276786Y-15811214D01*
X10319643Y-15811214D01*
X10348214Y-15825500D01*
X10362500Y-15854071D01*
X10362500Y-16011214D01*
X10362500Y-15854071D02*
X10376786Y-15825500D01*
X10405357Y-15811214D01*
X10448214Y-15811214D01*
X10476786Y-15825500D01*
X10491071Y-15854071D01*
X10491071Y-16011214D01*
X10633928Y-16011214D02*
X10633928Y-15811214D01*
X10633928Y-15839786D02*
X10648214Y-15825500D01*
X10676786Y-15811214D01*
X10719643Y-15811214D01*
X10748214Y-15825500D01*
X10762500Y-15854071D01*
X10762500Y-16011214D01*
X10762500Y-15854071D02*
X10776786Y-15825500D01*
X10805357Y-15811214D01*
X10848214Y-15811214D01*
X10876786Y-15825500D01*
X10891071Y-15854071D01*
X10891071Y-16011214D01*
X11476786Y-15696929D02*
X11219643Y-16082643D01*
X11862500Y-15711214D02*
X11891071Y-15711214D01*
X11919643Y-15725500D01*
X11933928Y-15739786D01*
X11948214Y-15768357D01*
X11962500Y-15825500D01*
X11962500Y-15896929D01*
X11948214Y-15954071D01*
X11933928Y-15982643D01*
X11919643Y-15996929D01*
X11891071Y-16011214D01*
X11862500Y-16011214D01*
X11833928Y-15996929D01*
X11819643Y-15982643D01*
X11805357Y-15954071D01*
X11791071Y-15896929D01*
X11791071Y-15825500D01*
X11805357Y-15768357D01*
X11819643Y-15739786D01*
X11833928Y-15725500D01*
X11862500Y-15711214D01*
X12091071Y-15982643D02*
X12105357Y-15996929D01*
X12091071Y-16011214D01*
X12076786Y-15996929D01*
X12091071Y-15982643D01*
X12091071Y-16011214D01*
X12291071Y-15711214D02*
X12319643Y-15711214D01*
X12348214Y-15725500D01*
X12362500Y-15739786D01*
X12376786Y-15768357D01*
X12391071Y-15825500D01*
X12391071Y-15896929D01*
X12376786Y-15954071D01*
X12362500Y-15982643D01*
X12348214Y-15996929D01*
X12319643Y-16011214D01*
X12291071Y-16011214D01*
X12262500Y-15996929D01*
X12248214Y-15982643D01*
X12233928Y-15954071D01*
X12219643Y-15896929D01*
X12219643Y-15825500D01*
X12233928Y-15768357D01*
X12248214Y-15739786D01*
X12262500Y-15725500D01*
X12291071Y-15711214D01*
X12491071Y-15711214D02*
X12676786Y-15711214D01*
X12576786Y-15825500D01*
X12619643Y-15825500D01*
X12648214Y-15839786D01*
X12662500Y-15854071D01*
X12676786Y-15882643D01*
X12676786Y-15954071D01*
X12662500Y-15982643D01*
X12648214Y-15996929D01*
X12619643Y-16011214D01*
X12533928Y-16011214D01*
X12505357Y-15996929D01*
X12491071Y-15982643D01*
X12948214Y-15711214D02*
X12805357Y-15711214D01*
X12791071Y-15854071D01*
X12805357Y-15839786D01*
X12833928Y-15825500D01*
X12905357Y-15825500D01*
X12933928Y-15839786D01*
X12948214Y-15854071D01*
X12962500Y-15882643D01*
X12962500Y-15954071D01*
X12948214Y-15982643D01*
X12933928Y-15996929D01*
X12905357Y-16011214D01*
X12833928Y-16011214D01*
X12805357Y-15996929D01*
X12791071Y-15982643D01*
X13076786Y-15711214D02*
X13076786Y-15768357D01*
X13191071Y-15711214D02*
X13191071Y-15768357D01*
X13633928Y-16125500D02*
X13619643Y-16111214D01*
X13591071Y-16068357D01*
X13576786Y-16039786D01*
X13562500Y-15996929D01*
X13548214Y-15925500D01*
X13548214Y-15868357D01*
X13562500Y-15796929D01*
X13576786Y-15754071D01*
X13591071Y-15725500D01*
X13619643Y-15682643D01*
X13633928Y-15668357D01*
X13891071Y-15711214D02*
X13748214Y-15711214D01*
X13733928Y-15854071D01*
X13748214Y-15839786D01*
X13776786Y-15825500D01*
X13848214Y-15825500D01*
X13876786Y-15839786D01*
X13891071Y-15854071D01*
X13905357Y-15882643D01*
X13905357Y-15954071D01*
X13891071Y-15982643D01*
X13876786Y-15996929D01*
X13848214Y-16011214D01*
X13776786Y-16011214D01*
X13748214Y-15996929D01*
X13733928Y-15982643D01*
X14091071Y-15711214D02*
X14119643Y-15711214D01*
X14148214Y-15725500D01*
X14162500Y-15739786D01*
X14176786Y-15768357D01*
X14191071Y-15825500D01*
X14191071Y-15896929D01*
X14176786Y-15954071D01*
X14162500Y-15982643D01*
X14148214Y-15996929D01*
X14119643Y-16011214D01*
X14091071Y-16011214D01*
X14062500Y-15996929D01*
X14048214Y-15982643D01*
X14033928Y-15954071D01*
X14019643Y-15896929D01*
X14019643Y-15825500D01*
X14033928Y-15768357D01*
X14048214Y-15739786D01*
X14062500Y-15725500D01*
X14091071Y-15711214D01*
X14548214Y-16011214D02*
X14548214Y-15711214D01*
X14676786Y-16011214D02*
X14676786Y-15854071D01*
X14662500Y-15825500D01*
X14633928Y-15811214D01*
X14591071Y-15811214D01*
X14562500Y-15825500D01*
X14548214Y-15839786D01*
X14862500Y-16011214D02*
X14833928Y-15996929D01*
X14819643Y-15982643D01*
X14805357Y-15954071D01*
X14805357Y-15868357D01*
X14819643Y-15839786D01*
X14833928Y-15825500D01*
X14862500Y-15811214D01*
X14905357Y-15811214D01*
X14933928Y-15825500D01*
X14948214Y-15839786D01*
X14962500Y-15868357D01*
X14962500Y-15954071D01*
X14948214Y-15982643D01*
X14933928Y-15996929D01*
X14905357Y-16011214D01*
X14862500Y-16011214D01*
X15133928Y-16011214D02*
X15105357Y-15996929D01*
X15091071Y-15968357D01*
X15091071Y-15711214D01*
X15362500Y-15996929D02*
X15333928Y-16011214D01*
X15276786Y-16011214D01*
X15248214Y-15996929D01*
X15233928Y-15968357D01*
X15233928Y-15854071D01*
X15248214Y-15825500D01*
X15276786Y-15811214D01*
X15333928Y-15811214D01*
X15362500Y-15825500D01*
X15376786Y-15854071D01*
X15376786Y-15882643D01*
X15233928Y-15911214D01*
X15491071Y-15996929D02*
X15519643Y-16011214D01*
X15576786Y-16011214D01*
X15605357Y-15996929D01*
X15619643Y-15968357D01*
X15619643Y-15954071D01*
X15605357Y-15925500D01*
X15576786Y-15911214D01*
X15533928Y-15911214D01*
X15505357Y-15896929D01*
X15491071Y-15868357D01*
X15491071Y-15854071D01*
X15505357Y-15825500D01*
X15533928Y-15811214D01*
X15576786Y-15811214D01*
X15605357Y-15825500D01*
X15719643Y-16125500D02*
X15733928Y-16111214D01*
X15762500Y-16068357D01*
X15776786Y-16039786D01*
X15791071Y-15996929D01*
X15805357Y-15925500D01*
X15805357Y-15868357D01*
X15791071Y-15796929D01*
X15776786Y-15754071D01*
X15762500Y-15725500D01*
X15733928Y-15682643D01*
X15719643Y-15668357D01*
X8897500Y-16321500D02*
X8947500Y-16271500D01*
X8897500Y-16221500D01*
X8847500Y-16271500D01*
X8897500Y-16321500D01*
X9391071Y-16407214D02*
X9219643Y-16407214D01*
X9305357Y-16407214D02*
X9305357Y-16107214D01*
X9276786Y-16150071D01*
X9248214Y-16178643D01*
X9219643Y-16192929D01*
X9519643Y-16378643D02*
X9533928Y-16392929D01*
X9519643Y-16407214D01*
X9505357Y-16392929D01*
X9519643Y-16378643D01*
X9519643Y-16407214D01*
X9719643Y-16107214D02*
X9748214Y-16107214D01*
X9776786Y-16121500D01*
X9791071Y-16135786D01*
X9805357Y-16164357D01*
X9819643Y-16221500D01*
X9819643Y-16292929D01*
X9805357Y-16350071D01*
X9791071Y-16378643D01*
X9776786Y-16392929D01*
X9748214Y-16407214D01*
X9719643Y-16407214D01*
X9691071Y-16392929D01*
X9676786Y-16378643D01*
X9662500Y-16350071D01*
X9648214Y-16292929D01*
X9648214Y-16221500D01*
X9662500Y-16164357D01*
X9676786Y-16135786D01*
X9691071Y-16121500D01*
X9719643Y-16107214D01*
X10005357Y-16107214D02*
X10033928Y-16107214D01*
X10062500Y-16121500D01*
X10076786Y-16135786D01*
X10091071Y-16164357D01*
X10105357Y-16221500D01*
X10105357Y-16292929D01*
X10091071Y-16350071D01*
X10076786Y-16378643D01*
X10062500Y-16392929D01*
X10033928Y-16407214D01*
X10005357Y-16407214D01*
X9976786Y-16392929D01*
X9962500Y-16378643D01*
X9948214Y-16350071D01*
X9933928Y-16292929D01*
X9933928Y-16221500D01*
X9948214Y-16164357D01*
X9962500Y-16135786D01*
X9976786Y-16121500D01*
X10005357Y-16107214D01*
X10233928Y-16407214D02*
X10233928Y-16207214D01*
X10233928Y-16235786D02*
X10248214Y-16221500D01*
X10276786Y-16207214D01*
X10319643Y-16207214D01*
X10348214Y-16221500D01*
X10362500Y-16250071D01*
X10362500Y-16407214D01*
X10362500Y-16250071D02*
X10376786Y-16221500D01*
X10405357Y-16207214D01*
X10448214Y-16207214D01*
X10476786Y-16221500D01*
X10491071Y-16250071D01*
X10491071Y-16407214D01*
X10633928Y-16407214D02*
X10633928Y-16207214D01*
X10633928Y-16235786D02*
X10648214Y-16221500D01*
X10676786Y-16207214D01*
X10719643Y-16207214D01*
X10748214Y-16221500D01*
X10762500Y-16250071D01*
X10762500Y-16407214D01*
X10762500Y-16250071D02*
X10776786Y-16221500D01*
X10805357Y-16207214D01*
X10848214Y-16207214D01*
X10876786Y-16221500D01*
X10891071Y-16250071D01*
X10891071Y-16407214D01*
X11476786Y-16092929D02*
X11219643Y-16478643D01*
X11862500Y-16107214D02*
X11891071Y-16107214D01*
X11919643Y-16121500D01*
X11933928Y-16135786D01*
X11948214Y-16164357D01*
X11962500Y-16221500D01*
X11962500Y-16292929D01*
X11948214Y-16350071D01*
X11933928Y-16378643D01*
X11919643Y-16392929D01*
X11891071Y-16407214D01*
X11862500Y-16407214D01*
X11833928Y-16392929D01*
X11819643Y-16378643D01*
X11805357Y-16350071D01*
X11791071Y-16292929D01*
X11791071Y-16221500D01*
X11805357Y-16164357D01*
X11819643Y-16135786D01*
X11833928Y-16121500D01*
X11862500Y-16107214D01*
X12091071Y-16378643D02*
X12105357Y-16392929D01*
X12091071Y-16407214D01*
X12076786Y-16392929D01*
X12091071Y-16378643D01*
X12091071Y-16407214D01*
X12291071Y-16107214D02*
X12319643Y-16107214D01*
X12348214Y-16121500D01*
X12362500Y-16135786D01*
X12376786Y-16164357D01*
X12391071Y-16221500D01*
X12391071Y-16292929D01*
X12376786Y-16350071D01*
X12362500Y-16378643D01*
X12348214Y-16392929D01*
X12319643Y-16407214D01*
X12291071Y-16407214D01*
X12262500Y-16392929D01*
X12248214Y-16378643D01*
X12233928Y-16350071D01*
X12219643Y-16292929D01*
X12219643Y-16221500D01*
X12233928Y-16164357D01*
X12248214Y-16135786D01*
X12262500Y-16121500D01*
X12291071Y-16107214D01*
X12491071Y-16107214D02*
X12676786Y-16107214D01*
X12576786Y-16221500D01*
X12619643Y-16221500D01*
X12648214Y-16235786D01*
X12662500Y-16250071D01*
X12676786Y-16278643D01*
X12676786Y-16350071D01*
X12662500Y-16378643D01*
X12648214Y-16392929D01*
X12619643Y-16407214D01*
X12533928Y-16407214D01*
X12505357Y-16392929D01*
X12491071Y-16378643D01*
X12819643Y-16407214D02*
X12876786Y-16407214D01*
X12905357Y-16392929D01*
X12919643Y-16378643D01*
X12948214Y-16335786D01*
X12962500Y-16278643D01*
X12962500Y-16164357D01*
X12948214Y-16135786D01*
X12933928Y-16121500D01*
X12905357Y-16107214D01*
X12848214Y-16107214D01*
X12819643Y-16121500D01*
X12805357Y-16135786D01*
X12791071Y-16164357D01*
X12791071Y-16235786D01*
X12805357Y-16264357D01*
X12819643Y-16278643D01*
X12848214Y-16292929D01*
X12905357Y-16292929D01*
X12933928Y-16278643D01*
X12948214Y-16264357D01*
X12962500Y-16235786D01*
X13076786Y-16107214D02*
X13076786Y-16164357D01*
X13191071Y-16107214D02*
X13191071Y-16164357D01*
X13633928Y-16521500D02*
X13619643Y-16507214D01*
X13591071Y-16464357D01*
X13576786Y-16435786D01*
X13562500Y-16392929D01*
X13548214Y-16321500D01*
X13548214Y-16264357D01*
X13562500Y-16192929D01*
X13576786Y-16150071D01*
X13591071Y-16121500D01*
X13619643Y-16078643D01*
X13633928Y-16064357D01*
X13876786Y-16107214D02*
X13819643Y-16107214D01*
X13791071Y-16121500D01*
X13776786Y-16135786D01*
X13748214Y-16178643D01*
X13733928Y-16235786D01*
X13733928Y-16350071D01*
X13748214Y-16378643D01*
X13762500Y-16392929D01*
X13791071Y-16407214D01*
X13848214Y-16407214D01*
X13876786Y-16392929D01*
X13891071Y-16378643D01*
X13905357Y-16350071D01*
X13905357Y-16278643D01*
X13891071Y-16250071D01*
X13876786Y-16235786D01*
X13848214Y-16221500D01*
X13791071Y-16221500D01*
X13762500Y-16235786D01*
X13748214Y-16250071D01*
X13733928Y-16278643D01*
X14262500Y-16407214D02*
X14262500Y-16107214D01*
X14391071Y-16407214D02*
X14391071Y-16250071D01*
X14376786Y-16221500D01*
X14348214Y-16207214D01*
X14305357Y-16207214D01*
X14276786Y-16221500D01*
X14262500Y-16235786D01*
X14576786Y-16407214D02*
X14548214Y-16392929D01*
X14533928Y-16378643D01*
X14519643Y-16350071D01*
X14519643Y-16264357D01*
X14533928Y-16235786D01*
X14548214Y-16221500D01*
X14576786Y-16207214D01*
X14619643Y-16207214D01*
X14648214Y-16221500D01*
X14662500Y-16235786D01*
X14676786Y-16264357D01*
X14676786Y-16350071D01*
X14662500Y-16378643D01*
X14648214Y-16392929D01*
X14619643Y-16407214D01*
X14576786Y-16407214D01*
X14848214Y-16407214D02*
X14819643Y-16392929D01*
X14805357Y-16364357D01*
X14805357Y-16107214D01*
X15076786Y-16392929D02*
X15048214Y-16407214D01*
X14991071Y-16407214D01*
X14962500Y-16392929D01*
X14948214Y-16364357D01*
X14948214Y-16250071D01*
X14962500Y-16221500D01*
X14991071Y-16207214D01*
X15048214Y-16207214D01*
X15076786Y-16221500D01*
X15091071Y-16250071D01*
X15091071Y-16278643D01*
X14948214Y-16307214D01*
X15205357Y-16392929D02*
X15233928Y-16407214D01*
X15291071Y-16407214D01*
X15319643Y-16392929D01*
X15333928Y-16364357D01*
X15333928Y-16350071D01*
X15319643Y-16321500D01*
X15291071Y-16307214D01*
X15248214Y-16307214D01*
X15219643Y-16292929D01*
X15205357Y-16264357D01*
X15205357Y-16250071D01*
X15219643Y-16221500D01*
X15248214Y-16207214D01*
X15291071Y-16207214D01*
X15319643Y-16221500D01*
X15691071Y-16292929D02*
X15919643Y-16292929D01*
X15805357Y-16407214D02*
X15805357Y-16178643D01*
X16419643Y-16207214D02*
X16419643Y-16407214D01*
X16348214Y-16092929D02*
X16276786Y-16307214D01*
X16462500Y-16307214D01*
X16791071Y-16392929D02*
X16819643Y-16407214D01*
X16876786Y-16407214D01*
X16905357Y-16392929D01*
X16919643Y-16364357D01*
X16919643Y-16350071D01*
X16905357Y-16321500D01*
X16876786Y-16307214D01*
X16833928Y-16307214D01*
X16805357Y-16292929D01*
X16791071Y-16264357D01*
X16791071Y-16250071D01*
X16805357Y-16221500D01*
X16833928Y-16207214D01*
X16876786Y-16207214D01*
X16905357Y-16221500D01*
X17091071Y-16407214D02*
X17062500Y-16392929D01*
X17048214Y-16364357D01*
X17048214Y-16107214D01*
X17248214Y-16407214D02*
X17219643Y-16392929D01*
X17205357Y-16378643D01*
X17191071Y-16350071D01*
X17191071Y-16264357D01*
X17205357Y-16235786D01*
X17219643Y-16221500D01*
X17248214Y-16207214D01*
X17291071Y-16207214D01*
X17319643Y-16221500D01*
X17333928Y-16235786D01*
X17348214Y-16264357D01*
X17348214Y-16350071D01*
X17333928Y-16378643D01*
X17319643Y-16392929D01*
X17291071Y-16407214D01*
X17248214Y-16407214D01*
X17433928Y-16207214D02*
X17548214Y-16207214D01*
X17476786Y-16107214D02*
X17476786Y-16364357D01*
X17491071Y-16392929D01*
X17519643Y-16407214D01*
X17548214Y-16407214D01*
X17633928Y-16392929D02*
X17662500Y-16407214D01*
X17719643Y-16407214D01*
X17748214Y-16392929D01*
X17762500Y-16364357D01*
X17762500Y-16350071D01*
X17748214Y-16321500D01*
X17719643Y-16307214D01*
X17676786Y-16307214D01*
X17648214Y-16292929D01*
X17633928Y-16264357D01*
X17633928Y-16250071D01*
X17648214Y-16221500D01*
X17676786Y-16207214D01*
X17719643Y-16207214D01*
X17748214Y-16221500D01*
X17862500Y-16521500D02*
X17876786Y-16507214D01*
X17905357Y-16464357D01*
X17919643Y-16435786D01*
X17933928Y-16392929D01*
X17948214Y-16321500D01*
X17948214Y-16264357D01*
X17933928Y-16192929D01*
X17919643Y-16150071D01*
X17905357Y-16121500D01*
X17876786Y-16078643D01*
X17862500Y-16064357D01*
X8827500Y-16607500D02*
X8947500Y-16727500D01*
X8947500Y-16607500D02*
X8827500Y-16727500D01*
X8947500Y-16667500D02*
G75*
G03*
X8947500Y-16667500I-60000J0D01*
G01*
X9391071Y-16803214D02*
X9219643Y-16803214D01*
X9305357Y-16803214D02*
X9305357Y-16503214D01*
X9276786Y-16546071D01*
X9248214Y-16574643D01*
X9219643Y-16588929D01*
X9519643Y-16774643D02*
X9533928Y-16788929D01*
X9519643Y-16803214D01*
X9505357Y-16788929D01*
X9519643Y-16774643D01*
X9519643Y-16803214D01*
X9648214Y-16531786D02*
X9662500Y-16517500D01*
X9691071Y-16503214D01*
X9762500Y-16503214D01*
X9791071Y-16517500D01*
X9805357Y-16531786D01*
X9819643Y-16560357D01*
X9819643Y-16588929D01*
X9805357Y-16631786D01*
X9633928Y-16803214D01*
X9819643Y-16803214D01*
X10005357Y-16503214D02*
X10033928Y-16503214D01*
X10062500Y-16517500D01*
X10076786Y-16531786D01*
X10091071Y-16560357D01*
X10105357Y-16617500D01*
X10105357Y-16688929D01*
X10091071Y-16746071D01*
X10076786Y-16774643D01*
X10062500Y-16788929D01*
X10033928Y-16803214D01*
X10005357Y-16803214D01*
X9976786Y-16788929D01*
X9962500Y-16774643D01*
X9948214Y-16746071D01*
X9933928Y-16688929D01*
X9933928Y-16617500D01*
X9948214Y-16560357D01*
X9962500Y-16531786D01*
X9976786Y-16517500D01*
X10005357Y-16503214D01*
X10233928Y-16803214D02*
X10233928Y-16603214D01*
X10233928Y-16631786D02*
X10248214Y-16617500D01*
X10276786Y-16603214D01*
X10319643Y-16603214D01*
X10348214Y-16617500D01*
X10362500Y-16646071D01*
X10362500Y-16803214D01*
X10362500Y-16646071D02*
X10376786Y-16617500D01*
X10405357Y-16603214D01*
X10448214Y-16603214D01*
X10476786Y-16617500D01*
X10491071Y-16646071D01*
X10491071Y-16803214D01*
X10633928Y-16803214D02*
X10633928Y-16603214D01*
X10633928Y-16631786D02*
X10648214Y-16617500D01*
X10676786Y-16603214D01*
X10719643Y-16603214D01*
X10748214Y-16617500D01*
X10762500Y-16646071D01*
X10762500Y-16803214D01*
X10762500Y-16646071D02*
X10776786Y-16617500D01*
X10805357Y-16603214D01*
X10848214Y-16603214D01*
X10876786Y-16617500D01*
X10891071Y-16646071D01*
X10891071Y-16803214D01*
X11476786Y-16488929D02*
X11219643Y-16874643D01*
X11862500Y-16503214D02*
X11891071Y-16503214D01*
X11919643Y-16517500D01*
X11933928Y-16531786D01*
X11948214Y-16560357D01*
X11962500Y-16617500D01*
X11962500Y-16688929D01*
X11948214Y-16746071D01*
X11933928Y-16774643D01*
X11919643Y-16788929D01*
X11891071Y-16803214D01*
X11862500Y-16803214D01*
X11833928Y-16788929D01*
X11819643Y-16774643D01*
X11805357Y-16746071D01*
X11791071Y-16688929D01*
X11791071Y-16617500D01*
X11805357Y-16560357D01*
X11819643Y-16531786D01*
X11833928Y-16517500D01*
X11862500Y-16503214D01*
X12091071Y-16774643D02*
X12105357Y-16788929D01*
X12091071Y-16803214D01*
X12076786Y-16788929D01*
X12091071Y-16774643D01*
X12091071Y-16803214D01*
X12291071Y-16503214D02*
X12319643Y-16503214D01*
X12348214Y-16517500D01*
X12362500Y-16531786D01*
X12376786Y-16560357D01*
X12391071Y-16617500D01*
X12391071Y-16688929D01*
X12376786Y-16746071D01*
X12362500Y-16774643D01*
X12348214Y-16788929D01*
X12319643Y-16803214D01*
X12291071Y-16803214D01*
X12262500Y-16788929D01*
X12248214Y-16774643D01*
X12233928Y-16746071D01*
X12219643Y-16688929D01*
X12219643Y-16617500D01*
X12233928Y-16560357D01*
X12248214Y-16531786D01*
X12262500Y-16517500D01*
X12291071Y-16503214D01*
X12648214Y-16603214D02*
X12648214Y-16803214D01*
X12576786Y-16488929D02*
X12505357Y-16703214D01*
X12691071Y-16703214D01*
X12776786Y-16503214D02*
X12976786Y-16503214D01*
X12848214Y-16803214D01*
X13076786Y-16503214D02*
X13076786Y-16560357D01*
X13191071Y-16503214D02*
X13191071Y-16560357D01*
X13633928Y-16917500D02*
X13619643Y-16903214D01*
X13591071Y-16860357D01*
X13576786Y-16831786D01*
X13562500Y-16788929D01*
X13548214Y-16717500D01*
X13548214Y-16660357D01*
X13562500Y-16588929D01*
X13576786Y-16546071D01*
X13591071Y-16517500D01*
X13619643Y-16474643D01*
X13633928Y-16460357D01*
X13791071Y-16631786D02*
X13762500Y-16617500D01*
X13748214Y-16603214D01*
X13733928Y-16574643D01*
X13733928Y-16560357D01*
X13748214Y-16531786D01*
X13762500Y-16517500D01*
X13791071Y-16503214D01*
X13848214Y-16503214D01*
X13876786Y-16517500D01*
X13891071Y-16531786D01*
X13905357Y-16560357D01*
X13905357Y-16574643D01*
X13891071Y-16603214D01*
X13876786Y-16617500D01*
X13848214Y-16631786D01*
X13791071Y-16631786D01*
X13762500Y-16646071D01*
X13748214Y-16660357D01*
X13733928Y-16688929D01*
X13733928Y-16746071D01*
X13748214Y-16774643D01*
X13762500Y-16788929D01*
X13791071Y-16803214D01*
X13848214Y-16803214D01*
X13876786Y-16788929D01*
X13891071Y-16774643D01*
X13905357Y-16746071D01*
X13905357Y-16688929D01*
X13891071Y-16660357D01*
X13876786Y-16646071D01*
X13848214Y-16631786D01*
X14262500Y-16803214D02*
X14262500Y-16503214D01*
X14391071Y-16803214D02*
X14391071Y-16646071D01*
X14376786Y-16617500D01*
X14348214Y-16603214D01*
X14305357Y-16603214D01*
X14276786Y-16617500D01*
X14262500Y-16631786D01*
X14576786Y-16803214D02*
X14548214Y-16788929D01*
X14533928Y-16774643D01*
X14519643Y-16746071D01*
X14519643Y-16660357D01*
X14533928Y-16631786D01*
X14548214Y-16617500D01*
X14576786Y-16603214D01*
X14619643Y-16603214D01*
X14648214Y-16617500D01*
X14662500Y-16631786D01*
X14676786Y-16660357D01*
X14676786Y-16746071D01*
X14662500Y-16774643D01*
X14648214Y-16788929D01*
X14619643Y-16803214D01*
X14576786Y-16803214D01*
X14848214Y-16803214D02*
X14819643Y-16788929D01*
X14805357Y-16760357D01*
X14805357Y-16503214D01*
X15076786Y-16788929D02*
X15048214Y-16803214D01*
X14991071Y-16803214D01*
X14962500Y-16788929D01*
X14948214Y-16760357D01*
X14948214Y-16646071D01*
X14962500Y-16617500D01*
X14991071Y-16603214D01*
X15048214Y-16603214D01*
X15076786Y-16617500D01*
X15091071Y-16646071D01*
X15091071Y-16674643D01*
X14948214Y-16703214D01*
X15205357Y-16788929D02*
X15233928Y-16803214D01*
X15291071Y-16803214D01*
X15319643Y-16788929D01*
X15333928Y-16760357D01*
X15333928Y-16746071D01*
X15319643Y-16717500D01*
X15291071Y-16703214D01*
X15248214Y-16703214D01*
X15219643Y-16688929D01*
X15205357Y-16660357D01*
X15205357Y-16646071D01*
X15219643Y-16617500D01*
X15248214Y-16603214D01*
X15291071Y-16603214D01*
X15319643Y-16617500D01*
X15433928Y-16917500D02*
X15448214Y-16903214D01*
X15476786Y-16860357D01*
X15491071Y-16831786D01*
X15505357Y-16788929D01*
X15519643Y-16717500D01*
X15519643Y-16660357D01*
X15505357Y-16588929D01*
X15491071Y-16546071D01*
X15476786Y-16517500D01*
X15448214Y-16474643D01*
X15433928Y-16460357D01*
X8746500Y-16963000D02*
X8947500Y-17164000D01*
X8947500Y-16963000D02*
X8746500Y-17164000D01*
X8847000Y-16963000D02*
X8847000Y-17164000D01*
X8746500Y-17063500D02*
X8947500Y-17063500D01*
X9219643Y-16927786D02*
X9233928Y-16913500D01*
X9262500Y-16899214D01*
X9333928Y-16899214D01*
X9362500Y-16913500D01*
X9376786Y-16927786D01*
X9391071Y-16956357D01*
X9391071Y-16984929D01*
X9376786Y-17027786D01*
X9205357Y-17199214D01*
X9391071Y-17199214D01*
X9519643Y-17170643D02*
X9533928Y-17184929D01*
X9519643Y-17199214D01*
X9505357Y-17184929D01*
X9519643Y-17170643D01*
X9519643Y-17199214D01*
X9719643Y-16899214D02*
X9748214Y-16899214D01*
X9776786Y-16913500D01*
X9791071Y-16927786D01*
X9805357Y-16956357D01*
X9819643Y-17013500D01*
X9819643Y-17084929D01*
X9805357Y-17142072D01*
X9791071Y-17170643D01*
X9776786Y-17184929D01*
X9748214Y-17199214D01*
X9719643Y-17199214D01*
X9691071Y-17184929D01*
X9676786Y-17170643D01*
X9662500Y-17142072D01*
X9648214Y-17084929D01*
X9648214Y-17013500D01*
X9662500Y-16956357D01*
X9676786Y-16927786D01*
X9691071Y-16913500D01*
X9719643Y-16899214D01*
X10105357Y-17199214D02*
X9933928Y-17199214D01*
X10019643Y-17199214D02*
X10019643Y-16899214D01*
X9991071Y-16942072D01*
X9962500Y-16970643D01*
X9933928Y-16984929D01*
X10233928Y-17199214D02*
X10233928Y-16999214D01*
X10233928Y-17027786D02*
X10248214Y-17013500D01*
X10276786Y-16999214D01*
X10319643Y-16999214D01*
X10348214Y-17013500D01*
X10362500Y-17042072D01*
X10362500Y-17199214D01*
X10362500Y-17042072D02*
X10376786Y-17013500D01*
X10405357Y-16999214D01*
X10448214Y-16999214D01*
X10476786Y-17013500D01*
X10491071Y-17042072D01*
X10491071Y-17199214D01*
X10633928Y-17199214D02*
X10633928Y-16999214D01*
X10633928Y-17027786D02*
X10648214Y-17013500D01*
X10676786Y-16999214D01*
X10719643Y-16999214D01*
X10748214Y-17013500D01*
X10762500Y-17042072D01*
X10762500Y-17199214D01*
X10762500Y-17042072D02*
X10776786Y-17013500D01*
X10805357Y-16999214D01*
X10848214Y-16999214D01*
X10876786Y-17013500D01*
X10891071Y-17042072D01*
X10891071Y-17199214D01*
X11476786Y-16884929D02*
X11219643Y-17270643D01*
X11862500Y-16899214D02*
X11891071Y-16899214D01*
X11919643Y-16913500D01*
X11933928Y-16927786D01*
X11948214Y-16956357D01*
X11962500Y-17013500D01*
X11962500Y-17084929D01*
X11948214Y-17142072D01*
X11933928Y-17170643D01*
X11919643Y-17184929D01*
X11891071Y-17199214D01*
X11862500Y-17199214D01*
X11833928Y-17184929D01*
X11819643Y-17170643D01*
X11805357Y-17142072D01*
X11791071Y-17084929D01*
X11791071Y-17013500D01*
X11805357Y-16956357D01*
X11819643Y-16927786D01*
X11833928Y-16913500D01*
X11862500Y-16899214D01*
X12091071Y-17170643D02*
X12105357Y-17184929D01*
X12091071Y-17199214D01*
X12076786Y-17184929D01*
X12091071Y-17170643D01*
X12091071Y-17199214D01*
X12291071Y-16899214D02*
X12319643Y-16899214D01*
X12348214Y-16913500D01*
X12362500Y-16927786D01*
X12376786Y-16956357D01*
X12391071Y-17013500D01*
X12391071Y-17084929D01*
X12376786Y-17142072D01*
X12362500Y-17170643D01*
X12348214Y-17184929D01*
X12319643Y-17199214D01*
X12291071Y-17199214D01*
X12262500Y-17184929D01*
X12248214Y-17170643D01*
X12233928Y-17142072D01*
X12219643Y-17084929D01*
X12219643Y-17013500D01*
X12233928Y-16956357D01*
X12248214Y-16927786D01*
X12262500Y-16913500D01*
X12291071Y-16899214D01*
X12491071Y-16899214D02*
X12691071Y-16899214D01*
X12562500Y-17199214D01*
X12819643Y-17199214D02*
X12876786Y-17199214D01*
X12905357Y-17184929D01*
X12919643Y-17170643D01*
X12948214Y-17127786D01*
X12962500Y-17070643D01*
X12962500Y-16956357D01*
X12948214Y-16927786D01*
X12933928Y-16913500D01*
X12905357Y-16899214D01*
X12848214Y-16899214D01*
X12819643Y-16913500D01*
X12805357Y-16927786D01*
X12791071Y-16956357D01*
X12791071Y-17027786D01*
X12805357Y-17056357D01*
X12819643Y-17070643D01*
X12848214Y-17084929D01*
X12905357Y-17084929D01*
X12933928Y-17070643D01*
X12948214Y-17056357D01*
X12962500Y-17027786D01*
X13076786Y-16899214D02*
X13076786Y-16956357D01*
X13191071Y-16899214D02*
X13191071Y-16956357D01*
X13633928Y-17313500D02*
X13619643Y-17299214D01*
X13591071Y-17256357D01*
X13576786Y-17227786D01*
X13562500Y-17184929D01*
X13548214Y-17113500D01*
X13548214Y-17056357D01*
X13562500Y-16984929D01*
X13576786Y-16942072D01*
X13591071Y-16913500D01*
X13619643Y-16870643D01*
X13633928Y-16856357D01*
X13876786Y-16899214D02*
X13819643Y-16899214D01*
X13791071Y-16913500D01*
X13776786Y-16927786D01*
X13748214Y-16970643D01*
X13733928Y-17027786D01*
X13733928Y-17142072D01*
X13748214Y-17170643D01*
X13762500Y-17184929D01*
X13791071Y-17199214D01*
X13848214Y-17199214D01*
X13876786Y-17184929D01*
X13891071Y-17170643D01*
X13905357Y-17142072D01*
X13905357Y-17070643D01*
X13891071Y-17042072D01*
X13876786Y-17027786D01*
X13848214Y-17013500D01*
X13791071Y-17013500D01*
X13762500Y-17027786D01*
X13748214Y-17042072D01*
X13733928Y-17070643D01*
X14262500Y-17199214D02*
X14262500Y-16899214D01*
X14391071Y-17199214D02*
X14391071Y-17042072D01*
X14376786Y-17013500D01*
X14348214Y-16999214D01*
X14305357Y-16999214D01*
X14276786Y-17013500D01*
X14262500Y-17027786D01*
X14576786Y-17199214D02*
X14548214Y-17184929D01*
X14533928Y-17170643D01*
X14519643Y-17142072D01*
X14519643Y-17056357D01*
X14533928Y-17027786D01*
X14548214Y-17013500D01*
X14576786Y-16999214D01*
X14619643Y-16999214D01*
X14648214Y-17013500D01*
X14662500Y-17027786D01*
X14676786Y-17056357D01*
X14676786Y-17142072D01*
X14662500Y-17170643D01*
X14648214Y-17184929D01*
X14619643Y-17199214D01*
X14576786Y-17199214D01*
X14848214Y-17199214D02*
X14819643Y-17184929D01*
X14805357Y-17156357D01*
X14805357Y-16899214D01*
X15076786Y-17184929D02*
X15048214Y-17199214D01*
X14991071Y-17199214D01*
X14962500Y-17184929D01*
X14948214Y-17156357D01*
X14948214Y-17042072D01*
X14962500Y-17013500D01*
X14991071Y-16999214D01*
X15048214Y-16999214D01*
X15076786Y-17013500D01*
X15091071Y-17042072D01*
X15091071Y-17070643D01*
X14948214Y-17099214D01*
X15205357Y-17184929D02*
X15233928Y-17199214D01*
X15291071Y-17199214D01*
X15319643Y-17184929D01*
X15333928Y-17156357D01*
X15333928Y-17142072D01*
X15319643Y-17113500D01*
X15291071Y-17099214D01*
X15248214Y-17099214D01*
X15219643Y-17084929D01*
X15205357Y-17056357D01*
X15205357Y-17042072D01*
X15219643Y-17013500D01*
X15248214Y-16999214D01*
X15291071Y-16999214D01*
X15319643Y-17013500D01*
X15433928Y-17313500D02*
X15448214Y-17299214D01*
X15476786Y-17256357D01*
X15491071Y-17227786D01*
X15505357Y-17184929D01*
X15519643Y-17113500D01*
X15519643Y-17056357D01*
X15505357Y-16984929D01*
X15491071Y-16942072D01*
X15476786Y-16913500D01*
X15448214Y-16870643D01*
X15433928Y-16856357D01*
M02*
