G04 #@! TF.GenerationSoftware,KiCad,Pcbnew,(5.1.9)-1*
G04 #@! TF.CreationDate,2021-04-27T21:59:47-05:00*
G04 #@! TF.ProjectId,high-gain-diff-probe,68696768-2d67-4616-996e-2d646966662d,rev?*
G04 #@! TF.SameCoordinates,Original*
G04 #@! TF.FileFunction,Soldermask,Top*
G04 #@! TF.FilePolarity,Negative*
%FSLAX46Y46*%
G04 Gerber Fmt 4.6, Leading zero omitted, Abs format (unit mm)*
G04 Created by KiCad (PCBNEW (5.1.9)-1) date 2021-04-27 21:59:47*
%MOMM*%
%LPD*%
G01*
G04 APERTURE LIST*
%ADD10C,0.250000*%
%ADD11C,0.100000*%
%ADD12C,1.700000*%
%ADD13C,2.000000*%
%ADD14C,2.500000*%
%ADD15R,2.500000X2.500000*%
%ADD16O,2.250000X1.500000*%
%ADD17C,1.600000*%
%ADD18O,1.700000X1.700000*%
%ADD19R,1.700000X1.700000*%
%ADD20R,1.200000X0.900000*%
%ADD21R,2.410000X3.810000*%
%ADD22C,1.800000*%
%ADD23R,1.800000X1.800000*%
%ADD24C,4.000000*%
%ADD25C,1.440000*%
%ADD26O,3.500000X2.000000*%
%ADD27O,2.000000X3.300000*%
%ADD28R,2.000000X4.000000*%
%ADD29R,0.900000X1.400000*%
%ADD30O,2.500000X1.600000*%
%ADD31O,7.000000X3.500000*%
%ADD32R,1.400000X1.300000*%
%ADD33R,0.800000X0.900000*%
%ADD34R,1.400000X0.900000*%
G04 APERTURE END LIST*
D10*
X145500000Y-93500000D02*
X144500000Y-92500001D01*
X144500000Y-92500001D02*
X141000000Y-92500000D01*
X141000000Y-92500000D02*
X140000000Y-93500000D01*
X154000000Y-97100000D02*
X151000000Y-94100000D01*
X155100000Y-102900000D02*
X155600000Y-103400000D01*
D11*
G36*
X209500000Y-137200000D02*
G01*
X90000000Y-137200000D01*
X90000000Y-134300000D01*
X209500000Y-134300000D01*
X209500000Y-137200000D01*
G37*
X209500000Y-137200000D02*
X90000000Y-137200000D01*
X90000000Y-134300000D01*
X209500000Y-134300000D01*
X209500000Y-137200000D01*
G36*
X209500000Y-65700000D02*
G01*
X90000000Y-65700000D01*
X90000000Y-62800000D01*
X209500000Y-62800000D01*
X209500000Y-65700000D01*
G37*
X209500000Y-65700000D02*
X90000000Y-65700000D01*
X90000000Y-62800000D01*
X209500000Y-62800000D01*
X209500000Y-65700000D01*
D10*
X154000000Y-99600000D02*
X154000000Y-97100000D01*
X155100000Y-100700000D02*
X154000000Y-99600000D01*
X155100000Y-102900000D02*
X155100000Y-100700000D01*
X145500000Y-95000000D02*
X145500000Y-93500000D01*
X144500000Y-96000000D02*
X145500000Y-95000000D01*
X140950000Y-96000000D02*
X144500000Y-96000000D01*
X140000000Y-95050000D02*
X140950000Y-96000000D01*
X140000000Y-93500000D02*
X140000000Y-95050000D01*
X141000000Y-104000000D02*
X140000000Y-105000000D01*
X144600000Y-104000000D02*
X141000000Y-104000000D01*
X145500000Y-104900000D02*
X144600000Y-104000000D01*
X145500000Y-106500000D02*
X145500000Y-104900000D01*
X144500000Y-107500000D02*
X145500000Y-106500000D01*
X141000000Y-107500000D02*
X144500000Y-107500000D01*
X140000000Y-106500000D02*
X141000000Y-107500000D01*
X140000000Y-105000000D02*
X140000000Y-106500000D01*
G36*
G01*
X192200000Y-100440000D02*
X192200000Y-100140000D01*
G75*
G02*
X192350000Y-99990000I150000J0D01*
G01*
X194000000Y-99990000D01*
G75*
G02*
X194150000Y-100140000I0J-150000D01*
G01*
X194150000Y-100440000D01*
G75*
G02*
X194000000Y-100590000I-150000J0D01*
G01*
X192350000Y-100590000D01*
G75*
G02*
X192200000Y-100440000I0J150000D01*
G01*
G37*
G36*
G01*
X192200000Y-101710000D02*
X192200000Y-101410000D01*
G75*
G02*
X192350000Y-101260000I150000J0D01*
G01*
X194000000Y-101260000D01*
G75*
G02*
X194150000Y-101410000I0J-150000D01*
G01*
X194150000Y-101710000D01*
G75*
G02*
X194000000Y-101860000I-150000J0D01*
G01*
X192350000Y-101860000D01*
G75*
G02*
X192200000Y-101710000I0J150000D01*
G01*
G37*
G36*
G01*
X192200000Y-102980000D02*
X192200000Y-102680000D01*
G75*
G02*
X192350000Y-102530000I150000J0D01*
G01*
X194000000Y-102530000D01*
G75*
G02*
X194150000Y-102680000I0J-150000D01*
G01*
X194150000Y-102980000D01*
G75*
G02*
X194000000Y-103130000I-150000J0D01*
G01*
X192350000Y-103130000D01*
G75*
G02*
X192200000Y-102980000I0J150000D01*
G01*
G37*
G36*
G01*
X192200000Y-104250000D02*
X192200000Y-103950000D01*
G75*
G02*
X192350000Y-103800000I150000J0D01*
G01*
X194000000Y-103800000D01*
G75*
G02*
X194150000Y-103950000I0J-150000D01*
G01*
X194150000Y-104250000D01*
G75*
G02*
X194000000Y-104400000I-150000J0D01*
G01*
X192350000Y-104400000D01*
G75*
G02*
X192200000Y-104250000I0J150000D01*
G01*
G37*
G36*
G01*
X192200000Y-105520000D02*
X192200000Y-105220000D01*
G75*
G02*
X192350000Y-105070000I150000J0D01*
G01*
X194000000Y-105070000D01*
G75*
G02*
X194150000Y-105220000I0J-150000D01*
G01*
X194150000Y-105520000D01*
G75*
G02*
X194000000Y-105670000I-150000J0D01*
G01*
X192350000Y-105670000D01*
G75*
G02*
X192200000Y-105520000I0J150000D01*
G01*
G37*
G36*
G01*
X192200000Y-106790000D02*
X192200000Y-106490000D01*
G75*
G02*
X192350000Y-106340000I150000J0D01*
G01*
X194000000Y-106340000D01*
G75*
G02*
X194150000Y-106490000I0J-150000D01*
G01*
X194150000Y-106790000D01*
G75*
G02*
X194000000Y-106940000I-150000J0D01*
G01*
X192350000Y-106940000D01*
G75*
G02*
X192200000Y-106790000I0J150000D01*
G01*
G37*
G36*
G01*
X192200000Y-108060000D02*
X192200000Y-107760000D01*
G75*
G02*
X192350000Y-107610000I150000J0D01*
G01*
X194000000Y-107610000D01*
G75*
G02*
X194150000Y-107760000I0J-150000D01*
G01*
X194150000Y-108060000D01*
G75*
G02*
X194000000Y-108210000I-150000J0D01*
G01*
X192350000Y-108210000D01*
G75*
G02*
X192200000Y-108060000I0J150000D01*
G01*
G37*
G36*
G01*
X187250000Y-108060000D02*
X187250000Y-107760000D01*
G75*
G02*
X187400000Y-107610000I150000J0D01*
G01*
X189050000Y-107610000D01*
G75*
G02*
X189200000Y-107760000I0J-150000D01*
G01*
X189200000Y-108060000D01*
G75*
G02*
X189050000Y-108210000I-150000J0D01*
G01*
X187400000Y-108210000D01*
G75*
G02*
X187250000Y-108060000I0J150000D01*
G01*
G37*
G36*
G01*
X187250000Y-106790000D02*
X187250000Y-106490000D01*
G75*
G02*
X187400000Y-106340000I150000J0D01*
G01*
X189050000Y-106340000D01*
G75*
G02*
X189200000Y-106490000I0J-150000D01*
G01*
X189200000Y-106790000D01*
G75*
G02*
X189050000Y-106940000I-150000J0D01*
G01*
X187400000Y-106940000D01*
G75*
G02*
X187250000Y-106790000I0J150000D01*
G01*
G37*
G36*
G01*
X187250000Y-105520000D02*
X187250000Y-105220000D01*
G75*
G02*
X187400000Y-105070000I150000J0D01*
G01*
X189050000Y-105070000D01*
G75*
G02*
X189200000Y-105220000I0J-150000D01*
G01*
X189200000Y-105520000D01*
G75*
G02*
X189050000Y-105670000I-150000J0D01*
G01*
X187400000Y-105670000D01*
G75*
G02*
X187250000Y-105520000I0J150000D01*
G01*
G37*
G36*
G01*
X187250000Y-104250000D02*
X187250000Y-103950000D01*
G75*
G02*
X187400000Y-103800000I150000J0D01*
G01*
X189050000Y-103800000D01*
G75*
G02*
X189200000Y-103950000I0J-150000D01*
G01*
X189200000Y-104250000D01*
G75*
G02*
X189050000Y-104400000I-150000J0D01*
G01*
X187400000Y-104400000D01*
G75*
G02*
X187250000Y-104250000I0J150000D01*
G01*
G37*
G36*
G01*
X187250000Y-102980000D02*
X187250000Y-102680000D01*
G75*
G02*
X187400000Y-102530000I150000J0D01*
G01*
X189050000Y-102530000D01*
G75*
G02*
X189200000Y-102680000I0J-150000D01*
G01*
X189200000Y-102980000D01*
G75*
G02*
X189050000Y-103130000I-150000J0D01*
G01*
X187400000Y-103130000D01*
G75*
G02*
X187250000Y-102980000I0J150000D01*
G01*
G37*
G36*
G01*
X187250000Y-101710000D02*
X187250000Y-101410000D01*
G75*
G02*
X187400000Y-101260000I150000J0D01*
G01*
X189050000Y-101260000D01*
G75*
G02*
X189200000Y-101410000I0J-150000D01*
G01*
X189200000Y-101710000D01*
G75*
G02*
X189050000Y-101860000I-150000J0D01*
G01*
X187400000Y-101860000D01*
G75*
G02*
X187250000Y-101710000I0J150000D01*
G01*
G37*
G36*
G01*
X187250000Y-100440000D02*
X187250000Y-100140000D01*
G75*
G02*
X187400000Y-99990000I150000J0D01*
G01*
X189050000Y-99990000D01*
G75*
G02*
X189200000Y-100140000I0J-150000D01*
G01*
X189200000Y-100440000D01*
G75*
G02*
X189050000Y-100590000I-150000J0D01*
G01*
X187400000Y-100590000D01*
G75*
G02*
X187250000Y-100440000I0J150000D01*
G01*
G37*
G36*
G01*
X184162500Y-103025000D02*
X184637500Y-103025000D01*
G75*
G02*
X184875000Y-103262500I0J-237500D01*
G01*
X184875000Y-103762500D01*
G75*
G02*
X184637500Y-104000000I-237500J0D01*
G01*
X184162500Y-104000000D01*
G75*
G02*
X183925000Y-103762500I0J237500D01*
G01*
X183925000Y-103262500D01*
G75*
G02*
X184162500Y-103025000I237500J0D01*
G01*
G37*
G36*
G01*
X184162500Y-101200000D02*
X184637500Y-101200000D01*
G75*
G02*
X184875000Y-101437500I0J-237500D01*
G01*
X184875000Y-101937500D01*
G75*
G02*
X184637500Y-102175000I-237500J0D01*
G01*
X184162500Y-102175000D01*
G75*
G02*
X183925000Y-101937500I0J237500D01*
G01*
X183925000Y-101437500D01*
G75*
G02*
X184162500Y-101200000I237500J0D01*
G01*
G37*
G36*
G01*
X184375000Y-104962500D02*
X184375000Y-105437500D01*
G75*
G02*
X184137500Y-105675000I-237500J0D01*
G01*
X183637500Y-105675000D01*
G75*
G02*
X183400000Y-105437500I0J237500D01*
G01*
X183400000Y-104962500D01*
G75*
G02*
X183637500Y-104725000I237500J0D01*
G01*
X184137500Y-104725000D01*
G75*
G02*
X184375000Y-104962500I0J-237500D01*
G01*
G37*
G36*
G01*
X186200000Y-104962500D02*
X186200000Y-105437500D01*
G75*
G02*
X185962500Y-105675000I-237500J0D01*
G01*
X185462500Y-105675000D01*
G75*
G02*
X185225000Y-105437500I0J237500D01*
G01*
X185225000Y-104962500D01*
G75*
G02*
X185462500Y-104725000I237500J0D01*
G01*
X185962500Y-104725000D01*
G75*
G02*
X186200000Y-104962500I0J-237500D01*
G01*
G37*
G36*
G01*
X197637500Y-107175000D02*
X197162500Y-107175000D01*
G75*
G02*
X196925000Y-106937500I0J237500D01*
G01*
X196925000Y-106437500D01*
G75*
G02*
X197162500Y-106200000I237500J0D01*
G01*
X197637500Y-106200000D01*
G75*
G02*
X197875000Y-106437500I0J-237500D01*
G01*
X197875000Y-106937500D01*
G75*
G02*
X197637500Y-107175000I-237500J0D01*
G01*
G37*
G36*
G01*
X197637500Y-109000000D02*
X197162500Y-109000000D01*
G75*
G02*
X196925000Y-108762500I0J237500D01*
G01*
X196925000Y-108262500D01*
G75*
G02*
X197162500Y-108025000I237500J0D01*
G01*
X197637500Y-108025000D01*
G75*
G02*
X197875000Y-108262500I0J-237500D01*
G01*
X197875000Y-108762500D01*
G75*
G02*
X197637500Y-109000000I-237500J0D01*
G01*
G37*
G36*
G01*
X196437500Y-102675000D02*
X195962500Y-102675000D01*
G75*
G02*
X195725000Y-102437500I0J237500D01*
G01*
X195725000Y-101937500D01*
G75*
G02*
X195962500Y-101700000I237500J0D01*
G01*
X196437500Y-101700000D01*
G75*
G02*
X196675000Y-101937500I0J-237500D01*
G01*
X196675000Y-102437500D01*
G75*
G02*
X196437500Y-102675000I-237500J0D01*
G01*
G37*
G36*
G01*
X196437500Y-104500000D02*
X195962500Y-104500000D01*
G75*
G02*
X195725000Y-104262500I0J237500D01*
G01*
X195725000Y-103762500D01*
G75*
G02*
X195962500Y-103525000I237500J0D01*
G01*
X196437500Y-103525000D01*
G75*
G02*
X196675000Y-103762500I0J-237500D01*
G01*
X196675000Y-104262500D01*
G75*
G02*
X196437500Y-104500000I-237500J0D01*
G01*
G37*
G36*
G01*
X185225000Y-107137500D02*
X185225000Y-106662500D01*
G75*
G02*
X185462500Y-106425000I237500J0D01*
G01*
X185962500Y-106425000D01*
G75*
G02*
X186200000Y-106662500I0J-237500D01*
G01*
X186200000Y-107137500D01*
G75*
G02*
X185962500Y-107375000I-237500J0D01*
G01*
X185462500Y-107375000D01*
G75*
G02*
X185225000Y-107137500I0J237500D01*
G01*
G37*
G36*
G01*
X183400000Y-107137500D02*
X183400000Y-106662500D01*
G75*
G02*
X183637500Y-106425000I237500J0D01*
G01*
X184137500Y-106425000D01*
G75*
G02*
X184375000Y-106662500I0J-237500D01*
G01*
X184375000Y-107137500D01*
G75*
G02*
X184137500Y-107375000I-237500J0D01*
G01*
X183637500Y-107375000D01*
G75*
G02*
X183400000Y-107137500I0J237500D01*
G01*
G37*
G36*
G01*
X188175000Y-96062500D02*
X188175000Y-96537500D01*
G75*
G02*
X187937500Y-96775000I-237500J0D01*
G01*
X187437500Y-96775000D01*
G75*
G02*
X187200000Y-96537500I0J237500D01*
G01*
X187200000Y-96062500D01*
G75*
G02*
X187437500Y-95825000I237500J0D01*
G01*
X187937500Y-95825000D01*
G75*
G02*
X188175000Y-96062500I0J-237500D01*
G01*
G37*
G36*
G01*
X190000000Y-96062500D02*
X190000000Y-96537500D01*
G75*
G02*
X189762500Y-96775000I-237500J0D01*
G01*
X189262500Y-96775000D01*
G75*
G02*
X189025000Y-96537500I0J237500D01*
G01*
X189025000Y-96062500D01*
G75*
G02*
X189262500Y-95825000I237500J0D01*
G01*
X189762500Y-95825000D01*
G75*
G02*
X190000000Y-96062500I0J-237500D01*
G01*
G37*
G36*
G01*
X188175000Y-97962500D02*
X188175000Y-98437500D01*
G75*
G02*
X187937500Y-98675000I-237500J0D01*
G01*
X187437500Y-98675000D01*
G75*
G02*
X187200000Y-98437500I0J237500D01*
G01*
X187200000Y-97962500D01*
G75*
G02*
X187437500Y-97725000I237500J0D01*
G01*
X187937500Y-97725000D01*
G75*
G02*
X188175000Y-97962500I0J-237500D01*
G01*
G37*
G36*
G01*
X190000000Y-97962500D02*
X190000000Y-98437500D01*
G75*
G02*
X189762500Y-98675000I-237500J0D01*
G01*
X189262500Y-98675000D01*
G75*
G02*
X189025000Y-98437500I0J237500D01*
G01*
X189025000Y-97962500D01*
G75*
G02*
X189262500Y-97725000I237500J0D01*
G01*
X189762500Y-97725000D01*
G75*
G02*
X190000000Y-97962500I0J-237500D01*
G01*
G37*
G36*
G01*
X193125000Y-98437500D02*
X193125000Y-97962500D01*
G75*
G02*
X193362500Y-97725000I237500J0D01*
G01*
X193862500Y-97725000D01*
G75*
G02*
X194100000Y-97962500I0J-237500D01*
G01*
X194100000Y-98437500D01*
G75*
G02*
X193862500Y-98675000I-237500J0D01*
G01*
X193362500Y-98675000D01*
G75*
G02*
X193125000Y-98437500I0J237500D01*
G01*
G37*
G36*
G01*
X191300000Y-98437500D02*
X191300000Y-97962500D01*
G75*
G02*
X191537500Y-97725000I237500J0D01*
G01*
X192037500Y-97725000D01*
G75*
G02*
X192275000Y-97962500I0J-237500D01*
G01*
X192275000Y-98437500D01*
G75*
G02*
X192037500Y-98675000I-237500J0D01*
G01*
X191537500Y-98675000D01*
G75*
G02*
X191300000Y-98437500I0J237500D01*
G01*
G37*
G36*
G01*
X118754700Y-127700000D02*
X124045300Y-127700000D01*
G75*
G02*
X124200000Y-127854700I0J-154700D01*
G01*
X124200000Y-128845300D01*
G75*
G02*
X124045300Y-129000000I-154700J0D01*
G01*
X118754700Y-129000000D01*
G75*
G02*
X118600000Y-128845300I0J154700D01*
G01*
X118600000Y-127854700D01*
G75*
G02*
X118754700Y-127700000I154700J0D01*
G01*
G37*
G36*
G01*
X118754700Y-131600000D02*
X124045300Y-131600000D01*
G75*
G02*
X124200000Y-131754700I0J-154700D01*
G01*
X124200000Y-132745300D01*
G75*
G02*
X124045300Y-132900000I-154700J0D01*
G01*
X118754700Y-132900000D01*
G75*
G02*
X118600000Y-132745300I0J154700D01*
G01*
X118600000Y-131754700D01*
G75*
G02*
X118754700Y-131600000I154700J0D01*
G01*
G37*
G36*
G01*
X118754700Y-67100000D02*
X124045300Y-67100000D01*
G75*
G02*
X124200000Y-67254700I0J-154700D01*
G01*
X124200000Y-68245300D01*
G75*
G02*
X124045300Y-68400000I-154700J0D01*
G01*
X118754700Y-68400000D01*
G75*
G02*
X118600000Y-68245300I0J154700D01*
G01*
X118600000Y-67254700D01*
G75*
G02*
X118754700Y-67100000I154700J0D01*
G01*
G37*
G36*
G01*
X118754700Y-71000000D02*
X124045300Y-71000000D01*
G75*
G02*
X124200000Y-71154700I0J-154700D01*
G01*
X124200000Y-72145300D01*
G75*
G02*
X124045300Y-72300000I-154700J0D01*
G01*
X118754700Y-72300000D01*
G75*
G02*
X118600000Y-72145300I0J154700D01*
G01*
X118600000Y-71154700D01*
G75*
G02*
X118754700Y-71000000I154700J0D01*
G01*
G37*
D12*
X112600000Y-108000000D03*
X112600000Y-110000000D03*
X112600000Y-112000000D03*
X112600000Y-114000000D03*
X112600000Y-116000000D03*
X112600000Y-118000000D03*
D13*
X115200000Y-119500000D03*
X115200000Y-106400000D03*
X110000000Y-106400000D03*
X110000000Y-119500000D03*
D12*
X112600000Y-92000000D03*
X112600000Y-90000000D03*
X112600000Y-88000000D03*
X112600000Y-86000000D03*
X112600000Y-84000000D03*
X112600000Y-82000000D03*
D13*
X110000000Y-80500000D03*
X110000000Y-93600000D03*
X115200000Y-93600000D03*
X115200000Y-80500000D03*
D12*
X182000000Y-95200000D03*
X180000000Y-95200000D03*
X178000000Y-95200000D03*
X176000000Y-95200000D03*
X174000000Y-95200000D03*
X172000000Y-95200000D03*
D13*
X170500000Y-97800000D03*
X183600000Y-97800000D03*
X183600000Y-92600000D03*
X170500000Y-92600000D03*
D12*
X174500000Y-121900000D03*
X174500000Y-119900000D03*
X174500000Y-117900000D03*
X174500000Y-115900000D03*
X174500000Y-113900000D03*
X174500000Y-111900000D03*
D13*
X171900000Y-110400000D03*
X171900000Y-123500000D03*
X177100000Y-123500000D03*
X177100000Y-110400000D03*
D14*
X106500000Y-127600000D03*
D15*
X116500000Y-127600000D03*
D14*
X106500000Y-72400000D03*
D15*
X116500000Y-72400000D03*
D16*
X135380000Y-109280000D03*
X125220000Y-109280000D03*
X135380000Y-111820000D03*
X125220000Y-111820000D03*
X135380000Y-114360000D03*
X125220000Y-114360000D03*
X135380000Y-116900000D03*
X125220000Y-116900000D03*
X135380000Y-121980000D03*
X125220000Y-121980000D03*
X135380000Y-124520000D03*
X125220000Y-124520000D03*
X148920000Y-124520000D03*
X159080000Y-124520000D03*
X148920000Y-121980000D03*
X159080000Y-121980000D03*
X148920000Y-119440000D03*
X159080000Y-119440000D03*
X148920000Y-116900000D03*
X159080000Y-116900000D03*
X148920000Y-111820000D03*
X159080000Y-111820000D03*
X148920000Y-109280000D03*
X159080000Y-109280000D03*
X125220000Y-90720000D03*
X135380000Y-90720000D03*
X125220000Y-88180000D03*
X135380000Y-88180000D03*
X125220000Y-85640000D03*
X135380000Y-85640000D03*
X125220000Y-83100000D03*
X135380000Y-83100000D03*
X125220000Y-78020000D03*
X135380000Y-78020000D03*
X125220000Y-75480000D03*
X135380000Y-75480000D03*
D17*
X127800000Y-70400000D03*
X132800000Y-70400000D03*
X127800000Y-129600000D03*
X132800000Y-129600000D03*
G36*
G01*
X106325000Y-102037500D02*
X106325000Y-101562500D01*
G75*
G02*
X106562500Y-101325000I237500J0D01*
G01*
X107062500Y-101325000D01*
G75*
G02*
X107300000Y-101562500I0J-237500D01*
G01*
X107300000Y-102037500D01*
G75*
G02*
X107062500Y-102275000I-237500J0D01*
G01*
X106562500Y-102275000D01*
G75*
G02*
X106325000Y-102037500I0J237500D01*
G01*
G37*
G36*
G01*
X104500000Y-102037500D02*
X104500000Y-101562500D01*
G75*
G02*
X104737500Y-101325000I237500J0D01*
G01*
X105237500Y-101325000D01*
G75*
G02*
X105475000Y-101562500I0J-237500D01*
G01*
X105475000Y-102037500D01*
G75*
G02*
X105237500Y-102275000I-237500J0D01*
G01*
X104737500Y-102275000D01*
G75*
G02*
X104500000Y-102037500I0J237500D01*
G01*
G37*
D18*
X115140000Y-102900000D03*
X112600000Y-102900000D03*
D19*
X110060000Y-102900000D03*
D18*
X115140000Y-97100000D03*
X112600000Y-97100000D03*
D19*
X110060000Y-97100000D03*
D20*
X199200000Y-75450000D03*
X199200000Y-72150000D03*
G36*
G01*
X194950000Y-72455000D02*
X194950000Y-72755000D01*
G75*
G02*
X194800000Y-72905000I-150000J0D01*
G01*
X193150000Y-72905000D01*
G75*
G02*
X193000000Y-72755000I0J150000D01*
G01*
X193000000Y-72455000D01*
G75*
G02*
X193150000Y-72305000I150000J0D01*
G01*
X194800000Y-72305000D01*
G75*
G02*
X194950000Y-72455000I0J-150000D01*
G01*
G37*
G36*
G01*
X194950000Y-71185000D02*
X194950000Y-71485000D01*
G75*
G02*
X194800000Y-71635000I-150000J0D01*
G01*
X193150000Y-71635000D01*
G75*
G02*
X193000000Y-71485000I0J150000D01*
G01*
X193000000Y-71185000D01*
G75*
G02*
X193150000Y-71035000I150000J0D01*
G01*
X194800000Y-71035000D01*
G75*
G02*
X194950000Y-71185000I0J-150000D01*
G01*
G37*
G36*
G01*
X194950000Y-69915000D02*
X194950000Y-70215000D01*
G75*
G02*
X194800000Y-70365000I-150000J0D01*
G01*
X193150000Y-70365000D01*
G75*
G02*
X193000000Y-70215000I0J150000D01*
G01*
X193000000Y-69915000D01*
G75*
G02*
X193150000Y-69765000I150000J0D01*
G01*
X194800000Y-69765000D01*
G75*
G02*
X194950000Y-69915000I0J-150000D01*
G01*
G37*
G36*
G01*
X194950000Y-68645000D02*
X194950000Y-68945000D01*
G75*
G02*
X194800000Y-69095000I-150000J0D01*
G01*
X193150000Y-69095000D01*
G75*
G02*
X193000000Y-68945000I0J150000D01*
G01*
X193000000Y-68645000D01*
G75*
G02*
X193150000Y-68495000I150000J0D01*
G01*
X194800000Y-68495000D01*
G75*
G02*
X194950000Y-68645000I0J-150000D01*
G01*
G37*
G36*
G01*
X190000000Y-68645000D02*
X190000000Y-68945000D01*
G75*
G02*
X189850000Y-69095000I-150000J0D01*
G01*
X188200000Y-69095000D01*
G75*
G02*
X188050000Y-68945000I0J150000D01*
G01*
X188050000Y-68645000D01*
G75*
G02*
X188200000Y-68495000I150000J0D01*
G01*
X189850000Y-68495000D01*
G75*
G02*
X190000000Y-68645000I0J-150000D01*
G01*
G37*
G36*
G01*
X190000000Y-69915000D02*
X190000000Y-70215000D01*
G75*
G02*
X189850000Y-70365000I-150000J0D01*
G01*
X188200000Y-70365000D01*
G75*
G02*
X188050000Y-70215000I0J150000D01*
G01*
X188050000Y-69915000D01*
G75*
G02*
X188200000Y-69765000I150000J0D01*
G01*
X189850000Y-69765000D01*
G75*
G02*
X190000000Y-69915000I0J-150000D01*
G01*
G37*
G36*
G01*
X190000000Y-71185000D02*
X190000000Y-71485000D01*
G75*
G02*
X189850000Y-71635000I-150000J0D01*
G01*
X188200000Y-71635000D01*
G75*
G02*
X188050000Y-71485000I0J150000D01*
G01*
X188050000Y-71185000D01*
G75*
G02*
X188200000Y-71035000I150000J0D01*
G01*
X189850000Y-71035000D01*
G75*
G02*
X190000000Y-71185000I0J-150000D01*
G01*
G37*
G36*
G01*
X190000000Y-72455000D02*
X190000000Y-72755000D01*
G75*
G02*
X189850000Y-72905000I-150000J0D01*
G01*
X188200000Y-72905000D01*
G75*
G02*
X188050000Y-72755000I0J150000D01*
G01*
X188050000Y-72455000D01*
G75*
G02*
X188200000Y-72305000I150000J0D01*
G01*
X189850000Y-72305000D01*
G75*
G02*
X190000000Y-72455000I0J-150000D01*
G01*
G37*
D21*
X191500000Y-70700000D03*
G36*
G01*
X180625000Y-119210000D02*
X180625000Y-118910000D01*
G75*
G02*
X180775000Y-118760000I150000J0D01*
G01*
X182425000Y-118760000D01*
G75*
G02*
X182575000Y-118910000I0J-150000D01*
G01*
X182575000Y-119210000D01*
G75*
G02*
X182425000Y-119360000I-150000J0D01*
G01*
X180775000Y-119360000D01*
G75*
G02*
X180625000Y-119210000I0J150000D01*
G01*
G37*
G36*
G01*
X180625000Y-120480000D02*
X180625000Y-120180000D01*
G75*
G02*
X180775000Y-120030000I150000J0D01*
G01*
X182425000Y-120030000D01*
G75*
G02*
X182575000Y-120180000I0J-150000D01*
G01*
X182575000Y-120480000D01*
G75*
G02*
X182425000Y-120630000I-150000J0D01*
G01*
X180775000Y-120630000D01*
G75*
G02*
X180625000Y-120480000I0J150000D01*
G01*
G37*
G36*
G01*
X180625000Y-121750000D02*
X180625000Y-121450000D01*
G75*
G02*
X180775000Y-121300000I150000J0D01*
G01*
X182425000Y-121300000D01*
G75*
G02*
X182575000Y-121450000I0J-150000D01*
G01*
X182575000Y-121750000D01*
G75*
G02*
X182425000Y-121900000I-150000J0D01*
G01*
X180775000Y-121900000D01*
G75*
G02*
X180625000Y-121750000I0J150000D01*
G01*
G37*
G36*
G01*
X180625000Y-123020000D02*
X180625000Y-122720000D01*
G75*
G02*
X180775000Y-122570000I150000J0D01*
G01*
X182425000Y-122570000D01*
G75*
G02*
X182575000Y-122720000I0J-150000D01*
G01*
X182575000Y-123020000D01*
G75*
G02*
X182425000Y-123170000I-150000J0D01*
G01*
X180775000Y-123170000D01*
G75*
G02*
X180625000Y-123020000I0J150000D01*
G01*
G37*
G36*
G01*
X185575000Y-123020000D02*
X185575000Y-122720000D01*
G75*
G02*
X185725000Y-122570000I150000J0D01*
G01*
X187375000Y-122570000D01*
G75*
G02*
X187525000Y-122720000I0J-150000D01*
G01*
X187525000Y-123020000D01*
G75*
G02*
X187375000Y-123170000I-150000J0D01*
G01*
X185725000Y-123170000D01*
G75*
G02*
X185575000Y-123020000I0J150000D01*
G01*
G37*
G36*
G01*
X185575000Y-121750000D02*
X185575000Y-121450000D01*
G75*
G02*
X185725000Y-121300000I150000J0D01*
G01*
X187375000Y-121300000D01*
G75*
G02*
X187525000Y-121450000I0J-150000D01*
G01*
X187525000Y-121750000D01*
G75*
G02*
X187375000Y-121900000I-150000J0D01*
G01*
X185725000Y-121900000D01*
G75*
G02*
X185575000Y-121750000I0J150000D01*
G01*
G37*
G36*
G01*
X185575000Y-120480000D02*
X185575000Y-120180000D01*
G75*
G02*
X185725000Y-120030000I150000J0D01*
G01*
X187375000Y-120030000D01*
G75*
G02*
X187525000Y-120180000I0J-150000D01*
G01*
X187525000Y-120480000D01*
G75*
G02*
X187375000Y-120630000I-150000J0D01*
G01*
X185725000Y-120630000D01*
G75*
G02*
X185575000Y-120480000I0J150000D01*
G01*
G37*
G36*
G01*
X185575000Y-119210000D02*
X185575000Y-118910000D01*
G75*
G02*
X185725000Y-118760000I150000J0D01*
G01*
X187375000Y-118760000D01*
G75*
G02*
X187525000Y-118910000I0J-150000D01*
G01*
X187525000Y-119210000D01*
G75*
G02*
X187375000Y-119360000I-150000J0D01*
G01*
X185725000Y-119360000D01*
G75*
G02*
X185575000Y-119210000I0J150000D01*
G01*
G37*
X184075000Y-120965000D03*
D22*
X96000000Y-98760000D03*
D23*
X96000000Y-101300000D03*
D24*
X154000000Y-74000000D03*
X154000000Y-82800000D03*
D22*
X161000000Y-75900000D03*
X161000000Y-78400000D03*
X161000000Y-80900000D03*
D11*
G36*
X193025000Y-74900000D02*
G01*
X193525000Y-74150000D01*
X194525000Y-74150000D01*
X194525000Y-75650000D01*
X193525000Y-75650000D01*
X193025000Y-74900000D01*
G37*
G36*
X192075000Y-74150000D02*
G01*
X193225000Y-74150000D01*
X192725000Y-74900000D01*
X193225000Y-75650000D01*
X192075000Y-75650000D01*
X192075000Y-74150000D01*
G37*
G36*
G01*
X202850000Y-105350000D02*
X202850000Y-104250000D01*
G75*
G02*
X203100000Y-104000000I250000J0D01*
G01*
X206100000Y-104000000D01*
G75*
G02*
X206350000Y-104250000I0J-250000D01*
G01*
X206350000Y-105350000D01*
G75*
G02*
X206100000Y-105600000I-250000J0D01*
G01*
X203100000Y-105600000D01*
G75*
G02*
X202850000Y-105350000I0J250000D01*
G01*
G37*
G36*
G01*
X197450000Y-105350000D02*
X197450000Y-104250000D01*
G75*
G02*
X197700000Y-104000000I250000J0D01*
G01*
X200700000Y-104000000D01*
G75*
G02*
X200950000Y-104250000I0J-250000D01*
G01*
X200950000Y-105350000D01*
G75*
G02*
X200700000Y-105600000I-250000J0D01*
G01*
X197700000Y-105600000D01*
G75*
G02*
X197450000Y-105350000I0J250000D01*
G01*
G37*
G36*
G01*
X202850000Y-97550000D02*
X202850000Y-96450000D01*
G75*
G02*
X203100000Y-96200000I250000J0D01*
G01*
X206100000Y-96200000D01*
G75*
G02*
X206350000Y-96450000I0J-250000D01*
G01*
X206350000Y-97550000D01*
G75*
G02*
X206100000Y-97800000I-250000J0D01*
G01*
X203100000Y-97800000D01*
G75*
G02*
X202850000Y-97550000I0J250000D01*
G01*
G37*
G36*
G01*
X197450000Y-97550000D02*
X197450000Y-96450000D01*
G75*
G02*
X197700000Y-96200000I250000J0D01*
G01*
X200700000Y-96200000D01*
G75*
G02*
X200950000Y-96450000I0J-250000D01*
G01*
X200950000Y-97550000D01*
G75*
G02*
X200700000Y-97800000I-250000J0D01*
G01*
X197700000Y-97800000D01*
G75*
G02*
X197450000Y-97550000I0J250000D01*
G01*
G37*
D25*
X162900000Y-118880000D03*
X165440000Y-116340000D03*
X162900000Y-113800000D03*
G36*
G01*
X204050000Y-72150000D02*
X205150000Y-72150000D01*
G75*
G02*
X205400000Y-72400000I0J-250000D01*
G01*
X205400000Y-75400000D01*
G75*
G02*
X205150000Y-75650000I-250000J0D01*
G01*
X204050000Y-75650000D01*
G75*
G02*
X203800000Y-75400000I0J250000D01*
G01*
X203800000Y-72400000D01*
G75*
G02*
X204050000Y-72150000I250000J0D01*
G01*
G37*
G36*
G01*
X204050000Y-66750000D02*
X205150000Y-66750000D01*
G75*
G02*
X205400000Y-67000000I0J-250000D01*
G01*
X205400000Y-70000000D01*
G75*
G02*
X205150000Y-70250000I-250000J0D01*
G01*
X204050000Y-70250000D01*
G75*
G02*
X203800000Y-70000000I0J250000D01*
G01*
X203800000Y-67000000D01*
G75*
G02*
X204050000Y-66750000I250000J0D01*
G01*
G37*
X142400000Y-123080000D03*
X144940000Y-120540000D03*
X142400000Y-118000000D03*
X178580000Y-103500000D03*
X176040000Y-100960000D03*
X173500000Y-103500000D03*
G36*
G01*
X170337500Y-102175000D02*
X169862500Y-102175000D01*
G75*
G02*
X169625000Y-101937500I0J237500D01*
G01*
X169625000Y-101437500D01*
G75*
G02*
X169862500Y-101200000I237500J0D01*
G01*
X170337500Y-101200000D01*
G75*
G02*
X170575000Y-101437500I0J-237500D01*
G01*
X170575000Y-101937500D01*
G75*
G02*
X170337500Y-102175000I-237500J0D01*
G01*
G37*
G36*
G01*
X170337500Y-104000000D02*
X169862500Y-104000000D01*
G75*
G02*
X169625000Y-103762500I0J237500D01*
G01*
X169625000Y-103262500D01*
G75*
G02*
X169862500Y-103025000I237500J0D01*
G01*
X170337500Y-103025000D01*
G75*
G02*
X170575000Y-103262500I0J-237500D01*
G01*
X170575000Y-103762500D01*
G75*
G02*
X170337500Y-104000000I-237500J0D01*
G01*
G37*
G36*
G01*
X181762500Y-103025000D02*
X182237500Y-103025000D01*
G75*
G02*
X182475000Y-103262500I0J-237500D01*
G01*
X182475000Y-103762500D01*
G75*
G02*
X182237500Y-104000000I-237500J0D01*
G01*
X181762500Y-104000000D01*
G75*
G02*
X181525000Y-103762500I0J237500D01*
G01*
X181525000Y-103262500D01*
G75*
G02*
X181762500Y-103025000I237500J0D01*
G01*
G37*
G36*
G01*
X181762500Y-101200000D02*
X182237500Y-101200000D01*
G75*
G02*
X182475000Y-101437500I0J-237500D01*
G01*
X182475000Y-101937500D01*
G75*
G02*
X182237500Y-102175000I-237500J0D01*
G01*
X181762500Y-102175000D01*
G75*
G02*
X181525000Y-101937500I0J237500D01*
G01*
X181525000Y-101437500D01*
G75*
G02*
X181762500Y-101200000I237500J0D01*
G01*
G37*
G36*
G01*
X120549999Y-115450000D02*
X121450001Y-115450000D01*
G75*
G02*
X121700000Y-115699999I0J-249999D01*
G01*
X121700000Y-116350001D01*
G75*
G02*
X121450001Y-116600000I-249999J0D01*
G01*
X120549999Y-116600000D01*
G75*
G02*
X120300000Y-116350001I0J249999D01*
G01*
X120300000Y-115699999D01*
G75*
G02*
X120549999Y-115450000I249999J0D01*
G01*
G37*
G36*
G01*
X120549999Y-113400000D02*
X121450001Y-113400000D01*
G75*
G02*
X121700000Y-113649999I0J-249999D01*
G01*
X121700000Y-114300001D01*
G75*
G02*
X121450001Y-114550000I-249999J0D01*
G01*
X120549999Y-114550000D01*
G75*
G02*
X120300000Y-114300001I0J249999D01*
G01*
X120300000Y-113649999D01*
G75*
G02*
X120549999Y-113400000I249999J0D01*
G01*
G37*
G36*
G01*
X121450001Y-84550000D02*
X120549999Y-84550000D01*
G75*
G02*
X120300000Y-84300001I0J249999D01*
G01*
X120300000Y-83649999D01*
G75*
G02*
X120549999Y-83400000I249999J0D01*
G01*
X121450001Y-83400000D01*
G75*
G02*
X121700000Y-83649999I0J-249999D01*
G01*
X121700000Y-84300001D01*
G75*
G02*
X121450001Y-84550000I-249999J0D01*
G01*
G37*
G36*
G01*
X121450001Y-86600000D02*
X120549999Y-86600000D01*
G75*
G02*
X120300000Y-86350001I0J249999D01*
G01*
X120300000Y-85699999D01*
G75*
G02*
X120549999Y-85450000I249999J0D01*
G01*
X121450001Y-85450000D01*
G75*
G02*
X121700000Y-85699999I0J-249999D01*
G01*
X121700000Y-86350001D01*
G75*
G02*
X121450001Y-86600000I-249999J0D01*
G01*
G37*
D24*
X177000000Y-74000000D03*
X177000000Y-82800000D03*
D22*
X184000000Y-75900000D03*
X184000000Y-78400000D03*
X184000000Y-80900000D03*
G36*
G01*
X197237500Y-68762500D02*
X196762500Y-68762500D01*
G75*
G02*
X196525000Y-68525000I0J237500D01*
G01*
X196525000Y-68025000D01*
G75*
G02*
X196762500Y-67787500I237500J0D01*
G01*
X197237500Y-67787500D01*
G75*
G02*
X197475000Y-68025000I0J-237500D01*
G01*
X197475000Y-68525000D01*
G75*
G02*
X197237500Y-68762500I-237500J0D01*
G01*
G37*
G36*
G01*
X197237500Y-70587500D02*
X196762500Y-70587500D01*
G75*
G02*
X196525000Y-70350000I0J237500D01*
G01*
X196525000Y-69850000D01*
G75*
G02*
X196762500Y-69612500I237500J0D01*
G01*
X197237500Y-69612500D01*
G75*
G02*
X197475000Y-69850000I0J-237500D01*
G01*
X197475000Y-70350000D01*
G75*
G02*
X197237500Y-70587500I-237500J0D01*
G01*
G37*
G36*
G01*
X198662500Y-69625000D02*
X199137500Y-69625000D01*
G75*
G02*
X199375000Y-69862500I0J-237500D01*
G01*
X199375000Y-70362500D01*
G75*
G02*
X199137500Y-70600000I-237500J0D01*
G01*
X198662500Y-70600000D01*
G75*
G02*
X198425000Y-70362500I0J237500D01*
G01*
X198425000Y-69862500D01*
G75*
G02*
X198662500Y-69625000I237500J0D01*
G01*
G37*
G36*
G01*
X198662500Y-67800000D02*
X199137500Y-67800000D01*
G75*
G02*
X199375000Y-68037500I0J-237500D01*
G01*
X199375000Y-68537500D01*
G75*
G02*
X199137500Y-68775000I-237500J0D01*
G01*
X198662500Y-68775000D01*
G75*
G02*
X198425000Y-68537500I0J237500D01*
G01*
X198425000Y-68037500D01*
G75*
G02*
X198662500Y-67800000I237500J0D01*
G01*
G37*
D17*
X206400000Y-82500000D03*
D26*
X204400000Y-78000000D03*
X204400000Y-87000000D03*
D27*
X203400000Y-82500000D03*
D28*
X197400000Y-82500000D03*
G36*
G01*
X182575000Y-116720000D02*
X182575000Y-117020000D01*
G75*
G02*
X182425000Y-117170000I-150000J0D01*
G01*
X180775000Y-117170000D01*
G75*
G02*
X180625000Y-117020000I0J150000D01*
G01*
X180625000Y-116720000D01*
G75*
G02*
X180775000Y-116570000I150000J0D01*
G01*
X182425000Y-116570000D01*
G75*
G02*
X182575000Y-116720000I0J-150000D01*
G01*
G37*
G36*
G01*
X182575000Y-115450000D02*
X182575000Y-115750000D01*
G75*
G02*
X182425000Y-115900000I-150000J0D01*
G01*
X180775000Y-115900000D01*
G75*
G02*
X180625000Y-115750000I0J150000D01*
G01*
X180625000Y-115450000D01*
G75*
G02*
X180775000Y-115300000I150000J0D01*
G01*
X182425000Y-115300000D01*
G75*
G02*
X182575000Y-115450000I0J-150000D01*
G01*
G37*
G36*
G01*
X182575000Y-114180000D02*
X182575000Y-114480000D01*
G75*
G02*
X182425000Y-114630000I-150000J0D01*
G01*
X180775000Y-114630000D01*
G75*
G02*
X180625000Y-114480000I0J150000D01*
G01*
X180625000Y-114180000D01*
G75*
G02*
X180775000Y-114030000I150000J0D01*
G01*
X182425000Y-114030000D01*
G75*
G02*
X182575000Y-114180000I0J-150000D01*
G01*
G37*
G36*
G01*
X182575000Y-112910000D02*
X182575000Y-113210000D01*
G75*
G02*
X182425000Y-113360000I-150000J0D01*
G01*
X180775000Y-113360000D01*
G75*
G02*
X180625000Y-113210000I0J150000D01*
G01*
X180625000Y-112910000D01*
G75*
G02*
X180775000Y-112760000I150000J0D01*
G01*
X182425000Y-112760000D01*
G75*
G02*
X182575000Y-112910000I0J-150000D01*
G01*
G37*
G36*
G01*
X187525000Y-112910000D02*
X187525000Y-113210000D01*
G75*
G02*
X187375000Y-113360000I-150000J0D01*
G01*
X185725000Y-113360000D01*
G75*
G02*
X185575000Y-113210000I0J150000D01*
G01*
X185575000Y-112910000D01*
G75*
G02*
X185725000Y-112760000I150000J0D01*
G01*
X187375000Y-112760000D01*
G75*
G02*
X187525000Y-112910000I0J-150000D01*
G01*
G37*
G36*
G01*
X187525000Y-114180000D02*
X187525000Y-114480000D01*
G75*
G02*
X187375000Y-114630000I-150000J0D01*
G01*
X185725000Y-114630000D01*
G75*
G02*
X185575000Y-114480000I0J150000D01*
G01*
X185575000Y-114180000D01*
G75*
G02*
X185725000Y-114030000I150000J0D01*
G01*
X187375000Y-114030000D01*
G75*
G02*
X187525000Y-114180000I0J-150000D01*
G01*
G37*
G36*
G01*
X187525000Y-115450000D02*
X187525000Y-115750000D01*
G75*
G02*
X187375000Y-115900000I-150000J0D01*
G01*
X185725000Y-115900000D01*
G75*
G02*
X185575000Y-115750000I0J150000D01*
G01*
X185575000Y-115450000D01*
G75*
G02*
X185725000Y-115300000I150000J0D01*
G01*
X187375000Y-115300000D01*
G75*
G02*
X187525000Y-115450000I0J-150000D01*
G01*
G37*
G36*
G01*
X187525000Y-116720000D02*
X187525000Y-117020000D01*
G75*
G02*
X187375000Y-117170000I-150000J0D01*
G01*
X185725000Y-117170000D01*
G75*
G02*
X185575000Y-117020000I0J150000D01*
G01*
X185575000Y-116720000D01*
G75*
G02*
X185725000Y-116570000I150000J0D01*
G01*
X187375000Y-116570000D01*
G75*
G02*
X187525000Y-116720000I0J-150000D01*
G01*
G37*
G36*
G01*
X156755000Y-92600000D02*
X157055000Y-92600000D01*
G75*
G02*
X157205000Y-92750000I0J-150000D01*
G01*
X157205000Y-94400000D01*
G75*
G02*
X157055000Y-94550000I-150000J0D01*
G01*
X156755000Y-94550000D01*
G75*
G02*
X156605000Y-94400000I0J150000D01*
G01*
X156605000Y-92750000D01*
G75*
G02*
X156755000Y-92600000I150000J0D01*
G01*
G37*
G36*
G01*
X155485000Y-92600000D02*
X155785000Y-92600000D01*
G75*
G02*
X155935000Y-92750000I0J-150000D01*
G01*
X155935000Y-94400000D01*
G75*
G02*
X155785000Y-94550000I-150000J0D01*
G01*
X155485000Y-94550000D01*
G75*
G02*
X155335000Y-94400000I0J150000D01*
G01*
X155335000Y-92750000D01*
G75*
G02*
X155485000Y-92600000I150000J0D01*
G01*
G37*
G36*
G01*
X154215000Y-92600000D02*
X154515000Y-92600000D01*
G75*
G02*
X154665000Y-92750000I0J-150000D01*
G01*
X154665000Y-94400000D01*
G75*
G02*
X154515000Y-94550000I-150000J0D01*
G01*
X154215000Y-94550000D01*
G75*
G02*
X154065000Y-94400000I0J150000D01*
G01*
X154065000Y-92750000D01*
G75*
G02*
X154215000Y-92600000I150000J0D01*
G01*
G37*
G36*
G01*
X152945000Y-92600000D02*
X153245000Y-92600000D01*
G75*
G02*
X153395000Y-92750000I0J-150000D01*
G01*
X153395000Y-94400000D01*
G75*
G02*
X153245000Y-94550000I-150000J0D01*
G01*
X152945000Y-94550000D01*
G75*
G02*
X152795000Y-94400000I0J150000D01*
G01*
X152795000Y-92750000D01*
G75*
G02*
X152945000Y-92600000I150000J0D01*
G01*
G37*
G36*
G01*
X152945000Y-87650000D02*
X153245000Y-87650000D01*
G75*
G02*
X153395000Y-87800000I0J-150000D01*
G01*
X153395000Y-89450000D01*
G75*
G02*
X153245000Y-89600000I-150000J0D01*
G01*
X152945000Y-89600000D01*
G75*
G02*
X152795000Y-89450000I0J150000D01*
G01*
X152795000Y-87800000D01*
G75*
G02*
X152945000Y-87650000I150000J0D01*
G01*
G37*
G36*
G01*
X154215000Y-87650000D02*
X154515000Y-87650000D01*
G75*
G02*
X154665000Y-87800000I0J-150000D01*
G01*
X154665000Y-89450000D01*
G75*
G02*
X154515000Y-89600000I-150000J0D01*
G01*
X154215000Y-89600000D01*
G75*
G02*
X154065000Y-89450000I0J150000D01*
G01*
X154065000Y-87800000D01*
G75*
G02*
X154215000Y-87650000I150000J0D01*
G01*
G37*
G36*
G01*
X155485000Y-87650000D02*
X155785000Y-87650000D01*
G75*
G02*
X155935000Y-87800000I0J-150000D01*
G01*
X155935000Y-89450000D01*
G75*
G02*
X155785000Y-89600000I-150000J0D01*
G01*
X155485000Y-89600000D01*
G75*
G02*
X155335000Y-89450000I0J150000D01*
G01*
X155335000Y-87800000D01*
G75*
G02*
X155485000Y-87650000I150000J0D01*
G01*
G37*
G36*
G01*
X156755000Y-87650000D02*
X157055000Y-87650000D01*
G75*
G02*
X157205000Y-87800000I0J-150000D01*
G01*
X157205000Y-89450000D01*
G75*
G02*
X157055000Y-89600000I-150000J0D01*
G01*
X156755000Y-89600000D01*
G75*
G02*
X156605000Y-89450000I0J150000D01*
G01*
X156605000Y-87800000D01*
G75*
G02*
X156755000Y-87650000I150000J0D01*
G01*
G37*
D25*
X127710000Y-102540000D03*
X130250000Y-100000000D03*
X127710000Y-97460000D03*
G36*
G01*
X190537500Y-114775000D02*
X190062500Y-114775000D01*
G75*
G02*
X189825000Y-114537500I0J237500D01*
G01*
X189825000Y-114037500D01*
G75*
G02*
X190062500Y-113800000I237500J0D01*
G01*
X190537500Y-113800000D01*
G75*
G02*
X190775000Y-114037500I0J-237500D01*
G01*
X190775000Y-114537500D01*
G75*
G02*
X190537500Y-114775000I-237500J0D01*
G01*
G37*
G36*
G01*
X190537500Y-116600000D02*
X190062500Y-116600000D01*
G75*
G02*
X189825000Y-116362500I0J237500D01*
G01*
X189825000Y-115862500D01*
G75*
G02*
X190062500Y-115625000I237500J0D01*
G01*
X190537500Y-115625000D01*
G75*
G02*
X190775000Y-115862500I0J-237500D01*
G01*
X190775000Y-116362500D01*
G75*
G02*
X190537500Y-116600000I-237500J0D01*
G01*
G37*
G36*
G01*
X164525000Y-110537500D02*
X164525000Y-110062500D01*
G75*
G02*
X164762500Y-109825000I237500J0D01*
G01*
X165262500Y-109825000D01*
G75*
G02*
X165500000Y-110062500I0J-237500D01*
G01*
X165500000Y-110537500D01*
G75*
G02*
X165262500Y-110775000I-237500J0D01*
G01*
X164762500Y-110775000D01*
G75*
G02*
X164525000Y-110537500I0J237500D01*
G01*
G37*
G36*
G01*
X162700000Y-110537500D02*
X162700000Y-110062500D01*
G75*
G02*
X162937500Y-109825000I237500J0D01*
G01*
X163437500Y-109825000D01*
G75*
G02*
X163675000Y-110062500I0J-237500D01*
G01*
X163675000Y-110537500D01*
G75*
G02*
X163437500Y-110775000I-237500J0D01*
G01*
X162937500Y-110775000D01*
G75*
G02*
X162700000Y-110537500I0J237500D01*
G01*
G37*
G36*
G01*
X147175000Y-126262500D02*
X147175000Y-126737500D01*
G75*
G02*
X146937500Y-126975000I-237500J0D01*
G01*
X146437500Y-126975000D01*
G75*
G02*
X146200000Y-126737500I0J237500D01*
G01*
X146200000Y-126262500D01*
G75*
G02*
X146437500Y-126025000I237500J0D01*
G01*
X146937500Y-126025000D01*
G75*
G02*
X147175000Y-126262500I0J-237500D01*
G01*
G37*
G36*
G01*
X149000000Y-126262500D02*
X149000000Y-126737500D01*
G75*
G02*
X148762500Y-126975000I-237500J0D01*
G01*
X148262500Y-126975000D01*
G75*
G02*
X148025000Y-126737500I0J237500D01*
G01*
X148025000Y-126262500D01*
G75*
G02*
X148262500Y-126025000I237500J0D01*
G01*
X148762500Y-126025000D01*
G75*
G02*
X149000000Y-126262500I0J-237500D01*
G01*
G37*
G36*
G01*
X105475000Y-97962500D02*
X105475000Y-98437500D01*
G75*
G02*
X105237500Y-98675000I-237500J0D01*
G01*
X104737500Y-98675000D01*
G75*
G02*
X104500000Y-98437500I0J237500D01*
G01*
X104500000Y-97962500D01*
G75*
G02*
X104737500Y-97725000I237500J0D01*
G01*
X105237500Y-97725000D01*
G75*
G02*
X105475000Y-97962500I0J-237500D01*
G01*
G37*
G36*
G01*
X107300000Y-97962500D02*
X107300000Y-98437500D01*
G75*
G02*
X107062500Y-98675000I-237500J0D01*
G01*
X106562500Y-98675000D01*
G75*
G02*
X106325000Y-98437500I0J237500D01*
G01*
X106325000Y-97962500D01*
G75*
G02*
X106562500Y-97725000I237500J0D01*
G01*
X107062500Y-97725000D01*
G75*
G02*
X107300000Y-97962500I0J-237500D01*
G01*
G37*
G36*
G01*
X117874999Y-115900000D02*
X119125001Y-115900000D01*
G75*
G02*
X119375000Y-116149999I0J-249999D01*
G01*
X119375000Y-116950001D01*
G75*
G02*
X119125001Y-117200000I-249999J0D01*
G01*
X117874999Y-117200000D01*
G75*
G02*
X117625000Y-116950001I0J249999D01*
G01*
X117625000Y-116149999D01*
G75*
G02*
X117874999Y-115900000I249999J0D01*
G01*
G37*
G36*
G01*
X117874999Y-112800000D02*
X119125001Y-112800000D01*
G75*
G02*
X119375000Y-113049999I0J-249999D01*
G01*
X119375000Y-113850001D01*
G75*
G02*
X119125001Y-114100000I-249999J0D01*
G01*
X117874999Y-114100000D01*
G75*
G02*
X117625000Y-113850001I0J249999D01*
G01*
X117625000Y-113049999D01*
G75*
G02*
X117874999Y-112800000I249999J0D01*
G01*
G37*
G36*
G01*
X119125001Y-84100000D02*
X117874999Y-84100000D01*
G75*
G02*
X117625000Y-83850001I0J249999D01*
G01*
X117625000Y-83049999D01*
G75*
G02*
X117874999Y-82800000I249999J0D01*
G01*
X119125001Y-82800000D01*
G75*
G02*
X119375000Y-83049999I0J-249999D01*
G01*
X119375000Y-83850001D01*
G75*
G02*
X119125001Y-84100000I-249999J0D01*
G01*
G37*
G36*
G01*
X119125001Y-87200000D02*
X117874999Y-87200000D01*
G75*
G02*
X117625000Y-86950001I0J249999D01*
G01*
X117625000Y-86149999D01*
G75*
G02*
X117874999Y-85900000I249999J0D01*
G01*
X119125001Y-85900000D01*
G75*
G02*
X119375000Y-86149999I0J-249999D01*
G01*
X119375000Y-86950001D01*
G75*
G02*
X119125001Y-87200000I-249999J0D01*
G01*
G37*
G36*
G01*
X196349999Y-74450000D02*
X197250001Y-74450000D01*
G75*
G02*
X197500000Y-74699999I0J-249999D01*
G01*
X197500000Y-75350001D01*
G75*
G02*
X197250001Y-75600000I-249999J0D01*
G01*
X196349999Y-75600000D01*
G75*
G02*
X196100000Y-75350001I0J249999D01*
G01*
X196100000Y-74699999D01*
G75*
G02*
X196349999Y-74450000I249999J0D01*
G01*
G37*
G36*
G01*
X196349999Y-72400000D02*
X197250001Y-72400000D01*
G75*
G02*
X197500000Y-72649999I0J-249999D01*
G01*
X197500000Y-73300001D01*
G75*
G02*
X197250001Y-73550000I-249999J0D01*
G01*
X196349999Y-73550000D01*
G75*
G02*
X196100000Y-73300001I0J249999D01*
G01*
X196100000Y-72649999D01*
G75*
G02*
X196349999Y-72400000I249999J0D01*
G01*
G37*
G36*
G01*
X183700000Y-111062500D02*
X183700000Y-111537500D01*
G75*
G02*
X183462500Y-111775000I-237500J0D01*
G01*
X182887500Y-111775000D01*
G75*
G02*
X182650000Y-111537500I0J237500D01*
G01*
X182650000Y-111062500D01*
G75*
G02*
X182887500Y-110825000I237500J0D01*
G01*
X183462500Y-110825000D01*
G75*
G02*
X183700000Y-111062500I0J-237500D01*
G01*
G37*
G36*
G01*
X185450000Y-111062500D02*
X185450000Y-111537500D01*
G75*
G02*
X185212500Y-111775000I-237500J0D01*
G01*
X184637500Y-111775000D01*
G75*
G02*
X184400000Y-111537500I0J237500D01*
G01*
X184400000Y-111062500D01*
G75*
G02*
X184637500Y-110825000I237500J0D01*
G01*
X185212500Y-110825000D01*
G75*
G02*
X185450000Y-111062500I0J-237500D01*
G01*
G37*
D29*
X121850000Y-110000000D03*
X117950000Y-110000000D03*
X121850000Y-90000000D03*
X117950000Y-90000000D03*
G36*
G01*
X155900000Y-98245000D02*
X155900000Y-97945000D01*
G75*
G02*
X156050000Y-97795000I150000J0D01*
G01*
X157700000Y-97795000D01*
G75*
G02*
X157850000Y-97945000I0J-150000D01*
G01*
X157850000Y-98245000D01*
G75*
G02*
X157700000Y-98395000I-150000J0D01*
G01*
X156050000Y-98395000D01*
G75*
G02*
X155900000Y-98245000I0J150000D01*
G01*
G37*
G36*
G01*
X155900000Y-99515000D02*
X155900000Y-99215000D01*
G75*
G02*
X156050000Y-99065000I150000J0D01*
G01*
X157700000Y-99065000D01*
G75*
G02*
X157850000Y-99215000I0J-150000D01*
G01*
X157850000Y-99515000D01*
G75*
G02*
X157700000Y-99665000I-150000J0D01*
G01*
X156050000Y-99665000D01*
G75*
G02*
X155900000Y-99515000I0J150000D01*
G01*
G37*
G36*
G01*
X155900000Y-100785000D02*
X155900000Y-100485000D01*
G75*
G02*
X156050000Y-100335000I150000J0D01*
G01*
X157700000Y-100335000D01*
G75*
G02*
X157850000Y-100485000I0J-150000D01*
G01*
X157850000Y-100785000D01*
G75*
G02*
X157700000Y-100935000I-150000J0D01*
G01*
X156050000Y-100935000D01*
G75*
G02*
X155900000Y-100785000I0J150000D01*
G01*
G37*
G36*
G01*
X155900000Y-102055000D02*
X155900000Y-101755000D01*
G75*
G02*
X156050000Y-101605000I150000J0D01*
G01*
X157700000Y-101605000D01*
G75*
G02*
X157850000Y-101755000I0J-150000D01*
G01*
X157850000Y-102055000D01*
G75*
G02*
X157700000Y-102205000I-150000J0D01*
G01*
X156050000Y-102205000D01*
G75*
G02*
X155900000Y-102055000I0J150000D01*
G01*
G37*
G36*
G01*
X150950000Y-102055000D02*
X150950000Y-101755000D01*
G75*
G02*
X151100000Y-101605000I150000J0D01*
G01*
X152750000Y-101605000D01*
G75*
G02*
X152900000Y-101755000I0J-150000D01*
G01*
X152900000Y-102055000D01*
G75*
G02*
X152750000Y-102205000I-150000J0D01*
G01*
X151100000Y-102205000D01*
G75*
G02*
X150950000Y-102055000I0J150000D01*
G01*
G37*
G36*
G01*
X150950000Y-100785000D02*
X150950000Y-100485000D01*
G75*
G02*
X151100000Y-100335000I150000J0D01*
G01*
X152750000Y-100335000D01*
G75*
G02*
X152900000Y-100485000I0J-150000D01*
G01*
X152900000Y-100785000D01*
G75*
G02*
X152750000Y-100935000I-150000J0D01*
G01*
X151100000Y-100935000D01*
G75*
G02*
X150950000Y-100785000I0J150000D01*
G01*
G37*
G36*
G01*
X150950000Y-99515000D02*
X150950000Y-99215000D01*
G75*
G02*
X151100000Y-99065000I150000J0D01*
G01*
X152750000Y-99065000D01*
G75*
G02*
X152900000Y-99215000I0J-150000D01*
G01*
X152900000Y-99515000D01*
G75*
G02*
X152750000Y-99665000I-150000J0D01*
G01*
X151100000Y-99665000D01*
G75*
G02*
X150950000Y-99515000I0J150000D01*
G01*
G37*
G36*
G01*
X150950000Y-98245000D02*
X150950000Y-97945000D01*
G75*
G02*
X151100000Y-97795000I150000J0D01*
G01*
X152750000Y-97795000D01*
G75*
G02*
X152900000Y-97945000I0J-150000D01*
G01*
X152900000Y-98245000D01*
G75*
G02*
X152750000Y-98395000I-150000J0D01*
G01*
X151100000Y-98395000D01*
G75*
G02*
X150950000Y-98245000I0J150000D01*
G01*
G37*
G36*
G01*
X143325000Y-69037500D02*
X143325000Y-68562500D01*
G75*
G02*
X143562500Y-68325000I237500J0D01*
G01*
X144062500Y-68325000D01*
G75*
G02*
X144300000Y-68562500I0J-237500D01*
G01*
X144300000Y-69037500D01*
G75*
G02*
X144062500Y-69275000I-237500J0D01*
G01*
X143562500Y-69275000D01*
G75*
G02*
X143325000Y-69037500I0J237500D01*
G01*
G37*
G36*
G01*
X141500000Y-69037500D02*
X141500000Y-68562500D01*
G75*
G02*
X141737500Y-68325000I237500J0D01*
G01*
X142237500Y-68325000D01*
G75*
G02*
X142475000Y-68562500I0J-237500D01*
G01*
X142475000Y-69037500D01*
G75*
G02*
X142237500Y-69275000I-237500J0D01*
G01*
X141737500Y-69275000D01*
G75*
G02*
X141500000Y-69037500I0J237500D01*
G01*
G37*
G36*
G01*
X191137500Y-109737500D02*
X191137500Y-109262500D01*
G75*
G02*
X191375000Y-109025000I237500J0D01*
G01*
X191875000Y-109025000D01*
G75*
G02*
X192112500Y-109262500I0J-237500D01*
G01*
X192112500Y-109737500D01*
G75*
G02*
X191875000Y-109975000I-237500J0D01*
G01*
X191375000Y-109975000D01*
G75*
G02*
X191137500Y-109737500I0J237500D01*
G01*
G37*
G36*
G01*
X189312500Y-109737500D02*
X189312500Y-109262500D01*
G75*
G02*
X189550000Y-109025000I237500J0D01*
G01*
X190050000Y-109025000D01*
G75*
G02*
X190287500Y-109262500I0J-237500D01*
G01*
X190287500Y-109737500D01*
G75*
G02*
X190050000Y-109975000I-237500J0D01*
G01*
X189550000Y-109975000D01*
G75*
G02*
X189312500Y-109737500I0J237500D01*
G01*
G37*
G36*
G01*
X195362500Y-108025000D02*
X195837500Y-108025000D01*
G75*
G02*
X196075000Y-108262500I0J-237500D01*
G01*
X196075000Y-108762500D01*
G75*
G02*
X195837500Y-109000000I-237500J0D01*
G01*
X195362500Y-109000000D01*
G75*
G02*
X195125000Y-108762500I0J237500D01*
G01*
X195125000Y-108262500D01*
G75*
G02*
X195362500Y-108025000I237500J0D01*
G01*
G37*
G36*
G01*
X195362500Y-106200000D02*
X195837500Y-106200000D01*
G75*
G02*
X196075000Y-106437500I0J-237500D01*
G01*
X196075000Y-106937500D01*
G75*
G02*
X195837500Y-107175000I-237500J0D01*
G01*
X195362500Y-107175000D01*
G75*
G02*
X195125000Y-106937500I0J237500D01*
G01*
X195125000Y-106437500D01*
G75*
G02*
X195362500Y-106200000I237500J0D01*
G01*
G37*
G36*
G01*
X190074999Y-120450000D02*
X192225001Y-120450000D01*
G75*
G02*
X192475000Y-120699999I0J-249999D01*
G01*
X192475000Y-121500001D01*
G75*
G02*
X192225001Y-121750000I-249999J0D01*
G01*
X190074999Y-121750000D01*
G75*
G02*
X189825000Y-121500001I0J249999D01*
G01*
X189825000Y-120699999D01*
G75*
G02*
X190074999Y-120450000I249999J0D01*
G01*
G37*
G36*
G01*
X190074999Y-117350000D02*
X192225001Y-117350000D01*
G75*
G02*
X192475000Y-117599999I0J-249999D01*
G01*
X192475000Y-118400001D01*
G75*
G02*
X192225001Y-118650000I-249999J0D01*
G01*
X190074999Y-118650000D01*
G75*
G02*
X189825000Y-118400001I0J249999D01*
G01*
X189825000Y-117599999D01*
G75*
G02*
X190074999Y-117350000I249999J0D01*
G01*
G37*
G36*
G01*
X168762500Y-79725000D02*
X169237500Y-79725000D01*
G75*
G02*
X169475000Y-79962500I0J-237500D01*
G01*
X169475000Y-80462500D01*
G75*
G02*
X169237500Y-80700000I-237500J0D01*
G01*
X168762500Y-80700000D01*
G75*
G02*
X168525000Y-80462500I0J237500D01*
G01*
X168525000Y-79962500D01*
G75*
G02*
X168762500Y-79725000I237500J0D01*
G01*
G37*
G36*
G01*
X168762500Y-77900000D02*
X169237500Y-77900000D01*
G75*
G02*
X169475000Y-78137500I0J-237500D01*
G01*
X169475000Y-78637500D01*
G75*
G02*
X169237500Y-78875000I-237500J0D01*
G01*
X168762500Y-78875000D01*
G75*
G02*
X168525000Y-78637500I0J237500D01*
G01*
X168525000Y-78137500D01*
G75*
G02*
X168762500Y-77900000I237500J0D01*
G01*
G37*
G36*
G01*
X167337500Y-78875000D02*
X166862500Y-78875000D01*
G75*
G02*
X166625000Y-78637500I0J237500D01*
G01*
X166625000Y-78137500D01*
G75*
G02*
X166862500Y-77900000I237500J0D01*
G01*
X167337500Y-77900000D01*
G75*
G02*
X167575000Y-78137500I0J-237500D01*
G01*
X167575000Y-78637500D01*
G75*
G02*
X167337500Y-78875000I-237500J0D01*
G01*
G37*
G36*
G01*
X167337500Y-80700000D02*
X166862500Y-80700000D01*
G75*
G02*
X166625000Y-80462500I0J237500D01*
G01*
X166625000Y-79962500D01*
G75*
G02*
X166862500Y-79725000I237500J0D01*
G01*
X167337500Y-79725000D01*
G75*
G02*
X167575000Y-79962500I0J-237500D01*
G01*
X167575000Y-80462500D01*
G75*
G02*
X167337500Y-80700000I-237500J0D01*
G01*
G37*
G36*
G01*
X159787500Y-99762500D02*
X159787500Y-100237500D01*
G75*
G02*
X159550000Y-100475000I-237500J0D01*
G01*
X159050000Y-100475000D01*
G75*
G02*
X158812500Y-100237500I0J237500D01*
G01*
X158812500Y-99762500D01*
G75*
G02*
X159050000Y-99525000I237500J0D01*
G01*
X159550000Y-99525000D01*
G75*
G02*
X159787500Y-99762500I0J-237500D01*
G01*
G37*
G36*
G01*
X161612500Y-99762500D02*
X161612500Y-100237500D01*
G75*
G02*
X161375000Y-100475000I-237500J0D01*
G01*
X160875000Y-100475000D01*
G75*
G02*
X160637500Y-100237500I0J237500D01*
G01*
X160637500Y-99762500D01*
G75*
G02*
X160875000Y-99525000I237500J0D01*
G01*
X161375000Y-99525000D01*
G75*
G02*
X161612500Y-99762500I0J-237500D01*
G01*
G37*
G36*
G01*
X145825000Y-102762500D02*
X145825000Y-103237500D01*
G75*
G02*
X145587500Y-103475000I-237500J0D01*
G01*
X145087500Y-103475000D01*
G75*
G02*
X144850000Y-103237500I0J237500D01*
G01*
X144850000Y-102762500D01*
G75*
G02*
X145087500Y-102525000I237500J0D01*
G01*
X145587500Y-102525000D01*
G75*
G02*
X145825000Y-102762500I0J-237500D01*
G01*
G37*
G36*
G01*
X147650000Y-102762500D02*
X147650000Y-103237500D01*
G75*
G02*
X147412500Y-103475000I-237500J0D01*
G01*
X146912500Y-103475000D01*
G75*
G02*
X146675000Y-103237500I0J237500D01*
G01*
X146675000Y-102762500D01*
G75*
G02*
X146912500Y-102525000I237500J0D01*
G01*
X147412500Y-102525000D01*
G75*
G02*
X147650000Y-102762500I0J-237500D01*
G01*
G37*
G36*
G01*
X145825000Y-96762500D02*
X145825000Y-97237500D01*
G75*
G02*
X145587500Y-97475000I-237500J0D01*
G01*
X145087500Y-97475000D01*
G75*
G02*
X144850000Y-97237500I0J237500D01*
G01*
X144850000Y-96762500D01*
G75*
G02*
X145087500Y-96525000I237500J0D01*
G01*
X145587500Y-96525000D01*
G75*
G02*
X145825000Y-96762500I0J-237500D01*
G01*
G37*
G36*
G01*
X147650000Y-96762500D02*
X147650000Y-97237500D01*
G75*
G02*
X147412500Y-97475000I-237500J0D01*
G01*
X146912500Y-97475000D01*
G75*
G02*
X146675000Y-97237500I0J237500D01*
G01*
X146675000Y-96762500D01*
G75*
G02*
X146912500Y-96525000I237500J0D01*
G01*
X147412500Y-96525000D01*
G75*
G02*
X147650000Y-96762500I0J-237500D01*
G01*
G37*
G36*
G01*
X123825000Y-104262500D02*
X123825000Y-104737500D01*
G75*
G02*
X123587500Y-104975000I-237500J0D01*
G01*
X123087500Y-104975000D01*
G75*
G02*
X122850000Y-104737500I0J237500D01*
G01*
X122850000Y-104262500D01*
G75*
G02*
X123087500Y-104025000I237500J0D01*
G01*
X123587500Y-104025000D01*
G75*
G02*
X123825000Y-104262500I0J-237500D01*
G01*
G37*
G36*
G01*
X125650000Y-104262500D02*
X125650000Y-104737500D01*
G75*
G02*
X125412500Y-104975000I-237500J0D01*
G01*
X124912500Y-104975000D01*
G75*
G02*
X124675000Y-104737500I0J237500D01*
G01*
X124675000Y-104262500D01*
G75*
G02*
X124912500Y-104025000I237500J0D01*
G01*
X125412500Y-104025000D01*
G75*
G02*
X125650000Y-104262500I0J-237500D01*
G01*
G37*
G36*
G01*
X124675000Y-95737500D02*
X124675000Y-95262500D01*
G75*
G02*
X124912500Y-95025000I237500J0D01*
G01*
X125412500Y-95025000D01*
G75*
G02*
X125650000Y-95262500I0J-237500D01*
G01*
X125650000Y-95737500D01*
G75*
G02*
X125412500Y-95975000I-237500J0D01*
G01*
X124912500Y-95975000D01*
G75*
G02*
X124675000Y-95737500I0J237500D01*
G01*
G37*
G36*
G01*
X122850000Y-95737500D02*
X122850000Y-95262500D01*
G75*
G02*
X123087500Y-95025000I237500J0D01*
G01*
X123587500Y-95025000D01*
G75*
G02*
X123825000Y-95262500I0J-237500D01*
G01*
X123825000Y-95737500D01*
G75*
G02*
X123587500Y-95975000I-237500J0D01*
G01*
X123087500Y-95975000D01*
G75*
G02*
X122850000Y-95737500I0J237500D01*
G01*
G37*
D30*
X196300000Y-114960000D03*
X196300000Y-117500000D03*
D31*
X201380000Y-122580000D03*
X201380000Y-112420000D03*
D30*
X103200000Y-115540000D03*
X103200000Y-113000000D03*
D31*
X98120000Y-107920000D03*
X98120000Y-118080000D03*
D30*
X103200000Y-89540000D03*
X103200000Y-87000000D03*
D31*
X98120000Y-81920000D03*
X98120000Y-92080000D03*
D32*
X191900000Y-83550000D03*
X191900000Y-80650000D03*
X188900000Y-80650000D03*
X188900000Y-83550000D03*
D33*
X142750000Y-99000000D03*
X143700000Y-101000000D03*
X141800000Y-101000000D03*
X142750000Y-103000000D03*
X143700000Y-105000000D03*
X141800000Y-105000000D03*
X142750000Y-97000000D03*
X141800000Y-95000000D03*
X143700000Y-95000000D03*
G36*
G01*
X192350000Y-96062500D02*
X192350000Y-96537500D01*
G75*
G02*
X192112500Y-96775000I-237500J0D01*
G01*
X191537500Y-96775000D01*
G75*
G02*
X191300000Y-96537500I0J237500D01*
G01*
X191300000Y-96062500D01*
G75*
G02*
X191537500Y-95825000I237500J0D01*
G01*
X192112500Y-95825000D01*
G75*
G02*
X192350000Y-96062500I0J-237500D01*
G01*
G37*
G36*
G01*
X194100000Y-96062500D02*
X194100000Y-96537500D01*
G75*
G02*
X193862500Y-96775000I-237500J0D01*
G01*
X193287500Y-96775000D01*
G75*
G02*
X193050000Y-96537500I0J237500D01*
G01*
X193050000Y-96062500D01*
G75*
G02*
X193287500Y-95825000I237500J0D01*
G01*
X193862500Y-95825000D01*
G75*
G02*
X194100000Y-96062500I0J-237500D01*
G01*
G37*
G36*
G01*
X186337500Y-100050000D02*
X185862500Y-100050000D01*
G75*
G02*
X185625000Y-99812500I0J237500D01*
G01*
X185625000Y-99237500D01*
G75*
G02*
X185862500Y-99000000I237500J0D01*
G01*
X186337500Y-99000000D01*
G75*
G02*
X186575000Y-99237500I0J-237500D01*
G01*
X186575000Y-99812500D01*
G75*
G02*
X186337500Y-100050000I-237500J0D01*
G01*
G37*
G36*
G01*
X186337500Y-101800000D02*
X185862500Y-101800000D01*
G75*
G02*
X185625000Y-101562500I0J237500D01*
G01*
X185625000Y-100987500D01*
G75*
G02*
X185862500Y-100750000I237500J0D01*
G01*
X186337500Y-100750000D01*
G75*
G02*
X186575000Y-100987500I0J-237500D01*
G01*
X186575000Y-101562500D01*
G75*
G02*
X186337500Y-101800000I-237500J0D01*
G01*
G37*
G36*
G01*
X186537500Y-67750000D02*
X186062500Y-67750000D01*
G75*
G02*
X185825000Y-67512500I0J237500D01*
G01*
X185825000Y-66937500D01*
G75*
G02*
X186062500Y-66700000I237500J0D01*
G01*
X186537500Y-66700000D01*
G75*
G02*
X186775000Y-66937500I0J-237500D01*
G01*
X186775000Y-67512500D01*
G75*
G02*
X186537500Y-67750000I-237500J0D01*
G01*
G37*
G36*
G01*
X186537500Y-69500000D02*
X186062500Y-69500000D01*
G75*
G02*
X185825000Y-69262500I0J237500D01*
G01*
X185825000Y-68687500D01*
G75*
G02*
X186062500Y-68450000I237500J0D01*
G01*
X186537500Y-68450000D01*
G75*
G02*
X186775000Y-68687500I0J-237500D01*
G01*
X186775000Y-69262500D01*
G75*
G02*
X186537500Y-69500000I-237500J0D01*
G01*
G37*
G36*
G01*
X186537500Y-71650000D02*
X186062500Y-71650000D01*
G75*
G02*
X185825000Y-71412500I0J237500D01*
G01*
X185825000Y-70837500D01*
G75*
G02*
X186062500Y-70600000I237500J0D01*
G01*
X186537500Y-70600000D01*
G75*
G02*
X186775000Y-70837500I0J-237500D01*
G01*
X186775000Y-71412500D01*
G75*
G02*
X186537500Y-71650000I-237500J0D01*
G01*
G37*
G36*
G01*
X186537500Y-73400000D02*
X186062500Y-73400000D01*
G75*
G02*
X185825000Y-73162500I0J237500D01*
G01*
X185825000Y-72587500D01*
G75*
G02*
X186062500Y-72350000I237500J0D01*
G01*
X186537500Y-72350000D01*
G75*
G02*
X186775000Y-72587500I0J-237500D01*
G01*
X186775000Y-73162500D01*
G75*
G02*
X186537500Y-73400000I-237500J0D01*
G01*
G37*
G36*
G01*
X189750000Y-74637500D02*
X189750000Y-74162500D01*
G75*
G02*
X189987500Y-73925000I237500J0D01*
G01*
X190562500Y-73925000D01*
G75*
G02*
X190800000Y-74162500I0J-237500D01*
G01*
X190800000Y-74637500D01*
G75*
G02*
X190562500Y-74875000I-237500J0D01*
G01*
X189987500Y-74875000D01*
G75*
G02*
X189750000Y-74637500I0J237500D01*
G01*
G37*
G36*
G01*
X188000000Y-74637500D02*
X188000000Y-74162500D01*
G75*
G02*
X188237500Y-73925000I237500J0D01*
G01*
X188812500Y-73925000D01*
G75*
G02*
X189050000Y-74162500I0J-237500D01*
G01*
X189050000Y-74637500D01*
G75*
G02*
X188812500Y-74875000I-237500J0D01*
G01*
X188237500Y-74875000D01*
G75*
G02*
X188000000Y-74637500I0J237500D01*
G01*
G37*
G36*
G01*
X179162500Y-110450000D02*
X179637500Y-110450000D01*
G75*
G02*
X179875000Y-110687500I0J-237500D01*
G01*
X179875000Y-111262500D01*
G75*
G02*
X179637500Y-111500000I-237500J0D01*
G01*
X179162500Y-111500000D01*
G75*
G02*
X178925000Y-111262500I0J237500D01*
G01*
X178925000Y-110687500D01*
G75*
G02*
X179162500Y-110450000I237500J0D01*
G01*
G37*
G36*
G01*
X179162500Y-108700000D02*
X179637500Y-108700000D01*
G75*
G02*
X179875000Y-108937500I0J-237500D01*
G01*
X179875000Y-109512500D01*
G75*
G02*
X179637500Y-109750000I-237500J0D01*
G01*
X179162500Y-109750000D01*
G75*
G02*
X178925000Y-109512500I0J237500D01*
G01*
X178925000Y-108937500D01*
G75*
G02*
X179162500Y-108700000I237500J0D01*
G01*
G37*
G36*
G01*
X153475001Y-86737500D02*
X153475001Y-86262500D01*
G75*
G02*
X153712501Y-86025000I237500J0D01*
G01*
X154287501Y-86025000D01*
G75*
G02*
X154525001Y-86262500I0J-237500D01*
G01*
X154525001Y-86737500D01*
G75*
G02*
X154287501Y-86975000I-237500J0D01*
G01*
X153712501Y-86975000D01*
G75*
G02*
X153475001Y-86737500I0J237500D01*
G01*
G37*
G36*
G01*
X151725001Y-86737500D02*
X151725001Y-86262500D01*
G75*
G02*
X151962501Y-86025000I237500J0D01*
G01*
X152537501Y-86025000D01*
G75*
G02*
X152775001Y-86262500I0J-237500D01*
G01*
X152775001Y-86737500D01*
G75*
G02*
X152537501Y-86975000I-237500J0D01*
G01*
X151962501Y-86975000D01*
G75*
G02*
X151725001Y-86737500I0J237500D01*
G01*
G37*
G36*
G01*
X174262500Y-107450000D02*
X174737500Y-107450000D01*
G75*
G02*
X174975000Y-107687500I0J-237500D01*
G01*
X174975000Y-108262500D01*
G75*
G02*
X174737500Y-108500000I-237500J0D01*
G01*
X174262500Y-108500000D01*
G75*
G02*
X174025000Y-108262500I0J237500D01*
G01*
X174025000Y-107687500D01*
G75*
G02*
X174262500Y-107450000I237500J0D01*
G01*
G37*
G36*
G01*
X174262500Y-105700000D02*
X174737500Y-105700000D01*
G75*
G02*
X174975000Y-105937500I0J-237500D01*
G01*
X174975000Y-106512500D01*
G75*
G02*
X174737500Y-106750000I-237500J0D01*
G01*
X174262500Y-106750000D01*
G75*
G02*
X174025000Y-106512500I0J237500D01*
G01*
X174025000Y-105937500D01*
G75*
G02*
X174262500Y-105700000I237500J0D01*
G01*
G37*
G36*
G01*
X146762500Y-100350000D02*
X147237500Y-100350000D01*
G75*
G02*
X147475000Y-100587500I0J-237500D01*
G01*
X147475000Y-101162500D01*
G75*
G02*
X147237500Y-101400000I-237500J0D01*
G01*
X146762500Y-101400000D01*
G75*
G02*
X146525000Y-101162500I0J237500D01*
G01*
X146525000Y-100587500D01*
G75*
G02*
X146762500Y-100350000I237500J0D01*
G01*
G37*
G36*
G01*
X146762500Y-98600000D02*
X147237500Y-98600000D01*
G75*
G02*
X147475000Y-98837500I0J-237500D01*
G01*
X147475000Y-99412500D01*
G75*
G02*
X147237500Y-99650000I-237500J0D01*
G01*
X146762500Y-99650000D01*
G75*
G02*
X146525000Y-99412500I0J237500D01*
G01*
X146525000Y-98837500D01*
G75*
G02*
X146762500Y-98600000I237500J0D01*
G01*
G37*
G36*
G01*
X148562500Y-102350000D02*
X149037500Y-102350000D01*
G75*
G02*
X149275000Y-102587500I0J-237500D01*
G01*
X149275000Y-103162500D01*
G75*
G02*
X149037500Y-103400000I-237500J0D01*
G01*
X148562500Y-103400000D01*
G75*
G02*
X148325000Y-103162500I0J237500D01*
G01*
X148325000Y-102587500D01*
G75*
G02*
X148562500Y-102350000I237500J0D01*
G01*
G37*
G36*
G01*
X148562500Y-100600000D02*
X149037500Y-100600000D01*
G75*
G02*
X149275000Y-100837500I0J-237500D01*
G01*
X149275000Y-101412500D01*
G75*
G02*
X149037500Y-101650000I-237500J0D01*
G01*
X148562500Y-101650000D01*
G75*
G02*
X148325000Y-101412500I0J237500D01*
G01*
X148325000Y-100837500D01*
G75*
G02*
X148562500Y-100600000I237500J0D01*
G01*
G37*
G36*
G01*
X148562500Y-98350000D02*
X149037500Y-98350000D01*
G75*
G02*
X149275000Y-98587500I0J-237500D01*
G01*
X149275000Y-99162500D01*
G75*
G02*
X149037500Y-99400000I-237500J0D01*
G01*
X148562500Y-99400000D01*
G75*
G02*
X148325000Y-99162500I0J237500D01*
G01*
X148325000Y-98587500D01*
G75*
G02*
X148562500Y-98350000I237500J0D01*
G01*
G37*
G36*
G01*
X148562500Y-96600000D02*
X149037500Y-96600000D01*
G75*
G02*
X149275000Y-96837500I0J-237500D01*
G01*
X149275000Y-97412500D01*
G75*
G02*
X149037500Y-97650000I-237500J0D01*
G01*
X148562500Y-97650000D01*
G75*
G02*
X148325000Y-97412500I0J237500D01*
G01*
X148325000Y-96837500D01*
G75*
G02*
X148562500Y-96600000I237500J0D01*
G01*
G37*
G36*
G01*
X123262500Y-102100000D02*
X123737500Y-102100000D01*
G75*
G02*
X123975000Y-102337500I0J-237500D01*
G01*
X123975000Y-102912500D01*
G75*
G02*
X123737500Y-103150000I-237500J0D01*
G01*
X123262500Y-103150000D01*
G75*
G02*
X123025000Y-102912500I0J237500D01*
G01*
X123025000Y-102337500D01*
G75*
G02*
X123262500Y-102100000I237500J0D01*
G01*
G37*
G36*
G01*
X123262500Y-100350000D02*
X123737500Y-100350000D01*
G75*
G02*
X123975000Y-100587500I0J-237500D01*
G01*
X123975000Y-101162500D01*
G75*
G02*
X123737500Y-101400000I-237500J0D01*
G01*
X123262500Y-101400000D01*
G75*
G02*
X123025000Y-101162500I0J237500D01*
G01*
X123025000Y-100587500D01*
G75*
G02*
X123262500Y-100350000I237500J0D01*
G01*
G37*
G36*
G01*
X123262500Y-98600000D02*
X123737500Y-98600000D01*
G75*
G02*
X123975000Y-98837500I0J-237500D01*
G01*
X123975000Y-99412500D01*
G75*
G02*
X123737500Y-99650000I-237500J0D01*
G01*
X123262500Y-99650000D01*
G75*
G02*
X123025000Y-99412500I0J237500D01*
G01*
X123025000Y-98837500D01*
G75*
G02*
X123262500Y-98600000I237500J0D01*
G01*
G37*
G36*
G01*
X123262500Y-96850000D02*
X123737500Y-96850000D01*
G75*
G02*
X123975000Y-97087500I0J-237500D01*
G01*
X123975000Y-97662500D01*
G75*
G02*
X123737500Y-97900000I-237500J0D01*
G01*
X123262500Y-97900000D01*
G75*
G02*
X123025000Y-97662500I0J237500D01*
G01*
X123025000Y-97087500D01*
G75*
G02*
X123262500Y-96850000I237500J0D01*
G01*
G37*
D34*
X120500000Y-100800000D03*
X120500000Y-104700000D03*
X120500000Y-99200000D03*
X120500000Y-95300000D03*
M02*
