G04 #@! TF.GenerationSoftware,KiCad,Pcbnew,(5.1.9)-1*
G04 #@! TF.CreationDate,2021-04-27T00:06:18-05:00*
G04 #@! TF.ProjectId,high-gain-diff-probe,68696768-2d67-4616-996e-2d646966662d,rev?*
G04 #@! TF.SameCoordinates,Original*
G04 #@! TF.FileFunction,Paste,Bot*
G04 #@! TF.FilePolarity,Positive*
%FSLAX46Y46*%
G04 Gerber Fmt 4.6, Leading zero omitted, Abs format (unit mm)*
G04 Created by KiCad (PCBNEW (5.1.9)-1) date 2021-04-27 00:06:18*
%MOMM*%
%LPD*%
G01*
G04 APERTURE LIST*
%ADD10R,1.800000X1.500000*%
G04 APERTURE END LIST*
D10*
X106900000Y-113500000D03*
X106900000Y-116500000D03*
X106900000Y-86500000D03*
X106900000Y-83500000D03*
G36*
G01*
X182200000Y-123862500D02*
X182200000Y-124337500D01*
G75*
G02*
X181962500Y-124575000I-237500J0D01*
G01*
X181387500Y-124575000D01*
G75*
G02*
X181150000Y-124337500I0J237500D01*
G01*
X181150000Y-123862500D01*
G75*
G02*
X181387500Y-123625000I237500J0D01*
G01*
X181962500Y-123625000D01*
G75*
G02*
X182200000Y-123862500I0J-237500D01*
G01*
G37*
G36*
G01*
X183950000Y-123862500D02*
X183950000Y-124337500D01*
G75*
G02*
X183712500Y-124575000I-237500J0D01*
G01*
X183137500Y-124575000D01*
G75*
G02*
X182900000Y-124337500I0J237500D01*
G01*
X182900000Y-123862500D01*
G75*
G02*
X183137500Y-123625000I237500J0D01*
G01*
X183712500Y-123625000D01*
G75*
G02*
X183950000Y-123862500I0J-237500D01*
G01*
G37*
G36*
G01*
X187812500Y-122450000D02*
X188287500Y-122450000D01*
G75*
G02*
X188525000Y-122687500I0J-237500D01*
G01*
X188525000Y-123262500D01*
G75*
G02*
X188287500Y-123500000I-237500J0D01*
G01*
X187812500Y-123500000D01*
G75*
G02*
X187575000Y-123262500I0J237500D01*
G01*
X187575000Y-122687500D01*
G75*
G02*
X187812500Y-122450000I237500J0D01*
G01*
G37*
G36*
G01*
X187812500Y-120700000D02*
X188287500Y-120700000D01*
G75*
G02*
X188525000Y-120937500I0J-237500D01*
G01*
X188525000Y-121512500D01*
G75*
G02*
X188287500Y-121750000I-237500J0D01*
G01*
X187812500Y-121750000D01*
G75*
G02*
X187575000Y-121512500I0J237500D01*
G01*
X187575000Y-120937500D01*
G75*
G02*
X187812500Y-120700000I237500J0D01*
G01*
G37*
G36*
G01*
X187862500Y-111300000D02*
X188337500Y-111300000D01*
G75*
G02*
X188575000Y-111537500I0J-237500D01*
G01*
X188575000Y-112112500D01*
G75*
G02*
X188337500Y-112350000I-237500J0D01*
G01*
X187862500Y-112350000D01*
G75*
G02*
X187625000Y-112112500I0J237500D01*
G01*
X187625000Y-111537500D01*
G75*
G02*
X187862500Y-111300000I237500J0D01*
G01*
G37*
G36*
G01*
X187862500Y-109550000D02*
X188337500Y-109550000D01*
G75*
G02*
X188575000Y-109787500I0J-237500D01*
G01*
X188575000Y-110362500D01*
G75*
G02*
X188337500Y-110600000I-237500J0D01*
G01*
X187862500Y-110600000D01*
G75*
G02*
X187625000Y-110362500I0J237500D01*
G01*
X187625000Y-109787500D01*
G75*
G02*
X187862500Y-109550000I237500J0D01*
G01*
G37*
G36*
G01*
X177900000Y-115362500D02*
X177900000Y-115837500D01*
G75*
G02*
X177662500Y-116075000I-237500J0D01*
G01*
X177087500Y-116075000D01*
G75*
G02*
X176850000Y-115837500I0J237500D01*
G01*
X176850000Y-115362500D01*
G75*
G02*
X177087500Y-115125000I237500J0D01*
G01*
X177662500Y-115125000D01*
G75*
G02*
X177900000Y-115362500I0J-237500D01*
G01*
G37*
G36*
G01*
X179650000Y-115362500D02*
X179650000Y-115837500D01*
G75*
G02*
X179412500Y-116075000I-237500J0D01*
G01*
X178837500Y-116075000D01*
G75*
G02*
X178600000Y-115837500I0J237500D01*
G01*
X178600000Y-115362500D01*
G75*
G02*
X178837500Y-115125000I237500J0D01*
G01*
X179412500Y-115125000D01*
G75*
G02*
X179650000Y-115362500I0J-237500D01*
G01*
G37*
G36*
G01*
X151250000Y-91337500D02*
X151250000Y-90862500D01*
G75*
G02*
X151487500Y-90625000I237500J0D01*
G01*
X152062500Y-90625000D01*
G75*
G02*
X152300000Y-90862500I0J-237500D01*
G01*
X152300000Y-91337500D01*
G75*
G02*
X152062500Y-91575000I-237500J0D01*
G01*
X151487500Y-91575000D01*
G75*
G02*
X151250000Y-91337500I0J237500D01*
G01*
G37*
G36*
G01*
X149500000Y-91337500D02*
X149500000Y-90862500D01*
G75*
G02*
X149737500Y-90625000I237500J0D01*
G01*
X150312500Y-90625000D01*
G75*
G02*
X150550000Y-90862500I0J-237500D01*
G01*
X150550000Y-91337500D01*
G75*
G02*
X150312500Y-91575000I-237500J0D01*
G01*
X149737500Y-91575000D01*
G75*
G02*
X149500000Y-91337500I0J237500D01*
G01*
G37*
G36*
G01*
X158250000Y-91337500D02*
X158250000Y-90862500D01*
G75*
G02*
X158487500Y-90625000I237500J0D01*
G01*
X159062500Y-90625000D01*
G75*
G02*
X159300000Y-90862500I0J-237500D01*
G01*
X159300000Y-91337500D01*
G75*
G02*
X159062500Y-91575000I-237500J0D01*
G01*
X158487500Y-91575000D01*
G75*
G02*
X158250000Y-91337500I0J237500D01*
G01*
G37*
G36*
G01*
X156500000Y-91337500D02*
X156500000Y-90862500D01*
G75*
G02*
X156737500Y-90625000I237500J0D01*
G01*
X157312500Y-90625000D01*
G75*
G02*
X157550000Y-90862500I0J-237500D01*
G01*
X157550000Y-91337500D01*
G75*
G02*
X157312500Y-91575000I-237500J0D01*
G01*
X156737500Y-91575000D01*
G75*
G02*
X156500000Y-91337500I0J237500D01*
G01*
G37*
G36*
G01*
X205762500Y-71550000D02*
X206237500Y-71550000D01*
G75*
G02*
X206475000Y-71787500I0J-237500D01*
G01*
X206475000Y-72362500D01*
G75*
G02*
X206237500Y-72600000I-237500J0D01*
G01*
X205762500Y-72600000D01*
G75*
G02*
X205525000Y-72362500I0J237500D01*
G01*
X205525000Y-71787500D01*
G75*
G02*
X205762500Y-71550000I237500J0D01*
G01*
G37*
G36*
G01*
X205762500Y-69800000D02*
X206237500Y-69800000D01*
G75*
G02*
X206475000Y-70037500I0J-237500D01*
G01*
X206475000Y-70612500D01*
G75*
G02*
X206237500Y-70850000I-237500J0D01*
G01*
X205762500Y-70850000D01*
G75*
G02*
X205525000Y-70612500I0J237500D01*
G01*
X205525000Y-70037500D01*
G75*
G02*
X205762500Y-69800000I237500J0D01*
G01*
G37*
G36*
G01*
X159037500Y-103450000D02*
X158562500Y-103450000D01*
G75*
G02*
X158325000Y-103212500I0J237500D01*
G01*
X158325000Y-102637500D01*
G75*
G02*
X158562500Y-102400000I237500J0D01*
G01*
X159037500Y-102400000D01*
G75*
G02*
X159275000Y-102637500I0J-237500D01*
G01*
X159275000Y-103212500D01*
G75*
G02*
X159037500Y-103450000I-237500J0D01*
G01*
G37*
G36*
G01*
X159037500Y-105200000D02*
X158562500Y-105200000D01*
G75*
G02*
X158325000Y-104962500I0J237500D01*
G01*
X158325000Y-104387500D01*
G75*
G02*
X158562500Y-104150000I237500J0D01*
G01*
X159037500Y-104150000D01*
G75*
G02*
X159275000Y-104387500I0J-237500D01*
G01*
X159275000Y-104962500D01*
G75*
G02*
X159037500Y-105200000I-237500J0D01*
G01*
G37*
G36*
G01*
X159037500Y-95850000D02*
X158562500Y-95850000D01*
G75*
G02*
X158325000Y-95612500I0J237500D01*
G01*
X158325000Y-95037500D01*
G75*
G02*
X158562500Y-94800000I237500J0D01*
G01*
X159037500Y-94800000D01*
G75*
G02*
X159275000Y-95037500I0J-237500D01*
G01*
X159275000Y-95612500D01*
G75*
G02*
X159037500Y-95850000I-237500J0D01*
G01*
G37*
G36*
G01*
X159037500Y-97600000D02*
X158562500Y-97600000D01*
G75*
G02*
X158325000Y-97362500I0J237500D01*
G01*
X158325000Y-96787500D01*
G75*
G02*
X158562500Y-96550000I237500J0D01*
G01*
X159037500Y-96550000D01*
G75*
G02*
X159275000Y-96787500I0J-237500D01*
G01*
X159275000Y-97362500D01*
G75*
G02*
X159037500Y-97600000I-237500J0D01*
G01*
G37*
G36*
G01*
X191950000Y-102662500D02*
X191950000Y-103137500D01*
G75*
G02*
X191712500Y-103375000I-237500J0D01*
G01*
X191137500Y-103375000D01*
G75*
G02*
X190900000Y-103137500I0J237500D01*
G01*
X190900000Y-102662500D01*
G75*
G02*
X191137500Y-102425000I237500J0D01*
G01*
X191712500Y-102425000D01*
G75*
G02*
X191950000Y-102662500I0J-237500D01*
G01*
G37*
G36*
G01*
X193700000Y-102662500D02*
X193700000Y-103137500D01*
G75*
G02*
X193462500Y-103375000I-237500J0D01*
G01*
X192887500Y-103375000D01*
G75*
G02*
X192650000Y-103137500I0J237500D01*
G01*
X192650000Y-102662500D01*
G75*
G02*
X192887500Y-102425000I237500J0D01*
G01*
X193462500Y-102425000D01*
G75*
G02*
X193700000Y-102662500I0J-237500D01*
G01*
G37*
G36*
G01*
X186700000Y-118762500D02*
X186700000Y-119237500D01*
G75*
G02*
X186462500Y-119475000I-237500J0D01*
G01*
X185887500Y-119475000D01*
G75*
G02*
X185650000Y-119237500I0J237500D01*
G01*
X185650000Y-118762500D01*
G75*
G02*
X185887500Y-118525000I237500J0D01*
G01*
X186462500Y-118525000D01*
G75*
G02*
X186700000Y-118762500I0J-237500D01*
G01*
G37*
G36*
G01*
X188450000Y-118762500D02*
X188450000Y-119237500D01*
G75*
G02*
X188212500Y-119475000I-237500J0D01*
G01*
X187637500Y-119475000D01*
G75*
G02*
X187400000Y-119237500I0J237500D01*
G01*
X187400000Y-118762500D01*
G75*
G02*
X187637500Y-118525000I237500J0D01*
G01*
X188212500Y-118525000D01*
G75*
G02*
X188450000Y-118762500I0J-237500D01*
G01*
G37*
G36*
G01*
X154050000Y-90862500D02*
X154050000Y-91337500D01*
G75*
G02*
X153812500Y-91575000I-237500J0D01*
G01*
X153237500Y-91575000D01*
G75*
G02*
X153000000Y-91337500I0J237500D01*
G01*
X153000000Y-90862500D01*
G75*
G02*
X153237500Y-90625000I237500J0D01*
G01*
X153812500Y-90625000D01*
G75*
G02*
X154050000Y-90862500I0J-237500D01*
G01*
G37*
G36*
G01*
X155800000Y-90862500D02*
X155800000Y-91337500D01*
G75*
G02*
X155562500Y-91575000I-237500J0D01*
G01*
X154987500Y-91575000D01*
G75*
G02*
X154750000Y-91337500I0J237500D01*
G01*
X154750000Y-90862500D01*
G75*
G02*
X154987500Y-90625000I237500J0D01*
G01*
X155562500Y-90625000D01*
G75*
G02*
X155800000Y-90862500I0J-237500D01*
G01*
G37*
G36*
G01*
X158562500Y-100350000D02*
X159037500Y-100350000D01*
G75*
G02*
X159275000Y-100587500I0J-237500D01*
G01*
X159275000Y-101162500D01*
G75*
G02*
X159037500Y-101400000I-237500J0D01*
G01*
X158562500Y-101400000D01*
G75*
G02*
X158325000Y-101162500I0J237500D01*
G01*
X158325000Y-100587500D01*
G75*
G02*
X158562500Y-100350000I237500J0D01*
G01*
G37*
G36*
G01*
X158562500Y-98600000D02*
X159037500Y-98600000D01*
G75*
G02*
X159275000Y-98837500I0J-237500D01*
G01*
X159275000Y-99412500D01*
G75*
G02*
X159037500Y-99650000I-237500J0D01*
G01*
X158562500Y-99650000D01*
G75*
G02*
X158325000Y-99412500I0J237500D01*
G01*
X158325000Y-98837500D01*
G75*
G02*
X158562500Y-98600000I237500J0D01*
G01*
G37*
M02*
