G04 #@! TF.GenerationSoftware,KiCad,Pcbnew,(5.1.9)-1*
G04 #@! TF.CreationDate,2021-04-27T00:06:18-05:00*
G04 #@! TF.ProjectId,high-gain-diff-probe,68696768-2d67-4616-996e-2d646966662d,rev?*
G04 #@! TF.SameCoordinates,Original*
G04 #@! TF.FileFunction,Other,Fab,Top*
%FSLAX46Y46*%
G04 Gerber Fmt 4.6, Leading zero omitted, Abs format (unit mm)*
G04 Created by KiCad (PCBNEW (5.1.9)-1) date 2021-04-27 00:06:18*
%MOMM*%
%LPD*%
G01*
G04 APERTURE LIST*
%ADD10C,0.100000*%
%ADD11C,0.120000*%
%ADD12C,0.150000*%
%ADD13C,0.060000*%
%ADD14C,0.200000*%
%ADD15C,0.080000*%
%ADD16C,0.050000*%
%ADD17C,0.075000*%
G04 APERTURE END LIST*
D10*
X109000000Y-119400000D02*
X109000000Y-105500000D01*
X109000000Y-105500000D02*
X116200000Y-105500000D01*
X116200000Y-105500000D02*
X116200000Y-120400000D01*
X116200000Y-120400000D02*
X110000000Y-120400000D01*
X109000000Y-119400000D02*
X110000000Y-120400000D01*
X116200000Y-80600000D02*
X116200000Y-94500000D01*
X116200000Y-94500000D02*
X109000000Y-94500000D01*
X109000000Y-94500000D02*
X109000000Y-79600000D01*
X109000000Y-79600000D02*
X115200000Y-79600000D01*
X116200000Y-80600000D02*
X115200000Y-79600000D01*
X163400000Y-91600000D02*
X177300000Y-91600000D01*
X177300000Y-91600000D02*
X177300000Y-98800000D01*
X177300000Y-98800000D02*
X162400000Y-98800000D01*
X162400000Y-98800000D02*
X162400000Y-92600000D01*
X163400000Y-91600000D02*
X162400000Y-92600000D01*
X178100000Y-110500000D02*
X178100000Y-124400000D01*
X178100000Y-124400000D02*
X170900000Y-124400000D01*
X170900000Y-124400000D02*
X170900000Y-109500000D01*
X170900000Y-109500000D02*
X177100000Y-109500000D01*
X178100000Y-110500000D02*
X177100000Y-109500000D01*
X116750000Y-133600000D02*
X90250000Y-133600000D01*
X90250000Y-133600000D02*
X90250000Y-121600000D01*
X90250000Y-121600000D02*
X116750000Y-121600000D01*
X116750000Y-121600000D02*
X116750000Y-133600000D01*
X90250000Y-132630000D02*
X85250000Y-132630000D01*
X85250000Y-132630000D02*
X85250000Y-122570000D01*
X85250000Y-122570000D02*
X90250000Y-122570000D01*
X116750000Y-78400000D02*
X90250000Y-78400000D01*
X90250000Y-78400000D02*
X90250000Y-66400000D01*
X90250000Y-66400000D02*
X116750000Y-66400000D01*
X116750000Y-66400000D02*
X116750000Y-78400000D01*
X90250000Y-77430000D02*
X85250000Y-77430000D01*
X85250000Y-77430000D02*
X85250000Y-67370000D01*
X85250000Y-67370000D02*
X90250000Y-67370000D01*
X193775000Y-100950000D02*
X194750000Y-101925000D01*
X189850000Y-100950000D02*
X193775000Y-100950000D01*
X189850000Y-104850000D02*
X189850000Y-100950000D01*
X194750000Y-104850000D02*
X189850000Y-104850000D01*
X194750000Y-101925000D02*
X194750000Y-104850000D01*
D11*
X132050000Y-116900000D02*
X130300000Y-118650000D01*
X130300000Y-118650000D02*
G75*
G02*
X132050000Y-116900000I0J1750000D01*
G01*
X152250000Y-116900000D02*
X154000000Y-115150000D01*
X154000000Y-115150000D02*
G75*
G02*
X152250000Y-116900000I0J-1750000D01*
G01*
X128550000Y-83100000D02*
X130300000Y-81350000D01*
X130300000Y-81350000D02*
G75*
G02*
X128550000Y-83100000I0J-1750000D01*
G01*
D10*
X126700000Y-74000000D02*
X133900000Y-74000000D01*
X126700000Y-66800000D02*
X126700000Y-74000000D01*
X133900000Y-66800000D02*
X126700000Y-66800000D01*
X133900000Y-74000000D02*
X133900000Y-66800000D01*
X126700000Y-133200000D02*
X133900000Y-133200000D01*
X126700000Y-126000000D02*
X126700000Y-133200000D01*
X133900000Y-126000000D02*
X126700000Y-126000000D01*
X133900000Y-133200000D02*
X133900000Y-126000000D01*
X106700000Y-102212500D02*
X105100000Y-102212500D01*
X106700000Y-101387500D02*
X106700000Y-102212500D01*
X105100000Y-101387500D02*
X106700000Y-101387500D01*
X105100000Y-102212500D02*
X105100000Y-101387500D01*
X109425000Y-104170000D02*
X108790000Y-103535000D01*
X116410000Y-104170000D02*
X109425000Y-104170000D01*
X116410000Y-101630000D02*
X116410000Y-104170000D01*
X108790000Y-101630000D02*
X116410000Y-101630000D01*
X108790000Y-103535000D02*
X108790000Y-101630000D01*
X109425000Y-98370000D02*
X108790000Y-97735000D01*
X116410000Y-98370000D02*
X109425000Y-98370000D01*
X116410000Y-95830000D02*
X116410000Y-98370000D01*
X108790000Y-95830000D02*
X116410000Y-95830000D01*
X108790000Y-97735000D02*
X108790000Y-95830000D01*
X200100000Y-72400000D02*
X200100000Y-75200000D01*
X200100000Y-75200000D02*
X198300000Y-75200000D01*
X198300000Y-75200000D02*
X198300000Y-72400000D01*
X198300000Y-72400000D02*
X200100000Y-72400000D01*
X199200000Y-73050000D02*
X199200000Y-73450000D01*
X199200000Y-73450000D02*
X199750000Y-73450000D01*
X199200000Y-73450000D02*
X198650000Y-73450000D01*
X199200000Y-73450000D02*
X199600000Y-74050000D01*
X199600000Y-74050000D02*
X198800000Y-74050000D01*
X198800000Y-74050000D02*
X199200000Y-73450000D01*
X199200000Y-74050000D02*
X199200000Y-74550000D01*
X192475000Y-73150000D02*
X189550000Y-73150000D01*
X189550000Y-73150000D02*
X189550000Y-68250000D01*
X189550000Y-68250000D02*
X193450000Y-68250000D01*
X193450000Y-68250000D02*
X193450000Y-72175000D01*
X193450000Y-72175000D02*
X192475000Y-73150000D01*
X183100000Y-118515000D02*
X186025000Y-118515000D01*
X186025000Y-118515000D02*
X186025000Y-123415000D01*
X186025000Y-123415000D02*
X182125000Y-123415000D01*
X182125000Y-123415000D02*
X182125000Y-119490000D01*
X182125000Y-119490000D02*
X183100000Y-118515000D01*
X94530306Y-102530000D02*
X97469694Y-102530000D01*
X98500000Y-100030000D02*
G75*
G03*
X98500000Y-100030000I-2500000J0D01*
G01*
X97469666Y-102530016D02*
G75*
G03*
X94530306Y-102530000I-1469666J2500016D01*
G01*
X148000000Y-83250000D02*
X160000000Y-83250000D01*
X148000000Y-73550000D02*
X148000000Y-83250000D01*
X160000000Y-73550000D02*
X148000000Y-73550000D01*
X160000000Y-83250000D02*
X160000000Y-73550000D01*
X156500000Y-78400000D02*
G75*
G03*
X156500000Y-78400000I-3000000J0D01*
G01*
X184145000Y-100310162D02*
X183515000Y-100310162D01*
X183830000Y-99995162D02*
X183830000Y-100625162D01*
X180200000Y-99400000D02*
X179200000Y-100400000D01*
X184800000Y-99400000D02*
X185800000Y-100400000D01*
X184800000Y-99400000D02*
X180200000Y-99400000D01*
X179200000Y-100400000D02*
X179200000Y-106000000D01*
X185800000Y-100400000D02*
X185800000Y-106000000D01*
X185800000Y-106000000D02*
X179200000Y-106000000D01*
X185650000Y-102700000D02*
G75*
G03*
X185650000Y-102700000I-3150000J0D01*
G01*
X184145000Y-89710162D02*
X183515000Y-89710162D01*
X183830000Y-89395162D02*
X183830000Y-90025162D01*
X180200000Y-88800000D02*
X179200000Y-89800000D01*
X184800000Y-88800000D02*
X185800000Y-89800000D01*
X184800000Y-88800000D02*
X180200000Y-88800000D01*
X179200000Y-89800000D02*
X179200000Y-95400000D01*
X185800000Y-89800000D02*
X185800000Y-95400000D01*
X185800000Y-95400000D02*
X179200000Y-95400000D01*
X185650000Y-92100000D02*
G75*
G03*
X185650000Y-92100000I-3150000J0D01*
G01*
X166405000Y-112845000D02*
X164236000Y-112844000D01*
X166405000Y-112845000D02*
X164236000Y-112844000D01*
X161760000Y-111575000D02*
X161760000Y-121105000D01*
X166590000Y-111575000D02*
X161760000Y-111575000D01*
X166590000Y-121105000D02*
X166590000Y-111575000D01*
X161760000Y-121105000D02*
X166590000Y-121105000D01*
X166415000Y-112845000D02*
G75*
G03*
X166415000Y-112845000I-1095000J0D01*
G01*
X206245000Y-68810162D02*
X205615000Y-68810162D01*
X205930000Y-68495162D02*
X205930000Y-69125162D01*
X202300000Y-67900000D02*
X201300000Y-68900000D01*
X206900000Y-67900000D02*
X207900000Y-68900000D01*
X206900000Y-67900000D02*
X202300000Y-67900000D01*
X201300000Y-68900000D02*
X201300000Y-74500000D01*
X207900000Y-68900000D02*
X207900000Y-74500000D01*
X207900000Y-74500000D02*
X201300000Y-74500000D01*
X207750000Y-71200000D02*
G75*
G03*
X207750000Y-71200000I-3150000J0D01*
G01*
X145905000Y-117045000D02*
X143736000Y-117044000D01*
X145905000Y-117045000D02*
X143736000Y-117044000D01*
X141260000Y-115775000D02*
X141260000Y-125305000D01*
X146090000Y-115775000D02*
X141260000Y-115775000D01*
X146090000Y-125305000D02*
X146090000Y-115775000D01*
X141260000Y-125305000D02*
X146090000Y-125305000D01*
X145915000Y-117045000D02*
G75*
G03*
X145915000Y-117045000I-1095000J0D01*
G01*
X168345000Y-99995000D02*
X168344000Y-102164000D01*
X168345000Y-99995000D02*
X168344000Y-102164000D01*
X167075000Y-104640000D02*
X176605000Y-104640000D01*
X167075000Y-99810000D02*
X167075000Y-104640000D01*
X176605000Y-99810000D02*
X167075000Y-99810000D01*
X176605000Y-104640000D02*
X176605000Y-99810000D01*
X169440000Y-101080000D02*
G75*
G03*
X169440000Y-101080000I-1095000J0D01*
G01*
X166312500Y-100400000D02*
X166312500Y-102000000D01*
X165487500Y-100400000D02*
X166312500Y-100400000D01*
X165487500Y-102000000D02*
X165487500Y-100400000D01*
X166312500Y-102000000D02*
X165487500Y-102000000D01*
X177387500Y-103400000D02*
X177387500Y-101800000D01*
X178212500Y-103400000D02*
X177387500Y-103400000D01*
X178212500Y-101800000D02*
X178212500Y-103400000D01*
X177387500Y-101800000D02*
X178212500Y-101800000D01*
X120400000Y-116000000D02*
X120400000Y-114000000D01*
X121600000Y-116000000D02*
X120400000Y-116000000D01*
X121600000Y-114000000D02*
X121600000Y-116000000D01*
X120400000Y-114000000D02*
X121600000Y-114000000D01*
X121600000Y-84000000D02*
X121600000Y-86000000D01*
X120400000Y-84000000D02*
X121600000Y-84000000D01*
X120400000Y-86000000D02*
X120400000Y-84000000D01*
X121600000Y-86000000D02*
X120400000Y-86000000D01*
X171000000Y-83250000D02*
X183000000Y-83250000D01*
X171000000Y-73550000D02*
X171000000Y-83250000D01*
X183000000Y-73550000D02*
X171000000Y-73550000D01*
X183000000Y-83250000D02*
X183000000Y-73550000D01*
X179500000Y-78400000D02*
G75*
G03*
X179500000Y-78400000I-3000000J0D01*
G01*
X197412500Y-68387500D02*
X197412500Y-69987500D01*
X196587500Y-68387500D02*
X197412500Y-68387500D01*
X196587500Y-69987500D02*
X196587500Y-68387500D01*
X197412500Y-69987500D02*
X196587500Y-69987500D01*
X198487500Y-70000000D02*
X198487500Y-68400000D01*
X199312500Y-70000000D02*
X198487500Y-70000000D01*
X199312500Y-68400000D02*
X199312500Y-70000000D01*
X198487500Y-68400000D02*
X199312500Y-68400000D01*
X209400000Y-87500000D02*
X196400000Y-87500000D01*
X209400000Y-77500000D02*
X209400000Y-87500000D01*
X196400000Y-77500000D02*
X209400000Y-77500000D01*
X196400000Y-81500000D02*
X196400000Y-77500000D01*
X197400000Y-82500000D02*
X196400000Y-81500000D01*
X196400000Y-83500000D02*
X197400000Y-82500000D01*
X196400000Y-87500000D02*
X196400000Y-83500000D01*
X186025000Y-116440000D02*
X185050000Y-117415000D01*
X186025000Y-112515000D02*
X186025000Y-116440000D01*
X182125000Y-112515000D02*
X186025000Y-112515000D01*
X182125000Y-117415000D02*
X182125000Y-112515000D01*
X185050000Y-117415000D02*
X182125000Y-117415000D01*
X156475000Y-89150000D02*
X157450000Y-90125000D01*
X152550000Y-89150000D02*
X156475000Y-89150000D01*
X152550000Y-93050000D02*
X152550000Y-89150000D01*
X157450000Y-93050000D02*
X152550000Y-93050000D01*
X157450000Y-90125000D02*
X157450000Y-93050000D01*
X131215000Y-96505000D02*
X129046000Y-96504000D01*
X131215000Y-96505000D02*
X129046000Y-96504000D01*
X126570000Y-95235000D02*
X126570000Y-104765000D01*
X131400000Y-95235000D02*
X126570000Y-95235000D01*
X131400000Y-104765000D02*
X131400000Y-95235000D01*
X126570000Y-104765000D02*
X131400000Y-104765000D01*
X131225000Y-96505000D02*
G75*
G03*
X131225000Y-96505000I-1095000J0D01*
G01*
X190712500Y-114400000D02*
X190712500Y-116000000D01*
X189887500Y-114400000D02*
X190712500Y-114400000D01*
X189887500Y-116000000D02*
X189887500Y-114400000D01*
X190712500Y-116000000D02*
X189887500Y-116000000D01*
X164900000Y-110712500D02*
X163300000Y-110712500D01*
X164900000Y-109887500D02*
X164900000Y-110712500D01*
X163300000Y-109887500D02*
X164900000Y-109887500D01*
X163300000Y-110712500D02*
X163300000Y-109887500D01*
X146800000Y-126087500D02*
X148400000Y-126087500D01*
X146800000Y-126912500D02*
X146800000Y-126087500D01*
X148400000Y-126912500D02*
X146800000Y-126912500D01*
X148400000Y-126087500D02*
X148400000Y-126912500D01*
X105100000Y-97787500D02*
X106700000Y-97787500D01*
X105100000Y-98612500D02*
X105100000Y-97787500D01*
X106700000Y-98612500D02*
X105100000Y-98612500D01*
X106700000Y-97787500D02*
X106700000Y-98612500D01*
X117700000Y-116600000D02*
X117700000Y-113400000D01*
X119300000Y-116600000D02*
X117700000Y-116600000D01*
X119300000Y-113400000D02*
X119300000Y-116600000D01*
X117700000Y-113400000D02*
X119300000Y-113400000D01*
X121812500Y-122100000D02*
X121812500Y-123700000D01*
X120987500Y-122100000D02*
X121812500Y-122100000D01*
X120987500Y-123700000D02*
X120987500Y-122100000D01*
X121812500Y-123700000D02*
X120987500Y-123700000D01*
X120987500Y-77887500D02*
X120987500Y-76287500D01*
X121812500Y-77887500D02*
X120987500Y-77887500D01*
X121812500Y-76287500D02*
X121812500Y-77887500D01*
X120987500Y-76287500D02*
X121812500Y-76287500D01*
X119300000Y-83400000D02*
X119300000Y-86600000D01*
X117700000Y-83400000D02*
X119300000Y-83400000D01*
X117700000Y-86600000D02*
X117700000Y-83400000D01*
X119300000Y-86600000D02*
X117700000Y-86600000D01*
X196200000Y-75000000D02*
X196200000Y-73000000D01*
X197400000Y-75000000D02*
X196200000Y-75000000D01*
X197400000Y-73000000D02*
X197400000Y-75000000D01*
X196200000Y-73000000D02*
X197400000Y-73000000D01*
X183250000Y-110900000D02*
X184850000Y-110900000D01*
X183250000Y-111700000D02*
X183250000Y-110900000D01*
X184850000Y-111700000D02*
X183250000Y-111700000D01*
X184850000Y-110900000D02*
X184850000Y-111700000D01*
X117650000Y-109000000D02*
X117950000Y-108700000D01*
X117650000Y-111000000D02*
X117650000Y-109000000D01*
X117950000Y-111300000D02*
X117650000Y-111000000D01*
X118250000Y-111600000D02*
X117950000Y-111300000D01*
X122140000Y-111600000D02*
X118250000Y-111600000D01*
X122150000Y-111600000D02*
X122140000Y-111600000D01*
X122150000Y-111590000D02*
X122150000Y-111600000D01*
X122150000Y-108410000D02*
X122150000Y-111590000D01*
X122150000Y-108400000D02*
X122150000Y-108410000D01*
X122140000Y-108400000D02*
X122150000Y-108400000D01*
X118250000Y-108400000D02*
X122140000Y-108400000D01*
X117950000Y-108700000D02*
X118250000Y-108400000D01*
X121500000Y-110000000D02*
G75*
G03*
X121500000Y-110000000I-1600000J0D01*
G01*
X117650000Y-89000000D02*
X117950000Y-88700000D01*
X117650000Y-91000000D02*
X117650000Y-89000000D01*
X117950000Y-91300000D02*
X117650000Y-91000000D01*
X118250000Y-91600000D02*
X117950000Y-91300000D01*
X122140000Y-91600000D02*
X118250000Y-91600000D01*
X122150000Y-91600000D02*
X122140000Y-91600000D01*
X122150000Y-91590000D02*
X122150000Y-91600000D01*
X122150000Y-88410000D02*
X122150000Y-91590000D01*
X122150000Y-88400000D02*
X122150000Y-88410000D01*
X122140000Y-88400000D02*
X122150000Y-88400000D01*
X118250000Y-88400000D02*
X122140000Y-88400000D01*
X117950000Y-88700000D02*
X118250000Y-88400000D01*
X121500000Y-90000000D02*
G75*
G03*
X121500000Y-90000000I-1600000J0D01*
G01*
X152450000Y-98525000D02*
X153425000Y-97550000D01*
X152450000Y-102450000D02*
X152450000Y-98525000D01*
X156350000Y-102450000D02*
X152450000Y-102450000D01*
X156350000Y-97550000D02*
X156350000Y-102450000D01*
X153425000Y-97550000D02*
X156350000Y-97550000D01*
X143700000Y-69212500D02*
X142100000Y-69212500D01*
X143700000Y-68387500D02*
X143700000Y-69212500D01*
X142100000Y-68387500D02*
X143700000Y-68387500D01*
X142100000Y-69212500D02*
X142100000Y-68387500D01*
X188812500Y-105000000D02*
X188812500Y-106600000D01*
X187987500Y-105000000D02*
X188812500Y-105000000D01*
X187987500Y-106600000D02*
X187987500Y-105000000D01*
X188812500Y-106600000D02*
X187987500Y-106600000D01*
X188812500Y-101400000D02*
X188812500Y-103000000D01*
X187987500Y-101400000D02*
X188812500Y-101400000D01*
X187987500Y-103000000D02*
X187987500Y-101400000D01*
X188812500Y-103000000D02*
X187987500Y-103000000D01*
X188812500Y-97800000D02*
X188812500Y-99400000D01*
X187987500Y-97800000D02*
X188812500Y-97800000D01*
X187987500Y-99400000D02*
X187987500Y-97800000D01*
X188812500Y-99400000D02*
X187987500Y-99400000D01*
X189905000Y-121150000D02*
X189905000Y-117950000D01*
X192395000Y-121150000D02*
X189905000Y-121150000D01*
X192395000Y-117950000D02*
X192395000Y-121150000D01*
X189905000Y-117950000D02*
X192395000Y-117950000D01*
X165187500Y-80100000D02*
X165187500Y-78500000D01*
X166012500Y-80100000D02*
X165187500Y-80100000D01*
X166012500Y-78500000D02*
X166012500Y-80100000D01*
X165187500Y-78500000D02*
X166012500Y-78500000D01*
X164412500Y-78500000D02*
X164412500Y-80100000D01*
X163587500Y-78500000D02*
X164412500Y-78500000D01*
X163587500Y-80100000D02*
X163587500Y-78500000D01*
X164412500Y-80100000D02*
X163587500Y-80100000D01*
X159412500Y-99587500D02*
X161012500Y-99587500D01*
X159412500Y-100412500D02*
X159412500Y-99587500D01*
X161012500Y-100412500D02*
X159412500Y-100412500D01*
X161012500Y-99587500D02*
X161012500Y-100412500D01*
X145450000Y-102587500D02*
X147050000Y-102587500D01*
X145450000Y-103412500D02*
X145450000Y-102587500D01*
X147050000Y-103412500D02*
X145450000Y-103412500D01*
X147050000Y-102587500D02*
X147050000Y-103412500D01*
X145450000Y-96587500D02*
X147050000Y-96587500D01*
X145450000Y-97412500D02*
X145450000Y-96587500D01*
X147050000Y-97412500D02*
X145450000Y-97412500D01*
X147050000Y-96587500D02*
X147050000Y-97412500D01*
X123450000Y-104087500D02*
X125050000Y-104087500D01*
X123450000Y-104912500D02*
X123450000Y-104087500D01*
X125050000Y-104912500D02*
X123450000Y-104912500D01*
X125050000Y-104087500D02*
X125050000Y-104912500D01*
X125050000Y-95912500D02*
X123450000Y-95912500D01*
X125050000Y-95087500D02*
X125050000Y-95912500D01*
X123450000Y-95087500D02*
X125050000Y-95087500D01*
X123450000Y-95912500D02*
X123450000Y-95087500D01*
X210300000Y-112500000D02*
X211300000Y-122500000D01*
X209000000Y-110150000D02*
X194100000Y-110150000D01*
X209000000Y-124850000D02*
X209000000Y-110150000D01*
X194100000Y-124850000D02*
X209000000Y-124850000D01*
X194100000Y-110150000D02*
X194100000Y-124850000D01*
X217700000Y-111150000D02*
X209000000Y-111150000D01*
X217700000Y-123850000D02*
X217700000Y-111150000D01*
X209000000Y-123850000D02*
X217700000Y-123850000D01*
X229600000Y-112700000D02*
X217700000Y-112700000D01*
X229600000Y-122300000D02*
X229600000Y-112700000D01*
X217700000Y-122300000D02*
X229600000Y-122300000D01*
X225370000Y-117500000D02*
G75*
G03*
X225370000Y-117500000I-1000000J0D01*
G01*
X211300000Y-112500000D02*
X212300000Y-122500000D01*
X212300000Y-112500000D02*
X213300000Y-122500000D01*
X213300000Y-112500000D02*
X214300000Y-122500000D01*
X214300000Y-112500000D02*
X215300000Y-122500000D01*
X215300000Y-112500000D02*
X216300000Y-122500000D01*
X216300000Y-112500000D02*
X217300000Y-122500000D01*
X89200000Y-118000000D02*
X88200000Y-108000000D01*
X90500000Y-120350000D02*
X105400000Y-120350000D01*
X90500000Y-105650000D02*
X90500000Y-120350000D01*
X105400000Y-105650000D02*
X90500000Y-105650000D01*
X105400000Y-120350000D02*
X105400000Y-105650000D01*
X81800000Y-119350000D02*
X90500000Y-119350000D01*
X81800000Y-106650000D02*
X81800000Y-119350000D01*
X90500000Y-106650000D02*
X81800000Y-106650000D01*
X69900000Y-117800000D02*
X81800000Y-117800000D01*
X69900000Y-108200000D02*
X69900000Y-117800000D01*
X81800000Y-108200000D02*
X69900000Y-108200000D01*
X76130000Y-113000000D02*
G75*
G03*
X76130000Y-113000000I-1000000J0D01*
G01*
X88200000Y-118000000D02*
X87200000Y-108000000D01*
X87200000Y-118000000D02*
X86200000Y-108000000D01*
X86200000Y-118000000D02*
X85200000Y-108000000D01*
X85200000Y-118000000D02*
X84200000Y-108000000D01*
X84200000Y-118000000D02*
X83200000Y-108000000D01*
X83200000Y-118000000D02*
X82200000Y-108000000D01*
X89200000Y-92000000D02*
X88200000Y-82000000D01*
X90500000Y-94350000D02*
X105400000Y-94350000D01*
X90500000Y-79650000D02*
X90500000Y-94350000D01*
X105400000Y-79650000D02*
X90500000Y-79650000D01*
X105400000Y-94350000D02*
X105400000Y-79650000D01*
X81800000Y-93350000D02*
X90500000Y-93350000D01*
X81800000Y-80650000D02*
X81800000Y-93350000D01*
X90500000Y-80650000D02*
X81800000Y-80650000D01*
X69900000Y-91800000D02*
X81800000Y-91800000D01*
X69900000Y-82200000D02*
X69900000Y-91800000D01*
X81800000Y-82200000D02*
X69900000Y-82200000D01*
X76130000Y-87000000D02*
G75*
G03*
X76130000Y-87000000I-1000000J0D01*
G01*
X88200000Y-92000000D02*
X87200000Y-82000000D01*
X87200000Y-92000000D02*
X86200000Y-82000000D01*
X86200000Y-92000000D02*
X85200000Y-82000000D01*
X85200000Y-92000000D02*
X84200000Y-82000000D01*
X84200000Y-92000000D02*
X83200000Y-82000000D01*
X83200000Y-92000000D02*
X82200000Y-82000000D01*
X191900000Y-81800000D02*
X192300000Y-82400000D01*
X191898980Y-81800000D02*
X191500000Y-82400000D01*
X191500000Y-82400000D02*
X192300000Y-82400000D01*
X192300000Y-81800000D02*
X191500000Y-81800000D01*
X191900000Y-82400000D02*
X191900000Y-83000000D01*
X191900000Y-81800000D02*
X191900000Y-81200000D01*
X192800000Y-83500000D02*
X192800000Y-80700000D01*
X192800000Y-83500000D02*
X191000000Y-83500000D01*
X191000000Y-80700000D02*
X192800000Y-80700000D01*
X191000000Y-83500000D02*
X191000000Y-80700000D01*
X188900000Y-82400000D02*
X188500000Y-81800000D01*
X188901020Y-82400000D02*
X189300000Y-81800000D01*
X189300000Y-81800000D02*
X188500000Y-81800000D01*
X188500000Y-82400000D02*
X189300000Y-82400000D01*
X188900000Y-81800000D02*
X188900000Y-81200000D01*
X188900000Y-82400000D02*
X188900000Y-83000000D01*
X188000000Y-80700000D02*
X188000000Y-83500000D01*
X188000000Y-80700000D02*
X189800000Y-80700000D01*
X189800000Y-83500000D02*
X188000000Y-83500000D01*
X189800000Y-80700000D02*
X189800000Y-83500000D01*
X144270000Y-100700000D02*
X144270000Y-99300000D01*
X141230000Y-99300000D02*
X144270000Y-99300000D01*
X141800000Y-100700000D02*
X141230000Y-100150000D01*
X141230000Y-100150000D02*
X141230000Y-99300000D01*
X141800000Y-100700000D02*
X144250000Y-100700000D01*
X144270000Y-104700000D02*
X144270000Y-103300000D01*
X141230000Y-103300000D02*
X144270000Y-103300000D01*
X141800000Y-104700000D02*
X141230000Y-104150000D01*
X141230000Y-104150000D02*
X141230000Y-103300000D01*
X141800000Y-104700000D02*
X144250000Y-104700000D01*
X141230000Y-95300000D02*
X141230000Y-96700000D01*
X144270000Y-96700000D02*
X141230000Y-96700000D01*
X143700000Y-95300000D02*
X144270000Y-95850000D01*
X144270000Y-95850000D02*
X144270000Y-96700000D01*
X143700000Y-95300000D02*
X141250000Y-95300000D01*
X193800000Y-98000000D02*
X193800000Y-96400000D01*
X194600000Y-98000000D02*
X193800000Y-98000000D01*
X194600000Y-96400000D02*
X194600000Y-98000000D01*
X193800000Y-96400000D02*
X194600000Y-96400000D01*
X186700000Y-67300000D02*
X186700000Y-68900000D01*
X185900000Y-67300000D02*
X186700000Y-67300000D01*
X185900000Y-68900000D02*
X185900000Y-67300000D01*
X186700000Y-68900000D02*
X185900000Y-68900000D01*
X186700000Y-71200000D02*
X186700000Y-72800000D01*
X185900000Y-71200000D02*
X186700000Y-71200000D01*
X185900000Y-72800000D02*
X185900000Y-71200000D01*
X186700000Y-72800000D02*
X185900000Y-72800000D01*
X190200000Y-74800000D02*
X188600000Y-74800000D01*
X190200000Y-74000000D02*
X190200000Y-74800000D01*
X188600000Y-74000000D02*
X190200000Y-74000000D01*
X188600000Y-74800000D02*
X188600000Y-74000000D01*
X179000000Y-110900000D02*
X179000000Y-109300000D01*
X179800000Y-110900000D02*
X179000000Y-110900000D01*
X179800000Y-109300000D02*
X179800000Y-110900000D01*
X179000000Y-109300000D02*
X179800000Y-109300000D01*
X153925001Y-86900000D02*
X152325001Y-86900000D01*
X153925001Y-86100000D02*
X153925001Y-86900000D01*
X152325001Y-86100000D02*
X153925001Y-86100000D01*
X152325001Y-86900000D02*
X152325001Y-86100000D01*
X174100000Y-107900000D02*
X174100000Y-106300000D01*
X174900000Y-107900000D02*
X174100000Y-107900000D01*
X174900000Y-106300000D02*
X174900000Y-107900000D01*
X174100000Y-106300000D02*
X174900000Y-106300000D01*
X146600000Y-100800000D02*
X146600000Y-99200000D01*
X147400000Y-100800000D02*
X146600000Y-100800000D01*
X147400000Y-99200000D02*
X147400000Y-100800000D01*
X146600000Y-99200000D02*
X147400000Y-99200000D01*
X148400000Y-102800000D02*
X148400000Y-101200000D01*
X149200000Y-102800000D02*
X148400000Y-102800000D01*
X149200000Y-101200000D02*
X149200000Y-102800000D01*
X148400000Y-101200000D02*
X149200000Y-101200000D01*
X148400000Y-98800000D02*
X148400000Y-97200000D01*
X149200000Y-98800000D02*
X148400000Y-98800000D01*
X149200000Y-97200000D02*
X149200000Y-98800000D01*
X148400000Y-97200000D02*
X149200000Y-97200000D01*
X123100000Y-102550000D02*
X123100000Y-100950000D01*
X123900000Y-102550000D02*
X123100000Y-102550000D01*
X123900000Y-100950000D02*
X123900000Y-102550000D01*
X123100000Y-100950000D02*
X123900000Y-100950000D01*
X123100000Y-99050000D02*
X123100000Y-97450000D01*
X123900000Y-99050000D02*
X123100000Y-99050000D01*
X123900000Y-97450000D02*
X123900000Y-99050000D01*
X123100000Y-97450000D02*
X123900000Y-97450000D01*
X119500000Y-105000000D02*
X119200000Y-104700000D01*
X121500000Y-105000000D02*
X119500000Y-105000000D01*
X121800000Y-104700000D02*
X121500000Y-105000000D01*
X122100000Y-104400000D02*
X121800000Y-104700000D01*
X122100000Y-100510000D02*
X122100000Y-104400000D01*
X122100000Y-100500000D02*
X122100000Y-100510000D01*
X122090000Y-100500000D02*
X122100000Y-100500000D01*
X118910000Y-100500000D02*
X122090000Y-100500000D01*
X118900000Y-100500000D02*
X118910000Y-100500000D01*
X118900000Y-100510000D02*
X118900000Y-100500000D01*
X118900000Y-104400000D02*
X118900000Y-100510000D01*
X119200000Y-104700000D02*
X118900000Y-104400000D01*
X122100000Y-102750000D02*
G75*
G03*
X122100000Y-102750000I-1600000J0D01*
G01*
X121500000Y-95000000D02*
X121800000Y-95300000D01*
X119500000Y-95000000D02*
X121500000Y-95000000D01*
X119200000Y-95300000D02*
X119500000Y-95000000D01*
X118900000Y-95600000D02*
X119200000Y-95300000D01*
X118900000Y-99490000D02*
X118900000Y-95600000D01*
X118900000Y-99500000D02*
X118900000Y-99490000D01*
X118910000Y-99500000D02*
X118900000Y-99500000D01*
X122090000Y-99500000D02*
X118910000Y-99500000D01*
X122100000Y-99500000D02*
X122090000Y-99500000D01*
X122100000Y-99490000D02*
X122100000Y-99500000D01*
X122100000Y-95600000D02*
X122100000Y-99490000D01*
X121800000Y-95300000D02*
X122100000Y-95600000D01*
X122100000Y-97250000D02*
G75*
G03*
X122100000Y-97250000I-1600000J0D01*
G01*
X111004761Y-114333333D02*
X111052380Y-114190476D01*
X111052380Y-113952380D01*
X111004761Y-113857142D01*
X110957142Y-113809523D01*
X110861904Y-113761904D01*
X110766666Y-113761904D01*
X110671428Y-113809523D01*
X110623809Y-113857142D01*
X110576190Y-113952380D01*
X110528571Y-114142857D01*
X110480952Y-114238095D01*
X110433333Y-114285714D01*
X110338095Y-114333333D01*
X110242857Y-114333333D01*
X110147619Y-114285714D01*
X110100000Y-114238095D01*
X110052380Y-114142857D01*
X110052380Y-113904761D01*
X110100000Y-113761904D01*
X110052380Y-113428571D02*
X111052380Y-113190476D01*
X110338095Y-113000000D01*
X111052380Y-112809523D01*
X110052380Y-112571428D01*
X110052380Y-112285714D02*
X110052380Y-111619047D01*
X111052380Y-112047619D01*
X115004761Y-88333333D02*
X115052380Y-88190476D01*
X115052380Y-87952380D01*
X115004761Y-87857142D01*
X114957142Y-87809523D01*
X114861904Y-87761904D01*
X114766666Y-87761904D01*
X114671428Y-87809523D01*
X114623809Y-87857142D01*
X114576190Y-87952380D01*
X114528571Y-88142857D01*
X114480952Y-88238095D01*
X114433333Y-88285714D01*
X114338095Y-88333333D01*
X114242857Y-88333333D01*
X114147619Y-88285714D01*
X114100000Y-88238095D01*
X114052380Y-88142857D01*
X114052380Y-87904761D01*
X114100000Y-87761904D01*
X114052380Y-87428571D02*
X115052380Y-87190476D01*
X114338095Y-87000000D01*
X115052380Y-86809523D01*
X114052380Y-86571428D01*
X114052380Y-85714285D02*
X114052380Y-86190476D01*
X114528571Y-86238095D01*
X114480952Y-86190476D01*
X114433333Y-86095238D01*
X114433333Y-85857142D01*
X114480952Y-85761904D01*
X114528571Y-85714285D01*
X114623809Y-85666666D01*
X114861904Y-85666666D01*
X114957142Y-85714285D01*
X115004761Y-85761904D01*
X115052380Y-85857142D01*
X115052380Y-86095238D01*
X115004761Y-86190476D01*
X114957142Y-86238095D01*
X168466666Y-93604761D02*
X168609523Y-93652380D01*
X168847619Y-93652380D01*
X168942857Y-93604761D01*
X168990476Y-93557142D01*
X169038095Y-93461904D01*
X169038095Y-93366666D01*
X168990476Y-93271428D01*
X168942857Y-93223809D01*
X168847619Y-93176190D01*
X168657142Y-93128571D01*
X168561904Y-93080952D01*
X168514285Y-93033333D01*
X168466666Y-92938095D01*
X168466666Y-92842857D01*
X168514285Y-92747619D01*
X168561904Y-92700000D01*
X168657142Y-92652380D01*
X168895238Y-92652380D01*
X169038095Y-92700000D01*
X169371428Y-92652380D02*
X169609523Y-93652380D01*
X169800000Y-92938095D01*
X169990476Y-93652380D01*
X170228571Y-92652380D01*
X171038095Y-92652380D02*
X170847619Y-92652380D01*
X170752380Y-92700000D01*
X170704761Y-92747619D01*
X170609523Y-92890476D01*
X170561904Y-93080952D01*
X170561904Y-93461904D01*
X170609523Y-93557142D01*
X170657142Y-93604761D01*
X170752380Y-93652380D01*
X170942857Y-93652380D01*
X171038095Y-93604761D01*
X171085714Y-93557142D01*
X171133333Y-93461904D01*
X171133333Y-93223809D01*
X171085714Y-93128571D01*
X171038095Y-93080952D01*
X170942857Y-93033333D01*
X170752380Y-93033333D01*
X170657142Y-93080952D01*
X170609523Y-93128571D01*
X170561904Y-93223809D01*
X176904761Y-118233333D02*
X176952380Y-118090476D01*
X176952380Y-117852380D01*
X176904761Y-117757142D01*
X176857142Y-117709523D01*
X176761904Y-117661904D01*
X176666666Y-117661904D01*
X176571428Y-117709523D01*
X176523809Y-117757142D01*
X176476190Y-117852380D01*
X176428571Y-118042857D01*
X176380952Y-118138095D01*
X176333333Y-118185714D01*
X176238095Y-118233333D01*
X176142857Y-118233333D01*
X176047619Y-118185714D01*
X176000000Y-118138095D01*
X175952380Y-118042857D01*
X175952380Y-117804761D01*
X176000000Y-117661904D01*
X175952380Y-117328571D02*
X176952380Y-117090476D01*
X176238095Y-116900000D01*
X176952380Y-116709523D01*
X175952380Y-116471428D01*
X175952380Y-116185714D02*
X175952380Y-115566666D01*
X176333333Y-115900000D01*
X176333333Y-115757142D01*
X176380952Y-115661904D01*
X176428571Y-115614285D01*
X176523809Y-115566666D01*
X176761904Y-115566666D01*
X176857142Y-115614285D01*
X176904761Y-115661904D01*
X176952380Y-115757142D01*
X176952380Y-116042857D01*
X176904761Y-116138095D01*
X176857142Y-116185714D01*
D12*
X103166666Y-122278571D02*
X102833333Y-122278571D01*
X102833333Y-122802380D02*
X102833333Y-121802380D01*
X103309523Y-121802380D01*
X103642857Y-121897619D02*
X103690476Y-121850000D01*
X103785714Y-121802380D01*
X104023809Y-121802380D01*
X104119047Y-121850000D01*
X104166666Y-121897619D01*
X104214285Y-121992857D01*
X104214285Y-122088095D01*
X104166666Y-122230952D01*
X103595238Y-122802380D01*
X104214285Y-122802380D01*
X103166666Y-67078571D02*
X102833333Y-67078571D01*
X102833333Y-67602380D02*
X102833333Y-66602380D01*
X103309523Y-66602380D01*
X104214285Y-67602380D02*
X103642857Y-67602380D01*
X103928571Y-67602380D02*
X103928571Y-66602380D01*
X103833333Y-66745238D01*
X103738095Y-66840476D01*
X103642857Y-66888095D01*
X191763333Y-103646666D02*
X192556666Y-103646666D01*
X192650000Y-103600000D01*
X192696666Y-103553333D01*
X192743333Y-103460000D01*
X192743333Y-103273333D01*
X192696666Y-103180000D01*
X192650000Y-103133333D01*
X192556666Y-103086666D01*
X191763333Y-103086666D01*
X191763333Y-102200000D02*
X191763333Y-102386666D01*
X191810000Y-102480000D01*
X191856666Y-102526666D01*
X191996666Y-102620000D01*
X192183333Y-102666666D01*
X192556666Y-102666666D01*
X192650000Y-102620000D01*
X192696666Y-102573333D01*
X192743333Y-102480000D01*
X192743333Y-102293333D01*
X192696666Y-102200000D01*
X192650000Y-102153333D01*
X192556666Y-102106666D01*
X192323333Y-102106666D01*
X192230000Y-102153333D01*
X192183333Y-102200000D01*
X192136666Y-102293333D01*
X192136666Y-102480000D01*
X192183333Y-102573333D01*
X192230000Y-102620000D01*
X192323333Y-102666666D01*
X130133333Y-70757142D02*
X130085714Y-70804761D01*
X129942857Y-70852380D01*
X129847619Y-70852380D01*
X129704761Y-70804761D01*
X129609523Y-70709523D01*
X129561904Y-70614285D01*
X129514285Y-70423809D01*
X129514285Y-70280952D01*
X129561904Y-70090476D01*
X129609523Y-69995238D01*
X129704761Y-69900000D01*
X129847619Y-69852380D01*
X129942857Y-69852380D01*
X130085714Y-69900000D01*
X130133333Y-69947619D01*
X130466666Y-69852380D02*
X131085714Y-69852380D01*
X130752380Y-70233333D01*
X130895238Y-70233333D01*
X130990476Y-70280952D01*
X131038095Y-70328571D01*
X131085714Y-70423809D01*
X131085714Y-70661904D01*
X131038095Y-70757142D01*
X130990476Y-70804761D01*
X130895238Y-70852380D01*
X130609523Y-70852380D01*
X130514285Y-70804761D01*
X130466666Y-70757142D01*
X130133333Y-129957142D02*
X130085714Y-130004761D01*
X129942857Y-130052380D01*
X129847619Y-130052380D01*
X129704761Y-130004761D01*
X129609523Y-129909523D01*
X129561904Y-129814285D01*
X129514285Y-129623809D01*
X129514285Y-129480952D01*
X129561904Y-129290476D01*
X129609523Y-129195238D01*
X129704761Y-129100000D01*
X129847619Y-129052380D01*
X129942857Y-129052380D01*
X130085714Y-129100000D01*
X130133333Y-129147619D01*
X130990476Y-129385714D02*
X130990476Y-130052380D01*
X130752380Y-129004761D02*
X130514285Y-129719047D01*
X131133333Y-129719047D01*
D13*
X105642857Y-101980952D02*
X105509523Y-101790476D01*
X105414285Y-101980952D02*
X105414285Y-101580952D01*
X105566666Y-101580952D01*
X105604761Y-101600000D01*
X105623809Y-101619047D01*
X105642857Y-101657142D01*
X105642857Y-101714285D01*
X105623809Y-101752380D01*
X105604761Y-101771428D01*
X105566666Y-101790476D01*
X105414285Y-101790476D01*
X106023809Y-101980952D02*
X105795238Y-101980952D01*
X105909523Y-101980952D02*
X105909523Y-101580952D01*
X105871428Y-101638095D01*
X105833333Y-101676190D01*
X105795238Y-101695238D01*
X106271428Y-101580952D02*
X106309523Y-101580952D01*
X106347619Y-101600000D01*
X106366666Y-101619047D01*
X106385714Y-101657142D01*
X106404761Y-101733333D01*
X106404761Y-101828571D01*
X106385714Y-101904761D01*
X106366666Y-101942857D01*
X106347619Y-101961904D01*
X106309523Y-101980952D01*
X106271428Y-101980952D01*
X106233333Y-101961904D01*
X106214285Y-101942857D01*
X106195238Y-101904761D01*
X106176190Y-101828571D01*
X106176190Y-101733333D01*
X106195238Y-101657142D01*
X106214285Y-101619047D01*
X106233333Y-101600000D01*
X106271428Y-101580952D01*
D12*
X111766666Y-102352380D02*
X111766666Y-103066666D01*
X111719047Y-103209523D01*
X111623809Y-103304761D01*
X111480952Y-103352380D01*
X111385714Y-103352380D01*
X112242857Y-103352380D02*
X112242857Y-102352380D01*
X112623809Y-102352380D01*
X112719047Y-102400000D01*
X112766666Y-102447619D01*
X112814285Y-102542857D01*
X112814285Y-102685714D01*
X112766666Y-102780952D01*
X112719047Y-102828571D01*
X112623809Y-102876190D01*
X112242857Y-102876190D01*
X113671428Y-102685714D02*
X113671428Y-103352380D01*
X113433333Y-102304761D02*
X113195238Y-103019047D01*
X113814285Y-103019047D01*
X111766666Y-96552380D02*
X111766666Y-97266666D01*
X111719047Y-97409523D01*
X111623809Y-97504761D01*
X111480952Y-97552380D01*
X111385714Y-97552380D01*
X112242857Y-97552380D02*
X112242857Y-96552380D01*
X112623809Y-96552380D01*
X112719047Y-96600000D01*
X112766666Y-96647619D01*
X112814285Y-96742857D01*
X112814285Y-96885714D01*
X112766666Y-96980952D01*
X112719047Y-97028571D01*
X112623809Y-97076190D01*
X112242857Y-97076190D01*
X113147619Y-96552380D02*
X113766666Y-96552380D01*
X113433333Y-96933333D01*
X113576190Y-96933333D01*
X113671428Y-96980952D01*
X113719047Y-97028571D01*
X113766666Y-97123809D01*
X113766666Y-97361904D01*
X113719047Y-97457142D01*
X113671428Y-97504761D01*
X113576190Y-97552380D01*
X113290476Y-97552380D01*
X113195238Y-97504761D01*
X113147619Y-97457142D01*
X201652380Y-74538095D02*
X200652380Y-74538095D01*
X200652380Y-74300000D01*
X200700000Y-74157142D01*
X200795238Y-74061904D01*
X200890476Y-74014285D01*
X201080952Y-73966666D01*
X201223809Y-73966666D01*
X201414285Y-74014285D01*
X201509523Y-74061904D01*
X201604761Y-74157142D01*
X201652380Y-74300000D01*
X201652380Y-74538095D01*
X200985714Y-73109523D02*
X201652380Y-73109523D01*
X200604761Y-73347619D02*
X201319047Y-73585714D01*
X201319047Y-72966666D01*
X190753333Y-70163333D02*
X190753333Y-70956666D01*
X190800000Y-71050000D01*
X190846666Y-71096666D01*
X190940000Y-71143333D01*
X191126666Y-71143333D01*
X191220000Y-71096666D01*
X191266666Y-71050000D01*
X191313333Y-70956666D01*
X191313333Y-70163333D01*
X191920000Y-70583333D02*
X191826666Y-70536666D01*
X191780000Y-70490000D01*
X191733333Y-70396666D01*
X191733333Y-70350000D01*
X191780000Y-70256666D01*
X191826666Y-70210000D01*
X191920000Y-70163333D01*
X192106666Y-70163333D01*
X192200000Y-70210000D01*
X192246666Y-70256666D01*
X192293333Y-70350000D01*
X192293333Y-70396666D01*
X192246666Y-70490000D01*
X192200000Y-70536666D01*
X192106666Y-70583333D01*
X191920000Y-70583333D01*
X191826666Y-70630000D01*
X191780000Y-70676666D01*
X191733333Y-70770000D01*
X191733333Y-70956666D01*
X191780000Y-71050000D01*
X191826666Y-71096666D01*
X191920000Y-71143333D01*
X192106666Y-71143333D01*
X192200000Y-71096666D01*
X192246666Y-71050000D01*
X192293333Y-70956666D01*
X192293333Y-70770000D01*
X192246666Y-70676666D01*
X192200000Y-70630000D01*
X192106666Y-70583333D01*
X183328333Y-120428333D02*
X183328333Y-121221666D01*
X183375000Y-121315000D01*
X183421666Y-121361666D01*
X183515000Y-121408333D01*
X183701666Y-121408333D01*
X183795000Y-121361666D01*
X183841666Y-121315000D01*
X183888333Y-121221666D01*
X183888333Y-120428333D01*
X184261666Y-120428333D02*
X184868333Y-120428333D01*
X184541666Y-120801666D01*
X184681666Y-120801666D01*
X184775000Y-120848333D01*
X184821666Y-120895000D01*
X184868333Y-120988333D01*
X184868333Y-121221666D01*
X184821666Y-121315000D01*
X184775000Y-121361666D01*
X184681666Y-121408333D01*
X184401666Y-121408333D01*
X184308333Y-121361666D01*
X184261666Y-121315000D01*
D14*
X96361904Y-101021428D02*
X95561904Y-101021428D01*
X95561904Y-100830952D01*
X95600000Y-100716666D01*
X95676190Y-100640476D01*
X95752380Y-100602380D01*
X95904761Y-100564285D01*
X96019047Y-100564285D01*
X96171428Y-100602380D01*
X96247619Y-100640476D01*
X96323809Y-100716666D01*
X96361904Y-100830952D01*
X96361904Y-101021428D01*
X96361904Y-99802380D02*
X96361904Y-100259523D01*
X96361904Y-100030952D02*
X95561904Y-100030952D01*
X95676190Y-100107142D01*
X95752380Y-100183333D01*
X95790476Y-100259523D01*
X95561904Y-99535714D02*
X95561904Y-99002380D01*
X96361904Y-99345238D01*
D12*
X159452380Y-78995238D02*
X158976190Y-79328571D01*
X159452380Y-79566666D02*
X158452380Y-79566666D01*
X158452380Y-79185714D01*
X158500000Y-79090476D01*
X158547619Y-79042857D01*
X158642857Y-78995238D01*
X158785714Y-78995238D01*
X158880952Y-79042857D01*
X158928571Y-79090476D01*
X158976190Y-79185714D01*
X158976190Y-79566666D01*
X158452380Y-78709523D02*
X159452380Y-78376190D01*
X158452380Y-78042857D01*
X158547619Y-77757142D02*
X158500000Y-77709523D01*
X158452380Y-77614285D01*
X158452380Y-77376190D01*
X158500000Y-77280952D01*
X158547619Y-77233333D01*
X158642857Y-77185714D01*
X158738095Y-77185714D01*
X158880952Y-77233333D01*
X159452380Y-77804761D01*
X159452380Y-77185714D01*
X182857142Y-103342857D02*
X182904761Y-103390476D01*
X182952380Y-103533333D01*
X182952380Y-103628571D01*
X182904761Y-103771428D01*
X182809523Y-103866666D01*
X182714285Y-103914285D01*
X182523809Y-103961904D01*
X182380952Y-103961904D01*
X182190476Y-103914285D01*
X182095238Y-103866666D01*
X182000000Y-103771428D01*
X181952380Y-103628571D01*
X181952380Y-103533333D01*
X182000000Y-103390476D01*
X182047619Y-103342857D01*
X182047619Y-102961904D02*
X182000000Y-102914285D01*
X181952380Y-102819047D01*
X181952380Y-102580952D01*
X182000000Y-102485714D01*
X182047619Y-102438095D01*
X182142857Y-102390476D01*
X182238095Y-102390476D01*
X182380952Y-102438095D01*
X182952380Y-103009523D01*
X182952380Y-102390476D01*
X181952380Y-101485714D02*
X181952380Y-101961904D01*
X182428571Y-102009523D01*
X182380952Y-101961904D01*
X182333333Y-101866666D01*
X182333333Y-101628571D01*
X182380952Y-101533333D01*
X182428571Y-101485714D01*
X182523809Y-101438095D01*
X182761904Y-101438095D01*
X182857142Y-101485714D01*
X182904761Y-101533333D01*
X182952380Y-101628571D01*
X182952380Y-101866666D01*
X182904761Y-101961904D01*
X182857142Y-102009523D01*
X182857142Y-92742857D02*
X182904761Y-92790476D01*
X182952380Y-92933333D01*
X182952380Y-93028571D01*
X182904761Y-93171428D01*
X182809523Y-93266666D01*
X182714285Y-93314285D01*
X182523809Y-93361904D01*
X182380952Y-93361904D01*
X182190476Y-93314285D01*
X182095238Y-93266666D01*
X182000000Y-93171428D01*
X181952380Y-93028571D01*
X181952380Y-92933333D01*
X182000000Y-92790476D01*
X182047619Y-92742857D01*
X182047619Y-92361904D02*
X182000000Y-92314285D01*
X181952380Y-92219047D01*
X181952380Y-91980952D01*
X182000000Y-91885714D01*
X182047619Y-91838095D01*
X182142857Y-91790476D01*
X182238095Y-91790476D01*
X182380952Y-91838095D01*
X182952380Y-92409523D01*
X182952380Y-91790476D01*
X182285714Y-90933333D02*
X182952380Y-90933333D01*
X181904761Y-91171428D02*
X182619047Y-91409523D01*
X182619047Y-90790476D01*
X164627380Y-117570238D02*
X164151190Y-117903571D01*
X164627380Y-118141666D02*
X163627380Y-118141666D01*
X163627380Y-117760714D01*
X163675000Y-117665476D01*
X163722619Y-117617857D01*
X163817857Y-117570238D01*
X163960714Y-117570238D01*
X164055952Y-117617857D01*
X164103571Y-117665476D01*
X164151190Y-117760714D01*
X164151190Y-118141666D01*
X163627380Y-117284523D02*
X164627380Y-116951190D01*
X163627380Y-116617857D01*
X163960714Y-115855952D02*
X164627380Y-115855952D01*
X163579761Y-116094047D02*
X164294047Y-116332142D01*
X164294047Y-115713095D01*
X204957142Y-71842857D02*
X205004761Y-71890476D01*
X205052380Y-72033333D01*
X205052380Y-72128571D01*
X205004761Y-72271428D01*
X204909523Y-72366666D01*
X204814285Y-72414285D01*
X204623809Y-72461904D01*
X204480952Y-72461904D01*
X204290476Y-72414285D01*
X204195238Y-72366666D01*
X204100000Y-72271428D01*
X204052380Y-72128571D01*
X204052380Y-72033333D01*
X204100000Y-71890476D01*
X204147619Y-71842857D01*
X205052380Y-70890476D02*
X205052380Y-71461904D01*
X205052380Y-71176190D02*
X204052380Y-71176190D01*
X204195238Y-71271428D01*
X204290476Y-71366666D01*
X204338095Y-71461904D01*
X204052380Y-69985714D02*
X204052380Y-70461904D01*
X204528571Y-70509523D01*
X204480952Y-70461904D01*
X204433333Y-70366666D01*
X204433333Y-70128571D01*
X204480952Y-70033333D01*
X204528571Y-69985714D01*
X204623809Y-69938095D01*
X204861904Y-69938095D01*
X204957142Y-69985714D01*
X205004761Y-70033333D01*
X205052380Y-70128571D01*
X205052380Y-70366666D01*
X205004761Y-70461904D01*
X204957142Y-70509523D01*
X144127380Y-121770238D02*
X143651190Y-122103571D01*
X144127380Y-122341666D02*
X143127380Y-122341666D01*
X143127380Y-121960714D01*
X143175000Y-121865476D01*
X143222619Y-121817857D01*
X143317857Y-121770238D01*
X143460714Y-121770238D01*
X143555952Y-121817857D01*
X143603571Y-121865476D01*
X143651190Y-121960714D01*
X143651190Y-122341666D01*
X143127380Y-121484523D02*
X144127380Y-121151190D01*
X143127380Y-120817857D01*
X143127380Y-120579761D02*
X143127380Y-119960714D01*
X143508333Y-120294047D01*
X143508333Y-120151190D01*
X143555952Y-120055952D01*
X143603571Y-120008333D01*
X143698809Y-119960714D01*
X143936904Y-119960714D01*
X144032142Y-120008333D01*
X144079761Y-120055952D01*
X144127380Y-120151190D01*
X144127380Y-120436904D01*
X144079761Y-120532142D01*
X144032142Y-120579761D01*
X171879761Y-102677380D02*
X171546428Y-102201190D01*
X171308333Y-102677380D02*
X171308333Y-101677380D01*
X171689285Y-101677380D01*
X171784523Y-101725000D01*
X171832142Y-101772619D01*
X171879761Y-101867857D01*
X171879761Y-102010714D01*
X171832142Y-102105952D01*
X171784523Y-102153571D01*
X171689285Y-102201190D01*
X171308333Y-102201190D01*
X172165476Y-101677380D02*
X172498809Y-102677380D01*
X172832142Y-101677380D01*
X173594047Y-101677380D02*
X173403571Y-101677380D01*
X173308333Y-101725000D01*
X173260714Y-101772619D01*
X173165476Y-101915476D01*
X173117857Y-102105952D01*
X173117857Y-102486904D01*
X173165476Y-102582142D01*
X173213095Y-102629761D01*
X173308333Y-102677380D01*
X173498809Y-102677380D01*
X173594047Y-102629761D01*
X173641666Y-102582142D01*
X173689285Y-102486904D01*
X173689285Y-102248809D01*
X173641666Y-102153571D01*
X173594047Y-102105952D01*
X173498809Y-102058333D01*
X173308333Y-102058333D01*
X173213095Y-102105952D01*
X173165476Y-102153571D01*
X173117857Y-102248809D01*
D13*
X166080952Y-101457142D02*
X165890476Y-101590476D01*
X166080952Y-101685714D02*
X165680952Y-101685714D01*
X165680952Y-101533333D01*
X165700000Y-101495238D01*
X165719047Y-101476190D01*
X165757142Y-101457142D01*
X165814285Y-101457142D01*
X165852380Y-101476190D01*
X165871428Y-101495238D01*
X165890476Y-101533333D01*
X165890476Y-101685714D01*
X165719047Y-101304761D02*
X165700000Y-101285714D01*
X165680952Y-101247619D01*
X165680952Y-101152380D01*
X165700000Y-101114285D01*
X165719047Y-101095238D01*
X165757142Y-101076190D01*
X165795238Y-101076190D01*
X165852380Y-101095238D01*
X166080952Y-101323809D01*
X166080952Y-101076190D01*
X165680952Y-100942857D02*
X165680952Y-100695238D01*
X165833333Y-100828571D01*
X165833333Y-100771428D01*
X165852380Y-100733333D01*
X165871428Y-100714285D01*
X165909523Y-100695238D01*
X166004761Y-100695238D01*
X166042857Y-100714285D01*
X166061904Y-100733333D01*
X166080952Y-100771428D01*
X166080952Y-100885714D01*
X166061904Y-100923809D01*
X166042857Y-100942857D01*
X177980952Y-102857142D02*
X177790476Y-102990476D01*
X177980952Y-103085714D02*
X177580952Y-103085714D01*
X177580952Y-102933333D01*
X177600000Y-102895238D01*
X177619047Y-102876190D01*
X177657142Y-102857142D01*
X177714285Y-102857142D01*
X177752380Y-102876190D01*
X177771428Y-102895238D01*
X177790476Y-102933333D01*
X177790476Y-103085714D01*
X177619047Y-102704761D02*
X177600000Y-102685714D01*
X177580952Y-102647619D01*
X177580952Y-102552380D01*
X177600000Y-102514285D01*
X177619047Y-102495238D01*
X177657142Y-102476190D01*
X177695238Y-102476190D01*
X177752380Y-102495238D01*
X177980952Y-102723809D01*
X177980952Y-102476190D01*
X177619047Y-102323809D02*
X177600000Y-102304761D01*
X177580952Y-102266666D01*
X177580952Y-102171428D01*
X177600000Y-102133333D01*
X177619047Y-102114285D01*
X177657142Y-102095238D01*
X177695238Y-102095238D01*
X177752380Y-102114285D01*
X177980952Y-102342857D01*
X177980952Y-102095238D01*
D15*
X121178571Y-115083333D02*
X121202380Y-115107142D01*
X121226190Y-115178571D01*
X121226190Y-115226190D01*
X121202380Y-115297619D01*
X121154761Y-115345238D01*
X121107142Y-115369047D01*
X121011904Y-115392857D01*
X120940476Y-115392857D01*
X120845238Y-115369047D01*
X120797619Y-115345238D01*
X120750000Y-115297619D01*
X120726190Y-115226190D01*
X120726190Y-115178571D01*
X120750000Y-115107142D01*
X120773809Y-115083333D01*
X120773809Y-114892857D02*
X120750000Y-114869047D01*
X120726190Y-114821428D01*
X120726190Y-114702380D01*
X120750000Y-114654761D01*
X120773809Y-114630952D01*
X120821428Y-114607142D01*
X120869047Y-114607142D01*
X120940476Y-114630952D01*
X121226190Y-114916666D01*
X121226190Y-114607142D01*
X121178571Y-85083333D02*
X121202380Y-85107142D01*
X121226190Y-85178571D01*
X121226190Y-85226190D01*
X121202380Y-85297619D01*
X121154761Y-85345238D01*
X121107142Y-85369047D01*
X121011904Y-85392857D01*
X120940476Y-85392857D01*
X120845238Y-85369047D01*
X120797619Y-85345238D01*
X120750000Y-85297619D01*
X120726190Y-85226190D01*
X120726190Y-85178571D01*
X120750000Y-85107142D01*
X120773809Y-85083333D01*
X121226190Y-84607142D02*
X121226190Y-84892857D01*
X121226190Y-84750000D02*
X120726190Y-84750000D01*
X120797619Y-84797619D01*
X120845238Y-84845238D01*
X120869047Y-84892857D01*
D12*
X120900000Y-131014285D02*
X120852380Y-131109523D01*
X120852380Y-131252380D01*
X120900000Y-131395238D01*
X120995238Y-131490476D01*
X121090476Y-131538095D01*
X121280952Y-131585714D01*
X121423809Y-131585714D01*
X121614285Y-131538095D01*
X121709523Y-131490476D01*
X121804761Y-131395238D01*
X121852380Y-131252380D01*
X121852380Y-131157142D01*
X121804761Y-131014285D01*
X121757142Y-130966666D01*
X121423809Y-130966666D01*
X121423809Y-131157142D01*
X121852380Y-130538095D02*
X120852380Y-130538095D01*
X120852380Y-130300000D01*
X120900000Y-130157142D01*
X120995238Y-130061904D01*
X121090476Y-130014285D01*
X121280952Y-129966666D01*
X121423809Y-129966666D01*
X121614285Y-130014285D01*
X121709523Y-130061904D01*
X121804761Y-130157142D01*
X121852380Y-130300000D01*
X121852380Y-130538095D01*
X120947619Y-129585714D02*
X120900000Y-129538095D01*
X120852380Y-129442857D01*
X120852380Y-129204761D01*
X120900000Y-129109523D01*
X120947619Y-129061904D01*
X121042857Y-129014285D01*
X121138095Y-129014285D01*
X121280952Y-129061904D01*
X121852380Y-129633333D01*
X121852380Y-129014285D01*
X120900000Y-70414285D02*
X120852380Y-70509523D01*
X120852380Y-70652380D01*
X120900000Y-70795238D01*
X120995238Y-70890476D01*
X121090476Y-70938095D01*
X121280952Y-70985714D01*
X121423809Y-70985714D01*
X121614285Y-70938095D01*
X121709523Y-70890476D01*
X121804761Y-70795238D01*
X121852380Y-70652380D01*
X121852380Y-70557142D01*
X121804761Y-70414285D01*
X121757142Y-70366666D01*
X121423809Y-70366666D01*
X121423809Y-70557142D01*
X121852380Y-69938095D02*
X120852380Y-69938095D01*
X120852380Y-69700000D01*
X120900000Y-69557142D01*
X120995238Y-69461904D01*
X121090476Y-69414285D01*
X121280952Y-69366666D01*
X121423809Y-69366666D01*
X121614285Y-69414285D01*
X121709523Y-69461904D01*
X121804761Y-69557142D01*
X121852380Y-69700000D01*
X121852380Y-69938095D01*
X121852380Y-68414285D02*
X121852380Y-68985714D01*
X121852380Y-68700000D02*
X120852380Y-68700000D01*
X120995238Y-68795238D01*
X121090476Y-68890476D01*
X121138095Y-68985714D01*
X182452380Y-78995238D02*
X181976190Y-79328571D01*
X182452380Y-79566666D02*
X181452380Y-79566666D01*
X181452380Y-79185714D01*
X181500000Y-79090476D01*
X181547619Y-79042857D01*
X181642857Y-78995238D01*
X181785714Y-78995238D01*
X181880952Y-79042857D01*
X181928571Y-79090476D01*
X181976190Y-79185714D01*
X181976190Y-79566666D01*
X181452380Y-78709523D02*
X182452380Y-78376190D01*
X181452380Y-78042857D01*
X181452380Y-77233333D02*
X181452380Y-77709523D01*
X181928571Y-77757142D01*
X181880952Y-77709523D01*
X181833333Y-77614285D01*
X181833333Y-77376190D01*
X181880952Y-77280952D01*
X181928571Y-77233333D01*
X182023809Y-77185714D01*
X182261904Y-77185714D01*
X182357142Y-77233333D01*
X182404761Y-77280952D01*
X182452380Y-77376190D01*
X182452380Y-77614285D01*
X182404761Y-77709523D01*
X182357142Y-77757142D01*
D13*
X197180952Y-69444642D02*
X196990476Y-69577976D01*
X197180952Y-69673214D02*
X196780952Y-69673214D01*
X196780952Y-69520833D01*
X196800000Y-69482738D01*
X196819047Y-69463690D01*
X196857142Y-69444642D01*
X196914285Y-69444642D01*
X196952380Y-69463690D01*
X196971428Y-69482738D01*
X196990476Y-69520833D01*
X196990476Y-69673214D01*
X197180952Y-69063690D02*
X197180952Y-69292261D01*
X197180952Y-69177976D02*
X196780952Y-69177976D01*
X196838095Y-69216071D01*
X196876190Y-69254166D01*
X196895238Y-69292261D01*
X197180952Y-68873214D02*
X197180952Y-68797023D01*
X197161904Y-68758928D01*
X197142857Y-68739880D01*
X197085714Y-68701785D01*
X197009523Y-68682738D01*
X196857142Y-68682738D01*
X196819047Y-68701785D01*
X196800000Y-68720833D01*
X196780952Y-68758928D01*
X196780952Y-68835119D01*
X196800000Y-68873214D01*
X196819047Y-68892261D01*
X196857142Y-68911309D01*
X196952380Y-68911309D01*
X196990476Y-68892261D01*
X197009523Y-68873214D01*
X197028571Y-68835119D01*
X197028571Y-68758928D01*
X197009523Y-68720833D01*
X196990476Y-68701785D01*
X196952380Y-68682738D01*
X199080952Y-69457142D02*
X198890476Y-69590476D01*
X199080952Y-69685714D02*
X198680952Y-69685714D01*
X198680952Y-69533333D01*
X198700000Y-69495238D01*
X198719047Y-69476190D01*
X198757142Y-69457142D01*
X198814285Y-69457142D01*
X198852380Y-69476190D01*
X198871428Y-69495238D01*
X198890476Y-69533333D01*
X198890476Y-69685714D01*
X199080952Y-69076190D02*
X199080952Y-69304761D01*
X199080952Y-69190476D02*
X198680952Y-69190476D01*
X198738095Y-69228571D01*
X198776190Y-69266666D01*
X198795238Y-69304761D01*
X198852380Y-68847619D02*
X198833333Y-68885714D01*
X198814285Y-68904761D01*
X198776190Y-68923809D01*
X198757142Y-68923809D01*
X198719047Y-68904761D01*
X198700000Y-68885714D01*
X198680952Y-68847619D01*
X198680952Y-68771428D01*
X198700000Y-68733333D01*
X198719047Y-68714285D01*
X198757142Y-68695238D01*
X198776190Y-68695238D01*
X198814285Y-68714285D01*
X198833333Y-68733333D01*
X198852380Y-68771428D01*
X198852380Y-68847619D01*
X198871428Y-68885714D01*
X198890476Y-68904761D01*
X198928571Y-68923809D01*
X199004761Y-68923809D01*
X199042857Y-68904761D01*
X199061904Y-68885714D01*
X199080952Y-68847619D01*
X199080952Y-68771428D01*
X199061904Y-68733333D01*
X199042857Y-68714285D01*
X199004761Y-68695238D01*
X198928571Y-68695238D01*
X198890476Y-68714285D01*
X198871428Y-68733333D01*
X198852380Y-68771428D01*
D12*
X202352380Y-82833333D02*
X203066666Y-82833333D01*
X203209523Y-82880952D01*
X203304761Y-82976190D01*
X203352380Y-83119047D01*
X203352380Y-83214285D01*
X203352380Y-81833333D02*
X203352380Y-82404761D01*
X203352380Y-82119047D02*
X202352380Y-82119047D01*
X202495238Y-82214285D01*
X202590476Y-82309523D01*
X202638095Y-82404761D01*
X183328333Y-114428333D02*
X183328333Y-115221666D01*
X183375000Y-115315000D01*
X183421666Y-115361666D01*
X183515000Y-115408333D01*
X183701666Y-115408333D01*
X183795000Y-115361666D01*
X183841666Y-115315000D01*
X183888333Y-115221666D01*
X183888333Y-114428333D01*
X184261666Y-114428333D02*
X184915000Y-114428333D01*
X184495000Y-115408333D01*
X154463333Y-91846666D02*
X155256666Y-91846666D01*
X155350000Y-91800000D01*
X155396666Y-91753333D01*
X155443333Y-91660000D01*
X155443333Y-91473333D01*
X155396666Y-91380000D01*
X155350000Y-91333333D01*
X155256666Y-91286666D01*
X154463333Y-91286666D01*
X154556666Y-90866666D02*
X154510000Y-90820000D01*
X154463333Y-90726666D01*
X154463333Y-90493333D01*
X154510000Y-90400000D01*
X154556666Y-90353333D01*
X154650000Y-90306666D01*
X154743333Y-90306666D01*
X154883333Y-90353333D01*
X155443333Y-90913333D01*
X155443333Y-90306666D01*
X129437380Y-101230238D02*
X128961190Y-101563571D01*
X129437380Y-101801666D02*
X128437380Y-101801666D01*
X128437380Y-101420714D01*
X128485000Y-101325476D01*
X128532619Y-101277857D01*
X128627857Y-101230238D01*
X128770714Y-101230238D01*
X128865952Y-101277857D01*
X128913571Y-101325476D01*
X128961190Y-101420714D01*
X128961190Y-101801666D01*
X128437380Y-100944523D02*
X129437380Y-100611190D01*
X128437380Y-100277857D01*
X129437380Y-99420714D02*
X129437380Y-99992142D01*
X129437380Y-99706428D02*
X128437380Y-99706428D01*
X128580238Y-99801666D01*
X128675476Y-99896904D01*
X128723095Y-99992142D01*
D13*
X190480952Y-115457142D02*
X190290476Y-115590476D01*
X190480952Y-115685714D02*
X190080952Y-115685714D01*
X190080952Y-115533333D01*
X190100000Y-115495238D01*
X190119047Y-115476190D01*
X190157142Y-115457142D01*
X190214285Y-115457142D01*
X190252380Y-115476190D01*
X190271428Y-115495238D01*
X190290476Y-115533333D01*
X190290476Y-115685714D01*
X190080952Y-115323809D02*
X190080952Y-115076190D01*
X190233333Y-115209523D01*
X190233333Y-115152380D01*
X190252380Y-115114285D01*
X190271428Y-115095238D01*
X190309523Y-115076190D01*
X190404761Y-115076190D01*
X190442857Y-115095238D01*
X190461904Y-115114285D01*
X190480952Y-115152380D01*
X190480952Y-115266666D01*
X190461904Y-115304761D01*
X190442857Y-115323809D01*
X190119047Y-114923809D02*
X190100000Y-114904761D01*
X190080952Y-114866666D01*
X190080952Y-114771428D01*
X190100000Y-114733333D01*
X190119047Y-114714285D01*
X190157142Y-114695238D01*
X190195238Y-114695238D01*
X190252380Y-114714285D01*
X190480952Y-114942857D01*
X190480952Y-114695238D01*
X163842857Y-110480952D02*
X163709523Y-110290476D01*
X163614285Y-110480952D02*
X163614285Y-110080952D01*
X163766666Y-110080952D01*
X163804761Y-110100000D01*
X163823809Y-110119047D01*
X163842857Y-110157142D01*
X163842857Y-110214285D01*
X163823809Y-110252380D01*
X163804761Y-110271428D01*
X163766666Y-110290476D01*
X163614285Y-110290476D01*
X163976190Y-110080952D02*
X164223809Y-110080952D01*
X164090476Y-110233333D01*
X164147619Y-110233333D01*
X164185714Y-110252380D01*
X164204761Y-110271428D01*
X164223809Y-110309523D01*
X164223809Y-110404761D01*
X164204761Y-110442857D01*
X164185714Y-110461904D01*
X164147619Y-110480952D01*
X164033333Y-110480952D01*
X163995238Y-110461904D01*
X163976190Y-110442857D01*
X164604761Y-110480952D02*
X164376190Y-110480952D01*
X164490476Y-110480952D02*
X164490476Y-110080952D01*
X164452380Y-110138095D01*
X164414285Y-110176190D01*
X164376190Y-110195238D01*
X147342857Y-126680952D02*
X147209523Y-126490476D01*
X147114285Y-126680952D02*
X147114285Y-126280952D01*
X147266666Y-126280952D01*
X147304761Y-126300000D01*
X147323809Y-126319047D01*
X147342857Y-126357142D01*
X147342857Y-126414285D01*
X147323809Y-126452380D01*
X147304761Y-126471428D01*
X147266666Y-126490476D01*
X147114285Y-126490476D01*
X147476190Y-126280952D02*
X147723809Y-126280952D01*
X147590476Y-126433333D01*
X147647619Y-126433333D01*
X147685714Y-126452380D01*
X147704761Y-126471428D01*
X147723809Y-126509523D01*
X147723809Y-126604761D01*
X147704761Y-126642857D01*
X147685714Y-126661904D01*
X147647619Y-126680952D01*
X147533333Y-126680952D01*
X147495238Y-126661904D01*
X147476190Y-126642857D01*
X147971428Y-126280952D02*
X148009523Y-126280952D01*
X148047619Y-126300000D01*
X148066666Y-126319047D01*
X148085714Y-126357142D01*
X148104761Y-126433333D01*
X148104761Y-126528571D01*
X148085714Y-126604761D01*
X148066666Y-126642857D01*
X148047619Y-126661904D01*
X148009523Y-126680952D01*
X147971428Y-126680952D01*
X147933333Y-126661904D01*
X147914285Y-126642857D01*
X147895238Y-126604761D01*
X147876190Y-126528571D01*
X147876190Y-126433333D01*
X147895238Y-126357142D01*
X147914285Y-126319047D01*
X147933333Y-126300000D01*
X147971428Y-126280952D01*
X105833333Y-98380952D02*
X105700000Y-98190476D01*
X105604761Y-98380952D02*
X105604761Y-97980952D01*
X105757142Y-97980952D01*
X105795238Y-98000000D01*
X105814285Y-98019047D01*
X105833333Y-98057142D01*
X105833333Y-98114285D01*
X105814285Y-98152380D01*
X105795238Y-98171428D01*
X105757142Y-98190476D01*
X105604761Y-98190476D01*
X106023809Y-98380952D02*
X106100000Y-98380952D01*
X106138095Y-98361904D01*
X106157142Y-98342857D01*
X106195238Y-98285714D01*
X106214285Y-98209523D01*
X106214285Y-98057142D01*
X106195238Y-98019047D01*
X106176190Y-98000000D01*
X106138095Y-97980952D01*
X106061904Y-97980952D01*
X106023809Y-98000000D01*
X106004761Y-98019047D01*
X105985714Y-98057142D01*
X105985714Y-98152380D01*
X106004761Y-98190476D01*
X106023809Y-98209523D01*
X106061904Y-98228571D01*
X106138095Y-98228571D01*
X106176190Y-98209523D01*
X106195238Y-98190476D01*
X106214285Y-98152380D01*
D11*
X118861904Y-115133333D02*
X118480952Y-115400000D01*
X118861904Y-115590476D02*
X118061904Y-115590476D01*
X118061904Y-115285714D01*
X118100000Y-115209523D01*
X118138095Y-115171428D01*
X118214285Y-115133333D01*
X118328571Y-115133333D01*
X118404761Y-115171428D01*
X118442857Y-115209523D01*
X118480952Y-115285714D01*
X118480952Y-115590476D01*
X118061904Y-114447619D02*
X118061904Y-114600000D01*
X118100000Y-114676190D01*
X118138095Y-114714285D01*
X118252380Y-114790476D01*
X118404761Y-114828571D01*
X118709523Y-114828571D01*
X118785714Y-114790476D01*
X118823809Y-114752380D01*
X118861904Y-114676190D01*
X118861904Y-114523809D01*
X118823809Y-114447619D01*
X118785714Y-114409523D01*
X118709523Y-114371428D01*
X118519047Y-114371428D01*
X118442857Y-114409523D01*
X118404761Y-114447619D01*
X118366666Y-114523809D01*
X118366666Y-114676190D01*
X118404761Y-114752380D01*
X118442857Y-114790476D01*
X118519047Y-114828571D01*
D13*
X121580952Y-122966666D02*
X121390476Y-123100000D01*
X121580952Y-123195238D02*
X121180952Y-123195238D01*
X121180952Y-123042857D01*
X121200000Y-123004761D01*
X121219047Y-122985714D01*
X121257142Y-122966666D01*
X121314285Y-122966666D01*
X121352380Y-122985714D01*
X121371428Y-123004761D01*
X121390476Y-123042857D01*
X121390476Y-123195238D01*
X121180952Y-122604761D02*
X121180952Y-122795238D01*
X121371428Y-122814285D01*
X121352380Y-122795238D01*
X121333333Y-122757142D01*
X121333333Y-122661904D01*
X121352380Y-122623809D01*
X121371428Y-122604761D01*
X121409523Y-122585714D01*
X121504761Y-122585714D01*
X121542857Y-122604761D01*
X121561904Y-122623809D01*
X121580952Y-122661904D01*
X121580952Y-122757142D01*
X121561904Y-122795238D01*
X121542857Y-122814285D01*
X121580952Y-77154166D02*
X121390476Y-77287500D01*
X121580952Y-77382738D02*
X121180952Y-77382738D01*
X121180952Y-77230357D01*
X121200000Y-77192261D01*
X121219047Y-77173214D01*
X121257142Y-77154166D01*
X121314285Y-77154166D01*
X121352380Y-77173214D01*
X121371428Y-77192261D01*
X121390476Y-77230357D01*
X121390476Y-77382738D01*
X121314285Y-76811309D02*
X121580952Y-76811309D01*
X121161904Y-76906547D02*
X121447619Y-77001785D01*
X121447619Y-76754166D01*
D11*
X118861904Y-85133333D02*
X118480952Y-85400000D01*
X118861904Y-85590476D02*
X118061904Y-85590476D01*
X118061904Y-85285714D01*
X118100000Y-85209523D01*
X118138095Y-85171428D01*
X118214285Y-85133333D01*
X118328571Y-85133333D01*
X118404761Y-85171428D01*
X118442857Y-85209523D01*
X118480952Y-85285714D01*
X118480952Y-85590476D01*
X118861904Y-84371428D02*
X118861904Y-84828571D01*
X118861904Y-84600000D02*
X118061904Y-84600000D01*
X118176190Y-84676190D01*
X118252380Y-84752380D01*
X118290476Y-84828571D01*
D15*
X196764285Y-74166666D02*
X196764285Y-74333333D01*
X197026190Y-74333333D02*
X196526190Y-74333333D01*
X196526190Y-74095238D01*
X196692857Y-73690476D02*
X197026190Y-73690476D01*
X196502380Y-73809523D02*
X196859523Y-73928571D01*
X196859523Y-73619047D01*
D13*
X183792857Y-111442857D02*
X183773809Y-111461904D01*
X183716666Y-111480952D01*
X183678571Y-111480952D01*
X183621428Y-111461904D01*
X183583333Y-111423809D01*
X183564285Y-111385714D01*
X183545238Y-111309523D01*
X183545238Y-111252380D01*
X183564285Y-111176190D01*
X183583333Y-111138095D01*
X183621428Y-111100000D01*
X183678571Y-111080952D01*
X183716666Y-111080952D01*
X183773809Y-111100000D01*
X183792857Y-111119047D01*
X184135714Y-111214285D02*
X184135714Y-111480952D01*
X184040476Y-111061904D02*
X183945238Y-111347619D01*
X184192857Y-111347619D01*
X184421428Y-111080952D02*
X184459523Y-111080952D01*
X184497619Y-111100000D01*
X184516666Y-111119047D01*
X184535714Y-111157142D01*
X184554761Y-111233333D01*
X184554761Y-111328571D01*
X184535714Y-111404761D01*
X184516666Y-111442857D01*
X184497619Y-111461904D01*
X184459523Y-111480952D01*
X184421428Y-111480952D01*
X184383333Y-111461904D01*
X184364285Y-111442857D01*
X184345238Y-111404761D01*
X184326190Y-111328571D01*
X184326190Y-111233333D01*
X184345238Y-111157142D01*
X184364285Y-111119047D01*
X184383333Y-111100000D01*
X184421428Y-111080952D01*
D16*
X119816666Y-110178571D02*
X119792857Y-110202380D01*
X119721428Y-110226190D01*
X119673809Y-110226190D01*
X119602380Y-110202380D01*
X119554761Y-110154761D01*
X119530952Y-110107142D01*
X119507142Y-110011904D01*
X119507142Y-109940476D01*
X119530952Y-109845238D01*
X119554761Y-109797619D01*
X119602380Y-109750000D01*
X119673809Y-109726190D01*
X119721428Y-109726190D01*
X119792857Y-109750000D01*
X119816666Y-109773809D01*
X120245238Y-109726190D02*
X120150000Y-109726190D01*
X120102380Y-109750000D01*
X120078571Y-109773809D01*
X120030952Y-109845238D01*
X120007142Y-109940476D01*
X120007142Y-110130952D01*
X120030952Y-110178571D01*
X120054761Y-110202380D01*
X120102380Y-110226190D01*
X120197619Y-110226190D01*
X120245238Y-110202380D01*
X120269047Y-110178571D01*
X120292857Y-110130952D01*
X120292857Y-110011904D01*
X120269047Y-109964285D01*
X120245238Y-109940476D01*
X120197619Y-109916666D01*
X120102380Y-109916666D01*
X120054761Y-109940476D01*
X120030952Y-109964285D01*
X120007142Y-110011904D01*
X119816666Y-90178571D02*
X119792857Y-90202380D01*
X119721428Y-90226190D01*
X119673809Y-90226190D01*
X119602380Y-90202380D01*
X119554761Y-90154761D01*
X119530952Y-90107142D01*
X119507142Y-90011904D01*
X119507142Y-89940476D01*
X119530952Y-89845238D01*
X119554761Y-89797619D01*
X119602380Y-89750000D01*
X119673809Y-89726190D01*
X119721428Y-89726190D01*
X119792857Y-89750000D01*
X119816666Y-89773809D01*
X120269047Y-89726190D02*
X120030952Y-89726190D01*
X120007142Y-89964285D01*
X120030952Y-89940476D01*
X120078571Y-89916666D01*
X120197619Y-89916666D01*
X120245238Y-89940476D01*
X120269047Y-89964285D01*
X120292857Y-90011904D01*
X120292857Y-90130952D01*
X120269047Y-90178571D01*
X120245238Y-90202380D01*
X120197619Y-90226190D01*
X120078571Y-90226190D01*
X120030952Y-90202380D01*
X120007142Y-90178571D01*
D12*
X153653333Y-99463333D02*
X153653333Y-100256666D01*
X153700000Y-100350000D01*
X153746666Y-100396666D01*
X153840000Y-100443333D01*
X154026666Y-100443333D01*
X154120000Y-100396666D01*
X154166666Y-100350000D01*
X154213333Y-100256666D01*
X154213333Y-99463333D01*
X155193333Y-100443333D02*
X154633333Y-100443333D01*
X154913333Y-100443333D02*
X154913333Y-99463333D01*
X154820000Y-99603333D01*
X154726666Y-99696666D01*
X154633333Y-99743333D01*
D13*
X142642857Y-68980952D02*
X142509523Y-68790476D01*
X142414285Y-68980952D02*
X142414285Y-68580952D01*
X142566666Y-68580952D01*
X142604761Y-68600000D01*
X142623809Y-68619047D01*
X142642857Y-68657142D01*
X142642857Y-68714285D01*
X142623809Y-68752380D01*
X142604761Y-68771428D01*
X142566666Y-68790476D01*
X142414285Y-68790476D01*
X142795238Y-68619047D02*
X142814285Y-68600000D01*
X142852380Y-68580952D01*
X142947619Y-68580952D01*
X142985714Y-68600000D01*
X143004761Y-68619047D01*
X143023809Y-68657142D01*
X143023809Y-68695238D01*
X143004761Y-68752380D01*
X142776190Y-68980952D01*
X143023809Y-68980952D01*
X143157142Y-68580952D02*
X143423809Y-68580952D01*
X143252380Y-68980952D01*
X188580952Y-106057142D02*
X188390476Y-106190476D01*
X188580952Y-106285714D02*
X188180952Y-106285714D01*
X188180952Y-106133333D01*
X188200000Y-106095238D01*
X188219047Y-106076190D01*
X188257142Y-106057142D01*
X188314285Y-106057142D01*
X188352380Y-106076190D01*
X188371428Y-106095238D01*
X188390476Y-106133333D01*
X188390476Y-106285714D01*
X188219047Y-105904761D02*
X188200000Y-105885714D01*
X188180952Y-105847619D01*
X188180952Y-105752380D01*
X188200000Y-105714285D01*
X188219047Y-105695238D01*
X188257142Y-105676190D01*
X188295238Y-105676190D01*
X188352380Y-105695238D01*
X188580952Y-105923809D01*
X188580952Y-105676190D01*
X188180952Y-105333333D02*
X188180952Y-105409523D01*
X188200000Y-105447619D01*
X188219047Y-105466666D01*
X188276190Y-105504761D01*
X188352380Y-105523809D01*
X188504761Y-105523809D01*
X188542857Y-105504761D01*
X188561904Y-105485714D01*
X188580952Y-105447619D01*
X188580952Y-105371428D01*
X188561904Y-105333333D01*
X188542857Y-105314285D01*
X188504761Y-105295238D01*
X188409523Y-105295238D01*
X188371428Y-105314285D01*
X188352380Y-105333333D01*
X188333333Y-105371428D01*
X188333333Y-105447619D01*
X188352380Y-105485714D01*
X188371428Y-105504761D01*
X188409523Y-105523809D01*
X188580952Y-102457142D02*
X188390476Y-102590476D01*
X188580952Y-102685714D02*
X188180952Y-102685714D01*
X188180952Y-102533333D01*
X188200000Y-102495238D01*
X188219047Y-102476190D01*
X188257142Y-102457142D01*
X188314285Y-102457142D01*
X188352380Y-102476190D01*
X188371428Y-102495238D01*
X188390476Y-102533333D01*
X188390476Y-102685714D01*
X188219047Y-102304761D02*
X188200000Y-102285714D01*
X188180952Y-102247619D01*
X188180952Y-102152380D01*
X188200000Y-102114285D01*
X188219047Y-102095238D01*
X188257142Y-102076190D01*
X188295238Y-102076190D01*
X188352380Y-102095238D01*
X188580952Y-102323809D01*
X188580952Y-102076190D01*
X188180952Y-101714285D02*
X188180952Y-101904761D01*
X188371428Y-101923809D01*
X188352380Y-101904761D01*
X188333333Y-101866666D01*
X188333333Y-101771428D01*
X188352380Y-101733333D01*
X188371428Y-101714285D01*
X188409523Y-101695238D01*
X188504761Y-101695238D01*
X188542857Y-101714285D01*
X188561904Y-101733333D01*
X188580952Y-101771428D01*
X188580952Y-101866666D01*
X188561904Y-101904761D01*
X188542857Y-101923809D01*
X188580952Y-98857142D02*
X188390476Y-98990476D01*
X188580952Y-99085714D02*
X188180952Y-99085714D01*
X188180952Y-98933333D01*
X188200000Y-98895238D01*
X188219047Y-98876190D01*
X188257142Y-98857142D01*
X188314285Y-98857142D01*
X188352380Y-98876190D01*
X188371428Y-98895238D01*
X188390476Y-98933333D01*
X188390476Y-99085714D01*
X188219047Y-98704761D02*
X188200000Y-98685714D01*
X188180952Y-98647619D01*
X188180952Y-98552380D01*
X188200000Y-98514285D01*
X188219047Y-98495238D01*
X188257142Y-98476190D01*
X188295238Y-98476190D01*
X188352380Y-98495238D01*
X188580952Y-98723809D01*
X188580952Y-98476190D01*
X188314285Y-98133333D02*
X188580952Y-98133333D01*
X188161904Y-98228571D02*
X188447619Y-98323809D01*
X188447619Y-98076190D01*
D11*
X191511904Y-120064285D02*
X191130952Y-120330952D01*
X191511904Y-120521428D02*
X190711904Y-120521428D01*
X190711904Y-120216666D01*
X190750000Y-120140476D01*
X190788095Y-120102380D01*
X190864285Y-120064285D01*
X190978571Y-120064285D01*
X191054761Y-120102380D01*
X191092857Y-120140476D01*
X191130952Y-120216666D01*
X191130952Y-120521428D01*
X191511904Y-119302380D02*
X191511904Y-119759523D01*
X191511904Y-119530952D02*
X190711904Y-119530952D01*
X190826190Y-119607142D01*
X190902380Y-119683333D01*
X190940476Y-119759523D01*
X190711904Y-118616666D02*
X190711904Y-118769047D01*
X190750000Y-118845238D01*
X190788095Y-118883333D01*
X190902380Y-118959523D01*
X191054761Y-118997619D01*
X191359523Y-118997619D01*
X191435714Y-118959523D01*
X191473809Y-118921428D01*
X191511904Y-118845238D01*
X191511904Y-118692857D01*
X191473809Y-118616666D01*
X191435714Y-118578571D01*
X191359523Y-118540476D01*
X191169047Y-118540476D01*
X191092857Y-118578571D01*
X191054761Y-118616666D01*
X191016666Y-118692857D01*
X191016666Y-118845238D01*
X191054761Y-118921428D01*
X191092857Y-118959523D01*
X191169047Y-118997619D01*
D13*
X165780952Y-79557142D02*
X165590476Y-79690476D01*
X165780952Y-79785714D02*
X165380952Y-79785714D01*
X165380952Y-79633333D01*
X165400000Y-79595238D01*
X165419047Y-79576190D01*
X165457142Y-79557142D01*
X165514285Y-79557142D01*
X165552380Y-79576190D01*
X165571428Y-79595238D01*
X165590476Y-79633333D01*
X165590476Y-79785714D01*
X165780952Y-79176190D02*
X165780952Y-79404761D01*
X165780952Y-79290476D02*
X165380952Y-79290476D01*
X165438095Y-79328571D01*
X165476190Y-79366666D01*
X165495238Y-79404761D01*
X165380952Y-78814285D02*
X165380952Y-79004761D01*
X165571428Y-79023809D01*
X165552380Y-79004761D01*
X165533333Y-78966666D01*
X165533333Y-78871428D01*
X165552380Y-78833333D01*
X165571428Y-78814285D01*
X165609523Y-78795238D01*
X165704761Y-78795238D01*
X165742857Y-78814285D01*
X165761904Y-78833333D01*
X165780952Y-78871428D01*
X165780952Y-78966666D01*
X165761904Y-79004761D01*
X165742857Y-79023809D01*
X164180952Y-79557142D02*
X163990476Y-79690476D01*
X164180952Y-79785714D02*
X163780952Y-79785714D01*
X163780952Y-79633333D01*
X163800000Y-79595238D01*
X163819047Y-79576190D01*
X163857142Y-79557142D01*
X163914285Y-79557142D01*
X163952380Y-79576190D01*
X163971428Y-79595238D01*
X163990476Y-79633333D01*
X163990476Y-79785714D01*
X164180952Y-79176190D02*
X164180952Y-79404761D01*
X164180952Y-79290476D02*
X163780952Y-79290476D01*
X163838095Y-79328571D01*
X163876190Y-79366666D01*
X163895238Y-79404761D01*
X163914285Y-78833333D02*
X164180952Y-78833333D01*
X163761904Y-78928571D02*
X164047619Y-79023809D01*
X164047619Y-78776190D01*
X159955357Y-100180952D02*
X159822023Y-99990476D01*
X159726785Y-100180952D02*
X159726785Y-99780952D01*
X159879166Y-99780952D01*
X159917261Y-99800000D01*
X159936309Y-99819047D01*
X159955357Y-99857142D01*
X159955357Y-99914285D01*
X159936309Y-99952380D01*
X159917261Y-99971428D01*
X159879166Y-99990476D01*
X159726785Y-99990476D01*
X160336309Y-100180952D02*
X160107738Y-100180952D01*
X160222023Y-100180952D02*
X160222023Y-99780952D01*
X160183928Y-99838095D01*
X160145833Y-99876190D01*
X160107738Y-99895238D01*
X160469642Y-99780952D02*
X160717261Y-99780952D01*
X160583928Y-99933333D01*
X160641071Y-99933333D01*
X160679166Y-99952380D01*
X160698214Y-99971428D01*
X160717261Y-100009523D01*
X160717261Y-100104761D01*
X160698214Y-100142857D01*
X160679166Y-100161904D01*
X160641071Y-100180952D01*
X160526785Y-100180952D01*
X160488690Y-100161904D01*
X160469642Y-100142857D01*
X145992857Y-103180952D02*
X145859523Y-102990476D01*
X145764285Y-103180952D02*
X145764285Y-102780952D01*
X145916666Y-102780952D01*
X145954761Y-102800000D01*
X145973809Y-102819047D01*
X145992857Y-102857142D01*
X145992857Y-102914285D01*
X145973809Y-102952380D01*
X145954761Y-102971428D01*
X145916666Y-102990476D01*
X145764285Y-102990476D01*
X146373809Y-103180952D02*
X146145238Y-103180952D01*
X146259523Y-103180952D02*
X146259523Y-102780952D01*
X146221428Y-102838095D01*
X146183333Y-102876190D01*
X146145238Y-102895238D01*
X146526190Y-102819047D02*
X146545238Y-102800000D01*
X146583333Y-102780952D01*
X146678571Y-102780952D01*
X146716666Y-102800000D01*
X146735714Y-102819047D01*
X146754761Y-102857142D01*
X146754761Y-102895238D01*
X146735714Y-102952380D01*
X146507142Y-103180952D01*
X146754761Y-103180952D01*
X145992857Y-97180952D02*
X145859523Y-96990476D01*
X145764285Y-97180952D02*
X145764285Y-96780952D01*
X145916666Y-96780952D01*
X145954761Y-96800000D01*
X145973809Y-96819047D01*
X145992857Y-96857142D01*
X145992857Y-96914285D01*
X145973809Y-96952380D01*
X145954761Y-96971428D01*
X145916666Y-96990476D01*
X145764285Y-96990476D01*
X146373809Y-97180952D02*
X146145238Y-97180952D01*
X146259523Y-97180952D02*
X146259523Y-96780952D01*
X146221428Y-96838095D01*
X146183333Y-96876190D01*
X146145238Y-96895238D01*
X146754761Y-97180952D02*
X146526190Y-97180952D01*
X146640476Y-97180952D02*
X146640476Y-96780952D01*
X146602380Y-96838095D01*
X146564285Y-96876190D01*
X146526190Y-96895238D01*
X124183333Y-104680952D02*
X124050000Y-104490476D01*
X123954761Y-104680952D02*
X123954761Y-104280952D01*
X124107142Y-104280952D01*
X124145238Y-104300000D01*
X124164285Y-104319047D01*
X124183333Y-104357142D01*
X124183333Y-104414285D01*
X124164285Y-104452380D01*
X124145238Y-104471428D01*
X124107142Y-104490476D01*
X123954761Y-104490476D01*
X124411904Y-104452380D02*
X124373809Y-104433333D01*
X124354761Y-104414285D01*
X124335714Y-104376190D01*
X124335714Y-104357142D01*
X124354761Y-104319047D01*
X124373809Y-104300000D01*
X124411904Y-104280952D01*
X124488095Y-104280952D01*
X124526190Y-104300000D01*
X124545238Y-104319047D01*
X124564285Y-104357142D01*
X124564285Y-104376190D01*
X124545238Y-104414285D01*
X124526190Y-104433333D01*
X124488095Y-104452380D01*
X124411904Y-104452380D01*
X124373809Y-104471428D01*
X124354761Y-104490476D01*
X124335714Y-104528571D01*
X124335714Y-104604761D01*
X124354761Y-104642857D01*
X124373809Y-104661904D01*
X124411904Y-104680952D01*
X124488095Y-104680952D01*
X124526190Y-104661904D01*
X124545238Y-104642857D01*
X124564285Y-104604761D01*
X124564285Y-104528571D01*
X124545238Y-104490476D01*
X124526190Y-104471428D01*
X124488095Y-104452380D01*
X124183333Y-95680952D02*
X124050000Y-95490476D01*
X123954761Y-95680952D02*
X123954761Y-95280952D01*
X124107142Y-95280952D01*
X124145238Y-95300000D01*
X124164285Y-95319047D01*
X124183333Y-95357142D01*
X124183333Y-95414285D01*
X124164285Y-95452380D01*
X124145238Y-95471428D01*
X124107142Y-95490476D01*
X123954761Y-95490476D01*
X124316666Y-95280952D02*
X124583333Y-95280952D01*
X124411904Y-95680952D01*
D12*
X195752380Y-117833333D02*
X196466666Y-117833333D01*
X196609523Y-117880952D01*
X196704761Y-117976190D01*
X196752380Y-118119047D01*
X196752380Y-118214285D01*
X195752380Y-116880952D02*
X195752380Y-117357142D01*
X196228571Y-117404761D01*
X196180952Y-117357142D01*
X196133333Y-117261904D01*
X196133333Y-117023809D01*
X196180952Y-116928571D01*
X196228571Y-116880952D01*
X196323809Y-116833333D01*
X196561904Y-116833333D01*
X196657142Y-116880952D01*
X196704761Y-116928571D01*
X196752380Y-117023809D01*
X196752380Y-117261904D01*
X196704761Y-117357142D01*
X196657142Y-117404761D01*
X102652380Y-113333333D02*
X103366666Y-113333333D01*
X103509523Y-113380952D01*
X103604761Y-113476190D01*
X103652380Y-113619047D01*
X103652380Y-113714285D01*
X102985714Y-112428571D02*
X103652380Y-112428571D01*
X102604761Y-112666666D02*
X103319047Y-112904761D01*
X103319047Y-112285714D01*
X102652380Y-87333333D02*
X103366666Y-87333333D01*
X103509523Y-87380952D01*
X103604761Y-87476190D01*
X103652380Y-87619047D01*
X103652380Y-87714285D01*
X102747619Y-86904761D02*
X102700000Y-86857142D01*
X102652380Y-86761904D01*
X102652380Y-86523809D01*
X102700000Y-86428571D01*
X102747619Y-86380952D01*
X102842857Y-86333333D01*
X102938095Y-86333333D01*
X103080952Y-86380952D01*
X103652380Y-86952380D01*
X103652380Y-86333333D01*
X194352380Y-83314285D02*
X193352380Y-83314285D01*
X193352380Y-83076190D01*
X193400000Y-82933333D01*
X193495238Y-82838095D01*
X193590476Y-82790476D01*
X193780952Y-82742857D01*
X193923809Y-82742857D01*
X194114285Y-82790476D01*
X194209523Y-82838095D01*
X194304761Y-82933333D01*
X194352380Y-83076190D01*
X194352380Y-83314285D01*
X194352380Y-81790476D02*
X194352380Y-82361904D01*
X194352380Y-82076190D02*
X193352380Y-82076190D01*
X193495238Y-82171428D01*
X193590476Y-82266666D01*
X193638095Y-82361904D01*
X193447619Y-81409523D02*
X193400000Y-81361904D01*
X193352380Y-81266666D01*
X193352380Y-81028571D01*
X193400000Y-80933333D01*
X193447619Y-80885714D01*
X193542857Y-80838095D01*
X193638095Y-80838095D01*
X193780952Y-80885714D01*
X194352380Y-81457142D01*
X194352380Y-80838095D01*
X187352380Y-83314285D02*
X186352380Y-83314285D01*
X186352380Y-83076190D01*
X186400000Y-82933333D01*
X186495238Y-82838095D01*
X186590476Y-82790476D01*
X186780952Y-82742857D01*
X186923809Y-82742857D01*
X187114285Y-82790476D01*
X187209523Y-82838095D01*
X187304761Y-82933333D01*
X187352380Y-83076190D01*
X187352380Y-83314285D01*
X187352380Y-81790476D02*
X187352380Y-82361904D01*
X187352380Y-82076190D02*
X186352380Y-82076190D01*
X186495238Y-82171428D01*
X186590476Y-82266666D01*
X186638095Y-82361904D01*
X187352380Y-80838095D02*
X187352380Y-81409523D01*
X187352380Y-81123809D02*
X186352380Y-81123809D01*
X186495238Y-81219047D01*
X186590476Y-81314285D01*
X186638095Y-81409523D01*
D17*
X142380952Y-100226190D02*
X142380952Y-99726190D01*
X142500000Y-99726190D01*
X142571428Y-99750000D01*
X142619047Y-99797619D01*
X142642857Y-99845238D01*
X142666666Y-99940476D01*
X142666666Y-100011904D01*
X142642857Y-100107142D01*
X142619047Y-100154761D01*
X142571428Y-100202380D01*
X142500000Y-100226190D01*
X142380952Y-100226190D01*
X142833333Y-99726190D02*
X143142857Y-99726190D01*
X142976190Y-99916666D01*
X143047619Y-99916666D01*
X143095238Y-99940476D01*
X143119047Y-99964285D01*
X143142857Y-100011904D01*
X143142857Y-100130952D01*
X143119047Y-100178571D01*
X143095238Y-100202380D01*
X143047619Y-100226190D01*
X142904761Y-100226190D01*
X142857142Y-100202380D01*
X142833333Y-100178571D01*
X142380952Y-104226190D02*
X142380952Y-103726190D01*
X142500000Y-103726190D01*
X142571428Y-103750000D01*
X142619047Y-103797619D01*
X142642857Y-103845238D01*
X142666666Y-103940476D01*
X142666666Y-104011904D01*
X142642857Y-104107142D01*
X142619047Y-104154761D01*
X142571428Y-104202380D01*
X142500000Y-104226190D01*
X142380952Y-104226190D01*
X142857142Y-103773809D02*
X142880952Y-103750000D01*
X142928571Y-103726190D01*
X143047619Y-103726190D01*
X143095238Y-103750000D01*
X143119047Y-103773809D01*
X143142857Y-103821428D01*
X143142857Y-103869047D01*
X143119047Y-103940476D01*
X142833333Y-104226190D01*
X143142857Y-104226190D01*
X142380952Y-96226190D02*
X142380952Y-95726190D01*
X142500000Y-95726190D01*
X142571428Y-95750000D01*
X142619047Y-95797619D01*
X142642857Y-95845238D01*
X142666666Y-95940476D01*
X142666666Y-96011904D01*
X142642857Y-96107142D01*
X142619047Y-96154761D01*
X142571428Y-96202380D01*
X142500000Y-96226190D01*
X142380952Y-96226190D01*
X143142857Y-96226190D02*
X142857142Y-96226190D01*
X143000000Y-96226190D02*
X143000000Y-95726190D01*
X142952380Y-95797619D01*
X142904761Y-95845238D01*
X142857142Y-95869047D01*
D13*
X194342857Y-97457142D02*
X194361904Y-97476190D01*
X194380952Y-97533333D01*
X194380952Y-97571428D01*
X194361904Y-97628571D01*
X194323809Y-97666666D01*
X194285714Y-97685714D01*
X194209523Y-97704761D01*
X194152380Y-97704761D01*
X194076190Y-97685714D01*
X194038095Y-97666666D01*
X194000000Y-97628571D01*
X193980952Y-97571428D01*
X193980952Y-97533333D01*
X194000000Y-97476190D01*
X194019047Y-97457142D01*
X193980952Y-97323809D02*
X193980952Y-97076190D01*
X194133333Y-97209523D01*
X194133333Y-97152380D01*
X194152380Y-97114285D01*
X194171428Y-97095238D01*
X194209523Y-97076190D01*
X194304761Y-97076190D01*
X194342857Y-97095238D01*
X194361904Y-97114285D01*
X194380952Y-97152380D01*
X194380952Y-97266666D01*
X194361904Y-97304761D01*
X194342857Y-97323809D01*
X193980952Y-96942857D02*
X193980952Y-96676190D01*
X194380952Y-96847619D01*
X186442857Y-68357142D02*
X186461904Y-68376190D01*
X186480952Y-68433333D01*
X186480952Y-68471428D01*
X186461904Y-68528571D01*
X186423809Y-68566666D01*
X186385714Y-68585714D01*
X186309523Y-68604761D01*
X186252380Y-68604761D01*
X186176190Y-68585714D01*
X186138095Y-68566666D01*
X186100000Y-68528571D01*
X186080952Y-68471428D01*
X186080952Y-68433333D01*
X186100000Y-68376190D01*
X186119047Y-68357142D01*
X186080952Y-68223809D02*
X186080952Y-67976190D01*
X186233333Y-68109523D01*
X186233333Y-68052380D01*
X186252380Y-68014285D01*
X186271428Y-67995238D01*
X186309523Y-67976190D01*
X186404761Y-67976190D01*
X186442857Y-67995238D01*
X186461904Y-68014285D01*
X186480952Y-68052380D01*
X186480952Y-68166666D01*
X186461904Y-68204761D01*
X186442857Y-68223809D01*
X186480952Y-67595238D02*
X186480952Y-67823809D01*
X186480952Y-67709523D02*
X186080952Y-67709523D01*
X186138095Y-67747619D01*
X186176190Y-67785714D01*
X186195238Y-67823809D01*
X186442857Y-72257142D02*
X186461904Y-72276190D01*
X186480952Y-72333333D01*
X186480952Y-72371428D01*
X186461904Y-72428571D01*
X186423809Y-72466666D01*
X186385714Y-72485714D01*
X186309523Y-72504761D01*
X186252380Y-72504761D01*
X186176190Y-72485714D01*
X186138095Y-72466666D01*
X186100000Y-72428571D01*
X186080952Y-72371428D01*
X186080952Y-72333333D01*
X186100000Y-72276190D01*
X186119047Y-72257142D01*
X186080952Y-72123809D02*
X186080952Y-71876190D01*
X186233333Y-72009523D01*
X186233333Y-71952380D01*
X186252380Y-71914285D01*
X186271428Y-71895238D01*
X186309523Y-71876190D01*
X186404761Y-71876190D01*
X186442857Y-71895238D01*
X186461904Y-71914285D01*
X186480952Y-71952380D01*
X186480952Y-72066666D01*
X186461904Y-72104761D01*
X186442857Y-72123809D01*
X186080952Y-71628571D02*
X186080952Y-71590476D01*
X186100000Y-71552380D01*
X186119047Y-71533333D01*
X186157142Y-71514285D01*
X186233333Y-71495238D01*
X186328571Y-71495238D01*
X186404761Y-71514285D01*
X186442857Y-71533333D01*
X186461904Y-71552380D01*
X186480952Y-71590476D01*
X186480952Y-71628571D01*
X186461904Y-71666666D01*
X186442857Y-71685714D01*
X186404761Y-71704761D01*
X186328571Y-71723809D01*
X186233333Y-71723809D01*
X186157142Y-71704761D01*
X186119047Y-71685714D01*
X186100000Y-71666666D01*
X186080952Y-71628571D01*
X189142857Y-74542857D02*
X189123809Y-74561904D01*
X189066666Y-74580952D01*
X189028571Y-74580952D01*
X188971428Y-74561904D01*
X188933333Y-74523809D01*
X188914285Y-74485714D01*
X188895238Y-74409523D01*
X188895238Y-74352380D01*
X188914285Y-74276190D01*
X188933333Y-74238095D01*
X188971428Y-74200000D01*
X189028571Y-74180952D01*
X189066666Y-74180952D01*
X189123809Y-74200000D01*
X189142857Y-74219047D01*
X189295238Y-74219047D02*
X189314285Y-74200000D01*
X189352380Y-74180952D01*
X189447619Y-74180952D01*
X189485714Y-74200000D01*
X189504761Y-74219047D01*
X189523809Y-74257142D01*
X189523809Y-74295238D01*
X189504761Y-74352380D01*
X189276190Y-74580952D01*
X189523809Y-74580952D01*
X189657142Y-74180952D02*
X189923809Y-74180952D01*
X189752380Y-74580952D01*
X179542857Y-110357142D02*
X179561904Y-110376190D01*
X179580952Y-110433333D01*
X179580952Y-110471428D01*
X179561904Y-110528571D01*
X179523809Y-110566666D01*
X179485714Y-110585714D01*
X179409523Y-110604761D01*
X179352380Y-110604761D01*
X179276190Y-110585714D01*
X179238095Y-110566666D01*
X179200000Y-110528571D01*
X179180952Y-110471428D01*
X179180952Y-110433333D01*
X179200000Y-110376190D01*
X179219047Y-110357142D01*
X179219047Y-110204761D02*
X179200000Y-110185714D01*
X179180952Y-110147619D01*
X179180952Y-110052380D01*
X179200000Y-110014285D01*
X179219047Y-109995238D01*
X179257142Y-109976190D01*
X179295238Y-109976190D01*
X179352380Y-109995238D01*
X179580952Y-110223809D01*
X179580952Y-109976190D01*
X179180952Y-109728571D02*
X179180952Y-109690476D01*
X179200000Y-109652380D01*
X179219047Y-109633333D01*
X179257142Y-109614285D01*
X179333333Y-109595238D01*
X179428571Y-109595238D01*
X179504761Y-109614285D01*
X179542857Y-109633333D01*
X179561904Y-109652380D01*
X179580952Y-109690476D01*
X179580952Y-109728571D01*
X179561904Y-109766666D01*
X179542857Y-109785714D01*
X179504761Y-109804761D01*
X179428571Y-109823809D01*
X179333333Y-109823809D01*
X179257142Y-109804761D01*
X179219047Y-109785714D01*
X179200000Y-109766666D01*
X179180952Y-109728571D01*
X152867858Y-86642857D02*
X152848810Y-86661904D01*
X152791667Y-86680952D01*
X152753572Y-86680952D01*
X152696429Y-86661904D01*
X152658334Y-86623809D01*
X152639286Y-86585714D01*
X152620239Y-86509523D01*
X152620239Y-86452380D01*
X152639286Y-86376190D01*
X152658334Y-86338095D01*
X152696429Y-86300000D01*
X152753572Y-86280952D01*
X152791667Y-86280952D01*
X152848810Y-86300000D01*
X152867858Y-86319047D01*
X153248810Y-86680952D02*
X153020239Y-86680952D01*
X153134524Y-86680952D02*
X153134524Y-86280952D01*
X153096429Y-86338095D01*
X153058334Y-86376190D01*
X153020239Y-86395238D01*
X153439286Y-86680952D02*
X153515477Y-86680952D01*
X153553572Y-86661904D01*
X153572620Y-86642857D01*
X153610715Y-86585714D01*
X153629762Y-86509523D01*
X153629762Y-86357142D01*
X153610715Y-86319047D01*
X153591667Y-86300000D01*
X153553572Y-86280952D01*
X153477381Y-86280952D01*
X153439286Y-86300000D01*
X153420239Y-86319047D01*
X153401191Y-86357142D01*
X153401191Y-86452380D01*
X153420239Y-86490476D01*
X153439286Y-86509523D01*
X153477381Y-86528571D01*
X153553572Y-86528571D01*
X153591667Y-86509523D01*
X153610715Y-86490476D01*
X153629762Y-86452380D01*
X174642857Y-107357142D02*
X174661904Y-107376190D01*
X174680952Y-107433333D01*
X174680952Y-107471428D01*
X174661904Y-107528571D01*
X174623809Y-107566666D01*
X174585714Y-107585714D01*
X174509523Y-107604761D01*
X174452380Y-107604761D01*
X174376190Y-107585714D01*
X174338095Y-107566666D01*
X174300000Y-107528571D01*
X174280952Y-107471428D01*
X174280952Y-107433333D01*
X174300000Y-107376190D01*
X174319047Y-107357142D01*
X174680952Y-106976190D02*
X174680952Y-107204761D01*
X174680952Y-107090476D02*
X174280952Y-107090476D01*
X174338095Y-107128571D01*
X174376190Y-107166666D01*
X174395238Y-107204761D01*
X174452380Y-106747619D02*
X174433333Y-106785714D01*
X174414285Y-106804761D01*
X174376190Y-106823809D01*
X174357142Y-106823809D01*
X174319047Y-106804761D01*
X174300000Y-106785714D01*
X174280952Y-106747619D01*
X174280952Y-106671428D01*
X174300000Y-106633333D01*
X174319047Y-106614285D01*
X174357142Y-106595238D01*
X174376190Y-106595238D01*
X174414285Y-106614285D01*
X174433333Y-106633333D01*
X174452380Y-106671428D01*
X174452380Y-106747619D01*
X174471428Y-106785714D01*
X174490476Y-106804761D01*
X174528571Y-106823809D01*
X174604761Y-106823809D01*
X174642857Y-106804761D01*
X174661904Y-106785714D01*
X174680952Y-106747619D01*
X174680952Y-106671428D01*
X174661904Y-106633333D01*
X174642857Y-106614285D01*
X174604761Y-106595238D01*
X174528571Y-106595238D01*
X174490476Y-106614285D01*
X174471428Y-106633333D01*
X174452380Y-106671428D01*
X147142857Y-100257142D02*
X147161904Y-100276190D01*
X147180952Y-100333333D01*
X147180952Y-100371428D01*
X147161904Y-100428571D01*
X147123809Y-100466666D01*
X147085714Y-100485714D01*
X147009523Y-100504761D01*
X146952380Y-100504761D01*
X146876190Y-100485714D01*
X146838095Y-100466666D01*
X146800000Y-100428571D01*
X146780952Y-100371428D01*
X146780952Y-100333333D01*
X146800000Y-100276190D01*
X146819047Y-100257142D01*
X147180952Y-99876190D02*
X147180952Y-100104761D01*
X147180952Y-99990476D02*
X146780952Y-99990476D01*
X146838095Y-100028571D01*
X146876190Y-100066666D01*
X146895238Y-100104761D01*
X146780952Y-99742857D02*
X146780952Y-99495238D01*
X146933333Y-99628571D01*
X146933333Y-99571428D01*
X146952380Y-99533333D01*
X146971428Y-99514285D01*
X147009523Y-99495238D01*
X147104761Y-99495238D01*
X147142857Y-99514285D01*
X147161904Y-99533333D01*
X147180952Y-99571428D01*
X147180952Y-99685714D01*
X147161904Y-99723809D01*
X147142857Y-99742857D01*
X148942857Y-102257142D02*
X148961904Y-102276190D01*
X148980952Y-102333333D01*
X148980952Y-102371428D01*
X148961904Y-102428571D01*
X148923809Y-102466666D01*
X148885714Y-102485714D01*
X148809523Y-102504761D01*
X148752380Y-102504761D01*
X148676190Y-102485714D01*
X148638095Y-102466666D01*
X148600000Y-102428571D01*
X148580952Y-102371428D01*
X148580952Y-102333333D01*
X148600000Y-102276190D01*
X148619047Y-102257142D01*
X148980952Y-101876190D02*
X148980952Y-102104761D01*
X148980952Y-101990476D02*
X148580952Y-101990476D01*
X148638095Y-102028571D01*
X148676190Y-102066666D01*
X148695238Y-102104761D01*
X148619047Y-101723809D02*
X148600000Y-101704761D01*
X148580952Y-101666666D01*
X148580952Y-101571428D01*
X148600000Y-101533333D01*
X148619047Y-101514285D01*
X148657142Y-101495238D01*
X148695238Y-101495238D01*
X148752380Y-101514285D01*
X148980952Y-101742857D01*
X148980952Y-101495238D01*
X148942857Y-98257142D02*
X148961904Y-98276190D01*
X148980952Y-98333333D01*
X148980952Y-98371428D01*
X148961904Y-98428571D01*
X148923809Y-98466666D01*
X148885714Y-98485714D01*
X148809523Y-98504761D01*
X148752380Y-98504761D01*
X148676190Y-98485714D01*
X148638095Y-98466666D01*
X148600000Y-98428571D01*
X148580952Y-98371428D01*
X148580952Y-98333333D01*
X148600000Y-98276190D01*
X148619047Y-98257142D01*
X148980952Y-97876190D02*
X148980952Y-98104761D01*
X148980952Y-97990476D02*
X148580952Y-97990476D01*
X148638095Y-98028571D01*
X148676190Y-98066666D01*
X148695238Y-98104761D01*
X148980952Y-97495238D02*
X148980952Y-97723809D01*
X148980952Y-97609523D02*
X148580952Y-97609523D01*
X148638095Y-97647619D01*
X148676190Y-97685714D01*
X148695238Y-97723809D01*
X123642857Y-102007142D02*
X123661904Y-102026190D01*
X123680952Y-102083333D01*
X123680952Y-102121428D01*
X123661904Y-102178571D01*
X123623809Y-102216666D01*
X123585714Y-102235714D01*
X123509523Y-102254761D01*
X123452380Y-102254761D01*
X123376190Y-102235714D01*
X123338095Y-102216666D01*
X123300000Y-102178571D01*
X123280952Y-102121428D01*
X123280952Y-102083333D01*
X123300000Y-102026190D01*
X123319047Y-102007142D01*
X123680952Y-101626190D02*
X123680952Y-101854761D01*
X123680952Y-101740476D02*
X123280952Y-101740476D01*
X123338095Y-101778571D01*
X123376190Y-101816666D01*
X123395238Y-101854761D01*
X123280952Y-101378571D02*
X123280952Y-101340476D01*
X123300000Y-101302380D01*
X123319047Y-101283333D01*
X123357142Y-101264285D01*
X123433333Y-101245238D01*
X123528571Y-101245238D01*
X123604761Y-101264285D01*
X123642857Y-101283333D01*
X123661904Y-101302380D01*
X123680952Y-101340476D01*
X123680952Y-101378571D01*
X123661904Y-101416666D01*
X123642857Y-101435714D01*
X123604761Y-101454761D01*
X123528571Y-101473809D01*
X123433333Y-101473809D01*
X123357142Y-101454761D01*
X123319047Y-101435714D01*
X123300000Y-101416666D01*
X123280952Y-101378571D01*
X123642857Y-98316666D02*
X123661904Y-98335714D01*
X123680952Y-98392857D01*
X123680952Y-98430952D01*
X123661904Y-98488095D01*
X123623809Y-98526190D01*
X123585714Y-98545238D01*
X123509523Y-98564285D01*
X123452380Y-98564285D01*
X123376190Y-98545238D01*
X123338095Y-98526190D01*
X123300000Y-98488095D01*
X123280952Y-98430952D01*
X123280952Y-98392857D01*
X123300000Y-98335714D01*
X123319047Y-98316666D01*
X123680952Y-98126190D02*
X123680952Y-98050000D01*
X123661904Y-98011904D01*
X123642857Y-97992857D01*
X123585714Y-97954761D01*
X123509523Y-97935714D01*
X123357142Y-97935714D01*
X123319047Y-97954761D01*
X123300000Y-97973809D01*
X123280952Y-98011904D01*
X123280952Y-98088095D01*
X123300000Y-98126190D01*
X123319047Y-98145238D01*
X123357142Y-98164285D01*
X123452380Y-98164285D01*
X123490476Y-98145238D01*
X123509523Y-98126190D01*
X123528571Y-98088095D01*
X123528571Y-98011904D01*
X123509523Y-97973809D01*
X123490476Y-97954761D01*
X123452380Y-97935714D01*
D16*
X120678571Y-102833333D02*
X120702380Y-102857142D01*
X120726190Y-102928571D01*
X120726190Y-102976190D01*
X120702380Y-103047619D01*
X120654761Y-103095238D01*
X120607142Y-103119047D01*
X120511904Y-103142857D01*
X120440476Y-103142857D01*
X120345238Y-103119047D01*
X120297619Y-103095238D01*
X120250000Y-103047619D01*
X120226190Y-102976190D01*
X120226190Y-102928571D01*
X120250000Y-102857142D01*
X120273809Y-102833333D01*
X120440476Y-102547619D02*
X120416666Y-102595238D01*
X120392857Y-102619047D01*
X120345238Y-102642857D01*
X120321428Y-102642857D01*
X120273809Y-102619047D01*
X120250000Y-102595238D01*
X120226190Y-102547619D01*
X120226190Y-102452380D01*
X120250000Y-102404761D01*
X120273809Y-102380952D01*
X120321428Y-102357142D01*
X120345238Y-102357142D01*
X120392857Y-102380952D01*
X120416666Y-102404761D01*
X120440476Y-102452380D01*
X120440476Y-102547619D01*
X120464285Y-102595238D01*
X120488095Y-102619047D01*
X120535714Y-102642857D01*
X120630952Y-102642857D01*
X120678571Y-102619047D01*
X120702380Y-102595238D01*
X120726190Y-102547619D01*
X120726190Y-102452380D01*
X120702380Y-102404761D01*
X120678571Y-102380952D01*
X120630952Y-102357142D01*
X120535714Y-102357142D01*
X120488095Y-102380952D01*
X120464285Y-102404761D01*
X120440476Y-102452380D01*
X120678571Y-97333333D02*
X120702380Y-97357142D01*
X120726190Y-97428571D01*
X120726190Y-97476190D01*
X120702380Y-97547619D01*
X120654761Y-97595238D01*
X120607142Y-97619047D01*
X120511904Y-97642857D01*
X120440476Y-97642857D01*
X120345238Y-97619047D01*
X120297619Y-97595238D01*
X120250000Y-97547619D01*
X120226190Y-97476190D01*
X120226190Y-97428571D01*
X120250000Y-97357142D01*
X120273809Y-97333333D01*
X120226190Y-97166666D02*
X120226190Y-96833333D01*
X120726190Y-97047619D01*
M02*
