G04 #@! TF.GenerationSoftware,KiCad,Pcbnew,(5.1.9)-1*
G04 #@! TF.CreationDate,2021-04-25T13:37:49-05:00*
G04 #@! TF.ProjectId,high-gain-diff-probe,68696768-2d67-4616-996e-2d646966662d,rev?*
G04 #@! TF.SameCoordinates,Original*
G04 #@! TF.FileFunction,Soldermask,Bot*
G04 #@! TF.FilePolarity,Negative*
%FSLAX46Y46*%
G04 Gerber Fmt 4.6, Leading zero omitted, Abs format (unit mm)*
G04 Created by KiCad (PCBNEW (5.1.9)-1) date 2021-04-25 13:37:49*
%MOMM*%
%LPD*%
G01*
G04 APERTURE LIST*
%ADD10C,0.100000*%
%ADD11R,1.200000X0.900000*%
%ADD12R,1.800000X1.800000*%
%ADD13C,1.800000*%
%ADD14C,1.600000*%
%ADD15C,4.000000*%
%ADD16C,1.700000*%
%ADD17C,2.000000*%
%ADD18C,1.440000*%
%ADD19O,1.600000X1.600000*%
%ADD20R,2.000000X4.000000*%
%ADD21O,2.000000X3.300000*%
%ADD22O,3.500000X2.000000*%
%ADD23O,2.500000X1.600000*%
%ADD24O,7.000000X3.500000*%
G04 APERTURE END LIST*
D10*
G36*
X209500000Y-137200000D02*
G01*
X90000000Y-137200000D01*
X90000000Y-134300000D01*
X209500000Y-134300000D01*
X209500000Y-137200000D01*
G37*
X209500000Y-137200000D02*
X90000000Y-137200000D01*
X90000000Y-134300000D01*
X209500000Y-134300000D01*
X209500000Y-137200000D01*
G36*
X209500000Y-65700000D02*
G01*
X90000000Y-65700000D01*
X90000000Y-62800000D01*
X209500000Y-62800000D01*
X209500000Y-65700000D01*
G37*
X209500000Y-65700000D02*
X90000000Y-65700000D01*
X90000000Y-62800000D01*
X209500000Y-62800000D01*
X209500000Y-65700000D01*
D11*
X107900000Y-103850000D03*
X107900000Y-107150000D03*
X107900000Y-92850000D03*
X107900000Y-96150000D03*
D12*
X197400000Y-100000000D03*
D13*
X199940000Y-100000000D03*
D14*
X116500000Y-114500000D03*
X116500000Y-119500000D03*
X116500000Y-80500000D03*
X116500000Y-85500000D03*
D10*
G36*
X180375000Y-119100000D02*
G01*
X179875000Y-119850000D01*
X178875000Y-119850000D01*
X178875000Y-118350000D01*
X179875000Y-118350000D01*
X180375000Y-119100000D01*
G37*
G36*
X181325000Y-119850000D02*
G01*
X180175000Y-119850000D01*
X180675000Y-119100000D01*
X180175000Y-118350000D01*
X181325000Y-118350000D01*
X181325000Y-119850000D01*
G37*
D15*
X154000000Y-74000000D03*
X154000000Y-82800000D03*
D13*
X161000000Y-75900000D03*
X161000000Y-78400000D03*
X161000000Y-80900000D03*
D16*
X174800000Y-95200000D03*
X172800000Y-95200000D03*
X170800000Y-95200000D03*
X168800000Y-95200000D03*
X166800000Y-95200000D03*
X164800000Y-95200000D03*
D17*
X163300000Y-97800000D03*
X176400000Y-97800000D03*
X176400000Y-92600000D03*
X163300000Y-92600000D03*
D16*
X172900000Y-122000000D03*
X172900000Y-120000000D03*
X172900000Y-118000000D03*
X172900000Y-116000000D03*
X172900000Y-114000000D03*
X172900000Y-112000000D03*
D17*
X170300000Y-110500000D03*
X170300000Y-123600000D03*
X175500000Y-123600000D03*
X175500000Y-110500000D03*
G36*
G01*
X107274999Y-100400000D02*
X108525001Y-100400000D01*
G75*
G02*
X108775000Y-100649999I0J-249999D01*
G01*
X108775000Y-101450001D01*
G75*
G02*
X108525001Y-101700000I-249999J0D01*
G01*
X107274999Y-101700000D01*
G75*
G02*
X107025000Y-101450001I0J249999D01*
G01*
X107025000Y-100649999D01*
G75*
G02*
X107274999Y-100400000I249999J0D01*
G01*
G37*
G36*
G01*
X107274999Y-97300000D02*
X108525001Y-97300000D01*
G75*
G02*
X108775000Y-97549999I0J-249999D01*
G01*
X108775000Y-98350001D01*
G75*
G02*
X108525001Y-98600000I-249999J0D01*
G01*
X107274999Y-98600000D01*
G75*
G02*
X107025000Y-98350001I0J249999D01*
G01*
X107025000Y-97549999D01*
G75*
G02*
X107274999Y-97300000I249999J0D01*
G01*
G37*
G36*
G01*
X180650000Y-123862500D02*
X180650000Y-124337500D01*
G75*
G02*
X180412500Y-124575000I-237500J0D01*
G01*
X179837500Y-124575000D01*
G75*
G02*
X179600000Y-124337500I0J237500D01*
G01*
X179600000Y-123862500D01*
G75*
G02*
X179837500Y-123625000I237500J0D01*
G01*
X180412500Y-123625000D01*
G75*
G02*
X180650000Y-123862500I0J-237500D01*
G01*
G37*
G36*
G01*
X182400000Y-123862500D02*
X182400000Y-124337500D01*
G75*
G02*
X182162500Y-124575000I-237500J0D01*
G01*
X181587500Y-124575000D01*
G75*
G02*
X181350000Y-124337500I0J237500D01*
G01*
X181350000Y-123862500D01*
G75*
G02*
X181587500Y-123625000I237500J0D01*
G01*
X182162500Y-123625000D01*
G75*
G02*
X182400000Y-123862500I0J-237500D01*
G01*
G37*
G36*
G01*
X186262500Y-122450000D02*
X186737500Y-122450000D01*
G75*
G02*
X186975000Y-122687500I0J-237500D01*
G01*
X186975000Y-123262500D01*
G75*
G02*
X186737500Y-123500000I-237500J0D01*
G01*
X186262500Y-123500000D01*
G75*
G02*
X186025000Y-123262500I0J237500D01*
G01*
X186025000Y-122687500D01*
G75*
G02*
X186262500Y-122450000I237500J0D01*
G01*
G37*
G36*
G01*
X186262500Y-120700000D02*
X186737500Y-120700000D01*
G75*
G02*
X186975000Y-120937500I0J-237500D01*
G01*
X186975000Y-121512500D01*
G75*
G02*
X186737500Y-121750000I-237500J0D01*
G01*
X186262500Y-121750000D01*
G75*
G02*
X186025000Y-121512500I0J237500D01*
G01*
X186025000Y-120937500D01*
G75*
G02*
X186262500Y-120700000I237500J0D01*
G01*
G37*
G36*
G01*
X188150000Y-112862500D02*
X188150000Y-113337500D01*
G75*
G02*
X187912500Y-113575000I-237500J0D01*
G01*
X187337500Y-113575000D01*
G75*
G02*
X187100000Y-113337500I0J237500D01*
G01*
X187100000Y-112862500D01*
G75*
G02*
X187337500Y-112625000I237500J0D01*
G01*
X187912500Y-112625000D01*
G75*
G02*
X188150000Y-112862500I0J-237500D01*
G01*
G37*
G36*
G01*
X189900000Y-112862500D02*
X189900000Y-113337500D01*
G75*
G02*
X189662500Y-113575000I-237500J0D01*
G01*
X189087500Y-113575000D01*
G75*
G02*
X188850000Y-113337500I0J237500D01*
G01*
X188850000Y-112862500D01*
G75*
G02*
X189087500Y-112625000I237500J0D01*
G01*
X189662500Y-112625000D01*
G75*
G02*
X189900000Y-112862500I0J-237500D01*
G01*
G37*
G36*
G01*
X176350000Y-115362500D02*
X176350000Y-115837500D01*
G75*
G02*
X176112500Y-116075000I-237500J0D01*
G01*
X175537500Y-116075000D01*
G75*
G02*
X175300000Y-115837500I0J237500D01*
G01*
X175300000Y-115362500D01*
G75*
G02*
X175537500Y-115125000I237500J0D01*
G01*
X176112500Y-115125000D01*
G75*
G02*
X176350000Y-115362500I0J-237500D01*
G01*
G37*
G36*
G01*
X178100000Y-115362500D02*
X178100000Y-115837500D01*
G75*
G02*
X177862500Y-116075000I-237500J0D01*
G01*
X177287500Y-116075000D01*
G75*
G02*
X177050000Y-115837500I0J237500D01*
G01*
X177050000Y-115362500D01*
G75*
G02*
X177287500Y-115125000I237500J0D01*
G01*
X177862500Y-115125000D01*
G75*
G02*
X178100000Y-115362500I0J-237500D01*
G01*
G37*
G36*
G01*
X151250000Y-91337500D02*
X151250000Y-90862500D01*
G75*
G02*
X151487500Y-90625000I237500J0D01*
G01*
X152062500Y-90625000D01*
G75*
G02*
X152300000Y-90862500I0J-237500D01*
G01*
X152300000Y-91337500D01*
G75*
G02*
X152062500Y-91575000I-237500J0D01*
G01*
X151487500Y-91575000D01*
G75*
G02*
X151250000Y-91337500I0J237500D01*
G01*
G37*
G36*
G01*
X149500000Y-91337500D02*
X149500000Y-90862500D01*
G75*
G02*
X149737500Y-90625000I237500J0D01*
G01*
X150312500Y-90625000D01*
G75*
G02*
X150550000Y-90862500I0J-237500D01*
G01*
X150550000Y-91337500D01*
G75*
G02*
X150312500Y-91575000I-237500J0D01*
G01*
X149737500Y-91575000D01*
G75*
G02*
X149500000Y-91337500I0J237500D01*
G01*
G37*
G36*
G01*
X158250000Y-91337500D02*
X158250000Y-90862500D01*
G75*
G02*
X158487500Y-90625000I237500J0D01*
G01*
X159062500Y-90625000D01*
G75*
G02*
X159300000Y-90862500I0J-237500D01*
G01*
X159300000Y-91337500D01*
G75*
G02*
X159062500Y-91575000I-237500J0D01*
G01*
X158487500Y-91575000D01*
G75*
G02*
X158250000Y-91337500I0J237500D01*
G01*
G37*
G36*
G01*
X156500000Y-91337500D02*
X156500000Y-90862500D01*
G75*
G02*
X156737500Y-90625000I237500J0D01*
G01*
X157312500Y-90625000D01*
G75*
G02*
X157550000Y-90862500I0J-237500D01*
G01*
X157550000Y-91337500D01*
G75*
G02*
X157312500Y-91575000I-237500J0D01*
G01*
X156737500Y-91575000D01*
G75*
G02*
X156500000Y-91337500I0J237500D01*
G01*
G37*
D18*
X162500000Y-115580000D03*
X165040000Y-113040000D03*
X162500000Y-110500000D03*
D19*
X153500000Y-119415000D03*
X153500000Y-114585000D03*
X149391436Y-118334953D03*
X150960768Y-120494953D03*
X153500000Y-121320000D03*
X156039232Y-120494953D03*
X157608564Y-118334953D03*
X157608564Y-115665047D03*
X156039232Y-113505047D03*
X153500000Y-112680000D03*
X150960768Y-113505047D03*
X149391436Y-115665047D03*
G36*
G01*
X205762500Y-71550000D02*
X206237500Y-71550000D01*
G75*
G02*
X206475000Y-71787500I0J-237500D01*
G01*
X206475000Y-72362500D01*
G75*
G02*
X206237500Y-72600000I-237500J0D01*
G01*
X205762500Y-72600000D01*
G75*
G02*
X205525000Y-72362500I0J237500D01*
G01*
X205525000Y-71787500D01*
G75*
G02*
X205762500Y-71550000I237500J0D01*
G01*
G37*
G36*
G01*
X205762500Y-69800000D02*
X206237500Y-69800000D01*
G75*
G02*
X206475000Y-70037500I0J-237500D01*
G01*
X206475000Y-70612500D01*
G75*
G02*
X206237500Y-70850000I-237500J0D01*
G01*
X205762500Y-70850000D01*
G75*
G02*
X205525000Y-70612500I0J237500D01*
G01*
X205525000Y-70037500D01*
G75*
G02*
X205762500Y-69800000I237500J0D01*
G01*
G37*
D18*
X142000000Y-115580000D03*
X144540000Y-113040000D03*
X142000000Y-110500000D03*
D19*
X128000000Y-119415000D03*
X128000000Y-114585000D03*
X123891436Y-118334953D03*
X125460768Y-120494953D03*
X128000000Y-121320000D03*
X130539232Y-120494953D03*
X132108564Y-118334953D03*
X132108564Y-115665047D03*
X130539232Y-113505047D03*
X128000000Y-112680000D03*
X125460768Y-113505047D03*
X123891436Y-115665047D03*
D18*
X174380000Y-103500000D03*
X171840000Y-100960000D03*
X169300000Y-103500000D03*
G36*
G01*
X159037500Y-103450000D02*
X158562500Y-103450000D01*
G75*
G02*
X158325000Y-103212500I0J237500D01*
G01*
X158325000Y-102637500D01*
G75*
G02*
X158562500Y-102400000I237500J0D01*
G01*
X159037500Y-102400000D01*
G75*
G02*
X159275000Y-102637500I0J-237500D01*
G01*
X159275000Y-103212500D01*
G75*
G02*
X159037500Y-103450000I-237500J0D01*
G01*
G37*
G36*
G01*
X159037500Y-105200000D02*
X158562500Y-105200000D01*
G75*
G02*
X158325000Y-104962500I0J237500D01*
G01*
X158325000Y-104387500D01*
G75*
G02*
X158562500Y-104150000I237500J0D01*
G01*
X159037500Y-104150000D01*
G75*
G02*
X159275000Y-104387500I0J-237500D01*
G01*
X159275000Y-104962500D01*
G75*
G02*
X159037500Y-105200000I-237500J0D01*
G01*
G37*
G36*
G01*
X159037500Y-95850000D02*
X158562500Y-95850000D01*
G75*
G02*
X158325000Y-95612500I0J237500D01*
G01*
X158325000Y-95037500D01*
G75*
G02*
X158562500Y-94800000I237500J0D01*
G01*
X159037500Y-94800000D01*
G75*
G02*
X159275000Y-95037500I0J-237500D01*
G01*
X159275000Y-95612500D01*
G75*
G02*
X159037500Y-95850000I-237500J0D01*
G01*
G37*
G36*
G01*
X159037500Y-97600000D02*
X158562500Y-97600000D01*
G75*
G02*
X158325000Y-97362500I0J237500D01*
G01*
X158325000Y-96787500D01*
G75*
G02*
X158562500Y-96550000I237500J0D01*
G01*
X159037500Y-96550000D01*
G75*
G02*
X159275000Y-96787500I0J-237500D01*
G01*
X159275000Y-97362500D01*
G75*
G02*
X159037500Y-97600000I-237500J0D01*
G01*
G37*
D19*
X128000000Y-85415000D03*
X128000000Y-80585000D03*
X123891436Y-84334953D03*
X125460768Y-86494953D03*
X128000000Y-87320000D03*
X130539232Y-86494953D03*
X132108564Y-84334953D03*
X132108564Y-81665047D03*
X130539232Y-79505047D03*
X128000000Y-78680000D03*
X125460768Y-79505047D03*
X123891436Y-81665047D03*
D15*
X177000000Y-74000000D03*
X177000000Y-82800000D03*
D13*
X184000000Y-75900000D03*
X184000000Y-78400000D03*
X184000000Y-80900000D03*
D20*
X197400000Y-82500000D03*
D21*
X203400000Y-82500000D03*
D22*
X204400000Y-87000000D03*
X204400000Y-78000000D03*
D14*
X206400000Y-82500000D03*
D18*
X134710000Y-102540000D03*
X137250000Y-100000000D03*
X134710000Y-97460000D03*
D23*
X196300000Y-114960000D03*
X196300000Y-117500000D03*
D24*
X201380000Y-122580000D03*
X201380000Y-112420000D03*
D23*
X103200000Y-115540000D03*
X103200000Y-113000000D03*
D24*
X98120000Y-107920000D03*
X98120000Y-118080000D03*
D23*
X103200000Y-89540000D03*
X103200000Y-87000000D03*
D24*
X98120000Y-81920000D03*
X98120000Y-92080000D03*
G36*
G01*
X193700000Y-102662500D02*
X193700000Y-103137500D01*
G75*
G02*
X193462500Y-103375000I-237500J0D01*
G01*
X192887500Y-103375000D01*
G75*
G02*
X192650000Y-103137500I0J237500D01*
G01*
X192650000Y-102662500D01*
G75*
G02*
X192887500Y-102425000I237500J0D01*
G01*
X193462500Y-102425000D01*
G75*
G02*
X193700000Y-102662500I0J-237500D01*
G01*
G37*
G36*
G01*
X191950000Y-102662500D02*
X191950000Y-103137500D01*
G75*
G02*
X191712500Y-103375000I-237500J0D01*
G01*
X191137500Y-103375000D01*
G75*
G02*
X190900000Y-103137500I0J237500D01*
G01*
X190900000Y-102662500D01*
G75*
G02*
X191137500Y-102425000I237500J0D01*
G01*
X191712500Y-102425000D01*
G75*
G02*
X191950000Y-102662500I0J-237500D01*
G01*
G37*
G36*
G01*
X185150000Y-118762500D02*
X185150000Y-119237500D01*
G75*
G02*
X184912500Y-119475000I-237500J0D01*
G01*
X184337500Y-119475000D01*
G75*
G02*
X184100000Y-119237500I0J237500D01*
G01*
X184100000Y-118762500D01*
G75*
G02*
X184337500Y-118525000I237500J0D01*
G01*
X184912500Y-118525000D01*
G75*
G02*
X185150000Y-118762500I0J-237500D01*
G01*
G37*
G36*
G01*
X186900000Y-118762500D02*
X186900000Y-119237500D01*
G75*
G02*
X186662500Y-119475000I-237500J0D01*
G01*
X186087500Y-119475000D01*
G75*
G02*
X185850000Y-119237500I0J237500D01*
G01*
X185850000Y-118762500D01*
G75*
G02*
X186087500Y-118525000I237500J0D01*
G01*
X186662500Y-118525000D01*
G75*
G02*
X186900000Y-118762500I0J-237500D01*
G01*
G37*
G36*
G01*
X154050000Y-90862500D02*
X154050000Y-91337500D01*
G75*
G02*
X153812500Y-91575000I-237500J0D01*
G01*
X153237500Y-91575000D01*
G75*
G02*
X153000000Y-91337500I0J237500D01*
G01*
X153000000Y-90862500D01*
G75*
G02*
X153237500Y-90625000I237500J0D01*
G01*
X153812500Y-90625000D01*
G75*
G02*
X154050000Y-90862500I0J-237500D01*
G01*
G37*
G36*
G01*
X155800000Y-90862500D02*
X155800000Y-91337500D01*
G75*
G02*
X155562500Y-91575000I-237500J0D01*
G01*
X154987500Y-91575000D01*
G75*
G02*
X154750000Y-91337500I0J237500D01*
G01*
X154750000Y-90862500D01*
G75*
G02*
X154987500Y-90625000I237500J0D01*
G01*
X155562500Y-90625000D01*
G75*
G02*
X155800000Y-90862500I0J-237500D01*
G01*
G37*
G36*
G01*
X158562500Y-100350000D02*
X159037500Y-100350000D01*
G75*
G02*
X159275000Y-100587500I0J-237500D01*
G01*
X159275000Y-101162500D01*
G75*
G02*
X159037500Y-101400000I-237500J0D01*
G01*
X158562500Y-101400000D01*
G75*
G02*
X158325000Y-101162500I0J237500D01*
G01*
X158325000Y-100587500D01*
G75*
G02*
X158562500Y-100350000I237500J0D01*
G01*
G37*
G36*
G01*
X158562500Y-98600000D02*
X159037500Y-98600000D01*
G75*
G02*
X159275000Y-98837500I0J-237500D01*
G01*
X159275000Y-99412500D01*
G75*
G02*
X159037500Y-99650000I-237500J0D01*
G01*
X158562500Y-99650000D01*
G75*
G02*
X158325000Y-99412500I0J237500D01*
G01*
X158325000Y-98837500D01*
G75*
G02*
X158562500Y-98600000I237500J0D01*
G01*
G37*
M02*
