M48
; DRILL file {KiCad (5.1.9)-1} date 04/24/21 16:36:21
; FORMAT={-:-/ absolute / metric / decimal}
; #@! TF.CreationDate,2021-04-24T16:36:21-05:00
; #@! TF.GenerationSoftware,Kicad,Pcbnew,(5.1.9)-1
; #@! TF.FileFunction,Plated,1,4,PTH
FMAT,2
METRIC
T1C0.200
T2C0.450
T3C0.800
T4C0.890
T5C0.900
T6C1.000
T7C1.200
T8C2.010
%
G90
G05
T1
X181.825Y-119.565
X181.825Y-120.965
X181.825Y-122.365
X183.225Y-119.565
X183.225Y-120.965
X183.225Y-122.365
X190.8Y-69.3
X190.8Y-70.7
X190.8Y-72.1
X192.2Y-69.3
X192.2Y-70.7
X192.2Y-72.1
T2
X107.0Y-90.5
X107.0Y-109.5
X109.2Y-93.1
X109.2Y-95.9
X109.2Y-104.1
X109.2Y-106.9
X111.0Y-100.0
X114.6Y-99.2
X114.6Y-100.8
X126.4Y-100.0
X126.4Y-100.0
X128.5Y-69.5
X128.5Y-71.5
X128.5Y-73.5
X128.5Y-126.5
X128.5Y-128.5
X128.5Y-130.5
X128.6Y-100.0
X129.8Y-100.0
X131.0Y-91.3
X131.1Y-108.5
X131.2Y-100.0
X140.0Y-94.5
X140.0Y-103.0
X140.0Y-105.5
X140.0Y-97.0
X141.8Y-93.75
X141.8Y-106.25
X142.0Y-133.5
X143.7Y-93.75
X143.7Y-106.25
X144.55Y-128.05
X145.5Y-94.5
X145.5Y-105.5
X148.2Y-100.0
X148.8Y-90.0
X149.4Y-100.0
X151.0Y-85.4
X152.7Y-89.1
X153.5Y-108.0
X154.0Y-96.6
X155.1Y-103.2
X155.3Y-108.0
X156.1Y-90.9
X158.8Y-94.2
X158.8Y-98.095
X158.8Y-101.905
X158.8Y-105.8
X160.0Y-90.0
X171.2Y-103.2
X174.6Y-115.6
X176.3Y-103.2
X178.44Y-119.06
X178.6Y-115.6
X179.0Y-124.1
X179.6Y-68.1
X179.6Y-73.5
X179.6Y-77.8
X179.6Y-83.2
X182.4Y-68.1
X182.4Y-73.5
X182.4Y-77.8
X182.4Y-83.2
X183.0Y-124.1
X185.225Y-73.275
X185.225Y-67.525
X185.7Y-70.4
X186.4Y-99.7
X186.4Y-104.7
X186.5Y-120.1
X186.5Y-124.2
X186.56Y-113.06
X186.6Y-70.4
X187.0Y-77.3
X187.0Y-82.7
X187.435Y-70.065
X187.435Y-71.335
X187.5Y-74.4
X190.0Y-77.3
X190.0Y-82.7
X190.0Y-114.1
X190.5Y-113.1
X191.3Y-74.4
X191.3Y-101.9
X195.3Y-103.9
X195.8Y-68.3
X197.2Y-102.9
X205.6Y-102.9
X206.0Y-68.5
X206.0Y-69.4
X206.0Y-73.0
X206.0Y-73.9
T3
X116.5Y-80.5
X116.5Y-85.5
X116.5Y-114.5
X116.5Y-119.5
X134.71Y-97.46
X134.71Y-102.54
X137.25Y-100.0
X142.0Y-110.5
X142.0Y-115.58
X144.54Y-113.04
X162.5Y-110.5
X162.5Y-115.58
X165.04Y-113.04
X168.3Y-100.8
X170.84Y-98.26
X173.38Y-100.8
T4
X103.2Y-87.0
X103.2Y-89.54
X103.2Y-113.0
X103.2Y-115.54
X196.3Y-114.96
X196.3Y-117.5
T5
X123.891Y-81.665
X123.891Y-84.335
X123.891Y-115.665
X123.891Y-118.335
X125.461Y-79.505
X125.461Y-86.495
X125.461Y-113.505
X125.461Y-120.495
X128.0Y-78.68
X128.0Y-80.585
X128.0Y-85.415
X128.0Y-87.32
X128.0Y-112.68
X128.0Y-114.585
X128.0Y-119.415
X128.0Y-121.32
X130.539Y-79.505
X130.539Y-86.495
X130.539Y-113.505
X130.539Y-120.495
X132.109Y-81.665
X132.109Y-84.335
X132.109Y-115.665
X132.109Y-118.335
X149.391Y-115.665
X149.391Y-118.335
X150.961Y-113.505
X150.961Y-120.495
X153.5Y-112.68
X153.5Y-114.585
X153.5Y-119.415
X153.5Y-121.32
X156.039Y-113.505
X156.039Y-120.495
X157.609Y-115.665
X157.609Y-118.335
X164.0Y-92.5
X166.0Y-92.5
X168.0Y-92.5
X170.0Y-92.5
X171.0Y-112.0
X171.0Y-114.0
X171.0Y-116.0
X171.0Y-118.0
X171.0Y-120.0
X171.0Y-122.0
X172.0Y-92.5
X174.0Y-92.5
X200.8Y-100.0
X203.34Y-100.0
T6
X154.0Y-76.0
X154.0Y-78.5
X154.0Y-81.0
X162.0Y-76.0
X162.0Y-78.5
X162.0Y-81.0
T7
X162.5Y-89.9
X162.5Y-95.1
X168.4Y-110.5
X168.4Y-123.6
X173.6Y-110.5
X173.6Y-123.6
X175.6Y-89.9
X175.6Y-95.1
T8
X98.12Y-81.92
X98.12Y-92.08
X98.12Y-107.92
X98.12Y-118.08
X201.38Y-112.42
X201.38Y-122.58
T6
X196.9Y-83.5G85X196.9Y-81.5
G05
X202.9Y-83.15G85X202.9Y-81.85
G05
X203.15Y-78.0G85X204.65Y-78.0
G05
X203.15Y-87.0G85X204.65Y-87.0
G05
T0
M30
