M48
; DRILL file {KiCad (5.1.9)-1} date 04/27/21 00:06:20
; FORMAT={-:-/ absolute / metric / decimal}
; #@! TF.CreationDate,2021-04-27T00:06:20-05:00
; #@! TF.GenerationSoftware,Kicad,Pcbnew,(5.1.9)-1
; #@! TF.FileFunction,Plated,1,4,PTH
FMAT,2
METRIC
T1C0.450
T2C0.800
T3C0.890
T4C0.900
T5C1.000
T6C1.200
T7C1.300
T8C2.010
%
G90
G05
T1
X95.0Y-65.0
X95.0Y-135.0
X103.8Y-98.2
X103.8Y-101.8
X105.0Y-65.0
X105.0Y-135.0
X115.0Y-65.0
X115.0Y-135.0
X119.4Y-66.2
X119.4Y-100.0
X119.4Y-133.8
X121.4Y-66.2
X121.4Y-133.8
X121.6Y-100.0
X122.8Y-100.0
X123.4Y-66.2
X123.4Y-133.8
X124.2Y-100.0
X125.0Y-65.0
X125.0Y-135.0
X135.0Y-65.0
X135.0Y-135.0
X139.5Y-67.5
X139.5Y-68.6
X140.0Y-94.5
X140.0Y-103.0
X140.0Y-105.5
X140.0Y-97.0
X141.8Y-93.75
X141.8Y-106.25
X143.7Y-93.75
X143.7Y-106.25
X144.9Y-68.8
X145.0Y-65.0
X145.0Y-135.0
X145.5Y-94.5
X145.5Y-105.5
X148.2Y-100.0
X148.8Y-91.1
X149.4Y-100.0
X151.0Y-86.5
X151.0Y-94.1
X152.7Y-90.2
X155.0Y-65.0
X155.0Y-135.0
X155.6Y-103.4
X156.1Y-92.0
X157.7Y-104.7
X158.8Y-94.2
X158.8Y-98.095
X158.8Y-101.905
X160.0Y-91.1
X165.0Y-65.0
X165.0Y-135.0
X167.1Y-100.3
X175.0Y-65.0
X175.0Y-135.0
X177.35Y-116.7
X177.8Y-100.6
X179.99Y-119.06
X180.15Y-115.6
X180.55Y-124.1
X181.1Y-100.0
X181.1Y-89.4
X181.1Y-94.8
X181.1Y-105.4
X183.375Y-119.565
X183.375Y-120.965
X183.375Y-122.365
X183.9Y-100.0
X183.9Y-89.4
X183.9Y-94.8
X183.9Y-105.4
X184.55Y-124.1
X184.775Y-119.565
X184.775Y-120.965
X184.775Y-122.365
X185.0Y-65.0
X185.0Y-135.0
X185.225Y-72.875
X185.225Y-67.2
X185.5Y-70.065
X186.5Y-70.065
X187.435Y-70.065
X187.435Y-71.335
X187.5Y-74.4
X188.05Y-120.1
X188.05Y-124.2
X188.11Y-113.06
X188.4Y-96.6
X188.4Y-107.8
X188.9Y-79.4
X188.9Y-84.8
X189.2Y-110.1
X190.3Y-101.9
X190.3Y-113.15
X190.8Y-69.3
X190.8Y-70.7
X190.8Y-72.1
X191.3Y-74.4
X191.9Y-79.4
X191.9Y-84.8
X192.2Y-69.3
X192.2Y-70.7
X192.2Y-72.1
X194.2Y-95.1
X194.3Y-103.9
X195.0Y-65.0
X195.0Y-135.0
X195.8Y-68.3
X205.0Y-65.0
X205.0Y-135.0
X206.0Y-68.5
X206.0Y-69.4
X206.0Y-73.0
X206.0Y-73.9
T2
X127.71Y-97.46
X127.71Y-102.54
X127.8Y-70.4
X127.8Y-129.6
X130.25Y-100.0
X132.8Y-70.4
X132.8Y-129.6
X142.4Y-118.0
X142.4Y-123.08
X144.94Y-120.54
X162.9Y-113.8
X162.9Y-118.88
X165.44Y-116.34
X169.3Y-103.5
X171.84Y-100.96
X174.38Y-103.5
T3
X103.2Y-87.0
X103.2Y-89.54
X103.2Y-113.0
X103.2Y-115.54
X196.3Y-114.96
X196.3Y-117.5
T4
X96.0Y-98.76
X96.0Y-101.3
X112.6Y-82.0
X112.6Y-84.0
X112.6Y-86.0
X112.6Y-88.0
X112.6Y-90.0
X112.6Y-92.0
X112.6Y-108.0
X112.6Y-110.0
X112.6Y-112.0
X112.6Y-114.0
X112.6Y-116.0
X112.6Y-118.0
X164.8Y-95.2
X166.8Y-95.2
X168.8Y-95.2
X170.8Y-95.2
X172.8Y-95.2
X174.5Y-111.9
X174.5Y-113.9
X174.5Y-115.9
X174.5Y-117.9
X174.5Y-119.9
X174.5Y-121.9
X174.8Y-95.2
T5
X110.06Y-97.1
X110.06Y-102.9
X112.6Y-97.1
X112.6Y-102.9
X115.14Y-97.1
X115.14Y-102.9
X125.22Y-75.48
X125.22Y-78.02
X125.22Y-83.1
X125.22Y-85.64
X125.22Y-88.18
X125.22Y-90.72
X125.22Y-109.28
X125.22Y-111.82
X125.22Y-114.36
X125.22Y-116.9
X125.22Y-121.98
X125.22Y-124.52
X135.38Y-75.48
X135.38Y-78.02
X135.38Y-83.1
X135.38Y-85.64
X135.38Y-88.18
X135.38Y-90.72
X135.38Y-109.28
X135.38Y-111.82
X135.38Y-114.36
X135.38Y-116.9
X135.38Y-121.98
X135.38Y-124.52
X148.92Y-109.28
X148.92Y-111.82
X148.92Y-116.9
X148.92Y-119.44
X148.92Y-121.98
X148.92Y-124.52
X159.08Y-109.28
X159.08Y-111.82
X159.08Y-116.9
X159.08Y-119.44
X159.08Y-121.98
X159.08Y-124.52
X161.0Y-75.9
X161.0Y-78.4
X161.0Y-80.9
X184.0Y-75.9
X184.0Y-78.4
X184.0Y-80.9
T6
X110.0Y-80.5
X110.0Y-93.6
X110.0Y-106.4
X110.0Y-119.5
X115.2Y-80.5
X115.2Y-93.6
X115.2Y-106.4
X115.2Y-119.5
X163.3Y-92.6
X163.3Y-97.8
X171.9Y-110.4
X171.9Y-123.5
X176.4Y-92.6
X176.4Y-97.8
X177.1Y-110.4
X177.1Y-123.5
T7
X106.5Y-72.4
X106.5Y-127.6
X116.5Y-72.4
X116.5Y-127.6
T8
X98.12Y-81.92
X98.12Y-92.08
X98.12Y-107.92
X98.12Y-118.08
X201.38Y-112.42
X201.38Y-122.58
T5
X197.4Y-83.5G85X197.4Y-81.5
G05
X203.4Y-83.15G85X203.4Y-81.85
G05
X203.65Y-78.0G85X205.15Y-78.0
G05
X203.65Y-87.0G85X205.15Y-87.0
G05
T0
M30
