%FSLAX45Y45*%
G04 Gerber Fmt 4.5, Leading zero omitted, Abs format (unit mm)*
G04 Created by KiCad (PCBNEW (5.1.9)-1) date 2021-04-24 16:36:22*
%MOMM*%
%LPD*%
G01*
G04 APERTURE LIST*
%TA.AperFunction,Profile*%
%ADD10C,0.050000*%
%TD*%
%ADD11C,0.200000*%
%ADD12C,0.300000*%
G04 APERTURE END LIST*
D10*
X20950000Y-13725000D02*
X9000000Y-13725000D01*
X20950000Y-6275000D02*
X20950000Y-13725000D01*
X9000000Y-6275000D02*
X20950000Y-6275000D01*
X9000000Y-13725000D02*
X9000000Y-6275000D01*
D11*
X18172500Y-11946500D02*
X18192500Y-11966500D01*
X18192500Y-11946500D02*
X18172500Y-11966500D01*
X18172500Y-12086500D02*
X18192500Y-12106500D01*
X18192500Y-12086500D02*
X18172500Y-12106500D01*
X18172500Y-12226500D02*
X18192500Y-12246500D01*
X18192500Y-12226500D02*
X18172500Y-12246500D01*
X18312500Y-11946500D02*
X18332500Y-11966500D01*
X18332500Y-11946500D02*
X18312500Y-11966500D01*
X18312500Y-12086500D02*
X18332500Y-12106500D01*
X18332500Y-12086500D02*
X18312500Y-12106500D01*
X18312500Y-12226500D02*
X18332500Y-12246500D01*
X18332500Y-12226500D02*
X18312500Y-12246500D01*
X19070000Y-6920000D02*
X19090000Y-6940000D01*
X19090000Y-6920000D02*
X19070000Y-6940000D01*
X19070000Y-7060000D02*
X19090000Y-7080000D01*
X19090000Y-7060000D02*
X19070000Y-7080000D01*
X19070000Y-7200000D02*
X19090000Y-7220000D01*
X19090000Y-7200000D02*
X19070000Y-7220000D01*
X19210000Y-6920000D02*
X19230000Y-6940000D01*
X19230000Y-6920000D02*
X19210000Y-6940000D01*
X19210000Y-7060000D02*
X19230000Y-7080000D01*
X19230000Y-7060000D02*
X19210000Y-7080000D01*
X19210000Y-7200000D02*
X19230000Y-7220000D01*
X19230000Y-7200000D02*
X19210000Y-7220000D01*
X10722500Y-9050000D02*
G75*
G03*
X10722500Y-9050000I-22500J0D01*
G01*
X10722500Y-10950000D02*
G75*
G03*
X10722500Y-10950000I-22500J0D01*
G01*
X10942500Y-9310000D02*
G75*
G03*
X10942500Y-9310000I-22500J0D01*
G01*
X10942500Y-9590000D02*
G75*
G03*
X10942500Y-9590000I-22500J0D01*
G01*
X10942500Y-10410000D02*
G75*
G03*
X10942500Y-10410000I-22500J0D01*
G01*
X10942500Y-10690000D02*
G75*
G03*
X10942500Y-10690000I-22500J0D01*
G01*
X11122500Y-10000000D02*
G75*
G03*
X11122500Y-10000000I-22500J0D01*
G01*
X11482500Y-9920000D02*
G75*
G03*
X11482500Y-9920000I-22500J0D01*
G01*
X11482500Y-10080000D02*
G75*
G03*
X11482500Y-10080000I-22500J0D01*
G01*
X12662500Y-10000000D02*
G75*
G03*
X12662500Y-10000000I-22500J0D01*
G01*
X12662500Y-10000000D02*
G75*
G03*
X12662500Y-10000000I-22500J0D01*
G01*
X12872500Y-6950000D02*
G75*
G03*
X12872500Y-6950000I-22500J0D01*
G01*
X12872500Y-7150000D02*
G75*
G03*
X12872500Y-7150000I-22500J0D01*
G01*
X12872500Y-7350000D02*
G75*
G03*
X12872500Y-7350000I-22500J0D01*
G01*
X12872500Y-12650000D02*
G75*
G03*
X12872500Y-12650000I-22500J0D01*
G01*
X12872500Y-12850000D02*
G75*
G03*
X12872500Y-12850000I-22500J0D01*
G01*
X12872500Y-13050000D02*
G75*
G03*
X12872500Y-13050000I-22500J0D01*
G01*
X12882500Y-10000000D02*
G75*
G03*
X12882500Y-10000000I-22500J0D01*
G01*
X13002500Y-10000000D02*
G75*
G03*
X13002500Y-10000000I-22500J0D01*
G01*
X13122500Y-9130000D02*
G75*
G03*
X13122500Y-9130000I-22500J0D01*
G01*
X13132500Y-10850000D02*
G75*
G03*
X13132500Y-10850000I-22500J0D01*
G01*
X13142500Y-10000000D02*
G75*
G03*
X13142500Y-10000000I-22500J0D01*
G01*
X14022500Y-9450000D02*
G75*
G03*
X14022500Y-9450000I-22500J0D01*
G01*
X14022500Y-10300000D02*
G75*
G03*
X14022500Y-10300000I-22500J0D01*
G01*
X14022500Y-10550000D02*
G75*
G03*
X14022500Y-10550000I-22500J0D01*
G01*
X14022501Y-9700000D02*
G75*
G03*
X14022501Y-9700000I-22500J0D01*
G01*
X14202500Y-9375002D02*
G75*
G03*
X14202500Y-9375002I-22500J0D01*
G01*
X14202500Y-10625000D02*
G75*
G03*
X14202500Y-10625000I-22500J0D01*
G01*
X14222500Y-13350000D02*
G75*
G03*
X14222500Y-13350000I-22500J0D01*
G01*
X14392500Y-9374997D02*
G75*
G03*
X14392500Y-9374997I-22500J0D01*
G01*
X14392500Y-10625000D02*
G75*
G03*
X14392500Y-10625000I-22500J0D01*
G01*
X14477501Y-12805001D02*
G75*
G03*
X14477501Y-12805001I-22500J0D01*
G01*
X14572500Y-9450000D02*
G75*
G03*
X14572500Y-9450000I-22500J0D01*
G01*
X14572500Y-10550000D02*
G75*
G03*
X14572500Y-10550000I-22500J0D01*
G01*
X14842500Y-10000000D02*
G75*
G03*
X14842500Y-10000000I-22500J0D01*
G01*
X14902500Y-9000000D02*
G75*
G03*
X14902500Y-9000000I-22500J0D01*
G01*
X14962500Y-10000000D02*
G75*
G03*
X14962500Y-10000000I-22500J0D01*
G01*
X15122500Y-8540000D02*
G75*
G03*
X15122500Y-8540000I-22500J0D01*
G01*
X15292500Y-8910000D02*
G75*
G03*
X15292500Y-8910000I-22500J0D01*
G01*
X15372500Y-10800000D02*
G75*
G03*
X15372500Y-10800000I-22500J0D01*
G01*
X15422500Y-9660000D02*
G75*
G03*
X15422500Y-9660000I-22500J0D01*
G01*
X15532500Y-10320000D02*
G75*
G03*
X15532500Y-10320000I-22500J0D01*
G01*
X15552500Y-10800000D02*
G75*
G03*
X15552500Y-10800000I-22500J0D01*
G01*
X15632500Y-9090000D02*
G75*
G03*
X15632500Y-9090000I-22500J0D01*
G01*
X15902500Y-9420000D02*
G75*
G03*
X15902500Y-9420000I-22500J0D01*
G01*
X15902500Y-9809500D02*
G75*
G03*
X15902500Y-9809500I-22500J0D01*
G01*
X15902500Y-10190500D02*
G75*
G03*
X15902500Y-10190500I-22500J0D01*
G01*
X15902500Y-10580000D02*
G75*
G03*
X15902500Y-10580000I-22500J0D01*
G01*
X16022500Y-9000000D02*
G75*
G03*
X16022500Y-9000000I-22500J0D01*
G01*
X17142500Y-10320000D02*
G75*
G03*
X17142500Y-10320000I-22500J0D01*
G01*
X17482500Y-11560000D02*
G75*
G03*
X17482500Y-11560000I-22500J0D01*
G01*
X17652500Y-10320000D02*
G75*
G03*
X17652500Y-10320000I-22500J0D01*
G01*
X17866499Y-11906001D02*
G75*
G03*
X17866499Y-11906001I-22500J0D01*
G01*
X17882500Y-11560000D02*
G75*
G03*
X17882500Y-11560000I-22500J0D01*
G01*
X17922500Y-12410000D02*
G75*
G03*
X17922500Y-12410000I-22500J0D01*
G01*
X17982500Y-6810000D02*
G75*
G03*
X17982500Y-6810000I-22500J0D01*
G01*
X17982500Y-7350000D02*
G75*
G03*
X17982500Y-7350000I-22500J0D01*
G01*
X17982500Y-7780000D02*
G75*
G03*
X17982500Y-7780000I-22500J0D01*
G01*
X17982500Y-8320000D02*
G75*
G03*
X17982500Y-8320000I-22500J0D01*
G01*
X18262500Y-6810000D02*
G75*
G03*
X18262500Y-6810000I-22500J0D01*
G01*
X18262500Y-7350000D02*
G75*
G03*
X18262500Y-7350000I-22500J0D01*
G01*
X18262500Y-7780000D02*
G75*
G03*
X18262500Y-7780000I-22500J0D01*
G01*
X18262500Y-8320000D02*
G75*
G03*
X18262500Y-8320000I-22500J0D01*
G01*
X18322500Y-12410000D02*
G75*
G03*
X18322500Y-12410000I-22500J0D01*
G01*
X18544998Y-7327500D02*
G75*
G03*
X18544998Y-7327500I-22500J0D01*
G01*
X18544999Y-6752499D02*
G75*
G03*
X18544999Y-6752499I-22500J0D01*
G01*
X18592500Y-7040000D02*
G75*
G03*
X18592500Y-7040000I-22500J0D01*
G01*
X18662500Y-9970000D02*
G75*
G03*
X18662500Y-9970000I-22500J0D01*
G01*
X18662500Y-10470000D02*
G75*
G03*
X18662500Y-10470000I-22500J0D01*
G01*
X18672500Y-12010000D02*
G75*
G03*
X18672500Y-12010000I-22500J0D01*
G01*
X18672500Y-12420000D02*
G75*
G03*
X18672500Y-12420000I-22500J0D01*
G01*
X18678500Y-11306000D02*
G75*
G03*
X18678500Y-11306000I-22500J0D01*
G01*
X18682500Y-7040000D02*
G75*
G03*
X18682500Y-7040000I-22500J0D01*
G01*
X18722500Y-7730000D02*
G75*
G03*
X18722500Y-7730000I-22500J0D01*
G01*
X18722500Y-8270000D02*
G75*
G03*
X18722500Y-8270000I-22500J0D01*
G01*
X18766001Y-7006499D02*
G75*
G03*
X18766001Y-7006499I-22500J0D01*
G01*
X18766003Y-7133503D02*
G75*
G03*
X18766003Y-7133503I-22500J0D01*
G01*
X18772500Y-7440000D02*
G75*
G03*
X18772500Y-7440000I-22500J0D01*
G01*
X19022500Y-7730000D02*
G75*
G03*
X19022500Y-7730000I-22500J0D01*
G01*
X19022500Y-8270000D02*
G75*
G03*
X19022500Y-8270000I-22500J0D01*
G01*
X19022500Y-11410000D02*
G75*
G03*
X19022500Y-11410000I-22500J0D01*
G01*
X19072500Y-11310000D02*
G75*
G03*
X19072500Y-11310000I-22500J0D01*
G01*
X19152500Y-7440000D02*
G75*
G03*
X19152500Y-7440000I-22500J0D01*
G01*
X19152500Y-10190000D02*
G75*
G03*
X19152500Y-10190000I-22500J0D01*
G01*
X19552500Y-10390000D02*
G75*
G03*
X19552500Y-10390000I-22500J0D01*
G01*
X19602500Y-6830000D02*
G75*
G03*
X19602500Y-6830000I-22500J0D01*
G01*
X19742500Y-10290000D02*
G75*
G03*
X19742500Y-10290000I-22500J0D01*
G01*
X20582500Y-10290000D02*
G75*
G03*
X20582500Y-10290000I-22500J0D01*
G01*
X20622500Y-6850000D02*
G75*
G03*
X20622500Y-6850000I-22500J0D01*
G01*
X20622500Y-6940000D02*
G75*
G03*
X20622500Y-6940000I-22500J0D01*
G01*
X20622500Y-7300000D02*
G75*
G03*
X20622500Y-7300000I-22500J0D01*
G01*
X20622500Y-7390000D02*
G75*
G03*
X20622500Y-7390000I-22500J0D01*
G01*
X11650000Y-8010000D02*
X11650000Y-8090000D01*
X11610000Y-8050000D02*
X11690000Y-8050000D01*
X11650000Y-8510000D02*
X11650000Y-8590000D01*
X11610000Y-8550000D02*
X11690000Y-8550000D01*
X11650000Y-11410000D02*
X11650000Y-11490000D01*
X11610000Y-11450000D02*
X11690000Y-11450000D01*
X11650000Y-11910000D02*
X11650000Y-11990000D01*
X11610000Y-11950000D02*
X11690000Y-11950000D01*
X13471000Y-9706000D02*
X13471000Y-9786000D01*
X13431000Y-9746000D02*
X13511000Y-9746000D01*
X13471000Y-10214000D02*
X13471000Y-10294000D01*
X13431000Y-10254000D02*
X13511000Y-10254000D01*
X13725000Y-9960000D02*
X13725000Y-10040000D01*
X13685000Y-10000000D02*
X13765000Y-10000000D01*
X14200000Y-11010000D02*
X14200000Y-11090000D01*
X14160000Y-11050000D02*
X14240000Y-11050000D01*
X14200000Y-11518000D02*
X14200000Y-11598000D01*
X14160000Y-11558000D02*
X14240000Y-11558000D01*
X14454000Y-11264000D02*
X14454000Y-11344000D01*
X14414000Y-11304000D02*
X14494000Y-11304000D01*
X16250000Y-11010000D02*
X16250000Y-11090000D01*
X16210000Y-11050000D02*
X16290000Y-11050000D01*
X16250000Y-11518000D02*
X16250000Y-11598000D01*
X16210000Y-11558000D02*
X16290000Y-11558000D01*
X16504000Y-11264000D02*
X16504000Y-11344000D01*
X16464000Y-11304000D02*
X16544000Y-11304000D01*
X16830000Y-10040000D02*
X16830000Y-10120000D01*
X16790000Y-10080000D02*
X16870000Y-10080000D01*
X17084000Y-9786000D02*
X17084000Y-9866000D01*
X17044000Y-9826000D02*
X17124000Y-9826000D01*
X17338000Y-10040000D02*
X17338000Y-10120000D01*
X17298000Y-10080000D02*
X17378000Y-10080000D01*
X10351467Y-8731467D02*
X10351467Y-8668533D01*
X10288533Y-8668533D01*
X10288533Y-8731467D01*
X10351467Y-8731467D01*
X10351467Y-8985467D02*
X10351467Y-8922533D01*
X10288533Y-8922533D01*
X10288533Y-8985467D01*
X10351467Y-8985467D01*
X10351467Y-11331467D02*
X10351467Y-11268533D01*
X10288533Y-11268533D01*
X10288533Y-11331467D01*
X10351467Y-11331467D01*
X10351467Y-11585467D02*
X10351467Y-11522533D01*
X10288533Y-11522533D01*
X10288533Y-11585467D01*
X10351467Y-11585467D01*
X19661467Y-11527467D02*
X19661467Y-11464533D01*
X19598533Y-11464533D01*
X19598533Y-11527467D01*
X19661467Y-11527467D01*
X19661467Y-11781467D02*
X19661467Y-11718533D01*
X19598533Y-11718533D01*
X19598533Y-11781467D01*
X19661467Y-11781467D01*
X12389144Y-8211505D02*
X12434144Y-8166505D01*
X12389144Y-8121505D01*
X12344144Y-8166505D01*
X12389144Y-8211505D01*
X12389144Y-8478495D02*
X12434144Y-8433495D01*
X12389144Y-8388495D01*
X12344144Y-8433495D01*
X12389144Y-8478495D01*
X12389144Y-11611505D02*
X12434144Y-11566505D01*
X12389144Y-11521505D01*
X12344144Y-11566505D01*
X12389144Y-11611505D01*
X12389144Y-11878495D02*
X12434144Y-11833495D01*
X12389144Y-11788495D01*
X12344144Y-11833495D01*
X12389144Y-11878495D01*
X12546077Y-7995505D02*
X12591077Y-7950505D01*
X12546077Y-7905505D01*
X12501077Y-7950505D01*
X12546077Y-7995505D01*
X12546077Y-8694495D02*
X12591077Y-8649495D01*
X12546077Y-8604495D01*
X12501077Y-8649495D01*
X12546077Y-8694495D01*
X12546077Y-11395505D02*
X12591077Y-11350505D01*
X12546077Y-11305505D01*
X12501077Y-11350505D01*
X12546077Y-11395505D01*
X12546077Y-12094495D02*
X12591077Y-12049495D01*
X12546077Y-12004495D01*
X12501077Y-12049495D01*
X12546077Y-12094495D01*
X12800000Y-7913000D02*
X12845000Y-7868000D01*
X12800000Y-7823000D01*
X12755000Y-7868000D01*
X12800000Y-7913000D01*
X12800000Y-8103500D02*
X12845000Y-8058500D01*
X12800000Y-8013500D01*
X12755000Y-8058500D01*
X12800000Y-8103500D01*
X12800000Y-8586500D02*
X12845000Y-8541500D01*
X12800000Y-8496500D01*
X12755000Y-8541500D01*
X12800000Y-8586500D01*
X12800000Y-8777000D02*
X12845000Y-8732000D01*
X12800000Y-8687000D01*
X12755000Y-8732000D01*
X12800000Y-8777000D01*
X12800000Y-11313000D02*
X12845000Y-11268000D01*
X12800000Y-11223000D01*
X12755000Y-11268000D01*
X12800000Y-11313000D01*
X12800000Y-11503500D02*
X12845000Y-11458500D01*
X12800000Y-11413500D01*
X12755000Y-11458500D01*
X12800000Y-11503500D01*
X12800000Y-11986500D02*
X12845000Y-11941500D01*
X12800000Y-11896500D01*
X12755000Y-11941500D01*
X12800000Y-11986500D01*
X12800000Y-12177000D02*
X12845000Y-12132000D01*
X12800000Y-12087000D01*
X12755000Y-12132000D01*
X12800000Y-12177000D01*
X13053923Y-7995505D02*
X13098923Y-7950505D01*
X13053923Y-7905505D01*
X13008923Y-7950505D01*
X13053923Y-7995505D01*
X13053923Y-8694495D02*
X13098923Y-8649495D01*
X13053923Y-8604495D01*
X13008923Y-8649495D01*
X13053923Y-8694495D01*
X13053923Y-11395505D02*
X13098923Y-11350505D01*
X13053923Y-11305505D01*
X13008923Y-11350505D01*
X13053923Y-11395505D01*
X13053923Y-12094495D02*
X13098923Y-12049495D01*
X13053923Y-12004495D01*
X13008923Y-12049495D01*
X13053923Y-12094495D01*
X13210856Y-8211505D02*
X13255856Y-8166505D01*
X13210856Y-8121505D01*
X13165856Y-8166505D01*
X13210856Y-8211505D01*
X13210856Y-8478495D02*
X13255856Y-8433495D01*
X13210856Y-8388495D01*
X13165856Y-8433495D01*
X13210856Y-8478495D01*
X13210856Y-11611505D02*
X13255856Y-11566505D01*
X13210856Y-11521505D01*
X13165856Y-11566505D01*
X13210856Y-11611505D01*
X13210856Y-11878495D02*
X13255856Y-11833495D01*
X13210856Y-11788495D01*
X13165856Y-11833495D01*
X13210856Y-11878495D01*
X14939144Y-11611505D02*
X14984144Y-11566505D01*
X14939144Y-11521505D01*
X14894144Y-11566505D01*
X14939144Y-11611505D01*
X14939144Y-11878495D02*
X14984144Y-11833495D01*
X14939144Y-11788495D01*
X14894144Y-11833495D01*
X14939144Y-11878495D01*
X15096077Y-11395505D02*
X15141077Y-11350505D01*
X15096077Y-11305505D01*
X15051077Y-11350505D01*
X15096077Y-11395505D01*
X15096077Y-12094495D02*
X15141077Y-12049495D01*
X15096077Y-12004495D01*
X15051077Y-12049495D01*
X15096077Y-12094495D01*
X15350000Y-11313000D02*
X15395000Y-11268000D01*
X15350000Y-11223000D01*
X15305000Y-11268000D01*
X15350000Y-11313000D01*
X15350000Y-11503500D02*
X15395000Y-11458500D01*
X15350000Y-11413500D01*
X15305000Y-11458500D01*
X15350000Y-11503500D01*
X15350000Y-11986500D02*
X15395000Y-11941500D01*
X15350000Y-11896500D01*
X15305000Y-11941500D01*
X15350000Y-11986500D01*
X15350000Y-12177000D02*
X15395000Y-12132000D01*
X15350000Y-12087000D01*
X15305000Y-12132000D01*
X15350000Y-12177000D01*
X15603923Y-11395505D02*
X15648923Y-11350505D01*
X15603923Y-11305505D01*
X15558923Y-11350505D01*
X15603923Y-11395505D01*
X15603923Y-12094495D02*
X15648923Y-12049495D01*
X15603923Y-12004495D01*
X15558923Y-12049495D01*
X15603923Y-12094495D01*
X15760856Y-11611505D02*
X15805856Y-11566505D01*
X15760856Y-11521505D01*
X15715856Y-11566505D01*
X15760856Y-11611505D01*
X15760856Y-11878495D02*
X15805856Y-11833495D01*
X15760856Y-11788495D01*
X15715856Y-11833495D01*
X15760856Y-11878495D01*
X16400000Y-9295000D02*
X16445000Y-9250000D01*
X16400000Y-9205000D01*
X16355000Y-9250000D01*
X16400000Y-9295000D01*
X16600000Y-9295000D02*
X16645000Y-9250000D01*
X16600000Y-9205000D01*
X16555000Y-9250000D01*
X16600000Y-9295000D01*
X16800000Y-9295000D02*
X16845000Y-9250000D01*
X16800000Y-9205000D01*
X16755000Y-9250000D01*
X16800000Y-9295000D01*
X17000000Y-9295000D02*
X17045000Y-9250000D01*
X17000000Y-9205000D01*
X16955000Y-9250000D01*
X17000000Y-9295000D01*
X17100000Y-11245000D02*
X17145000Y-11200000D01*
X17100000Y-11155000D01*
X17055000Y-11200000D01*
X17100000Y-11245000D01*
X17100000Y-11445000D02*
X17145000Y-11400000D01*
X17100000Y-11355000D01*
X17055000Y-11400000D01*
X17100000Y-11445000D01*
X17100000Y-11645000D02*
X17145000Y-11600000D01*
X17100000Y-11555000D01*
X17055000Y-11600000D01*
X17100000Y-11645000D01*
X17100000Y-11845000D02*
X17145000Y-11800000D01*
X17100000Y-11755000D01*
X17055000Y-11800000D01*
X17100000Y-11845000D01*
X17100000Y-12045000D02*
X17145000Y-12000000D01*
X17100000Y-11955000D01*
X17055000Y-12000000D01*
X17100000Y-12045000D01*
X17100000Y-12245000D02*
X17145000Y-12200000D01*
X17100000Y-12155000D01*
X17055000Y-12200000D01*
X17100000Y-12245000D01*
X17200000Y-9295000D02*
X17245000Y-9250000D01*
X17200000Y-9205000D01*
X17155000Y-9250000D01*
X17200000Y-9295000D01*
X17400000Y-9295000D02*
X17445000Y-9250000D01*
X17400000Y-9205000D01*
X17355000Y-9250000D01*
X17400000Y-9295000D01*
X20080000Y-10045000D02*
X20125000Y-10000000D01*
X20080000Y-9955000D01*
X20035000Y-10000000D01*
X20080000Y-10045000D01*
X20334000Y-10045000D02*
X20379000Y-10000000D01*
X20334000Y-9955000D01*
X20289000Y-10000000D01*
X20334000Y-10045000D01*
X15350000Y-7550000D02*
X15450000Y-7650000D01*
X15450000Y-7550000D02*
X15350000Y-7650000D01*
X15450000Y-7600000D02*
G75*
G03*
X15450000Y-7600000I-50000J0D01*
G01*
X15350000Y-7800000D02*
X15450000Y-7900000D01*
X15450000Y-7800000D02*
X15350000Y-7900000D01*
X15450000Y-7850000D02*
G75*
G03*
X15450000Y-7850000I-50000J0D01*
G01*
X15350000Y-8050000D02*
X15450000Y-8150000D01*
X15450000Y-8050000D02*
X15350000Y-8150000D01*
X15450000Y-8100000D02*
G75*
G03*
X15450000Y-8100000I-50000J0D01*
G01*
X16150000Y-7550000D02*
X16250000Y-7650000D01*
X16250000Y-7550000D02*
X16150000Y-7650000D01*
X16250000Y-7600000D02*
G75*
G03*
X16250000Y-7600000I-50000J0D01*
G01*
X16150000Y-7800000D02*
X16250000Y-7900000D01*
X16250000Y-7800000D02*
X16150000Y-7900000D01*
X16250000Y-7850000D02*
G75*
G03*
X16250000Y-7850000I-50000J0D01*
G01*
X16150000Y-8050000D02*
X16250000Y-8150000D01*
X16250000Y-8050000D02*
X16150000Y-8150000D01*
X16250000Y-8100000D02*
G75*
G03*
X16250000Y-8100000I-50000J0D01*
G01*
X19640000Y-8200000D02*
X19740000Y-8300000D01*
X19740000Y-8200000D02*
X19640000Y-8300000D01*
X19740000Y-8250000D02*
G75*
G03*
X19740000Y-8250000I-50000J0D01*
G01*
X19730000Y-8350000D02*
X19730000Y-8150000D01*
X19650000Y-8350000D02*
X19650000Y-8150000D01*
X19730000Y-8150000D02*
G75*
G03*
X19650000Y-8150000I-40000J0D01*
G01*
X19650000Y-8350000D02*
G75*
G03*
X19730000Y-8350000I40000J0D01*
G01*
X20240000Y-8200000D02*
X20340000Y-8300000D01*
X20340000Y-8200000D02*
X20240000Y-8300000D01*
X20340000Y-8250000D02*
G75*
G03*
X20340000Y-8250000I-50000J0D01*
G01*
X20330000Y-8315000D02*
X20330000Y-8185000D01*
X20250000Y-8315000D02*
X20250000Y-8185000D01*
X20330000Y-8185000D02*
G75*
G03*
X20250000Y-8185000I-40000J0D01*
G01*
X20250000Y-8315000D02*
G75*
G03*
X20330000Y-8315000I40000J0D01*
G01*
X20340000Y-7750000D02*
X20440000Y-7850000D01*
X20440000Y-7750000D02*
X20340000Y-7850000D01*
X20440000Y-7800000D02*
G75*
G03*
X20440000Y-7800000I-50000J0D01*
G01*
X20315000Y-7840000D02*
X20465000Y-7840000D01*
X20315000Y-7760000D02*
X20465000Y-7760000D01*
X20465000Y-7840000D02*
G75*
G03*
X20465000Y-7760000I0J40000D01*
G01*
X20315000Y-7760000D02*
G75*
G03*
X20315000Y-7840000I0J-40000D01*
G01*
X20340000Y-8650000D02*
X20440000Y-8750000D01*
X20440000Y-8650000D02*
X20340000Y-8750000D01*
X20440000Y-8700000D02*
G75*
G03*
X20440000Y-8700000I-50000J0D01*
G01*
X20315000Y-8740000D02*
X20465000Y-8740000D01*
X20315000Y-8660000D02*
X20465000Y-8660000D01*
X20465000Y-8740000D02*
G75*
G03*
X20465000Y-8660000I0J40000D01*
G01*
X20315000Y-8660000D02*
G75*
G03*
X20315000Y-8740000I0J-40000D01*
G01*
X16190000Y-8930000D02*
X16310000Y-9050000D01*
X16310000Y-8930000D02*
X16190000Y-9050000D01*
X16250000Y-8930000D02*
X16250000Y-9050000D01*
X16190000Y-8990000D02*
X16310000Y-8990000D01*
X16190000Y-9450000D02*
X16310000Y-9570000D01*
X16310000Y-9450000D02*
X16190000Y-9570000D01*
X16250000Y-9450000D02*
X16250000Y-9570000D01*
X16190000Y-9510000D02*
X16310000Y-9510000D01*
X16780000Y-10990000D02*
X16900000Y-11110000D01*
X16900000Y-10990000D02*
X16780000Y-11110000D01*
X16840000Y-10990000D02*
X16840000Y-11110000D01*
X16780000Y-11050000D02*
X16900000Y-11050000D01*
X16780000Y-12300000D02*
X16900000Y-12420000D01*
X16900000Y-12300000D02*
X16780000Y-12420000D01*
X16840000Y-12300000D02*
X16840000Y-12420000D01*
X16780000Y-12360000D02*
X16900000Y-12360000D01*
X17300000Y-10990000D02*
X17420000Y-11110000D01*
X17420000Y-10990000D02*
X17300000Y-11110000D01*
X17360000Y-10990000D02*
X17360000Y-11110000D01*
X17300000Y-11050000D02*
X17420000Y-11050000D01*
X17300000Y-12300000D02*
X17420000Y-12420000D01*
X17420000Y-12300000D02*
X17300000Y-12420000D01*
X17360000Y-12300000D02*
X17360000Y-12420000D01*
X17300000Y-12360000D02*
X17420000Y-12360000D01*
X17500000Y-8930000D02*
X17620000Y-9050000D01*
X17620000Y-8930000D02*
X17500000Y-9050000D01*
X17560000Y-8930000D02*
X17560000Y-9050000D01*
X17500000Y-8990000D02*
X17620000Y-8990000D01*
X17500000Y-9450000D02*
X17620000Y-9570000D01*
X17620000Y-9450000D02*
X17500000Y-9570000D01*
X17560000Y-9450000D02*
X17560000Y-9570000D01*
X17500000Y-9510000D02*
X17620000Y-9510000D01*
X9711500Y-8091500D02*
X9912500Y-8292500D01*
X9912500Y-8091500D02*
X9711500Y-8292500D01*
X9883065Y-8263065D02*
X9883065Y-8120935D01*
X9740935Y-8120935D01*
X9740935Y-8263065D01*
X9883065Y-8263065D01*
X9711500Y-9107500D02*
X9912500Y-9308500D01*
X9912500Y-9107500D02*
X9711500Y-9308500D01*
X9883065Y-9279065D02*
X9883065Y-9136935D01*
X9740935Y-9136935D01*
X9740935Y-9279065D01*
X9883065Y-9279065D01*
X9711500Y-10691500D02*
X9912500Y-10892500D01*
X9912500Y-10691500D02*
X9711500Y-10892500D01*
X9883065Y-10863065D02*
X9883065Y-10720935D01*
X9740935Y-10720935D01*
X9740935Y-10863065D01*
X9883065Y-10863065D01*
X9711500Y-11707500D02*
X9912500Y-11908500D01*
X9912500Y-11707500D02*
X9711500Y-11908500D01*
X9883065Y-11879065D02*
X9883065Y-11736935D01*
X9740935Y-11736935D01*
X9740935Y-11879065D01*
X9883065Y-11879065D01*
X20037500Y-11141500D02*
X20238500Y-11342500D01*
X20238500Y-11141500D02*
X20037500Y-11342500D01*
X20209065Y-11313065D02*
X20209065Y-11170935D01*
X20066935Y-11170935D01*
X20066935Y-11313065D01*
X20209065Y-11313065D01*
X20037500Y-12157500D02*
X20238500Y-12358500D01*
X20238500Y-12157500D02*
X20037500Y-12358500D01*
X20209065Y-12329065D02*
X20209065Y-12186935D01*
X20066935Y-12186935D01*
X20066935Y-12329065D01*
X20209065Y-12329065D01*
D12*
X9283928Y-14193214D02*
X9283928Y-13893214D01*
X9355357Y-13893214D01*
X9398214Y-13907500D01*
X9426786Y-13936071D01*
X9441071Y-13964643D01*
X9455357Y-14021786D01*
X9455357Y-14064643D01*
X9441071Y-14121786D01*
X9426786Y-14150357D01*
X9398214Y-14178929D01*
X9355357Y-14193214D01*
X9283928Y-14193214D01*
X9583928Y-14193214D02*
X9583928Y-13993214D01*
X9583928Y-14050357D02*
X9598214Y-14021786D01*
X9612500Y-14007500D01*
X9641071Y-13993214D01*
X9669643Y-13993214D01*
X9769643Y-14193214D02*
X9769643Y-13993214D01*
X9769643Y-13893214D02*
X9755357Y-13907500D01*
X9769643Y-13921786D01*
X9783928Y-13907500D01*
X9769643Y-13893214D01*
X9769643Y-13921786D01*
X9955357Y-14193214D02*
X9926786Y-14178929D01*
X9912500Y-14150357D01*
X9912500Y-13893214D01*
X10112500Y-14193214D02*
X10083928Y-14178929D01*
X10069643Y-14150357D01*
X10069643Y-13893214D01*
X10455357Y-14193214D02*
X10455357Y-13893214D01*
X10555357Y-14107500D01*
X10655357Y-13893214D01*
X10655357Y-14193214D01*
X10926786Y-14193214D02*
X10926786Y-14036071D01*
X10912500Y-14007500D01*
X10883928Y-13993214D01*
X10826786Y-13993214D01*
X10798214Y-14007500D01*
X10926786Y-14178929D02*
X10898214Y-14193214D01*
X10826786Y-14193214D01*
X10798214Y-14178929D01*
X10783928Y-14150357D01*
X10783928Y-14121786D01*
X10798214Y-14093214D01*
X10826786Y-14078929D01*
X10898214Y-14078929D01*
X10926786Y-14064643D01*
X11069643Y-13993214D02*
X11069643Y-14293214D01*
X11069643Y-14007500D02*
X11098214Y-13993214D01*
X11155357Y-13993214D01*
X11183928Y-14007500D01*
X11198214Y-14021786D01*
X11212500Y-14050357D01*
X11212500Y-14136071D01*
X11198214Y-14164643D01*
X11183928Y-14178929D01*
X11155357Y-14193214D01*
X11098214Y-14193214D01*
X11069643Y-14178929D01*
X11341071Y-14164643D02*
X11355357Y-14178929D01*
X11341071Y-14193214D01*
X11326786Y-14178929D01*
X11341071Y-14164643D01*
X11341071Y-14193214D01*
X11341071Y-14007500D02*
X11355357Y-14021786D01*
X11341071Y-14036071D01*
X11326786Y-14021786D01*
X11341071Y-14007500D01*
X11341071Y-14036071D01*
X8977500Y-14677500D02*
X8997500Y-14697500D01*
X8997500Y-14677500D02*
X8977500Y-14697500D01*
X9341071Y-14523214D02*
X9369643Y-14523214D01*
X9398214Y-14537500D01*
X9412500Y-14551786D01*
X9426786Y-14580357D01*
X9441071Y-14637500D01*
X9441071Y-14708929D01*
X9426786Y-14766071D01*
X9412500Y-14794643D01*
X9398214Y-14808929D01*
X9369643Y-14823214D01*
X9341071Y-14823214D01*
X9312500Y-14808929D01*
X9298214Y-14794643D01*
X9283928Y-14766071D01*
X9269643Y-14708929D01*
X9269643Y-14637500D01*
X9283928Y-14580357D01*
X9298214Y-14551786D01*
X9312500Y-14537500D01*
X9341071Y-14523214D01*
X9569643Y-14794643D02*
X9583928Y-14808929D01*
X9569643Y-14823214D01*
X9555357Y-14808929D01*
X9569643Y-14794643D01*
X9569643Y-14823214D01*
X9698214Y-14551786D02*
X9712500Y-14537500D01*
X9741071Y-14523214D01*
X9812500Y-14523214D01*
X9841071Y-14537500D01*
X9855357Y-14551786D01*
X9869643Y-14580357D01*
X9869643Y-14608929D01*
X9855357Y-14651786D01*
X9683928Y-14823214D01*
X9869643Y-14823214D01*
X10055357Y-14523214D02*
X10083928Y-14523214D01*
X10112500Y-14537500D01*
X10126786Y-14551786D01*
X10141071Y-14580357D01*
X10155357Y-14637500D01*
X10155357Y-14708929D01*
X10141071Y-14766071D01*
X10126786Y-14794643D01*
X10112500Y-14808929D01*
X10083928Y-14823214D01*
X10055357Y-14823214D01*
X10026786Y-14808929D01*
X10012500Y-14794643D01*
X9998214Y-14766071D01*
X9983928Y-14708929D01*
X9983928Y-14637500D01*
X9998214Y-14580357D01*
X10012500Y-14551786D01*
X10026786Y-14537500D01*
X10055357Y-14523214D01*
X10283928Y-14823214D02*
X10283928Y-14623214D01*
X10283928Y-14651786D02*
X10298214Y-14637500D01*
X10326786Y-14623214D01*
X10369643Y-14623214D01*
X10398214Y-14637500D01*
X10412500Y-14666071D01*
X10412500Y-14823214D01*
X10412500Y-14666071D02*
X10426786Y-14637500D01*
X10455357Y-14623214D01*
X10498214Y-14623214D01*
X10526786Y-14637500D01*
X10541071Y-14666071D01*
X10541071Y-14823214D01*
X10683928Y-14823214D02*
X10683928Y-14623214D01*
X10683928Y-14651786D02*
X10698214Y-14637500D01*
X10726786Y-14623214D01*
X10769643Y-14623214D01*
X10798214Y-14637500D01*
X10812500Y-14666071D01*
X10812500Y-14823214D01*
X10812500Y-14666071D02*
X10826786Y-14637500D01*
X10855357Y-14623214D01*
X10898214Y-14623214D01*
X10926786Y-14637500D01*
X10941071Y-14666071D01*
X10941071Y-14823214D01*
X11526786Y-14508929D02*
X11269643Y-14894643D01*
X11912500Y-14523214D02*
X11941071Y-14523214D01*
X11969643Y-14537500D01*
X11983928Y-14551786D01*
X11998214Y-14580357D01*
X12012500Y-14637500D01*
X12012500Y-14708929D01*
X11998214Y-14766071D01*
X11983928Y-14794643D01*
X11969643Y-14808929D01*
X11941071Y-14823214D01*
X11912500Y-14823214D01*
X11883928Y-14808929D01*
X11869643Y-14794643D01*
X11855357Y-14766071D01*
X11841071Y-14708929D01*
X11841071Y-14637500D01*
X11855357Y-14580357D01*
X11869643Y-14551786D01*
X11883928Y-14537500D01*
X11912500Y-14523214D01*
X12141071Y-14794643D02*
X12155357Y-14808929D01*
X12141071Y-14823214D01*
X12126786Y-14808929D01*
X12141071Y-14794643D01*
X12141071Y-14823214D01*
X12341071Y-14523214D02*
X12369643Y-14523214D01*
X12398214Y-14537500D01*
X12412500Y-14551786D01*
X12426786Y-14580357D01*
X12441071Y-14637500D01*
X12441071Y-14708929D01*
X12426786Y-14766071D01*
X12412500Y-14794643D01*
X12398214Y-14808929D01*
X12369643Y-14823214D01*
X12341071Y-14823214D01*
X12312500Y-14808929D01*
X12298214Y-14794643D01*
X12283928Y-14766071D01*
X12269643Y-14708929D01*
X12269643Y-14637500D01*
X12283928Y-14580357D01*
X12298214Y-14551786D01*
X12312500Y-14537500D01*
X12341071Y-14523214D01*
X12626786Y-14523214D02*
X12655357Y-14523214D01*
X12683928Y-14537500D01*
X12698214Y-14551786D01*
X12712500Y-14580357D01*
X12726786Y-14637500D01*
X12726786Y-14708929D01*
X12712500Y-14766071D01*
X12698214Y-14794643D01*
X12683928Y-14808929D01*
X12655357Y-14823214D01*
X12626786Y-14823214D01*
X12598214Y-14808929D01*
X12583928Y-14794643D01*
X12569643Y-14766071D01*
X12555357Y-14708929D01*
X12555357Y-14637500D01*
X12569643Y-14580357D01*
X12583928Y-14551786D01*
X12598214Y-14537500D01*
X12626786Y-14523214D01*
X12898214Y-14651786D02*
X12869643Y-14637500D01*
X12855357Y-14623214D01*
X12841071Y-14594643D01*
X12841071Y-14580357D01*
X12855357Y-14551786D01*
X12869643Y-14537500D01*
X12898214Y-14523214D01*
X12955357Y-14523214D01*
X12983928Y-14537500D01*
X12998214Y-14551786D01*
X13012500Y-14580357D01*
X13012500Y-14594643D01*
X12998214Y-14623214D01*
X12983928Y-14637500D01*
X12955357Y-14651786D01*
X12898214Y-14651786D01*
X12869643Y-14666071D01*
X12855357Y-14680357D01*
X12841071Y-14708929D01*
X12841071Y-14766071D01*
X12855357Y-14794643D01*
X12869643Y-14808929D01*
X12898214Y-14823214D01*
X12955357Y-14823214D01*
X12983928Y-14808929D01*
X12998214Y-14794643D01*
X13012500Y-14766071D01*
X13012500Y-14708929D01*
X12998214Y-14680357D01*
X12983928Y-14666071D01*
X12955357Y-14651786D01*
X13126786Y-14523214D02*
X13126786Y-14580357D01*
X13241071Y-14523214D02*
X13241071Y-14580357D01*
X13683928Y-14937500D02*
X13669643Y-14923214D01*
X13641071Y-14880357D01*
X13626786Y-14851786D01*
X13612500Y-14808929D01*
X13598214Y-14737500D01*
X13598214Y-14680357D01*
X13612500Y-14608929D01*
X13626786Y-14566071D01*
X13641071Y-14537500D01*
X13669643Y-14494643D01*
X13683928Y-14480357D01*
X13955357Y-14823214D02*
X13783928Y-14823214D01*
X13869643Y-14823214D02*
X13869643Y-14523214D01*
X13841071Y-14566071D01*
X13812500Y-14594643D01*
X13783928Y-14608929D01*
X14069643Y-14551786D02*
X14083928Y-14537500D01*
X14112500Y-14523214D01*
X14183928Y-14523214D01*
X14212500Y-14537500D01*
X14226786Y-14551786D01*
X14241071Y-14580357D01*
X14241071Y-14608929D01*
X14226786Y-14651786D01*
X14055357Y-14823214D01*
X14241071Y-14823214D01*
X14598214Y-14823214D02*
X14598214Y-14523214D01*
X14726786Y-14823214D02*
X14726786Y-14666071D01*
X14712500Y-14637500D01*
X14683928Y-14623214D01*
X14641071Y-14623214D01*
X14612500Y-14637500D01*
X14598214Y-14651786D01*
X14912500Y-14823214D02*
X14883928Y-14808929D01*
X14869643Y-14794643D01*
X14855357Y-14766071D01*
X14855357Y-14680357D01*
X14869643Y-14651786D01*
X14883928Y-14637500D01*
X14912500Y-14623214D01*
X14955357Y-14623214D01*
X14983928Y-14637500D01*
X14998214Y-14651786D01*
X15012500Y-14680357D01*
X15012500Y-14766071D01*
X14998214Y-14794643D01*
X14983928Y-14808929D01*
X14955357Y-14823214D01*
X14912500Y-14823214D01*
X15183928Y-14823214D02*
X15155357Y-14808929D01*
X15141071Y-14780357D01*
X15141071Y-14523214D01*
X15412500Y-14808929D02*
X15383928Y-14823214D01*
X15326786Y-14823214D01*
X15298214Y-14808929D01*
X15283928Y-14780357D01*
X15283928Y-14666071D01*
X15298214Y-14637500D01*
X15326786Y-14623214D01*
X15383928Y-14623214D01*
X15412500Y-14637500D01*
X15426786Y-14666071D01*
X15426786Y-14694643D01*
X15283928Y-14723214D01*
X15541071Y-14808929D02*
X15569643Y-14823214D01*
X15626786Y-14823214D01*
X15655357Y-14808929D01*
X15669643Y-14780357D01*
X15669643Y-14766071D01*
X15655357Y-14737500D01*
X15626786Y-14723214D01*
X15583928Y-14723214D01*
X15555357Y-14708929D01*
X15541071Y-14680357D01*
X15541071Y-14666071D01*
X15555357Y-14637500D01*
X15583928Y-14623214D01*
X15626786Y-14623214D01*
X15655357Y-14637500D01*
X15769643Y-14937500D02*
X15783928Y-14923214D01*
X15812500Y-14880357D01*
X15826786Y-14851786D01*
X15841071Y-14808929D01*
X15855357Y-14737500D01*
X15855357Y-14680357D01*
X15841071Y-14608929D01*
X15826786Y-14566071D01*
X15812500Y-14537500D01*
X15783928Y-14494643D01*
X15769643Y-14480357D01*
X8997500Y-15083500D02*
G75*
G03*
X8997500Y-15083500I-22500J0D01*
G01*
X9341071Y-14919214D02*
X9369643Y-14919214D01*
X9398214Y-14933500D01*
X9412500Y-14947786D01*
X9426786Y-14976357D01*
X9441071Y-15033500D01*
X9441071Y-15104929D01*
X9426786Y-15162071D01*
X9412500Y-15190643D01*
X9398214Y-15204929D01*
X9369643Y-15219214D01*
X9341071Y-15219214D01*
X9312500Y-15204929D01*
X9298214Y-15190643D01*
X9283928Y-15162071D01*
X9269643Y-15104929D01*
X9269643Y-15033500D01*
X9283928Y-14976357D01*
X9298214Y-14947786D01*
X9312500Y-14933500D01*
X9341071Y-14919214D01*
X9569643Y-15190643D02*
X9583928Y-15204929D01*
X9569643Y-15219214D01*
X9555357Y-15204929D01*
X9569643Y-15190643D01*
X9569643Y-15219214D01*
X9841071Y-15019214D02*
X9841071Y-15219214D01*
X9769643Y-14904929D02*
X9698214Y-15119214D01*
X9883928Y-15119214D01*
X10141071Y-14919214D02*
X9998214Y-14919214D01*
X9983928Y-15062071D01*
X9998214Y-15047786D01*
X10026786Y-15033500D01*
X10098214Y-15033500D01*
X10126786Y-15047786D01*
X10141071Y-15062071D01*
X10155357Y-15090643D01*
X10155357Y-15162071D01*
X10141071Y-15190643D01*
X10126786Y-15204929D01*
X10098214Y-15219214D01*
X10026786Y-15219214D01*
X9998214Y-15204929D01*
X9983928Y-15190643D01*
X10283928Y-15219214D02*
X10283928Y-15019214D01*
X10283928Y-15047786D02*
X10298214Y-15033500D01*
X10326786Y-15019214D01*
X10369643Y-15019214D01*
X10398214Y-15033500D01*
X10412500Y-15062071D01*
X10412500Y-15219214D01*
X10412500Y-15062071D02*
X10426786Y-15033500D01*
X10455357Y-15019214D01*
X10498214Y-15019214D01*
X10526786Y-15033500D01*
X10541071Y-15062071D01*
X10541071Y-15219214D01*
X10683928Y-15219214D02*
X10683928Y-15019214D01*
X10683928Y-15047786D02*
X10698214Y-15033500D01*
X10726786Y-15019214D01*
X10769643Y-15019214D01*
X10798214Y-15033500D01*
X10812500Y-15062071D01*
X10812500Y-15219214D01*
X10812500Y-15062071D02*
X10826786Y-15033500D01*
X10855357Y-15019214D01*
X10898214Y-15019214D01*
X10926786Y-15033500D01*
X10941071Y-15062071D01*
X10941071Y-15219214D01*
X11526786Y-14904929D02*
X11269643Y-15290643D01*
X11912500Y-14919214D02*
X11941071Y-14919214D01*
X11969643Y-14933500D01*
X11983928Y-14947786D01*
X11998214Y-14976357D01*
X12012500Y-15033500D01*
X12012500Y-15104929D01*
X11998214Y-15162071D01*
X11983928Y-15190643D01*
X11969643Y-15204929D01*
X11941071Y-15219214D01*
X11912500Y-15219214D01*
X11883928Y-15204929D01*
X11869643Y-15190643D01*
X11855357Y-15162071D01*
X11841071Y-15104929D01*
X11841071Y-15033500D01*
X11855357Y-14976357D01*
X11869643Y-14947786D01*
X11883928Y-14933500D01*
X11912500Y-14919214D01*
X12141071Y-15190643D02*
X12155357Y-15204929D01*
X12141071Y-15219214D01*
X12126786Y-15204929D01*
X12141071Y-15190643D01*
X12141071Y-15219214D01*
X12341071Y-14919214D02*
X12369643Y-14919214D01*
X12398214Y-14933500D01*
X12412500Y-14947786D01*
X12426786Y-14976357D01*
X12441071Y-15033500D01*
X12441071Y-15104929D01*
X12426786Y-15162071D01*
X12412500Y-15190643D01*
X12398214Y-15204929D01*
X12369643Y-15219214D01*
X12341071Y-15219214D01*
X12312500Y-15204929D01*
X12298214Y-15190643D01*
X12283928Y-15162071D01*
X12269643Y-15104929D01*
X12269643Y-15033500D01*
X12283928Y-14976357D01*
X12298214Y-14947786D01*
X12312500Y-14933500D01*
X12341071Y-14919214D01*
X12726786Y-15219214D02*
X12555357Y-15219214D01*
X12641071Y-15219214D02*
X12641071Y-14919214D01*
X12612500Y-14962071D01*
X12583928Y-14990643D01*
X12555357Y-15004929D01*
X12898214Y-15047786D02*
X12869643Y-15033500D01*
X12855357Y-15019214D01*
X12841071Y-14990643D01*
X12841071Y-14976357D01*
X12855357Y-14947786D01*
X12869643Y-14933500D01*
X12898214Y-14919214D01*
X12955357Y-14919214D01*
X12983928Y-14933500D01*
X12998214Y-14947786D01*
X13012500Y-14976357D01*
X13012500Y-14990643D01*
X12998214Y-15019214D01*
X12983928Y-15033500D01*
X12955357Y-15047786D01*
X12898214Y-15047786D01*
X12869643Y-15062071D01*
X12855357Y-15076357D01*
X12841071Y-15104929D01*
X12841071Y-15162071D01*
X12855357Y-15190643D01*
X12869643Y-15204929D01*
X12898214Y-15219214D01*
X12955357Y-15219214D01*
X12983928Y-15204929D01*
X12998214Y-15190643D01*
X13012500Y-15162071D01*
X13012500Y-15104929D01*
X12998214Y-15076357D01*
X12983928Y-15062071D01*
X12955357Y-15047786D01*
X13126786Y-14919214D02*
X13126786Y-14976357D01*
X13241071Y-14919214D02*
X13241071Y-14976357D01*
X13683928Y-15333500D02*
X13669643Y-15319214D01*
X13641071Y-15276357D01*
X13626786Y-15247786D01*
X13612500Y-15204929D01*
X13598214Y-15133500D01*
X13598214Y-15076357D01*
X13612500Y-15004929D01*
X13626786Y-14962071D01*
X13641071Y-14933500D01*
X13669643Y-14890643D01*
X13683928Y-14876357D01*
X13812500Y-15219214D02*
X13869643Y-15219214D01*
X13898214Y-15204929D01*
X13912500Y-15190643D01*
X13941071Y-15147786D01*
X13955357Y-15090643D01*
X13955357Y-14976357D01*
X13941071Y-14947786D01*
X13926786Y-14933500D01*
X13898214Y-14919214D01*
X13841071Y-14919214D01*
X13812500Y-14933500D01*
X13798214Y-14947786D01*
X13783928Y-14976357D01*
X13783928Y-15047786D01*
X13798214Y-15076357D01*
X13812500Y-15090643D01*
X13841071Y-15104929D01*
X13898214Y-15104929D01*
X13926786Y-15090643D01*
X13941071Y-15076357D01*
X13955357Y-15047786D01*
X14069643Y-14947786D02*
X14083928Y-14933500D01*
X14112500Y-14919214D01*
X14183928Y-14919214D01*
X14212500Y-14933500D01*
X14226786Y-14947786D01*
X14241071Y-14976357D01*
X14241071Y-15004929D01*
X14226786Y-15047786D01*
X14055357Y-15219214D01*
X14241071Y-15219214D01*
X14598214Y-15219214D02*
X14598214Y-14919214D01*
X14726786Y-15219214D02*
X14726786Y-15062071D01*
X14712500Y-15033500D01*
X14683928Y-15019214D01*
X14641071Y-15019214D01*
X14612500Y-15033500D01*
X14598214Y-15047786D01*
X14912500Y-15219214D02*
X14883928Y-15204929D01*
X14869643Y-15190643D01*
X14855357Y-15162071D01*
X14855357Y-15076357D01*
X14869643Y-15047786D01*
X14883928Y-15033500D01*
X14912500Y-15019214D01*
X14955357Y-15019214D01*
X14983928Y-15033500D01*
X14998214Y-15047786D01*
X15012500Y-15076357D01*
X15012500Y-15162071D01*
X14998214Y-15190643D01*
X14983928Y-15204929D01*
X14955357Y-15219214D01*
X14912500Y-15219214D01*
X15183928Y-15219214D02*
X15155357Y-15204929D01*
X15141071Y-15176357D01*
X15141071Y-14919214D01*
X15412500Y-15204929D02*
X15383928Y-15219214D01*
X15326786Y-15219214D01*
X15298214Y-15204929D01*
X15283928Y-15176357D01*
X15283928Y-15062071D01*
X15298214Y-15033500D01*
X15326786Y-15019214D01*
X15383928Y-15019214D01*
X15412500Y-15033500D01*
X15426786Y-15062071D01*
X15426786Y-15090643D01*
X15283928Y-15119214D01*
X15541071Y-15204929D02*
X15569643Y-15219214D01*
X15626786Y-15219214D01*
X15655357Y-15204929D01*
X15669643Y-15176357D01*
X15669643Y-15162071D01*
X15655357Y-15133500D01*
X15626786Y-15119214D01*
X15583928Y-15119214D01*
X15555357Y-15104929D01*
X15541071Y-15076357D01*
X15541071Y-15062071D01*
X15555357Y-15033500D01*
X15583928Y-15019214D01*
X15626786Y-15019214D01*
X15655357Y-15033500D01*
X15769643Y-15333500D02*
X15783928Y-15319214D01*
X15812500Y-15276357D01*
X15826786Y-15247786D01*
X15841071Y-15204929D01*
X15855357Y-15133500D01*
X15855357Y-15076357D01*
X15841071Y-15004929D01*
X15826786Y-14962071D01*
X15812500Y-14933500D01*
X15783928Y-14890643D01*
X15769643Y-14876357D01*
X8957500Y-15439500D02*
X8957500Y-15519500D01*
X8917500Y-15479500D02*
X8997500Y-15479500D01*
X9341071Y-15315214D02*
X9369643Y-15315214D01*
X9398214Y-15329500D01*
X9412500Y-15343786D01*
X9426786Y-15372357D01*
X9441071Y-15429500D01*
X9441071Y-15500929D01*
X9426786Y-15558071D01*
X9412500Y-15586643D01*
X9398214Y-15600929D01*
X9369643Y-15615214D01*
X9341071Y-15615214D01*
X9312500Y-15600929D01*
X9298214Y-15586643D01*
X9283928Y-15558071D01*
X9269643Y-15500929D01*
X9269643Y-15429500D01*
X9283928Y-15372357D01*
X9298214Y-15343786D01*
X9312500Y-15329500D01*
X9341071Y-15315214D01*
X9569643Y-15586643D02*
X9583928Y-15600929D01*
X9569643Y-15615214D01*
X9555357Y-15600929D01*
X9569643Y-15586643D01*
X9569643Y-15615214D01*
X9755357Y-15443786D02*
X9726786Y-15429500D01*
X9712500Y-15415214D01*
X9698214Y-15386643D01*
X9698214Y-15372357D01*
X9712500Y-15343786D01*
X9726786Y-15329500D01*
X9755357Y-15315214D01*
X9812500Y-15315214D01*
X9841071Y-15329500D01*
X9855357Y-15343786D01*
X9869643Y-15372357D01*
X9869643Y-15386643D01*
X9855357Y-15415214D01*
X9841071Y-15429500D01*
X9812500Y-15443786D01*
X9755357Y-15443786D01*
X9726786Y-15458071D01*
X9712500Y-15472357D01*
X9698214Y-15500929D01*
X9698214Y-15558071D01*
X9712500Y-15586643D01*
X9726786Y-15600929D01*
X9755357Y-15615214D01*
X9812500Y-15615214D01*
X9841071Y-15600929D01*
X9855357Y-15586643D01*
X9869643Y-15558071D01*
X9869643Y-15500929D01*
X9855357Y-15472357D01*
X9841071Y-15458071D01*
X9812500Y-15443786D01*
X10055357Y-15315214D02*
X10083928Y-15315214D01*
X10112500Y-15329500D01*
X10126786Y-15343786D01*
X10141071Y-15372357D01*
X10155357Y-15429500D01*
X10155357Y-15500929D01*
X10141071Y-15558071D01*
X10126786Y-15586643D01*
X10112500Y-15600929D01*
X10083928Y-15615214D01*
X10055357Y-15615214D01*
X10026786Y-15600929D01*
X10012500Y-15586643D01*
X9998214Y-15558071D01*
X9983928Y-15500929D01*
X9983928Y-15429500D01*
X9998214Y-15372357D01*
X10012500Y-15343786D01*
X10026786Y-15329500D01*
X10055357Y-15315214D01*
X10283928Y-15615214D02*
X10283928Y-15415214D01*
X10283928Y-15443786D02*
X10298214Y-15429500D01*
X10326786Y-15415214D01*
X10369643Y-15415214D01*
X10398214Y-15429500D01*
X10412500Y-15458071D01*
X10412500Y-15615214D01*
X10412500Y-15458071D02*
X10426786Y-15429500D01*
X10455357Y-15415214D01*
X10498214Y-15415214D01*
X10526786Y-15429500D01*
X10541071Y-15458071D01*
X10541071Y-15615214D01*
X10683928Y-15615214D02*
X10683928Y-15415214D01*
X10683928Y-15443786D02*
X10698214Y-15429500D01*
X10726786Y-15415214D01*
X10769643Y-15415214D01*
X10798214Y-15429500D01*
X10812500Y-15458071D01*
X10812500Y-15615214D01*
X10812500Y-15458071D02*
X10826786Y-15429500D01*
X10855357Y-15415214D01*
X10898214Y-15415214D01*
X10926786Y-15429500D01*
X10941071Y-15458071D01*
X10941071Y-15615214D01*
X11526786Y-15300929D02*
X11269643Y-15686643D01*
X11912500Y-15315214D02*
X11941071Y-15315214D01*
X11969643Y-15329500D01*
X11983928Y-15343786D01*
X11998214Y-15372357D01*
X12012500Y-15429500D01*
X12012500Y-15500929D01*
X11998214Y-15558071D01*
X11983928Y-15586643D01*
X11969643Y-15600929D01*
X11941071Y-15615214D01*
X11912500Y-15615214D01*
X11883928Y-15600929D01*
X11869643Y-15586643D01*
X11855357Y-15558071D01*
X11841071Y-15500929D01*
X11841071Y-15429500D01*
X11855357Y-15372357D01*
X11869643Y-15343786D01*
X11883928Y-15329500D01*
X11912500Y-15315214D01*
X12141071Y-15586643D02*
X12155357Y-15600929D01*
X12141071Y-15615214D01*
X12126786Y-15600929D01*
X12141071Y-15586643D01*
X12141071Y-15615214D01*
X12341071Y-15315214D02*
X12369643Y-15315214D01*
X12398214Y-15329500D01*
X12412500Y-15343786D01*
X12426786Y-15372357D01*
X12441071Y-15429500D01*
X12441071Y-15500929D01*
X12426786Y-15558071D01*
X12412500Y-15586643D01*
X12398214Y-15600929D01*
X12369643Y-15615214D01*
X12341071Y-15615214D01*
X12312500Y-15600929D01*
X12298214Y-15586643D01*
X12283928Y-15558071D01*
X12269643Y-15500929D01*
X12269643Y-15429500D01*
X12283928Y-15372357D01*
X12298214Y-15343786D01*
X12312500Y-15329500D01*
X12341071Y-15315214D01*
X12541071Y-15315214D02*
X12726786Y-15315214D01*
X12626786Y-15429500D01*
X12669643Y-15429500D01*
X12698214Y-15443786D01*
X12712500Y-15458071D01*
X12726786Y-15486643D01*
X12726786Y-15558071D01*
X12712500Y-15586643D01*
X12698214Y-15600929D01*
X12669643Y-15615214D01*
X12583928Y-15615214D01*
X12555357Y-15600929D01*
X12541071Y-15586643D01*
X13012500Y-15615214D02*
X12841071Y-15615214D01*
X12926786Y-15615214D02*
X12926786Y-15315214D01*
X12898214Y-15358071D01*
X12869643Y-15386643D01*
X12841071Y-15400929D01*
X13126786Y-15315214D02*
X13126786Y-15372357D01*
X13241071Y-15315214D02*
X13241071Y-15372357D01*
X13683928Y-15729500D02*
X13669643Y-15715214D01*
X13641071Y-15672357D01*
X13626786Y-15643786D01*
X13612500Y-15600929D01*
X13598214Y-15529500D01*
X13598214Y-15472357D01*
X13612500Y-15400929D01*
X13626786Y-15358071D01*
X13641071Y-15329500D01*
X13669643Y-15286643D01*
X13683928Y-15272357D01*
X13955357Y-15615214D02*
X13783928Y-15615214D01*
X13869643Y-15615214D02*
X13869643Y-15315214D01*
X13841071Y-15358071D01*
X13812500Y-15386643D01*
X13783928Y-15400929D01*
X14212500Y-15315214D02*
X14155357Y-15315214D01*
X14126786Y-15329500D01*
X14112500Y-15343786D01*
X14083928Y-15386643D01*
X14069643Y-15443786D01*
X14069643Y-15558071D01*
X14083928Y-15586643D01*
X14098214Y-15600929D01*
X14126786Y-15615214D01*
X14183928Y-15615214D01*
X14212500Y-15600929D01*
X14226786Y-15586643D01*
X14241071Y-15558071D01*
X14241071Y-15486643D01*
X14226786Y-15458071D01*
X14212500Y-15443786D01*
X14183928Y-15429500D01*
X14126786Y-15429500D01*
X14098214Y-15443786D01*
X14083928Y-15458071D01*
X14069643Y-15486643D01*
X14598214Y-15615214D02*
X14598214Y-15315214D01*
X14726786Y-15615214D02*
X14726786Y-15458071D01*
X14712500Y-15429500D01*
X14683928Y-15415214D01*
X14641071Y-15415214D01*
X14612500Y-15429500D01*
X14598214Y-15443786D01*
X14912500Y-15615214D02*
X14883928Y-15600929D01*
X14869643Y-15586643D01*
X14855357Y-15558071D01*
X14855357Y-15472357D01*
X14869643Y-15443786D01*
X14883928Y-15429500D01*
X14912500Y-15415214D01*
X14955357Y-15415214D01*
X14983928Y-15429500D01*
X14998214Y-15443786D01*
X15012500Y-15472357D01*
X15012500Y-15558071D01*
X14998214Y-15586643D01*
X14983928Y-15600929D01*
X14955357Y-15615214D01*
X14912500Y-15615214D01*
X15183928Y-15615214D02*
X15155357Y-15600929D01*
X15141071Y-15572357D01*
X15141071Y-15315214D01*
X15412500Y-15600929D02*
X15383928Y-15615214D01*
X15326786Y-15615214D01*
X15298214Y-15600929D01*
X15283928Y-15572357D01*
X15283928Y-15458071D01*
X15298214Y-15429500D01*
X15326786Y-15415214D01*
X15383928Y-15415214D01*
X15412500Y-15429500D01*
X15426786Y-15458071D01*
X15426786Y-15486643D01*
X15283928Y-15515214D01*
X15541071Y-15600929D02*
X15569643Y-15615214D01*
X15626786Y-15615214D01*
X15655357Y-15600929D01*
X15669643Y-15572357D01*
X15669643Y-15558071D01*
X15655357Y-15529500D01*
X15626786Y-15515214D01*
X15583928Y-15515214D01*
X15555357Y-15500929D01*
X15541071Y-15472357D01*
X15541071Y-15458071D01*
X15555357Y-15429500D01*
X15583928Y-15415214D01*
X15626786Y-15415214D01*
X15655357Y-15429500D01*
X15769643Y-15729500D02*
X15783928Y-15715214D01*
X15812500Y-15672357D01*
X15826786Y-15643786D01*
X15841071Y-15600929D01*
X15855357Y-15529500D01*
X15855357Y-15472357D01*
X15841071Y-15400929D01*
X15826786Y-15358071D01*
X15812500Y-15329500D01*
X15783928Y-15286643D01*
X15769643Y-15272357D01*
X8984467Y-15906967D02*
X8984467Y-15844033D01*
X8921533Y-15844033D01*
X8921533Y-15906967D01*
X8984467Y-15906967D01*
X9341071Y-15711214D02*
X9369643Y-15711214D01*
X9398214Y-15725500D01*
X9412500Y-15739786D01*
X9426786Y-15768357D01*
X9441071Y-15825500D01*
X9441071Y-15896929D01*
X9426786Y-15954071D01*
X9412500Y-15982643D01*
X9398214Y-15996929D01*
X9369643Y-16011214D01*
X9341071Y-16011214D01*
X9312500Y-15996929D01*
X9298214Y-15982643D01*
X9283928Y-15954071D01*
X9269643Y-15896929D01*
X9269643Y-15825500D01*
X9283928Y-15768357D01*
X9298214Y-15739786D01*
X9312500Y-15725500D01*
X9341071Y-15711214D01*
X9569643Y-15982643D02*
X9583928Y-15996929D01*
X9569643Y-16011214D01*
X9555357Y-15996929D01*
X9569643Y-15982643D01*
X9569643Y-16011214D01*
X9755357Y-15839786D02*
X9726786Y-15825500D01*
X9712500Y-15811214D01*
X9698214Y-15782643D01*
X9698214Y-15768357D01*
X9712500Y-15739786D01*
X9726786Y-15725500D01*
X9755357Y-15711214D01*
X9812500Y-15711214D01*
X9841071Y-15725500D01*
X9855357Y-15739786D01*
X9869643Y-15768357D01*
X9869643Y-15782643D01*
X9855357Y-15811214D01*
X9841071Y-15825500D01*
X9812500Y-15839786D01*
X9755357Y-15839786D01*
X9726786Y-15854071D01*
X9712500Y-15868357D01*
X9698214Y-15896929D01*
X9698214Y-15954071D01*
X9712500Y-15982643D01*
X9726786Y-15996929D01*
X9755357Y-16011214D01*
X9812500Y-16011214D01*
X9841071Y-15996929D01*
X9855357Y-15982643D01*
X9869643Y-15954071D01*
X9869643Y-15896929D01*
X9855357Y-15868357D01*
X9841071Y-15854071D01*
X9812500Y-15839786D01*
X10012500Y-16011214D02*
X10069643Y-16011214D01*
X10098214Y-15996929D01*
X10112500Y-15982643D01*
X10141071Y-15939786D01*
X10155357Y-15882643D01*
X10155357Y-15768357D01*
X10141071Y-15739786D01*
X10126786Y-15725500D01*
X10098214Y-15711214D01*
X10041071Y-15711214D01*
X10012500Y-15725500D01*
X9998214Y-15739786D01*
X9983928Y-15768357D01*
X9983928Y-15839786D01*
X9998214Y-15868357D01*
X10012500Y-15882643D01*
X10041071Y-15896929D01*
X10098214Y-15896929D01*
X10126786Y-15882643D01*
X10141071Y-15868357D01*
X10155357Y-15839786D01*
X10283928Y-16011214D02*
X10283928Y-15811214D01*
X10283928Y-15839786D02*
X10298214Y-15825500D01*
X10326786Y-15811214D01*
X10369643Y-15811214D01*
X10398214Y-15825500D01*
X10412500Y-15854071D01*
X10412500Y-16011214D01*
X10412500Y-15854071D02*
X10426786Y-15825500D01*
X10455357Y-15811214D01*
X10498214Y-15811214D01*
X10526786Y-15825500D01*
X10541071Y-15854071D01*
X10541071Y-16011214D01*
X10683928Y-16011214D02*
X10683928Y-15811214D01*
X10683928Y-15839786D02*
X10698214Y-15825500D01*
X10726786Y-15811214D01*
X10769643Y-15811214D01*
X10798214Y-15825500D01*
X10812500Y-15854071D01*
X10812500Y-16011214D01*
X10812500Y-15854071D02*
X10826786Y-15825500D01*
X10855357Y-15811214D01*
X10898214Y-15811214D01*
X10926786Y-15825500D01*
X10941071Y-15854071D01*
X10941071Y-16011214D01*
X11526786Y-15696929D02*
X11269643Y-16082643D01*
X11912500Y-15711214D02*
X11941071Y-15711214D01*
X11969643Y-15725500D01*
X11983928Y-15739786D01*
X11998214Y-15768357D01*
X12012500Y-15825500D01*
X12012500Y-15896929D01*
X11998214Y-15954071D01*
X11983928Y-15982643D01*
X11969643Y-15996929D01*
X11941071Y-16011214D01*
X11912500Y-16011214D01*
X11883928Y-15996929D01*
X11869643Y-15982643D01*
X11855357Y-15954071D01*
X11841071Y-15896929D01*
X11841071Y-15825500D01*
X11855357Y-15768357D01*
X11869643Y-15739786D01*
X11883928Y-15725500D01*
X11912500Y-15711214D01*
X12141071Y-15982643D02*
X12155357Y-15996929D01*
X12141071Y-16011214D01*
X12126786Y-15996929D01*
X12141071Y-15982643D01*
X12141071Y-16011214D01*
X12341071Y-15711214D02*
X12369643Y-15711214D01*
X12398214Y-15725500D01*
X12412500Y-15739786D01*
X12426786Y-15768357D01*
X12441071Y-15825500D01*
X12441071Y-15896929D01*
X12426786Y-15954071D01*
X12412500Y-15982643D01*
X12398214Y-15996929D01*
X12369643Y-16011214D01*
X12341071Y-16011214D01*
X12312500Y-15996929D01*
X12298214Y-15982643D01*
X12283928Y-15954071D01*
X12269643Y-15896929D01*
X12269643Y-15825500D01*
X12283928Y-15768357D01*
X12298214Y-15739786D01*
X12312500Y-15725500D01*
X12341071Y-15711214D01*
X12541071Y-15711214D02*
X12726786Y-15711214D01*
X12626786Y-15825500D01*
X12669643Y-15825500D01*
X12698214Y-15839786D01*
X12712500Y-15854071D01*
X12726786Y-15882643D01*
X12726786Y-15954071D01*
X12712500Y-15982643D01*
X12698214Y-15996929D01*
X12669643Y-16011214D01*
X12583928Y-16011214D01*
X12555357Y-15996929D01*
X12541071Y-15982643D01*
X12998214Y-15711214D02*
X12855357Y-15711214D01*
X12841071Y-15854071D01*
X12855357Y-15839786D01*
X12883928Y-15825500D01*
X12955357Y-15825500D01*
X12983928Y-15839786D01*
X12998214Y-15854071D01*
X13012500Y-15882643D01*
X13012500Y-15954071D01*
X12998214Y-15982643D01*
X12983928Y-15996929D01*
X12955357Y-16011214D01*
X12883928Y-16011214D01*
X12855357Y-15996929D01*
X12841071Y-15982643D01*
X13126786Y-15711214D02*
X13126786Y-15768357D01*
X13241071Y-15711214D02*
X13241071Y-15768357D01*
X13683928Y-16125500D02*
X13669643Y-16111214D01*
X13641071Y-16068357D01*
X13626786Y-16039786D01*
X13612500Y-15996929D01*
X13598214Y-15925500D01*
X13598214Y-15868357D01*
X13612500Y-15796929D01*
X13626786Y-15754071D01*
X13641071Y-15725500D01*
X13669643Y-15682643D01*
X13683928Y-15668357D01*
X13926786Y-15711214D02*
X13869643Y-15711214D01*
X13841071Y-15725500D01*
X13826786Y-15739786D01*
X13798214Y-15782643D01*
X13783928Y-15839786D01*
X13783928Y-15954071D01*
X13798214Y-15982643D01*
X13812500Y-15996929D01*
X13841071Y-16011214D01*
X13898214Y-16011214D01*
X13926786Y-15996929D01*
X13941071Y-15982643D01*
X13955357Y-15954071D01*
X13955357Y-15882643D01*
X13941071Y-15854071D01*
X13926786Y-15839786D01*
X13898214Y-15825500D01*
X13841071Y-15825500D01*
X13812500Y-15839786D01*
X13798214Y-15854071D01*
X13783928Y-15882643D01*
X14312500Y-16011214D02*
X14312500Y-15711214D01*
X14441071Y-16011214D02*
X14441071Y-15854071D01*
X14426786Y-15825500D01*
X14398214Y-15811214D01*
X14355357Y-15811214D01*
X14326786Y-15825500D01*
X14312500Y-15839786D01*
X14626786Y-16011214D02*
X14598214Y-15996929D01*
X14583928Y-15982643D01*
X14569643Y-15954071D01*
X14569643Y-15868357D01*
X14583928Y-15839786D01*
X14598214Y-15825500D01*
X14626786Y-15811214D01*
X14669643Y-15811214D01*
X14698214Y-15825500D01*
X14712500Y-15839786D01*
X14726786Y-15868357D01*
X14726786Y-15954071D01*
X14712500Y-15982643D01*
X14698214Y-15996929D01*
X14669643Y-16011214D01*
X14626786Y-16011214D01*
X14898214Y-16011214D02*
X14869643Y-15996929D01*
X14855357Y-15968357D01*
X14855357Y-15711214D01*
X15126786Y-15996929D02*
X15098214Y-16011214D01*
X15041071Y-16011214D01*
X15012500Y-15996929D01*
X14998214Y-15968357D01*
X14998214Y-15854071D01*
X15012500Y-15825500D01*
X15041071Y-15811214D01*
X15098214Y-15811214D01*
X15126786Y-15825500D01*
X15141071Y-15854071D01*
X15141071Y-15882643D01*
X14998214Y-15911214D01*
X15255357Y-15996929D02*
X15283928Y-16011214D01*
X15341071Y-16011214D01*
X15369643Y-15996929D01*
X15383928Y-15968357D01*
X15383928Y-15954071D01*
X15369643Y-15925500D01*
X15341071Y-15911214D01*
X15298214Y-15911214D01*
X15269643Y-15896929D01*
X15255357Y-15868357D01*
X15255357Y-15854071D01*
X15269643Y-15825500D01*
X15298214Y-15811214D01*
X15341071Y-15811214D01*
X15369643Y-15825500D01*
X15483928Y-16125500D02*
X15498214Y-16111214D01*
X15526786Y-16068357D01*
X15541071Y-16039786D01*
X15555357Y-15996929D01*
X15569643Y-15925500D01*
X15569643Y-15868357D01*
X15555357Y-15796929D01*
X15541071Y-15754071D01*
X15526786Y-15725500D01*
X15498214Y-15682643D01*
X15483928Y-15668357D01*
X8952500Y-16316500D02*
X8997500Y-16271500D01*
X8952500Y-16226500D01*
X8907500Y-16271500D01*
X8952500Y-16316500D01*
X9341071Y-16107214D02*
X9369643Y-16107214D01*
X9398214Y-16121500D01*
X9412500Y-16135786D01*
X9426786Y-16164357D01*
X9441071Y-16221500D01*
X9441071Y-16292929D01*
X9426786Y-16350071D01*
X9412500Y-16378643D01*
X9398214Y-16392929D01*
X9369643Y-16407214D01*
X9341071Y-16407214D01*
X9312500Y-16392929D01*
X9298214Y-16378643D01*
X9283928Y-16350071D01*
X9269643Y-16292929D01*
X9269643Y-16221500D01*
X9283928Y-16164357D01*
X9298214Y-16135786D01*
X9312500Y-16121500D01*
X9341071Y-16107214D01*
X9569643Y-16378643D02*
X9583928Y-16392929D01*
X9569643Y-16407214D01*
X9555357Y-16392929D01*
X9569643Y-16378643D01*
X9569643Y-16407214D01*
X9726786Y-16407214D02*
X9783928Y-16407214D01*
X9812500Y-16392929D01*
X9826786Y-16378643D01*
X9855357Y-16335786D01*
X9869643Y-16278643D01*
X9869643Y-16164357D01*
X9855357Y-16135786D01*
X9841071Y-16121500D01*
X9812500Y-16107214D01*
X9755357Y-16107214D01*
X9726786Y-16121500D01*
X9712500Y-16135786D01*
X9698214Y-16164357D01*
X9698214Y-16235786D01*
X9712500Y-16264357D01*
X9726786Y-16278643D01*
X9755357Y-16292929D01*
X9812500Y-16292929D01*
X9841071Y-16278643D01*
X9855357Y-16264357D01*
X9869643Y-16235786D01*
X10055357Y-16107214D02*
X10083928Y-16107214D01*
X10112500Y-16121500D01*
X10126786Y-16135786D01*
X10141071Y-16164357D01*
X10155357Y-16221500D01*
X10155357Y-16292929D01*
X10141071Y-16350071D01*
X10126786Y-16378643D01*
X10112500Y-16392929D01*
X10083928Y-16407214D01*
X10055357Y-16407214D01*
X10026786Y-16392929D01*
X10012500Y-16378643D01*
X9998214Y-16350071D01*
X9983928Y-16292929D01*
X9983928Y-16221500D01*
X9998214Y-16164357D01*
X10012500Y-16135786D01*
X10026786Y-16121500D01*
X10055357Y-16107214D01*
X10283928Y-16407214D02*
X10283928Y-16207214D01*
X10283928Y-16235786D02*
X10298214Y-16221500D01*
X10326786Y-16207214D01*
X10369643Y-16207214D01*
X10398214Y-16221500D01*
X10412500Y-16250071D01*
X10412500Y-16407214D01*
X10412500Y-16250071D02*
X10426786Y-16221500D01*
X10455357Y-16207214D01*
X10498214Y-16207214D01*
X10526786Y-16221500D01*
X10541071Y-16250071D01*
X10541071Y-16407214D01*
X10683928Y-16407214D02*
X10683928Y-16207214D01*
X10683928Y-16235786D02*
X10698214Y-16221500D01*
X10726786Y-16207214D01*
X10769643Y-16207214D01*
X10798214Y-16221500D01*
X10812500Y-16250071D01*
X10812500Y-16407214D01*
X10812500Y-16250071D02*
X10826786Y-16221500D01*
X10855357Y-16207214D01*
X10898214Y-16207214D01*
X10926786Y-16221500D01*
X10941071Y-16250071D01*
X10941071Y-16407214D01*
X11526786Y-16092929D02*
X11269643Y-16478643D01*
X11912500Y-16107214D02*
X11941071Y-16107214D01*
X11969643Y-16121500D01*
X11983928Y-16135786D01*
X11998214Y-16164357D01*
X12012500Y-16221500D01*
X12012500Y-16292929D01*
X11998214Y-16350071D01*
X11983928Y-16378643D01*
X11969643Y-16392929D01*
X11941071Y-16407214D01*
X11912500Y-16407214D01*
X11883928Y-16392929D01*
X11869643Y-16378643D01*
X11855357Y-16350071D01*
X11841071Y-16292929D01*
X11841071Y-16221500D01*
X11855357Y-16164357D01*
X11869643Y-16135786D01*
X11883928Y-16121500D01*
X11912500Y-16107214D01*
X12141071Y-16378643D02*
X12155357Y-16392929D01*
X12141071Y-16407214D01*
X12126786Y-16392929D01*
X12141071Y-16378643D01*
X12141071Y-16407214D01*
X12341071Y-16107214D02*
X12369643Y-16107214D01*
X12398214Y-16121500D01*
X12412500Y-16135786D01*
X12426786Y-16164357D01*
X12441071Y-16221500D01*
X12441071Y-16292929D01*
X12426786Y-16350071D01*
X12412500Y-16378643D01*
X12398214Y-16392929D01*
X12369643Y-16407214D01*
X12341071Y-16407214D01*
X12312500Y-16392929D01*
X12298214Y-16378643D01*
X12283928Y-16350071D01*
X12269643Y-16292929D01*
X12269643Y-16221500D01*
X12283928Y-16164357D01*
X12298214Y-16135786D01*
X12312500Y-16121500D01*
X12341071Y-16107214D01*
X12541071Y-16107214D02*
X12726786Y-16107214D01*
X12626786Y-16221500D01*
X12669643Y-16221500D01*
X12698214Y-16235786D01*
X12712500Y-16250071D01*
X12726786Y-16278643D01*
X12726786Y-16350071D01*
X12712500Y-16378643D01*
X12698214Y-16392929D01*
X12669643Y-16407214D01*
X12583928Y-16407214D01*
X12555357Y-16392929D01*
X12541071Y-16378643D01*
X12998214Y-16107214D02*
X12855357Y-16107214D01*
X12841071Y-16250071D01*
X12855357Y-16235786D01*
X12883928Y-16221500D01*
X12955357Y-16221500D01*
X12983928Y-16235786D01*
X12998214Y-16250071D01*
X13012500Y-16278643D01*
X13012500Y-16350071D01*
X12998214Y-16378643D01*
X12983928Y-16392929D01*
X12955357Y-16407214D01*
X12883928Y-16407214D01*
X12855357Y-16392929D01*
X12841071Y-16378643D01*
X13126786Y-16107214D02*
X13126786Y-16164357D01*
X13241071Y-16107214D02*
X13241071Y-16164357D01*
X13683928Y-16521500D02*
X13669643Y-16507214D01*
X13641071Y-16464357D01*
X13626786Y-16435786D01*
X13612500Y-16392929D01*
X13598214Y-16321500D01*
X13598214Y-16264357D01*
X13612500Y-16192929D01*
X13626786Y-16150071D01*
X13641071Y-16121500D01*
X13669643Y-16078643D01*
X13683928Y-16064357D01*
X13941071Y-16107214D02*
X13798214Y-16107214D01*
X13783928Y-16250071D01*
X13798214Y-16235786D01*
X13826786Y-16221500D01*
X13898214Y-16221500D01*
X13926786Y-16235786D01*
X13941071Y-16250071D01*
X13955357Y-16278643D01*
X13955357Y-16350071D01*
X13941071Y-16378643D01*
X13926786Y-16392929D01*
X13898214Y-16407214D01*
X13826786Y-16407214D01*
X13798214Y-16392929D01*
X13783928Y-16378643D01*
X14141071Y-16107214D02*
X14169643Y-16107214D01*
X14198214Y-16121500D01*
X14212500Y-16135786D01*
X14226786Y-16164357D01*
X14241071Y-16221500D01*
X14241071Y-16292929D01*
X14226786Y-16350071D01*
X14212500Y-16378643D01*
X14198214Y-16392929D01*
X14169643Y-16407214D01*
X14141071Y-16407214D01*
X14112500Y-16392929D01*
X14098214Y-16378643D01*
X14083928Y-16350071D01*
X14069643Y-16292929D01*
X14069643Y-16221500D01*
X14083928Y-16164357D01*
X14098214Y-16135786D01*
X14112500Y-16121500D01*
X14141071Y-16107214D01*
X14598214Y-16407214D02*
X14598214Y-16107214D01*
X14726786Y-16407214D02*
X14726786Y-16250071D01*
X14712500Y-16221500D01*
X14683928Y-16207214D01*
X14641071Y-16207214D01*
X14612500Y-16221500D01*
X14598214Y-16235786D01*
X14912500Y-16407214D02*
X14883928Y-16392929D01*
X14869643Y-16378643D01*
X14855357Y-16350071D01*
X14855357Y-16264357D01*
X14869643Y-16235786D01*
X14883928Y-16221500D01*
X14912500Y-16207214D01*
X14955357Y-16207214D01*
X14983928Y-16221500D01*
X14998214Y-16235786D01*
X15012500Y-16264357D01*
X15012500Y-16350071D01*
X14998214Y-16378643D01*
X14983928Y-16392929D01*
X14955357Y-16407214D01*
X14912500Y-16407214D01*
X15183928Y-16407214D02*
X15155357Y-16392929D01*
X15141071Y-16364357D01*
X15141071Y-16107214D01*
X15412500Y-16392929D02*
X15383928Y-16407214D01*
X15326786Y-16407214D01*
X15298214Y-16392929D01*
X15283928Y-16364357D01*
X15283928Y-16250071D01*
X15298214Y-16221500D01*
X15326786Y-16207214D01*
X15383928Y-16207214D01*
X15412500Y-16221500D01*
X15426786Y-16250071D01*
X15426786Y-16278643D01*
X15283928Y-16307214D01*
X15541071Y-16392929D02*
X15569643Y-16407214D01*
X15626786Y-16407214D01*
X15655357Y-16392929D01*
X15669643Y-16364357D01*
X15669643Y-16350071D01*
X15655357Y-16321500D01*
X15626786Y-16307214D01*
X15583928Y-16307214D01*
X15555357Y-16292929D01*
X15541071Y-16264357D01*
X15541071Y-16250071D01*
X15555357Y-16221500D01*
X15583928Y-16207214D01*
X15626786Y-16207214D01*
X15655357Y-16221500D01*
X15769643Y-16521500D02*
X15783928Y-16507214D01*
X15812500Y-16464357D01*
X15826786Y-16435786D01*
X15841071Y-16392929D01*
X15855357Y-16321500D01*
X15855357Y-16264357D01*
X15841071Y-16192929D01*
X15826786Y-16150071D01*
X15812500Y-16121500D01*
X15783928Y-16078643D01*
X15769643Y-16064357D01*
X8897500Y-16617500D02*
X8997500Y-16717500D01*
X8997500Y-16617500D02*
X8897500Y-16717500D01*
X8997500Y-16667500D02*
G75*
G03*
X8997500Y-16667500I-50000J0D01*
G01*
X9441071Y-16803214D02*
X9269643Y-16803214D01*
X9355357Y-16803214D02*
X9355357Y-16503214D01*
X9326786Y-16546071D01*
X9298214Y-16574643D01*
X9269643Y-16588929D01*
X9569643Y-16774643D02*
X9583928Y-16788929D01*
X9569643Y-16803214D01*
X9555357Y-16788929D01*
X9569643Y-16774643D01*
X9569643Y-16803214D01*
X9769643Y-16503214D02*
X9798214Y-16503214D01*
X9826786Y-16517500D01*
X9841071Y-16531786D01*
X9855357Y-16560357D01*
X9869643Y-16617500D01*
X9869643Y-16688929D01*
X9855357Y-16746071D01*
X9841071Y-16774643D01*
X9826786Y-16788929D01*
X9798214Y-16803214D01*
X9769643Y-16803214D01*
X9741071Y-16788929D01*
X9726786Y-16774643D01*
X9712500Y-16746071D01*
X9698214Y-16688929D01*
X9698214Y-16617500D01*
X9712500Y-16560357D01*
X9726786Y-16531786D01*
X9741071Y-16517500D01*
X9769643Y-16503214D01*
X10055357Y-16503214D02*
X10083928Y-16503214D01*
X10112500Y-16517500D01*
X10126786Y-16531786D01*
X10141071Y-16560357D01*
X10155357Y-16617500D01*
X10155357Y-16688929D01*
X10141071Y-16746071D01*
X10126786Y-16774643D01*
X10112500Y-16788929D01*
X10083928Y-16803214D01*
X10055357Y-16803214D01*
X10026786Y-16788929D01*
X10012500Y-16774643D01*
X9998214Y-16746071D01*
X9983928Y-16688929D01*
X9983928Y-16617500D01*
X9998214Y-16560357D01*
X10012500Y-16531786D01*
X10026786Y-16517500D01*
X10055357Y-16503214D01*
X10283928Y-16803214D02*
X10283928Y-16603214D01*
X10283928Y-16631786D02*
X10298214Y-16617500D01*
X10326786Y-16603214D01*
X10369643Y-16603214D01*
X10398214Y-16617500D01*
X10412500Y-16646071D01*
X10412500Y-16803214D01*
X10412500Y-16646071D02*
X10426786Y-16617500D01*
X10455357Y-16603214D01*
X10498214Y-16603214D01*
X10526786Y-16617500D01*
X10541071Y-16646071D01*
X10541071Y-16803214D01*
X10683928Y-16803214D02*
X10683928Y-16603214D01*
X10683928Y-16631786D02*
X10698214Y-16617500D01*
X10726786Y-16603214D01*
X10769643Y-16603214D01*
X10798214Y-16617500D01*
X10812500Y-16646071D01*
X10812500Y-16803214D01*
X10812500Y-16646071D02*
X10826786Y-16617500D01*
X10855357Y-16603214D01*
X10898214Y-16603214D01*
X10926786Y-16617500D01*
X10941071Y-16646071D01*
X10941071Y-16803214D01*
X11526786Y-16488929D02*
X11269643Y-16874643D01*
X11912500Y-16503214D02*
X11941071Y-16503214D01*
X11969643Y-16517500D01*
X11983928Y-16531786D01*
X11998214Y-16560357D01*
X12012500Y-16617500D01*
X12012500Y-16688929D01*
X11998214Y-16746071D01*
X11983928Y-16774643D01*
X11969643Y-16788929D01*
X11941071Y-16803214D01*
X11912500Y-16803214D01*
X11883928Y-16788929D01*
X11869643Y-16774643D01*
X11855357Y-16746071D01*
X11841071Y-16688929D01*
X11841071Y-16617500D01*
X11855357Y-16560357D01*
X11869643Y-16531786D01*
X11883928Y-16517500D01*
X11912500Y-16503214D01*
X12141071Y-16774643D02*
X12155357Y-16788929D01*
X12141071Y-16803214D01*
X12126786Y-16788929D01*
X12141071Y-16774643D01*
X12141071Y-16803214D01*
X12341071Y-16503214D02*
X12369643Y-16503214D01*
X12398214Y-16517500D01*
X12412500Y-16531786D01*
X12426786Y-16560357D01*
X12441071Y-16617500D01*
X12441071Y-16688929D01*
X12426786Y-16746071D01*
X12412500Y-16774643D01*
X12398214Y-16788929D01*
X12369643Y-16803214D01*
X12341071Y-16803214D01*
X12312500Y-16788929D01*
X12298214Y-16774643D01*
X12283928Y-16746071D01*
X12269643Y-16688929D01*
X12269643Y-16617500D01*
X12283928Y-16560357D01*
X12298214Y-16531786D01*
X12312500Y-16517500D01*
X12341071Y-16503214D01*
X12541071Y-16503214D02*
X12726786Y-16503214D01*
X12626786Y-16617500D01*
X12669643Y-16617500D01*
X12698214Y-16631786D01*
X12712500Y-16646071D01*
X12726786Y-16674643D01*
X12726786Y-16746071D01*
X12712500Y-16774643D01*
X12698214Y-16788929D01*
X12669643Y-16803214D01*
X12583928Y-16803214D01*
X12555357Y-16788929D01*
X12541071Y-16774643D01*
X12869643Y-16803214D02*
X12926786Y-16803214D01*
X12955357Y-16788929D01*
X12969643Y-16774643D01*
X12998214Y-16731786D01*
X13012500Y-16674643D01*
X13012500Y-16560357D01*
X12998214Y-16531786D01*
X12983928Y-16517500D01*
X12955357Y-16503214D01*
X12898214Y-16503214D01*
X12869643Y-16517500D01*
X12855357Y-16531786D01*
X12841071Y-16560357D01*
X12841071Y-16631786D01*
X12855357Y-16660357D01*
X12869643Y-16674643D01*
X12898214Y-16688929D01*
X12955357Y-16688929D01*
X12983928Y-16674643D01*
X12998214Y-16660357D01*
X13012500Y-16631786D01*
X13126786Y-16503214D02*
X13126786Y-16560357D01*
X13241071Y-16503214D02*
X13241071Y-16560357D01*
X13683928Y-16917500D02*
X13669643Y-16903214D01*
X13641071Y-16860357D01*
X13626786Y-16831786D01*
X13612500Y-16788929D01*
X13598214Y-16717500D01*
X13598214Y-16660357D01*
X13612500Y-16588929D01*
X13626786Y-16546071D01*
X13641071Y-16517500D01*
X13669643Y-16474643D01*
X13683928Y-16460357D01*
X13926786Y-16503214D02*
X13869643Y-16503214D01*
X13841071Y-16517500D01*
X13826786Y-16531786D01*
X13798214Y-16574643D01*
X13783928Y-16631786D01*
X13783928Y-16746071D01*
X13798214Y-16774643D01*
X13812500Y-16788929D01*
X13841071Y-16803214D01*
X13898214Y-16803214D01*
X13926786Y-16788929D01*
X13941071Y-16774643D01*
X13955357Y-16746071D01*
X13955357Y-16674643D01*
X13941071Y-16646071D01*
X13926786Y-16631786D01*
X13898214Y-16617500D01*
X13841071Y-16617500D01*
X13812500Y-16631786D01*
X13798214Y-16646071D01*
X13783928Y-16674643D01*
X14312500Y-16803214D02*
X14312500Y-16503214D01*
X14441071Y-16803214D02*
X14441071Y-16646071D01*
X14426786Y-16617500D01*
X14398214Y-16603214D01*
X14355357Y-16603214D01*
X14326786Y-16617500D01*
X14312500Y-16631786D01*
X14626786Y-16803214D02*
X14598214Y-16788929D01*
X14583928Y-16774643D01*
X14569643Y-16746071D01*
X14569643Y-16660357D01*
X14583928Y-16631786D01*
X14598214Y-16617500D01*
X14626786Y-16603214D01*
X14669643Y-16603214D01*
X14698214Y-16617500D01*
X14712500Y-16631786D01*
X14726786Y-16660357D01*
X14726786Y-16746071D01*
X14712500Y-16774643D01*
X14698214Y-16788929D01*
X14669643Y-16803214D01*
X14626786Y-16803214D01*
X14898214Y-16803214D02*
X14869643Y-16788929D01*
X14855357Y-16760357D01*
X14855357Y-16503214D01*
X15126786Y-16788929D02*
X15098214Y-16803214D01*
X15041071Y-16803214D01*
X15012500Y-16788929D01*
X14998214Y-16760357D01*
X14998214Y-16646071D01*
X15012500Y-16617500D01*
X15041071Y-16603214D01*
X15098214Y-16603214D01*
X15126786Y-16617500D01*
X15141071Y-16646071D01*
X15141071Y-16674643D01*
X14998214Y-16703214D01*
X15255357Y-16788929D02*
X15283928Y-16803214D01*
X15341071Y-16803214D01*
X15369643Y-16788929D01*
X15383928Y-16760357D01*
X15383928Y-16746071D01*
X15369643Y-16717500D01*
X15341071Y-16703214D01*
X15298214Y-16703214D01*
X15269643Y-16688929D01*
X15255357Y-16660357D01*
X15255357Y-16646071D01*
X15269643Y-16617500D01*
X15298214Y-16603214D01*
X15341071Y-16603214D01*
X15369643Y-16617500D01*
X15741071Y-16688929D02*
X15969643Y-16688929D01*
X15855357Y-16803214D02*
X15855357Y-16574643D01*
X16469643Y-16603214D02*
X16469643Y-16803214D01*
X16398214Y-16488929D02*
X16326786Y-16703214D01*
X16512500Y-16703214D01*
X16841071Y-16788929D02*
X16869643Y-16803214D01*
X16926786Y-16803214D01*
X16955357Y-16788929D01*
X16969643Y-16760357D01*
X16969643Y-16746071D01*
X16955357Y-16717500D01*
X16926786Y-16703214D01*
X16883928Y-16703214D01*
X16855357Y-16688929D01*
X16841071Y-16660357D01*
X16841071Y-16646071D01*
X16855357Y-16617500D01*
X16883928Y-16603214D01*
X16926786Y-16603214D01*
X16955357Y-16617500D01*
X17141071Y-16803214D02*
X17112500Y-16788929D01*
X17098214Y-16760357D01*
X17098214Y-16503214D01*
X17298214Y-16803214D02*
X17269643Y-16788929D01*
X17255357Y-16774643D01*
X17241071Y-16746071D01*
X17241071Y-16660357D01*
X17255357Y-16631786D01*
X17269643Y-16617500D01*
X17298214Y-16603214D01*
X17341071Y-16603214D01*
X17369643Y-16617500D01*
X17383928Y-16631786D01*
X17398214Y-16660357D01*
X17398214Y-16746071D01*
X17383928Y-16774643D01*
X17369643Y-16788929D01*
X17341071Y-16803214D01*
X17298214Y-16803214D01*
X17483928Y-16603214D02*
X17598214Y-16603214D01*
X17526786Y-16503214D02*
X17526786Y-16760357D01*
X17541071Y-16788929D01*
X17569643Y-16803214D01*
X17598214Y-16803214D01*
X17683928Y-16788929D02*
X17712500Y-16803214D01*
X17769643Y-16803214D01*
X17798214Y-16788929D01*
X17812500Y-16760357D01*
X17812500Y-16746071D01*
X17798214Y-16717500D01*
X17769643Y-16703214D01*
X17726786Y-16703214D01*
X17698214Y-16688929D01*
X17683928Y-16660357D01*
X17683928Y-16646071D01*
X17698214Y-16617500D01*
X17726786Y-16603214D01*
X17769643Y-16603214D01*
X17798214Y-16617500D01*
X17912500Y-16917500D02*
X17926786Y-16903214D01*
X17955357Y-16860357D01*
X17969643Y-16831786D01*
X17983928Y-16788929D01*
X17998214Y-16717500D01*
X17998214Y-16660357D01*
X17983928Y-16588929D01*
X17969643Y-16546071D01*
X17955357Y-16517500D01*
X17926786Y-16474643D01*
X17912500Y-16460357D01*
X8877500Y-17003500D02*
X8997500Y-17123500D01*
X8997500Y-17003500D02*
X8877500Y-17123500D01*
X8937500Y-17003500D02*
X8937500Y-17123500D01*
X8877500Y-17063500D02*
X8997500Y-17063500D01*
X9441071Y-17199214D02*
X9269643Y-17199214D01*
X9355357Y-17199214D02*
X9355357Y-16899214D01*
X9326786Y-16942072D01*
X9298214Y-16970643D01*
X9269643Y-16984929D01*
X9569643Y-17170643D02*
X9583928Y-17184929D01*
X9569643Y-17199214D01*
X9555357Y-17184929D01*
X9569643Y-17170643D01*
X9569643Y-17199214D01*
X9698214Y-16927786D02*
X9712500Y-16913500D01*
X9741071Y-16899214D01*
X9812500Y-16899214D01*
X9841071Y-16913500D01*
X9855357Y-16927786D01*
X9869643Y-16956357D01*
X9869643Y-16984929D01*
X9855357Y-17027786D01*
X9683928Y-17199214D01*
X9869643Y-17199214D01*
X10055357Y-16899214D02*
X10083928Y-16899214D01*
X10112500Y-16913500D01*
X10126786Y-16927786D01*
X10141071Y-16956357D01*
X10155357Y-17013500D01*
X10155357Y-17084929D01*
X10141071Y-17142072D01*
X10126786Y-17170643D01*
X10112500Y-17184929D01*
X10083928Y-17199214D01*
X10055357Y-17199214D01*
X10026786Y-17184929D01*
X10012500Y-17170643D01*
X9998214Y-17142072D01*
X9983928Y-17084929D01*
X9983928Y-17013500D01*
X9998214Y-16956357D01*
X10012500Y-16927786D01*
X10026786Y-16913500D01*
X10055357Y-16899214D01*
X10283928Y-17199214D02*
X10283928Y-16999214D01*
X10283928Y-17027786D02*
X10298214Y-17013500D01*
X10326786Y-16999214D01*
X10369643Y-16999214D01*
X10398214Y-17013500D01*
X10412500Y-17042072D01*
X10412500Y-17199214D01*
X10412500Y-17042072D02*
X10426786Y-17013500D01*
X10455357Y-16999214D01*
X10498214Y-16999214D01*
X10526786Y-17013500D01*
X10541071Y-17042072D01*
X10541071Y-17199214D01*
X10683928Y-17199214D02*
X10683928Y-16999214D01*
X10683928Y-17027786D02*
X10698214Y-17013500D01*
X10726786Y-16999214D01*
X10769643Y-16999214D01*
X10798214Y-17013500D01*
X10812500Y-17042072D01*
X10812500Y-17199214D01*
X10812500Y-17042072D02*
X10826786Y-17013500D01*
X10855357Y-16999214D01*
X10898214Y-16999214D01*
X10926786Y-17013500D01*
X10941071Y-17042072D01*
X10941071Y-17199214D01*
X11526786Y-16884929D02*
X11269643Y-17270643D01*
X11912500Y-16899214D02*
X11941071Y-16899214D01*
X11969643Y-16913500D01*
X11983928Y-16927786D01*
X11998214Y-16956357D01*
X12012500Y-17013500D01*
X12012500Y-17084929D01*
X11998214Y-17142072D01*
X11983928Y-17170643D01*
X11969643Y-17184929D01*
X11941071Y-17199214D01*
X11912500Y-17199214D01*
X11883928Y-17184929D01*
X11869643Y-17170643D01*
X11855357Y-17142072D01*
X11841071Y-17084929D01*
X11841071Y-17013500D01*
X11855357Y-16956357D01*
X11869643Y-16927786D01*
X11883928Y-16913500D01*
X11912500Y-16899214D01*
X12141071Y-17170643D02*
X12155357Y-17184929D01*
X12141071Y-17199214D01*
X12126786Y-17184929D01*
X12141071Y-17170643D01*
X12141071Y-17199214D01*
X12341071Y-16899214D02*
X12369643Y-16899214D01*
X12398214Y-16913500D01*
X12412500Y-16927786D01*
X12426786Y-16956357D01*
X12441071Y-17013500D01*
X12441071Y-17084929D01*
X12426786Y-17142072D01*
X12412500Y-17170643D01*
X12398214Y-17184929D01*
X12369643Y-17199214D01*
X12341071Y-17199214D01*
X12312500Y-17184929D01*
X12298214Y-17170643D01*
X12283928Y-17142072D01*
X12269643Y-17084929D01*
X12269643Y-17013500D01*
X12283928Y-16956357D01*
X12298214Y-16927786D01*
X12312500Y-16913500D01*
X12341071Y-16899214D01*
X12698214Y-16999214D02*
X12698214Y-17199214D01*
X12626786Y-16884929D02*
X12555357Y-17099214D01*
X12741071Y-17099214D01*
X12826786Y-16899214D02*
X13026786Y-16899214D01*
X12898214Y-17199214D01*
X13126786Y-16899214D02*
X13126786Y-16956357D01*
X13241071Y-16899214D02*
X13241071Y-16956357D01*
X13683928Y-17313500D02*
X13669643Y-17299214D01*
X13641071Y-17256357D01*
X13626786Y-17227786D01*
X13612500Y-17184929D01*
X13598214Y-17113500D01*
X13598214Y-17056357D01*
X13612500Y-16984929D01*
X13626786Y-16942072D01*
X13641071Y-16913500D01*
X13669643Y-16870643D01*
X13683928Y-16856357D01*
X13841071Y-17027786D02*
X13812500Y-17013500D01*
X13798214Y-16999214D01*
X13783928Y-16970643D01*
X13783928Y-16956357D01*
X13798214Y-16927786D01*
X13812500Y-16913500D01*
X13841071Y-16899214D01*
X13898214Y-16899214D01*
X13926786Y-16913500D01*
X13941071Y-16927786D01*
X13955357Y-16956357D01*
X13955357Y-16970643D01*
X13941071Y-16999214D01*
X13926786Y-17013500D01*
X13898214Y-17027786D01*
X13841071Y-17027786D01*
X13812500Y-17042072D01*
X13798214Y-17056357D01*
X13783928Y-17084929D01*
X13783928Y-17142072D01*
X13798214Y-17170643D01*
X13812500Y-17184929D01*
X13841071Y-17199214D01*
X13898214Y-17199214D01*
X13926786Y-17184929D01*
X13941071Y-17170643D01*
X13955357Y-17142072D01*
X13955357Y-17084929D01*
X13941071Y-17056357D01*
X13926786Y-17042072D01*
X13898214Y-17027786D01*
X14312500Y-17199214D02*
X14312500Y-16899214D01*
X14441071Y-17199214D02*
X14441071Y-17042072D01*
X14426786Y-17013500D01*
X14398214Y-16999214D01*
X14355357Y-16999214D01*
X14326786Y-17013500D01*
X14312500Y-17027786D01*
X14626786Y-17199214D02*
X14598214Y-17184929D01*
X14583928Y-17170643D01*
X14569643Y-17142072D01*
X14569643Y-17056357D01*
X14583928Y-17027786D01*
X14598214Y-17013500D01*
X14626786Y-16999214D01*
X14669643Y-16999214D01*
X14698214Y-17013500D01*
X14712500Y-17027786D01*
X14726786Y-17056357D01*
X14726786Y-17142072D01*
X14712500Y-17170643D01*
X14698214Y-17184929D01*
X14669643Y-17199214D01*
X14626786Y-17199214D01*
X14898214Y-17199214D02*
X14869643Y-17184929D01*
X14855357Y-17156357D01*
X14855357Y-16899214D01*
X15126786Y-17184929D02*
X15098214Y-17199214D01*
X15041071Y-17199214D01*
X15012500Y-17184929D01*
X14998214Y-17156357D01*
X14998214Y-17042072D01*
X15012500Y-17013500D01*
X15041071Y-16999214D01*
X15098214Y-16999214D01*
X15126786Y-17013500D01*
X15141071Y-17042072D01*
X15141071Y-17070643D01*
X14998214Y-17099214D01*
X15255357Y-17184929D02*
X15283928Y-17199214D01*
X15341071Y-17199214D01*
X15369643Y-17184929D01*
X15383928Y-17156357D01*
X15383928Y-17142072D01*
X15369643Y-17113500D01*
X15341071Y-17099214D01*
X15298214Y-17099214D01*
X15269643Y-17084929D01*
X15255357Y-17056357D01*
X15255357Y-17042072D01*
X15269643Y-17013500D01*
X15298214Y-16999214D01*
X15341071Y-16999214D01*
X15369643Y-17013500D01*
X15483928Y-17313500D02*
X15498214Y-17299214D01*
X15526786Y-17256357D01*
X15541071Y-17227786D01*
X15555357Y-17184929D01*
X15569643Y-17113500D01*
X15569643Y-17056357D01*
X15555357Y-16984929D01*
X15541071Y-16942072D01*
X15526786Y-16913500D01*
X15498214Y-16870643D01*
X15483928Y-16856357D01*
X8796500Y-17359000D02*
X8997500Y-17560000D01*
X8997500Y-17359000D02*
X8796500Y-17560000D01*
X8968065Y-17530565D02*
X8968065Y-17388435D01*
X8825935Y-17388435D01*
X8825935Y-17530565D01*
X8968065Y-17530565D01*
X9269643Y-17323786D02*
X9283928Y-17309500D01*
X9312500Y-17295214D01*
X9383928Y-17295214D01*
X9412500Y-17309500D01*
X9426786Y-17323786D01*
X9441071Y-17352357D01*
X9441071Y-17380929D01*
X9426786Y-17423786D01*
X9255357Y-17595214D01*
X9441071Y-17595214D01*
X9569643Y-17566643D02*
X9583928Y-17580929D01*
X9569643Y-17595214D01*
X9555357Y-17580929D01*
X9569643Y-17566643D01*
X9569643Y-17595214D01*
X9769643Y-17295214D02*
X9798214Y-17295214D01*
X9826786Y-17309500D01*
X9841071Y-17323786D01*
X9855357Y-17352357D01*
X9869643Y-17409500D01*
X9869643Y-17480929D01*
X9855357Y-17538072D01*
X9841071Y-17566643D01*
X9826786Y-17580929D01*
X9798214Y-17595214D01*
X9769643Y-17595214D01*
X9741071Y-17580929D01*
X9726786Y-17566643D01*
X9712500Y-17538072D01*
X9698214Y-17480929D01*
X9698214Y-17409500D01*
X9712500Y-17352357D01*
X9726786Y-17323786D01*
X9741071Y-17309500D01*
X9769643Y-17295214D01*
X10155357Y-17595214D02*
X9983928Y-17595214D01*
X10069643Y-17595214D02*
X10069643Y-17295214D01*
X10041071Y-17338072D01*
X10012500Y-17366643D01*
X9983928Y-17380929D01*
X10283928Y-17595214D02*
X10283928Y-17395214D01*
X10283928Y-17423786D02*
X10298214Y-17409500D01*
X10326786Y-17395214D01*
X10369643Y-17395214D01*
X10398214Y-17409500D01*
X10412500Y-17438072D01*
X10412500Y-17595214D01*
X10412500Y-17438072D02*
X10426786Y-17409500D01*
X10455357Y-17395214D01*
X10498214Y-17395214D01*
X10526786Y-17409500D01*
X10541071Y-17438072D01*
X10541071Y-17595214D01*
X10683928Y-17595214D02*
X10683928Y-17395214D01*
X10683928Y-17423786D02*
X10698214Y-17409500D01*
X10726786Y-17395214D01*
X10769643Y-17395214D01*
X10798214Y-17409500D01*
X10812500Y-17438072D01*
X10812500Y-17595214D01*
X10812500Y-17438072D02*
X10826786Y-17409500D01*
X10855357Y-17395214D01*
X10898214Y-17395214D01*
X10926786Y-17409500D01*
X10941071Y-17438072D01*
X10941071Y-17595214D01*
X11526786Y-17280929D02*
X11269643Y-17666643D01*
X11912500Y-17295214D02*
X11941071Y-17295214D01*
X11969643Y-17309500D01*
X11983928Y-17323786D01*
X11998214Y-17352357D01*
X12012500Y-17409500D01*
X12012500Y-17480929D01*
X11998214Y-17538072D01*
X11983928Y-17566643D01*
X11969643Y-17580929D01*
X11941071Y-17595214D01*
X11912500Y-17595214D01*
X11883928Y-17580929D01*
X11869643Y-17566643D01*
X11855357Y-17538072D01*
X11841071Y-17480929D01*
X11841071Y-17409500D01*
X11855357Y-17352357D01*
X11869643Y-17323786D01*
X11883928Y-17309500D01*
X11912500Y-17295214D01*
X12141071Y-17566643D02*
X12155357Y-17580929D01*
X12141071Y-17595214D01*
X12126786Y-17580929D01*
X12141071Y-17566643D01*
X12141071Y-17595214D01*
X12341071Y-17295214D02*
X12369643Y-17295214D01*
X12398214Y-17309500D01*
X12412500Y-17323786D01*
X12426786Y-17352357D01*
X12441071Y-17409500D01*
X12441071Y-17480929D01*
X12426786Y-17538072D01*
X12412500Y-17566643D01*
X12398214Y-17580929D01*
X12369643Y-17595214D01*
X12341071Y-17595214D01*
X12312500Y-17580929D01*
X12298214Y-17566643D01*
X12283928Y-17538072D01*
X12269643Y-17480929D01*
X12269643Y-17409500D01*
X12283928Y-17352357D01*
X12298214Y-17323786D01*
X12312500Y-17309500D01*
X12341071Y-17295214D01*
X12541071Y-17295214D02*
X12741071Y-17295214D01*
X12612500Y-17595214D01*
X12869643Y-17595214D02*
X12926786Y-17595214D01*
X12955357Y-17580929D01*
X12969643Y-17566643D01*
X12998214Y-17523786D01*
X13012500Y-17466643D01*
X13012500Y-17352357D01*
X12998214Y-17323786D01*
X12983928Y-17309500D01*
X12955357Y-17295214D01*
X12898214Y-17295214D01*
X12869643Y-17309500D01*
X12855357Y-17323786D01*
X12841071Y-17352357D01*
X12841071Y-17423786D01*
X12855357Y-17452357D01*
X12869643Y-17466643D01*
X12898214Y-17480929D01*
X12955357Y-17480929D01*
X12983928Y-17466643D01*
X12998214Y-17452357D01*
X13012500Y-17423786D01*
X13126786Y-17295214D02*
X13126786Y-17352357D01*
X13241071Y-17295214D02*
X13241071Y-17352357D01*
X13683928Y-17709500D02*
X13669643Y-17695214D01*
X13641071Y-17652357D01*
X13626786Y-17623786D01*
X13612500Y-17580929D01*
X13598214Y-17509500D01*
X13598214Y-17452357D01*
X13612500Y-17380929D01*
X13626786Y-17338072D01*
X13641071Y-17309500D01*
X13669643Y-17266643D01*
X13683928Y-17252357D01*
X13926786Y-17295214D02*
X13869643Y-17295214D01*
X13841071Y-17309500D01*
X13826786Y-17323786D01*
X13798214Y-17366643D01*
X13783928Y-17423786D01*
X13783928Y-17538072D01*
X13798214Y-17566643D01*
X13812500Y-17580929D01*
X13841071Y-17595214D01*
X13898214Y-17595214D01*
X13926786Y-17580929D01*
X13941071Y-17566643D01*
X13955357Y-17538072D01*
X13955357Y-17466643D01*
X13941071Y-17438072D01*
X13926786Y-17423786D01*
X13898214Y-17409500D01*
X13841071Y-17409500D01*
X13812500Y-17423786D01*
X13798214Y-17438072D01*
X13783928Y-17466643D01*
X14312500Y-17595214D02*
X14312500Y-17295214D01*
X14441071Y-17595214D02*
X14441071Y-17438072D01*
X14426786Y-17409500D01*
X14398214Y-17395214D01*
X14355357Y-17395214D01*
X14326786Y-17409500D01*
X14312500Y-17423786D01*
X14626786Y-17595214D02*
X14598214Y-17580929D01*
X14583928Y-17566643D01*
X14569643Y-17538072D01*
X14569643Y-17452357D01*
X14583928Y-17423786D01*
X14598214Y-17409500D01*
X14626786Y-17395214D01*
X14669643Y-17395214D01*
X14698214Y-17409500D01*
X14712500Y-17423786D01*
X14726786Y-17452357D01*
X14726786Y-17538072D01*
X14712500Y-17566643D01*
X14698214Y-17580929D01*
X14669643Y-17595214D01*
X14626786Y-17595214D01*
X14898214Y-17595214D02*
X14869643Y-17580929D01*
X14855357Y-17552357D01*
X14855357Y-17295214D01*
X15126786Y-17580929D02*
X15098214Y-17595214D01*
X15041071Y-17595214D01*
X15012500Y-17580929D01*
X14998214Y-17552357D01*
X14998214Y-17438072D01*
X15012500Y-17409500D01*
X15041071Y-17395214D01*
X15098214Y-17395214D01*
X15126786Y-17409500D01*
X15141071Y-17438072D01*
X15141071Y-17466643D01*
X14998214Y-17495214D01*
X15255357Y-17580929D02*
X15283928Y-17595214D01*
X15341071Y-17595214D01*
X15369643Y-17580929D01*
X15383928Y-17552357D01*
X15383928Y-17538072D01*
X15369643Y-17509500D01*
X15341071Y-17495214D01*
X15298214Y-17495214D01*
X15269643Y-17480929D01*
X15255357Y-17452357D01*
X15255357Y-17438072D01*
X15269643Y-17409500D01*
X15298214Y-17395214D01*
X15341071Y-17395214D01*
X15369643Y-17409500D01*
X15483928Y-17709500D02*
X15498214Y-17695214D01*
X15526786Y-17652357D01*
X15541071Y-17623786D01*
X15555357Y-17580929D01*
X15569643Y-17509500D01*
X15569643Y-17452357D01*
X15555357Y-17380929D01*
X15541071Y-17338072D01*
X15526786Y-17309500D01*
X15498214Y-17266643D01*
X15483928Y-17252357D01*
M02*
