G04 #@! TF.GenerationSoftware,KiCad,Pcbnew,(5.1.9)-1*
G04 #@! TF.CreationDate,2021-04-24T22:48:03-05:00*
G04 #@! TF.ProjectId,high-gain-diff-probe,68696768-2d67-4616-996e-2d646966662d,rev?*
G04 #@! TF.SameCoordinates,Original*
G04 #@! TF.FileFunction,Other,Comment*
%FSLAX46Y46*%
G04 Gerber Fmt 4.6, Leading zero omitted, Abs format (unit mm)*
G04 Created by KiCad (PCBNEW (5.1.9)-1) date 2021-04-24 22:48:03*
%MOMM*%
%LPD*%
G01*
G04 APERTURE LIST*
%ADD10C,0.150000*%
G04 APERTURE END LIST*
D10*
X178435595Y-175827380D02*
X178435595Y-174827380D01*
X178673690Y-174827380D01*
X178816547Y-174875000D01*
X178911785Y-174970238D01*
X178959404Y-175065476D01*
X179007023Y-175255952D01*
X179007023Y-175398809D01*
X178959404Y-175589285D01*
X178911785Y-175684523D01*
X178816547Y-175779761D01*
X178673690Y-175827380D01*
X178435595Y-175827380D01*
X179816547Y-175779761D02*
X179721309Y-175827380D01*
X179530833Y-175827380D01*
X179435595Y-175779761D01*
X179387976Y-175684523D01*
X179387976Y-175303571D01*
X179435595Y-175208333D01*
X179530833Y-175160714D01*
X179721309Y-175160714D01*
X179816547Y-175208333D01*
X179864166Y-175303571D01*
X179864166Y-175398809D01*
X179387976Y-175494047D01*
X180245119Y-175779761D02*
X180340357Y-175827380D01*
X180530833Y-175827380D01*
X180626071Y-175779761D01*
X180673690Y-175684523D01*
X180673690Y-175636904D01*
X180626071Y-175541666D01*
X180530833Y-175494047D01*
X180387976Y-175494047D01*
X180292738Y-175446428D01*
X180245119Y-175351190D01*
X180245119Y-175303571D01*
X180292738Y-175208333D01*
X180387976Y-175160714D01*
X180530833Y-175160714D01*
X180626071Y-175208333D01*
X181102261Y-175827380D02*
X181102261Y-175160714D01*
X181102261Y-174827380D02*
X181054642Y-174875000D01*
X181102261Y-174922619D01*
X181149880Y-174875000D01*
X181102261Y-174827380D01*
X181102261Y-174922619D01*
X182007023Y-175160714D02*
X182007023Y-175970238D01*
X181959404Y-176065476D01*
X181911785Y-176113095D01*
X181816547Y-176160714D01*
X181673690Y-176160714D01*
X181578452Y-176113095D01*
X182007023Y-175779761D02*
X181911785Y-175827380D01*
X181721309Y-175827380D01*
X181626071Y-175779761D01*
X181578452Y-175732142D01*
X181530833Y-175636904D01*
X181530833Y-175351190D01*
X181578452Y-175255952D01*
X181626071Y-175208333D01*
X181721309Y-175160714D01*
X181911785Y-175160714D01*
X182007023Y-175208333D01*
X182483214Y-175160714D02*
X182483214Y-175827380D01*
X182483214Y-175255952D02*
X182530833Y-175208333D01*
X182626071Y-175160714D01*
X182768928Y-175160714D01*
X182864166Y-175208333D01*
X182911785Y-175303571D01*
X182911785Y-175827380D01*
X183768928Y-175779761D02*
X183673690Y-175827380D01*
X183483214Y-175827380D01*
X183387976Y-175779761D01*
X183340357Y-175684523D01*
X183340357Y-175303571D01*
X183387976Y-175208333D01*
X183483214Y-175160714D01*
X183673690Y-175160714D01*
X183768928Y-175208333D01*
X183816547Y-175303571D01*
X183816547Y-175398809D01*
X183340357Y-175494047D01*
X184673690Y-175827380D02*
X184673690Y-174827380D01*
X184673690Y-175779761D02*
X184578452Y-175827380D01*
X184387976Y-175827380D01*
X184292738Y-175779761D01*
X184245119Y-175732142D01*
X184197500Y-175636904D01*
X184197500Y-175351190D01*
X184245119Y-175255952D01*
X184292738Y-175208333D01*
X184387976Y-175160714D01*
X184578452Y-175160714D01*
X184673690Y-175208333D01*
X185768928Y-175160714D02*
X186149880Y-175160714D01*
X185911785Y-175827380D02*
X185911785Y-174970238D01*
X185959404Y-174875000D01*
X186054642Y-174827380D01*
X186149880Y-174827380D01*
X186626071Y-175827380D02*
X186530833Y-175779761D01*
X186483214Y-175732142D01*
X186435595Y-175636904D01*
X186435595Y-175351190D01*
X186483214Y-175255952D01*
X186530833Y-175208333D01*
X186626071Y-175160714D01*
X186768928Y-175160714D01*
X186864166Y-175208333D01*
X186911785Y-175255952D01*
X186959404Y-175351190D01*
X186959404Y-175636904D01*
X186911785Y-175732142D01*
X186864166Y-175779761D01*
X186768928Y-175827380D01*
X186626071Y-175827380D01*
X187387976Y-175827380D02*
X187387976Y-175160714D01*
X187387976Y-175351190D02*
X187435595Y-175255952D01*
X187483214Y-175208333D01*
X187578452Y-175160714D01*
X187673690Y-175160714D01*
X188768928Y-175303571D02*
X189102261Y-175303571D01*
X189245119Y-175827380D02*
X188768928Y-175827380D01*
X188768928Y-174827380D01*
X189245119Y-174827380D01*
X189673690Y-175160714D02*
X189673690Y-175827380D01*
X189673690Y-175255952D02*
X189721309Y-175208333D01*
X189816547Y-175160714D01*
X189959404Y-175160714D01*
X190054642Y-175208333D01*
X190102261Y-175303571D01*
X190102261Y-175827380D01*
X191007023Y-175779761D02*
X190911785Y-175827380D01*
X190721309Y-175827380D01*
X190626071Y-175779761D01*
X190578452Y-175732142D01*
X190530833Y-175636904D01*
X190530833Y-175351190D01*
X190578452Y-175255952D01*
X190626071Y-175208333D01*
X190721309Y-175160714D01*
X190911785Y-175160714D01*
X191007023Y-175208333D01*
X191578452Y-175827380D02*
X191483214Y-175779761D01*
X191435595Y-175684523D01*
X191435595Y-174827380D01*
X192102261Y-175827380D02*
X192007023Y-175779761D01*
X191959404Y-175732142D01*
X191911785Y-175636904D01*
X191911785Y-175351190D01*
X191959404Y-175255952D01*
X192007023Y-175208333D01*
X192102261Y-175160714D01*
X192245119Y-175160714D01*
X192340357Y-175208333D01*
X192387976Y-175255952D01*
X192435595Y-175351190D01*
X192435595Y-175636904D01*
X192387976Y-175732142D01*
X192340357Y-175779761D01*
X192245119Y-175827380D01*
X192102261Y-175827380D01*
X192816547Y-175779761D02*
X192911785Y-175827380D01*
X193102261Y-175827380D01*
X193197500Y-175779761D01*
X193245119Y-175684523D01*
X193245119Y-175636904D01*
X193197500Y-175541666D01*
X193102261Y-175494047D01*
X192959404Y-175494047D01*
X192864166Y-175446428D01*
X192816547Y-175351190D01*
X192816547Y-175303571D01*
X192864166Y-175208333D01*
X192959404Y-175160714D01*
X193102261Y-175160714D01*
X193197500Y-175208333D01*
X194102261Y-175160714D02*
X194102261Y-175827380D01*
X193673690Y-175160714D02*
X193673690Y-175684523D01*
X193721309Y-175779761D01*
X193816547Y-175827380D01*
X193959404Y-175827380D01*
X194054642Y-175779761D01*
X194102261Y-175732142D01*
X194578452Y-175827380D02*
X194578452Y-175160714D01*
X194578452Y-175351190D02*
X194626071Y-175255952D01*
X194673690Y-175208333D01*
X194768928Y-175160714D01*
X194864166Y-175160714D01*
X195578452Y-175779761D02*
X195483214Y-175827380D01*
X195292738Y-175827380D01*
X195197500Y-175779761D01*
X195149880Y-175684523D01*
X195149880Y-175303571D01*
X195197500Y-175208333D01*
X195292738Y-175160714D01*
X195483214Y-175160714D01*
X195578452Y-175208333D01*
X195626071Y-175303571D01*
X195626071Y-175398809D01*
X195149880Y-175494047D01*
X196054642Y-175732142D02*
X196102261Y-175779761D01*
X196054642Y-175827380D01*
X196007023Y-175779761D01*
X196054642Y-175732142D01*
X196054642Y-175827380D01*
X196054642Y-175208333D02*
X196102261Y-175255952D01*
X196054642Y-175303571D01*
X196007023Y-175255952D01*
X196054642Y-175208333D01*
X196054642Y-175303571D01*
X178435595Y-177477380D02*
X178435595Y-176477380D01*
X178435595Y-176953571D02*
X179007023Y-176953571D01*
X179007023Y-177477380D02*
X179007023Y-176477380D01*
X179911785Y-177477380D02*
X179911785Y-176953571D01*
X179864166Y-176858333D01*
X179768928Y-176810714D01*
X179578452Y-176810714D01*
X179483214Y-176858333D01*
X179911785Y-177429761D02*
X179816547Y-177477380D01*
X179578452Y-177477380D01*
X179483214Y-177429761D01*
X179435595Y-177334523D01*
X179435595Y-177239285D01*
X179483214Y-177144047D01*
X179578452Y-177096428D01*
X179816547Y-177096428D01*
X179911785Y-177048809D01*
X180387976Y-177477380D02*
X180387976Y-176810714D01*
X180387976Y-176905952D02*
X180435595Y-176858333D01*
X180530833Y-176810714D01*
X180673690Y-176810714D01*
X180768928Y-176858333D01*
X180816547Y-176953571D01*
X180816547Y-177477380D01*
X180816547Y-176953571D02*
X180864166Y-176858333D01*
X180959404Y-176810714D01*
X181102261Y-176810714D01*
X181197500Y-176858333D01*
X181245119Y-176953571D01*
X181245119Y-177477380D01*
X181721309Y-177477380D02*
X181721309Y-176810714D01*
X181721309Y-176905952D02*
X181768928Y-176858333D01*
X181864166Y-176810714D01*
X182007023Y-176810714D01*
X182102261Y-176858333D01*
X182149880Y-176953571D01*
X182149880Y-177477380D01*
X182149880Y-176953571D02*
X182197500Y-176858333D01*
X182292738Y-176810714D01*
X182435595Y-176810714D01*
X182530833Y-176858333D01*
X182578452Y-176953571D01*
X182578452Y-177477380D01*
X183197500Y-177477380D02*
X183102261Y-177429761D01*
X183054642Y-177382142D01*
X183007023Y-177286904D01*
X183007023Y-177001190D01*
X183054642Y-176905952D01*
X183102261Y-176858333D01*
X183197500Y-176810714D01*
X183340357Y-176810714D01*
X183435595Y-176858333D01*
X183483214Y-176905952D01*
X183530833Y-177001190D01*
X183530833Y-177286904D01*
X183483214Y-177382142D01*
X183435595Y-177429761D01*
X183340357Y-177477380D01*
X183197500Y-177477380D01*
X183959404Y-176810714D02*
X183959404Y-177477380D01*
X183959404Y-176905952D02*
X184007023Y-176858333D01*
X184102261Y-176810714D01*
X184245119Y-176810714D01*
X184340357Y-176858333D01*
X184387976Y-176953571D01*
X184387976Y-177477380D01*
X185292738Y-177477380D02*
X185292738Y-176477380D01*
X185292738Y-177429761D02*
X185197500Y-177477380D01*
X185007023Y-177477380D01*
X184911785Y-177429761D01*
X184864166Y-177382142D01*
X184816547Y-177286904D01*
X184816547Y-177001190D01*
X184864166Y-176905952D01*
X184911785Y-176858333D01*
X185007023Y-176810714D01*
X185197500Y-176810714D01*
X185292738Y-176858333D01*
X186530833Y-177477380D02*
X186530833Y-176477380D01*
X186864166Y-177191666D01*
X187197500Y-176477380D01*
X187197500Y-177477380D01*
X187530833Y-176810714D02*
X187911785Y-176810714D01*
X187673690Y-177477380D02*
X187673690Y-176620238D01*
X187721309Y-176525000D01*
X187816547Y-176477380D01*
X187911785Y-176477380D01*
X188673690Y-176810714D02*
X188673690Y-177620238D01*
X188626071Y-177715476D01*
X188578452Y-177763095D01*
X188483214Y-177810714D01*
X188340357Y-177810714D01*
X188245119Y-177763095D01*
X188673690Y-177429761D02*
X188578452Y-177477380D01*
X188387976Y-177477380D01*
X188292738Y-177429761D01*
X188245119Y-177382142D01*
X188197500Y-177286904D01*
X188197500Y-177001190D01*
X188245119Y-176905952D01*
X188292738Y-176858333D01*
X188387976Y-176810714D01*
X188578452Y-176810714D01*
X188673690Y-176858333D01*
X190435595Y-177477380D02*
X189864166Y-177477380D01*
X190149880Y-177477380D02*
X190149880Y-176477380D01*
X190054642Y-176620238D01*
X189959404Y-176715476D01*
X189864166Y-176763095D01*
X191292738Y-176810714D02*
X191292738Y-177477380D01*
X191054642Y-176429761D02*
X190816547Y-177144047D01*
X191435595Y-177144047D01*
X192292738Y-176477380D02*
X191816547Y-176477380D01*
X191768928Y-176953571D01*
X191816547Y-176905952D01*
X191911785Y-176858333D01*
X192149880Y-176858333D01*
X192245119Y-176905952D01*
X192292738Y-176953571D01*
X192340357Y-177048809D01*
X192340357Y-177286904D01*
X192292738Y-177382142D01*
X192245119Y-177429761D01*
X192149880Y-177477380D01*
X191911785Y-177477380D01*
X191816547Y-177429761D01*
X191768928Y-177382142D01*
X193245119Y-176477380D02*
X192768928Y-176477380D01*
X192721309Y-176953571D01*
X192768928Y-176905952D01*
X192864166Y-176858333D01*
X193102261Y-176858333D01*
X193197500Y-176905952D01*
X193245119Y-176953571D01*
X193292738Y-177048809D01*
X193292738Y-177286904D01*
X193245119Y-177382142D01*
X193197500Y-177429761D01*
X193102261Y-177477380D01*
X192864166Y-177477380D01*
X192768928Y-177429761D01*
X192721309Y-177382142D01*
X194007023Y-176477380D02*
X194007023Y-177191666D01*
X193959404Y-177334523D01*
X193864166Y-177429761D01*
X193721309Y-177477380D01*
X193626071Y-177477380D01*
X195007023Y-177477380D02*
X194435595Y-177477380D01*
X194721309Y-177477380D02*
X194721309Y-176477380D01*
X194626071Y-176620238D01*
X194530833Y-176715476D01*
X194435595Y-176763095D01*
X195387976Y-176572619D02*
X195435595Y-176525000D01*
X195530833Y-176477380D01*
X195768928Y-176477380D01*
X195864166Y-176525000D01*
X195911785Y-176572619D01*
X195959404Y-176667857D01*
X195959404Y-176763095D01*
X195911785Y-176905952D01*
X195340357Y-177477380D01*
X195959404Y-177477380D01*
X196578452Y-176477380D02*
X196673690Y-176477380D01*
X196768928Y-176525000D01*
X196816547Y-176572619D01*
X196864166Y-176667857D01*
X196911785Y-176858333D01*
X196911785Y-177096428D01*
X196864166Y-177286904D01*
X196816547Y-177382142D01*
X196768928Y-177429761D01*
X196673690Y-177477380D01*
X196578452Y-177477380D01*
X196483214Y-177429761D01*
X196435595Y-177382142D01*
X196387976Y-177286904D01*
X196340357Y-177096428D01*
X196340357Y-176858333D01*
X196387976Y-176667857D01*
X196435595Y-176572619D01*
X196483214Y-176525000D01*
X196578452Y-176477380D01*
X197864166Y-177477380D02*
X197292738Y-177477380D01*
X197578452Y-177477380D02*
X197578452Y-176477380D01*
X197483214Y-176620238D01*
X197387976Y-176715476D01*
X197292738Y-176763095D01*
M02*
