%FSLAX45Y45*%
G04 Gerber Fmt 4.5, Leading zero omitted, Abs format (unit mm)*
G04 Created by KiCad (PCBNEW (5.1.9)-1) date 2021-04-24 22:48:05*
%MOMM*%
%LPD*%
G01*
G04 APERTURE LIST*
%TA.AperFunction,Profile*%
%ADD10C,0.050000*%
%TD*%
%ADD11C,0.200000*%
%ADD12C,0.300000*%
G04 APERTURE END LIST*
D10*
X9000000Y-13000000D02*
X9000000Y-13725000D01*
X8950000Y-12400000D02*
X9000000Y-12400000D01*
X8950000Y-13000000D02*
X8950000Y-12400000D01*
X9000000Y-13000000D02*
X8950000Y-13000000D01*
X9000000Y-6275000D02*
X9000000Y-7000000D01*
X8950000Y-7600000D02*
X9000000Y-7600000D01*
X8950000Y-7000000D02*
X8950000Y-7600000D01*
X9000000Y-7000000D02*
X8950000Y-7000000D01*
X20950000Y-13725000D02*
X9000000Y-13725000D01*
X20950000Y-6275000D02*
X20950000Y-13725000D01*
X9000000Y-6275000D02*
X20950000Y-6275000D01*
X9000000Y-12400000D02*
X9000000Y-7600000D01*
D11*
X20560000Y-8170000D02*
X20720000Y-8330000D01*
X20720000Y-8170000D02*
X20560000Y-8330000D01*
X15500000Y-7400000D02*
G75*
G03*
X15500000Y-7400000I-100000J0D01*
G01*
X15500000Y-8280000D02*
G75*
G03*
X15500000Y-8280000I-100000J0D01*
G01*
X17800000Y-7400000D02*
G75*
G03*
X17800000Y-7400000I-100000J0D01*
G01*
X17800000Y-8280000D02*
G75*
G03*
X17800000Y-8280000I-100000J0D01*
G01*
D12*
X9233928Y-14193214D02*
X9233928Y-13893214D01*
X9305357Y-13893214D01*
X9348214Y-13907500D01*
X9376786Y-13936071D01*
X9391071Y-13964643D01*
X9405357Y-14021786D01*
X9405357Y-14064643D01*
X9391071Y-14121786D01*
X9376786Y-14150357D01*
X9348214Y-14178929D01*
X9305357Y-14193214D01*
X9233928Y-14193214D01*
X9533928Y-14193214D02*
X9533928Y-13993214D01*
X9533928Y-14050357D02*
X9548214Y-14021786D01*
X9562500Y-14007500D01*
X9591071Y-13993214D01*
X9619643Y-13993214D01*
X9719643Y-14193214D02*
X9719643Y-13993214D01*
X9719643Y-13893214D02*
X9705357Y-13907500D01*
X9719643Y-13921786D01*
X9733928Y-13907500D01*
X9719643Y-13893214D01*
X9719643Y-13921786D01*
X9905357Y-14193214D02*
X9876786Y-14178929D01*
X9862500Y-14150357D01*
X9862500Y-13893214D01*
X10062500Y-14193214D02*
X10033928Y-14178929D01*
X10019643Y-14150357D01*
X10019643Y-13893214D01*
X10405357Y-14193214D02*
X10405357Y-13893214D01*
X10505357Y-14107500D01*
X10605357Y-13893214D01*
X10605357Y-14193214D01*
X10876786Y-14193214D02*
X10876786Y-14036071D01*
X10862500Y-14007500D01*
X10833928Y-13993214D01*
X10776786Y-13993214D01*
X10748214Y-14007500D01*
X10876786Y-14178929D02*
X10848214Y-14193214D01*
X10776786Y-14193214D01*
X10748214Y-14178929D01*
X10733928Y-14150357D01*
X10733928Y-14121786D01*
X10748214Y-14093214D01*
X10776786Y-14078929D01*
X10848214Y-14078929D01*
X10876786Y-14064643D01*
X11019643Y-13993214D02*
X11019643Y-14293214D01*
X11019643Y-14007500D02*
X11048214Y-13993214D01*
X11105357Y-13993214D01*
X11133928Y-14007500D01*
X11148214Y-14021786D01*
X11162500Y-14050357D01*
X11162500Y-14136071D01*
X11148214Y-14164643D01*
X11133928Y-14178929D01*
X11105357Y-14193214D01*
X11048214Y-14193214D01*
X11019643Y-14178929D01*
X11291071Y-14164643D02*
X11305357Y-14178929D01*
X11291071Y-14193214D01*
X11276786Y-14178929D01*
X11291071Y-14164643D01*
X11291071Y-14193214D01*
X11291071Y-14007500D02*
X11305357Y-14021786D01*
X11291071Y-14036071D01*
X11276786Y-14021786D01*
X11291071Y-14007500D01*
X11291071Y-14036071D01*
X8787500Y-14607500D02*
X8947500Y-14767500D01*
X8947500Y-14607500D02*
X8787500Y-14767500D01*
X9391071Y-14823214D02*
X9219643Y-14823214D01*
X9305357Y-14823214D02*
X9305357Y-14523214D01*
X9276786Y-14566071D01*
X9248214Y-14594643D01*
X9219643Y-14608929D01*
X9519643Y-14794643D02*
X9533928Y-14808929D01*
X9519643Y-14823214D01*
X9505357Y-14808929D01*
X9519643Y-14794643D01*
X9519643Y-14823214D01*
X9791071Y-14523214D02*
X9733928Y-14523214D01*
X9705357Y-14537500D01*
X9691071Y-14551786D01*
X9662500Y-14594643D01*
X9648214Y-14651786D01*
X9648214Y-14766071D01*
X9662500Y-14794643D01*
X9676786Y-14808929D01*
X9705357Y-14823214D01*
X9762500Y-14823214D01*
X9791071Y-14808929D01*
X9805357Y-14794643D01*
X9819643Y-14766071D01*
X9819643Y-14694643D01*
X9805357Y-14666071D01*
X9791071Y-14651786D01*
X9762500Y-14637500D01*
X9705357Y-14637500D01*
X9676786Y-14651786D01*
X9662500Y-14666071D01*
X9648214Y-14694643D01*
X10005357Y-14523214D02*
X10033928Y-14523214D01*
X10062500Y-14537500D01*
X10076786Y-14551786D01*
X10091071Y-14580357D01*
X10105357Y-14637500D01*
X10105357Y-14708929D01*
X10091071Y-14766071D01*
X10076786Y-14794643D01*
X10062500Y-14808929D01*
X10033928Y-14823214D01*
X10005357Y-14823214D01*
X9976786Y-14808929D01*
X9962500Y-14794643D01*
X9948214Y-14766071D01*
X9933928Y-14708929D01*
X9933928Y-14637500D01*
X9948214Y-14580357D01*
X9962500Y-14551786D01*
X9976786Y-14537500D01*
X10005357Y-14523214D01*
X10233928Y-14823214D02*
X10233928Y-14623214D01*
X10233928Y-14651786D02*
X10248214Y-14637500D01*
X10276786Y-14623214D01*
X10319643Y-14623214D01*
X10348214Y-14637500D01*
X10362500Y-14666071D01*
X10362500Y-14823214D01*
X10362500Y-14666071D02*
X10376786Y-14637500D01*
X10405357Y-14623214D01*
X10448214Y-14623214D01*
X10476786Y-14637500D01*
X10491071Y-14666071D01*
X10491071Y-14823214D01*
X10633928Y-14823214D02*
X10633928Y-14623214D01*
X10633928Y-14651786D02*
X10648214Y-14637500D01*
X10676786Y-14623214D01*
X10719643Y-14623214D01*
X10748214Y-14637500D01*
X10762500Y-14666071D01*
X10762500Y-14823214D01*
X10762500Y-14666071D02*
X10776786Y-14637500D01*
X10805357Y-14623214D01*
X10848214Y-14623214D01*
X10876786Y-14637500D01*
X10891071Y-14666071D01*
X10891071Y-14823214D01*
X11476786Y-14508929D02*
X11219643Y-14894643D01*
X11862500Y-14523214D02*
X11891071Y-14523214D01*
X11919643Y-14537500D01*
X11933928Y-14551786D01*
X11948214Y-14580357D01*
X11962500Y-14637500D01*
X11962500Y-14708929D01*
X11948214Y-14766071D01*
X11933928Y-14794643D01*
X11919643Y-14808929D01*
X11891071Y-14823214D01*
X11862500Y-14823214D01*
X11833928Y-14808929D01*
X11819643Y-14794643D01*
X11805357Y-14766071D01*
X11791071Y-14708929D01*
X11791071Y-14637500D01*
X11805357Y-14580357D01*
X11819643Y-14551786D01*
X11833928Y-14537500D01*
X11862500Y-14523214D01*
X12091071Y-14794643D02*
X12105357Y-14808929D01*
X12091071Y-14823214D01*
X12076786Y-14808929D01*
X12091071Y-14794643D01*
X12091071Y-14823214D01*
X12291071Y-14523214D02*
X12319643Y-14523214D01*
X12348214Y-14537500D01*
X12362500Y-14551786D01*
X12376786Y-14580357D01*
X12391071Y-14637500D01*
X12391071Y-14708929D01*
X12376786Y-14766071D01*
X12362500Y-14794643D01*
X12348214Y-14808929D01*
X12319643Y-14823214D01*
X12291071Y-14823214D01*
X12262500Y-14808929D01*
X12248214Y-14794643D01*
X12233928Y-14766071D01*
X12219643Y-14708929D01*
X12219643Y-14637500D01*
X12233928Y-14580357D01*
X12248214Y-14551786D01*
X12262500Y-14537500D01*
X12291071Y-14523214D01*
X12648214Y-14523214D02*
X12591071Y-14523214D01*
X12562500Y-14537500D01*
X12548214Y-14551786D01*
X12519643Y-14594643D01*
X12505357Y-14651786D01*
X12505357Y-14766071D01*
X12519643Y-14794643D01*
X12533928Y-14808929D01*
X12562500Y-14823214D01*
X12619643Y-14823214D01*
X12648214Y-14808929D01*
X12662500Y-14794643D01*
X12676786Y-14766071D01*
X12676786Y-14694643D01*
X12662500Y-14666071D01*
X12648214Y-14651786D01*
X12619643Y-14637500D01*
X12562500Y-14637500D01*
X12533928Y-14651786D01*
X12519643Y-14666071D01*
X12505357Y-14694643D01*
X12776786Y-14523214D02*
X12962500Y-14523214D01*
X12862500Y-14637500D01*
X12905357Y-14637500D01*
X12933928Y-14651786D01*
X12948214Y-14666071D01*
X12962500Y-14694643D01*
X12962500Y-14766071D01*
X12948214Y-14794643D01*
X12933928Y-14808929D01*
X12905357Y-14823214D01*
X12819643Y-14823214D01*
X12791071Y-14808929D01*
X12776786Y-14794643D01*
X13076786Y-14523214D02*
X13076786Y-14580357D01*
X13191071Y-14523214D02*
X13191071Y-14580357D01*
X13633928Y-14937500D02*
X13619643Y-14923214D01*
X13591071Y-14880357D01*
X13576786Y-14851786D01*
X13562500Y-14808929D01*
X13548214Y-14737500D01*
X13548214Y-14680357D01*
X13562500Y-14608929D01*
X13576786Y-14566071D01*
X13591071Y-14537500D01*
X13619643Y-14494643D01*
X13633928Y-14480357D01*
X13905357Y-14823214D02*
X13733928Y-14823214D01*
X13819643Y-14823214D02*
X13819643Y-14523214D01*
X13791071Y-14566071D01*
X13762500Y-14594643D01*
X13733928Y-14608929D01*
X14262500Y-14823214D02*
X14262500Y-14523214D01*
X14391071Y-14823214D02*
X14391071Y-14666071D01*
X14376786Y-14637500D01*
X14348214Y-14623214D01*
X14305357Y-14623214D01*
X14276786Y-14637500D01*
X14262500Y-14651786D01*
X14576786Y-14823214D02*
X14548214Y-14808929D01*
X14533928Y-14794643D01*
X14519643Y-14766071D01*
X14519643Y-14680357D01*
X14533928Y-14651786D01*
X14548214Y-14637500D01*
X14576786Y-14623214D01*
X14619643Y-14623214D01*
X14648214Y-14637500D01*
X14662500Y-14651786D01*
X14676786Y-14680357D01*
X14676786Y-14766071D01*
X14662500Y-14794643D01*
X14648214Y-14808929D01*
X14619643Y-14823214D01*
X14576786Y-14823214D01*
X14848214Y-14823214D02*
X14819643Y-14808929D01*
X14805357Y-14780357D01*
X14805357Y-14523214D01*
X15076786Y-14808929D02*
X15048214Y-14823214D01*
X14991071Y-14823214D01*
X14962500Y-14808929D01*
X14948214Y-14780357D01*
X14948214Y-14666071D01*
X14962500Y-14637500D01*
X14991071Y-14623214D01*
X15048214Y-14623214D01*
X15076786Y-14637500D01*
X15091071Y-14666071D01*
X15091071Y-14694643D01*
X14948214Y-14723214D01*
X15191071Y-14937500D02*
X15205357Y-14923214D01*
X15233928Y-14880357D01*
X15248214Y-14851786D01*
X15262500Y-14808929D01*
X15276786Y-14737500D01*
X15276786Y-14680357D01*
X15262500Y-14608929D01*
X15248214Y-14566071D01*
X15233928Y-14537500D01*
X15205357Y-14494643D01*
X15191071Y-14480357D01*
X15733928Y-14937500D02*
X15719643Y-14923214D01*
X15691071Y-14880357D01*
X15676786Y-14851786D01*
X15662500Y-14808929D01*
X15648214Y-14737500D01*
X15648214Y-14680357D01*
X15662500Y-14608929D01*
X15676786Y-14566071D01*
X15691071Y-14537500D01*
X15719643Y-14494643D01*
X15733928Y-14480357D01*
X15848214Y-14623214D02*
X15848214Y-14823214D01*
X15848214Y-14651786D02*
X15862500Y-14637500D01*
X15891071Y-14623214D01*
X15933928Y-14623214D01*
X15962500Y-14637500D01*
X15976786Y-14666071D01*
X15976786Y-14823214D01*
X16162500Y-14823214D02*
X16133928Y-14808929D01*
X16119643Y-14794643D01*
X16105357Y-14766071D01*
X16105357Y-14680357D01*
X16119643Y-14651786D01*
X16133928Y-14637500D01*
X16162500Y-14623214D01*
X16205357Y-14623214D01*
X16233928Y-14637500D01*
X16248214Y-14651786D01*
X16262500Y-14680357D01*
X16262500Y-14766071D01*
X16248214Y-14794643D01*
X16233928Y-14808929D01*
X16205357Y-14823214D01*
X16162500Y-14823214D01*
X16348214Y-14623214D02*
X16462500Y-14623214D01*
X16391071Y-14523214D02*
X16391071Y-14780357D01*
X16405357Y-14808929D01*
X16433928Y-14823214D01*
X16462500Y-14823214D01*
X16791071Y-14623214D02*
X16791071Y-14923214D01*
X16791071Y-14637500D02*
X16819643Y-14623214D01*
X16876786Y-14623214D01*
X16905357Y-14637500D01*
X16919643Y-14651786D01*
X16933928Y-14680357D01*
X16933928Y-14766071D01*
X16919643Y-14794643D01*
X16905357Y-14808929D01*
X16876786Y-14823214D01*
X16819643Y-14823214D01*
X16791071Y-14808929D01*
X17105357Y-14823214D02*
X17076786Y-14808929D01*
X17062500Y-14780357D01*
X17062500Y-14523214D01*
X17348214Y-14823214D02*
X17348214Y-14666071D01*
X17333928Y-14637500D01*
X17305357Y-14623214D01*
X17248214Y-14623214D01*
X17219643Y-14637500D01*
X17348214Y-14808929D02*
X17319643Y-14823214D01*
X17248214Y-14823214D01*
X17219643Y-14808929D01*
X17205357Y-14780357D01*
X17205357Y-14751786D01*
X17219643Y-14723214D01*
X17248214Y-14708929D01*
X17319643Y-14708929D01*
X17348214Y-14694643D01*
X17448214Y-14623214D02*
X17562500Y-14623214D01*
X17491071Y-14523214D02*
X17491071Y-14780357D01*
X17505357Y-14808929D01*
X17533928Y-14823214D01*
X17562500Y-14823214D01*
X17776786Y-14808929D02*
X17748214Y-14823214D01*
X17691071Y-14823214D01*
X17662500Y-14808929D01*
X17648214Y-14780357D01*
X17648214Y-14666071D01*
X17662500Y-14637500D01*
X17691071Y-14623214D01*
X17748214Y-14623214D01*
X17776786Y-14637500D01*
X17791071Y-14666071D01*
X17791071Y-14694643D01*
X17648214Y-14723214D01*
X18048214Y-14823214D02*
X18048214Y-14523214D01*
X18048214Y-14808929D02*
X18019643Y-14823214D01*
X17962500Y-14823214D01*
X17933928Y-14808929D01*
X17919643Y-14794643D01*
X17905357Y-14766071D01*
X17905357Y-14680357D01*
X17919643Y-14651786D01*
X17933928Y-14637500D01*
X17962500Y-14623214D01*
X18019643Y-14623214D01*
X18048214Y-14637500D01*
X18162500Y-14937500D02*
X18176786Y-14923214D01*
X18205357Y-14880357D01*
X18219643Y-14851786D01*
X18233928Y-14808929D01*
X18248214Y-14737500D01*
X18248214Y-14680357D01*
X18233928Y-14608929D01*
X18219643Y-14566071D01*
X18205357Y-14537500D01*
X18176786Y-14494643D01*
X18162500Y-14480357D01*
X8947500Y-15083500D02*
G75*
G03*
X8947500Y-15083500I-100000J0D01*
G01*
X9219643Y-14947786D02*
X9233928Y-14933500D01*
X9262500Y-14919214D01*
X9333928Y-14919214D01*
X9362500Y-14933500D01*
X9376786Y-14947786D01*
X9391071Y-14976357D01*
X9391071Y-15004929D01*
X9376786Y-15047786D01*
X9205357Y-15219214D01*
X9391071Y-15219214D01*
X9519643Y-15190643D02*
X9533928Y-15204929D01*
X9519643Y-15219214D01*
X9505357Y-15204929D01*
X9519643Y-15190643D01*
X9519643Y-15219214D01*
X9719643Y-14919214D02*
X9748214Y-14919214D01*
X9776786Y-14933500D01*
X9791071Y-14947786D01*
X9805357Y-14976357D01*
X9819643Y-15033500D01*
X9819643Y-15104929D01*
X9805357Y-15162071D01*
X9791071Y-15190643D01*
X9776786Y-15204929D01*
X9748214Y-15219214D01*
X9719643Y-15219214D01*
X9691071Y-15204929D01*
X9676786Y-15190643D01*
X9662500Y-15162071D01*
X9648214Y-15104929D01*
X9648214Y-15033500D01*
X9662500Y-14976357D01*
X9676786Y-14947786D01*
X9691071Y-14933500D01*
X9719643Y-14919214D01*
X10005357Y-14919214D02*
X10033928Y-14919214D01*
X10062500Y-14933500D01*
X10076786Y-14947786D01*
X10091071Y-14976357D01*
X10105357Y-15033500D01*
X10105357Y-15104929D01*
X10091071Y-15162071D01*
X10076786Y-15190643D01*
X10062500Y-15204929D01*
X10033928Y-15219214D01*
X10005357Y-15219214D01*
X9976786Y-15204929D01*
X9962500Y-15190643D01*
X9948214Y-15162071D01*
X9933928Y-15104929D01*
X9933928Y-15033500D01*
X9948214Y-14976357D01*
X9962500Y-14947786D01*
X9976786Y-14933500D01*
X10005357Y-14919214D01*
X10233928Y-15219214D02*
X10233928Y-15019214D01*
X10233928Y-15047786D02*
X10248214Y-15033500D01*
X10276786Y-15019214D01*
X10319643Y-15019214D01*
X10348214Y-15033500D01*
X10362500Y-15062071D01*
X10362500Y-15219214D01*
X10362500Y-15062071D02*
X10376786Y-15033500D01*
X10405357Y-15019214D01*
X10448214Y-15019214D01*
X10476786Y-15033500D01*
X10491071Y-15062071D01*
X10491071Y-15219214D01*
X10633928Y-15219214D02*
X10633928Y-15019214D01*
X10633928Y-15047786D02*
X10648214Y-15033500D01*
X10676786Y-15019214D01*
X10719643Y-15019214D01*
X10748214Y-15033500D01*
X10762500Y-15062071D01*
X10762500Y-15219214D01*
X10762500Y-15062071D02*
X10776786Y-15033500D01*
X10805357Y-15019214D01*
X10848214Y-15019214D01*
X10876786Y-15033500D01*
X10891071Y-15062071D01*
X10891071Y-15219214D01*
X11476786Y-14904929D02*
X11219643Y-15290643D01*
X11862500Y-14919214D02*
X11891071Y-14919214D01*
X11919643Y-14933500D01*
X11933928Y-14947786D01*
X11948214Y-14976357D01*
X11962500Y-15033500D01*
X11962500Y-15104929D01*
X11948214Y-15162071D01*
X11933928Y-15190643D01*
X11919643Y-15204929D01*
X11891071Y-15219214D01*
X11862500Y-15219214D01*
X11833928Y-15204929D01*
X11819643Y-15190643D01*
X11805357Y-15162071D01*
X11791071Y-15104929D01*
X11791071Y-15033500D01*
X11805357Y-14976357D01*
X11819643Y-14947786D01*
X11833928Y-14933500D01*
X11862500Y-14919214D01*
X12091071Y-15190643D02*
X12105357Y-15204929D01*
X12091071Y-15219214D01*
X12076786Y-15204929D01*
X12091071Y-15190643D01*
X12091071Y-15219214D01*
X12291071Y-14919214D02*
X12319643Y-14919214D01*
X12348214Y-14933500D01*
X12362500Y-14947786D01*
X12376786Y-14976357D01*
X12391071Y-15033500D01*
X12391071Y-15104929D01*
X12376786Y-15162071D01*
X12362500Y-15190643D01*
X12348214Y-15204929D01*
X12319643Y-15219214D01*
X12291071Y-15219214D01*
X12262500Y-15204929D01*
X12248214Y-15190643D01*
X12233928Y-15162071D01*
X12219643Y-15104929D01*
X12219643Y-15033500D01*
X12233928Y-14976357D01*
X12248214Y-14947786D01*
X12262500Y-14933500D01*
X12291071Y-14919214D01*
X12491071Y-14919214D02*
X12691071Y-14919214D01*
X12562500Y-15219214D01*
X12819643Y-15219214D02*
X12876786Y-15219214D01*
X12905357Y-15204929D01*
X12919643Y-15190643D01*
X12948214Y-15147786D01*
X12962500Y-15090643D01*
X12962500Y-14976357D01*
X12948214Y-14947786D01*
X12933928Y-14933500D01*
X12905357Y-14919214D01*
X12848214Y-14919214D01*
X12819643Y-14933500D01*
X12805357Y-14947786D01*
X12791071Y-14976357D01*
X12791071Y-15047786D01*
X12805357Y-15076357D01*
X12819643Y-15090643D01*
X12848214Y-15104929D01*
X12905357Y-15104929D01*
X12933928Y-15090643D01*
X12948214Y-15076357D01*
X12962500Y-15047786D01*
X13076786Y-14919214D02*
X13076786Y-14976357D01*
X13191071Y-14919214D02*
X13191071Y-14976357D01*
X13633928Y-15333500D02*
X13619643Y-15319214D01*
X13591071Y-15276357D01*
X13576786Y-15247786D01*
X13562500Y-15204929D01*
X13548214Y-15133500D01*
X13548214Y-15076357D01*
X13562500Y-15004929D01*
X13576786Y-14962071D01*
X13591071Y-14933500D01*
X13619643Y-14890643D01*
X13633928Y-14876357D01*
X13876786Y-15019214D02*
X13876786Y-15219214D01*
X13805357Y-14904929D02*
X13733928Y-15119214D01*
X13919643Y-15119214D01*
X14262500Y-15219214D02*
X14262500Y-14919214D01*
X14391071Y-15219214D02*
X14391071Y-15062071D01*
X14376786Y-15033500D01*
X14348214Y-15019214D01*
X14305357Y-15019214D01*
X14276786Y-15033500D01*
X14262500Y-15047786D01*
X14576786Y-15219214D02*
X14548214Y-15204929D01*
X14533928Y-15190643D01*
X14519643Y-15162071D01*
X14519643Y-15076357D01*
X14533928Y-15047786D01*
X14548214Y-15033500D01*
X14576786Y-15019214D01*
X14619643Y-15019214D01*
X14648214Y-15033500D01*
X14662500Y-15047786D01*
X14676786Y-15076357D01*
X14676786Y-15162071D01*
X14662500Y-15190643D01*
X14648214Y-15204929D01*
X14619643Y-15219214D01*
X14576786Y-15219214D01*
X14848214Y-15219214D02*
X14819643Y-15204929D01*
X14805357Y-15176357D01*
X14805357Y-14919214D01*
X15076786Y-15204929D02*
X15048214Y-15219214D01*
X14991071Y-15219214D01*
X14962500Y-15204929D01*
X14948214Y-15176357D01*
X14948214Y-15062071D01*
X14962500Y-15033500D01*
X14991071Y-15019214D01*
X15048214Y-15019214D01*
X15076786Y-15033500D01*
X15091071Y-15062071D01*
X15091071Y-15090643D01*
X14948214Y-15119214D01*
X15205357Y-15204929D02*
X15233928Y-15219214D01*
X15291071Y-15219214D01*
X15319643Y-15204929D01*
X15333928Y-15176357D01*
X15333928Y-15162071D01*
X15319643Y-15133500D01*
X15291071Y-15119214D01*
X15248214Y-15119214D01*
X15219643Y-15104929D01*
X15205357Y-15076357D01*
X15205357Y-15062071D01*
X15219643Y-15033500D01*
X15248214Y-15019214D01*
X15291071Y-15019214D01*
X15319643Y-15033500D01*
X15433928Y-15333500D02*
X15448214Y-15319214D01*
X15476786Y-15276357D01*
X15491071Y-15247786D01*
X15505357Y-15204929D01*
X15519643Y-15133500D01*
X15519643Y-15076357D01*
X15505357Y-15004929D01*
X15491071Y-14962071D01*
X15476786Y-14933500D01*
X15448214Y-14890643D01*
X15433928Y-14876357D01*
X15976786Y-15333500D02*
X15962500Y-15319214D01*
X15933928Y-15276357D01*
X15919643Y-15247786D01*
X15905357Y-15204929D01*
X15891071Y-15133500D01*
X15891071Y-15076357D01*
X15905357Y-15004929D01*
X15919643Y-14962071D01*
X15933928Y-14933500D01*
X15962500Y-14890643D01*
X15976786Y-14876357D01*
X16091071Y-15019214D02*
X16091071Y-15219214D01*
X16091071Y-15047786D02*
X16105357Y-15033500D01*
X16133928Y-15019214D01*
X16176786Y-15019214D01*
X16205357Y-15033500D01*
X16219643Y-15062071D01*
X16219643Y-15219214D01*
X16405357Y-15219214D02*
X16376786Y-15204929D01*
X16362500Y-15190643D01*
X16348214Y-15162071D01*
X16348214Y-15076357D01*
X16362500Y-15047786D01*
X16376786Y-15033500D01*
X16405357Y-15019214D01*
X16448214Y-15019214D01*
X16476786Y-15033500D01*
X16491071Y-15047786D01*
X16505357Y-15076357D01*
X16505357Y-15162071D01*
X16491071Y-15190643D01*
X16476786Y-15204929D01*
X16448214Y-15219214D01*
X16405357Y-15219214D01*
X16591071Y-15019214D02*
X16705357Y-15019214D01*
X16633928Y-14919214D02*
X16633928Y-15176357D01*
X16648214Y-15204929D01*
X16676786Y-15219214D01*
X16705357Y-15219214D01*
X17033928Y-15019214D02*
X17033928Y-15319214D01*
X17033928Y-15033500D02*
X17062500Y-15019214D01*
X17119643Y-15019214D01*
X17148214Y-15033500D01*
X17162500Y-15047786D01*
X17176786Y-15076357D01*
X17176786Y-15162071D01*
X17162500Y-15190643D01*
X17148214Y-15204929D01*
X17119643Y-15219214D01*
X17062500Y-15219214D01*
X17033928Y-15204929D01*
X17348214Y-15219214D02*
X17319643Y-15204929D01*
X17305357Y-15176357D01*
X17305357Y-14919214D01*
X17591071Y-15219214D02*
X17591071Y-15062071D01*
X17576786Y-15033500D01*
X17548214Y-15019214D01*
X17491071Y-15019214D01*
X17462500Y-15033500D01*
X17591071Y-15204929D02*
X17562500Y-15219214D01*
X17491071Y-15219214D01*
X17462500Y-15204929D01*
X17448214Y-15176357D01*
X17448214Y-15147786D01*
X17462500Y-15119214D01*
X17491071Y-15104929D01*
X17562500Y-15104929D01*
X17591071Y-15090643D01*
X17691071Y-15019214D02*
X17805357Y-15019214D01*
X17733928Y-14919214D02*
X17733928Y-15176357D01*
X17748214Y-15204929D01*
X17776786Y-15219214D01*
X17805357Y-15219214D01*
X18019643Y-15204929D02*
X17991071Y-15219214D01*
X17933928Y-15219214D01*
X17905357Y-15204929D01*
X17891071Y-15176357D01*
X17891071Y-15062071D01*
X17905357Y-15033500D01*
X17933928Y-15019214D01*
X17991071Y-15019214D01*
X18019643Y-15033500D01*
X18033928Y-15062071D01*
X18033928Y-15090643D01*
X17891071Y-15119214D01*
X18291071Y-15219214D02*
X18291071Y-14919214D01*
X18291071Y-15204929D02*
X18262500Y-15219214D01*
X18205357Y-15219214D01*
X18176786Y-15204929D01*
X18162500Y-15190643D01*
X18148214Y-15162071D01*
X18148214Y-15076357D01*
X18162500Y-15047786D01*
X18176786Y-15033500D01*
X18205357Y-15019214D01*
X18262500Y-15019214D01*
X18291071Y-15033500D01*
X18405357Y-15333500D02*
X18419643Y-15319214D01*
X18448214Y-15276357D01*
X18462500Y-15247786D01*
X18476786Y-15204929D01*
X18491071Y-15133500D01*
X18491071Y-15076357D01*
X18476786Y-15004929D01*
X18462500Y-14962071D01*
X18448214Y-14933500D01*
X18419643Y-14890643D01*
X18405357Y-14876357D01*
M02*
