%FSLAX45Y45*%
G04 Gerber Fmt 4.5, Leading zero omitted, Abs format (unit mm)*
G04 Created by KiCad (PCBNEW (5.1.9)-1) date 2021-04-24 16:53:42*
%MOMM*%
%LPD*%
G01*
G04 APERTURE LIST*
%TA.AperFunction,Profile*%
%ADD10C,0.050000*%
%TD*%
%ADD11C,0.200000*%
%ADD12C,0.300000*%
G04 APERTURE END LIST*
D10*
X20950000Y-13725000D02*
X9000000Y-13725000D01*
X20950000Y-6275000D02*
X20950000Y-13725000D01*
X9000000Y-6275000D02*
X20950000Y-6275000D01*
X9000000Y-13725000D02*
X9000000Y-6275000D01*
D11*
X10677500Y-9027500D02*
X10722500Y-9072500D01*
X10722500Y-9027500D02*
X10677500Y-9072500D01*
X10677500Y-10927500D02*
X10722500Y-10972500D01*
X10722500Y-10927500D02*
X10677500Y-10972500D01*
X10897500Y-9287500D02*
X10942500Y-9332500D01*
X10942500Y-9287500D02*
X10897500Y-9332500D01*
X10897500Y-9567500D02*
X10942500Y-9612500D01*
X10942500Y-9567500D02*
X10897500Y-9612500D01*
X10897500Y-10387500D02*
X10942500Y-10432500D01*
X10942500Y-10387500D02*
X10897500Y-10432500D01*
X10897500Y-10667500D02*
X10942500Y-10712500D01*
X10942500Y-10667500D02*
X10897500Y-10712500D01*
X11077500Y-9977500D02*
X11122500Y-10022500D01*
X11122500Y-9977500D02*
X11077500Y-10022500D01*
X11437500Y-9897500D02*
X11482500Y-9942500D01*
X11482500Y-9897500D02*
X11437500Y-9942500D01*
X11437500Y-10057500D02*
X11482500Y-10102500D01*
X11482500Y-10057500D02*
X11437500Y-10102500D01*
X12617500Y-9977500D02*
X12662500Y-10022500D01*
X12662500Y-9977500D02*
X12617500Y-10022500D01*
X12617500Y-9977500D02*
X12662500Y-10022500D01*
X12662500Y-9977500D02*
X12617500Y-10022500D01*
X12827500Y-6927500D02*
X12872500Y-6972500D01*
X12872500Y-6927500D02*
X12827500Y-6972500D01*
X12827500Y-7127500D02*
X12872500Y-7172500D01*
X12872500Y-7127500D02*
X12827500Y-7172500D01*
X12827500Y-7327500D02*
X12872500Y-7372500D01*
X12872500Y-7327500D02*
X12827500Y-7372500D01*
X12827500Y-12627500D02*
X12872500Y-12672500D01*
X12872500Y-12627500D02*
X12827500Y-12672500D01*
X12827500Y-12827500D02*
X12872500Y-12872500D01*
X12872500Y-12827500D02*
X12827500Y-12872500D01*
X12827500Y-13027500D02*
X12872500Y-13072500D01*
X12872500Y-13027500D02*
X12827500Y-13072500D01*
X12837500Y-9977500D02*
X12882500Y-10022500D01*
X12882500Y-9977500D02*
X12837500Y-10022500D01*
X12957500Y-9977500D02*
X13002500Y-10022500D01*
X13002500Y-9977500D02*
X12957500Y-10022500D01*
X13077500Y-9107500D02*
X13122500Y-9152500D01*
X13122500Y-9107500D02*
X13077500Y-9152500D01*
X13087500Y-10827500D02*
X13132500Y-10872500D01*
X13132500Y-10827500D02*
X13087500Y-10872500D01*
X13097500Y-9977500D02*
X13142500Y-10022500D01*
X13142500Y-9977500D02*
X13097500Y-10022500D01*
X13977500Y-9427500D02*
X14022500Y-9472500D01*
X14022500Y-9427500D02*
X13977500Y-9472500D01*
X13977500Y-10277500D02*
X14022500Y-10322500D01*
X14022500Y-10277500D02*
X13977500Y-10322500D01*
X13977500Y-10527500D02*
X14022500Y-10572500D01*
X14022500Y-10527500D02*
X13977500Y-10572500D01*
X13977501Y-9677500D02*
X14022501Y-9722500D01*
X14022501Y-9677500D02*
X13977501Y-9722500D01*
X14157500Y-9352502D02*
X14202500Y-9397502D01*
X14202500Y-9352502D02*
X14157500Y-9397502D01*
X14157500Y-10602500D02*
X14202500Y-10647500D01*
X14202500Y-10602500D02*
X14157500Y-10647500D01*
X14177500Y-13327500D02*
X14222500Y-13372500D01*
X14222500Y-13327500D02*
X14177500Y-13372500D01*
X14347500Y-9352497D02*
X14392500Y-9397497D01*
X14392500Y-9352497D02*
X14347500Y-9397497D01*
X14347500Y-10602500D02*
X14392500Y-10647500D01*
X14392500Y-10602500D02*
X14347500Y-10647500D01*
X14432501Y-12782501D02*
X14477501Y-12827501D01*
X14477501Y-12782501D02*
X14432501Y-12827501D01*
X14527500Y-9427500D02*
X14572500Y-9472500D01*
X14572500Y-9427500D02*
X14527500Y-9472500D01*
X14527500Y-10527500D02*
X14572500Y-10572500D01*
X14572500Y-10527500D02*
X14527500Y-10572500D01*
X14797500Y-9977500D02*
X14842500Y-10022500D01*
X14842500Y-9977500D02*
X14797500Y-10022500D01*
X14857500Y-8977500D02*
X14902500Y-9022500D01*
X14902500Y-8977500D02*
X14857500Y-9022500D01*
X14917500Y-9977500D02*
X14962500Y-10022500D01*
X14962500Y-9977500D02*
X14917500Y-10022500D01*
X15077500Y-8517500D02*
X15122500Y-8562500D01*
X15122500Y-8517500D02*
X15077500Y-8562500D01*
X15247500Y-8887500D02*
X15292500Y-8932500D01*
X15292500Y-8887500D02*
X15247500Y-8932500D01*
X15327500Y-10777500D02*
X15372500Y-10822500D01*
X15372500Y-10777500D02*
X15327500Y-10822500D01*
X15377500Y-9637500D02*
X15422500Y-9682500D01*
X15422500Y-9637500D02*
X15377500Y-9682500D01*
X15487500Y-10297500D02*
X15532500Y-10342500D01*
X15532500Y-10297500D02*
X15487500Y-10342500D01*
X15507500Y-10777500D02*
X15552500Y-10822500D01*
X15552500Y-10777500D02*
X15507500Y-10822500D01*
X15587500Y-9067500D02*
X15632500Y-9112500D01*
X15632500Y-9067500D02*
X15587500Y-9112500D01*
X15857500Y-9397500D02*
X15902500Y-9442500D01*
X15902500Y-9397500D02*
X15857500Y-9442500D01*
X15857500Y-9787000D02*
X15902500Y-9832000D01*
X15902500Y-9787000D02*
X15857500Y-9832000D01*
X15857500Y-10168000D02*
X15902500Y-10213000D01*
X15902500Y-10168000D02*
X15857500Y-10213000D01*
X15857500Y-10557500D02*
X15902500Y-10602500D01*
X15902500Y-10557500D02*
X15857500Y-10602500D01*
X15977500Y-8977500D02*
X16022500Y-9022500D01*
X16022500Y-8977500D02*
X15977500Y-9022500D01*
X17097500Y-10297500D02*
X17142500Y-10342500D01*
X17142500Y-10297500D02*
X17097500Y-10342500D01*
X17437500Y-11537500D02*
X17482500Y-11582500D01*
X17482500Y-11537500D02*
X17437500Y-11582500D01*
X17607500Y-10297500D02*
X17652500Y-10342500D01*
X17652500Y-10297500D02*
X17607500Y-10342500D01*
X17821499Y-11883501D02*
X17866499Y-11928501D01*
X17866499Y-11883501D02*
X17821499Y-11928501D01*
X17837500Y-11537500D02*
X17882500Y-11582500D01*
X17882500Y-11537500D02*
X17837500Y-11582500D01*
X17877500Y-12387500D02*
X17922500Y-12432500D01*
X17922500Y-12387500D02*
X17877500Y-12432500D01*
X17937500Y-6787500D02*
X17982500Y-6832500D01*
X17982500Y-6787500D02*
X17937500Y-6832500D01*
X17937500Y-7327500D02*
X17982500Y-7372500D01*
X17982500Y-7327500D02*
X17937500Y-7372500D01*
X17937500Y-7757500D02*
X17982500Y-7802500D01*
X17982500Y-7757500D02*
X17937500Y-7802500D01*
X17937500Y-8297500D02*
X17982500Y-8342500D01*
X17982500Y-8297500D02*
X17937500Y-8342500D01*
X18160000Y-11934000D02*
X18205000Y-11979000D01*
X18205000Y-11934000D02*
X18160000Y-11979000D01*
X18160000Y-12074000D02*
X18205000Y-12119000D01*
X18205000Y-12074000D02*
X18160000Y-12119000D01*
X18160000Y-12214000D02*
X18205000Y-12259000D01*
X18205000Y-12214000D02*
X18160000Y-12259000D01*
X18217500Y-6787500D02*
X18262500Y-6832500D01*
X18262500Y-6787500D02*
X18217500Y-6832500D01*
X18217500Y-7327500D02*
X18262500Y-7372500D01*
X18262500Y-7327500D02*
X18217500Y-7372500D01*
X18217500Y-7757500D02*
X18262500Y-7802500D01*
X18262500Y-7757500D02*
X18217500Y-7802500D01*
X18217500Y-8297500D02*
X18262500Y-8342500D01*
X18262500Y-8297500D02*
X18217500Y-8342500D01*
X18277500Y-12387500D02*
X18322500Y-12432500D01*
X18322500Y-12387500D02*
X18277500Y-12432500D01*
X18300000Y-11934000D02*
X18345000Y-11979000D01*
X18345000Y-11934000D02*
X18300000Y-11979000D01*
X18300000Y-12074000D02*
X18345000Y-12119000D01*
X18345000Y-12074000D02*
X18300000Y-12119000D01*
X18300000Y-12214000D02*
X18345000Y-12259000D01*
X18345000Y-12214000D02*
X18300000Y-12259000D01*
X18499998Y-7305000D02*
X18544998Y-7350000D01*
X18544998Y-7305000D02*
X18499998Y-7350000D01*
X18499999Y-6729999D02*
X18544999Y-6774999D01*
X18544999Y-6729999D02*
X18499999Y-6774999D01*
X18547500Y-7017500D02*
X18592500Y-7062500D01*
X18592500Y-7017500D02*
X18547500Y-7062500D01*
X18617500Y-9947500D02*
X18662500Y-9992500D01*
X18662500Y-9947500D02*
X18617500Y-9992500D01*
X18617500Y-10447500D02*
X18662500Y-10492500D01*
X18662500Y-10447500D02*
X18617500Y-10492500D01*
X18627500Y-11987500D02*
X18672500Y-12032500D01*
X18672500Y-11987500D02*
X18627500Y-12032500D01*
X18627500Y-12397500D02*
X18672500Y-12442500D01*
X18672500Y-12397500D02*
X18627500Y-12442500D01*
X18633500Y-11283500D02*
X18678500Y-11328500D01*
X18678500Y-11283500D02*
X18633500Y-11328500D01*
X18637500Y-7017500D02*
X18682500Y-7062500D01*
X18682500Y-7017500D02*
X18637500Y-7062500D01*
X18677500Y-7707500D02*
X18722500Y-7752500D01*
X18722500Y-7707500D02*
X18677500Y-7752500D01*
X18677500Y-8247500D02*
X18722500Y-8292500D01*
X18722500Y-8247500D02*
X18677500Y-8292500D01*
X18721001Y-6983999D02*
X18766001Y-7028999D01*
X18766001Y-6983999D02*
X18721001Y-7028999D01*
X18721003Y-7111003D02*
X18766003Y-7156003D01*
X18766003Y-7111003D02*
X18721003Y-7156003D01*
X18727500Y-7417500D02*
X18772500Y-7462500D01*
X18772500Y-7417500D02*
X18727500Y-7462500D01*
X18977500Y-7707500D02*
X19022500Y-7752500D01*
X19022500Y-7707500D02*
X18977500Y-7752500D01*
X18977500Y-8247500D02*
X19022500Y-8292500D01*
X19022500Y-8247500D02*
X18977500Y-8292500D01*
X18977500Y-11387500D02*
X19022500Y-11432500D01*
X19022500Y-11387500D02*
X18977500Y-11432500D01*
X19027500Y-11287500D02*
X19072500Y-11332500D01*
X19072500Y-11287500D02*
X19027500Y-11332500D01*
X19057500Y-6907500D02*
X19102500Y-6952500D01*
X19102500Y-6907500D02*
X19057500Y-6952500D01*
X19057500Y-7047500D02*
X19102500Y-7092500D01*
X19102500Y-7047500D02*
X19057500Y-7092500D01*
X19057500Y-7187500D02*
X19102500Y-7232500D01*
X19102500Y-7187500D02*
X19057500Y-7232500D01*
X19107500Y-7417500D02*
X19152500Y-7462500D01*
X19152500Y-7417500D02*
X19107500Y-7462500D01*
X19107500Y-10167500D02*
X19152500Y-10212500D01*
X19152500Y-10167500D02*
X19107500Y-10212500D01*
X19197500Y-6907500D02*
X19242500Y-6952500D01*
X19242500Y-6907500D02*
X19197500Y-6952500D01*
X19197500Y-7047500D02*
X19242500Y-7092500D01*
X19242500Y-7047500D02*
X19197500Y-7092500D01*
X19197500Y-7187500D02*
X19242500Y-7232500D01*
X19242500Y-7187500D02*
X19197500Y-7232500D01*
X19507500Y-10367500D02*
X19552500Y-10412500D01*
X19552500Y-10367500D02*
X19507500Y-10412500D01*
X19557500Y-6807500D02*
X19602500Y-6852500D01*
X19602500Y-6807500D02*
X19557500Y-6852500D01*
X19697500Y-10267500D02*
X19742500Y-10312500D01*
X19742500Y-10267500D02*
X19697500Y-10312500D01*
X20537500Y-10267500D02*
X20582500Y-10312500D01*
X20582500Y-10267500D02*
X20537500Y-10312500D01*
X20577500Y-6827500D02*
X20622500Y-6872500D01*
X20622500Y-6827500D02*
X20577500Y-6872500D01*
X20577500Y-6917500D02*
X20622500Y-6962500D01*
X20622500Y-6917500D02*
X20577500Y-6962500D01*
X20577500Y-7277500D02*
X20622500Y-7322500D01*
X20622500Y-7277500D02*
X20577500Y-7322500D01*
X20577500Y-7367500D02*
X20622500Y-7412500D01*
X20622500Y-7367500D02*
X20577500Y-7412500D01*
X11690000Y-8050000D02*
G75*
G03*
X11690000Y-8050000I-40000J0D01*
G01*
X11690000Y-8550000D02*
G75*
G03*
X11690000Y-8550000I-40000J0D01*
G01*
X11690000Y-11450000D02*
G75*
G03*
X11690000Y-11450000I-40000J0D01*
G01*
X11690000Y-11950000D02*
G75*
G03*
X11690000Y-11950000I-40000J0D01*
G01*
X13511000Y-9746000D02*
G75*
G03*
X13511000Y-9746000I-40000J0D01*
G01*
X13511000Y-10254000D02*
G75*
G03*
X13511000Y-10254000I-40000J0D01*
G01*
X13765000Y-10000000D02*
G75*
G03*
X13765000Y-10000000I-40000J0D01*
G01*
X14240000Y-11050000D02*
G75*
G03*
X14240000Y-11050000I-40000J0D01*
G01*
X14240000Y-11558000D02*
G75*
G03*
X14240000Y-11558000I-40000J0D01*
G01*
X14494000Y-11304000D02*
G75*
G03*
X14494000Y-11304000I-40000J0D01*
G01*
X16290000Y-11050000D02*
G75*
G03*
X16290000Y-11050000I-40000J0D01*
G01*
X16290000Y-11558000D02*
G75*
G03*
X16290000Y-11558000I-40000J0D01*
G01*
X16544000Y-11304000D02*
G75*
G03*
X16544000Y-11304000I-40000J0D01*
G01*
X16870000Y-10080000D02*
G75*
G03*
X16870000Y-10080000I-40000J0D01*
G01*
X17124000Y-9826000D02*
G75*
G03*
X17124000Y-9826000I-40000J0D01*
G01*
X17378000Y-10080000D02*
G75*
G03*
X17378000Y-10080000I-40000J0D01*
G01*
X10320000Y-8655500D02*
X10320000Y-8744500D01*
X10275500Y-8700000D02*
X10364500Y-8700000D01*
X10320000Y-8909500D02*
X10320000Y-8998500D01*
X10275500Y-8954000D02*
X10364500Y-8954000D01*
X10320000Y-11255500D02*
X10320000Y-11344500D01*
X10275500Y-11300000D02*
X10364500Y-11300000D01*
X10320000Y-11509500D02*
X10320000Y-11598500D01*
X10275500Y-11554000D02*
X10364500Y-11554000D01*
X19630000Y-11451500D02*
X19630000Y-11540500D01*
X19585500Y-11496000D02*
X19674500Y-11496000D01*
X19630000Y-11705500D02*
X19630000Y-11794500D01*
X19585500Y-11750000D02*
X19674500Y-11750000D01*
X12420964Y-8198325D02*
X12420964Y-8134685D01*
X12357323Y-8134685D01*
X12357323Y-8198325D01*
X12420964Y-8198325D01*
X12420964Y-8465315D02*
X12420964Y-8401675D01*
X12357323Y-8401675D01*
X12357323Y-8465315D01*
X12420964Y-8465315D01*
X12420964Y-11598325D02*
X12420964Y-11534685D01*
X12357323Y-11534685D01*
X12357323Y-11598325D01*
X12420964Y-11598325D01*
X12420964Y-11865315D02*
X12420964Y-11801675D01*
X12357323Y-11801675D01*
X12357323Y-11865315D01*
X12420964Y-11865315D01*
X12577897Y-7982325D02*
X12577897Y-7918685D01*
X12514257Y-7918685D01*
X12514257Y-7982325D01*
X12577897Y-7982325D01*
X12577897Y-8681315D02*
X12577897Y-8617675D01*
X12514257Y-8617675D01*
X12514257Y-8681315D01*
X12577897Y-8681315D01*
X12577897Y-11382325D02*
X12577897Y-11318685D01*
X12514257Y-11318685D01*
X12514257Y-11382325D01*
X12577897Y-11382325D01*
X12577897Y-12081315D02*
X12577897Y-12017675D01*
X12514257Y-12017675D01*
X12514257Y-12081315D01*
X12577897Y-12081315D01*
X12831820Y-7899820D02*
X12831820Y-7836180D01*
X12768180Y-7836180D01*
X12768180Y-7899820D01*
X12831820Y-7899820D01*
X12831820Y-8090320D02*
X12831820Y-8026680D01*
X12768180Y-8026680D01*
X12768180Y-8090320D01*
X12831820Y-8090320D01*
X12831820Y-8573320D02*
X12831820Y-8509680D01*
X12768180Y-8509680D01*
X12768180Y-8573320D01*
X12831820Y-8573320D01*
X12831820Y-8763820D02*
X12831820Y-8700180D01*
X12768180Y-8700180D01*
X12768180Y-8763820D01*
X12831820Y-8763820D01*
X12831820Y-11299820D02*
X12831820Y-11236180D01*
X12768180Y-11236180D01*
X12768180Y-11299820D01*
X12831820Y-11299820D01*
X12831820Y-11490320D02*
X12831820Y-11426680D01*
X12768180Y-11426680D01*
X12768180Y-11490320D01*
X12831820Y-11490320D01*
X12831820Y-11973320D02*
X12831820Y-11909680D01*
X12768180Y-11909680D01*
X12768180Y-11973320D01*
X12831820Y-11973320D01*
X12831820Y-12163820D02*
X12831820Y-12100180D01*
X12768180Y-12100180D01*
X12768180Y-12163820D01*
X12831820Y-12163820D01*
X13085743Y-7982325D02*
X13085743Y-7918685D01*
X13022103Y-7918685D01*
X13022103Y-7982325D01*
X13085743Y-7982325D01*
X13085743Y-8681315D02*
X13085743Y-8617675D01*
X13022103Y-8617675D01*
X13022103Y-8681315D01*
X13085743Y-8681315D01*
X13085743Y-11382325D02*
X13085743Y-11318685D01*
X13022103Y-11318685D01*
X13022103Y-11382325D01*
X13085743Y-11382325D01*
X13085743Y-12081315D02*
X13085743Y-12017675D01*
X13022103Y-12017675D01*
X13022103Y-12081315D01*
X13085743Y-12081315D01*
X13242676Y-8198325D02*
X13242676Y-8134685D01*
X13179036Y-8134685D01*
X13179036Y-8198325D01*
X13242676Y-8198325D01*
X13242676Y-8465315D02*
X13242676Y-8401675D01*
X13179036Y-8401675D01*
X13179036Y-8465315D01*
X13242676Y-8465315D01*
X13242676Y-11598325D02*
X13242676Y-11534685D01*
X13179036Y-11534685D01*
X13179036Y-11598325D01*
X13242676Y-11598325D01*
X13242676Y-11865315D02*
X13242676Y-11801675D01*
X13179036Y-11801675D01*
X13179036Y-11865315D01*
X13242676Y-11865315D01*
X14970964Y-11598325D02*
X14970964Y-11534685D01*
X14907323Y-11534685D01*
X14907323Y-11598325D01*
X14970964Y-11598325D01*
X14970964Y-11865315D02*
X14970964Y-11801675D01*
X14907323Y-11801675D01*
X14907323Y-11865315D01*
X14970964Y-11865315D01*
X15127897Y-11382325D02*
X15127897Y-11318685D01*
X15064257Y-11318685D01*
X15064257Y-11382325D01*
X15127897Y-11382325D01*
X15127897Y-12081315D02*
X15127897Y-12017675D01*
X15064257Y-12017675D01*
X15064257Y-12081315D01*
X15127897Y-12081315D01*
X15381820Y-11299820D02*
X15381820Y-11236180D01*
X15318180Y-11236180D01*
X15318180Y-11299820D01*
X15381820Y-11299820D01*
X15381820Y-11490320D02*
X15381820Y-11426680D01*
X15318180Y-11426680D01*
X15318180Y-11490320D01*
X15381820Y-11490320D01*
X15381820Y-11973320D02*
X15381820Y-11909680D01*
X15318180Y-11909680D01*
X15318180Y-11973320D01*
X15381820Y-11973320D01*
X15381820Y-12163820D02*
X15381820Y-12100180D01*
X15318180Y-12100180D01*
X15318180Y-12163820D01*
X15381820Y-12163820D01*
X15635743Y-11382325D02*
X15635743Y-11318685D01*
X15572103Y-11318685D01*
X15572103Y-11382325D01*
X15635743Y-11382325D01*
X15635743Y-12081315D02*
X15635743Y-12017675D01*
X15572103Y-12017675D01*
X15572103Y-12081315D01*
X15635743Y-12081315D01*
X15792676Y-11598325D02*
X15792676Y-11534685D01*
X15729036Y-11534685D01*
X15729036Y-11598325D01*
X15792676Y-11598325D01*
X15792676Y-11865315D02*
X15792676Y-11801675D01*
X15729036Y-11801675D01*
X15729036Y-11865315D01*
X15792676Y-11865315D01*
X16431820Y-9281820D02*
X16431820Y-9218180D01*
X16368180Y-9218180D01*
X16368180Y-9281820D01*
X16431820Y-9281820D01*
X16631820Y-9281820D02*
X16631820Y-9218180D01*
X16568180Y-9218180D01*
X16568180Y-9281820D01*
X16631820Y-9281820D01*
X16831820Y-9281820D02*
X16831820Y-9218180D01*
X16768180Y-9218180D01*
X16768180Y-9281820D01*
X16831820Y-9281820D01*
X17031820Y-9281820D02*
X17031820Y-9218180D01*
X16968180Y-9218180D01*
X16968180Y-9281820D01*
X17031820Y-9281820D01*
X17131820Y-11231820D02*
X17131820Y-11168180D01*
X17068180Y-11168180D01*
X17068180Y-11231820D01*
X17131820Y-11231820D01*
X17131820Y-11431820D02*
X17131820Y-11368180D01*
X17068180Y-11368180D01*
X17068180Y-11431820D01*
X17131820Y-11431820D01*
X17131820Y-11631820D02*
X17131820Y-11568180D01*
X17068180Y-11568180D01*
X17068180Y-11631820D01*
X17131820Y-11631820D01*
X17131820Y-11831820D02*
X17131820Y-11768180D01*
X17068180Y-11768180D01*
X17068180Y-11831820D01*
X17131820Y-11831820D01*
X17131820Y-12031820D02*
X17131820Y-11968180D01*
X17068180Y-11968180D01*
X17068180Y-12031820D01*
X17131820Y-12031820D01*
X17131820Y-12231820D02*
X17131820Y-12168180D01*
X17068180Y-12168180D01*
X17068180Y-12231820D01*
X17131820Y-12231820D01*
X17231820Y-9281820D02*
X17231820Y-9218180D01*
X17168180Y-9218180D01*
X17168180Y-9281820D01*
X17231820Y-9281820D01*
X17431820Y-9281820D02*
X17431820Y-9218180D01*
X17368180Y-9218180D01*
X17368180Y-9281820D01*
X17431820Y-9281820D01*
X20111820Y-10031820D02*
X20111820Y-9968180D01*
X20048180Y-9968180D01*
X20048180Y-10031820D01*
X20111820Y-10031820D01*
X20365820Y-10031820D02*
X20365820Y-9968180D01*
X20302180Y-9968180D01*
X20302180Y-10031820D01*
X20365820Y-10031820D01*
X15400000Y-7650000D02*
X15450000Y-7600000D01*
X15400000Y-7550000D01*
X15350000Y-7600000D01*
X15400000Y-7650000D01*
X15400000Y-7900000D02*
X15450000Y-7850000D01*
X15400000Y-7800000D01*
X15350000Y-7850000D01*
X15400000Y-7900000D01*
X15400000Y-8150000D02*
X15450000Y-8100000D01*
X15400000Y-8050000D01*
X15350000Y-8100000D01*
X15400000Y-8150000D01*
X16200000Y-7650000D02*
X16250000Y-7600000D01*
X16200000Y-7550000D01*
X16150000Y-7600000D01*
X16200000Y-7650000D01*
X16200000Y-7900000D02*
X16250000Y-7850000D01*
X16200000Y-7800000D01*
X16150000Y-7850000D01*
X16200000Y-7900000D01*
X16200000Y-8150000D02*
X16250000Y-8100000D01*
X16200000Y-8050000D01*
X16150000Y-8100000D01*
X16200000Y-8150000D01*
X19690000Y-8300000D02*
X19740000Y-8250000D01*
X19690000Y-8200000D01*
X19640000Y-8250000D01*
X19690000Y-8300000D01*
X19730000Y-8350000D02*
X19730000Y-8150000D01*
X19650000Y-8350000D02*
X19650000Y-8150000D01*
X19730000Y-8150000D02*
G75*
G03*
X19650000Y-8150000I-40000J0D01*
G01*
X19650000Y-8350000D02*
G75*
G03*
X19730000Y-8350000I40000J0D01*
G01*
X20290000Y-8300000D02*
X20340000Y-8250000D01*
X20290000Y-8200000D01*
X20240000Y-8250000D01*
X20290000Y-8300000D01*
X20330000Y-8315000D02*
X20330000Y-8185000D01*
X20250000Y-8315000D02*
X20250000Y-8185000D01*
X20330000Y-8185000D02*
G75*
G03*
X20250000Y-8185000I-40000J0D01*
G01*
X20250000Y-8315000D02*
G75*
G03*
X20330000Y-8315000I40000J0D01*
G01*
X20390000Y-7850000D02*
X20440000Y-7800000D01*
X20390000Y-7750000D01*
X20340000Y-7800000D01*
X20390000Y-7850000D01*
X20315000Y-7840000D02*
X20465000Y-7840000D01*
X20315000Y-7760000D02*
X20465000Y-7760000D01*
X20465000Y-7840000D02*
G75*
G03*
X20465000Y-7760000I0J40000D01*
G01*
X20315000Y-7760000D02*
G75*
G03*
X20315000Y-7840000I0J-40000D01*
G01*
X20390000Y-8750000D02*
X20440000Y-8700000D01*
X20390000Y-8650000D01*
X20340000Y-8700000D01*
X20390000Y-8750000D01*
X20315000Y-8740000D02*
X20465000Y-8740000D01*
X20315000Y-8660000D02*
X20465000Y-8660000D01*
X20465000Y-8740000D02*
G75*
G03*
X20465000Y-8660000I0J40000D01*
G01*
X20315000Y-8660000D02*
G75*
G03*
X20315000Y-8740000I0J-40000D01*
G01*
X16190000Y-8930000D02*
X16310000Y-9050000D01*
X16310000Y-8930000D02*
X16190000Y-9050000D01*
X16310000Y-8990000D02*
G75*
G03*
X16310000Y-8990000I-60000J0D01*
G01*
X16190000Y-9450000D02*
X16310000Y-9570000D01*
X16310000Y-9450000D02*
X16190000Y-9570000D01*
X16310000Y-9510000D02*
G75*
G03*
X16310000Y-9510000I-60000J0D01*
G01*
X16780000Y-10990000D02*
X16900000Y-11110000D01*
X16900000Y-10990000D02*
X16780000Y-11110000D01*
X16900000Y-11050000D02*
G75*
G03*
X16900000Y-11050000I-60000J0D01*
G01*
X16780000Y-12300000D02*
X16900000Y-12420000D01*
X16900000Y-12300000D02*
X16780000Y-12420000D01*
X16900000Y-12360000D02*
G75*
G03*
X16900000Y-12360000I-60000J0D01*
G01*
X17300000Y-10990000D02*
X17420000Y-11110000D01*
X17420000Y-10990000D02*
X17300000Y-11110000D01*
X17420000Y-11050000D02*
G75*
G03*
X17420000Y-11050000I-60000J0D01*
G01*
X17300000Y-12300000D02*
X17420000Y-12420000D01*
X17420000Y-12300000D02*
X17300000Y-12420000D01*
X17420000Y-12360000D02*
G75*
G03*
X17420000Y-12360000I-60000J0D01*
G01*
X17500000Y-8930000D02*
X17620000Y-9050000D01*
X17620000Y-8930000D02*
X17500000Y-9050000D01*
X17620000Y-8990000D02*
G75*
G03*
X17620000Y-8990000I-60000J0D01*
G01*
X17500000Y-9450000D02*
X17620000Y-9570000D01*
X17620000Y-9450000D02*
X17500000Y-9570000D01*
X17620000Y-9510000D02*
G75*
G03*
X17620000Y-9510000I-60000J0D01*
G01*
X9711500Y-8091500D02*
X9912500Y-8292500D01*
X9912500Y-8091500D02*
X9711500Y-8292500D01*
X9812000Y-8091500D02*
X9812000Y-8292500D01*
X9711500Y-8192000D02*
X9912500Y-8192000D01*
X9711500Y-9107500D02*
X9912500Y-9308500D01*
X9912500Y-9107500D02*
X9711500Y-9308500D01*
X9812000Y-9107500D02*
X9812000Y-9308500D01*
X9711500Y-9208000D02*
X9912500Y-9208000D01*
X9711500Y-10691500D02*
X9912500Y-10892500D01*
X9912500Y-10691500D02*
X9711500Y-10892500D01*
X9812000Y-10691500D02*
X9812000Y-10892500D01*
X9711500Y-10792000D02*
X9912500Y-10792000D01*
X9711500Y-11707500D02*
X9912500Y-11908500D01*
X9912500Y-11707500D02*
X9711500Y-11908500D01*
X9812000Y-11707500D02*
X9812000Y-11908500D01*
X9711500Y-11808000D02*
X9912500Y-11808000D01*
X20037500Y-11141500D02*
X20238500Y-11342500D01*
X20238500Y-11141500D02*
X20037500Y-11342500D01*
X20138000Y-11141500D02*
X20138000Y-11342500D01*
X20037500Y-11242000D02*
X20238500Y-11242000D01*
X20037500Y-12157500D02*
X20238500Y-12358500D01*
X20238500Y-12157500D02*
X20037500Y-12358500D01*
X20138000Y-12157500D02*
X20138000Y-12358500D01*
X20037500Y-12258000D02*
X20238500Y-12258000D01*
D12*
X9283928Y-14193214D02*
X9283928Y-13893214D01*
X9355357Y-13893214D01*
X9398214Y-13907500D01*
X9426786Y-13936071D01*
X9441071Y-13964643D01*
X9455357Y-14021786D01*
X9455357Y-14064643D01*
X9441071Y-14121786D01*
X9426786Y-14150357D01*
X9398214Y-14178929D01*
X9355357Y-14193214D01*
X9283928Y-14193214D01*
X9583928Y-14193214D02*
X9583928Y-13993214D01*
X9583928Y-14050357D02*
X9598214Y-14021786D01*
X9612500Y-14007500D01*
X9641071Y-13993214D01*
X9669643Y-13993214D01*
X9769643Y-14193214D02*
X9769643Y-13993214D01*
X9769643Y-13893214D02*
X9755357Y-13907500D01*
X9769643Y-13921786D01*
X9783928Y-13907500D01*
X9769643Y-13893214D01*
X9769643Y-13921786D01*
X9955357Y-14193214D02*
X9926786Y-14178929D01*
X9912500Y-14150357D01*
X9912500Y-13893214D01*
X10112500Y-14193214D02*
X10083928Y-14178929D01*
X10069643Y-14150357D01*
X10069643Y-13893214D01*
X10455357Y-14193214D02*
X10455357Y-13893214D01*
X10555357Y-14107500D01*
X10655357Y-13893214D01*
X10655357Y-14193214D01*
X10926786Y-14193214D02*
X10926786Y-14036071D01*
X10912500Y-14007500D01*
X10883928Y-13993214D01*
X10826786Y-13993214D01*
X10798214Y-14007500D01*
X10926786Y-14178929D02*
X10898214Y-14193214D01*
X10826786Y-14193214D01*
X10798214Y-14178929D01*
X10783928Y-14150357D01*
X10783928Y-14121786D01*
X10798214Y-14093214D01*
X10826786Y-14078929D01*
X10898214Y-14078929D01*
X10926786Y-14064643D01*
X11069643Y-13993214D02*
X11069643Y-14293214D01*
X11069643Y-14007500D02*
X11098214Y-13993214D01*
X11155357Y-13993214D01*
X11183928Y-14007500D01*
X11198214Y-14021786D01*
X11212500Y-14050357D01*
X11212500Y-14136071D01*
X11198214Y-14164643D01*
X11183928Y-14178929D01*
X11155357Y-14193214D01*
X11098214Y-14193214D01*
X11069643Y-14178929D01*
X11341071Y-14164643D02*
X11355357Y-14178929D01*
X11341071Y-14193214D01*
X11326786Y-14178929D01*
X11341071Y-14164643D01*
X11341071Y-14193214D01*
X11341071Y-14007500D02*
X11355357Y-14021786D01*
X11341071Y-14036071D01*
X11326786Y-14021786D01*
X11341071Y-14007500D01*
X11341071Y-14036071D01*
X8952500Y-14665000D02*
X8997500Y-14710000D01*
X8997500Y-14665000D02*
X8952500Y-14710000D01*
X9341071Y-14523214D02*
X9369643Y-14523214D01*
X9398214Y-14537500D01*
X9412500Y-14551786D01*
X9426786Y-14580357D01*
X9441071Y-14637500D01*
X9441071Y-14708929D01*
X9426786Y-14766071D01*
X9412500Y-14794643D01*
X9398214Y-14808929D01*
X9369643Y-14823214D01*
X9341071Y-14823214D01*
X9312500Y-14808929D01*
X9298214Y-14794643D01*
X9283928Y-14766071D01*
X9269643Y-14708929D01*
X9269643Y-14637500D01*
X9283928Y-14580357D01*
X9298214Y-14551786D01*
X9312500Y-14537500D01*
X9341071Y-14523214D01*
X9569643Y-14794643D02*
X9583928Y-14808929D01*
X9569643Y-14823214D01*
X9555357Y-14808929D01*
X9569643Y-14794643D01*
X9569643Y-14823214D01*
X9841071Y-14623214D02*
X9841071Y-14823214D01*
X9769643Y-14508929D02*
X9698214Y-14723214D01*
X9883928Y-14723214D01*
X10141071Y-14523214D02*
X9998214Y-14523214D01*
X9983928Y-14666071D01*
X9998214Y-14651786D01*
X10026786Y-14637500D01*
X10098214Y-14637500D01*
X10126786Y-14651786D01*
X10141071Y-14666071D01*
X10155357Y-14694643D01*
X10155357Y-14766071D01*
X10141071Y-14794643D01*
X10126786Y-14808929D01*
X10098214Y-14823214D01*
X10026786Y-14823214D01*
X9998214Y-14808929D01*
X9983928Y-14794643D01*
X10283928Y-14823214D02*
X10283928Y-14623214D01*
X10283928Y-14651786D02*
X10298214Y-14637500D01*
X10326786Y-14623214D01*
X10369643Y-14623214D01*
X10398214Y-14637500D01*
X10412500Y-14666071D01*
X10412500Y-14823214D01*
X10412500Y-14666071D02*
X10426786Y-14637500D01*
X10455357Y-14623214D01*
X10498214Y-14623214D01*
X10526786Y-14637500D01*
X10541071Y-14666071D01*
X10541071Y-14823214D01*
X10683928Y-14823214D02*
X10683928Y-14623214D01*
X10683928Y-14651786D02*
X10698214Y-14637500D01*
X10726786Y-14623214D01*
X10769643Y-14623214D01*
X10798214Y-14637500D01*
X10812500Y-14666071D01*
X10812500Y-14823214D01*
X10812500Y-14666071D02*
X10826786Y-14637500D01*
X10855357Y-14623214D01*
X10898214Y-14623214D01*
X10926786Y-14637500D01*
X10941071Y-14666071D01*
X10941071Y-14823214D01*
X11526786Y-14508929D02*
X11269643Y-14894643D01*
X11912500Y-14523214D02*
X11941071Y-14523214D01*
X11969643Y-14537500D01*
X11983928Y-14551786D01*
X11998214Y-14580357D01*
X12012500Y-14637500D01*
X12012500Y-14708929D01*
X11998214Y-14766071D01*
X11983928Y-14794643D01*
X11969643Y-14808929D01*
X11941071Y-14823214D01*
X11912500Y-14823214D01*
X11883928Y-14808929D01*
X11869643Y-14794643D01*
X11855357Y-14766071D01*
X11841071Y-14708929D01*
X11841071Y-14637500D01*
X11855357Y-14580357D01*
X11869643Y-14551786D01*
X11883928Y-14537500D01*
X11912500Y-14523214D01*
X12141071Y-14794643D02*
X12155357Y-14808929D01*
X12141071Y-14823214D01*
X12126786Y-14808929D01*
X12141071Y-14794643D01*
X12141071Y-14823214D01*
X12341071Y-14523214D02*
X12369643Y-14523214D01*
X12398214Y-14537500D01*
X12412500Y-14551786D01*
X12426786Y-14580357D01*
X12441071Y-14637500D01*
X12441071Y-14708929D01*
X12426786Y-14766071D01*
X12412500Y-14794643D01*
X12398214Y-14808929D01*
X12369643Y-14823214D01*
X12341071Y-14823214D01*
X12312500Y-14808929D01*
X12298214Y-14794643D01*
X12283928Y-14766071D01*
X12269643Y-14708929D01*
X12269643Y-14637500D01*
X12283928Y-14580357D01*
X12298214Y-14551786D01*
X12312500Y-14537500D01*
X12341071Y-14523214D01*
X12726786Y-14823214D02*
X12555357Y-14823214D01*
X12641071Y-14823214D02*
X12641071Y-14523214D01*
X12612500Y-14566071D01*
X12583928Y-14594643D01*
X12555357Y-14608929D01*
X12898214Y-14651786D02*
X12869643Y-14637500D01*
X12855357Y-14623214D01*
X12841071Y-14594643D01*
X12841071Y-14580357D01*
X12855357Y-14551786D01*
X12869643Y-14537500D01*
X12898214Y-14523214D01*
X12955357Y-14523214D01*
X12983928Y-14537500D01*
X12998214Y-14551786D01*
X13012500Y-14580357D01*
X13012500Y-14594643D01*
X12998214Y-14623214D01*
X12983928Y-14637500D01*
X12955357Y-14651786D01*
X12898214Y-14651786D01*
X12869643Y-14666071D01*
X12855357Y-14680357D01*
X12841071Y-14708929D01*
X12841071Y-14766071D01*
X12855357Y-14794643D01*
X12869643Y-14808929D01*
X12898214Y-14823214D01*
X12955357Y-14823214D01*
X12983928Y-14808929D01*
X12998214Y-14794643D01*
X13012500Y-14766071D01*
X13012500Y-14708929D01*
X12998214Y-14680357D01*
X12983928Y-14666071D01*
X12955357Y-14651786D01*
X13126786Y-14523214D02*
X13126786Y-14580357D01*
X13241071Y-14523214D02*
X13241071Y-14580357D01*
X13683928Y-14937500D02*
X13669643Y-14923214D01*
X13641071Y-14880357D01*
X13626786Y-14851786D01*
X13612500Y-14808929D01*
X13598214Y-14737500D01*
X13598214Y-14680357D01*
X13612500Y-14608929D01*
X13626786Y-14566071D01*
X13641071Y-14537500D01*
X13669643Y-14494643D01*
X13683928Y-14480357D01*
X13955357Y-14823214D02*
X13783928Y-14823214D01*
X13869643Y-14823214D02*
X13869643Y-14523214D01*
X13841071Y-14566071D01*
X13812500Y-14594643D01*
X13783928Y-14608929D01*
X14141071Y-14523214D02*
X14169643Y-14523214D01*
X14198214Y-14537500D01*
X14212500Y-14551786D01*
X14226786Y-14580357D01*
X14241071Y-14637500D01*
X14241071Y-14708929D01*
X14226786Y-14766071D01*
X14212500Y-14794643D01*
X14198214Y-14808929D01*
X14169643Y-14823214D01*
X14141071Y-14823214D01*
X14112500Y-14808929D01*
X14098214Y-14794643D01*
X14083928Y-14766071D01*
X14069643Y-14708929D01*
X14069643Y-14637500D01*
X14083928Y-14580357D01*
X14098214Y-14551786D01*
X14112500Y-14537500D01*
X14141071Y-14523214D01*
X14498214Y-14623214D02*
X14498214Y-14823214D01*
X14426786Y-14508929D02*
X14355357Y-14723214D01*
X14541071Y-14723214D01*
X14883928Y-14823214D02*
X14883928Y-14523214D01*
X15012500Y-14823214D02*
X15012500Y-14666071D01*
X14998214Y-14637500D01*
X14969643Y-14623214D01*
X14926786Y-14623214D01*
X14898214Y-14637500D01*
X14883928Y-14651786D01*
X15198214Y-14823214D02*
X15169643Y-14808929D01*
X15155357Y-14794643D01*
X15141071Y-14766071D01*
X15141071Y-14680357D01*
X15155357Y-14651786D01*
X15169643Y-14637500D01*
X15198214Y-14623214D01*
X15241071Y-14623214D01*
X15269643Y-14637500D01*
X15283928Y-14651786D01*
X15298214Y-14680357D01*
X15298214Y-14766071D01*
X15283928Y-14794643D01*
X15269643Y-14808929D01*
X15241071Y-14823214D01*
X15198214Y-14823214D01*
X15469643Y-14823214D02*
X15441071Y-14808929D01*
X15426786Y-14780357D01*
X15426786Y-14523214D01*
X15698214Y-14808929D02*
X15669643Y-14823214D01*
X15612500Y-14823214D01*
X15583928Y-14808929D01*
X15569643Y-14780357D01*
X15569643Y-14666071D01*
X15583928Y-14637500D01*
X15612500Y-14623214D01*
X15669643Y-14623214D01*
X15698214Y-14637500D01*
X15712500Y-14666071D01*
X15712500Y-14694643D01*
X15569643Y-14723214D01*
X15826786Y-14808929D02*
X15855357Y-14823214D01*
X15912500Y-14823214D01*
X15941071Y-14808929D01*
X15955357Y-14780357D01*
X15955357Y-14766071D01*
X15941071Y-14737500D01*
X15912500Y-14723214D01*
X15869643Y-14723214D01*
X15841071Y-14708929D01*
X15826786Y-14680357D01*
X15826786Y-14666071D01*
X15841071Y-14637500D01*
X15869643Y-14623214D01*
X15912500Y-14623214D01*
X15941071Y-14637500D01*
X16055357Y-14937500D02*
X16069643Y-14923214D01*
X16098214Y-14880357D01*
X16112500Y-14851786D01*
X16126786Y-14808929D01*
X16141071Y-14737500D01*
X16141071Y-14680357D01*
X16126786Y-14608929D01*
X16112500Y-14566071D01*
X16098214Y-14537500D01*
X16069643Y-14494643D01*
X16055357Y-14480357D01*
X8997500Y-15083500D02*
G75*
G03*
X8997500Y-15083500I-40000J0D01*
G01*
X9341071Y-14919214D02*
X9369643Y-14919214D01*
X9398214Y-14933500D01*
X9412500Y-14947786D01*
X9426786Y-14976357D01*
X9441071Y-15033500D01*
X9441071Y-15104929D01*
X9426786Y-15162071D01*
X9412500Y-15190643D01*
X9398214Y-15204929D01*
X9369643Y-15219214D01*
X9341071Y-15219214D01*
X9312500Y-15204929D01*
X9298214Y-15190643D01*
X9283928Y-15162071D01*
X9269643Y-15104929D01*
X9269643Y-15033500D01*
X9283928Y-14976357D01*
X9298214Y-14947786D01*
X9312500Y-14933500D01*
X9341071Y-14919214D01*
X9569643Y-15190643D02*
X9583928Y-15204929D01*
X9569643Y-15219214D01*
X9555357Y-15204929D01*
X9569643Y-15190643D01*
X9569643Y-15219214D01*
X9755357Y-15047786D02*
X9726786Y-15033500D01*
X9712500Y-15019214D01*
X9698214Y-14990643D01*
X9698214Y-14976357D01*
X9712500Y-14947786D01*
X9726786Y-14933500D01*
X9755357Y-14919214D01*
X9812500Y-14919214D01*
X9841071Y-14933500D01*
X9855357Y-14947786D01*
X9869643Y-14976357D01*
X9869643Y-14990643D01*
X9855357Y-15019214D01*
X9841071Y-15033500D01*
X9812500Y-15047786D01*
X9755357Y-15047786D01*
X9726786Y-15062071D01*
X9712500Y-15076357D01*
X9698214Y-15104929D01*
X9698214Y-15162071D01*
X9712500Y-15190643D01*
X9726786Y-15204929D01*
X9755357Y-15219214D01*
X9812500Y-15219214D01*
X9841071Y-15204929D01*
X9855357Y-15190643D01*
X9869643Y-15162071D01*
X9869643Y-15104929D01*
X9855357Y-15076357D01*
X9841071Y-15062071D01*
X9812500Y-15047786D01*
X10055357Y-14919214D02*
X10083928Y-14919214D01*
X10112500Y-14933500D01*
X10126786Y-14947786D01*
X10141071Y-14976357D01*
X10155357Y-15033500D01*
X10155357Y-15104929D01*
X10141071Y-15162071D01*
X10126786Y-15190643D01*
X10112500Y-15204929D01*
X10083928Y-15219214D01*
X10055357Y-15219214D01*
X10026786Y-15204929D01*
X10012500Y-15190643D01*
X9998214Y-15162071D01*
X9983928Y-15104929D01*
X9983928Y-15033500D01*
X9998214Y-14976357D01*
X10012500Y-14947786D01*
X10026786Y-14933500D01*
X10055357Y-14919214D01*
X10283928Y-15219214D02*
X10283928Y-15019214D01*
X10283928Y-15047786D02*
X10298214Y-15033500D01*
X10326786Y-15019214D01*
X10369643Y-15019214D01*
X10398214Y-15033500D01*
X10412500Y-15062071D01*
X10412500Y-15219214D01*
X10412500Y-15062071D02*
X10426786Y-15033500D01*
X10455357Y-15019214D01*
X10498214Y-15019214D01*
X10526786Y-15033500D01*
X10541071Y-15062071D01*
X10541071Y-15219214D01*
X10683928Y-15219214D02*
X10683928Y-15019214D01*
X10683928Y-15047786D02*
X10698214Y-15033500D01*
X10726786Y-15019214D01*
X10769643Y-15019214D01*
X10798214Y-15033500D01*
X10812500Y-15062071D01*
X10812500Y-15219214D01*
X10812500Y-15062071D02*
X10826786Y-15033500D01*
X10855357Y-15019214D01*
X10898214Y-15019214D01*
X10926786Y-15033500D01*
X10941071Y-15062071D01*
X10941071Y-15219214D01*
X11526786Y-14904929D02*
X11269643Y-15290643D01*
X11912500Y-14919214D02*
X11941071Y-14919214D01*
X11969643Y-14933500D01*
X11983928Y-14947786D01*
X11998214Y-14976357D01*
X12012500Y-15033500D01*
X12012500Y-15104929D01*
X11998214Y-15162071D01*
X11983928Y-15190643D01*
X11969643Y-15204929D01*
X11941071Y-15219214D01*
X11912500Y-15219214D01*
X11883928Y-15204929D01*
X11869643Y-15190643D01*
X11855357Y-15162071D01*
X11841071Y-15104929D01*
X11841071Y-15033500D01*
X11855357Y-14976357D01*
X11869643Y-14947786D01*
X11883928Y-14933500D01*
X11912500Y-14919214D01*
X12141071Y-15190643D02*
X12155357Y-15204929D01*
X12141071Y-15219214D01*
X12126786Y-15204929D01*
X12141071Y-15190643D01*
X12141071Y-15219214D01*
X12341071Y-14919214D02*
X12369643Y-14919214D01*
X12398214Y-14933500D01*
X12412500Y-14947786D01*
X12426786Y-14976357D01*
X12441071Y-15033500D01*
X12441071Y-15104929D01*
X12426786Y-15162071D01*
X12412500Y-15190643D01*
X12398214Y-15204929D01*
X12369643Y-15219214D01*
X12341071Y-15219214D01*
X12312500Y-15204929D01*
X12298214Y-15190643D01*
X12283928Y-15162071D01*
X12269643Y-15104929D01*
X12269643Y-15033500D01*
X12283928Y-14976357D01*
X12298214Y-14947786D01*
X12312500Y-14933500D01*
X12341071Y-14919214D01*
X12541071Y-14919214D02*
X12726786Y-14919214D01*
X12626786Y-15033500D01*
X12669643Y-15033500D01*
X12698214Y-15047786D01*
X12712500Y-15062071D01*
X12726786Y-15090643D01*
X12726786Y-15162071D01*
X12712500Y-15190643D01*
X12698214Y-15204929D01*
X12669643Y-15219214D01*
X12583928Y-15219214D01*
X12555357Y-15204929D01*
X12541071Y-15190643D01*
X13012500Y-15219214D02*
X12841071Y-15219214D01*
X12926786Y-15219214D02*
X12926786Y-14919214D01*
X12898214Y-14962071D01*
X12869643Y-14990643D01*
X12841071Y-15004929D01*
X13126786Y-14919214D02*
X13126786Y-14976357D01*
X13241071Y-14919214D02*
X13241071Y-14976357D01*
X13683928Y-15333500D02*
X13669643Y-15319214D01*
X13641071Y-15276357D01*
X13626786Y-15247786D01*
X13612500Y-15204929D01*
X13598214Y-15133500D01*
X13598214Y-15076357D01*
X13612500Y-15004929D01*
X13626786Y-14962071D01*
X13641071Y-14933500D01*
X13669643Y-14890643D01*
X13683928Y-14876357D01*
X13955357Y-15219214D02*
X13783928Y-15219214D01*
X13869643Y-15219214D02*
X13869643Y-14919214D01*
X13841071Y-14962071D01*
X13812500Y-14990643D01*
X13783928Y-15004929D01*
X14212500Y-14919214D02*
X14155357Y-14919214D01*
X14126786Y-14933500D01*
X14112500Y-14947786D01*
X14083928Y-14990643D01*
X14069643Y-15047786D01*
X14069643Y-15162071D01*
X14083928Y-15190643D01*
X14098214Y-15204929D01*
X14126786Y-15219214D01*
X14183928Y-15219214D01*
X14212500Y-15204929D01*
X14226786Y-15190643D01*
X14241071Y-15162071D01*
X14241071Y-15090643D01*
X14226786Y-15062071D01*
X14212500Y-15047786D01*
X14183928Y-15033500D01*
X14126786Y-15033500D01*
X14098214Y-15047786D01*
X14083928Y-15062071D01*
X14069643Y-15090643D01*
X14598214Y-15219214D02*
X14598214Y-14919214D01*
X14726786Y-15219214D02*
X14726786Y-15062071D01*
X14712500Y-15033500D01*
X14683928Y-15019214D01*
X14641071Y-15019214D01*
X14612500Y-15033500D01*
X14598214Y-15047786D01*
X14912500Y-15219214D02*
X14883928Y-15204929D01*
X14869643Y-15190643D01*
X14855357Y-15162071D01*
X14855357Y-15076357D01*
X14869643Y-15047786D01*
X14883928Y-15033500D01*
X14912500Y-15019214D01*
X14955357Y-15019214D01*
X14983928Y-15033500D01*
X14998214Y-15047786D01*
X15012500Y-15076357D01*
X15012500Y-15162071D01*
X14998214Y-15190643D01*
X14983928Y-15204929D01*
X14955357Y-15219214D01*
X14912500Y-15219214D01*
X15183928Y-15219214D02*
X15155357Y-15204929D01*
X15141071Y-15176357D01*
X15141071Y-14919214D01*
X15412500Y-15204929D02*
X15383928Y-15219214D01*
X15326786Y-15219214D01*
X15298214Y-15204929D01*
X15283928Y-15176357D01*
X15283928Y-15062071D01*
X15298214Y-15033500D01*
X15326786Y-15019214D01*
X15383928Y-15019214D01*
X15412500Y-15033500D01*
X15426786Y-15062071D01*
X15426786Y-15090643D01*
X15283928Y-15119214D01*
X15541071Y-15204929D02*
X15569643Y-15219214D01*
X15626786Y-15219214D01*
X15655357Y-15204929D01*
X15669643Y-15176357D01*
X15669643Y-15162071D01*
X15655357Y-15133500D01*
X15626786Y-15119214D01*
X15583928Y-15119214D01*
X15555357Y-15104929D01*
X15541071Y-15076357D01*
X15541071Y-15062071D01*
X15555357Y-15033500D01*
X15583928Y-15019214D01*
X15626786Y-15019214D01*
X15655357Y-15033500D01*
X15769643Y-15333500D02*
X15783928Y-15319214D01*
X15812500Y-15276357D01*
X15826786Y-15247786D01*
X15841071Y-15204929D01*
X15855357Y-15133500D01*
X15855357Y-15076357D01*
X15841071Y-15004929D01*
X15826786Y-14962071D01*
X15812500Y-14933500D01*
X15783928Y-14890643D01*
X15769643Y-14876357D01*
X8953000Y-15435000D02*
X8953000Y-15524000D01*
X8908500Y-15479500D02*
X8997500Y-15479500D01*
X9341071Y-15315214D02*
X9369643Y-15315214D01*
X9398214Y-15329500D01*
X9412500Y-15343786D01*
X9426786Y-15372357D01*
X9441071Y-15429500D01*
X9441071Y-15500929D01*
X9426786Y-15558071D01*
X9412500Y-15586643D01*
X9398214Y-15600929D01*
X9369643Y-15615214D01*
X9341071Y-15615214D01*
X9312500Y-15600929D01*
X9298214Y-15586643D01*
X9283928Y-15558071D01*
X9269643Y-15500929D01*
X9269643Y-15429500D01*
X9283928Y-15372357D01*
X9298214Y-15343786D01*
X9312500Y-15329500D01*
X9341071Y-15315214D01*
X9569643Y-15586643D02*
X9583928Y-15600929D01*
X9569643Y-15615214D01*
X9555357Y-15600929D01*
X9569643Y-15586643D01*
X9569643Y-15615214D01*
X9755357Y-15443786D02*
X9726786Y-15429500D01*
X9712500Y-15415214D01*
X9698214Y-15386643D01*
X9698214Y-15372357D01*
X9712500Y-15343786D01*
X9726786Y-15329500D01*
X9755357Y-15315214D01*
X9812500Y-15315214D01*
X9841071Y-15329500D01*
X9855357Y-15343786D01*
X9869643Y-15372357D01*
X9869643Y-15386643D01*
X9855357Y-15415214D01*
X9841071Y-15429500D01*
X9812500Y-15443786D01*
X9755357Y-15443786D01*
X9726786Y-15458071D01*
X9712500Y-15472357D01*
X9698214Y-15500929D01*
X9698214Y-15558071D01*
X9712500Y-15586643D01*
X9726786Y-15600929D01*
X9755357Y-15615214D01*
X9812500Y-15615214D01*
X9841071Y-15600929D01*
X9855357Y-15586643D01*
X9869643Y-15558071D01*
X9869643Y-15500929D01*
X9855357Y-15472357D01*
X9841071Y-15458071D01*
X9812500Y-15443786D01*
X10012500Y-15615214D02*
X10069643Y-15615214D01*
X10098214Y-15600929D01*
X10112500Y-15586643D01*
X10141071Y-15543786D01*
X10155357Y-15486643D01*
X10155357Y-15372357D01*
X10141071Y-15343786D01*
X10126786Y-15329500D01*
X10098214Y-15315214D01*
X10041071Y-15315214D01*
X10012500Y-15329500D01*
X9998214Y-15343786D01*
X9983928Y-15372357D01*
X9983928Y-15443786D01*
X9998214Y-15472357D01*
X10012500Y-15486643D01*
X10041071Y-15500929D01*
X10098214Y-15500929D01*
X10126786Y-15486643D01*
X10141071Y-15472357D01*
X10155357Y-15443786D01*
X10283928Y-15615214D02*
X10283928Y-15415214D01*
X10283928Y-15443786D02*
X10298214Y-15429500D01*
X10326786Y-15415214D01*
X10369643Y-15415214D01*
X10398214Y-15429500D01*
X10412500Y-15458071D01*
X10412500Y-15615214D01*
X10412500Y-15458071D02*
X10426786Y-15429500D01*
X10455357Y-15415214D01*
X10498214Y-15415214D01*
X10526786Y-15429500D01*
X10541071Y-15458071D01*
X10541071Y-15615214D01*
X10683928Y-15615214D02*
X10683928Y-15415214D01*
X10683928Y-15443786D02*
X10698214Y-15429500D01*
X10726786Y-15415214D01*
X10769643Y-15415214D01*
X10798214Y-15429500D01*
X10812500Y-15458071D01*
X10812500Y-15615214D01*
X10812500Y-15458071D02*
X10826786Y-15429500D01*
X10855357Y-15415214D01*
X10898214Y-15415214D01*
X10926786Y-15429500D01*
X10941071Y-15458071D01*
X10941071Y-15615214D01*
X11526786Y-15300929D02*
X11269643Y-15686643D01*
X11912500Y-15315214D02*
X11941071Y-15315214D01*
X11969643Y-15329500D01*
X11983928Y-15343786D01*
X11998214Y-15372357D01*
X12012500Y-15429500D01*
X12012500Y-15500929D01*
X11998214Y-15558071D01*
X11983928Y-15586643D01*
X11969643Y-15600929D01*
X11941071Y-15615214D01*
X11912500Y-15615214D01*
X11883928Y-15600929D01*
X11869643Y-15586643D01*
X11855357Y-15558071D01*
X11841071Y-15500929D01*
X11841071Y-15429500D01*
X11855357Y-15372357D01*
X11869643Y-15343786D01*
X11883928Y-15329500D01*
X11912500Y-15315214D01*
X12141071Y-15586643D02*
X12155357Y-15600929D01*
X12141071Y-15615214D01*
X12126786Y-15600929D01*
X12141071Y-15586643D01*
X12141071Y-15615214D01*
X12341071Y-15315214D02*
X12369643Y-15315214D01*
X12398214Y-15329500D01*
X12412500Y-15343786D01*
X12426786Y-15372357D01*
X12441071Y-15429500D01*
X12441071Y-15500929D01*
X12426786Y-15558071D01*
X12412500Y-15586643D01*
X12398214Y-15600929D01*
X12369643Y-15615214D01*
X12341071Y-15615214D01*
X12312500Y-15600929D01*
X12298214Y-15586643D01*
X12283928Y-15558071D01*
X12269643Y-15500929D01*
X12269643Y-15429500D01*
X12283928Y-15372357D01*
X12298214Y-15343786D01*
X12312500Y-15329500D01*
X12341071Y-15315214D01*
X12541071Y-15315214D02*
X12726786Y-15315214D01*
X12626786Y-15429500D01*
X12669643Y-15429500D01*
X12698214Y-15443786D01*
X12712500Y-15458071D01*
X12726786Y-15486643D01*
X12726786Y-15558071D01*
X12712500Y-15586643D01*
X12698214Y-15600929D01*
X12669643Y-15615214D01*
X12583928Y-15615214D01*
X12555357Y-15600929D01*
X12541071Y-15586643D01*
X12998214Y-15315214D02*
X12855357Y-15315214D01*
X12841071Y-15458071D01*
X12855357Y-15443786D01*
X12883928Y-15429500D01*
X12955357Y-15429500D01*
X12983928Y-15443786D01*
X12998214Y-15458071D01*
X13012500Y-15486643D01*
X13012500Y-15558071D01*
X12998214Y-15586643D01*
X12983928Y-15600929D01*
X12955357Y-15615214D01*
X12883928Y-15615214D01*
X12855357Y-15600929D01*
X12841071Y-15586643D01*
X13126786Y-15315214D02*
X13126786Y-15372357D01*
X13241071Y-15315214D02*
X13241071Y-15372357D01*
X13683928Y-15729500D02*
X13669643Y-15715214D01*
X13641071Y-15672357D01*
X13626786Y-15643786D01*
X13612500Y-15600929D01*
X13598214Y-15529500D01*
X13598214Y-15472357D01*
X13612500Y-15400929D01*
X13626786Y-15358071D01*
X13641071Y-15329500D01*
X13669643Y-15286643D01*
X13683928Y-15272357D01*
X13926786Y-15315214D02*
X13869643Y-15315214D01*
X13841071Y-15329500D01*
X13826786Y-15343786D01*
X13798214Y-15386643D01*
X13783928Y-15443786D01*
X13783928Y-15558071D01*
X13798214Y-15586643D01*
X13812500Y-15600929D01*
X13841071Y-15615214D01*
X13898214Y-15615214D01*
X13926786Y-15600929D01*
X13941071Y-15586643D01*
X13955357Y-15558071D01*
X13955357Y-15486643D01*
X13941071Y-15458071D01*
X13926786Y-15443786D01*
X13898214Y-15429500D01*
X13841071Y-15429500D01*
X13812500Y-15443786D01*
X13798214Y-15458071D01*
X13783928Y-15486643D01*
X14312500Y-15615214D02*
X14312500Y-15315214D01*
X14441071Y-15615214D02*
X14441071Y-15458071D01*
X14426786Y-15429500D01*
X14398214Y-15415214D01*
X14355357Y-15415214D01*
X14326786Y-15429500D01*
X14312500Y-15443786D01*
X14626786Y-15615214D02*
X14598214Y-15600929D01*
X14583928Y-15586643D01*
X14569643Y-15558071D01*
X14569643Y-15472357D01*
X14583928Y-15443786D01*
X14598214Y-15429500D01*
X14626786Y-15415214D01*
X14669643Y-15415214D01*
X14698214Y-15429500D01*
X14712500Y-15443786D01*
X14726786Y-15472357D01*
X14726786Y-15558071D01*
X14712500Y-15586643D01*
X14698214Y-15600929D01*
X14669643Y-15615214D01*
X14626786Y-15615214D01*
X14898214Y-15615214D02*
X14869643Y-15600929D01*
X14855357Y-15572357D01*
X14855357Y-15315214D01*
X15126786Y-15600929D02*
X15098214Y-15615214D01*
X15041071Y-15615214D01*
X15012500Y-15600929D01*
X14998214Y-15572357D01*
X14998214Y-15458071D01*
X15012500Y-15429500D01*
X15041071Y-15415214D01*
X15098214Y-15415214D01*
X15126786Y-15429500D01*
X15141071Y-15458071D01*
X15141071Y-15486643D01*
X14998214Y-15515214D01*
X15255357Y-15600929D02*
X15283928Y-15615214D01*
X15341071Y-15615214D01*
X15369643Y-15600929D01*
X15383928Y-15572357D01*
X15383928Y-15558071D01*
X15369643Y-15529500D01*
X15341071Y-15515214D01*
X15298214Y-15515214D01*
X15269643Y-15500929D01*
X15255357Y-15472357D01*
X15255357Y-15458071D01*
X15269643Y-15429500D01*
X15298214Y-15415214D01*
X15341071Y-15415214D01*
X15369643Y-15429500D01*
X15483928Y-15729500D02*
X15498214Y-15715214D01*
X15526786Y-15672357D01*
X15541071Y-15643786D01*
X15555357Y-15600929D01*
X15569643Y-15529500D01*
X15569643Y-15472357D01*
X15555357Y-15400929D01*
X15541071Y-15358071D01*
X15526786Y-15329500D01*
X15498214Y-15286643D01*
X15483928Y-15272357D01*
X8984320Y-15907320D02*
X8984320Y-15843680D01*
X8920680Y-15843680D01*
X8920680Y-15907320D01*
X8984320Y-15907320D01*
X9341071Y-15711214D02*
X9369643Y-15711214D01*
X9398214Y-15725500D01*
X9412500Y-15739786D01*
X9426786Y-15768357D01*
X9441071Y-15825500D01*
X9441071Y-15896929D01*
X9426786Y-15954071D01*
X9412500Y-15982643D01*
X9398214Y-15996929D01*
X9369643Y-16011214D01*
X9341071Y-16011214D01*
X9312500Y-15996929D01*
X9298214Y-15982643D01*
X9283928Y-15954071D01*
X9269643Y-15896929D01*
X9269643Y-15825500D01*
X9283928Y-15768357D01*
X9298214Y-15739786D01*
X9312500Y-15725500D01*
X9341071Y-15711214D01*
X9569643Y-15982643D02*
X9583928Y-15996929D01*
X9569643Y-16011214D01*
X9555357Y-15996929D01*
X9569643Y-15982643D01*
X9569643Y-16011214D01*
X9726786Y-16011214D02*
X9783928Y-16011214D01*
X9812500Y-15996929D01*
X9826786Y-15982643D01*
X9855357Y-15939786D01*
X9869643Y-15882643D01*
X9869643Y-15768357D01*
X9855357Y-15739786D01*
X9841071Y-15725500D01*
X9812500Y-15711214D01*
X9755357Y-15711214D01*
X9726786Y-15725500D01*
X9712500Y-15739786D01*
X9698214Y-15768357D01*
X9698214Y-15839786D01*
X9712500Y-15868357D01*
X9726786Y-15882643D01*
X9755357Y-15896929D01*
X9812500Y-15896929D01*
X9841071Y-15882643D01*
X9855357Y-15868357D01*
X9869643Y-15839786D01*
X10055357Y-15711214D02*
X10083928Y-15711214D01*
X10112500Y-15725500D01*
X10126786Y-15739786D01*
X10141071Y-15768357D01*
X10155357Y-15825500D01*
X10155357Y-15896929D01*
X10141071Y-15954071D01*
X10126786Y-15982643D01*
X10112500Y-15996929D01*
X10083928Y-16011214D01*
X10055357Y-16011214D01*
X10026786Y-15996929D01*
X10012500Y-15982643D01*
X9998214Y-15954071D01*
X9983928Y-15896929D01*
X9983928Y-15825500D01*
X9998214Y-15768357D01*
X10012500Y-15739786D01*
X10026786Y-15725500D01*
X10055357Y-15711214D01*
X10283928Y-16011214D02*
X10283928Y-15811214D01*
X10283928Y-15839786D02*
X10298214Y-15825500D01*
X10326786Y-15811214D01*
X10369643Y-15811214D01*
X10398214Y-15825500D01*
X10412500Y-15854071D01*
X10412500Y-16011214D01*
X10412500Y-15854071D02*
X10426786Y-15825500D01*
X10455357Y-15811214D01*
X10498214Y-15811214D01*
X10526786Y-15825500D01*
X10541071Y-15854071D01*
X10541071Y-16011214D01*
X10683928Y-16011214D02*
X10683928Y-15811214D01*
X10683928Y-15839786D02*
X10698214Y-15825500D01*
X10726786Y-15811214D01*
X10769643Y-15811214D01*
X10798214Y-15825500D01*
X10812500Y-15854071D01*
X10812500Y-16011214D01*
X10812500Y-15854071D02*
X10826786Y-15825500D01*
X10855357Y-15811214D01*
X10898214Y-15811214D01*
X10926786Y-15825500D01*
X10941071Y-15854071D01*
X10941071Y-16011214D01*
X11526786Y-15696929D02*
X11269643Y-16082643D01*
X11912500Y-15711214D02*
X11941071Y-15711214D01*
X11969643Y-15725500D01*
X11983928Y-15739786D01*
X11998214Y-15768357D01*
X12012500Y-15825500D01*
X12012500Y-15896929D01*
X11998214Y-15954071D01*
X11983928Y-15982643D01*
X11969643Y-15996929D01*
X11941071Y-16011214D01*
X11912500Y-16011214D01*
X11883928Y-15996929D01*
X11869643Y-15982643D01*
X11855357Y-15954071D01*
X11841071Y-15896929D01*
X11841071Y-15825500D01*
X11855357Y-15768357D01*
X11869643Y-15739786D01*
X11883928Y-15725500D01*
X11912500Y-15711214D01*
X12141071Y-15982643D02*
X12155357Y-15996929D01*
X12141071Y-16011214D01*
X12126786Y-15996929D01*
X12141071Y-15982643D01*
X12141071Y-16011214D01*
X12341071Y-15711214D02*
X12369643Y-15711214D01*
X12398214Y-15725500D01*
X12412500Y-15739786D01*
X12426786Y-15768357D01*
X12441071Y-15825500D01*
X12441071Y-15896929D01*
X12426786Y-15954071D01*
X12412500Y-15982643D01*
X12398214Y-15996929D01*
X12369643Y-16011214D01*
X12341071Y-16011214D01*
X12312500Y-15996929D01*
X12298214Y-15982643D01*
X12283928Y-15954071D01*
X12269643Y-15896929D01*
X12269643Y-15825500D01*
X12283928Y-15768357D01*
X12298214Y-15739786D01*
X12312500Y-15725500D01*
X12341071Y-15711214D01*
X12541071Y-15711214D02*
X12726786Y-15711214D01*
X12626786Y-15825500D01*
X12669643Y-15825500D01*
X12698214Y-15839786D01*
X12712500Y-15854071D01*
X12726786Y-15882643D01*
X12726786Y-15954071D01*
X12712500Y-15982643D01*
X12698214Y-15996929D01*
X12669643Y-16011214D01*
X12583928Y-16011214D01*
X12555357Y-15996929D01*
X12541071Y-15982643D01*
X12998214Y-15711214D02*
X12855357Y-15711214D01*
X12841071Y-15854071D01*
X12855357Y-15839786D01*
X12883928Y-15825500D01*
X12955357Y-15825500D01*
X12983928Y-15839786D01*
X12998214Y-15854071D01*
X13012500Y-15882643D01*
X13012500Y-15954071D01*
X12998214Y-15982643D01*
X12983928Y-15996929D01*
X12955357Y-16011214D01*
X12883928Y-16011214D01*
X12855357Y-15996929D01*
X12841071Y-15982643D01*
X13126786Y-15711214D02*
X13126786Y-15768357D01*
X13241071Y-15711214D02*
X13241071Y-15768357D01*
X13683928Y-16125500D02*
X13669643Y-16111214D01*
X13641071Y-16068357D01*
X13626786Y-16039786D01*
X13612500Y-15996929D01*
X13598214Y-15925500D01*
X13598214Y-15868357D01*
X13612500Y-15796929D01*
X13626786Y-15754071D01*
X13641071Y-15725500D01*
X13669643Y-15682643D01*
X13683928Y-15668357D01*
X13941071Y-15711214D02*
X13798214Y-15711214D01*
X13783928Y-15854071D01*
X13798214Y-15839786D01*
X13826786Y-15825500D01*
X13898214Y-15825500D01*
X13926786Y-15839786D01*
X13941071Y-15854071D01*
X13955357Y-15882643D01*
X13955357Y-15954071D01*
X13941071Y-15982643D01*
X13926786Y-15996929D01*
X13898214Y-16011214D01*
X13826786Y-16011214D01*
X13798214Y-15996929D01*
X13783928Y-15982643D01*
X14141071Y-15711214D02*
X14169643Y-15711214D01*
X14198214Y-15725500D01*
X14212500Y-15739786D01*
X14226786Y-15768357D01*
X14241071Y-15825500D01*
X14241071Y-15896929D01*
X14226786Y-15954071D01*
X14212500Y-15982643D01*
X14198214Y-15996929D01*
X14169643Y-16011214D01*
X14141071Y-16011214D01*
X14112500Y-15996929D01*
X14098214Y-15982643D01*
X14083928Y-15954071D01*
X14069643Y-15896929D01*
X14069643Y-15825500D01*
X14083928Y-15768357D01*
X14098214Y-15739786D01*
X14112500Y-15725500D01*
X14141071Y-15711214D01*
X14598214Y-16011214D02*
X14598214Y-15711214D01*
X14726786Y-16011214D02*
X14726786Y-15854071D01*
X14712500Y-15825500D01*
X14683928Y-15811214D01*
X14641071Y-15811214D01*
X14612500Y-15825500D01*
X14598214Y-15839786D01*
X14912500Y-16011214D02*
X14883928Y-15996929D01*
X14869643Y-15982643D01*
X14855357Y-15954071D01*
X14855357Y-15868357D01*
X14869643Y-15839786D01*
X14883928Y-15825500D01*
X14912500Y-15811214D01*
X14955357Y-15811214D01*
X14983928Y-15825500D01*
X14998214Y-15839786D01*
X15012500Y-15868357D01*
X15012500Y-15954071D01*
X14998214Y-15982643D01*
X14983928Y-15996929D01*
X14955357Y-16011214D01*
X14912500Y-16011214D01*
X15183928Y-16011214D02*
X15155357Y-15996929D01*
X15141071Y-15968357D01*
X15141071Y-15711214D01*
X15412500Y-15996929D02*
X15383928Y-16011214D01*
X15326786Y-16011214D01*
X15298214Y-15996929D01*
X15283928Y-15968357D01*
X15283928Y-15854071D01*
X15298214Y-15825500D01*
X15326786Y-15811214D01*
X15383928Y-15811214D01*
X15412500Y-15825500D01*
X15426786Y-15854071D01*
X15426786Y-15882643D01*
X15283928Y-15911214D01*
X15541071Y-15996929D02*
X15569643Y-16011214D01*
X15626786Y-16011214D01*
X15655357Y-15996929D01*
X15669643Y-15968357D01*
X15669643Y-15954071D01*
X15655357Y-15925500D01*
X15626786Y-15911214D01*
X15583928Y-15911214D01*
X15555357Y-15896929D01*
X15541071Y-15868357D01*
X15541071Y-15854071D01*
X15555357Y-15825500D01*
X15583928Y-15811214D01*
X15626786Y-15811214D01*
X15655357Y-15825500D01*
X15769643Y-16125500D02*
X15783928Y-16111214D01*
X15812500Y-16068357D01*
X15826786Y-16039786D01*
X15841071Y-15996929D01*
X15855357Y-15925500D01*
X15855357Y-15868357D01*
X15841071Y-15796929D01*
X15826786Y-15754071D01*
X15812500Y-15725500D01*
X15783928Y-15682643D01*
X15769643Y-15668357D01*
X8947500Y-16321500D02*
X8997500Y-16271500D01*
X8947500Y-16221500D01*
X8897500Y-16271500D01*
X8947500Y-16321500D01*
X9441071Y-16407214D02*
X9269643Y-16407214D01*
X9355357Y-16407214D02*
X9355357Y-16107214D01*
X9326786Y-16150071D01*
X9298214Y-16178643D01*
X9269643Y-16192929D01*
X9569643Y-16378643D02*
X9583928Y-16392929D01*
X9569643Y-16407214D01*
X9555357Y-16392929D01*
X9569643Y-16378643D01*
X9569643Y-16407214D01*
X9769643Y-16107214D02*
X9798214Y-16107214D01*
X9826786Y-16121500D01*
X9841071Y-16135786D01*
X9855357Y-16164357D01*
X9869643Y-16221500D01*
X9869643Y-16292929D01*
X9855357Y-16350071D01*
X9841071Y-16378643D01*
X9826786Y-16392929D01*
X9798214Y-16407214D01*
X9769643Y-16407214D01*
X9741071Y-16392929D01*
X9726786Y-16378643D01*
X9712500Y-16350071D01*
X9698214Y-16292929D01*
X9698214Y-16221500D01*
X9712500Y-16164357D01*
X9726786Y-16135786D01*
X9741071Y-16121500D01*
X9769643Y-16107214D01*
X10055357Y-16107214D02*
X10083928Y-16107214D01*
X10112500Y-16121500D01*
X10126786Y-16135786D01*
X10141071Y-16164357D01*
X10155357Y-16221500D01*
X10155357Y-16292929D01*
X10141071Y-16350071D01*
X10126786Y-16378643D01*
X10112500Y-16392929D01*
X10083928Y-16407214D01*
X10055357Y-16407214D01*
X10026786Y-16392929D01*
X10012500Y-16378643D01*
X9998214Y-16350071D01*
X9983928Y-16292929D01*
X9983928Y-16221500D01*
X9998214Y-16164357D01*
X10012500Y-16135786D01*
X10026786Y-16121500D01*
X10055357Y-16107214D01*
X10283928Y-16407214D02*
X10283928Y-16207214D01*
X10283928Y-16235786D02*
X10298214Y-16221500D01*
X10326786Y-16207214D01*
X10369643Y-16207214D01*
X10398214Y-16221500D01*
X10412500Y-16250071D01*
X10412500Y-16407214D01*
X10412500Y-16250071D02*
X10426786Y-16221500D01*
X10455357Y-16207214D01*
X10498214Y-16207214D01*
X10526786Y-16221500D01*
X10541071Y-16250071D01*
X10541071Y-16407214D01*
X10683928Y-16407214D02*
X10683928Y-16207214D01*
X10683928Y-16235786D02*
X10698214Y-16221500D01*
X10726786Y-16207214D01*
X10769643Y-16207214D01*
X10798214Y-16221500D01*
X10812500Y-16250071D01*
X10812500Y-16407214D01*
X10812500Y-16250071D02*
X10826786Y-16221500D01*
X10855357Y-16207214D01*
X10898214Y-16207214D01*
X10926786Y-16221500D01*
X10941071Y-16250071D01*
X10941071Y-16407214D01*
X11526786Y-16092929D02*
X11269643Y-16478643D01*
X11912500Y-16107214D02*
X11941071Y-16107214D01*
X11969643Y-16121500D01*
X11983928Y-16135786D01*
X11998214Y-16164357D01*
X12012500Y-16221500D01*
X12012500Y-16292929D01*
X11998214Y-16350071D01*
X11983928Y-16378643D01*
X11969643Y-16392929D01*
X11941071Y-16407214D01*
X11912500Y-16407214D01*
X11883928Y-16392929D01*
X11869643Y-16378643D01*
X11855357Y-16350071D01*
X11841071Y-16292929D01*
X11841071Y-16221500D01*
X11855357Y-16164357D01*
X11869643Y-16135786D01*
X11883928Y-16121500D01*
X11912500Y-16107214D01*
X12141071Y-16378643D02*
X12155357Y-16392929D01*
X12141071Y-16407214D01*
X12126786Y-16392929D01*
X12141071Y-16378643D01*
X12141071Y-16407214D01*
X12341071Y-16107214D02*
X12369643Y-16107214D01*
X12398214Y-16121500D01*
X12412500Y-16135786D01*
X12426786Y-16164357D01*
X12441071Y-16221500D01*
X12441071Y-16292929D01*
X12426786Y-16350071D01*
X12412500Y-16378643D01*
X12398214Y-16392929D01*
X12369643Y-16407214D01*
X12341071Y-16407214D01*
X12312500Y-16392929D01*
X12298214Y-16378643D01*
X12283928Y-16350071D01*
X12269643Y-16292929D01*
X12269643Y-16221500D01*
X12283928Y-16164357D01*
X12298214Y-16135786D01*
X12312500Y-16121500D01*
X12341071Y-16107214D01*
X12541071Y-16107214D02*
X12726786Y-16107214D01*
X12626786Y-16221500D01*
X12669643Y-16221500D01*
X12698214Y-16235786D01*
X12712500Y-16250071D01*
X12726786Y-16278643D01*
X12726786Y-16350071D01*
X12712500Y-16378643D01*
X12698214Y-16392929D01*
X12669643Y-16407214D01*
X12583928Y-16407214D01*
X12555357Y-16392929D01*
X12541071Y-16378643D01*
X12869643Y-16407214D02*
X12926786Y-16407214D01*
X12955357Y-16392929D01*
X12969643Y-16378643D01*
X12998214Y-16335786D01*
X13012500Y-16278643D01*
X13012500Y-16164357D01*
X12998214Y-16135786D01*
X12983928Y-16121500D01*
X12955357Y-16107214D01*
X12898214Y-16107214D01*
X12869643Y-16121500D01*
X12855357Y-16135786D01*
X12841071Y-16164357D01*
X12841071Y-16235786D01*
X12855357Y-16264357D01*
X12869643Y-16278643D01*
X12898214Y-16292929D01*
X12955357Y-16292929D01*
X12983928Y-16278643D01*
X12998214Y-16264357D01*
X13012500Y-16235786D01*
X13126786Y-16107214D02*
X13126786Y-16164357D01*
X13241071Y-16107214D02*
X13241071Y-16164357D01*
X13683928Y-16521500D02*
X13669643Y-16507214D01*
X13641071Y-16464357D01*
X13626786Y-16435786D01*
X13612500Y-16392929D01*
X13598214Y-16321500D01*
X13598214Y-16264357D01*
X13612500Y-16192929D01*
X13626786Y-16150071D01*
X13641071Y-16121500D01*
X13669643Y-16078643D01*
X13683928Y-16064357D01*
X13926786Y-16107214D02*
X13869643Y-16107214D01*
X13841071Y-16121500D01*
X13826786Y-16135786D01*
X13798214Y-16178643D01*
X13783928Y-16235786D01*
X13783928Y-16350071D01*
X13798214Y-16378643D01*
X13812500Y-16392929D01*
X13841071Y-16407214D01*
X13898214Y-16407214D01*
X13926786Y-16392929D01*
X13941071Y-16378643D01*
X13955357Y-16350071D01*
X13955357Y-16278643D01*
X13941071Y-16250071D01*
X13926786Y-16235786D01*
X13898214Y-16221500D01*
X13841071Y-16221500D01*
X13812500Y-16235786D01*
X13798214Y-16250071D01*
X13783928Y-16278643D01*
X14312500Y-16407214D02*
X14312500Y-16107214D01*
X14441071Y-16407214D02*
X14441071Y-16250071D01*
X14426786Y-16221500D01*
X14398214Y-16207214D01*
X14355357Y-16207214D01*
X14326786Y-16221500D01*
X14312500Y-16235786D01*
X14626786Y-16407214D02*
X14598214Y-16392929D01*
X14583928Y-16378643D01*
X14569643Y-16350071D01*
X14569643Y-16264357D01*
X14583928Y-16235786D01*
X14598214Y-16221500D01*
X14626786Y-16207214D01*
X14669643Y-16207214D01*
X14698214Y-16221500D01*
X14712500Y-16235786D01*
X14726786Y-16264357D01*
X14726786Y-16350071D01*
X14712500Y-16378643D01*
X14698214Y-16392929D01*
X14669643Y-16407214D01*
X14626786Y-16407214D01*
X14898214Y-16407214D02*
X14869643Y-16392929D01*
X14855357Y-16364357D01*
X14855357Y-16107214D01*
X15126786Y-16392929D02*
X15098214Y-16407214D01*
X15041071Y-16407214D01*
X15012500Y-16392929D01*
X14998214Y-16364357D01*
X14998214Y-16250071D01*
X15012500Y-16221500D01*
X15041071Y-16207214D01*
X15098214Y-16207214D01*
X15126786Y-16221500D01*
X15141071Y-16250071D01*
X15141071Y-16278643D01*
X14998214Y-16307214D01*
X15255357Y-16392929D02*
X15283928Y-16407214D01*
X15341071Y-16407214D01*
X15369643Y-16392929D01*
X15383928Y-16364357D01*
X15383928Y-16350071D01*
X15369643Y-16321500D01*
X15341071Y-16307214D01*
X15298214Y-16307214D01*
X15269643Y-16292929D01*
X15255357Y-16264357D01*
X15255357Y-16250071D01*
X15269643Y-16221500D01*
X15298214Y-16207214D01*
X15341071Y-16207214D01*
X15369643Y-16221500D01*
X15741071Y-16292929D02*
X15969643Y-16292929D01*
X15855357Y-16407214D02*
X15855357Y-16178643D01*
X16469643Y-16207214D02*
X16469643Y-16407214D01*
X16398214Y-16092929D02*
X16326786Y-16307214D01*
X16512500Y-16307214D01*
X16841071Y-16392929D02*
X16869643Y-16407214D01*
X16926786Y-16407214D01*
X16955357Y-16392929D01*
X16969643Y-16364357D01*
X16969643Y-16350071D01*
X16955357Y-16321500D01*
X16926786Y-16307214D01*
X16883928Y-16307214D01*
X16855357Y-16292929D01*
X16841071Y-16264357D01*
X16841071Y-16250071D01*
X16855357Y-16221500D01*
X16883928Y-16207214D01*
X16926786Y-16207214D01*
X16955357Y-16221500D01*
X17141071Y-16407214D02*
X17112500Y-16392929D01*
X17098214Y-16364357D01*
X17098214Y-16107214D01*
X17298214Y-16407214D02*
X17269643Y-16392929D01*
X17255357Y-16378643D01*
X17241071Y-16350071D01*
X17241071Y-16264357D01*
X17255357Y-16235786D01*
X17269643Y-16221500D01*
X17298214Y-16207214D01*
X17341071Y-16207214D01*
X17369643Y-16221500D01*
X17383928Y-16235786D01*
X17398214Y-16264357D01*
X17398214Y-16350071D01*
X17383928Y-16378643D01*
X17369643Y-16392929D01*
X17341071Y-16407214D01*
X17298214Y-16407214D01*
X17483928Y-16207214D02*
X17598214Y-16207214D01*
X17526786Y-16107214D02*
X17526786Y-16364357D01*
X17541071Y-16392929D01*
X17569643Y-16407214D01*
X17598214Y-16407214D01*
X17683928Y-16392929D02*
X17712500Y-16407214D01*
X17769643Y-16407214D01*
X17798214Y-16392929D01*
X17812500Y-16364357D01*
X17812500Y-16350071D01*
X17798214Y-16321500D01*
X17769643Y-16307214D01*
X17726786Y-16307214D01*
X17698214Y-16292929D01*
X17683928Y-16264357D01*
X17683928Y-16250071D01*
X17698214Y-16221500D01*
X17726786Y-16207214D01*
X17769643Y-16207214D01*
X17798214Y-16221500D01*
X17912500Y-16521500D02*
X17926786Y-16507214D01*
X17955357Y-16464357D01*
X17969643Y-16435786D01*
X17983928Y-16392929D01*
X17998214Y-16321500D01*
X17998214Y-16264357D01*
X17983928Y-16192929D01*
X17969643Y-16150071D01*
X17955357Y-16121500D01*
X17926786Y-16078643D01*
X17912500Y-16064357D01*
X8877500Y-16607500D02*
X8997500Y-16727500D01*
X8997500Y-16607500D02*
X8877500Y-16727500D01*
X8997500Y-16667500D02*
G75*
G03*
X8997500Y-16667500I-60000J0D01*
G01*
X9441071Y-16803214D02*
X9269643Y-16803214D01*
X9355357Y-16803214D02*
X9355357Y-16503214D01*
X9326786Y-16546071D01*
X9298214Y-16574643D01*
X9269643Y-16588929D01*
X9569643Y-16774643D02*
X9583928Y-16788929D01*
X9569643Y-16803214D01*
X9555357Y-16788929D01*
X9569643Y-16774643D01*
X9569643Y-16803214D01*
X9698214Y-16531786D02*
X9712500Y-16517500D01*
X9741071Y-16503214D01*
X9812500Y-16503214D01*
X9841071Y-16517500D01*
X9855357Y-16531786D01*
X9869643Y-16560357D01*
X9869643Y-16588929D01*
X9855357Y-16631786D01*
X9683928Y-16803214D01*
X9869643Y-16803214D01*
X10055357Y-16503214D02*
X10083928Y-16503214D01*
X10112500Y-16517500D01*
X10126786Y-16531786D01*
X10141071Y-16560357D01*
X10155357Y-16617500D01*
X10155357Y-16688929D01*
X10141071Y-16746071D01*
X10126786Y-16774643D01*
X10112500Y-16788929D01*
X10083928Y-16803214D01*
X10055357Y-16803214D01*
X10026786Y-16788929D01*
X10012500Y-16774643D01*
X9998214Y-16746071D01*
X9983928Y-16688929D01*
X9983928Y-16617500D01*
X9998214Y-16560357D01*
X10012500Y-16531786D01*
X10026786Y-16517500D01*
X10055357Y-16503214D01*
X10283928Y-16803214D02*
X10283928Y-16603214D01*
X10283928Y-16631786D02*
X10298214Y-16617500D01*
X10326786Y-16603214D01*
X10369643Y-16603214D01*
X10398214Y-16617500D01*
X10412500Y-16646071D01*
X10412500Y-16803214D01*
X10412500Y-16646071D02*
X10426786Y-16617500D01*
X10455357Y-16603214D01*
X10498214Y-16603214D01*
X10526786Y-16617500D01*
X10541071Y-16646071D01*
X10541071Y-16803214D01*
X10683928Y-16803214D02*
X10683928Y-16603214D01*
X10683928Y-16631786D02*
X10698214Y-16617500D01*
X10726786Y-16603214D01*
X10769643Y-16603214D01*
X10798214Y-16617500D01*
X10812500Y-16646071D01*
X10812500Y-16803214D01*
X10812500Y-16646071D02*
X10826786Y-16617500D01*
X10855357Y-16603214D01*
X10898214Y-16603214D01*
X10926786Y-16617500D01*
X10941071Y-16646071D01*
X10941071Y-16803214D01*
X11526786Y-16488929D02*
X11269643Y-16874643D01*
X11912500Y-16503214D02*
X11941071Y-16503214D01*
X11969643Y-16517500D01*
X11983928Y-16531786D01*
X11998214Y-16560357D01*
X12012500Y-16617500D01*
X12012500Y-16688929D01*
X11998214Y-16746071D01*
X11983928Y-16774643D01*
X11969643Y-16788929D01*
X11941071Y-16803214D01*
X11912500Y-16803214D01*
X11883928Y-16788929D01*
X11869643Y-16774643D01*
X11855357Y-16746071D01*
X11841071Y-16688929D01*
X11841071Y-16617500D01*
X11855357Y-16560357D01*
X11869643Y-16531786D01*
X11883928Y-16517500D01*
X11912500Y-16503214D01*
X12141071Y-16774643D02*
X12155357Y-16788929D01*
X12141071Y-16803214D01*
X12126786Y-16788929D01*
X12141071Y-16774643D01*
X12141071Y-16803214D01*
X12341071Y-16503214D02*
X12369643Y-16503214D01*
X12398214Y-16517500D01*
X12412500Y-16531786D01*
X12426786Y-16560357D01*
X12441071Y-16617500D01*
X12441071Y-16688929D01*
X12426786Y-16746071D01*
X12412500Y-16774643D01*
X12398214Y-16788929D01*
X12369643Y-16803214D01*
X12341071Y-16803214D01*
X12312500Y-16788929D01*
X12298214Y-16774643D01*
X12283928Y-16746071D01*
X12269643Y-16688929D01*
X12269643Y-16617500D01*
X12283928Y-16560357D01*
X12298214Y-16531786D01*
X12312500Y-16517500D01*
X12341071Y-16503214D01*
X12698214Y-16603214D02*
X12698214Y-16803214D01*
X12626786Y-16488929D02*
X12555357Y-16703214D01*
X12741071Y-16703214D01*
X12826786Y-16503214D02*
X13026786Y-16503214D01*
X12898214Y-16803214D01*
X13126786Y-16503214D02*
X13126786Y-16560357D01*
X13241071Y-16503214D02*
X13241071Y-16560357D01*
X13683928Y-16917500D02*
X13669643Y-16903214D01*
X13641071Y-16860357D01*
X13626786Y-16831786D01*
X13612500Y-16788929D01*
X13598214Y-16717500D01*
X13598214Y-16660357D01*
X13612500Y-16588929D01*
X13626786Y-16546071D01*
X13641071Y-16517500D01*
X13669643Y-16474643D01*
X13683928Y-16460357D01*
X13841071Y-16631786D02*
X13812500Y-16617500D01*
X13798214Y-16603214D01*
X13783928Y-16574643D01*
X13783928Y-16560357D01*
X13798214Y-16531786D01*
X13812500Y-16517500D01*
X13841071Y-16503214D01*
X13898214Y-16503214D01*
X13926786Y-16517500D01*
X13941071Y-16531786D01*
X13955357Y-16560357D01*
X13955357Y-16574643D01*
X13941071Y-16603214D01*
X13926786Y-16617500D01*
X13898214Y-16631786D01*
X13841071Y-16631786D01*
X13812500Y-16646071D01*
X13798214Y-16660357D01*
X13783928Y-16688929D01*
X13783928Y-16746071D01*
X13798214Y-16774643D01*
X13812500Y-16788929D01*
X13841071Y-16803214D01*
X13898214Y-16803214D01*
X13926786Y-16788929D01*
X13941071Y-16774643D01*
X13955357Y-16746071D01*
X13955357Y-16688929D01*
X13941071Y-16660357D01*
X13926786Y-16646071D01*
X13898214Y-16631786D01*
X14312500Y-16803214D02*
X14312500Y-16503214D01*
X14441071Y-16803214D02*
X14441071Y-16646071D01*
X14426786Y-16617500D01*
X14398214Y-16603214D01*
X14355357Y-16603214D01*
X14326786Y-16617500D01*
X14312500Y-16631786D01*
X14626786Y-16803214D02*
X14598214Y-16788929D01*
X14583928Y-16774643D01*
X14569643Y-16746071D01*
X14569643Y-16660357D01*
X14583928Y-16631786D01*
X14598214Y-16617500D01*
X14626786Y-16603214D01*
X14669643Y-16603214D01*
X14698214Y-16617500D01*
X14712500Y-16631786D01*
X14726786Y-16660357D01*
X14726786Y-16746071D01*
X14712500Y-16774643D01*
X14698214Y-16788929D01*
X14669643Y-16803214D01*
X14626786Y-16803214D01*
X14898214Y-16803214D02*
X14869643Y-16788929D01*
X14855357Y-16760357D01*
X14855357Y-16503214D01*
X15126786Y-16788929D02*
X15098214Y-16803214D01*
X15041071Y-16803214D01*
X15012500Y-16788929D01*
X14998214Y-16760357D01*
X14998214Y-16646071D01*
X15012500Y-16617500D01*
X15041071Y-16603214D01*
X15098214Y-16603214D01*
X15126786Y-16617500D01*
X15141071Y-16646071D01*
X15141071Y-16674643D01*
X14998214Y-16703214D01*
X15255357Y-16788929D02*
X15283928Y-16803214D01*
X15341071Y-16803214D01*
X15369643Y-16788929D01*
X15383928Y-16760357D01*
X15383928Y-16746071D01*
X15369643Y-16717500D01*
X15341071Y-16703214D01*
X15298214Y-16703214D01*
X15269643Y-16688929D01*
X15255357Y-16660357D01*
X15255357Y-16646071D01*
X15269643Y-16617500D01*
X15298214Y-16603214D01*
X15341071Y-16603214D01*
X15369643Y-16617500D01*
X15483928Y-16917500D02*
X15498214Y-16903214D01*
X15526786Y-16860357D01*
X15541071Y-16831786D01*
X15555357Y-16788929D01*
X15569643Y-16717500D01*
X15569643Y-16660357D01*
X15555357Y-16588929D01*
X15541071Y-16546071D01*
X15526786Y-16517500D01*
X15498214Y-16474643D01*
X15483928Y-16460357D01*
X8796500Y-16963000D02*
X8997500Y-17164000D01*
X8997500Y-16963000D02*
X8796500Y-17164000D01*
X8897000Y-16963000D02*
X8897000Y-17164000D01*
X8796500Y-17063500D02*
X8997500Y-17063500D01*
X9269643Y-16927786D02*
X9283928Y-16913500D01*
X9312500Y-16899214D01*
X9383928Y-16899214D01*
X9412500Y-16913500D01*
X9426786Y-16927786D01*
X9441071Y-16956357D01*
X9441071Y-16984929D01*
X9426786Y-17027786D01*
X9255357Y-17199214D01*
X9441071Y-17199214D01*
X9569643Y-17170643D02*
X9583928Y-17184929D01*
X9569643Y-17199214D01*
X9555357Y-17184929D01*
X9569643Y-17170643D01*
X9569643Y-17199214D01*
X9769643Y-16899214D02*
X9798214Y-16899214D01*
X9826786Y-16913500D01*
X9841071Y-16927786D01*
X9855357Y-16956357D01*
X9869643Y-17013500D01*
X9869643Y-17084929D01*
X9855357Y-17142072D01*
X9841071Y-17170643D01*
X9826786Y-17184929D01*
X9798214Y-17199214D01*
X9769643Y-17199214D01*
X9741071Y-17184929D01*
X9726786Y-17170643D01*
X9712500Y-17142072D01*
X9698214Y-17084929D01*
X9698214Y-17013500D01*
X9712500Y-16956357D01*
X9726786Y-16927786D01*
X9741071Y-16913500D01*
X9769643Y-16899214D01*
X10155357Y-17199214D02*
X9983928Y-17199214D01*
X10069643Y-17199214D02*
X10069643Y-16899214D01*
X10041071Y-16942072D01*
X10012500Y-16970643D01*
X9983928Y-16984929D01*
X10283928Y-17199214D02*
X10283928Y-16999214D01*
X10283928Y-17027786D02*
X10298214Y-17013500D01*
X10326786Y-16999214D01*
X10369643Y-16999214D01*
X10398214Y-17013500D01*
X10412500Y-17042072D01*
X10412500Y-17199214D01*
X10412500Y-17042072D02*
X10426786Y-17013500D01*
X10455357Y-16999214D01*
X10498214Y-16999214D01*
X10526786Y-17013500D01*
X10541071Y-17042072D01*
X10541071Y-17199214D01*
X10683928Y-17199214D02*
X10683928Y-16999214D01*
X10683928Y-17027786D02*
X10698214Y-17013500D01*
X10726786Y-16999214D01*
X10769643Y-16999214D01*
X10798214Y-17013500D01*
X10812500Y-17042072D01*
X10812500Y-17199214D01*
X10812500Y-17042072D02*
X10826786Y-17013500D01*
X10855357Y-16999214D01*
X10898214Y-16999214D01*
X10926786Y-17013500D01*
X10941071Y-17042072D01*
X10941071Y-17199214D01*
X11526786Y-16884929D02*
X11269643Y-17270643D01*
X11912500Y-16899214D02*
X11941071Y-16899214D01*
X11969643Y-16913500D01*
X11983928Y-16927786D01*
X11998214Y-16956357D01*
X12012500Y-17013500D01*
X12012500Y-17084929D01*
X11998214Y-17142072D01*
X11983928Y-17170643D01*
X11969643Y-17184929D01*
X11941071Y-17199214D01*
X11912500Y-17199214D01*
X11883928Y-17184929D01*
X11869643Y-17170643D01*
X11855357Y-17142072D01*
X11841071Y-17084929D01*
X11841071Y-17013500D01*
X11855357Y-16956357D01*
X11869643Y-16927786D01*
X11883928Y-16913500D01*
X11912500Y-16899214D01*
X12141071Y-17170643D02*
X12155357Y-17184929D01*
X12141071Y-17199214D01*
X12126786Y-17184929D01*
X12141071Y-17170643D01*
X12141071Y-17199214D01*
X12341071Y-16899214D02*
X12369643Y-16899214D01*
X12398214Y-16913500D01*
X12412500Y-16927786D01*
X12426786Y-16956357D01*
X12441071Y-17013500D01*
X12441071Y-17084929D01*
X12426786Y-17142072D01*
X12412500Y-17170643D01*
X12398214Y-17184929D01*
X12369643Y-17199214D01*
X12341071Y-17199214D01*
X12312500Y-17184929D01*
X12298214Y-17170643D01*
X12283928Y-17142072D01*
X12269643Y-17084929D01*
X12269643Y-17013500D01*
X12283928Y-16956357D01*
X12298214Y-16927786D01*
X12312500Y-16913500D01*
X12341071Y-16899214D01*
X12541071Y-16899214D02*
X12741071Y-16899214D01*
X12612500Y-17199214D01*
X12869643Y-17199214D02*
X12926786Y-17199214D01*
X12955357Y-17184929D01*
X12969643Y-17170643D01*
X12998214Y-17127786D01*
X13012500Y-17070643D01*
X13012500Y-16956357D01*
X12998214Y-16927786D01*
X12983928Y-16913500D01*
X12955357Y-16899214D01*
X12898214Y-16899214D01*
X12869643Y-16913500D01*
X12855357Y-16927786D01*
X12841071Y-16956357D01*
X12841071Y-17027786D01*
X12855357Y-17056357D01*
X12869643Y-17070643D01*
X12898214Y-17084929D01*
X12955357Y-17084929D01*
X12983928Y-17070643D01*
X12998214Y-17056357D01*
X13012500Y-17027786D01*
X13126786Y-16899214D02*
X13126786Y-16956357D01*
X13241071Y-16899214D02*
X13241071Y-16956357D01*
X13683928Y-17313500D02*
X13669643Y-17299214D01*
X13641071Y-17256357D01*
X13626786Y-17227786D01*
X13612500Y-17184929D01*
X13598214Y-17113500D01*
X13598214Y-17056357D01*
X13612500Y-16984929D01*
X13626786Y-16942072D01*
X13641071Y-16913500D01*
X13669643Y-16870643D01*
X13683928Y-16856357D01*
X13926786Y-16899214D02*
X13869643Y-16899214D01*
X13841071Y-16913500D01*
X13826786Y-16927786D01*
X13798214Y-16970643D01*
X13783928Y-17027786D01*
X13783928Y-17142072D01*
X13798214Y-17170643D01*
X13812500Y-17184929D01*
X13841071Y-17199214D01*
X13898214Y-17199214D01*
X13926786Y-17184929D01*
X13941071Y-17170643D01*
X13955357Y-17142072D01*
X13955357Y-17070643D01*
X13941071Y-17042072D01*
X13926786Y-17027786D01*
X13898214Y-17013500D01*
X13841071Y-17013500D01*
X13812500Y-17027786D01*
X13798214Y-17042072D01*
X13783928Y-17070643D01*
X14312500Y-17199214D02*
X14312500Y-16899214D01*
X14441071Y-17199214D02*
X14441071Y-17042072D01*
X14426786Y-17013500D01*
X14398214Y-16999214D01*
X14355357Y-16999214D01*
X14326786Y-17013500D01*
X14312500Y-17027786D01*
X14626786Y-17199214D02*
X14598214Y-17184929D01*
X14583928Y-17170643D01*
X14569643Y-17142072D01*
X14569643Y-17056357D01*
X14583928Y-17027786D01*
X14598214Y-17013500D01*
X14626786Y-16999214D01*
X14669643Y-16999214D01*
X14698214Y-17013500D01*
X14712500Y-17027786D01*
X14726786Y-17056357D01*
X14726786Y-17142072D01*
X14712500Y-17170643D01*
X14698214Y-17184929D01*
X14669643Y-17199214D01*
X14626786Y-17199214D01*
X14898214Y-17199214D02*
X14869643Y-17184929D01*
X14855357Y-17156357D01*
X14855357Y-16899214D01*
X15126786Y-17184929D02*
X15098214Y-17199214D01*
X15041071Y-17199214D01*
X15012500Y-17184929D01*
X14998214Y-17156357D01*
X14998214Y-17042072D01*
X15012500Y-17013500D01*
X15041071Y-16999214D01*
X15098214Y-16999214D01*
X15126786Y-17013500D01*
X15141071Y-17042072D01*
X15141071Y-17070643D01*
X14998214Y-17099214D01*
X15255357Y-17184929D02*
X15283928Y-17199214D01*
X15341071Y-17199214D01*
X15369643Y-17184929D01*
X15383928Y-17156357D01*
X15383928Y-17142072D01*
X15369643Y-17113500D01*
X15341071Y-17099214D01*
X15298214Y-17099214D01*
X15269643Y-17084929D01*
X15255357Y-17056357D01*
X15255357Y-17042072D01*
X15269643Y-17013500D01*
X15298214Y-16999214D01*
X15341071Y-16999214D01*
X15369643Y-17013500D01*
X15483928Y-17313500D02*
X15498214Y-17299214D01*
X15526786Y-17256357D01*
X15541071Y-17227786D01*
X15555357Y-17184929D01*
X15569643Y-17113500D01*
X15569643Y-17056357D01*
X15555357Y-16984929D01*
X15541071Y-16942072D01*
X15526786Y-16913500D01*
X15498214Y-16870643D01*
X15483928Y-16856357D01*
M02*
