G04 #@! TF.GenerationSoftware,KiCad,Pcbnew,(5.1.9)-1*
G04 #@! TF.CreationDate,2021-04-27T00:06:18-05:00*
G04 #@! TF.ProjectId,high-gain-diff-probe,68696768-2d67-4616-996e-2d646966662d,rev?*
G04 #@! TF.SameCoordinates,Original*
G04 #@! TF.FileFunction,Paste,Top*
G04 #@! TF.FilePolarity,Positive*
%FSLAX46Y46*%
G04 Gerber Fmt 4.6, Leading zero omitted, Abs format (unit mm)*
G04 Created by KiCad (PCBNEW (5.1.9)-1) date 2021-04-27 00:06:18*
%MOMM*%
%LPD*%
G01*
G04 APERTURE LIST*
%ADD10R,1.200000X0.900000*%
%ADD11R,0.900000X1.400000*%
%ADD12R,1.400000X1.300000*%
%ADD13R,0.800000X0.900000*%
%ADD14R,1.400000X0.900000*%
G04 APERTURE END LIST*
G36*
G01*
X194055000Y-104400000D02*
X194355000Y-104400000D01*
G75*
G02*
X194505000Y-104550000I0J-150000D01*
G01*
X194505000Y-106200000D01*
G75*
G02*
X194355000Y-106350000I-150000J0D01*
G01*
X194055000Y-106350000D01*
G75*
G02*
X193905000Y-106200000I0J150000D01*
G01*
X193905000Y-104550000D01*
G75*
G02*
X194055000Y-104400000I150000J0D01*
G01*
G37*
G36*
G01*
X192785000Y-104400000D02*
X193085000Y-104400000D01*
G75*
G02*
X193235000Y-104550000I0J-150000D01*
G01*
X193235000Y-106200000D01*
G75*
G02*
X193085000Y-106350000I-150000J0D01*
G01*
X192785000Y-106350000D01*
G75*
G02*
X192635000Y-106200000I0J150000D01*
G01*
X192635000Y-104550000D01*
G75*
G02*
X192785000Y-104400000I150000J0D01*
G01*
G37*
G36*
G01*
X191515000Y-104400000D02*
X191815000Y-104400000D01*
G75*
G02*
X191965000Y-104550000I0J-150000D01*
G01*
X191965000Y-106200000D01*
G75*
G02*
X191815000Y-106350000I-150000J0D01*
G01*
X191515000Y-106350000D01*
G75*
G02*
X191365000Y-106200000I0J150000D01*
G01*
X191365000Y-104550000D01*
G75*
G02*
X191515000Y-104400000I150000J0D01*
G01*
G37*
G36*
G01*
X190245000Y-104400000D02*
X190545000Y-104400000D01*
G75*
G02*
X190695000Y-104550000I0J-150000D01*
G01*
X190695000Y-106200000D01*
G75*
G02*
X190545000Y-106350000I-150000J0D01*
G01*
X190245000Y-106350000D01*
G75*
G02*
X190095000Y-106200000I0J150000D01*
G01*
X190095000Y-104550000D01*
G75*
G02*
X190245000Y-104400000I150000J0D01*
G01*
G37*
G36*
G01*
X190245000Y-99450000D02*
X190545000Y-99450000D01*
G75*
G02*
X190695000Y-99600000I0J-150000D01*
G01*
X190695000Y-101250000D01*
G75*
G02*
X190545000Y-101400000I-150000J0D01*
G01*
X190245000Y-101400000D01*
G75*
G02*
X190095000Y-101250000I0J150000D01*
G01*
X190095000Y-99600000D01*
G75*
G02*
X190245000Y-99450000I150000J0D01*
G01*
G37*
G36*
G01*
X191515000Y-99450000D02*
X191815000Y-99450000D01*
G75*
G02*
X191965000Y-99600000I0J-150000D01*
G01*
X191965000Y-101250000D01*
G75*
G02*
X191815000Y-101400000I-150000J0D01*
G01*
X191515000Y-101400000D01*
G75*
G02*
X191365000Y-101250000I0J150000D01*
G01*
X191365000Y-99600000D01*
G75*
G02*
X191515000Y-99450000I150000J0D01*
G01*
G37*
G36*
G01*
X192785000Y-99450000D02*
X193085000Y-99450000D01*
G75*
G02*
X193235000Y-99600000I0J-150000D01*
G01*
X193235000Y-101250000D01*
G75*
G02*
X193085000Y-101400000I-150000J0D01*
G01*
X192785000Y-101400000D01*
G75*
G02*
X192635000Y-101250000I0J150000D01*
G01*
X192635000Y-99600000D01*
G75*
G02*
X192785000Y-99450000I150000J0D01*
G01*
G37*
G36*
G01*
X194055000Y-99450000D02*
X194355000Y-99450000D01*
G75*
G02*
X194505000Y-99600000I0J-150000D01*
G01*
X194505000Y-101250000D01*
G75*
G02*
X194355000Y-101400000I-150000J0D01*
G01*
X194055000Y-101400000D01*
G75*
G02*
X193905000Y-101250000I0J150000D01*
G01*
X193905000Y-99600000D01*
G75*
G02*
X194055000Y-99450000I150000J0D01*
G01*
G37*
G36*
G01*
X106325000Y-102037500D02*
X106325000Y-101562500D01*
G75*
G02*
X106562500Y-101325000I237500J0D01*
G01*
X107062500Y-101325000D01*
G75*
G02*
X107300000Y-101562500I0J-237500D01*
G01*
X107300000Y-102037500D01*
G75*
G02*
X107062500Y-102275000I-237500J0D01*
G01*
X106562500Y-102275000D01*
G75*
G02*
X106325000Y-102037500I0J237500D01*
G01*
G37*
G36*
G01*
X104500000Y-102037500D02*
X104500000Y-101562500D01*
G75*
G02*
X104737500Y-101325000I237500J0D01*
G01*
X105237500Y-101325000D01*
G75*
G02*
X105475000Y-101562500I0J-237500D01*
G01*
X105475000Y-102037500D01*
G75*
G02*
X105237500Y-102275000I-237500J0D01*
G01*
X104737500Y-102275000D01*
G75*
G02*
X104500000Y-102037500I0J237500D01*
G01*
G37*
D10*
X199200000Y-75450000D03*
X199200000Y-72150000D03*
G36*
G01*
X194950000Y-72455000D02*
X194950000Y-72755000D01*
G75*
G02*
X194800000Y-72905000I-150000J0D01*
G01*
X193150000Y-72905000D01*
G75*
G02*
X193000000Y-72755000I0J150000D01*
G01*
X193000000Y-72455000D01*
G75*
G02*
X193150000Y-72305000I150000J0D01*
G01*
X194800000Y-72305000D01*
G75*
G02*
X194950000Y-72455000I0J-150000D01*
G01*
G37*
G36*
G01*
X194950000Y-71185000D02*
X194950000Y-71485000D01*
G75*
G02*
X194800000Y-71635000I-150000J0D01*
G01*
X193150000Y-71635000D01*
G75*
G02*
X193000000Y-71485000I0J150000D01*
G01*
X193000000Y-71185000D01*
G75*
G02*
X193150000Y-71035000I150000J0D01*
G01*
X194800000Y-71035000D01*
G75*
G02*
X194950000Y-71185000I0J-150000D01*
G01*
G37*
G36*
G01*
X194950000Y-69915000D02*
X194950000Y-70215000D01*
G75*
G02*
X194800000Y-70365000I-150000J0D01*
G01*
X193150000Y-70365000D01*
G75*
G02*
X193000000Y-70215000I0J150000D01*
G01*
X193000000Y-69915000D01*
G75*
G02*
X193150000Y-69765000I150000J0D01*
G01*
X194800000Y-69765000D01*
G75*
G02*
X194950000Y-69915000I0J-150000D01*
G01*
G37*
G36*
G01*
X194950000Y-68645000D02*
X194950000Y-68945000D01*
G75*
G02*
X194800000Y-69095000I-150000J0D01*
G01*
X193150000Y-69095000D01*
G75*
G02*
X193000000Y-68945000I0J150000D01*
G01*
X193000000Y-68645000D01*
G75*
G02*
X193150000Y-68495000I150000J0D01*
G01*
X194800000Y-68495000D01*
G75*
G02*
X194950000Y-68645000I0J-150000D01*
G01*
G37*
G36*
G01*
X190000000Y-68645000D02*
X190000000Y-68945000D01*
G75*
G02*
X189850000Y-69095000I-150000J0D01*
G01*
X188200000Y-69095000D01*
G75*
G02*
X188050000Y-68945000I0J150000D01*
G01*
X188050000Y-68645000D01*
G75*
G02*
X188200000Y-68495000I150000J0D01*
G01*
X189850000Y-68495000D01*
G75*
G02*
X190000000Y-68645000I0J-150000D01*
G01*
G37*
G36*
G01*
X190000000Y-69915000D02*
X190000000Y-70215000D01*
G75*
G02*
X189850000Y-70365000I-150000J0D01*
G01*
X188200000Y-70365000D01*
G75*
G02*
X188050000Y-70215000I0J150000D01*
G01*
X188050000Y-69915000D01*
G75*
G02*
X188200000Y-69765000I150000J0D01*
G01*
X189850000Y-69765000D01*
G75*
G02*
X190000000Y-69915000I0J-150000D01*
G01*
G37*
G36*
G01*
X190000000Y-71185000D02*
X190000000Y-71485000D01*
G75*
G02*
X189850000Y-71635000I-150000J0D01*
G01*
X188200000Y-71635000D01*
G75*
G02*
X188050000Y-71485000I0J150000D01*
G01*
X188050000Y-71185000D01*
G75*
G02*
X188200000Y-71035000I150000J0D01*
G01*
X189850000Y-71035000D01*
G75*
G02*
X190000000Y-71185000I0J-150000D01*
G01*
G37*
G36*
G01*
X190000000Y-72455000D02*
X190000000Y-72755000D01*
G75*
G02*
X189850000Y-72905000I-150000J0D01*
G01*
X188200000Y-72905000D01*
G75*
G02*
X188050000Y-72755000I0J150000D01*
G01*
X188050000Y-72455000D01*
G75*
G02*
X188200000Y-72305000I150000J0D01*
G01*
X189850000Y-72305000D01*
G75*
G02*
X190000000Y-72455000I0J-150000D01*
G01*
G37*
G36*
G01*
X192605000Y-71105000D02*
X192605000Y-72195000D01*
G75*
G02*
X192355000Y-72445000I-250000J0D01*
G01*
X191845000Y-72445000D01*
G75*
G02*
X191595000Y-72195000I0J250000D01*
G01*
X191595000Y-71105000D01*
G75*
G02*
X191845000Y-70855000I250000J0D01*
G01*
X192355000Y-70855000D01*
G75*
G02*
X192605000Y-71105000I0J-250000D01*
G01*
G37*
G36*
G01*
X192605000Y-69205000D02*
X192605000Y-70295000D01*
G75*
G02*
X192355000Y-70545000I-250000J0D01*
G01*
X191845000Y-70545000D01*
G75*
G02*
X191595000Y-70295000I0J250000D01*
G01*
X191595000Y-69205000D01*
G75*
G02*
X191845000Y-68955000I250000J0D01*
G01*
X192355000Y-68955000D01*
G75*
G02*
X192605000Y-69205000I0J-250000D01*
G01*
G37*
G36*
G01*
X191405000Y-71105000D02*
X191405000Y-72195000D01*
G75*
G02*
X191155000Y-72445000I-250000J0D01*
G01*
X190645000Y-72445000D01*
G75*
G02*
X190395000Y-72195000I0J250000D01*
G01*
X190395000Y-71105000D01*
G75*
G02*
X190645000Y-70855000I250000J0D01*
G01*
X191155000Y-70855000D01*
G75*
G02*
X191405000Y-71105000I0J-250000D01*
G01*
G37*
G36*
G01*
X191405000Y-69205000D02*
X191405000Y-70295000D01*
G75*
G02*
X191155000Y-70545000I-250000J0D01*
G01*
X190645000Y-70545000D01*
G75*
G02*
X190395000Y-70295000I0J250000D01*
G01*
X190395000Y-69205000D01*
G75*
G02*
X190645000Y-68955000I250000J0D01*
G01*
X191155000Y-68955000D01*
G75*
G02*
X191405000Y-69205000I0J-250000D01*
G01*
G37*
G36*
G01*
X180625000Y-119210000D02*
X180625000Y-118910000D01*
G75*
G02*
X180775000Y-118760000I150000J0D01*
G01*
X182425000Y-118760000D01*
G75*
G02*
X182575000Y-118910000I0J-150000D01*
G01*
X182575000Y-119210000D01*
G75*
G02*
X182425000Y-119360000I-150000J0D01*
G01*
X180775000Y-119360000D01*
G75*
G02*
X180625000Y-119210000I0J150000D01*
G01*
G37*
G36*
G01*
X180625000Y-120480000D02*
X180625000Y-120180000D01*
G75*
G02*
X180775000Y-120030000I150000J0D01*
G01*
X182425000Y-120030000D01*
G75*
G02*
X182575000Y-120180000I0J-150000D01*
G01*
X182575000Y-120480000D01*
G75*
G02*
X182425000Y-120630000I-150000J0D01*
G01*
X180775000Y-120630000D01*
G75*
G02*
X180625000Y-120480000I0J150000D01*
G01*
G37*
G36*
G01*
X180625000Y-121750000D02*
X180625000Y-121450000D01*
G75*
G02*
X180775000Y-121300000I150000J0D01*
G01*
X182425000Y-121300000D01*
G75*
G02*
X182575000Y-121450000I0J-150000D01*
G01*
X182575000Y-121750000D01*
G75*
G02*
X182425000Y-121900000I-150000J0D01*
G01*
X180775000Y-121900000D01*
G75*
G02*
X180625000Y-121750000I0J150000D01*
G01*
G37*
G36*
G01*
X180625000Y-123020000D02*
X180625000Y-122720000D01*
G75*
G02*
X180775000Y-122570000I150000J0D01*
G01*
X182425000Y-122570000D01*
G75*
G02*
X182575000Y-122720000I0J-150000D01*
G01*
X182575000Y-123020000D01*
G75*
G02*
X182425000Y-123170000I-150000J0D01*
G01*
X180775000Y-123170000D01*
G75*
G02*
X180625000Y-123020000I0J150000D01*
G01*
G37*
G36*
G01*
X185575000Y-123020000D02*
X185575000Y-122720000D01*
G75*
G02*
X185725000Y-122570000I150000J0D01*
G01*
X187375000Y-122570000D01*
G75*
G02*
X187525000Y-122720000I0J-150000D01*
G01*
X187525000Y-123020000D01*
G75*
G02*
X187375000Y-123170000I-150000J0D01*
G01*
X185725000Y-123170000D01*
G75*
G02*
X185575000Y-123020000I0J150000D01*
G01*
G37*
G36*
G01*
X185575000Y-121750000D02*
X185575000Y-121450000D01*
G75*
G02*
X185725000Y-121300000I150000J0D01*
G01*
X187375000Y-121300000D01*
G75*
G02*
X187525000Y-121450000I0J-150000D01*
G01*
X187525000Y-121750000D01*
G75*
G02*
X187375000Y-121900000I-150000J0D01*
G01*
X185725000Y-121900000D01*
G75*
G02*
X185575000Y-121750000I0J150000D01*
G01*
G37*
G36*
G01*
X185575000Y-120480000D02*
X185575000Y-120180000D01*
G75*
G02*
X185725000Y-120030000I150000J0D01*
G01*
X187375000Y-120030000D01*
G75*
G02*
X187525000Y-120180000I0J-150000D01*
G01*
X187525000Y-120480000D01*
G75*
G02*
X187375000Y-120630000I-150000J0D01*
G01*
X185725000Y-120630000D01*
G75*
G02*
X185575000Y-120480000I0J150000D01*
G01*
G37*
G36*
G01*
X185575000Y-119210000D02*
X185575000Y-118910000D01*
G75*
G02*
X185725000Y-118760000I150000J0D01*
G01*
X187375000Y-118760000D01*
G75*
G02*
X187525000Y-118910000I0J-150000D01*
G01*
X187525000Y-119210000D01*
G75*
G02*
X187375000Y-119360000I-150000J0D01*
G01*
X185725000Y-119360000D01*
G75*
G02*
X185575000Y-119210000I0J150000D01*
G01*
G37*
G36*
G01*
X182970000Y-120560000D02*
X182970000Y-119470000D01*
G75*
G02*
X183220000Y-119220000I250000J0D01*
G01*
X183730000Y-119220000D01*
G75*
G02*
X183980000Y-119470000I0J-250000D01*
G01*
X183980000Y-120560000D01*
G75*
G02*
X183730000Y-120810000I-250000J0D01*
G01*
X183220000Y-120810000D01*
G75*
G02*
X182970000Y-120560000I0J250000D01*
G01*
G37*
G36*
G01*
X182970000Y-122460000D02*
X182970000Y-121370000D01*
G75*
G02*
X183220000Y-121120000I250000J0D01*
G01*
X183730000Y-121120000D01*
G75*
G02*
X183980000Y-121370000I0J-250000D01*
G01*
X183980000Y-122460000D01*
G75*
G02*
X183730000Y-122710000I-250000J0D01*
G01*
X183220000Y-122710000D01*
G75*
G02*
X182970000Y-122460000I0J250000D01*
G01*
G37*
G36*
G01*
X184170000Y-120560000D02*
X184170000Y-119470000D01*
G75*
G02*
X184420000Y-119220000I250000J0D01*
G01*
X184930000Y-119220000D01*
G75*
G02*
X185180000Y-119470000I0J-250000D01*
G01*
X185180000Y-120560000D01*
G75*
G02*
X184930000Y-120810000I-250000J0D01*
G01*
X184420000Y-120810000D01*
G75*
G02*
X184170000Y-120560000I0J250000D01*
G01*
G37*
G36*
G01*
X184170000Y-122460000D02*
X184170000Y-121370000D01*
G75*
G02*
X184420000Y-121120000I250000J0D01*
G01*
X184930000Y-121120000D01*
G75*
G02*
X185180000Y-121370000I0J-250000D01*
G01*
X185180000Y-122460000D01*
G75*
G02*
X184930000Y-122710000I-250000J0D01*
G01*
X184420000Y-122710000D01*
G75*
G02*
X184170000Y-122460000I0J250000D01*
G01*
G37*
G36*
G01*
X181950000Y-103650000D02*
X183050000Y-103650000D01*
G75*
G02*
X183300000Y-103900000I0J-250000D01*
G01*
X183300000Y-106900000D01*
G75*
G02*
X183050000Y-107150000I-250000J0D01*
G01*
X181950000Y-107150000D01*
G75*
G02*
X181700000Y-106900000I0J250000D01*
G01*
X181700000Y-103900000D01*
G75*
G02*
X181950000Y-103650000I250000J0D01*
G01*
G37*
G36*
G01*
X181950000Y-98250000D02*
X183050000Y-98250000D01*
G75*
G02*
X183300000Y-98500000I0J-250000D01*
G01*
X183300000Y-101500000D01*
G75*
G02*
X183050000Y-101750000I-250000J0D01*
G01*
X181950000Y-101750000D01*
G75*
G02*
X181700000Y-101500000I0J250000D01*
G01*
X181700000Y-98500000D01*
G75*
G02*
X181950000Y-98250000I250000J0D01*
G01*
G37*
G36*
G01*
X181950000Y-93050000D02*
X183050000Y-93050000D01*
G75*
G02*
X183300000Y-93300000I0J-250000D01*
G01*
X183300000Y-96300000D01*
G75*
G02*
X183050000Y-96550000I-250000J0D01*
G01*
X181950000Y-96550000D01*
G75*
G02*
X181700000Y-96300000I0J250000D01*
G01*
X181700000Y-93300000D01*
G75*
G02*
X181950000Y-93050000I250000J0D01*
G01*
G37*
G36*
G01*
X181950000Y-87650000D02*
X183050000Y-87650000D01*
G75*
G02*
X183300000Y-87900000I0J-250000D01*
G01*
X183300000Y-90900000D01*
G75*
G02*
X183050000Y-91150000I-250000J0D01*
G01*
X181950000Y-91150000D01*
G75*
G02*
X181700000Y-90900000I0J250000D01*
G01*
X181700000Y-87900000D01*
G75*
G02*
X181950000Y-87650000I250000J0D01*
G01*
G37*
G36*
G01*
X204050000Y-72150000D02*
X205150000Y-72150000D01*
G75*
G02*
X205400000Y-72400000I0J-250000D01*
G01*
X205400000Y-75400000D01*
G75*
G02*
X205150000Y-75650000I-250000J0D01*
G01*
X204050000Y-75650000D01*
G75*
G02*
X203800000Y-75400000I0J250000D01*
G01*
X203800000Y-72400000D01*
G75*
G02*
X204050000Y-72150000I250000J0D01*
G01*
G37*
G36*
G01*
X204050000Y-66750000D02*
X205150000Y-66750000D01*
G75*
G02*
X205400000Y-67000000I0J-250000D01*
G01*
X205400000Y-70000000D01*
G75*
G02*
X205150000Y-70250000I-250000J0D01*
G01*
X204050000Y-70250000D01*
G75*
G02*
X203800000Y-70000000I0J250000D01*
G01*
X203800000Y-67000000D01*
G75*
G02*
X204050000Y-66750000I250000J0D01*
G01*
G37*
G36*
G01*
X166137500Y-100775000D02*
X165662500Y-100775000D01*
G75*
G02*
X165425000Y-100537500I0J237500D01*
G01*
X165425000Y-100037500D01*
G75*
G02*
X165662500Y-99800000I237500J0D01*
G01*
X166137500Y-99800000D01*
G75*
G02*
X166375000Y-100037500I0J-237500D01*
G01*
X166375000Y-100537500D01*
G75*
G02*
X166137500Y-100775000I-237500J0D01*
G01*
G37*
G36*
G01*
X166137500Y-102600000D02*
X165662500Y-102600000D01*
G75*
G02*
X165425000Y-102362500I0J237500D01*
G01*
X165425000Y-101862500D01*
G75*
G02*
X165662500Y-101625000I237500J0D01*
G01*
X166137500Y-101625000D01*
G75*
G02*
X166375000Y-101862500I0J-237500D01*
G01*
X166375000Y-102362500D01*
G75*
G02*
X166137500Y-102600000I-237500J0D01*
G01*
G37*
G36*
G01*
X177562500Y-103025000D02*
X178037500Y-103025000D01*
G75*
G02*
X178275000Y-103262500I0J-237500D01*
G01*
X178275000Y-103762500D01*
G75*
G02*
X178037500Y-104000000I-237500J0D01*
G01*
X177562500Y-104000000D01*
G75*
G02*
X177325000Y-103762500I0J237500D01*
G01*
X177325000Y-103262500D01*
G75*
G02*
X177562500Y-103025000I237500J0D01*
G01*
G37*
G36*
G01*
X177562500Y-101200000D02*
X178037500Y-101200000D01*
G75*
G02*
X178275000Y-101437500I0J-237500D01*
G01*
X178275000Y-101937500D01*
G75*
G02*
X178037500Y-102175000I-237500J0D01*
G01*
X177562500Y-102175000D01*
G75*
G02*
X177325000Y-101937500I0J237500D01*
G01*
X177325000Y-101437500D01*
G75*
G02*
X177562500Y-101200000I237500J0D01*
G01*
G37*
G36*
G01*
X120549999Y-115450000D02*
X121450001Y-115450000D01*
G75*
G02*
X121700000Y-115699999I0J-249999D01*
G01*
X121700000Y-116350001D01*
G75*
G02*
X121450001Y-116600000I-249999J0D01*
G01*
X120549999Y-116600000D01*
G75*
G02*
X120300000Y-116350001I0J249999D01*
G01*
X120300000Y-115699999D01*
G75*
G02*
X120549999Y-115450000I249999J0D01*
G01*
G37*
G36*
G01*
X120549999Y-113400000D02*
X121450001Y-113400000D01*
G75*
G02*
X121700000Y-113649999I0J-249999D01*
G01*
X121700000Y-114300001D01*
G75*
G02*
X121450001Y-114550000I-249999J0D01*
G01*
X120549999Y-114550000D01*
G75*
G02*
X120300000Y-114300001I0J249999D01*
G01*
X120300000Y-113649999D01*
G75*
G02*
X120549999Y-113400000I249999J0D01*
G01*
G37*
G36*
G01*
X121450001Y-84550000D02*
X120549999Y-84550000D01*
G75*
G02*
X120300000Y-84300001I0J249999D01*
G01*
X120300000Y-83649999D01*
G75*
G02*
X120549999Y-83400000I249999J0D01*
G01*
X121450001Y-83400000D01*
G75*
G02*
X121700000Y-83649999I0J-249999D01*
G01*
X121700000Y-84300001D01*
G75*
G02*
X121450001Y-84550000I-249999J0D01*
G01*
G37*
G36*
G01*
X121450001Y-86600000D02*
X120549999Y-86600000D01*
G75*
G02*
X120300000Y-86350001I0J249999D01*
G01*
X120300000Y-85699999D01*
G75*
G02*
X120549999Y-85450000I249999J0D01*
G01*
X121450001Y-85450000D01*
G75*
G02*
X121700000Y-85699999I0J-249999D01*
G01*
X121700000Y-86350001D01*
G75*
G02*
X121450001Y-86600000I-249999J0D01*
G01*
G37*
G36*
G01*
X118754700Y-127700000D02*
X124045300Y-127700000D01*
G75*
G02*
X124200000Y-127854700I0J-154700D01*
G01*
X124200000Y-128845300D01*
G75*
G02*
X124045300Y-129000000I-154700J0D01*
G01*
X118754700Y-129000000D01*
G75*
G02*
X118600000Y-128845300I0J154700D01*
G01*
X118600000Y-127854700D01*
G75*
G02*
X118754700Y-127700000I154700J0D01*
G01*
G37*
G36*
G01*
X118754700Y-131600000D02*
X124045300Y-131600000D01*
G75*
G02*
X124200000Y-131754700I0J-154700D01*
G01*
X124200000Y-132745300D01*
G75*
G02*
X124045300Y-132900000I-154700J0D01*
G01*
X118754700Y-132900000D01*
G75*
G02*
X118600000Y-132745300I0J154700D01*
G01*
X118600000Y-131754700D01*
G75*
G02*
X118754700Y-131600000I154700J0D01*
G01*
G37*
G36*
G01*
X118754700Y-67100000D02*
X124045300Y-67100000D01*
G75*
G02*
X124200000Y-67254700I0J-154700D01*
G01*
X124200000Y-68245300D01*
G75*
G02*
X124045300Y-68400000I-154700J0D01*
G01*
X118754700Y-68400000D01*
G75*
G02*
X118600000Y-68245300I0J154700D01*
G01*
X118600000Y-67254700D01*
G75*
G02*
X118754700Y-67100000I154700J0D01*
G01*
G37*
G36*
G01*
X118754700Y-71000000D02*
X124045300Y-71000000D01*
G75*
G02*
X124200000Y-71154700I0J-154700D01*
G01*
X124200000Y-72145300D01*
G75*
G02*
X124045300Y-72300000I-154700J0D01*
G01*
X118754700Y-72300000D01*
G75*
G02*
X118600000Y-72145300I0J154700D01*
G01*
X118600000Y-71154700D01*
G75*
G02*
X118754700Y-71000000I154700J0D01*
G01*
G37*
G36*
G01*
X197237500Y-68762500D02*
X196762500Y-68762500D01*
G75*
G02*
X196525000Y-68525000I0J237500D01*
G01*
X196525000Y-68025000D01*
G75*
G02*
X196762500Y-67787500I237500J0D01*
G01*
X197237500Y-67787500D01*
G75*
G02*
X197475000Y-68025000I0J-237500D01*
G01*
X197475000Y-68525000D01*
G75*
G02*
X197237500Y-68762500I-237500J0D01*
G01*
G37*
G36*
G01*
X197237500Y-70587500D02*
X196762500Y-70587500D01*
G75*
G02*
X196525000Y-70350000I0J237500D01*
G01*
X196525000Y-69850000D01*
G75*
G02*
X196762500Y-69612500I237500J0D01*
G01*
X197237500Y-69612500D01*
G75*
G02*
X197475000Y-69850000I0J-237500D01*
G01*
X197475000Y-70350000D01*
G75*
G02*
X197237500Y-70587500I-237500J0D01*
G01*
G37*
G36*
G01*
X198662500Y-69625000D02*
X199137500Y-69625000D01*
G75*
G02*
X199375000Y-69862500I0J-237500D01*
G01*
X199375000Y-70362500D01*
G75*
G02*
X199137500Y-70600000I-237500J0D01*
G01*
X198662500Y-70600000D01*
G75*
G02*
X198425000Y-70362500I0J237500D01*
G01*
X198425000Y-69862500D01*
G75*
G02*
X198662500Y-69625000I237500J0D01*
G01*
G37*
G36*
G01*
X198662500Y-67800000D02*
X199137500Y-67800000D01*
G75*
G02*
X199375000Y-68037500I0J-237500D01*
G01*
X199375000Y-68537500D01*
G75*
G02*
X199137500Y-68775000I-237500J0D01*
G01*
X198662500Y-68775000D01*
G75*
G02*
X198425000Y-68537500I0J237500D01*
G01*
X198425000Y-68037500D01*
G75*
G02*
X198662500Y-67800000I237500J0D01*
G01*
G37*
G36*
G01*
X182575000Y-116720000D02*
X182575000Y-117020000D01*
G75*
G02*
X182425000Y-117170000I-150000J0D01*
G01*
X180775000Y-117170000D01*
G75*
G02*
X180625000Y-117020000I0J150000D01*
G01*
X180625000Y-116720000D01*
G75*
G02*
X180775000Y-116570000I150000J0D01*
G01*
X182425000Y-116570000D01*
G75*
G02*
X182575000Y-116720000I0J-150000D01*
G01*
G37*
G36*
G01*
X182575000Y-115450000D02*
X182575000Y-115750000D01*
G75*
G02*
X182425000Y-115900000I-150000J0D01*
G01*
X180775000Y-115900000D01*
G75*
G02*
X180625000Y-115750000I0J150000D01*
G01*
X180625000Y-115450000D01*
G75*
G02*
X180775000Y-115300000I150000J0D01*
G01*
X182425000Y-115300000D01*
G75*
G02*
X182575000Y-115450000I0J-150000D01*
G01*
G37*
G36*
G01*
X182575000Y-114180000D02*
X182575000Y-114480000D01*
G75*
G02*
X182425000Y-114630000I-150000J0D01*
G01*
X180775000Y-114630000D01*
G75*
G02*
X180625000Y-114480000I0J150000D01*
G01*
X180625000Y-114180000D01*
G75*
G02*
X180775000Y-114030000I150000J0D01*
G01*
X182425000Y-114030000D01*
G75*
G02*
X182575000Y-114180000I0J-150000D01*
G01*
G37*
G36*
G01*
X182575000Y-112910000D02*
X182575000Y-113210000D01*
G75*
G02*
X182425000Y-113360000I-150000J0D01*
G01*
X180775000Y-113360000D01*
G75*
G02*
X180625000Y-113210000I0J150000D01*
G01*
X180625000Y-112910000D01*
G75*
G02*
X180775000Y-112760000I150000J0D01*
G01*
X182425000Y-112760000D01*
G75*
G02*
X182575000Y-112910000I0J-150000D01*
G01*
G37*
G36*
G01*
X187525000Y-112910000D02*
X187525000Y-113210000D01*
G75*
G02*
X187375000Y-113360000I-150000J0D01*
G01*
X185725000Y-113360000D01*
G75*
G02*
X185575000Y-113210000I0J150000D01*
G01*
X185575000Y-112910000D01*
G75*
G02*
X185725000Y-112760000I150000J0D01*
G01*
X187375000Y-112760000D01*
G75*
G02*
X187525000Y-112910000I0J-150000D01*
G01*
G37*
G36*
G01*
X187525000Y-114180000D02*
X187525000Y-114480000D01*
G75*
G02*
X187375000Y-114630000I-150000J0D01*
G01*
X185725000Y-114630000D01*
G75*
G02*
X185575000Y-114480000I0J150000D01*
G01*
X185575000Y-114180000D01*
G75*
G02*
X185725000Y-114030000I150000J0D01*
G01*
X187375000Y-114030000D01*
G75*
G02*
X187525000Y-114180000I0J-150000D01*
G01*
G37*
G36*
G01*
X187525000Y-115450000D02*
X187525000Y-115750000D01*
G75*
G02*
X187375000Y-115900000I-150000J0D01*
G01*
X185725000Y-115900000D01*
G75*
G02*
X185575000Y-115750000I0J150000D01*
G01*
X185575000Y-115450000D01*
G75*
G02*
X185725000Y-115300000I150000J0D01*
G01*
X187375000Y-115300000D01*
G75*
G02*
X187525000Y-115450000I0J-150000D01*
G01*
G37*
G36*
G01*
X187525000Y-116720000D02*
X187525000Y-117020000D01*
G75*
G02*
X187375000Y-117170000I-150000J0D01*
G01*
X185725000Y-117170000D01*
G75*
G02*
X185575000Y-117020000I0J150000D01*
G01*
X185575000Y-116720000D01*
G75*
G02*
X185725000Y-116570000I150000J0D01*
G01*
X187375000Y-116570000D01*
G75*
G02*
X187525000Y-116720000I0J-150000D01*
G01*
G37*
G36*
G01*
X156755000Y-92600000D02*
X157055000Y-92600000D01*
G75*
G02*
X157205000Y-92750000I0J-150000D01*
G01*
X157205000Y-94400000D01*
G75*
G02*
X157055000Y-94550000I-150000J0D01*
G01*
X156755000Y-94550000D01*
G75*
G02*
X156605000Y-94400000I0J150000D01*
G01*
X156605000Y-92750000D01*
G75*
G02*
X156755000Y-92600000I150000J0D01*
G01*
G37*
G36*
G01*
X155485000Y-92600000D02*
X155785000Y-92600000D01*
G75*
G02*
X155935000Y-92750000I0J-150000D01*
G01*
X155935000Y-94400000D01*
G75*
G02*
X155785000Y-94550000I-150000J0D01*
G01*
X155485000Y-94550000D01*
G75*
G02*
X155335000Y-94400000I0J150000D01*
G01*
X155335000Y-92750000D01*
G75*
G02*
X155485000Y-92600000I150000J0D01*
G01*
G37*
G36*
G01*
X154215000Y-92600000D02*
X154515000Y-92600000D01*
G75*
G02*
X154665000Y-92750000I0J-150000D01*
G01*
X154665000Y-94400000D01*
G75*
G02*
X154515000Y-94550000I-150000J0D01*
G01*
X154215000Y-94550000D01*
G75*
G02*
X154065000Y-94400000I0J150000D01*
G01*
X154065000Y-92750000D01*
G75*
G02*
X154215000Y-92600000I150000J0D01*
G01*
G37*
G36*
G01*
X152945000Y-92600000D02*
X153245000Y-92600000D01*
G75*
G02*
X153395000Y-92750000I0J-150000D01*
G01*
X153395000Y-94400000D01*
G75*
G02*
X153245000Y-94550000I-150000J0D01*
G01*
X152945000Y-94550000D01*
G75*
G02*
X152795000Y-94400000I0J150000D01*
G01*
X152795000Y-92750000D01*
G75*
G02*
X152945000Y-92600000I150000J0D01*
G01*
G37*
G36*
G01*
X152945000Y-87650000D02*
X153245000Y-87650000D01*
G75*
G02*
X153395000Y-87800000I0J-150000D01*
G01*
X153395000Y-89450000D01*
G75*
G02*
X153245000Y-89600000I-150000J0D01*
G01*
X152945000Y-89600000D01*
G75*
G02*
X152795000Y-89450000I0J150000D01*
G01*
X152795000Y-87800000D01*
G75*
G02*
X152945000Y-87650000I150000J0D01*
G01*
G37*
G36*
G01*
X154215000Y-87650000D02*
X154515000Y-87650000D01*
G75*
G02*
X154665000Y-87800000I0J-150000D01*
G01*
X154665000Y-89450000D01*
G75*
G02*
X154515000Y-89600000I-150000J0D01*
G01*
X154215000Y-89600000D01*
G75*
G02*
X154065000Y-89450000I0J150000D01*
G01*
X154065000Y-87800000D01*
G75*
G02*
X154215000Y-87650000I150000J0D01*
G01*
G37*
G36*
G01*
X155485000Y-87650000D02*
X155785000Y-87650000D01*
G75*
G02*
X155935000Y-87800000I0J-150000D01*
G01*
X155935000Y-89450000D01*
G75*
G02*
X155785000Y-89600000I-150000J0D01*
G01*
X155485000Y-89600000D01*
G75*
G02*
X155335000Y-89450000I0J150000D01*
G01*
X155335000Y-87800000D01*
G75*
G02*
X155485000Y-87650000I150000J0D01*
G01*
G37*
G36*
G01*
X156755000Y-87650000D02*
X157055000Y-87650000D01*
G75*
G02*
X157205000Y-87800000I0J-150000D01*
G01*
X157205000Y-89450000D01*
G75*
G02*
X157055000Y-89600000I-150000J0D01*
G01*
X156755000Y-89600000D01*
G75*
G02*
X156605000Y-89450000I0J150000D01*
G01*
X156605000Y-87800000D01*
G75*
G02*
X156755000Y-87650000I150000J0D01*
G01*
G37*
G36*
G01*
X190537500Y-114775000D02*
X190062500Y-114775000D01*
G75*
G02*
X189825000Y-114537500I0J237500D01*
G01*
X189825000Y-114037500D01*
G75*
G02*
X190062500Y-113800000I237500J0D01*
G01*
X190537500Y-113800000D01*
G75*
G02*
X190775000Y-114037500I0J-237500D01*
G01*
X190775000Y-114537500D01*
G75*
G02*
X190537500Y-114775000I-237500J0D01*
G01*
G37*
G36*
G01*
X190537500Y-116600000D02*
X190062500Y-116600000D01*
G75*
G02*
X189825000Y-116362500I0J237500D01*
G01*
X189825000Y-115862500D01*
G75*
G02*
X190062500Y-115625000I237500J0D01*
G01*
X190537500Y-115625000D01*
G75*
G02*
X190775000Y-115862500I0J-237500D01*
G01*
X190775000Y-116362500D01*
G75*
G02*
X190537500Y-116600000I-237500J0D01*
G01*
G37*
G36*
G01*
X164525000Y-110537500D02*
X164525000Y-110062500D01*
G75*
G02*
X164762500Y-109825000I237500J0D01*
G01*
X165262500Y-109825000D01*
G75*
G02*
X165500000Y-110062500I0J-237500D01*
G01*
X165500000Y-110537500D01*
G75*
G02*
X165262500Y-110775000I-237500J0D01*
G01*
X164762500Y-110775000D01*
G75*
G02*
X164525000Y-110537500I0J237500D01*
G01*
G37*
G36*
G01*
X162700000Y-110537500D02*
X162700000Y-110062500D01*
G75*
G02*
X162937500Y-109825000I237500J0D01*
G01*
X163437500Y-109825000D01*
G75*
G02*
X163675000Y-110062500I0J-237500D01*
G01*
X163675000Y-110537500D01*
G75*
G02*
X163437500Y-110775000I-237500J0D01*
G01*
X162937500Y-110775000D01*
G75*
G02*
X162700000Y-110537500I0J237500D01*
G01*
G37*
G36*
G01*
X147175000Y-126262500D02*
X147175000Y-126737500D01*
G75*
G02*
X146937500Y-126975000I-237500J0D01*
G01*
X146437500Y-126975000D01*
G75*
G02*
X146200000Y-126737500I0J237500D01*
G01*
X146200000Y-126262500D01*
G75*
G02*
X146437500Y-126025000I237500J0D01*
G01*
X146937500Y-126025000D01*
G75*
G02*
X147175000Y-126262500I0J-237500D01*
G01*
G37*
G36*
G01*
X149000000Y-126262500D02*
X149000000Y-126737500D01*
G75*
G02*
X148762500Y-126975000I-237500J0D01*
G01*
X148262500Y-126975000D01*
G75*
G02*
X148025000Y-126737500I0J237500D01*
G01*
X148025000Y-126262500D01*
G75*
G02*
X148262500Y-126025000I237500J0D01*
G01*
X148762500Y-126025000D01*
G75*
G02*
X149000000Y-126262500I0J-237500D01*
G01*
G37*
G36*
G01*
X105475000Y-97962500D02*
X105475000Y-98437500D01*
G75*
G02*
X105237500Y-98675000I-237500J0D01*
G01*
X104737500Y-98675000D01*
G75*
G02*
X104500000Y-98437500I0J237500D01*
G01*
X104500000Y-97962500D01*
G75*
G02*
X104737500Y-97725000I237500J0D01*
G01*
X105237500Y-97725000D01*
G75*
G02*
X105475000Y-97962500I0J-237500D01*
G01*
G37*
G36*
G01*
X107300000Y-97962500D02*
X107300000Y-98437500D01*
G75*
G02*
X107062500Y-98675000I-237500J0D01*
G01*
X106562500Y-98675000D01*
G75*
G02*
X106325000Y-98437500I0J237500D01*
G01*
X106325000Y-97962500D01*
G75*
G02*
X106562500Y-97725000I237500J0D01*
G01*
X107062500Y-97725000D01*
G75*
G02*
X107300000Y-97962500I0J-237500D01*
G01*
G37*
G36*
G01*
X117875000Y-115900000D02*
X119125000Y-115900000D01*
G75*
G02*
X119375000Y-116150000I0J-250000D01*
G01*
X119375000Y-116950000D01*
G75*
G02*
X119125000Y-117200000I-250000J0D01*
G01*
X117875000Y-117200000D01*
G75*
G02*
X117625000Y-116950000I0J250000D01*
G01*
X117625000Y-116150000D01*
G75*
G02*
X117875000Y-115900000I250000J0D01*
G01*
G37*
G36*
G01*
X117875000Y-112800000D02*
X119125000Y-112800000D01*
G75*
G02*
X119375000Y-113050000I0J-250000D01*
G01*
X119375000Y-113850000D01*
G75*
G02*
X119125000Y-114100000I-250000J0D01*
G01*
X117875000Y-114100000D01*
G75*
G02*
X117625000Y-113850000I0J250000D01*
G01*
X117625000Y-113050000D01*
G75*
G02*
X117875000Y-112800000I250000J0D01*
G01*
G37*
G36*
G01*
X121637500Y-122475000D02*
X121162500Y-122475000D01*
G75*
G02*
X120925000Y-122237500I0J237500D01*
G01*
X120925000Y-121737500D01*
G75*
G02*
X121162500Y-121500000I237500J0D01*
G01*
X121637500Y-121500000D01*
G75*
G02*
X121875000Y-121737500I0J-237500D01*
G01*
X121875000Y-122237500D01*
G75*
G02*
X121637500Y-122475000I-237500J0D01*
G01*
G37*
G36*
G01*
X121637500Y-124300000D02*
X121162500Y-124300000D01*
G75*
G02*
X120925000Y-124062500I0J237500D01*
G01*
X120925000Y-123562500D01*
G75*
G02*
X121162500Y-123325000I237500J0D01*
G01*
X121637500Y-123325000D01*
G75*
G02*
X121875000Y-123562500I0J-237500D01*
G01*
X121875000Y-124062500D01*
G75*
G02*
X121637500Y-124300000I-237500J0D01*
G01*
G37*
G36*
G01*
X121162500Y-77512500D02*
X121637500Y-77512500D01*
G75*
G02*
X121875000Y-77750000I0J-237500D01*
G01*
X121875000Y-78250000D01*
G75*
G02*
X121637500Y-78487500I-237500J0D01*
G01*
X121162500Y-78487500D01*
G75*
G02*
X120925000Y-78250000I0J237500D01*
G01*
X120925000Y-77750000D01*
G75*
G02*
X121162500Y-77512500I237500J0D01*
G01*
G37*
G36*
G01*
X121162500Y-75687500D02*
X121637500Y-75687500D01*
G75*
G02*
X121875000Y-75925000I0J-237500D01*
G01*
X121875000Y-76425000D01*
G75*
G02*
X121637500Y-76662500I-237500J0D01*
G01*
X121162500Y-76662500D01*
G75*
G02*
X120925000Y-76425000I0J237500D01*
G01*
X120925000Y-75925000D01*
G75*
G02*
X121162500Y-75687500I237500J0D01*
G01*
G37*
G36*
G01*
X119125000Y-84100000D02*
X117875000Y-84100000D01*
G75*
G02*
X117625000Y-83850000I0J250000D01*
G01*
X117625000Y-83050000D01*
G75*
G02*
X117875000Y-82800000I250000J0D01*
G01*
X119125000Y-82800000D01*
G75*
G02*
X119375000Y-83050000I0J-250000D01*
G01*
X119375000Y-83850000D01*
G75*
G02*
X119125000Y-84100000I-250000J0D01*
G01*
G37*
G36*
G01*
X119125000Y-87200000D02*
X117875000Y-87200000D01*
G75*
G02*
X117625000Y-86950000I0J250000D01*
G01*
X117625000Y-86150000D01*
G75*
G02*
X117875000Y-85900000I250000J0D01*
G01*
X119125000Y-85900000D01*
G75*
G02*
X119375000Y-86150000I0J-250000D01*
G01*
X119375000Y-86950000D01*
G75*
G02*
X119125000Y-87200000I-250000J0D01*
G01*
G37*
G36*
G01*
X196349999Y-74450000D02*
X197250001Y-74450000D01*
G75*
G02*
X197500000Y-74699999I0J-249999D01*
G01*
X197500000Y-75350001D01*
G75*
G02*
X197250001Y-75600000I-249999J0D01*
G01*
X196349999Y-75600000D01*
G75*
G02*
X196100000Y-75350001I0J249999D01*
G01*
X196100000Y-74699999D01*
G75*
G02*
X196349999Y-74450000I249999J0D01*
G01*
G37*
G36*
G01*
X196349999Y-72400000D02*
X197250001Y-72400000D01*
G75*
G02*
X197500000Y-72649999I0J-249999D01*
G01*
X197500000Y-73300001D01*
G75*
G02*
X197250001Y-73550000I-249999J0D01*
G01*
X196349999Y-73550000D01*
G75*
G02*
X196100000Y-73300001I0J249999D01*
G01*
X196100000Y-72649999D01*
G75*
G02*
X196349999Y-72400000I249999J0D01*
G01*
G37*
G36*
G01*
X183700000Y-111062500D02*
X183700000Y-111537500D01*
G75*
G02*
X183462500Y-111775000I-237500J0D01*
G01*
X182887500Y-111775000D01*
G75*
G02*
X182650000Y-111537500I0J237500D01*
G01*
X182650000Y-111062500D01*
G75*
G02*
X182887500Y-110825000I237500J0D01*
G01*
X183462500Y-110825000D01*
G75*
G02*
X183700000Y-111062500I0J-237500D01*
G01*
G37*
G36*
G01*
X185450000Y-111062500D02*
X185450000Y-111537500D01*
G75*
G02*
X185212500Y-111775000I-237500J0D01*
G01*
X184637500Y-111775000D01*
G75*
G02*
X184400000Y-111537500I0J237500D01*
G01*
X184400000Y-111062500D01*
G75*
G02*
X184637500Y-110825000I237500J0D01*
G01*
X185212500Y-110825000D01*
G75*
G02*
X185450000Y-111062500I0J-237500D01*
G01*
G37*
D11*
X121850000Y-110000000D03*
X117950000Y-110000000D03*
X121850000Y-90000000D03*
X117950000Y-90000000D03*
G36*
G01*
X155900000Y-98245000D02*
X155900000Y-97945000D01*
G75*
G02*
X156050000Y-97795000I150000J0D01*
G01*
X157700000Y-97795000D01*
G75*
G02*
X157850000Y-97945000I0J-150000D01*
G01*
X157850000Y-98245000D01*
G75*
G02*
X157700000Y-98395000I-150000J0D01*
G01*
X156050000Y-98395000D01*
G75*
G02*
X155900000Y-98245000I0J150000D01*
G01*
G37*
G36*
G01*
X155900000Y-99515000D02*
X155900000Y-99215000D01*
G75*
G02*
X156050000Y-99065000I150000J0D01*
G01*
X157700000Y-99065000D01*
G75*
G02*
X157850000Y-99215000I0J-150000D01*
G01*
X157850000Y-99515000D01*
G75*
G02*
X157700000Y-99665000I-150000J0D01*
G01*
X156050000Y-99665000D01*
G75*
G02*
X155900000Y-99515000I0J150000D01*
G01*
G37*
G36*
G01*
X155900000Y-100785000D02*
X155900000Y-100485000D01*
G75*
G02*
X156050000Y-100335000I150000J0D01*
G01*
X157700000Y-100335000D01*
G75*
G02*
X157850000Y-100485000I0J-150000D01*
G01*
X157850000Y-100785000D01*
G75*
G02*
X157700000Y-100935000I-150000J0D01*
G01*
X156050000Y-100935000D01*
G75*
G02*
X155900000Y-100785000I0J150000D01*
G01*
G37*
G36*
G01*
X155900000Y-102055000D02*
X155900000Y-101755000D01*
G75*
G02*
X156050000Y-101605000I150000J0D01*
G01*
X157700000Y-101605000D01*
G75*
G02*
X157850000Y-101755000I0J-150000D01*
G01*
X157850000Y-102055000D01*
G75*
G02*
X157700000Y-102205000I-150000J0D01*
G01*
X156050000Y-102205000D01*
G75*
G02*
X155900000Y-102055000I0J150000D01*
G01*
G37*
G36*
G01*
X150950000Y-102055000D02*
X150950000Y-101755000D01*
G75*
G02*
X151100000Y-101605000I150000J0D01*
G01*
X152750000Y-101605000D01*
G75*
G02*
X152900000Y-101755000I0J-150000D01*
G01*
X152900000Y-102055000D01*
G75*
G02*
X152750000Y-102205000I-150000J0D01*
G01*
X151100000Y-102205000D01*
G75*
G02*
X150950000Y-102055000I0J150000D01*
G01*
G37*
G36*
G01*
X150950000Y-100785000D02*
X150950000Y-100485000D01*
G75*
G02*
X151100000Y-100335000I150000J0D01*
G01*
X152750000Y-100335000D01*
G75*
G02*
X152900000Y-100485000I0J-150000D01*
G01*
X152900000Y-100785000D01*
G75*
G02*
X152750000Y-100935000I-150000J0D01*
G01*
X151100000Y-100935000D01*
G75*
G02*
X150950000Y-100785000I0J150000D01*
G01*
G37*
G36*
G01*
X150950000Y-99515000D02*
X150950000Y-99215000D01*
G75*
G02*
X151100000Y-99065000I150000J0D01*
G01*
X152750000Y-99065000D01*
G75*
G02*
X152900000Y-99215000I0J-150000D01*
G01*
X152900000Y-99515000D01*
G75*
G02*
X152750000Y-99665000I-150000J0D01*
G01*
X151100000Y-99665000D01*
G75*
G02*
X150950000Y-99515000I0J150000D01*
G01*
G37*
G36*
G01*
X150950000Y-98245000D02*
X150950000Y-97945000D01*
G75*
G02*
X151100000Y-97795000I150000J0D01*
G01*
X152750000Y-97795000D01*
G75*
G02*
X152900000Y-97945000I0J-150000D01*
G01*
X152900000Y-98245000D01*
G75*
G02*
X152750000Y-98395000I-150000J0D01*
G01*
X151100000Y-98395000D01*
G75*
G02*
X150950000Y-98245000I0J150000D01*
G01*
G37*
G36*
G01*
X143325000Y-69037500D02*
X143325000Y-68562500D01*
G75*
G02*
X143562500Y-68325000I237500J0D01*
G01*
X144062500Y-68325000D01*
G75*
G02*
X144300000Y-68562500I0J-237500D01*
G01*
X144300000Y-69037500D01*
G75*
G02*
X144062500Y-69275000I-237500J0D01*
G01*
X143562500Y-69275000D01*
G75*
G02*
X143325000Y-69037500I0J237500D01*
G01*
G37*
G36*
G01*
X141500000Y-69037500D02*
X141500000Y-68562500D01*
G75*
G02*
X141737500Y-68325000I237500J0D01*
G01*
X142237500Y-68325000D01*
G75*
G02*
X142475000Y-68562500I0J-237500D01*
G01*
X142475000Y-69037500D01*
G75*
G02*
X142237500Y-69275000I-237500J0D01*
G01*
X141737500Y-69275000D01*
G75*
G02*
X141500000Y-69037500I0J237500D01*
G01*
G37*
G36*
G01*
X188637500Y-105375000D02*
X188162500Y-105375000D01*
G75*
G02*
X187925000Y-105137500I0J237500D01*
G01*
X187925000Y-104637500D01*
G75*
G02*
X188162500Y-104400000I237500J0D01*
G01*
X188637500Y-104400000D01*
G75*
G02*
X188875000Y-104637500I0J-237500D01*
G01*
X188875000Y-105137500D01*
G75*
G02*
X188637500Y-105375000I-237500J0D01*
G01*
G37*
G36*
G01*
X188637500Y-107200000D02*
X188162500Y-107200000D01*
G75*
G02*
X187925000Y-106962500I0J237500D01*
G01*
X187925000Y-106462500D01*
G75*
G02*
X188162500Y-106225000I237500J0D01*
G01*
X188637500Y-106225000D01*
G75*
G02*
X188875000Y-106462500I0J-237500D01*
G01*
X188875000Y-106962500D01*
G75*
G02*
X188637500Y-107200000I-237500J0D01*
G01*
G37*
G36*
G01*
X188637500Y-101775000D02*
X188162500Y-101775000D01*
G75*
G02*
X187925000Y-101537500I0J237500D01*
G01*
X187925000Y-101037500D01*
G75*
G02*
X188162500Y-100800000I237500J0D01*
G01*
X188637500Y-100800000D01*
G75*
G02*
X188875000Y-101037500I0J-237500D01*
G01*
X188875000Y-101537500D01*
G75*
G02*
X188637500Y-101775000I-237500J0D01*
G01*
G37*
G36*
G01*
X188637500Y-103600000D02*
X188162500Y-103600000D01*
G75*
G02*
X187925000Y-103362500I0J237500D01*
G01*
X187925000Y-102862500D01*
G75*
G02*
X188162500Y-102625000I237500J0D01*
G01*
X188637500Y-102625000D01*
G75*
G02*
X188875000Y-102862500I0J-237500D01*
G01*
X188875000Y-103362500D01*
G75*
G02*
X188637500Y-103600000I-237500J0D01*
G01*
G37*
G36*
G01*
X188637500Y-98175000D02*
X188162500Y-98175000D01*
G75*
G02*
X187925000Y-97937500I0J237500D01*
G01*
X187925000Y-97437500D01*
G75*
G02*
X188162500Y-97200000I237500J0D01*
G01*
X188637500Y-97200000D01*
G75*
G02*
X188875000Y-97437500I0J-237500D01*
G01*
X188875000Y-97937500D01*
G75*
G02*
X188637500Y-98175000I-237500J0D01*
G01*
G37*
G36*
G01*
X188637500Y-100000000D02*
X188162500Y-100000000D01*
G75*
G02*
X187925000Y-99762500I0J237500D01*
G01*
X187925000Y-99262500D01*
G75*
G02*
X188162500Y-99025000I237500J0D01*
G01*
X188637500Y-99025000D01*
G75*
G02*
X188875000Y-99262500I0J-237500D01*
G01*
X188875000Y-99762500D01*
G75*
G02*
X188637500Y-100000000I-237500J0D01*
G01*
G37*
G36*
G01*
X190075000Y-120450000D02*
X192225000Y-120450000D01*
G75*
G02*
X192475000Y-120700000I0J-250000D01*
G01*
X192475000Y-121500000D01*
G75*
G02*
X192225000Y-121750000I-250000J0D01*
G01*
X190075000Y-121750000D01*
G75*
G02*
X189825000Y-121500000I0J250000D01*
G01*
X189825000Y-120700000D01*
G75*
G02*
X190075000Y-120450000I250000J0D01*
G01*
G37*
G36*
G01*
X190075000Y-117350000D02*
X192225000Y-117350000D01*
G75*
G02*
X192475000Y-117600000I0J-250000D01*
G01*
X192475000Y-118400000D01*
G75*
G02*
X192225000Y-118650000I-250000J0D01*
G01*
X190075000Y-118650000D01*
G75*
G02*
X189825000Y-118400000I0J250000D01*
G01*
X189825000Y-117600000D01*
G75*
G02*
X190075000Y-117350000I250000J0D01*
G01*
G37*
G36*
G01*
X165362500Y-79725000D02*
X165837500Y-79725000D01*
G75*
G02*
X166075000Y-79962500I0J-237500D01*
G01*
X166075000Y-80462500D01*
G75*
G02*
X165837500Y-80700000I-237500J0D01*
G01*
X165362500Y-80700000D01*
G75*
G02*
X165125000Y-80462500I0J237500D01*
G01*
X165125000Y-79962500D01*
G75*
G02*
X165362500Y-79725000I237500J0D01*
G01*
G37*
G36*
G01*
X165362500Y-77900000D02*
X165837500Y-77900000D01*
G75*
G02*
X166075000Y-78137500I0J-237500D01*
G01*
X166075000Y-78637500D01*
G75*
G02*
X165837500Y-78875000I-237500J0D01*
G01*
X165362500Y-78875000D01*
G75*
G02*
X165125000Y-78637500I0J237500D01*
G01*
X165125000Y-78137500D01*
G75*
G02*
X165362500Y-77900000I237500J0D01*
G01*
G37*
G36*
G01*
X164237500Y-78875000D02*
X163762500Y-78875000D01*
G75*
G02*
X163525000Y-78637500I0J237500D01*
G01*
X163525000Y-78137500D01*
G75*
G02*
X163762500Y-77900000I237500J0D01*
G01*
X164237500Y-77900000D01*
G75*
G02*
X164475000Y-78137500I0J-237500D01*
G01*
X164475000Y-78637500D01*
G75*
G02*
X164237500Y-78875000I-237500J0D01*
G01*
G37*
G36*
G01*
X164237500Y-80700000D02*
X163762500Y-80700000D01*
G75*
G02*
X163525000Y-80462500I0J237500D01*
G01*
X163525000Y-79962500D01*
G75*
G02*
X163762500Y-79725000I237500J0D01*
G01*
X164237500Y-79725000D01*
G75*
G02*
X164475000Y-79962500I0J-237500D01*
G01*
X164475000Y-80462500D01*
G75*
G02*
X164237500Y-80700000I-237500J0D01*
G01*
G37*
G36*
G01*
X159787500Y-99762500D02*
X159787500Y-100237500D01*
G75*
G02*
X159550000Y-100475000I-237500J0D01*
G01*
X159050000Y-100475000D01*
G75*
G02*
X158812500Y-100237500I0J237500D01*
G01*
X158812500Y-99762500D01*
G75*
G02*
X159050000Y-99525000I237500J0D01*
G01*
X159550000Y-99525000D01*
G75*
G02*
X159787500Y-99762500I0J-237500D01*
G01*
G37*
G36*
G01*
X161612500Y-99762500D02*
X161612500Y-100237500D01*
G75*
G02*
X161375000Y-100475000I-237500J0D01*
G01*
X160875000Y-100475000D01*
G75*
G02*
X160637500Y-100237500I0J237500D01*
G01*
X160637500Y-99762500D01*
G75*
G02*
X160875000Y-99525000I237500J0D01*
G01*
X161375000Y-99525000D01*
G75*
G02*
X161612500Y-99762500I0J-237500D01*
G01*
G37*
G36*
G01*
X145825000Y-102762500D02*
X145825000Y-103237500D01*
G75*
G02*
X145587500Y-103475000I-237500J0D01*
G01*
X145087500Y-103475000D01*
G75*
G02*
X144850000Y-103237500I0J237500D01*
G01*
X144850000Y-102762500D01*
G75*
G02*
X145087500Y-102525000I237500J0D01*
G01*
X145587500Y-102525000D01*
G75*
G02*
X145825000Y-102762500I0J-237500D01*
G01*
G37*
G36*
G01*
X147650000Y-102762500D02*
X147650000Y-103237500D01*
G75*
G02*
X147412500Y-103475000I-237500J0D01*
G01*
X146912500Y-103475000D01*
G75*
G02*
X146675000Y-103237500I0J237500D01*
G01*
X146675000Y-102762500D01*
G75*
G02*
X146912500Y-102525000I237500J0D01*
G01*
X147412500Y-102525000D01*
G75*
G02*
X147650000Y-102762500I0J-237500D01*
G01*
G37*
G36*
G01*
X145825000Y-96762500D02*
X145825000Y-97237500D01*
G75*
G02*
X145587500Y-97475000I-237500J0D01*
G01*
X145087500Y-97475000D01*
G75*
G02*
X144850000Y-97237500I0J237500D01*
G01*
X144850000Y-96762500D01*
G75*
G02*
X145087500Y-96525000I237500J0D01*
G01*
X145587500Y-96525000D01*
G75*
G02*
X145825000Y-96762500I0J-237500D01*
G01*
G37*
G36*
G01*
X147650000Y-96762500D02*
X147650000Y-97237500D01*
G75*
G02*
X147412500Y-97475000I-237500J0D01*
G01*
X146912500Y-97475000D01*
G75*
G02*
X146675000Y-97237500I0J237500D01*
G01*
X146675000Y-96762500D01*
G75*
G02*
X146912500Y-96525000I237500J0D01*
G01*
X147412500Y-96525000D01*
G75*
G02*
X147650000Y-96762500I0J-237500D01*
G01*
G37*
G36*
G01*
X123825000Y-104262500D02*
X123825000Y-104737500D01*
G75*
G02*
X123587500Y-104975000I-237500J0D01*
G01*
X123087500Y-104975000D01*
G75*
G02*
X122850000Y-104737500I0J237500D01*
G01*
X122850000Y-104262500D01*
G75*
G02*
X123087500Y-104025000I237500J0D01*
G01*
X123587500Y-104025000D01*
G75*
G02*
X123825000Y-104262500I0J-237500D01*
G01*
G37*
G36*
G01*
X125650000Y-104262500D02*
X125650000Y-104737500D01*
G75*
G02*
X125412500Y-104975000I-237500J0D01*
G01*
X124912500Y-104975000D01*
G75*
G02*
X124675000Y-104737500I0J237500D01*
G01*
X124675000Y-104262500D01*
G75*
G02*
X124912500Y-104025000I237500J0D01*
G01*
X125412500Y-104025000D01*
G75*
G02*
X125650000Y-104262500I0J-237500D01*
G01*
G37*
G36*
G01*
X124675000Y-95737500D02*
X124675000Y-95262500D01*
G75*
G02*
X124912500Y-95025000I237500J0D01*
G01*
X125412500Y-95025000D01*
G75*
G02*
X125650000Y-95262500I0J-237500D01*
G01*
X125650000Y-95737500D01*
G75*
G02*
X125412500Y-95975000I-237500J0D01*
G01*
X124912500Y-95975000D01*
G75*
G02*
X124675000Y-95737500I0J237500D01*
G01*
G37*
G36*
G01*
X122850000Y-95737500D02*
X122850000Y-95262500D01*
G75*
G02*
X123087500Y-95025000I237500J0D01*
G01*
X123587500Y-95025000D01*
G75*
G02*
X123825000Y-95262500I0J-237500D01*
G01*
X123825000Y-95737500D01*
G75*
G02*
X123587500Y-95975000I-237500J0D01*
G01*
X123087500Y-95975000D01*
G75*
G02*
X122850000Y-95737500I0J237500D01*
G01*
G37*
D12*
X191900000Y-83550000D03*
X191900000Y-80650000D03*
X188900000Y-80650000D03*
X188900000Y-83550000D03*
D13*
X142750000Y-99000000D03*
X143700000Y-101000000D03*
X141800000Y-101000000D03*
X142750000Y-103000000D03*
X143700000Y-105000000D03*
X141800000Y-105000000D03*
X142750000Y-97000000D03*
X141800000Y-95000000D03*
X143700000Y-95000000D03*
G36*
G01*
X193962500Y-97550000D02*
X194437500Y-97550000D01*
G75*
G02*
X194675000Y-97787500I0J-237500D01*
G01*
X194675000Y-98362500D01*
G75*
G02*
X194437500Y-98600000I-237500J0D01*
G01*
X193962500Y-98600000D01*
G75*
G02*
X193725000Y-98362500I0J237500D01*
G01*
X193725000Y-97787500D01*
G75*
G02*
X193962500Y-97550000I237500J0D01*
G01*
G37*
G36*
G01*
X193962500Y-95800000D02*
X194437500Y-95800000D01*
G75*
G02*
X194675000Y-96037500I0J-237500D01*
G01*
X194675000Y-96612500D01*
G75*
G02*
X194437500Y-96850000I-237500J0D01*
G01*
X193962500Y-96850000D01*
G75*
G02*
X193725000Y-96612500I0J237500D01*
G01*
X193725000Y-96037500D01*
G75*
G02*
X193962500Y-95800000I237500J0D01*
G01*
G37*
G36*
G01*
X186537500Y-67750000D02*
X186062500Y-67750000D01*
G75*
G02*
X185825000Y-67512500I0J237500D01*
G01*
X185825000Y-66937500D01*
G75*
G02*
X186062500Y-66700000I237500J0D01*
G01*
X186537500Y-66700000D01*
G75*
G02*
X186775000Y-66937500I0J-237500D01*
G01*
X186775000Y-67512500D01*
G75*
G02*
X186537500Y-67750000I-237500J0D01*
G01*
G37*
G36*
G01*
X186537500Y-69500000D02*
X186062500Y-69500000D01*
G75*
G02*
X185825000Y-69262500I0J237500D01*
G01*
X185825000Y-68687500D01*
G75*
G02*
X186062500Y-68450000I237500J0D01*
G01*
X186537500Y-68450000D01*
G75*
G02*
X186775000Y-68687500I0J-237500D01*
G01*
X186775000Y-69262500D01*
G75*
G02*
X186537500Y-69500000I-237500J0D01*
G01*
G37*
G36*
G01*
X186537500Y-71650000D02*
X186062500Y-71650000D01*
G75*
G02*
X185825000Y-71412500I0J237500D01*
G01*
X185825000Y-70837500D01*
G75*
G02*
X186062500Y-70600000I237500J0D01*
G01*
X186537500Y-70600000D01*
G75*
G02*
X186775000Y-70837500I0J-237500D01*
G01*
X186775000Y-71412500D01*
G75*
G02*
X186537500Y-71650000I-237500J0D01*
G01*
G37*
G36*
G01*
X186537500Y-73400000D02*
X186062500Y-73400000D01*
G75*
G02*
X185825000Y-73162500I0J237500D01*
G01*
X185825000Y-72587500D01*
G75*
G02*
X186062500Y-72350000I237500J0D01*
G01*
X186537500Y-72350000D01*
G75*
G02*
X186775000Y-72587500I0J-237500D01*
G01*
X186775000Y-73162500D01*
G75*
G02*
X186537500Y-73400000I-237500J0D01*
G01*
G37*
G36*
G01*
X189750000Y-74637500D02*
X189750000Y-74162500D01*
G75*
G02*
X189987500Y-73925000I237500J0D01*
G01*
X190562500Y-73925000D01*
G75*
G02*
X190800000Y-74162500I0J-237500D01*
G01*
X190800000Y-74637500D01*
G75*
G02*
X190562500Y-74875000I-237500J0D01*
G01*
X189987500Y-74875000D01*
G75*
G02*
X189750000Y-74637500I0J237500D01*
G01*
G37*
G36*
G01*
X188000000Y-74637500D02*
X188000000Y-74162500D01*
G75*
G02*
X188237500Y-73925000I237500J0D01*
G01*
X188812500Y-73925000D01*
G75*
G02*
X189050000Y-74162500I0J-237500D01*
G01*
X189050000Y-74637500D01*
G75*
G02*
X188812500Y-74875000I-237500J0D01*
G01*
X188237500Y-74875000D01*
G75*
G02*
X188000000Y-74637500I0J237500D01*
G01*
G37*
G36*
G01*
X179162500Y-110450000D02*
X179637500Y-110450000D01*
G75*
G02*
X179875000Y-110687500I0J-237500D01*
G01*
X179875000Y-111262500D01*
G75*
G02*
X179637500Y-111500000I-237500J0D01*
G01*
X179162500Y-111500000D01*
G75*
G02*
X178925000Y-111262500I0J237500D01*
G01*
X178925000Y-110687500D01*
G75*
G02*
X179162500Y-110450000I237500J0D01*
G01*
G37*
G36*
G01*
X179162500Y-108700000D02*
X179637500Y-108700000D01*
G75*
G02*
X179875000Y-108937500I0J-237500D01*
G01*
X179875000Y-109512500D01*
G75*
G02*
X179637500Y-109750000I-237500J0D01*
G01*
X179162500Y-109750000D01*
G75*
G02*
X178925000Y-109512500I0J237500D01*
G01*
X178925000Y-108937500D01*
G75*
G02*
X179162500Y-108700000I237500J0D01*
G01*
G37*
G36*
G01*
X153475001Y-86737500D02*
X153475001Y-86262500D01*
G75*
G02*
X153712501Y-86025000I237500J0D01*
G01*
X154287501Y-86025000D01*
G75*
G02*
X154525001Y-86262500I0J-237500D01*
G01*
X154525001Y-86737500D01*
G75*
G02*
X154287501Y-86975000I-237500J0D01*
G01*
X153712501Y-86975000D01*
G75*
G02*
X153475001Y-86737500I0J237500D01*
G01*
G37*
G36*
G01*
X151725001Y-86737500D02*
X151725001Y-86262500D01*
G75*
G02*
X151962501Y-86025000I237500J0D01*
G01*
X152537501Y-86025000D01*
G75*
G02*
X152775001Y-86262500I0J-237500D01*
G01*
X152775001Y-86737500D01*
G75*
G02*
X152537501Y-86975000I-237500J0D01*
G01*
X151962501Y-86975000D01*
G75*
G02*
X151725001Y-86737500I0J237500D01*
G01*
G37*
G36*
G01*
X174262500Y-107450000D02*
X174737500Y-107450000D01*
G75*
G02*
X174975000Y-107687500I0J-237500D01*
G01*
X174975000Y-108262500D01*
G75*
G02*
X174737500Y-108500000I-237500J0D01*
G01*
X174262500Y-108500000D01*
G75*
G02*
X174025000Y-108262500I0J237500D01*
G01*
X174025000Y-107687500D01*
G75*
G02*
X174262500Y-107450000I237500J0D01*
G01*
G37*
G36*
G01*
X174262500Y-105700000D02*
X174737500Y-105700000D01*
G75*
G02*
X174975000Y-105937500I0J-237500D01*
G01*
X174975000Y-106512500D01*
G75*
G02*
X174737500Y-106750000I-237500J0D01*
G01*
X174262500Y-106750000D01*
G75*
G02*
X174025000Y-106512500I0J237500D01*
G01*
X174025000Y-105937500D01*
G75*
G02*
X174262500Y-105700000I237500J0D01*
G01*
G37*
G36*
G01*
X146762500Y-100350000D02*
X147237500Y-100350000D01*
G75*
G02*
X147475000Y-100587500I0J-237500D01*
G01*
X147475000Y-101162500D01*
G75*
G02*
X147237500Y-101400000I-237500J0D01*
G01*
X146762500Y-101400000D01*
G75*
G02*
X146525000Y-101162500I0J237500D01*
G01*
X146525000Y-100587500D01*
G75*
G02*
X146762500Y-100350000I237500J0D01*
G01*
G37*
G36*
G01*
X146762500Y-98600000D02*
X147237500Y-98600000D01*
G75*
G02*
X147475000Y-98837500I0J-237500D01*
G01*
X147475000Y-99412500D01*
G75*
G02*
X147237500Y-99650000I-237500J0D01*
G01*
X146762500Y-99650000D01*
G75*
G02*
X146525000Y-99412500I0J237500D01*
G01*
X146525000Y-98837500D01*
G75*
G02*
X146762500Y-98600000I237500J0D01*
G01*
G37*
G36*
G01*
X148562500Y-102350000D02*
X149037500Y-102350000D01*
G75*
G02*
X149275000Y-102587500I0J-237500D01*
G01*
X149275000Y-103162500D01*
G75*
G02*
X149037500Y-103400000I-237500J0D01*
G01*
X148562500Y-103400000D01*
G75*
G02*
X148325000Y-103162500I0J237500D01*
G01*
X148325000Y-102587500D01*
G75*
G02*
X148562500Y-102350000I237500J0D01*
G01*
G37*
G36*
G01*
X148562500Y-100600000D02*
X149037500Y-100600000D01*
G75*
G02*
X149275000Y-100837500I0J-237500D01*
G01*
X149275000Y-101412500D01*
G75*
G02*
X149037500Y-101650000I-237500J0D01*
G01*
X148562500Y-101650000D01*
G75*
G02*
X148325000Y-101412500I0J237500D01*
G01*
X148325000Y-100837500D01*
G75*
G02*
X148562500Y-100600000I237500J0D01*
G01*
G37*
G36*
G01*
X148562500Y-98350000D02*
X149037500Y-98350000D01*
G75*
G02*
X149275000Y-98587500I0J-237500D01*
G01*
X149275000Y-99162500D01*
G75*
G02*
X149037500Y-99400000I-237500J0D01*
G01*
X148562500Y-99400000D01*
G75*
G02*
X148325000Y-99162500I0J237500D01*
G01*
X148325000Y-98587500D01*
G75*
G02*
X148562500Y-98350000I237500J0D01*
G01*
G37*
G36*
G01*
X148562500Y-96600000D02*
X149037500Y-96600000D01*
G75*
G02*
X149275000Y-96837500I0J-237500D01*
G01*
X149275000Y-97412500D01*
G75*
G02*
X149037500Y-97650000I-237500J0D01*
G01*
X148562500Y-97650000D01*
G75*
G02*
X148325000Y-97412500I0J237500D01*
G01*
X148325000Y-96837500D01*
G75*
G02*
X148562500Y-96600000I237500J0D01*
G01*
G37*
G36*
G01*
X123262500Y-102100000D02*
X123737500Y-102100000D01*
G75*
G02*
X123975000Y-102337500I0J-237500D01*
G01*
X123975000Y-102912500D01*
G75*
G02*
X123737500Y-103150000I-237500J0D01*
G01*
X123262500Y-103150000D01*
G75*
G02*
X123025000Y-102912500I0J237500D01*
G01*
X123025000Y-102337500D01*
G75*
G02*
X123262500Y-102100000I237500J0D01*
G01*
G37*
G36*
G01*
X123262500Y-100350000D02*
X123737500Y-100350000D01*
G75*
G02*
X123975000Y-100587500I0J-237500D01*
G01*
X123975000Y-101162500D01*
G75*
G02*
X123737500Y-101400000I-237500J0D01*
G01*
X123262500Y-101400000D01*
G75*
G02*
X123025000Y-101162500I0J237500D01*
G01*
X123025000Y-100587500D01*
G75*
G02*
X123262500Y-100350000I237500J0D01*
G01*
G37*
G36*
G01*
X123262500Y-98600000D02*
X123737500Y-98600000D01*
G75*
G02*
X123975000Y-98837500I0J-237500D01*
G01*
X123975000Y-99412500D01*
G75*
G02*
X123737500Y-99650000I-237500J0D01*
G01*
X123262500Y-99650000D01*
G75*
G02*
X123025000Y-99412500I0J237500D01*
G01*
X123025000Y-98837500D01*
G75*
G02*
X123262500Y-98600000I237500J0D01*
G01*
G37*
G36*
G01*
X123262500Y-96850000D02*
X123737500Y-96850000D01*
G75*
G02*
X123975000Y-97087500I0J-237500D01*
G01*
X123975000Y-97662500D01*
G75*
G02*
X123737500Y-97900000I-237500J0D01*
G01*
X123262500Y-97900000D01*
G75*
G02*
X123025000Y-97662500I0J237500D01*
G01*
X123025000Y-97087500D01*
G75*
G02*
X123262500Y-96850000I237500J0D01*
G01*
G37*
D14*
X120500000Y-100800000D03*
X120500000Y-104700000D03*
X120500000Y-99200000D03*
X120500000Y-95300000D03*
M02*
