M48
; DRILL file {KiCad (5.1.9)-1} date 04/27/21 11:57:59
; FORMAT={-:-/ absolute / inch / decimal}
; #@! TF.CreationDate,2021-04-27T11:57:59-05:00
; #@! TF.GenerationSoftware,Kicad,Pcbnew,(5.1.9)-1
FMAT,2
INCH
T1C0.0177
T2C0.0315
T3C0.0350
T4C0.0354
T5C0.0394
T6C0.0472
T7C0.0512
T8C0.0791
T9C0.0630
T10C0.0787
%
G90
G05
T1
X3.7402Y-2.5591
X3.7402Y-5.315
X4.0866Y-3.8661
X4.0866Y-4.0079
X4.1339Y-2.5591
X4.1339Y-5.315
X4.5276Y-2.5591
X4.5276Y-5.315
X4.7008Y-2.6063
X4.7008Y-3.937
X4.7008Y-5.2677
X4.7795Y-2.6063
X4.7795Y-5.2677
X4.7874Y-3.937
X4.8346Y-3.937
X4.8583Y-2.6063
X4.8583Y-5.2677
X4.8898Y-3.937
X4.9213Y-2.5591
X4.9213Y-5.315
X5.315Y-2.5591
X5.315Y-5.315
X5.4921Y-2.6575
X5.4921Y-2.7008
X5.5118Y-3.7205
X5.5118Y-4.0551
X5.5118Y-4.1535
X5.5118Y-3.8189
X5.5827Y-3.6909
X5.5827Y-4.1831
X5.6575Y-3.6909
X5.6575Y-4.1831
X5.7047Y-2.7087
X5.7087Y-2.5591
X5.7087Y-5.315
X5.7283Y-3.7205
X5.7283Y-4.1535
X5.8346Y-3.937
X5.8583Y-3.5866
X5.8819Y-3.937
X5.9449Y-3.4055
X5.9449Y-3.7047
X6.0118Y-3.5512
X6.1024Y-2.5591
X6.1024Y-5.315
X6.126Y-4.0709
X6.1457Y-3.622
X6.2087Y-4.122
X6.252Y-3.7087
X6.252Y-3.862
X6.252Y-4.012
X6.2992Y-3.5866
X6.4961Y-2.5591
X6.4961Y-5.315
X6.6969Y-3.9567
X6.8898Y-2.5591
X6.8898Y-5.315
X6.9823Y-4.5945
X7.0862Y-4.6874
X7.0925Y-4.5512
X7.1083Y-4.8858
X7.1654Y-3.9606
X7.1929Y-4.1417
X7.1929Y-4.2087
X7.2195Y-4.7073
X7.2195Y-4.7624
X7.2195Y-4.8175
X7.2441Y-4.4528
X7.2598Y-3.9567
X7.2657Y-4.8858
X7.2746Y-4.7073
X7.2746Y-4.7624
X7.2746Y-4.8175
X7.2835Y-2.5591
X7.2835Y-5.315
X7.2923Y-2.8691
X7.2923Y-2.6457
X7.3031Y-2.7585
X7.3268Y-3.8701
X7.3425Y-2.7585
X7.3425Y-3.7913
X7.3465Y-4.0472
X7.3793Y-2.7585
X7.3793Y-2.8085
X7.3819Y-2.9291
X7.4035Y-4.7283
X7.4035Y-4.8898
X7.4059Y-4.4512
X7.437Y-3.126
X7.437Y-3.3386
X7.4921Y-4.4547
X7.5118Y-2.7283
X7.5118Y-2.7835
X7.5118Y-2.8386
X7.5315Y-2.9291
X7.5551Y-3.126
X7.5551Y-3.3386
X7.5669Y-2.7283
X7.5669Y-2.7835
X7.5669Y-2.8386
X7.6693Y-3.7913
X7.6693Y-4.0472
X7.6772Y-2.5591
X7.6772Y-5.315
X7.7008Y-4.315
X7.7087Y-2.689
X7.7244Y-3.9803
X7.7717Y-4.315
X7.8425Y-4.0709
X7.8425Y-4.1811
X7.8425Y-3.7638
X7.8425Y-3.874
X8.0551Y-3.7638
X8.0551Y-3.874
X8.0551Y-4.0709
X8.0551Y-4.1811
X8.0709Y-2.5591
X8.0709Y-5.315
X8.1102Y-2.6969
X8.1102Y-2.7323
X8.1102Y-2.874
X8.1102Y-2.9094
T2
X5.028Y-3.837
X5.028Y-4.037
X5.0315Y-2.7717
X5.0315Y-5.1024
X5.128Y-3.937
X5.2283Y-2.7717
X5.2283Y-5.1024
X5.6063Y-4.6457
X5.6063Y-4.8457
X5.7063Y-4.7457
X6.4134Y-4.4803
X6.4134Y-4.6803
X6.5134Y-4.5803
X6.8307Y-4.0748
X6.9307Y-3.9748
X7.0307Y-4.0748
T3
X4.063Y-3.4252
X4.063Y-3.5252
X4.063Y-4.4488
X4.063Y-4.5488
X7.7283Y-4.526
X7.7283Y-4.626
T4
X3.7795Y-3.8882
X3.7795Y-3.9882
X4.4331Y-3.2283
X4.4331Y-3.3071
X4.4331Y-3.3858
X4.4331Y-3.4646
X4.4331Y-3.5433
X4.4331Y-3.622
X4.4331Y-4.252
X4.4331Y-4.3307
X4.4331Y-4.4094
X4.4331Y-4.4882
X4.4331Y-4.5669
X4.4331Y-4.6457
X6.7717Y-3.748
X6.8504Y-3.748
X6.8701Y-4.4055
X6.8701Y-4.4843
X6.8701Y-4.563
X6.8701Y-4.6417
X6.8701Y-4.7205
X6.8701Y-4.7992
X6.9291Y-3.748
X7.0079Y-3.748
X7.0866Y-3.748
X7.1654Y-3.748
T5
X4.3331Y-3.8228
X4.3331Y-4.0512
X4.4331Y-3.8228
X4.4331Y-4.0512
X4.5331Y-3.8228
X4.5331Y-4.0512
X4.9299Y-2.9717
X4.9299Y-3.0717
X4.9299Y-3.2717
X4.9299Y-3.3717
X4.9299Y-3.4717
X4.9299Y-3.5717
X4.9299Y-4.3024
X4.9299Y-4.4024
X4.9299Y-4.5024
X4.9299Y-4.6024
X4.9299Y-4.8024
X4.9299Y-4.9024
X5.3299Y-2.9717
X5.3299Y-3.0717
X5.3299Y-3.2717
X5.3299Y-3.3717
X5.3299Y-3.4717
X5.3299Y-3.5717
X5.3299Y-4.3024
X5.3299Y-4.4024
X5.3299Y-4.5024
X5.3299Y-4.6024
X5.3299Y-4.8024
X5.3299Y-4.9024
X5.863Y-4.3024
X5.863Y-4.4024
X5.863Y-4.6024
X5.863Y-4.7024
X5.863Y-4.8024
X5.863Y-4.9024
X6.263Y-4.3024
X6.263Y-4.4024
X6.263Y-4.6024
X6.263Y-4.7024
X6.263Y-4.8024
X6.263Y-4.9024
X6.3386Y-2.9882
X6.3386Y-3.0866
X6.3386Y-3.185
X7.2441Y-2.9882
X7.2441Y-3.0866
X7.2441Y-3.185
T6
X4.3307Y-3.1693
X4.3307Y-3.685
X4.3307Y-4.189
X4.3307Y-4.7047
X4.5354Y-3.1693
X4.5354Y-3.685
X4.5354Y-4.189
X4.5354Y-4.7047
X6.7126Y-3.6457
X6.7126Y-3.8504
X6.7677Y-4.3465
X6.7677Y-4.8622
X6.9724Y-4.3465
X6.9724Y-4.8622
X7.2283Y-3.6457
X7.2283Y-3.8504
T7
X4.1929Y-2.8504
X4.1929Y-5.0236
X4.5866Y-2.8504
X4.5866Y-5.0236
T8
X3.863Y-3.2252
X3.863Y-3.6252
X3.863Y-4.2488
X3.863Y-4.6488
X7.9283Y-4.426
X7.9283Y-4.826
T9
X8.126Y-3.248
T10
X6.063Y-2.9134
X6.063Y-3.2598
X6.9685Y-2.9134
X6.9685Y-3.2598
T5
G00X7.7717Y-3.2874
M15
G01X7.7717Y-3.2087
M16
G05
G00X8.0079Y-3.2736
M15
G01X8.0079Y-3.2224
M16
G05
G00X8.0177Y-3.0709
M15
G01X8.0768Y-3.0709
M16
G05
G00X8.0177Y-3.4252
M15
G01X8.0768Y-3.4252
M16
G05
T0
M30
