G04 #@! TF.GenerationSoftware,KiCad,Pcbnew,(5.1.9)-1*
G04 #@! TF.CreationDate,2021-04-24T18:19:28-05:00*
G04 #@! TF.ProjectId,high-gain-diff-probe,68696768-2d67-4616-996e-2d646966662d,rev?*
G04 #@! TF.SameCoordinates,Original*
G04 #@! TF.FileFunction,Copper,L3,Inr*
G04 #@! TF.FilePolarity,Positive*
%FSLAX46Y46*%
G04 Gerber Fmt 4.6, Leading zero omitted, Abs format (unit mm)*
G04 Created by KiCad (PCBNEW (5.1.9)-1) date 2021-04-24 18:19:28*
%MOMM*%
%LPD*%
G01*
G04 APERTURE LIST*
G04 #@! TA.AperFunction,ComponentPad*
%ADD10C,0.900000*%
G04 #@! TD*
G04 #@! TA.AperFunction,ComponentPad*
%ADD11C,1.800000*%
G04 #@! TD*
G04 #@! TA.AperFunction,ComponentPad*
%ADD12R,1.800000X1.800000*%
G04 #@! TD*
G04 #@! TA.AperFunction,ComponentPad*
%ADD13C,1.600000*%
G04 #@! TD*
G04 #@! TA.AperFunction,WasherPad*
%ADD14C,4.000000*%
G04 #@! TD*
G04 #@! TA.AperFunction,ComponentPad*
%ADD15C,1.700000*%
G04 #@! TD*
G04 #@! TA.AperFunction,ComponentPad*
%ADD16C,2.000000*%
G04 #@! TD*
G04 #@! TA.AperFunction,ComponentPad*
%ADD17C,1.440000*%
G04 #@! TD*
G04 #@! TA.AperFunction,ComponentPad*
%ADD18O,1.600000X1.600000*%
G04 #@! TD*
G04 #@! TA.AperFunction,ComponentPad*
%ADD19O,3.500000X2.000000*%
G04 #@! TD*
G04 #@! TA.AperFunction,ComponentPad*
%ADD20O,2.000000X3.300000*%
G04 #@! TD*
G04 #@! TA.AperFunction,ComponentPad*
%ADD21R,2.000000X4.000000*%
G04 #@! TD*
G04 #@! TA.AperFunction,ComponentPad*
%ADD22O,2.500000X1.600000*%
G04 #@! TD*
G04 #@! TA.AperFunction,ComponentPad*
%ADD23O,7.000000X3.500000*%
G04 #@! TD*
G04 #@! TA.AperFunction,ViaPad*
%ADD24C,0.900000*%
G04 #@! TD*
G04 #@! TA.AperFunction,Conductor*
%ADD25C,0.254000*%
G04 #@! TD*
G04 #@! TA.AperFunction,Conductor*
%ADD26C,0.100000*%
G04 #@! TD*
G04 APERTURE END LIST*
D10*
X192200000Y-72100000D03*
X190800000Y-72100000D03*
X192200000Y-70700000D03*
X190800000Y-70700000D03*
X192200000Y-69300000D03*
X190800000Y-69300000D03*
X181825000Y-119565000D03*
X183225000Y-119565000D03*
X181825000Y-120965000D03*
X183225000Y-120965000D03*
X181825000Y-122365000D03*
X183225000Y-122365000D03*
D11*
X203340000Y-100000000D03*
D12*
X200800000Y-100000000D03*
D13*
X116500000Y-114500000D03*
X116500000Y-119500000D03*
X116500000Y-80500000D03*
X116500000Y-85500000D03*
D14*
X147000000Y-74100000D03*
X147000000Y-82900000D03*
D11*
X154000000Y-76000000D03*
X154000000Y-78500000D03*
X154000000Y-81000000D03*
D15*
X174000000Y-92500000D03*
X172000000Y-92500000D03*
X170000000Y-92500000D03*
X168000000Y-92500000D03*
X166000000Y-92500000D03*
X164000000Y-92500000D03*
D16*
X162500000Y-95100000D03*
X175600000Y-95100000D03*
X175600000Y-89900000D03*
X162500000Y-89900000D03*
D15*
X171000000Y-122000000D03*
X171000000Y-120000000D03*
X171000000Y-118000000D03*
X171000000Y-116000000D03*
X171000000Y-114000000D03*
X171000000Y-112000000D03*
D16*
X168400000Y-110500000D03*
X168400000Y-123600000D03*
X173600000Y-123600000D03*
X173600000Y-110500000D03*
D17*
X162500000Y-115580000D03*
X165040000Y-113040000D03*
X162500000Y-110500000D03*
D18*
X153500000Y-119415000D03*
X153500000Y-114585000D03*
X149391436Y-118334953D03*
X150960768Y-120494953D03*
X153500000Y-121320000D03*
X156039232Y-120494953D03*
X157608564Y-118334953D03*
X157608564Y-115665047D03*
X156039232Y-113505047D03*
X153500000Y-112680000D03*
X150960768Y-113505047D03*
X149391436Y-115665047D03*
D17*
X142000000Y-115580000D03*
X144540000Y-113040000D03*
X142000000Y-110500000D03*
D18*
X128000000Y-119415000D03*
X128000000Y-114585000D03*
X123891436Y-118334953D03*
X125460768Y-120494953D03*
X128000000Y-121320000D03*
X130539232Y-120494953D03*
X132108564Y-118334953D03*
X132108564Y-115665047D03*
X130539232Y-113505047D03*
X128000000Y-112680000D03*
X125460768Y-113505047D03*
X123891436Y-115665047D03*
D17*
X173380000Y-100800000D03*
X170840000Y-98260000D03*
X168300000Y-100800000D03*
D18*
X128000000Y-85415000D03*
X128000000Y-80585000D03*
X123891436Y-84334953D03*
X125460768Y-86494953D03*
X128000000Y-87320000D03*
X130539232Y-86494953D03*
X132108564Y-84334953D03*
X132108564Y-81665047D03*
X130539232Y-79505047D03*
X128000000Y-78680000D03*
X125460768Y-79505047D03*
X123891436Y-81665047D03*
D14*
X169000000Y-82900000D03*
X169000000Y-74100000D03*
D11*
X162000000Y-81000000D03*
X162000000Y-78500000D03*
X162000000Y-76000000D03*
D19*
X203900000Y-78000000D03*
X203900000Y-87000000D03*
D20*
X202900000Y-82500000D03*
D21*
X196900000Y-82500000D03*
D17*
X134710000Y-102540000D03*
X137250000Y-100000000D03*
X134710000Y-97460000D03*
D22*
X196300000Y-114960000D03*
X196300000Y-117500000D03*
D23*
X201380000Y-122580000D03*
X201380000Y-112420000D03*
D22*
X103200000Y-115540000D03*
X103200000Y-113000000D03*
D23*
X98120000Y-107920000D03*
X98120000Y-118080000D03*
D22*
X103200000Y-89540000D03*
X103200000Y-87000000D03*
D23*
X98120000Y-81920000D03*
X98120000Y-92080000D03*
D24*
X140000000Y-105500000D03*
X145500000Y-105500000D03*
X128500000Y-71500000D03*
X128500000Y-73500000D03*
X128500000Y-69500000D03*
X158800000Y-105800000D03*
X158800000Y-94200000D03*
X126400000Y-100000000D03*
X128600000Y-100000000D03*
X129800000Y-100000000D03*
X131200000Y-100000000D03*
X131100000Y-108500000D03*
X131000000Y-91300000D03*
X111000000Y-100000000D03*
X107000000Y-109500000D03*
X107000000Y-90500000D03*
X145500000Y-94500000D03*
X140000000Y-94500000D03*
X183000000Y-124100000D03*
X160000000Y-90000000D03*
X148800000Y-90000000D03*
X151000000Y-85400000D03*
X186500000Y-124200000D03*
X174600000Y-115600000D03*
X190500000Y-113100000D03*
X190000000Y-114100000D03*
X187435011Y-70064989D03*
X186600000Y-70400000D03*
X185700000Y-70400000D03*
X179600000Y-73500000D03*
X179600000Y-77800000D03*
X182400000Y-73500000D03*
X182400000Y-77800000D03*
X187000000Y-77300000D03*
X190000000Y-77300000D03*
X128500000Y-126500000D03*
X128500000Y-130500000D03*
X128500000Y-128500000D03*
X154000000Y-96600000D03*
X155100000Y-103200000D03*
X148200000Y-100000000D03*
X149399996Y-100000000D03*
X126400000Y-100000000D03*
X114600000Y-99200000D03*
X140000014Y-97000000D03*
X114600000Y-100800000D03*
X140000000Y-103000000D03*
X143700000Y-106250000D03*
X141800000Y-93750016D03*
X158800000Y-98095000D03*
X186500000Y-120100000D03*
X195300000Y-103900000D03*
X156100000Y-90900000D03*
X178600000Y-115600000D03*
X206000000Y-68500000D03*
X206000000Y-69400000D03*
X187435031Y-71335031D03*
X187500000Y-74400000D03*
X182400000Y-83200000D03*
X179600000Y-83200000D03*
X185224978Y-73275000D03*
X187000000Y-82700000D03*
X186400000Y-99700000D03*
X144550010Y-128050010D03*
X176300000Y-103200000D03*
X206100000Y-102900000D03*
X141800000Y-106250000D03*
X143700000Y-93749970D03*
X109200000Y-104100000D03*
X158800000Y-101905000D03*
X179000000Y-124100000D03*
X186400000Y-104700000D03*
X191300000Y-101900000D03*
X152700000Y-89100000D03*
X186559997Y-113059997D03*
X206000000Y-73900000D03*
X206000000Y-73000000D03*
X195800000Y-68300000D03*
X191300000Y-74400000D03*
X179600000Y-68100000D03*
X182400000Y-68100000D03*
X185224986Y-67524986D03*
X190000000Y-82700000D03*
X171200000Y-103200000D03*
X197200000Y-102900000D03*
X178439989Y-119060011D03*
X153500000Y-108000000D03*
X155300000Y-108000000D03*
X109200000Y-95900000D03*
X142000000Y-133500000D03*
X109200000Y-106900000D03*
X109200000Y-93100000D03*
D25*
X208840001Y-136590000D02*
X140627000Y-136590000D01*
X140627000Y-133393137D01*
X140915000Y-133393137D01*
X140915000Y-133606863D01*
X140956696Y-133816483D01*
X141038485Y-134013940D01*
X141157225Y-134191647D01*
X141308353Y-134342775D01*
X141486060Y-134461515D01*
X141683517Y-134543304D01*
X141893137Y-134585000D01*
X142106863Y-134585000D01*
X142316483Y-134543304D01*
X142513940Y-134461515D01*
X142691647Y-134342775D01*
X142842775Y-134191647D01*
X142961515Y-134013940D01*
X143043304Y-133816483D01*
X143085000Y-133606863D01*
X143085000Y-133393137D01*
X143043304Y-133183517D01*
X142961515Y-132986060D01*
X142842775Y-132808353D01*
X142691647Y-132657225D01*
X142513940Y-132538485D01*
X142316483Y-132456696D01*
X142106863Y-132415000D01*
X141893137Y-132415000D01*
X141683517Y-132456696D01*
X141486060Y-132538485D01*
X141308353Y-132657225D01*
X141157225Y-132808353D01*
X141038485Y-132986060D01*
X140956696Y-133183517D01*
X140915000Y-133393137D01*
X140627000Y-133393137D01*
X140627000Y-115446544D01*
X140645000Y-115446544D01*
X140645000Y-115713456D01*
X140697072Y-115975239D01*
X140799215Y-116221833D01*
X140947503Y-116443762D01*
X141136238Y-116632497D01*
X141358167Y-116780785D01*
X141604761Y-116882928D01*
X141866544Y-116935000D01*
X142133456Y-116935000D01*
X142395239Y-116882928D01*
X142641833Y-116780785D01*
X142863762Y-116632497D01*
X143052497Y-116443762D01*
X143200785Y-116221833D01*
X143302928Y-115975239D01*
X143355000Y-115713456D01*
X143355000Y-115523712D01*
X147956436Y-115523712D01*
X147956436Y-115806382D01*
X148011583Y-116083621D01*
X148119756Y-116344774D01*
X148276799Y-116579806D01*
X148476677Y-116779684D01*
X148711709Y-116936727D01*
X148864464Y-117000000D01*
X148711709Y-117063273D01*
X148476677Y-117220316D01*
X148276799Y-117420194D01*
X148119756Y-117655226D01*
X148011583Y-117916379D01*
X147956436Y-118193618D01*
X147956436Y-118476288D01*
X148011583Y-118753527D01*
X148119756Y-119014680D01*
X148276799Y-119249712D01*
X148476677Y-119449590D01*
X148711709Y-119606633D01*
X148972862Y-119714806D01*
X149250101Y-119769953D01*
X149532771Y-119769953D01*
X149747936Y-119727153D01*
X149689088Y-119815226D01*
X149580915Y-120076379D01*
X149525768Y-120353618D01*
X149525768Y-120636288D01*
X149580915Y-120913527D01*
X149689088Y-121174680D01*
X149846131Y-121409712D01*
X150046009Y-121609590D01*
X150281041Y-121766633D01*
X150542194Y-121874806D01*
X150819433Y-121929953D01*
X151102103Y-121929953D01*
X151379342Y-121874806D01*
X151640495Y-121766633D01*
X151875527Y-121609590D01*
X152065000Y-121420117D01*
X152065000Y-121461335D01*
X152120147Y-121738574D01*
X152228320Y-121999727D01*
X152385363Y-122234759D01*
X152585241Y-122434637D01*
X152820273Y-122591680D01*
X153081426Y-122699853D01*
X153358665Y-122755000D01*
X153641335Y-122755000D01*
X153918574Y-122699853D01*
X154179727Y-122591680D01*
X154414759Y-122434637D01*
X154614637Y-122234759D01*
X154771680Y-121999727D01*
X154879853Y-121738574D01*
X154935000Y-121461335D01*
X154935000Y-121420117D01*
X155124473Y-121609590D01*
X155359505Y-121766633D01*
X155620658Y-121874806D01*
X155897897Y-121929953D01*
X156180567Y-121929953D01*
X156457806Y-121874806D01*
X156718959Y-121766633D01*
X156953991Y-121609590D01*
X157153869Y-121409712D01*
X157310912Y-121174680D01*
X157419085Y-120913527D01*
X157474232Y-120636288D01*
X157474232Y-120353618D01*
X157419085Y-120076379D01*
X157310912Y-119815226D01*
X157252064Y-119727153D01*
X157467229Y-119769953D01*
X157749899Y-119769953D01*
X158027138Y-119714806D01*
X158288291Y-119606633D01*
X158523323Y-119449590D01*
X158723201Y-119249712D01*
X158880244Y-119014680D01*
X158988417Y-118753527D01*
X159043564Y-118476288D01*
X159043564Y-118193618D01*
X158988417Y-117916379D01*
X158880244Y-117655226D01*
X158723201Y-117420194D01*
X158523323Y-117220316D01*
X158288291Y-117063273D01*
X158135536Y-117000000D01*
X158288291Y-116936727D01*
X158523323Y-116779684D01*
X158723201Y-116579806D01*
X158880244Y-116344774D01*
X158988417Y-116083621D01*
X159043564Y-115806382D01*
X159043564Y-115523712D01*
X159028215Y-115446544D01*
X161145000Y-115446544D01*
X161145000Y-115713456D01*
X161197072Y-115975239D01*
X161299215Y-116221833D01*
X161447503Y-116443762D01*
X161636238Y-116632497D01*
X161858167Y-116780785D01*
X162104761Y-116882928D01*
X162366544Y-116935000D01*
X162633456Y-116935000D01*
X162895239Y-116882928D01*
X163141833Y-116780785D01*
X163363762Y-116632497D01*
X163552497Y-116443762D01*
X163700785Y-116221833D01*
X163802928Y-115975239D01*
X163855000Y-115713456D01*
X163855000Y-115446544D01*
X163802928Y-115184761D01*
X163700785Y-114938167D01*
X163552497Y-114716238D01*
X163363762Y-114527503D01*
X163141833Y-114379215D01*
X162895239Y-114277072D01*
X162633456Y-114225000D01*
X162366544Y-114225000D01*
X162104761Y-114277072D01*
X161858167Y-114379215D01*
X161636238Y-114527503D01*
X161447503Y-114716238D01*
X161299215Y-114938167D01*
X161197072Y-115184761D01*
X161145000Y-115446544D01*
X159028215Y-115446544D01*
X158988417Y-115246473D01*
X158880244Y-114985320D01*
X158723201Y-114750288D01*
X158523323Y-114550410D01*
X158288291Y-114393367D01*
X158027138Y-114285194D01*
X157749899Y-114230047D01*
X157467229Y-114230047D01*
X157252064Y-114272847D01*
X157310912Y-114184774D01*
X157419085Y-113923621D01*
X157474232Y-113646382D01*
X157474232Y-113363712D01*
X157419085Y-113086473D01*
X157344557Y-112906544D01*
X163685000Y-112906544D01*
X163685000Y-113173456D01*
X163737072Y-113435239D01*
X163839215Y-113681833D01*
X163987503Y-113903762D01*
X164176238Y-114092497D01*
X164398167Y-114240785D01*
X164644761Y-114342928D01*
X164906544Y-114395000D01*
X165173456Y-114395000D01*
X165435239Y-114342928D01*
X165681833Y-114240785D01*
X165903762Y-114092497D01*
X166092497Y-113903762D01*
X166240785Y-113681833D01*
X166342928Y-113435239D01*
X166395000Y-113173456D01*
X166395000Y-112906544D01*
X166342928Y-112644761D01*
X166240785Y-112398167D01*
X166092497Y-112176238D01*
X165903762Y-111987503D01*
X165681833Y-111839215D01*
X165435239Y-111737072D01*
X165173456Y-111685000D01*
X164906544Y-111685000D01*
X164644761Y-111737072D01*
X164398167Y-111839215D01*
X164176238Y-111987503D01*
X163987503Y-112176238D01*
X163839215Y-112398167D01*
X163737072Y-112644761D01*
X163685000Y-112906544D01*
X157344557Y-112906544D01*
X157310912Y-112825320D01*
X157153869Y-112590288D01*
X156953991Y-112390410D01*
X156718959Y-112233367D01*
X156457806Y-112125194D01*
X156180567Y-112070047D01*
X155897897Y-112070047D01*
X155620658Y-112125194D01*
X155359505Y-112233367D01*
X155124473Y-112390410D01*
X154935000Y-112579883D01*
X154935000Y-112538665D01*
X154879853Y-112261426D01*
X154771680Y-112000273D01*
X154614637Y-111765241D01*
X154414759Y-111565363D01*
X154179727Y-111408320D01*
X153918574Y-111300147D01*
X153641335Y-111245000D01*
X153358665Y-111245000D01*
X153081426Y-111300147D01*
X152820273Y-111408320D01*
X152585241Y-111565363D01*
X152385363Y-111765241D01*
X152228320Y-112000273D01*
X152120147Y-112261426D01*
X152065000Y-112538665D01*
X152065000Y-112579883D01*
X151875527Y-112390410D01*
X151640495Y-112233367D01*
X151379342Y-112125194D01*
X151102103Y-112070047D01*
X150819433Y-112070047D01*
X150542194Y-112125194D01*
X150281041Y-112233367D01*
X150046009Y-112390410D01*
X149846131Y-112590288D01*
X149689088Y-112825320D01*
X149580915Y-113086473D01*
X149525768Y-113363712D01*
X149525768Y-113646382D01*
X149580915Y-113923621D01*
X149689088Y-114184774D01*
X149747936Y-114272847D01*
X149532771Y-114230047D01*
X149250101Y-114230047D01*
X148972862Y-114285194D01*
X148711709Y-114393367D01*
X148476677Y-114550410D01*
X148276799Y-114750288D01*
X148119756Y-114985320D01*
X148011583Y-115246473D01*
X147956436Y-115523712D01*
X143355000Y-115523712D01*
X143355000Y-115446544D01*
X143302928Y-115184761D01*
X143200785Y-114938167D01*
X143052497Y-114716238D01*
X142863762Y-114527503D01*
X142641833Y-114379215D01*
X142395239Y-114277072D01*
X142133456Y-114225000D01*
X141866544Y-114225000D01*
X141604761Y-114277072D01*
X141358167Y-114379215D01*
X141136238Y-114527503D01*
X140947503Y-114716238D01*
X140799215Y-114938167D01*
X140697072Y-115184761D01*
X140645000Y-115446544D01*
X140627000Y-115446544D01*
X140627000Y-112906544D01*
X143185000Y-112906544D01*
X143185000Y-113173456D01*
X143237072Y-113435239D01*
X143339215Y-113681833D01*
X143487503Y-113903762D01*
X143676238Y-114092497D01*
X143898167Y-114240785D01*
X144144761Y-114342928D01*
X144406544Y-114395000D01*
X144673456Y-114395000D01*
X144935239Y-114342928D01*
X145181833Y-114240785D01*
X145403762Y-114092497D01*
X145592497Y-113903762D01*
X145740785Y-113681833D01*
X145842928Y-113435239D01*
X145895000Y-113173456D01*
X145895000Y-112906544D01*
X145842928Y-112644761D01*
X145740785Y-112398167D01*
X145592497Y-112176238D01*
X145403762Y-111987503D01*
X145181833Y-111839215D01*
X144935239Y-111737072D01*
X144673456Y-111685000D01*
X144406544Y-111685000D01*
X144144761Y-111737072D01*
X143898167Y-111839215D01*
X143676238Y-111987503D01*
X143487503Y-112176238D01*
X143339215Y-112398167D01*
X143237072Y-112644761D01*
X143185000Y-112906544D01*
X140627000Y-112906544D01*
X140627000Y-110366544D01*
X140645000Y-110366544D01*
X140645000Y-110633456D01*
X140697072Y-110895239D01*
X140799215Y-111141833D01*
X140947503Y-111363762D01*
X141136238Y-111552497D01*
X141358167Y-111700785D01*
X141604761Y-111802928D01*
X141866544Y-111855000D01*
X142133456Y-111855000D01*
X142395239Y-111802928D01*
X142641833Y-111700785D01*
X142863762Y-111552497D01*
X143052497Y-111363762D01*
X143200785Y-111141833D01*
X143302928Y-110895239D01*
X143355000Y-110633456D01*
X143355000Y-110366544D01*
X161145000Y-110366544D01*
X161145000Y-110633456D01*
X161197072Y-110895239D01*
X161299215Y-111141833D01*
X161447503Y-111363762D01*
X161636238Y-111552497D01*
X161858167Y-111700785D01*
X162104761Y-111802928D01*
X162366544Y-111855000D01*
X162633456Y-111855000D01*
X162895239Y-111802928D01*
X163141833Y-111700785D01*
X163363762Y-111552497D01*
X163552497Y-111363762D01*
X163700785Y-111141833D01*
X163802928Y-110895239D01*
X163855000Y-110633456D01*
X163855000Y-110366544D01*
X163849515Y-110338967D01*
X166765000Y-110338967D01*
X166765000Y-110661033D01*
X166827832Y-110976912D01*
X166951082Y-111274463D01*
X167130013Y-111542252D01*
X167357748Y-111769987D01*
X167625537Y-111948918D01*
X167923088Y-112072168D01*
X168238967Y-112135000D01*
X168561033Y-112135000D01*
X168876912Y-112072168D01*
X169174463Y-111948918D01*
X169442252Y-111769987D01*
X169553860Y-111658379D01*
X169515000Y-111853740D01*
X169515000Y-112146260D01*
X169572068Y-112433158D01*
X169684010Y-112703411D01*
X169846525Y-112946632D01*
X169899893Y-113000000D01*
X169846525Y-113053368D01*
X169684010Y-113296589D01*
X169572068Y-113566842D01*
X169515000Y-113853740D01*
X169515000Y-114146260D01*
X169572068Y-114433158D01*
X169684010Y-114703411D01*
X169846525Y-114946632D01*
X169899893Y-115000000D01*
X169846525Y-115053368D01*
X169684010Y-115296589D01*
X169572068Y-115566842D01*
X169515000Y-115853740D01*
X169515000Y-116146260D01*
X169572068Y-116433158D01*
X169684010Y-116703411D01*
X169846525Y-116946632D01*
X169899893Y-117000000D01*
X169846525Y-117053368D01*
X169684010Y-117296589D01*
X169572068Y-117566842D01*
X169515000Y-117853740D01*
X169515000Y-118146260D01*
X169572068Y-118433158D01*
X169684010Y-118703411D01*
X169846525Y-118946632D01*
X169899893Y-119000000D01*
X169846525Y-119053368D01*
X169684010Y-119296589D01*
X169572068Y-119566842D01*
X169515000Y-119853740D01*
X169515000Y-120146260D01*
X169572068Y-120433158D01*
X169684010Y-120703411D01*
X169846525Y-120946632D01*
X169899893Y-121000000D01*
X169846525Y-121053368D01*
X169684010Y-121296589D01*
X169572068Y-121566842D01*
X169515000Y-121853740D01*
X169515000Y-122146260D01*
X169572068Y-122433158D01*
X169590927Y-122478688D01*
X169442252Y-122330013D01*
X169174463Y-122151082D01*
X168876912Y-122027832D01*
X168561033Y-121965000D01*
X168238967Y-121965000D01*
X167923088Y-122027832D01*
X167625537Y-122151082D01*
X167357748Y-122330013D01*
X167130013Y-122557748D01*
X166951082Y-122825537D01*
X166827832Y-123123088D01*
X166765000Y-123438967D01*
X166765000Y-123761033D01*
X166827832Y-124076912D01*
X166951082Y-124374463D01*
X167130013Y-124642252D01*
X167357748Y-124869987D01*
X167625537Y-125048918D01*
X167923088Y-125172168D01*
X168238967Y-125235000D01*
X168561033Y-125235000D01*
X168876912Y-125172168D01*
X169174463Y-125048918D01*
X169442252Y-124869987D01*
X169669987Y-124642252D01*
X169848918Y-124374463D01*
X169972168Y-124076912D01*
X170035000Y-123761033D01*
X170035000Y-123438967D01*
X169972168Y-123123088D01*
X169936238Y-123036345D01*
X170053368Y-123153475D01*
X170296589Y-123315990D01*
X170566842Y-123427932D01*
X170853740Y-123485000D01*
X171146260Y-123485000D01*
X171433158Y-123427932D01*
X171703411Y-123315990D01*
X171946632Y-123153475D01*
X172063762Y-123036345D01*
X172027832Y-123123088D01*
X171965000Y-123438967D01*
X171965000Y-123761033D01*
X172027832Y-124076912D01*
X172151082Y-124374463D01*
X172330013Y-124642252D01*
X172557748Y-124869987D01*
X172825537Y-125048918D01*
X173123088Y-125172168D01*
X173438967Y-125235000D01*
X173761033Y-125235000D01*
X174076912Y-125172168D01*
X174374463Y-125048918D01*
X174642252Y-124869987D01*
X174869987Y-124642252D01*
X175048918Y-124374463D01*
X175172168Y-124076912D01*
X175188831Y-123993137D01*
X177915000Y-123993137D01*
X177915000Y-124206863D01*
X177956696Y-124416483D01*
X178038485Y-124613940D01*
X178157225Y-124791647D01*
X178308353Y-124942775D01*
X178486060Y-125061515D01*
X178683517Y-125143304D01*
X178893137Y-125185000D01*
X179106863Y-125185000D01*
X179316483Y-125143304D01*
X179513940Y-125061515D01*
X179691647Y-124942775D01*
X179842775Y-124791647D01*
X179961515Y-124613940D01*
X180043304Y-124416483D01*
X180085000Y-124206863D01*
X180085000Y-123993137D01*
X180043304Y-123783517D01*
X179961515Y-123586060D01*
X179842775Y-123408353D01*
X179691647Y-123257225D01*
X179513940Y-123138485D01*
X179316483Y-123056696D01*
X179106863Y-123015000D01*
X178893137Y-123015000D01*
X178683517Y-123056696D01*
X178486060Y-123138485D01*
X178308353Y-123257225D01*
X178157225Y-123408353D01*
X178038485Y-123586060D01*
X177956696Y-123783517D01*
X177915000Y-123993137D01*
X175188831Y-123993137D01*
X175235000Y-123761033D01*
X175235000Y-123438967D01*
X175172168Y-123123088D01*
X175048918Y-122825537D01*
X174869987Y-122557748D01*
X174642252Y-122330013D01*
X174374463Y-122151082D01*
X174076912Y-122027832D01*
X173761033Y-121965000D01*
X173438967Y-121965000D01*
X173123088Y-122027832D01*
X172825537Y-122151082D01*
X172557748Y-122330013D01*
X172409073Y-122478688D01*
X172427932Y-122433158D01*
X172485000Y-122146260D01*
X172485000Y-121853740D01*
X172427932Y-121566842D01*
X172315990Y-121296589D01*
X172153475Y-121053368D01*
X172100107Y-121000000D01*
X172153475Y-120946632D01*
X172315990Y-120703411D01*
X172427932Y-120433158D01*
X172485000Y-120146260D01*
X172485000Y-119853740D01*
X172427932Y-119566842D01*
X172315990Y-119296589D01*
X172153475Y-119053368D01*
X172100107Y-119000000D01*
X172146959Y-118953148D01*
X177354989Y-118953148D01*
X177354989Y-119166874D01*
X177396685Y-119376494D01*
X177478474Y-119573951D01*
X177597214Y-119751658D01*
X177748342Y-119902786D01*
X177926049Y-120021526D01*
X178123506Y-120103315D01*
X178333126Y-120145011D01*
X178546852Y-120145011D01*
X178756472Y-120103315D01*
X178953929Y-120021526D01*
X179131636Y-119902786D01*
X179282764Y-119751658D01*
X179401504Y-119573951D01*
X179449475Y-119458137D01*
X180740000Y-119458137D01*
X180740000Y-119671863D01*
X180781696Y-119881483D01*
X180863485Y-120078940D01*
X180982225Y-120256647D01*
X180990578Y-120265000D01*
X180982225Y-120273353D01*
X180863485Y-120451060D01*
X180781696Y-120648517D01*
X180740000Y-120858137D01*
X180740000Y-121071863D01*
X180781696Y-121281483D01*
X180863485Y-121478940D01*
X180982225Y-121656647D01*
X180990578Y-121665000D01*
X180982225Y-121673353D01*
X180863485Y-121851060D01*
X180781696Y-122048517D01*
X180740000Y-122258137D01*
X180740000Y-122471863D01*
X180781696Y-122681483D01*
X180863485Y-122878940D01*
X180982225Y-123056647D01*
X181133353Y-123207775D01*
X181311060Y-123326515D01*
X181508517Y-123408304D01*
X181718137Y-123450000D01*
X181931863Y-123450000D01*
X182141483Y-123408304D01*
X182168440Y-123397138D01*
X182157225Y-123408353D01*
X182038485Y-123586060D01*
X181956696Y-123783517D01*
X181915000Y-123993137D01*
X181915000Y-124206863D01*
X181956696Y-124416483D01*
X182038485Y-124613940D01*
X182157225Y-124791647D01*
X182308353Y-124942775D01*
X182486060Y-125061515D01*
X182683517Y-125143304D01*
X182893137Y-125185000D01*
X183106863Y-125185000D01*
X183316483Y-125143304D01*
X183513940Y-125061515D01*
X183691647Y-124942775D01*
X183842775Y-124791647D01*
X183961515Y-124613940D01*
X184043304Y-124416483D01*
X184085000Y-124206863D01*
X184085000Y-124093137D01*
X185415000Y-124093137D01*
X185415000Y-124306863D01*
X185456696Y-124516483D01*
X185538485Y-124713940D01*
X185657225Y-124891647D01*
X185808353Y-125042775D01*
X185986060Y-125161515D01*
X186183517Y-125243304D01*
X186393137Y-125285000D01*
X186606863Y-125285000D01*
X186816483Y-125243304D01*
X187013940Y-125161515D01*
X187191647Y-125042775D01*
X187342775Y-124891647D01*
X187461515Y-124713940D01*
X187543304Y-124516483D01*
X187585000Y-124306863D01*
X187585000Y-124093137D01*
X187543304Y-123883517D01*
X187461515Y-123686060D01*
X187342775Y-123508353D01*
X187191647Y-123357225D01*
X187013940Y-123238485D01*
X186816483Y-123156696D01*
X186606863Y-123115000D01*
X186393137Y-123115000D01*
X186183517Y-123156696D01*
X185986060Y-123238485D01*
X185808353Y-123357225D01*
X185657225Y-123508353D01*
X185538485Y-123686060D01*
X185456696Y-123883517D01*
X185415000Y-124093137D01*
X184085000Y-124093137D01*
X184085000Y-123993137D01*
X184043304Y-123783517D01*
X183961515Y-123586060D01*
X183842775Y-123408353D01*
X183752126Y-123317704D01*
X183916647Y-123207775D01*
X184067775Y-123056647D01*
X184186515Y-122878940D01*
X184268304Y-122681483D01*
X184288490Y-122580000D01*
X197233461Y-122580000D01*
X197279510Y-123047542D01*
X197415887Y-123497116D01*
X197637351Y-123911446D01*
X197935391Y-124274609D01*
X198298554Y-124572649D01*
X198712884Y-124794113D01*
X199162458Y-124930490D01*
X199512843Y-124965000D01*
X203247157Y-124965000D01*
X203597542Y-124930490D01*
X204047116Y-124794113D01*
X204461446Y-124572649D01*
X204824609Y-124274609D01*
X205122649Y-123911446D01*
X205344113Y-123497116D01*
X205480490Y-123047542D01*
X205526539Y-122580000D01*
X205480490Y-122112458D01*
X205344113Y-121662884D01*
X205122649Y-121248554D01*
X204824609Y-120885391D01*
X204461446Y-120587351D01*
X204047116Y-120365887D01*
X203597542Y-120229510D01*
X203247157Y-120195000D01*
X199512843Y-120195000D01*
X199162458Y-120229510D01*
X198712884Y-120365887D01*
X198298554Y-120587351D01*
X197935391Y-120885391D01*
X197637351Y-121248554D01*
X197415887Y-121662884D01*
X197279510Y-122112458D01*
X197233461Y-122580000D01*
X184288490Y-122580000D01*
X184310000Y-122471863D01*
X184310000Y-122258137D01*
X184268304Y-122048517D01*
X184186515Y-121851060D01*
X184067775Y-121673353D01*
X184059422Y-121665000D01*
X184067775Y-121656647D01*
X184186515Y-121478940D01*
X184268304Y-121281483D01*
X184310000Y-121071863D01*
X184310000Y-120858137D01*
X184268304Y-120648517D01*
X184186515Y-120451060D01*
X184067775Y-120273353D01*
X184059422Y-120265000D01*
X184067775Y-120256647D01*
X184186515Y-120078940D01*
X184268304Y-119881483D01*
X184310000Y-119671863D01*
X184310000Y-119458137D01*
X184268304Y-119248517D01*
X184186515Y-119051060D01*
X184067775Y-118873353D01*
X183916647Y-118722225D01*
X183738940Y-118603485D01*
X183541483Y-118521696D01*
X183331863Y-118480000D01*
X183118137Y-118480000D01*
X182908517Y-118521696D01*
X182711060Y-118603485D01*
X182533353Y-118722225D01*
X182525000Y-118730578D01*
X182516647Y-118722225D01*
X182338940Y-118603485D01*
X182141483Y-118521696D01*
X181931863Y-118480000D01*
X181718137Y-118480000D01*
X181508517Y-118521696D01*
X181311060Y-118603485D01*
X181133353Y-118722225D01*
X180982225Y-118873353D01*
X180863485Y-119051060D01*
X180781696Y-119248517D01*
X180740000Y-119458137D01*
X179449475Y-119458137D01*
X179483293Y-119376494D01*
X179524989Y-119166874D01*
X179524989Y-118953148D01*
X179483293Y-118743528D01*
X179401504Y-118546071D01*
X179282764Y-118368364D01*
X179131636Y-118217236D01*
X178953929Y-118098496D01*
X178756472Y-118016707D01*
X178546852Y-117975011D01*
X178333126Y-117975011D01*
X178123506Y-118016707D01*
X177926049Y-118098496D01*
X177748342Y-118217236D01*
X177597214Y-118368364D01*
X177478474Y-118546071D01*
X177396685Y-118743528D01*
X177354989Y-118953148D01*
X172146959Y-118953148D01*
X172153475Y-118946632D01*
X172315990Y-118703411D01*
X172427932Y-118433158D01*
X172485000Y-118146260D01*
X172485000Y-117853740D01*
X172427932Y-117566842D01*
X172315990Y-117296589D01*
X172153475Y-117053368D01*
X172100107Y-117000000D01*
X172153475Y-116946632D01*
X172315990Y-116703411D01*
X172427932Y-116433158D01*
X172485000Y-116146260D01*
X172485000Y-115853740D01*
X172427932Y-115566842D01*
X172397403Y-115493137D01*
X173515000Y-115493137D01*
X173515000Y-115706863D01*
X173556696Y-115916483D01*
X173638485Y-116113940D01*
X173757225Y-116291647D01*
X173908353Y-116442775D01*
X174086060Y-116561515D01*
X174283517Y-116643304D01*
X174493137Y-116685000D01*
X174706863Y-116685000D01*
X174916483Y-116643304D01*
X175113940Y-116561515D01*
X175291647Y-116442775D01*
X175442775Y-116291647D01*
X175561515Y-116113940D01*
X175643304Y-115916483D01*
X175685000Y-115706863D01*
X175685000Y-115493137D01*
X175643304Y-115283517D01*
X175561515Y-115086060D01*
X175442775Y-114908353D01*
X175291647Y-114757225D01*
X175113940Y-114638485D01*
X174916483Y-114556696D01*
X174706863Y-114515000D01*
X174493137Y-114515000D01*
X174283517Y-114556696D01*
X174086060Y-114638485D01*
X173908353Y-114757225D01*
X173757225Y-114908353D01*
X173638485Y-115086060D01*
X173556696Y-115283517D01*
X173515000Y-115493137D01*
X172397403Y-115493137D01*
X172315990Y-115296589D01*
X172153475Y-115053368D01*
X172100107Y-115000000D01*
X172153475Y-114946632D01*
X172315990Y-114703411D01*
X172427932Y-114433158D01*
X172485000Y-114146260D01*
X172485000Y-113853740D01*
X172427932Y-113566842D01*
X172315990Y-113296589D01*
X172153475Y-113053368D01*
X172100107Y-113000000D01*
X172146973Y-112953134D01*
X185474997Y-112953134D01*
X185474997Y-113166860D01*
X185516693Y-113376480D01*
X185598482Y-113573937D01*
X185717222Y-113751644D01*
X185868350Y-113902772D01*
X186046057Y-114021512D01*
X186243514Y-114103301D01*
X186453134Y-114144997D01*
X186666860Y-114144997D01*
X186876480Y-114103301D01*
X187073937Y-114021512D01*
X187116403Y-113993137D01*
X188915000Y-113993137D01*
X188915000Y-114206863D01*
X188956696Y-114416483D01*
X189038485Y-114613940D01*
X189157225Y-114791647D01*
X189308353Y-114942775D01*
X189486060Y-115061515D01*
X189683517Y-115143304D01*
X189893137Y-115185000D01*
X190106863Y-115185000D01*
X190316483Y-115143304D01*
X190513940Y-115061515D01*
X190665867Y-114960000D01*
X194408057Y-114960000D01*
X194435764Y-115241309D01*
X194517818Y-115511808D01*
X194651068Y-115761101D01*
X194830392Y-115979608D01*
X195048899Y-116158932D01*
X195181858Y-116230000D01*
X195048899Y-116301068D01*
X194830392Y-116480392D01*
X194651068Y-116698899D01*
X194517818Y-116948192D01*
X194435764Y-117218691D01*
X194408057Y-117500000D01*
X194435764Y-117781309D01*
X194517818Y-118051808D01*
X194651068Y-118301101D01*
X194830392Y-118519608D01*
X195048899Y-118698932D01*
X195298192Y-118832182D01*
X195568691Y-118914236D01*
X195779508Y-118935000D01*
X196820492Y-118935000D01*
X197031309Y-118914236D01*
X197301808Y-118832182D01*
X197551101Y-118698932D01*
X197769608Y-118519608D01*
X197948932Y-118301101D01*
X198082182Y-118051808D01*
X198164236Y-117781309D01*
X198191943Y-117500000D01*
X198164236Y-117218691D01*
X198082182Y-116948192D01*
X197948932Y-116698899D01*
X197769608Y-116480392D01*
X197551101Y-116301068D01*
X197418142Y-116230000D01*
X197551101Y-116158932D01*
X197769608Y-115979608D01*
X197948932Y-115761101D01*
X198082182Y-115511808D01*
X198164236Y-115241309D01*
X198191943Y-114960000D01*
X198164236Y-114678691D01*
X198082182Y-114408192D01*
X197948932Y-114158899D01*
X197769608Y-113940392D01*
X197551101Y-113761068D01*
X197301808Y-113627818D01*
X197031309Y-113545764D01*
X196820492Y-113525000D01*
X195779508Y-113525000D01*
X195568691Y-113545764D01*
X195298192Y-113627818D01*
X195048899Y-113761068D01*
X194830392Y-113940392D01*
X194651068Y-114158899D01*
X194517818Y-114408192D01*
X194435764Y-114678691D01*
X194408057Y-114960000D01*
X190665867Y-114960000D01*
X190691647Y-114942775D01*
X190842775Y-114791647D01*
X190961515Y-114613940D01*
X191043304Y-114416483D01*
X191085000Y-114206863D01*
X191085000Y-114014034D01*
X191191647Y-113942775D01*
X191342775Y-113791647D01*
X191461515Y-113613940D01*
X191543304Y-113416483D01*
X191585000Y-113206863D01*
X191585000Y-112993137D01*
X191543304Y-112783517D01*
X191461515Y-112586060D01*
X191350558Y-112420000D01*
X197233461Y-112420000D01*
X197279510Y-112887542D01*
X197415887Y-113337116D01*
X197637351Y-113751446D01*
X197935391Y-114114609D01*
X198298554Y-114412649D01*
X198712884Y-114634113D01*
X199162458Y-114770490D01*
X199512843Y-114805000D01*
X203247157Y-114805000D01*
X203597542Y-114770490D01*
X204047116Y-114634113D01*
X204461446Y-114412649D01*
X204824609Y-114114609D01*
X205122649Y-113751446D01*
X205344113Y-113337116D01*
X205480490Y-112887542D01*
X205526539Y-112420000D01*
X205480490Y-111952458D01*
X205344113Y-111502884D01*
X205122649Y-111088554D01*
X204824609Y-110725391D01*
X204461446Y-110427351D01*
X204047116Y-110205887D01*
X203597542Y-110069510D01*
X203247157Y-110035000D01*
X199512843Y-110035000D01*
X199162458Y-110069510D01*
X198712884Y-110205887D01*
X198298554Y-110427351D01*
X197935391Y-110725391D01*
X197637351Y-111088554D01*
X197415887Y-111502884D01*
X197279510Y-111952458D01*
X197233461Y-112420000D01*
X191350558Y-112420000D01*
X191342775Y-112408353D01*
X191191647Y-112257225D01*
X191013940Y-112138485D01*
X190816483Y-112056696D01*
X190606863Y-112015000D01*
X190393137Y-112015000D01*
X190183517Y-112056696D01*
X189986060Y-112138485D01*
X189808353Y-112257225D01*
X189657225Y-112408353D01*
X189538485Y-112586060D01*
X189456696Y-112783517D01*
X189415000Y-112993137D01*
X189415000Y-113185966D01*
X189308353Y-113257225D01*
X189157225Y-113408353D01*
X189038485Y-113586060D01*
X188956696Y-113783517D01*
X188915000Y-113993137D01*
X187116403Y-113993137D01*
X187251644Y-113902772D01*
X187402772Y-113751644D01*
X187521512Y-113573937D01*
X187603301Y-113376480D01*
X187644997Y-113166860D01*
X187644997Y-112953134D01*
X187603301Y-112743514D01*
X187521512Y-112546057D01*
X187402772Y-112368350D01*
X187251644Y-112217222D01*
X187073937Y-112098482D01*
X186876480Y-112016693D01*
X186666860Y-111974997D01*
X186453134Y-111974997D01*
X186243514Y-112016693D01*
X186046057Y-112098482D01*
X185868350Y-112217222D01*
X185717222Y-112368350D01*
X185598482Y-112546057D01*
X185516693Y-112743514D01*
X185474997Y-112953134D01*
X172146973Y-112953134D01*
X172153475Y-112946632D01*
X172315990Y-112703411D01*
X172427932Y-112433158D01*
X172485000Y-112146260D01*
X172485000Y-111853740D01*
X172446140Y-111658379D01*
X172557748Y-111769987D01*
X172825537Y-111948918D01*
X173123088Y-112072168D01*
X173438967Y-112135000D01*
X173761033Y-112135000D01*
X174076912Y-112072168D01*
X174374463Y-111948918D01*
X174642252Y-111769987D01*
X174869987Y-111542252D01*
X175048918Y-111274463D01*
X175172168Y-110976912D01*
X175235000Y-110661033D01*
X175235000Y-110338967D01*
X175172168Y-110023088D01*
X175048918Y-109725537D01*
X174869987Y-109457748D01*
X174642252Y-109230013D01*
X174374463Y-109051082D01*
X174076912Y-108927832D01*
X173761033Y-108865000D01*
X173438967Y-108865000D01*
X173123088Y-108927832D01*
X172825537Y-109051082D01*
X172557748Y-109230013D01*
X172330013Y-109457748D01*
X172151082Y-109725537D01*
X172027832Y-110023088D01*
X171965000Y-110338967D01*
X171965000Y-110661033D01*
X172015619Y-110915512D01*
X171946632Y-110846525D01*
X171703411Y-110684010D01*
X171433158Y-110572068D01*
X171146260Y-110515000D01*
X170853740Y-110515000D01*
X170566842Y-110572068D01*
X170296589Y-110684010D01*
X170053368Y-110846525D01*
X169984381Y-110915512D01*
X170035000Y-110661033D01*
X170035000Y-110338967D01*
X169972168Y-110023088D01*
X169848918Y-109725537D01*
X169669987Y-109457748D01*
X169442252Y-109230013D01*
X169174463Y-109051082D01*
X168876912Y-108927832D01*
X168561033Y-108865000D01*
X168238967Y-108865000D01*
X167923088Y-108927832D01*
X167625537Y-109051082D01*
X167357748Y-109230013D01*
X167130013Y-109457748D01*
X166951082Y-109725537D01*
X166827832Y-110023088D01*
X166765000Y-110338967D01*
X163849515Y-110338967D01*
X163802928Y-110104761D01*
X163700785Y-109858167D01*
X163552497Y-109636238D01*
X163363762Y-109447503D01*
X163141833Y-109299215D01*
X162895239Y-109197072D01*
X162633456Y-109145000D01*
X162366544Y-109145000D01*
X162104761Y-109197072D01*
X161858167Y-109299215D01*
X161636238Y-109447503D01*
X161447503Y-109636238D01*
X161299215Y-109858167D01*
X161197072Y-110104761D01*
X161145000Y-110366544D01*
X143355000Y-110366544D01*
X143302928Y-110104761D01*
X143200785Y-109858167D01*
X143052497Y-109636238D01*
X142863762Y-109447503D01*
X142641833Y-109299215D01*
X142395239Y-109197072D01*
X142133456Y-109145000D01*
X141866544Y-109145000D01*
X141604761Y-109197072D01*
X141358167Y-109299215D01*
X141136238Y-109447503D01*
X140947503Y-109636238D01*
X140799215Y-109858167D01*
X140697072Y-110104761D01*
X140645000Y-110366544D01*
X140627000Y-110366544D01*
X140627000Y-107893137D01*
X152415000Y-107893137D01*
X152415000Y-108106863D01*
X152456696Y-108316483D01*
X152538485Y-108513940D01*
X152657225Y-108691647D01*
X152808353Y-108842775D01*
X152986060Y-108961515D01*
X153183517Y-109043304D01*
X153393137Y-109085000D01*
X153606863Y-109085000D01*
X153816483Y-109043304D01*
X154013940Y-108961515D01*
X154191647Y-108842775D01*
X154342775Y-108691647D01*
X154400000Y-108606004D01*
X154457225Y-108691647D01*
X154608353Y-108842775D01*
X154786060Y-108961515D01*
X154983517Y-109043304D01*
X155193137Y-109085000D01*
X155406863Y-109085000D01*
X155616483Y-109043304D01*
X155813940Y-108961515D01*
X155991647Y-108842775D01*
X156142775Y-108691647D01*
X156261515Y-108513940D01*
X156343304Y-108316483D01*
X156385000Y-108106863D01*
X156385000Y-107893137D01*
X156343304Y-107683517D01*
X156261515Y-107486060D01*
X156142775Y-107308353D01*
X155991647Y-107157225D01*
X155813940Y-107038485D01*
X155616483Y-106956696D01*
X155406863Y-106915000D01*
X155193137Y-106915000D01*
X154983517Y-106956696D01*
X154786060Y-107038485D01*
X154608353Y-107157225D01*
X154457225Y-107308353D01*
X154400000Y-107393996D01*
X154342775Y-107308353D01*
X154191647Y-107157225D01*
X154013940Y-107038485D01*
X153816483Y-106956696D01*
X153606863Y-106915000D01*
X153393137Y-106915000D01*
X153183517Y-106956696D01*
X152986060Y-107038485D01*
X152808353Y-107157225D01*
X152657225Y-107308353D01*
X152538485Y-107486060D01*
X152456696Y-107683517D01*
X152415000Y-107893137D01*
X140627000Y-107893137D01*
X140627000Y-106385971D01*
X140691647Y-106342775D01*
X140715000Y-106319422D01*
X140715000Y-106356863D01*
X140756696Y-106566483D01*
X140838485Y-106763940D01*
X140957225Y-106941647D01*
X141108353Y-107092775D01*
X141286060Y-107211515D01*
X141483517Y-107293304D01*
X141693137Y-107335000D01*
X141906863Y-107335000D01*
X142116483Y-107293304D01*
X142313940Y-107211515D01*
X142491647Y-107092775D01*
X142642775Y-106941647D01*
X142761515Y-106763940D01*
X142843304Y-106566483D01*
X142885000Y-106356863D01*
X142885000Y-106143137D01*
X142843304Y-105933517D01*
X142761515Y-105736060D01*
X142642775Y-105558353D01*
X142491647Y-105407225D01*
X142470563Y-105393137D01*
X144415000Y-105393137D01*
X144415000Y-105606863D01*
X144456696Y-105816483D01*
X144538485Y-106013940D01*
X144657225Y-106191647D01*
X144808353Y-106342775D01*
X144986060Y-106461515D01*
X145183517Y-106543304D01*
X145393137Y-106585000D01*
X145606863Y-106585000D01*
X145816483Y-106543304D01*
X146013940Y-106461515D01*
X146191647Y-106342775D01*
X146342775Y-106191647D01*
X146461515Y-106013940D01*
X146543304Y-105816483D01*
X146567839Y-105693137D01*
X157715000Y-105693137D01*
X157715000Y-105906863D01*
X157756696Y-106116483D01*
X157838485Y-106313940D01*
X157957225Y-106491647D01*
X158108353Y-106642775D01*
X158286060Y-106761515D01*
X158483517Y-106843304D01*
X158693137Y-106885000D01*
X158906863Y-106885000D01*
X159116483Y-106843304D01*
X159313940Y-106761515D01*
X159491647Y-106642775D01*
X159642775Y-106491647D01*
X159761515Y-106313940D01*
X159843304Y-106116483D01*
X159885000Y-105906863D01*
X159885000Y-105693137D01*
X159843304Y-105483517D01*
X159761515Y-105286060D01*
X159642775Y-105108353D01*
X159491647Y-104957225D01*
X159313940Y-104838485D01*
X159116483Y-104756696D01*
X158906863Y-104715000D01*
X158693137Y-104715000D01*
X158483517Y-104756696D01*
X158286060Y-104838485D01*
X158108353Y-104957225D01*
X157957225Y-105108353D01*
X157838485Y-105286060D01*
X157756696Y-105483517D01*
X157715000Y-105693137D01*
X146567839Y-105693137D01*
X146585000Y-105606863D01*
X146585000Y-105393137D01*
X146543304Y-105183517D01*
X146461515Y-104986060D01*
X146342775Y-104808353D01*
X146191647Y-104657225D01*
X146095733Y-104593137D01*
X185315000Y-104593137D01*
X185315000Y-104806863D01*
X185356696Y-105016483D01*
X185438485Y-105213940D01*
X185557225Y-105391647D01*
X185708353Y-105542775D01*
X185886060Y-105661515D01*
X186083517Y-105743304D01*
X186293137Y-105785000D01*
X186506863Y-105785000D01*
X186716483Y-105743304D01*
X186913940Y-105661515D01*
X187091647Y-105542775D01*
X187242775Y-105391647D01*
X187361515Y-105213940D01*
X187443304Y-105016483D01*
X187485000Y-104806863D01*
X187485000Y-104593137D01*
X187443304Y-104383517D01*
X187361515Y-104186060D01*
X187242775Y-104008353D01*
X187091647Y-103857225D01*
X186913940Y-103738485D01*
X186716483Y-103656696D01*
X186506863Y-103615000D01*
X186293137Y-103615000D01*
X186083517Y-103656696D01*
X185886060Y-103738485D01*
X185708353Y-103857225D01*
X185557225Y-104008353D01*
X185438485Y-104186060D01*
X185356696Y-104383517D01*
X185315000Y-104593137D01*
X146095733Y-104593137D01*
X146013940Y-104538485D01*
X145816483Y-104456696D01*
X145606863Y-104415000D01*
X145393137Y-104415000D01*
X145183517Y-104456696D01*
X144986060Y-104538485D01*
X144808353Y-104657225D01*
X144657225Y-104808353D01*
X144538485Y-104986060D01*
X144456696Y-105183517D01*
X144415000Y-105393137D01*
X142470563Y-105393137D01*
X142313940Y-105288485D01*
X142116483Y-105206696D01*
X141906863Y-105165000D01*
X141693137Y-105165000D01*
X141483517Y-105206696D01*
X141286060Y-105288485D01*
X141108353Y-105407225D01*
X141085000Y-105430578D01*
X141085000Y-105393137D01*
X141043304Y-105183517D01*
X140961515Y-104986060D01*
X140842775Y-104808353D01*
X140691647Y-104657225D01*
X140627000Y-104614029D01*
X140627000Y-103885971D01*
X140691647Y-103842775D01*
X140807422Y-103727000D01*
X149700000Y-103727000D01*
X149724776Y-103724560D01*
X149748601Y-103717333D01*
X149770557Y-103705597D01*
X149789803Y-103689803D01*
X150386469Y-103093137D01*
X154015000Y-103093137D01*
X154015000Y-103306863D01*
X154056696Y-103516483D01*
X154138485Y-103713940D01*
X154257225Y-103891647D01*
X154408353Y-104042775D01*
X154586060Y-104161515D01*
X154783517Y-104243304D01*
X154993137Y-104285000D01*
X155206863Y-104285000D01*
X155416483Y-104243304D01*
X155613940Y-104161515D01*
X155791647Y-104042775D01*
X155942775Y-103891647D01*
X156061515Y-103713940D01*
X156143304Y-103516483D01*
X156185000Y-103306863D01*
X156185000Y-103093137D01*
X170115000Y-103093137D01*
X170115000Y-103306863D01*
X170156696Y-103516483D01*
X170238485Y-103713940D01*
X170357225Y-103891647D01*
X170508353Y-104042775D01*
X170686060Y-104161515D01*
X170883517Y-104243304D01*
X171093137Y-104285000D01*
X171306863Y-104285000D01*
X171516483Y-104243304D01*
X171713940Y-104161515D01*
X171891647Y-104042775D01*
X172042775Y-103891647D01*
X172161515Y-103713940D01*
X172243304Y-103516483D01*
X172285000Y-103306863D01*
X172285000Y-103093137D01*
X172243304Y-102883517D01*
X172161515Y-102686060D01*
X172042775Y-102508353D01*
X171891647Y-102357225D01*
X171713940Y-102238485D01*
X171516483Y-102156696D01*
X171306863Y-102115000D01*
X171093137Y-102115000D01*
X170883517Y-102156696D01*
X170686060Y-102238485D01*
X170508353Y-102357225D01*
X170357225Y-102508353D01*
X170238485Y-102686060D01*
X170156696Y-102883517D01*
X170115000Y-103093137D01*
X156185000Y-103093137D01*
X156143304Y-102883517D01*
X156061515Y-102686060D01*
X155942775Y-102508353D01*
X155791647Y-102357225D01*
X155613940Y-102238485D01*
X155416483Y-102156696D01*
X155206863Y-102115000D01*
X154993137Y-102115000D01*
X154783517Y-102156696D01*
X154586060Y-102238485D01*
X154408353Y-102357225D01*
X154257225Y-102508353D01*
X154138485Y-102686060D01*
X154056696Y-102883517D01*
X154015000Y-103093137D01*
X150386469Y-103093137D01*
X150752606Y-102727000D01*
X153200000Y-102727000D01*
X153224776Y-102724560D01*
X153248601Y-102717333D01*
X153270557Y-102705597D01*
X153289803Y-102689803D01*
X153305597Y-102670557D01*
X153317333Y-102648601D01*
X153324560Y-102624776D01*
X153327000Y-102600000D01*
X153327000Y-101798137D01*
X157715000Y-101798137D01*
X157715000Y-102011863D01*
X157756696Y-102221483D01*
X157838485Y-102418940D01*
X157957225Y-102596647D01*
X158108353Y-102747775D01*
X158286060Y-102866515D01*
X158483517Y-102948304D01*
X158693137Y-102990000D01*
X158906863Y-102990000D01*
X159116483Y-102948304D01*
X159313940Y-102866515D01*
X159491647Y-102747775D01*
X159642775Y-102596647D01*
X159761515Y-102418940D01*
X159843304Y-102221483D01*
X159885000Y-102011863D01*
X159885000Y-101798137D01*
X159843304Y-101588517D01*
X159761515Y-101391060D01*
X159642775Y-101213353D01*
X159491647Y-101062225D01*
X159313940Y-100943485D01*
X159116483Y-100861696D01*
X158906863Y-100820000D01*
X158693137Y-100820000D01*
X158483517Y-100861696D01*
X158286060Y-100943485D01*
X158108353Y-101062225D01*
X157957225Y-101213353D01*
X157838485Y-101391060D01*
X157756696Y-101588517D01*
X157715000Y-101798137D01*
X153327000Y-101798137D01*
X153327000Y-101400000D01*
X153324560Y-101375224D01*
X153317333Y-101351399D01*
X153305597Y-101329443D01*
X153289803Y-101310197D01*
X153270557Y-101294403D01*
X153248601Y-101282667D01*
X153224776Y-101275440D01*
X153200000Y-101273000D01*
X150700000Y-101273000D01*
X150675224Y-101275440D01*
X150651399Y-101282667D01*
X150629443Y-101294403D01*
X150610197Y-101310197D01*
X149847394Y-102073000D01*
X148052606Y-102073000D01*
X147727000Y-101747394D01*
X147727000Y-100978473D01*
X147883517Y-101043304D01*
X148093137Y-101085000D01*
X148306863Y-101085000D01*
X148516483Y-101043304D01*
X148713940Y-100961515D01*
X148799998Y-100904013D01*
X148886056Y-100961515D01*
X149083513Y-101043304D01*
X149293133Y-101085000D01*
X149506859Y-101085000D01*
X149716479Y-101043304D01*
X149913936Y-100961515D01*
X150091643Y-100842775D01*
X150242771Y-100691647D01*
X150259544Y-100666544D01*
X166945000Y-100666544D01*
X166945000Y-100933456D01*
X166997072Y-101195239D01*
X167099215Y-101441833D01*
X167247503Y-101663762D01*
X167436238Y-101852497D01*
X167658167Y-102000785D01*
X167904761Y-102102928D01*
X168166544Y-102155000D01*
X168433456Y-102155000D01*
X168695239Y-102102928D01*
X168941833Y-102000785D01*
X169163762Y-101852497D01*
X169352497Y-101663762D01*
X169500785Y-101441833D01*
X169602928Y-101195239D01*
X169655000Y-100933456D01*
X169655000Y-100666544D01*
X172025000Y-100666544D01*
X172025000Y-100933456D01*
X172077072Y-101195239D01*
X172179215Y-101441833D01*
X172327503Y-101663762D01*
X172516238Y-101852497D01*
X172738167Y-102000785D01*
X172984761Y-102102928D01*
X173246544Y-102155000D01*
X173513456Y-102155000D01*
X173775239Y-102102928D01*
X174021833Y-102000785D01*
X174243762Y-101852497D01*
X174303122Y-101793137D01*
X190215000Y-101793137D01*
X190215000Y-102006863D01*
X190256696Y-102216483D01*
X190338485Y-102413940D01*
X190457225Y-102591647D01*
X190608353Y-102742775D01*
X190786060Y-102861515D01*
X190983517Y-102943304D01*
X191193137Y-102985000D01*
X191406863Y-102985000D01*
X191616483Y-102943304D01*
X191813940Y-102861515D01*
X191916274Y-102793137D01*
X196115000Y-102793137D01*
X196115000Y-103006863D01*
X196156696Y-103216483D01*
X196238485Y-103413940D01*
X196357225Y-103591647D01*
X196508353Y-103742775D01*
X196686060Y-103861515D01*
X196883517Y-103943304D01*
X197093137Y-103985000D01*
X197306863Y-103985000D01*
X197516483Y-103943304D01*
X197713940Y-103861515D01*
X197891647Y-103742775D01*
X198042775Y-103591647D01*
X198161515Y-103413940D01*
X198243304Y-103216483D01*
X198285000Y-103006863D01*
X198285000Y-102793137D01*
X198243304Y-102583517D01*
X198161515Y-102386060D01*
X198042775Y-102208353D01*
X197891647Y-102057225D01*
X197713940Y-101938485D01*
X197516483Y-101856696D01*
X197306863Y-101815000D01*
X197093137Y-101815000D01*
X196883517Y-101856696D01*
X196686060Y-101938485D01*
X196508353Y-102057225D01*
X196357225Y-102208353D01*
X196238485Y-102386060D01*
X196156696Y-102583517D01*
X196115000Y-102793137D01*
X191916274Y-102793137D01*
X191991647Y-102742775D01*
X192142775Y-102591647D01*
X192261515Y-102413940D01*
X192343304Y-102216483D01*
X192385000Y-102006863D01*
X192385000Y-101793137D01*
X192343304Y-101583517D01*
X192261515Y-101386060D01*
X192142775Y-101208353D01*
X191991647Y-101057225D01*
X191813940Y-100938485D01*
X191616483Y-100856696D01*
X191406863Y-100815000D01*
X191193137Y-100815000D01*
X190983517Y-100856696D01*
X190786060Y-100938485D01*
X190608353Y-101057225D01*
X190457225Y-101208353D01*
X190338485Y-101386060D01*
X190256696Y-101583517D01*
X190215000Y-101793137D01*
X174303122Y-101793137D01*
X174432497Y-101663762D01*
X174580785Y-101441833D01*
X174682928Y-101195239D01*
X174735000Y-100933456D01*
X174735000Y-100666544D01*
X174682928Y-100404761D01*
X174580785Y-100158167D01*
X174432497Y-99936238D01*
X174243762Y-99747503D01*
X174021833Y-99599215D01*
X173775239Y-99497072D01*
X173513456Y-99445000D01*
X173246544Y-99445000D01*
X172984761Y-99497072D01*
X172738167Y-99599215D01*
X172516238Y-99747503D01*
X172327503Y-99936238D01*
X172179215Y-100158167D01*
X172077072Y-100404761D01*
X172025000Y-100666544D01*
X169655000Y-100666544D01*
X169602928Y-100404761D01*
X169500785Y-100158167D01*
X169352497Y-99936238D01*
X169163762Y-99747503D01*
X168941833Y-99599215D01*
X168695239Y-99497072D01*
X168433456Y-99445000D01*
X168166544Y-99445000D01*
X167904761Y-99497072D01*
X167658167Y-99599215D01*
X167436238Y-99747503D01*
X167247503Y-99936238D01*
X167099215Y-100158167D01*
X166997072Y-100404761D01*
X166945000Y-100666544D01*
X150259544Y-100666544D01*
X150361511Y-100513940D01*
X150443300Y-100316483D01*
X150484996Y-100106863D01*
X150484996Y-99893137D01*
X150443300Y-99683517D01*
X150361511Y-99486060D01*
X150242771Y-99308353D01*
X150091643Y-99157225D01*
X149913936Y-99038485D01*
X149716479Y-98956696D01*
X149506859Y-98915000D01*
X149293133Y-98915000D01*
X149083513Y-98956696D01*
X148886056Y-99038485D01*
X148799998Y-99095987D01*
X148713940Y-99038485D01*
X148516483Y-98956696D01*
X148306863Y-98915000D01*
X148093137Y-98915000D01*
X147883517Y-98956696D01*
X147727000Y-99021527D01*
X147727000Y-97927000D01*
X149747394Y-97927000D01*
X150510197Y-98689803D01*
X150529443Y-98705597D01*
X150551399Y-98717333D01*
X150575224Y-98724560D01*
X150600000Y-98727000D01*
X153200000Y-98727000D01*
X153224776Y-98724560D01*
X153248601Y-98717333D01*
X153270557Y-98705597D01*
X153289803Y-98689803D01*
X153305597Y-98670557D01*
X153317333Y-98648601D01*
X153324560Y-98624776D01*
X153327000Y-98600000D01*
X153327000Y-98126544D01*
X169485000Y-98126544D01*
X169485000Y-98393456D01*
X169537072Y-98655239D01*
X169639215Y-98901833D01*
X169787503Y-99123762D01*
X169976238Y-99312497D01*
X170198167Y-99460785D01*
X170444761Y-99562928D01*
X170706544Y-99615000D01*
X170973456Y-99615000D01*
X171235239Y-99562928D01*
X171481833Y-99460785D01*
X171703762Y-99312497D01*
X171892497Y-99123762D01*
X171908374Y-99100000D01*
X199261928Y-99100000D01*
X199261928Y-100900000D01*
X199274188Y-101024482D01*
X199310498Y-101144180D01*
X199369463Y-101254494D01*
X199448815Y-101351185D01*
X199545506Y-101430537D01*
X199655820Y-101489502D01*
X199775518Y-101525812D01*
X199900000Y-101538072D01*
X201700000Y-101538072D01*
X201824482Y-101525812D01*
X201944180Y-101489502D01*
X202054494Y-101430537D01*
X202151185Y-101351185D01*
X202230537Y-101254494D01*
X202289502Y-101144180D01*
X202295056Y-101125873D01*
X202361495Y-101192312D01*
X202612905Y-101360299D01*
X202892257Y-101476011D01*
X203188816Y-101535000D01*
X203491184Y-101535000D01*
X203787743Y-101476011D01*
X204067095Y-101360299D01*
X204318505Y-101192312D01*
X204532312Y-100978505D01*
X204700299Y-100727095D01*
X204816011Y-100447743D01*
X204875000Y-100151184D01*
X204875000Y-99848816D01*
X204816011Y-99552257D01*
X204700299Y-99272905D01*
X204532312Y-99021495D01*
X204318505Y-98807688D01*
X204067095Y-98639701D01*
X203787743Y-98523989D01*
X203491184Y-98465000D01*
X203188816Y-98465000D01*
X202892257Y-98523989D01*
X202612905Y-98639701D01*
X202361495Y-98807688D01*
X202295056Y-98874127D01*
X202289502Y-98855820D01*
X202230537Y-98745506D01*
X202151185Y-98648815D01*
X202054494Y-98569463D01*
X201944180Y-98510498D01*
X201824482Y-98474188D01*
X201700000Y-98461928D01*
X199900000Y-98461928D01*
X199775518Y-98474188D01*
X199655820Y-98510498D01*
X199545506Y-98569463D01*
X199448815Y-98648815D01*
X199369463Y-98745506D01*
X199310498Y-98855820D01*
X199274188Y-98975518D01*
X199261928Y-99100000D01*
X171908374Y-99100000D01*
X172040785Y-98901833D01*
X172142928Y-98655239D01*
X172195000Y-98393456D01*
X172195000Y-98126544D01*
X172142928Y-97864761D01*
X172040785Y-97618167D01*
X171892497Y-97396238D01*
X171703762Y-97207503D01*
X171481833Y-97059215D01*
X171235239Y-96957072D01*
X170973456Y-96905000D01*
X170706544Y-96905000D01*
X170444761Y-96957072D01*
X170198167Y-97059215D01*
X169976238Y-97207503D01*
X169787503Y-97396238D01*
X169639215Y-97618167D01*
X169537072Y-97864761D01*
X169485000Y-98126544D01*
X153327000Y-98126544D01*
X153327000Y-97455235D01*
X153486060Y-97561515D01*
X153683517Y-97643304D01*
X153893137Y-97685000D01*
X154106863Y-97685000D01*
X154316483Y-97643304D01*
X154513940Y-97561515D01*
X154691647Y-97442775D01*
X154842775Y-97291647D01*
X154961515Y-97113940D01*
X155043304Y-96916483D01*
X155085000Y-96706863D01*
X155085000Y-96493137D01*
X155043304Y-96283517D01*
X154961515Y-96086060D01*
X154842775Y-95908353D01*
X154691647Y-95757225D01*
X154513940Y-95638485D01*
X154316483Y-95556696D01*
X154106863Y-95515000D01*
X153893137Y-95515000D01*
X153683517Y-95556696D01*
X153486060Y-95638485D01*
X153308353Y-95757225D01*
X153157225Y-95908353D01*
X153038485Y-96086060D01*
X152956696Y-96283517D01*
X152915000Y-96493137D01*
X152915000Y-96706863D01*
X152956696Y-96916483D01*
X153038485Y-97113940D01*
X153144765Y-97273000D01*
X150652606Y-97273000D01*
X149689803Y-96310197D01*
X149670557Y-96294403D01*
X149648601Y-96282667D01*
X149624776Y-96275440D01*
X149600000Y-96273000D01*
X140807436Y-96273000D01*
X140691661Y-96157225D01*
X140627000Y-96114020D01*
X140627000Y-95385971D01*
X140691647Y-95342775D01*
X140842775Y-95191647D01*
X140961515Y-95013940D01*
X141043304Y-94816483D01*
X141085000Y-94606863D01*
X141085000Y-94393137D01*
X141043304Y-94183517D01*
X140961515Y-93986060D01*
X140842775Y-93808353D01*
X140691647Y-93657225D01*
X140670519Y-93643107D01*
X142615000Y-93643107D01*
X142615000Y-93856833D01*
X142656696Y-94066453D01*
X142738485Y-94263910D01*
X142857225Y-94441617D01*
X143008353Y-94592745D01*
X143186060Y-94711485D01*
X143383517Y-94793274D01*
X143593137Y-94834970D01*
X143806863Y-94834970D01*
X144016483Y-94793274D01*
X144213940Y-94711485D01*
X144391647Y-94592745D01*
X144415000Y-94569392D01*
X144415000Y-94606863D01*
X144456696Y-94816483D01*
X144538485Y-95013940D01*
X144657225Y-95191647D01*
X144808353Y-95342775D01*
X144986060Y-95461515D01*
X145183517Y-95543304D01*
X145393137Y-95585000D01*
X145606863Y-95585000D01*
X145816483Y-95543304D01*
X146013940Y-95461515D01*
X146191647Y-95342775D01*
X146342775Y-95191647D01*
X146461515Y-95013940D01*
X146543304Y-94816483D01*
X146585000Y-94606863D01*
X146585000Y-94393137D01*
X146543304Y-94183517D01*
X146505868Y-94093137D01*
X157715000Y-94093137D01*
X157715000Y-94306863D01*
X157756696Y-94516483D01*
X157838485Y-94713940D01*
X157957225Y-94891647D01*
X158108353Y-95042775D01*
X158286060Y-95161515D01*
X158483517Y-95243304D01*
X158693137Y-95285000D01*
X158906863Y-95285000D01*
X159116483Y-95243304D01*
X159313940Y-95161515D01*
X159491647Y-95042775D01*
X159642775Y-94891647D01*
X159761515Y-94713940D01*
X159843304Y-94516483D01*
X159885000Y-94306863D01*
X159885000Y-94093137D01*
X159843304Y-93883517D01*
X159761515Y-93686060D01*
X159642775Y-93508353D01*
X159491647Y-93357225D01*
X159313940Y-93238485D01*
X159116483Y-93156696D01*
X158906863Y-93115000D01*
X158693137Y-93115000D01*
X158483517Y-93156696D01*
X158286060Y-93238485D01*
X158108353Y-93357225D01*
X157957225Y-93508353D01*
X157838485Y-93686060D01*
X157756696Y-93883517D01*
X157715000Y-94093137D01*
X146505868Y-94093137D01*
X146461515Y-93986060D01*
X146342775Y-93808353D01*
X146191647Y-93657225D01*
X146013940Y-93538485D01*
X145816483Y-93456696D01*
X145606863Y-93415000D01*
X145393137Y-93415000D01*
X145183517Y-93456696D01*
X144986060Y-93538485D01*
X144808353Y-93657225D01*
X144785000Y-93680578D01*
X144785000Y-93643107D01*
X144743304Y-93433487D01*
X144661515Y-93236030D01*
X144542775Y-93058323D01*
X144391647Y-92907195D01*
X144213940Y-92788455D01*
X144016483Y-92706666D01*
X143806863Y-92664970D01*
X143593137Y-92664970D01*
X143383517Y-92706666D01*
X143186060Y-92788455D01*
X143008353Y-92907195D01*
X142857225Y-93058323D01*
X142738485Y-93236030D01*
X142656696Y-93433487D01*
X142615000Y-93643107D01*
X140670519Y-93643107D01*
X140627000Y-93614029D01*
X140627000Y-89893137D01*
X147715000Y-89893137D01*
X147715000Y-90106863D01*
X147756696Y-90316483D01*
X147838485Y-90513940D01*
X147957225Y-90691647D01*
X148108353Y-90842775D01*
X148286060Y-90961515D01*
X148483517Y-91043304D01*
X148693137Y-91085000D01*
X148906863Y-91085000D01*
X149116483Y-91043304D01*
X149313940Y-90961515D01*
X149491647Y-90842775D01*
X149642775Y-90691647D01*
X149761515Y-90513940D01*
X149843304Y-90316483D01*
X149885000Y-90106863D01*
X149885000Y-89893137D01*
X149843304Y-89683517D01*
X149761515Y-89486060D01*
X149642775Y-89308353D01*
X149491647Y-89157225D01*
X149313940Y-89038485D01*
X149204460Y-88993137D01*
X151615000Y-88993137D01*
X151615000Y-89206863D01*
X151656696Y-89416483D01*
X151738485Y-89613940D01*
X151857225Y-89791647D01*
X152008353Y-89942775D01*
X152186060Y-90061515D01*
X152383517Y-90143304D01*
X152593137Y-90185000D01*
X152806863Y-90185000D01*
X153016483Y-90143304D01*
X153213940Y-90061515D01*
X153391647Y-89942775D01*
X153441285Y-89893137D01*
X158915000Y-89893137D01*
X158915000Y-90106863D01*
X158956696Y-90316483D01*
X159038485Y-90513940D01*
X159157225Y-90691647D01*
X159308353Y-90842775D01*
X159486060Y-90961515D01*
X159683517Y-91043304D01*
X159893137Y-91085000D01*
X160106863Y-91085000D01*
X160316483Y-91043304D01*
X160513940Y-90961515D01*
X160691647Y-90842775D01*
X160842775Y-90691647D01*
X160961515Y-90513940D01*
X160973053Y-90486085D01*
X161051082Y-90674463D01*
X161230013Y-90942252D01*
X161457748Y-91169987D01*
X161725537Y-91348918D01*
X162023088Y-91472168D01*
X162338967Y-91535000D01*
X162661033Y-91535000D01*
X162915512Y-91484381D01*
X162846525Y-91553368D01*
X162684010Y-91796589D01*
X162572068Y-92066842D01*
X162515000Y-92353740D01*
X162515000Y-92646260D01*
X162572068Y-92933158D01*
X162684010Y-93203411D01*
X162846525Y-93446632D01*
X162915512Y-93515619D01*
X162661033Y-93465000D01*
X162338967Y-93465000D01*
X162023088Y-93527832D01*
X161725537Y-93651082D01*
X161457748Y-93830013D01*
X161230013Y-94057748D01*
X161051082Y-94325537D01*
X160927832Y-94623088D01*
X160865000Y-94938967D01*
X160865000Y-95261033D01*
X160927832Y-95576912D01*
X161051082Y-95874463D01*
X161230013Y-96142252D01*
X161457748Y-96369987D01*
X161725537Y-96548918D01*
X162023088Y-96672168D01*
X162338967Y-96735000D01*
X162661033Y-96735000D01*
X162976912Y-96672168D01*
X163274463Y-96548918D01*
X163542252Y-96369987D01*
X163769987Y-96142252D01*
X163948918Y-95874463D01*
X164072168Y-95576912D01*
X164135000Y-95261033D01*
X164135000Y-94938967D01*
X164072168Y-94623088D01*
X163948918Y-94325537D01*
X163769987Y-94057748D01*
X163658379Y-93946140D01*
X163853740Y-93985000D01*
X164146260Y-93985000D01*
X164433158Y-93927932D01*
X164703411Y-93815990D01*
X164946632Y-93653475D01*
X165000000Y-93600107D01*
X165053368Y-93653475D01*
X165296589Y-93815990D01*
X165566842Y-93927932D01*
X165853740Y-93985000D01*
X166146260Y-93985000D01*
X166433158Y-93927932D01*
X166703411Y-93815990D01*
X166946632Y-93653475D01*
X167000000Y-93600107D01*
X167053368Y-93653475D01*
X167296589Y-93815990D01*
X167566842Y-93927932D01*
X167853740Y-93985000D01*
X168146260Y-93985000D01*
X168433158Y-93927932D01*
X168703411Y-93815990D01*
X168946632Y-93653475D01*
X169000000Y-93600107D01*
X169053368Y-93653475D01*
X169296589Y-93815990D01*
X169566842Y-93927932D01*
X169853740Y-93985000D01*
X170146260Y-93985000D01*
X170433158Y-93927932D01*
X170703411Y-93815990D01*
X170946632Y-93653475D01*
X171000000Y-93600107D01*
X171053368Y-93653475D01*
X171296589Y-93815990D01*
X171566842Y-93927932D01*
X171853740Y-93985000D01*
X172146260Y-93985000D01*
X172433158Y-93927932D01*
X172703411Y-93815990D01*
X172946632Y-93653475D01*
X173000000Y-93600107D01*
X173053368Y-93653475D01*
X173296589Y-93815990D01*
X173566842Y-93927932D01*
X173853740Y-93985000D01*
X174146260Y-93985000D01*
X174433158Y-93927932D01*
X174478688Y-93909073D01*
X174330013Y-94057748D01*
X174151082Y-94325537D01*
X174027832Y-94623088D01*
X173965000Y-94938967D01*
X173965000Y-95261033D01*
X174027832Y-95576912D01*
X174151082Y-95874463D01*
X174330013Y-96142252D01*
X174557748Y-96369987D01*
X174825537Y-96548918D01*
X175123088Y-96672168D01*
X175438967Y-96735000D01*
X175761033Y-96735000D01*
X176076912Y-96672168D01*
X176374463Y-96548918D01*
X176642252Y-96369987D01*
X176869987Y-96142252D01*
X177048918Y-95874463D01*
X177172168Y-95576912D01*
X177235000Y-95261033D01*
X177235000Y-94938967D01*
X177172168Y-94623088D01*
X177048918Y-94325537D01*
X176869987Y-94057748D01*
X176642252Y-93830013D01*
X176374463Y-93651082D01*
X176076912Y-93527832D01*
X175761033Y-93465000D01*
X175438967Y-93465000D01*
X175123088Y-93527832D01*
X175036345Y-93563762D01*
X175153475Y-93446632D01*
X175315990Y-93203411D01*
X175427932Y-92933158D01*
X175485000Y-92646260D01*
X175485000Y-92353740D01*
X175427932Y-92066842D01*
X175315990Y-91796589D01*
X175153475Y-91553368D01*
X175036345Y-91436238D01*
X175123088Y-91472168D01*
X175438967Y-91535000D01*
X175761033Y-91535000D01*
X176076912Y-91472168D01*
X176374463Y-91348918D01*
X176642252Y-91169987D01*
X176869987Y-90942252D01*
X177048918Y-90674463D01*
X177172168Y-90376912D01*
X177235000Y-90061033D01*
X177235000Y-89738967D01*
X177172168Y-89423088D01*
X177048918Y-89125537D01*
X176869987Y-88857748D01*
X176642252Y-88630013D01*
X176374463Y-88451082D01*
X176076912Y-88327832D01*
X175761033Y-88265000D01*
X175438967Y-88265000D01*
X175123088Y-88327832D01*
X174825537Y-88451082D01*
X174557748Y-88630013D01*
X174330013Y-88857748D01*
X174151082Y-89125537D01*
X174027832Y-89423088D01*
X173965000Y-89738967D01*
X173965000Y-90061033D01*
X174027832Y-90376912D01*
X174151082Y-90674463D01*
X174330013Y-90942252D01*
X174478688Y-91090927D01*
X174433158Y-91072068D01*
X174146260Y-91015000D01*
X173853740Y-91015000D01*
X173566842Y-91072068D01*
X173296589Y-91184010D01*
X173053368Y-91346525D01*
X173000000Y-91399893D01*
X172946632Y-91346525D01*
X172703411Y-91184010D01*
X172433158Y-91072068D01*
X172146260Y-91015000D01*
X171853740Y-91015000D01*
X171566842Y-91072068D01*
X171296589Y-91184010D01*
X171053368Y-91346525D01*
X171000000Y-91399893D01*
X170946632Y-91346525D01*
X170703411Y-91184010D01*
X170433158Y-91072068D01*
X170146260Y-91015000D01*
X169853740Y-91015000D01*
X169566842Y-91072068D01*
X169296589Y-91184010D01*
X169053368Y-91346525D01*
X169000000Y-91399893D01*
X168946632Y-91346525D01*
X168703411Y-91184010D01*
X168433158Y-91072068D01*
X168146260Y-91015000D01*
X167853740Y-91015000D01*
X167566842Y-91072068D01*
X167296589Y-91184010D01*
X167053368Y-91346525D01*
X167000000Y-91399893D01*
X166946632Y-91346525D01*
X166703411Y-91184010D01*
X166433158Y-91072068D01*
X166146260Y-91015000D01*
X165853740Y-91015000D01*
X165566842Y-91072068D01*
X165296589Y-91184010D01*
X165053368Y-91346525D01*
X165000000Y-91399893D01*
X164946632Y-91346525D01*
X164703411Y-91184010D01*
X164433158Y-91072068D01*
X164146260Y-91015000D01*
X163853740Y-91015000D01*
X163658379Y-91053860D01*
X163769987Y-90942252D01*
X163948918Y-90674463D01*
X164072168Y-90376912D01*
X164135000Y-90061033D01*
X164135000Y-89738967D01*
X164072168Y-89423088D01*
X163948918Y-89125537D01*
X163769987Y-88857748D01*
X163542252Y-88630013D01*
X163274463Y-88451082D01*
X162976912Y-88327832D01*
X162661033Y-88265000D01*
X162338967Y-88265000D01*
X162023088Y-88327832D01*
X161725537Y-88451082D01*
X161457748Y-88630013D01*
X161230013Y-88857748D01*
X161051082Y-89125537D01*
X160927832Y-89423088D01*
X160925907Y-89432768D01*
X160842775Y-89308353D01*
X160691647Y-89157225D01*
X160513940Y-89038485D01*
X160316483Y-88956696D01*
X160106863Y-88915000D01*
X159893137Y-88915000D01*
X159683517Y-88956696D01*
X159486060Y-89038485D01*
X159308353Y-89157225D01*
X159157225Y-89308353D01*
X159038485Y-89486060D01*
X158956696Y-89683517D01*
X158915000Y-89893137D01*
X153441285Y-89893137D01*
X153542775Y-89791647D01*
X153661515Y-89613940D01*
X153743304Y-89416483D01*
X153785000Y-89206863D01*
X153785000Y-88993137D01*
X153743304Y-88783517D01*
X153661515Y-88586060D01*
X153542775Y-88408353D01*
X153391647Y-88257225D01*
X153213940Y-88138485D01*
X153016483Y-88056696D01*
X152806863Y-88015000D01*
X152593137Y-88015000D01*
X152383517Y-88056696D01*
X152186060Y-88138485D01*
X152008353Y-88257225D01*
X151857225Y-88408353D01*
X151738485Y-88586060D01*
X151656696Y-88783517D01*
X151615000Y-88993137D01*
X149204460Y-88993137D01*
X149116483Y-88956696D01*
X148906863Y-88915000D01*
X148693137Y-88915000D01*
X148483517Y-88956696D01*
X148286060Y-89038485D01*
X148108353Y-89157225D01*
X147957225Y-89308353D01*
X147838485Y-89486060D01*
X147756696Y-89683517D01*
X147715000Y-89893137D01*
X140627000Y-89893137D01*
X140627000Y-87000000D01*
X201507089Y-87000000D01*
X201538657Y-87320516D01*
X201632148Y-87628715D01*
X201783969Y-87912752D01*
X201988286Y-88161714D01*
X202237248Y-88366031D01*
X202521285Y-88517852D01*
X202829484Y-88611343D01*
X203069678Y-88635000D01*
X204730322Y-88635000D01*
X204970516Y-88611343D01*
X205278715Y-88517852D01*
X205562752Y-88366031D01*
X205811714Y-88161714D01*
X206016031Y-87912752D01*
X206167852Y-87628715D01*
X206261343Y-87320516D01*
X206292911Y-87000000D01*
X206261343Y-86679484D01*
X206167852Y-86371285D01*
X206016031Y-86087248D01*
X205811714Y-85838286D01*
X205562752Y-85633969D01*
X205278715Y-85482148D01*
X204970516Y-85388657D01*
X204730322Y-85365000D01*
X203069678Y-85365000D01*
X202829484Y-85388657D01*
X202521285Y-85482148D01*
X202237248Y-85633969D01*
X201988286Y-85838286D01*
X201783969Y-86087248D01*
X201632148Y-86371285D01*
X201538657Y-86679484D01*
X201507089Y-87000000D01*
X140627000Y-87000000D01*
X140627000Y-82640475D01*
X144365000Y-82640475D01*
X144365000Y-83159525D01*
X144466261Y-83668601D01*
X144664893Y-84148141D01*
X144953262Y-84579715D01*
X145320285Y-84946738D01*
X145751859Y-85235107D01*
X146231399Y-85433739D01*
X146740475Y-85535000D01*
X147259525Y-85535000D01*
X147768601Y-85433739D01*
X148108044Y-85293137D01*
X149915000Y-85293137D01*
X149915000Y-85506863D01*
X149956696Y-85716483D01*
X150038485Y-85913940D01*
X150157225Y-86091647D01*
X150308353Y-86242775D01*
X150486060Y-86361515D01*
X150683517Y-86443304D01*
X150893137Y-86485000D01*
X151106863Y-86485000D01*
X151316483Y-86443304D01*
X151513940Y-86361515D01*
X151691647Y-86242775D01*
X151842775Y-86091647D01*
X151961515Y-85913940D01*
X152043304Y-85716483D01*
X152085000Y-85506863D01*
X152085000Y-85293137D01*
X152043304Y-85083517D01*
X151961515Y-84886060D01*
X151842775Y-84708353D01*
X151691647Y-84557225D01*
X151513940Y-84438485D01*
X151316483Y-84356696D01*
X151106863Y-84315000D01*
X150893137Y-84315000D01*
X150683517Y-84356696D01*
X150486060Y-84438485D01*
X150308353Y-84557225D01*
X150157225Y-84708353D01*
X150038485Y-84886060D01*
X149956696Y-85083517D01*
X149915000Y-85293137D01*
X148108044Y-85293137D01*
X148248141Y-85235107D01*
X148679715Y-84946738D01*
X149046738Y-84579715D01*
X149335107Y-84148141D01*
X149533739Y-83668601D01*
X149635000Y-83159525D01*
X149635000Y-82640475D01*
X166365000Y-82640475D01*
X166365000Y-83159525D01*
X166466261Y-83668601D01*
X166664893Y-84148141D01*
X166953262Y-84579715D01*
X167320285Y-84946738D01*
X167751859Y-85235107D01*
X168231399Y-85433739D01*
X168740475Y-85535000D01*
X169259525Y-85535000D01*
X169768601Y-85433739D01*
X170248141Y-85235107D01*
X170679715Y-84946738D01*
X171046738Y-84579715D01*
X171335107Y-84148141D01*
X171533739Y-83668601D01*
X171635000Y-83159525D01*
X171635000Y-82640475D01*
X171625584Y-82593137D01*
X188915000Y-82593137D01*
X188915000Y-82806863D01*
X188956696Y-83016483D01*
X189038485Y-83213940D01*
X189157225Y-83391647D01*
X189308353Y-83542775D01*
X189486060Y-83661515D01*
X189683517Y-83743304D01*
X189893137Y-83785000D01*
X190106863Y-83785000D01*
X190316483Y-83743304D01*
X190513940Y-83661515D01*
X190691647Y-83542775D01*
X190842775Y-83391647D01*
X190961515Y-83213940D01*
X191043304Y-83016483D01*
X191085000Y-82806863D01*
X191085000Y-82593137D01*
X191043304Y-82383517D01*
X190961515Y-82186060D01*
X190842775Y-82008353D01*
X190691647Y-81857225D01*
X190513940Y-81738485D01*
X190316483Y-81656696D01*
X190106863Y-81615000D01*
X189893137Y-81615000D01*
X189683517Y-81656696D01*
X189486060Y-81738485D01*
X189308353Y-81857225D01*
X189157225Y-82008353D01*
X189038485Y-82186060D01*
X188956696Y-82383517D01*
X188915000Y-82593137D01*
X171625584Y-82593137D01*
X171533739Y-82131399D01*
X171335107Y-81651859D01*
X171046738Y-81220285D01*
X170679715Y-80853262D01*
X170248141Y-80564893D01*
X170091476Y-80500000D01*
X195261928Y-80500000D01*
X195261928Y-84500000D01*
X195274188Y-84624482D01*
X195310498Y-84744180D01*
X195369463Y-84854494D01*
X195448815Y-84951185D01*
X195545506Y-85030537D01*
X195655820Y-85089502D01*
X195775518Y-85125812D01*
X195900000Y-85138072D01*
X197900000Y-85138072D01*
X198024482Y-85125812D01*
X198144180Y-85089502D01*
X198254494Y-85030537D01*
X198351185Y-84951185D01*
X198430537Y-84854494D01*
X198489502Y-84744180D01*
X198525812Y-84624482D01*
X198538072Y-84500000D01*
X198538072Y-81769679D01*
X201265000Y-81769679D01*
X201265000Y-83230322D01*
X201288657Y-83470516D01*
X201382149Y-83778715D01*
X201533970Y-84062752D01*
X201738287Y-84311714D01*
X201987249Y-84516031D01*
X202271286Y-84667852D01*
X202579485Y-84761343D01*
X202900000Y-84792911D01*
X203220516Y-84761343D01*
X203528715Y-84667852D01*
X203812752Y-84516031D01*
X204061714Y-84311714D01*
X204266031Y-84062752D01*
X204417852Y-83778715D01*
X204511343Y-83470516D01*
X204535000Y-83230322D01*
X204535000Y-82954432D01*
X204628320Y-83179727D01*
X204785363Y-83414759D01*
X204985241Y-83614637D01*
X205220273Y-83771680D01*
X205481426Y-83879853D01*
X205758665Y-83935000D01*
X206041335Y-83935000D01*
X206318574Y-83879853D01*
X206579727Y-83771680D01*
X206814759Y-83614637D01*
X207014637Y-83414759D01*
X207171680Y-83179727D01*
X207279853Y-82918574D01*
X207335000Y-82641335D01*
X207335000Y-82358665D01*
X207279853Y-82081426D01*
X207171680Y-81820273D01*
X207014637Y-81585241D01*
X206814759Y-81385363D01*
X206579727Y-81228320D01*
X206318574Y-81120147D01*
X206041335Y-81065000D01*
X205758665Y-81065000D01*
X205481426Y-81120147D01*
X205220273Y-81228320D01*
X204985241Y-81385363D01*
X204785363Y-81585241D01*
X204628320Y-81820273D01*
X204535000Y-82045568D01*
X204535000Y-81769678D01*
X204511343Y-81529484D01*
X204417852Y-81221285D01*
X204266031Y-80937248D01*
X204061714Y-80688286D01*
X203812751Y-80483969D01*
X203528714Y-80332148D01*
X203220515Y-80238657D01*
X202900000Y-80207089D01*
X202579484Y-80238657D01*
X202271285Y-80332148D01*
X201987248Y-80483969D01*
X201738286Y-80688286D01*
X201533969Y-80937249D01*
X201382148Y-81221286D01*
X201288657Y-81529485D01*
X201265000Y-81769679D01*
X198538072Y-81769679D01*
X198538072Y-80500000D01*
X198525812Y-80375518D01*
X198489502Y-80255820D01*
X198430537Y-80145506D01*
X198351185Y-80048815D01*
X198254494Y-79969463D01*
X198144180Y-79910498D01*
X198024482Y-79874188D01*
X197900000Y-79861928D01*
X195900000Y-79861928D01*
X195775518Y-79874188D01*
X195655820Y-79910498D01*
X195545506Y-79969463D01*
X195448815Y-80048815D01*
X195369463Y-80145506D01*
X195310498Y-80255820D01*
X195274188Y-80375518D01*
X195261928Y-80500000D01*
X170091476Y-80500000D01*
X169768601Y-80366261D01*
X169259525Y-80265000D01*
X168740475Y-80265000D01*
X168231399Y-80366261D01*
X167751859Y-80564893D01*
X167320285Y-80853262D01*
X166953262Y-81220285D01*
X166664893Y-81651859D01*
X166466261Y-82131399D01*
X166365000Y-82640475D01*
X149635000Y-82640475D01*
X149533739Y-82131399D01*
X149505855Y-82064080D01*
X153115525Y-82064080D01*
X153199208Y-82318261D01*
X153471775Y-82449158D01*
X153764642Y-82524365D01*
X154066553Y-82540991D01*
X154365907Y-82498397D01*
X154651199Y-82398222D01*
X154800792Y-82318261D01*
X154884475Y-82064080D01*
X154000000Y-81179605D01*
X153115525Y-82064080D01*
X149505855Y-82064080D01*
X149335107Y-81651859D01*
X149046738Y-81220285D01*
X148893006Y-81066553D01*
X152459009Y-81066553D01*
X152501603Y-81365907D01*
X152601778Y-81651199D01*
X152681739Y-81800792D01*
X152935920Y-81884475D01*
X153820395Y-81000000D01*
X154179605Y-81000000D01*
X155064080Y-81884475D01*
X155318261Y-81800792D01*
X155449158Y-81528225D01*
X155524365Y-81235358D01*
X155540991Y-80933447D01*
X155498397Y-80634093D01*
X155398222Y-80348801D01*
X155318261Y-80199208D01*
X155064080Y-80115525D01*
X154179605Y-81000000D01*
X153820395Y-81000000D01*
X152935920Y-80115525D01*
X152681739Y-80199208D01*
X152550842Y-80471775D01*
X152475635Y-80764642D01*
X152459009Y-81066553D01*
X148893006Y-81066553D01*
X148679715Y-80853262D01*
X148248141Y-80564893D01*
X147768601Y-80366261D01*
X147259525Y-80265000D01*
X146740475Y-80265000D01*
X146231399Y-80366261D01*
X145751859Y-80564893D01*
X145320285Y-80853262D01*
X144953262Y-81220285D01*
X144664893Y-81651859D01*
X144466261Y-82131399D01*
X144365000Y-82640475D01*
X140627000Y-82640475D01*
X140627000Y-73840475D01*
X144365000Y-73840475D01*
X144365000Y-74359525D01*
X144466261Y-74868601D01*
X144664893Y-75348141D01*
X144953262Y-75779715D01*
X145320285Y-76146738D01*
X145751859Y-76435107D01*
X146231399Y-76633739D01*
X146740475Y-76735000D01*
X147259525Y-76735000D01*
X147768601Y-76633739D01*
X148248141Y-76435107D01*
X148679715Y-76146738D01*
X148977637Y-75848816D01*
X152465000Y-75848816D01*
X152465000Y-76151184D01*
X152523989Y-76447743D01*
X152639701Y-76727095D01*
X152807688Y-76978505D01*
X153021495Y-77192312D01*
X153107831Y-77250000D01*
X153021495Y-77307688D01*
X152807688Y-77521495D01*
X152639701Y-77772905D01*
X152523989Y-78052257D01*
X152465000Y-78348816D01*
X152465000Y-78651184D01*
X152523989Y-78947743D01*
X152639701Y-79227095D01*
X152807688Y-79478505D01*
X153021495Y-79692312D01*
X153164310Y-79787738D01*
X153115525Y-79935920D01*
X154000000Y-80820395D01*
X154884475Y-79935920D01*
X154835690Y-79787738D01*
X154978505Y-79692312D01*
X155192312Y-79478505D01*
X155360299Y-79227095D01*
X155476011Y-78947743D01*
X155535000Y-78651184D01*
X155535000Y-78348816D01*
X160465000Y-78348816D01*
X160465000Y-78651184D01*
X160523989Y-78947743D01*
X160639701Y-79227095D01*
X160807688Y-79478505D01*
X161021495Y-79692312D01*
X161107831Y-79750000D01*
X161021495Y-79807688D01*
X160807688Y-80021495D01*
X160639701Y-80272905D01*
X160523989Y-80552257D01*
X160465000Y-80848816D01*
X160465000Y-81151184D01*
X160523989Y-81447743D01*
X160639701Y-81727095D01*
X160807688Y-81978505D01*
X161021495Y-82192312D01*
X161272905Y-82360299D01*
X161552257Y-82476011D01*
X161848816Y-82535000D01*
X162151184Y-82535000D01*
X162447743Y-82476011D01*
X162727095Y-82360299D01*
X162978505Y-82192312D01*
X163192312Y-81978505D01*
X163360299Y-81727095D01*
X163476011Y-81447743D01*
X163535000Y-81151184D01*
X163535000Y-80848816D01*
X163476011Y-80552257D01*
X163360299Y-80272905D01*
X163192312Y-80021495D01*
X162978505Y-79807688D01*
X162892169Y-79750000D01*
X162978505Y-79692312D01*
X163192312Y-79478505D01*
X163360299Y-79227095D01*
X163476011Y-78947743D01*
X163535000Y-78651184D01*
X163535000Y-78348816D01*
X163476011Y-78052257D01*
X163360299Y-77772905D01*
X163307000Y-77693137D01*
X178515000Y-77693137D01*
X178515000Y-77906863D01*
X178556696Y-78116483D01*
X178638485Y-78313940D01*
X178757225Y-78491647D01*
X178908353Y-78642775D01*
X179086060Y-78761515D01*
X179283517Y-78843304D01*
X179493137Y-78885000D01*
X179706863Y-78885000D01*
X179916483Y-78843304D01*
X180113940Y-78761515D01*
X180291647Y-78642775D01*
X180442775Y-78491647D01*
X180561515Y-78313940D01*
X180643304Y-78116483D01*
X180685000Y-77906863D01*
X180685000Y-77693137D01*
X181315000Y-77693137D01*
X181315000Y-77906863D01*
X181356696Y-78116483D01*
X181438485Y-78313940D01*
X181557225Y-78491647D01*
X181708353Y-78642775D01*
X181886060Y-78761515D01*
X182083517Y-78843304D01*
X182293137Y-78885000D01*
X182506863Y-78885000D01*
X182716483Y-78843304D01*
X182913940Y-78761515D01*
X183091647Y-78642775D01*
X183242775Y-78491647D01*
X183361515Y-78313940D01*
X183443304Y-78116483D01*
X183485000Y-77906863D01*
X183485000Y-77693137D01*
X183443304Y-77483517D01*
X183361515Y-77286060D01*
X183299426Y-77193137D01*
X185915000Y-77193137D01*
X185915000Y-77406863D01*
X185956696Y-77616483D01*
X186038485Y-77813940D01*
X186157225Y-77991647D01*
X186308353Y-78142775D01*
X186486060Y-78261515D01*
X186683517Y-78343304D01*
X186893137Y-78385000D01*
X187106863Y-78385000D01*
X187316483Y-78343304D01*
X187513940Y-78261515D01*
X187691647Y-78142775D01*
X187842775Y-77991647D01*
X187961515Y-77813940D01*
X188043304Y-77616483D01*
X188085000Y-77406863D01*
X188085000Y-77193137D01*
X188915000Y-77193137D01*
X188915000Y-77406863D01*
X188956696Y-77616483D01*
X189038485Y-77813940D01*
X189157225Y-77991647D01*
X189308353Y-78142775D01*
X189486060Y-78261515D01*
X189683517Y-78343304D01*
X189893137Y-78385000D01*
X190106863Y-78385000D01*
X190316483Y-78343304D01*
X190513940Y-78261515D01*
X190691647Y-78142775D01*
X190834422Y-78000000D01*
X201507089Y-78000000D01*
X201538657Y-78320516D01*
X201632148Y-78628715D01*
X201783969Y-78912752D01*
X201988286Y-79161714D01*
X202237248Y-79366031D01*
X202521285Y-79517852D01*
X202829484Y-79611343D01*
X203069678Y-79635000D01*
X204730322Y-79635000D01*
X204970516Y-79611343D01*
X205278715Y-79517852D01*
X205562752Y-79366031D01*
X205811714Y-79161714D01*
X206016031Y-78912752D01*
X206167852Y-78628715D01*
X206261343Y-78320516D01*
X206292911Y-78000000D01*
X206261343Y-77679484D01*
X206167852Y-77371285D01*
X206016031Y-77087248D01*
X205811714Y-76838286D01*
X205562752Y-76633969D01*
X205278715Y-76482148D01*
X204970516Y-76388657D01*
X204730322Y-76365000D01*
X203069678Y-76365000D01*
X202829484Y-76388657D01*
X202521285Y-76482148D01*
X202237248Y-76633969D01*
X201988286Y-76838286D01*
X201783969Y-77087248D01*
X201632148Y-77371285D01*
X201538657Y-77679484D01*
X201507089Y-78000000D01*
X190834422Y-78000000D01*
X190842775Y-77991647D01*
X190961515Y-77813940D01*
X191043304Y-77616483D01*
X191085000Y-77406863D01*
X191085000Y-77193137D01*
X191043304Y-76983517D01*
X190961515Y-76786060D01*
X190842775Y-76608353D01*
X190691647Y-76457225D01*
X190513940Y-76338485D01*
X190316483Y-76256696D01*
X190106863Y-76215000D01*
X189893137Y-76215000D01*
X189683517Y-76256696D01*
X189486060Y-76338485D01*
X189308353Y-76457225D01*
X189157225Y-76608353D01*
X189038485Y-76786060D01*
X188956696Y-76983517D01*
X188915000Y-77193137D01*
X188085000Y-77193137D01*
X188043304Y-76983517D01*
X187961515Y-76786060D01*
X187842775Y-76608353D01*
X187691647Y-76457225D01*
X187513940Y-76338485D01*
X187316483Y-76256696D01*
X187106863Y-76215000D01*
X186893137Y-76215000D01*
X186683517Y-76256696D01*
X186486060Y-76338485D01*
X186308353Y-76457225D01*
X186157225Y-76608353D01*
X186038485Y-76786060D01*
X185956696Y-76983517D01*
X185915000Y-77193137D01*
X183299426Y-77193137D01*
X183242775Y-77108353D01*
X183091647Y-76957225D01*
X182913940Y-76838485D01*
X182716483Y-76756696D01*
X182506863Y-76715000D01*
X182293137Y-76715000D01*
X182083517Y-76756696D01*
X181886060Y-76838485D01*
X181708353Y-76957225D01*
X181557225Y-77108353D01*
X181438485Y-77286060D01*
X181356696Y-77483517D01*
X181315000Y-77693137D01*
X180685000Y-77693137D01*
X180643304Y-77483517D01*
X180561515Y-77286060D01*
X180442775Y-77108353D01*
X180291647Y-76957225D01*
X180113940Y-76838485D01*
X179916483Y-76756696D01*
X179706863Y-76715000D01*
X179493137Y-76715000D01*
X179283517Y-76756696D01*
X179086060Y-76838485D01*
X178908353Y-76957225D01*
X178757225Y-77108353D01*
X178638485Y-77286060D01*
X178556696Y-77483517D01*
X178515000Y-77693137D01*
X163307000Y-77693137D01*
X163192312Y-77521495D01*
X162978505Y-77307688D01*
X162835690Y-77212262D01*
X162884475Y-77064080D01*
X162000000Y-76179605D01*
X161115525Y-77064080D01*
X161164310Y-77212262D01*
X161021495Y-77307688D01*
X160807688Y-77521495D01*
X160639701Y-77772905D01*
X160523989Y-78052257D01*
X160465000Y-78348816D01*
X155535000Y-78348816D01*
X155476011Y-78052257D01*
X155360299Y-77772905D01*
X155192312Y-77521495D01*
X154978505Y-77307688D01*
X154892169Y-77250000D01*
X154978505Y-77192312D01*
X155192312Y-76978505D01*
X155360299Y-76727095D01*
X155476011Y-76447743D01*
X155535000Y-76151184D01*
X155535000Y-76066553D01*
X160459009Y-76066553D01*
X160501603Y-76365907D01*
X160601778Y-76651199D01*
X160681739Y-76800792D01*
X160935920Y-76884475D01*
X161820395Y-76000000D01*
X162179605Y-76000000D01*
X163064080Y-76884475D01*
X163318261Y-76800792D01*
X163449158Y-76528225D01*
X163524365Y-76235358D01*
X163540991Y-75933447D01*
X163498397Y-75634093D01*
X163398222Y-75348801D01*
X163318261Y-75199208D01*
X163064080Y-75115525D01*
X162179605Y-76000000D01*
X161820395Y-76000000D01*
X160935920Y-75115525D01*
X160681739Y-75199208D01*
X160550842Y-75471775D01*
X160475635Y-75764642D01*
X160459009Y-76066553D01*
X155535000Y-76066553D01*
X155535000Y-75848816D01*
X155476011Y-75552257D01*
X155360299Y-75272905D01*
X155192312Y-75021495D01*
X155106737Y-74935920D01*
X161115525Y-74935920D01*
X162000000Y-75820395D01*
X162884475Y-74935920D01*
X162800792Y-74681739D01*
X162528225Y-74550842D01*
X162235358Y-74475635D01*
X161933447Y-74459009D01*
X161634093Y-74501603D01*
X161348801Y-74601778D01*
X161199208Y-74681739D01*
X161115525Y-74935920D01*
X155106737Y-74935920D01*
X154978505Y-74807688D01*
X154727095Y-74639701D01*
X154447743Y-74523989D01*
X154151184Y-74465000D01*
X153848816Y-74465000D01*
X153552257Y-74523989D01*
X153272905Y-74639701D01*
X153021495Y-74807688D01*
X152807688Y-75021495D01*
X152639701Y-75272905D01*
X152523989Y-75552257D01*
X152465000Y-75848816D01*
X148977637Y-75848816D01*
X149046738Y-75779715D01*
X149335107Y-75348141D01*
X149533739Y-74868601D01*
X149635000Y-74359525D01*
X149635000Y-73840475D01*
X166365000Y-73840475D01*
X166365000Y-74359525D01*
X166466261Y-74868601D01*
X166664893Y-75348141D01*
X166953262Y-75779715D01*
X167320285Y-76146738D01*
X167751859Y-76435107D01*
X168231399Y-76633739D01*
X168740475Y-76735000D01*
X169259525Y-76735000D01*
X169768601Y-76633739D01*
X170248141Y-76435107D01*
X170679715Y-76146738D01*
X171046738Y-75779715D01*
X171335107Y-75348141D01*
X171533739Y-74868601D01*
X171635000Y-74359525D01*
X171635000Y-73840475D01*
X171546020Y-73393137D01*
X178515000Y-73393137D01*
X178515000Y-73606863D01*
X178556696Y-73816483D01*
X178638485Y-74013940D01*
X178757225Y-74191647D01*
X178908353Y-74342775D01*
X179086060Y-74461515D01*
X179283517Y-74543304D01*
X179493137Y-74585000D01*
X179706863Y-74585000D01*
X179916483Y-74543304D01*
X180113940Y-74461515D01*
X180291647Y-74342775D01*
X180442775Y-74191647D01*
X180561515Y-74013940D01*
X180643304Y-73816483D01*
X180685000Y-73606863D01*
X180685000Y-73393137D01*
X181315000Y-73393137D01*
X181315000Y-73606863D01*
X181356696Y-73816483D01*
X181438485Y-74013940D01*
X181557225Y-74191647D01*
X181708353Y-74342775D01*
X181886060Y-74461515D01*
X182083517Y-74543304D01*
X182293137Y-74585000D01*
X182506863Y-74585000D01*
X182716483Y-74543304D01*
X182913940Y-74461515D01*
X183091647Y-74342775D01*
X183141285Y-74293137D01*
X190215000Y-74293137D01*
X190215000Y-74506863D01*
X190256696Y-74716483D01*
X190338485Y-74913940D01*
X190457225Y-75091647D01*
X190608353Y-75242775D01*
X190786060Y-75361515D01*
X190983517Y-75443304D01*
X191193137Y-75485000D01*
X191406863Y-75485000D01*
X191616483Y-75443304D01*
X191813940Y-75361515D01*
X191991647Y-75242775D01*
X192142775Y-75091647D01*
X192261515Y-74913940D01*
X192343304Y-74716483D01*
X192385000Y-74506863D01*
X192385000Y-74293137D01*
X192343304Y-74083517D01*
X192261515Y-73886060D01*
X192142775Y-73708353D01*
X191991647Y-73557225D01*
X191813940Y-73438485D01*
X191616483Y-73356696D01*
X191406863Y-73315000D01*
X191193137Y-73315000D01*
X190983517Y-73356696D01*
X190786060Y-73438485D01*
X190608353Y-73557225D01*
X190457225Y-73708353D01*
X190338485Y-73886060D01*
X190256696Y-74083517D01*
X190215000Y-74293137D01*
X183141285Y-74293137D01*
X183242775Y-74191647D01*
X183361515Y-74013940D01*
X183443304Y-73816483D01*
X183485000Y-73606863D01*
X183485000Y-73393137D01*
X183443304Y-73183517D01*
X183361515Y-72986060D01*
X183242775Y-72808353D01*
X183091647Y-72657225D01*
X182913940Y-72538485D01*
X182716483Y-72456696D01*
X182506863Y-72415000D01*
X182293137Y-72415000D01*
X182083517Y-72456696D01*
X181886060Y-72538485D01*
X181708353Y-72657225D01*
X181557225Y-72808353D01*
X181438485Y-72986060D01*
X181356696Y-73183517D01*
X181315000Y-73393137D01*
X180685000Y-73393137D01*
X180643304Y-73183517D01*
X180561515Y-72986060D01*
X180442775Y-72808353D01*
X180291647Y-72657225D01*
X180113940Y-72538485D01*
X179916483Y-72456696D01*
X179706863Y-72415000D01*
X179493137Y-72415000D01*
X179283517Y-72456696D01*
X179086060Y-72538485D01*
X178908353Y-72657225D01*
X178757225Y-72808353D01*
X178638485Y-72986060D01*
X178556696Y-73183517D01*
X178515000Y-73393137D01*
X171546020Y-73393137D01*
X171533739Y-73331399D01*
X171335107Y-72851859D01*
X171046738Y-72420285D01*
X170679715Y-72053262D01*
X170248141Y-71764893D01*
X169768601Y-71566261D01*
X169259525Y-71465000D01*
X168740475Y-71465000D01*
X168231399Y-71566261D01*
X167751859Y-71764893D01*
X167320285Y-72053262D01*
X166953262Y-72420285D01*
X166664893Y-72851859D01*
X166466261Y-73331399D01*
X166365000Y-73840475D01*
X149635000Y-73840475D01*
X149533739Y-73331399D01*
X149335107Y-72851859D01*
X149046738Y-72420285D01*
X148679715Y-72053262D01*
X148248141Y-71764893D01*
X147768601Y-71566261D01*
X147259525Y-71465000D01*
X146740475Y-71465000D01*
X146231399Y-71566261D01*
X145751859Y-71764893D01*
X145320285Y-72053262D01*
X144953262Y-72420285D01*
X144664893Y-72851859D01*
X144466261Y-73331399D01*
X144365000Y-73840475D01*
X140627000Y-73840475D01*
X140627000Y-70293137D01*
X184615000Y-70293137D01*
X184615000Y-70506863D01*
X184656696Y-70716483D01*
X184738485Y-70913940D01*
X184857225Y-71091647D01*
X185008353Y-71242775D01*
X185186060Y-71361515D01*
X185383517Y-71443304D01*
X185593137Y-71485000D01*
X185806863Y-71485000D01*
X186016483Y-71443304D01*
X186150000Y-71388000D01*
X186283517Y-71443304D01*
X186493137Y-71485000D01*
X186706863Y-71485000D01*
X186916483Y-71443304D01*
X187113940Y-71361515D01*
X187291647Y-71242775D01*
X187384433Y-71149989D01*
X187541874Y-71149989D01*
X187751494Y-71108293D01*
X187948951Y-71026504D01*
X188126658Y-70907764D01*
X188277786Y-70756636D01*
X188396526Y-70578929D01*
X188478315Y-70381472D01*
X188520011Y-70171852D01*
X188520011Y-69958126D01*
X188478315Y-69748506D01*
X188396526Y-69551049D01*
X188277786Y-69373342D01*
X188126658Y-69222214D01*
X188083142Y-69193137D01*
X189715000Y-69193137D01*
X189715000Y-69406863D01*
X189756696Y-69616483D01*
X189838485Y-69813940D01*
X189957225Y-69991647D01*
X189965578Y-70000000D01*
X189957225Y-70008353D01*
X189838485Y-70186060D01*
X189756696Y-70383517D01*
X189715000Y-70593137D01*
X189715000Y-70806863D01*
X189756696Y-71016483D01*
X189838485Y-71213940D01*
X189957225Y-71391647D01*
X189965578Y-71400000D01*
X189957225Y-71408353D01*
X189838485Y-71586060D01*
X189756696Y-71783517D01*
X189715000Y-71993137D01*
X189715000Y-72206863D01*
X189756696Y-72416483D01*
X189838485Y-72613940D01*
X189957225Y-72791647D01*
X190108353Y-72942775D01*
X190286060Y-73061515D01*
X190483517Y-73143304D01*
X190693137Y-73185000D01*
X190906863Y-73185000D01*
X191116483Y-73143304D01*
X191313940Y-73061515D01*
X191491647Y-72942775D01*
X191500000Y-72934422D01*
X191508353Y-72942775D01*
X191686060Y-73061515D01*
X191883517Y-73143304D01*
X192093137Y-73185000D01*
X192306863Y-73185000D01*
X192516483Y-73143304D01*
X192713940Y-73061515D01*
X192891647Y-72942775D01*
X192941285Y-72893137D01*
X204915000Y-72893137D01*
X204915000Y-73106863D01*
X204956696Y-73316483D01*
X205012000Y-73450000D01*
X204956696Y-73583517D01*
X204915000Y-73793137D01*
X204915000Y-74006863D01*
X204956696Y-74216483D01*
X205038485Y-74413940D01*
X205157225Y-74591647D01*
X205308353Y-74742775D01*
X205486060Y-74861515D01*
X205683517Y-74943304D01*
X205893137Y-74985000D01*
X206106863Y-74985000D01*
X206316483Y-74943304D01*
X206513940Y-74861515D01*
X206691647Y-74742775D01*
X206842775Y-74591647D01*
X206961515Y-74413940D01*
X207043304Y-74216483D01*
X207085000Y-74006863D01*
X207085000Y-73793137D01*
X207043304Y-73583517D01*
X206988000Y-73450000D01*
X207043304Y-73316483D01*
X207085000Y-73106863D01*
X207085000Y-72893137D01*
X207043304Y-72683517D01*
X206961515Y-72486060D01*
X206842775Y-72308353D01*
X206691647Y-72157225D01*
X206513940Y-72038485D01*
X206316483Y-71956696D01*
X206106863Y-71915000D01*
X205893137Y-71915000D01*
X205683517Y-71956696D01*
X205486060Y-72038485D01*
X205308353Y-72157225D01*
X205157225Y-72308353D01*
X205038485Y-72486060D01*
X204956696Y-72683517D01*
X204915000Y-72893137D01*
X192941285Y-72893137D01*
X193042775Y-72791647D01*
X193161515Y-72613940D01*
X193243304Y-72416483D01*
X193285000Y-72206863D01*
X193285000Y-71993137D01*
X193243304Y-71783517D01*
X193161515Y-71586060D01*
X193042775Y-71408353D01*
X193034422Y-71400000D01*
X193042775Y-71391647D01*
X193161515Y-71213940D01*
X193243304Y-71016483D01*
X193285000Y-70806863D01*
X193285000Y-70593137D01*
X193243304Y-70383517D01*
X193161515Y-70186060D01*
X193042775Y-70008353D01*
X193034422Y-70000000D01*
X193042775Y-69991647D01*
X193161515Y-69813940D01*
X193243304Y-69616483D01*
X193285000Y-69406863D01*
X193285000Y-69193137D01*
X193243304Y-68983517D01*
X193161515Y-68786060D01*
X193042775Y-68608353D01*
X192891647Y-68457225D01*
X192713940Y-68338485D01*
X192516483Y-68256696D01*
X192306863Y-68215000D01*
X192093137Y-68215000D01*
X191883517Y-68256696D01*
X191686060Y-68338485D01*
X191508353Y-68457225D01*
X191500000Y-68465578D01*
X191491647Y-68457225D01*
X191313940Y-68338485D01*
X191116483Y-68256696D01*
X190906863Y-68215000D01*
X190693137Y-68215000D01*
X190483517Y-68256696D01*
X190286060Y-68338485D01*
X190108353Y-68457225D01*
X189957225Y-68608353D01*
X189838485Y-68786060D01*
X189756696Y-68983517D01*
X189715000Y-69193137D01*
X188083142Y-69193137D01*
X187948951Y-69103474D01*
X187751494Y-69021685D01*
X187541874Y-68979989D01*
X187328148Y-68979989D01*
X187118528Y-69021685D01*
X186921071Y-69103474D01*
X186743364Y-69222214D01*
X186650578Y-69315000D01*
X186493137Y-69315000D01*
X186283517Y-69356696D01*
X186150000Y-69412000D01*
X186016483Y-69356696D01*
X185806863Y-69315000D01*
X185593137Y-69315000D01*
X185383517Y-69356696D01*
X185186060Y-69438485D01*
X185008353Y-69557225D01*
X184857225Y-69708353D01*
X184738485Y-69886060D01*
X184656696Y-70083517D01*
X184615000Y-70293137D01*
X140627000Y-70293137D01*
X140627000Y-67993137D01*
X178515000Y-67993137D01*
X178515000Y-68206863D01*
X178556696Y-68416483D01*
X178638485Y-68613940D01*
X178757225Y-68791647D01*
X178908353Y-68942775D01*
X179086060Y-69061515D01*
X179283517Y-69143304D01*
X179493137Y-69185000D01*
X179706863Y-69185000D01*
X179916483Y-69143304D01*
X180113940Y-69061515D01*
X180291647Y-68942775D01*
X180442775Y-68791647D01*
X180561515Y-68613940D01*
X180643304Y-68416483D01*
X180685000Y-68206863D01*
X180685000Y-67993137D01*
X181315000Y-67993137D01*
X181315000Y-68206863D01*
X181356696Y-68416483D01*
X181438485Y-68613940D01*
X181557225Y-68791647D01*
X181708353Y-68942775D01*
X181886060Y-69061515D01*
X182083517Y-69143304D01*
X182293137Y-69185000D01*
X182506863Y-69185000D01*
X182716483Y-69143304D01*
X182913940Y-69061515D01*
X183091647Y-68942775D01*
X183242775Y-68791647D01*
X183361515Y-68613940D01*
X183443304Y-68416483D01*
X183485000Y-68206863D01*
X183485000Y-67993137D01*
X183443304Y-67783517D01*
X183361515Y-67586060D01*
X183249304Y-67418123D01*
X184139986Y-67418123D01*
X184139986Y-67631849D01*
X184181682Y-67841469D01*
X184263471Y-68038926D01*
X184382211Y-68216633D01*
X184533339Y-68367761D01*
X184711046Y-68486501D01*
X184908503Y-68568290D01*
X185118123Y-68609986D01*
X185331849Y-68609986D01*
X185541469Y-68568290D01*
X185738926Y-68486501D01*
X185916633Y-68367761D01*
X186067761Y-68216633D01*
X186083460Y-68193137D01*
X194715000Y-68193137D01*
X194715000Y-68406863D01*
X194756696Y-68616483D01*
X194838485Y-68813940D01*
X194957225Y-68991647D01*
X195108353Y-69142775D01*
X195286060Y-69261515D01*
X195483517Y-69343304D01*
X195693137Y-69385000D01*
X195906863Y-69385000D01*
X196116483Y-69343304D01*
X196313940Y-69261515D01*
X196491647Y-69142775D01*
X196642775Y-68991647D01*
X196761515Y-68813940D01*
X196843304Y-68616483D01*
X196885000Y-68406863D01*
X196885000Y-68193137D01*
X196843304Y-67983517D01*
X196761515Y-67786060D01*
X196642775Y-67608353D01*
X196491647Y-67457225D01*
X196313940Y-67338485D01*
X196116483Y-67256696D01*
X195906863Y-67215000D01*
X195693137Y-67215000D01*
X195483517Y-67256696D01*
X195286060Y-67338485D01*
X195108353Y-67457225D01*
X194957225Y-67608353D01*
X194838485Y-67786060D01*
X194756696Y-67983517D01*
X194715000Y-68193137D01*
X186083460Y-68193137D01*
X186186501Y-68038926D01*
X186268290Y-67841469D01*
X186309986Y-67631849D01*
X186309986Y-67418123D01*
X186268290Y-67208503D01*
X186186501Y-67011046D01*
X186067761Y-66833339D01*
X185916633Y-66682211D01*
X185738926Y-66563471D01*
X185541469Y-66481682D01*
X185331849Y-66439986D01*
X185118123Y-66439986D01*
X184908503Y-66481682D01*
X184711046Y-66563471D01*
X184533339Y-66682211D01*
X184382211Y-66833339D01*
X184263471Y-67011046D01*
X184181682Y-67208503D01*
X184139986Y-67418123D01*
X183249304Y-67418123D01*
X183242775Y-67408353D01*
X183091647Y-67257225D01*
X182913940Y-67138485D01*
X182716483Y-67056696D01*
X182506863Y-67015000D01*
X182293137Y-67015000D01*
X182083517Y-67056696D01*
X181886060Y-67138485D01*
X181708353Y-67257225D01*
X181557225Y-67408353D01*
X181438485Y-67586060D01*
X181356696Y-67783517D01*
X181315000Y-67993137D01*
X180685000Y-67993137D01*
X180643304Y-67783517D01*
X180561515Y-67586060D01*
X180442775Y-67408353D01*
X180291647Y-67257225D01*
X180113940Y-67138485D01*
X179916483Y-67056696D01*
X179706863Y-67015000D01*
X179493137Y-67015000D01*
X179283517Y-67056696D01*
X179086060Y-67138485D01*
X178908353Y-67257225D01*
X178757225Y-67408353D01*
X178638485Y-67586060D01*
X178556696Y-67783517D01*
X178515000Y-67993137D01*
X140627000Y-67993137D01*
X140627000Y-63410000D01*
X208840000Y-63410000D01*
X208840001Y-136590000D01*
G04 #@! TA.AperFunction,Conductor*
D26*
G36*
X208840001Y-136590000D02*
G01*
X140627000Y-136590000D01*
X140627000Y-133393137D01*
X140915000Y-133393137D01*
X140915000Y-133606863D01*
X140956696Y-133816483D01*
X141038485Y-134013940D01*
X141157225Y-134191647D01*
X141308353Y-134342775D01*
X141486060Y-134461515D01*
X141683517Y-134543304D01*
X141893137Y-134585000D01*
X142106863Y-134585000D01*
X142316483Y-134543304D01*
X142513940Y-134461515D01*
X142691647Y-134342775D01*
X142842775Y-134191647D01*
X142961515Y-134013940D01*
X143043304Y-133816483D01*
X143085000Y-133606863D01*
X143085000Y-133393137D01*
X143043304Y-133183517D01*
X142961515Y-132986060D01*
X142842775Y-132808353D01*
X142691647Y-132657225D01*
X142513940Y-132538485D01*
X142316483Y-132456696D01*
X142106863Y-132415000D01*
X141893137Y-132415000D01*
X141683517Y-132456696D01*
X141486060Y-132538485D01*
X141308353Y-132657225D01*
X141157225Y-132808353D01*
X141038485Y-132986060D01*
X140956696Y-133183517D01*
X140915000Y-133393137D01*
X140627000Y-133393137D01*
X140627000Y-115446544D01*
X140645000Y-115446544D01*
X140645000Y-115713456D01*
X140697072Y-115975239D01*
X140799215Y-116221833D01*
X140947503Y-116443762D01*
X141136238Y-116632497D01*
X141358167Y-116780785D01*
X141604761Y-116882928D01*
X141866544Y-116935000D01*
X142133456Y-116935000D01*
X142395239Y-116882928D01*
X142641833Y-116780785D01*
X142863762Y-116632497D01*
X143052497Y-116443762D01*
X143200785Y-116221833D01*
X143302928Y-115975239D01*
X143355000Y-115713456D01*
X143355000Y-115523712D01*
X147956436Y-115523712D01*
X147956436Y-115806382D01*
X148011583Y-116083621D01*
X148119756Y-116344774D01*
X148276799Y-116579806D01*
X148476677Y-116779684D01*
X148711709Y-116936727D01*
X148864464Y-117000000D01*
X148711709Y-117063273D01*
X148476677Y-117220316D01*
X148276799Y-117420194D01*
X148119756Y-117655226D01*
X148011583Y-117916379D01*
X147956436Y-118193618D01*
X147956436Y-118476288D01*
X148011583Y-118753527D01*
X148119756Y-119014680D01*
X148276799Y-119249712D01*
X148476677Y-119449590D01*
X148711709Y-119606633D01*
X148972862Y-119714806D01*
X149250101Y-119769953D01*
X149532771Y-119769953D01*
X149747936Y-119727153D01*
X149689088Y-119815226D01*
X149580915Y-120076379D01*
X149525768Y-120353618D01*
X149525768Y-120636288D01*
X149580915Y-120913527D01*
X149689088Y-121174680D01*
X149846131Y-121409712D01*
X150046009Y-121609590D01*
X150281041Y-121766633D01*
X150542194Y-121874806D01*
X150819433Y-121929953D01*
X151102103Y-121929953D01*
X151379342Y-121874806D01*
X151640495Y-121766633D01*
X151875527Y-121609590D01*
X152065000Y-121420117D01*
X152065000Y-121461335D01*
X152120147Y-121738574D01*
X152228320Y-121999727D01*
X152385363Y-122234759D01*
X152585241Y-122434637D01*
X152820273Y-122591680D01*
X153081426Y-122699853D01*
X153358665Y-122755000D01*
X153641335Y-122755000D01*
X153918574Y-122699853D01*
X154179727Y-122591680D01*
X154414759Y-122434637D01*
X154614637Y-122234759D01*
X154771680Y-121999727D01*
X154879853Y-121738574D01*
X154935000Y-121461335D01*
X154935000Y-121420117D01*
X155124473Y-121609590D01*
X155359505Y-121766633D01*
X155620658Y-121874806D01*
X155897897Y-121929953D01*
X156180567Y-121929953D01*
X156457806Y-121874806D01*
X156718959Y-121766633D01*
X156953991Y-121609590D01*
X157153869Y-121409712D01*
X157310912Y-121174680D01*
X157419085Y-120913527D01*
X157474232Y-120636288D01*
X157474232Y-120353618D01*
X157419085Y-120076379D01*
X157310912Y-119815226D01*
X157252064Y-119727153D01*
X157467229Y-119769953D01*
X157749899Y-119769953D01*
X158027138Y-119714806D01*
X158288291Y-119606633D01*
X158523323Y-119449590D01*
X158723201Y-119249712D01*
X158880244Y-119014680D01*
X158988417Y-118753527D01*
X159043564Y-118476288D01*
X159043564Y-118193618D01*
X158988417Y-117916379D01*
X158880244Y-117655226D01*
X158723201Y-117420194D01*
X158523323Y-117220316D01*
X158288291Y-117063273D01*
X158135536Y-117000000D01*
X158288291Y-116936727D01*
X158523323Y-116779684D01*
X158723201Y-116579806D01*
X158880244Y-116344774D01*
X158988417Y-116083621D01*
X159043564Y-115806382D01*
X159043564Y-115523712D01*
X159028215Y-115446544D01*
X161145000Y-115446544D01*
X161145000Y-115713456D01*
X161197072Y-115975239D01*
X161299215Y-116221833D01*
X161447503Y-116443762D01*
X161636238Y-116632497D01*
X161858167Y-116780785D01*
X162104761Y-116882928D01*
X162366544Y-116935000D01*
X162633456Y-116935000D01*
X162895239Y-116882928D01*
X163141833Y-116780785D01*
X163363762Y-116632497D01*
X163552497Y-116443762D01*
X163700785Y-116221833D01*
X163802928Y-115975239D01*
X163855000Y-115713456D01*
X163855000Y-115446544D01*
X163802928Y-115184761D01*
X163700785Y-114938167D01*
X163552497Y-114716238D01*
X163363762Y-114527503D01*
X163141833Y-114379215D01*
X162895239Y-114277072D01*
X162633456Y-114225000D01*
X162366544Y-114225000D01*
X162104761Y-114277072D01*
X161858167Y-114379215D01*
X161636238Y-114527503D01*
X161447503Y-114716238D01*
X161299215Y-114938167D01*
X161197072Y-115184761D01*
X161145000Y-115446544D01*
X159028215Y-115446544D01*
X158988417Y-115246473D01*
X158880244Y-114985320D01*
X158723201Y-114750288D01*
X158523323Y-114550410D01*
X158288291Y-114393367D01*
X158027138Y-114285194D01*
X157749899Y-114230047D01*
X157467229Y-114230047D01*
X157252064Y-114272847D01*
X157310912Y-114184774D01*
X157419085Y-113923621D01*
X157474232Y-113646382D01*
X157474232Y-113363712D01*
X157419085Y-113086473D01*
X157344557Y-112906544D01*
X163685000Y-112906544D01*
X163685000Y-113173456D01*
X163737072Y-113435239D01*
X163839215Y-113681833D01*
X163987503Y-113903762D01*
X164176238Y-114092497D01*
X164398167Y-114240785D01*
X164644761Y-114342928D01*
X164906544Y-114395000D01*
X165173456Y-114395000D01*
X165435239Y-114342928D01*
X165681833Y-114240785D01*
X165903762Y-114092497D01*
X166092497Y-113903762D01*
X166240785Y-113681833D01*
X166342928Y-113435239D01*
X166395000Y-113173456D01*
X166395000Y-112906544D01*
X166342928Y-112644761D01*
X166240785Y-112398167D01*
X166092497Y-112176238D01*
X165903762Y-111987503D01*
X165681833Y-111839215D01*
X165435239Y-111737072D01*
X165173456Y-111685000D01*
X164906544Y-111685000D01*
X164644761Y-111737072D01*
X164398167Y-111839215D01*
X164176238Y-111987503D01*
X163987503Y-112176238D01*
X163839215Y-112398167D01*
X163737072Y-112644761D01*
X163685000Y-112906544D01*
X157344557Y-112906544D01*
X157310912Y-112825320D01*
X157153869Y-112590288D01*
X156953991Y-112390410D01*
X156718959Y-112233367D01*
X156457806Y-112125194D01*
X156180567Y-112070047D01*
X155897897Y-112070047D01*
X155620658Y-112125194D01*
X155359505Y-112233367D01*
X155124473Y-112390410D01*
X154935000Y-112579883D01*
X154935000Y-112538665D01*
X154879853Y-112261426D01*
X154771680Y-112000273D01*
X154614637Y-111765241D01*
X154414759Y-111565363D01*
X154179727Y-111408320D01*
X153918574Y-111300147D01*
X153641335Y-111245000D01*
X153358665Y-111245000D01*
X153081426Y-111300147D01*
X152820273Y-111408320D01*
X152585241Y-111565363D01*
X152385363Y-111765241D01*
X152228320Y-112000273D01*
X152120147Y-112261426D01*
X152065000Y-112538665D01*
X152065000Y-112579883D01*
X151875527Y-112390410D01*
X151640495Y-112233367D01*
X151379342Y-112125194D01*
X151102103Y-112070047D01*
X150819433Y-112070047D01*
X150542194Y-112125194D01*
X150281041Y-112233367D01*
X150046009Y-112390410D01*
X149846131Y-112590288D01*
X149689088Y-112825320D01*
X149580915Y-113086473D01*
X149525768Y-113363712D01*
X149525768Y-113646382D01*
X149580915Y-113923621D01*
X149689088Y-114184774D01*
X149747936Y-114272847D01*
X149532771Y-114230047D01*
X149250101Y-114230047D01*
X148972862Y-114285194D01*
X148711709Y-114393367D01*
X148476677Y-114550410D01*
X148276799Y-114750288D01*
X148119756Y-114985320D01*
X148011583Y-115246473D01*
X147956436Y-115523712D01*
X143355000Y-115523712D01*
X143355000Y-115446544D01*
X143302928Y-115184761D01*
X143200785Y-114938167D01*
X143052497Y-114716238D01*
X142863762Y-114527503D01*
X142641833Y-114379215D01*
X142395239Y-114277072D01*
X142133456Y-114225000D01*
X141866544Y-114225000D01*
X141604761Y-114277072D01*
X141358167Y-114379215D01*
X141136238Y-114527503D01*
X140947503Y-114716238D01*
X140799215Y-114938167D01*
X140697072Y-115184761D01*
X140645000Y-115446544D01*
X140627000Y-115446544D01*
X140627000Y-112906544D01*
X143185000Y-112906544D01*
X143185000Y-113173456D01*
X143237072Y-113435239D01*
X143339215Y-113681833D01*
X143487503Y-113903762D01*
X143676238Y-114092497D01*
X143898167Y-114240785D01*
X144144761Y-114342928D01*
X144406544Y-114395000D01*
X144673456Y-114395000D01*
X144935239Y-114342928D01*
X145181833Y-114240785D01*
X145403762Y-114092497D01*
X145592497Y-113903762D01*
X145740785Y-113681833D01*
X145842928Y-113435239D01*
X145895000Y-113173456D01*
X145895000Y-112906544D01*
X145842928Y-112644761D01*
X145740785Y-112398167D01*
X145592497Y-112176238D01*
X145403762Y-111987503D01*
X145181833Y-111839215D01*
X144935239Y-111737072D01*
X144673456Y-111685000D01*
X144406544Y-111685000D01*
X144144761Y-111737072D01*
X143898167Y-111839215D01*
X143676238Y-111987503D01*
X143487503Y-112176238D01*
X143339215Y-112398167D01*
X143237072Y-112644761D01*
X143185000Y-112906544D01*
X140627000Y-112906544D01*
X140627000Y-110366544D01*
X140645000Y-110366544D01*
X140645000Y-110633456D01*
X140697072Y-110895239D01*
X140799215Y-111141833D01*
X140947503Y-111363762D01*
X141136238Y-111552497D01*
X141358167Y-111700785D01*
X141604761Y-111802928D01*
X141866544Y-111855000D01*
X142133456Y-111855000D01*
X142395239Y-111802928D01*
X142641833Y-111700785D01*
X142863762Y-111552497D01*
X143052497Y-111363762D01*
X143200785Y-111141833D01*
X143302928Y-110895239D01*
X143355000Y-110633456D01*
X143355000Y-110366544D01*
X161145000Y-110366544D01*
X161145000Y-110633456D01*
X161197072Y-110895239D01*
X161299215Y-111141833D01*
X161447503Y-111363762D01*
X161636238Y-111552497D01*
X161858167Y-111700785D01*
X162104761Y-111802928D01*
X162366544Y-111855000D01*
X162633456Y-111855000D01*
X162895239Y-111802928D01*
X163141833Y-111700785D01*
X163363762Y-111552497D01*
X163552497Y-111363762D01*
X163700785Y-111141833D01*
X163802928Y-110895239D01*
X163855000Y-110633456D01*
X163855000Y-110366544D01*
X163849515Y-110338967D01*
X166765000Y-110338967D01*
X166765000Y-110661033D01*
X166827832Y-110976912D01*
X166951082Y-111274463D01*
X167130013Y-111542252D01*
X167357748Y-111769987D01*
X167625537Y-111948918D01*
X167923088Y-112072168D01*
X168238967Y-112135000D01*
X168561033Y-112135000D01*
X168876912Y-112072168D01*
X169174463Y-111948918D01*
X169442252Y-111769987D01*
X169553860Y-111658379D01*
X169515000Y-111853740D01*
X169515000Y-112146260D01*
X169572068Y-112433158D01*
X169684010Y-112703411D01*
X169846525Y-112946632D01*
X169899893Y-113000000D01*
X169846525Y-113053368D01*
X169684010Y-113296589D01*
X169572068Y-113566842D01*
X169515000Y-113853740D01*
X169515000Y-114146260D01*
X169572068Y-114433158D01*
X169684010Y-114703411D01*
X169846525Y-114946632D01*
X169899893Y-115000000D01*
X169846525Y-115053368D01*
X169684010Y-115296589D01*
X169572068Y-115566842D01*
X169515000Y-115853740D01*
X169515000Y-116146260D01*
X169572068Y-116433158D01*
X169684010Y-116703411D01*
X169846525Y-116946632D01*
X169899893Y-117000000D01*
X169846525Y-117053368D01*
X169684010Y-117296589D01*
X169572068Y-117566842D01*
X169515000Y-117853740D01*
X169515000Y-118146260D01*
X169572068Y-118433158D01*
X169684010Y-118703411D01*
X169846525Y-118946632D01*
X169899893Y-119000000D01*
X169846525Y-119053368D01*
X169684010Y-119296589D01*
X169572068Y-119566842D01*
X169515000Y-119853740D01*
X169515000Y-120146260D01*
X169572068Y-120433158D01*
X169684010Y-120703411D01*
X169846525Y-120946632D01*
X169899893Y-121000000D01*
X169846525Y-121053368D01*
X169684010Y-121296589D01*
X169572068Y-121566842D01*
X169515000Y-121853740D01*
X169515000Y-122146260D01*
X169572068Y-122433158D01*
X169590927Y-122478688D01*
X169442252Y-122330013D01*
X169174463Y-122151082D01*
X168876912Y-122027832D01*
X168561033Y-121965000D01*
X168238967Y-121965000D01*
X167923088Y-122027832D01*
X167625537Y-122151082D01*
X167357748Y-122330013D01*
X167130013Y-122557748D01*
X166951082Y-122825537D01*
X166827832Y-123123088D01*
X166765000Y-123438967D01*
X166765000Y-123761033D01*
X166827832Y-124076912D01*
X166951082Y-124374463D01*
X167130013Y-124642252D01*
X167357748Y-124869987D01*
X167625537Y-125048918D01*
X167923088Y-125172168D01*
X168238967Y-125235000D01*
X168561033Y-125235000D01*
X168876912Y-125172168D01*
X169174463Y-125048918D01*
X169442252Y-124869987D01*
X169669987Y-124642252D01*
X169848918Y-124374463D01*
X169972168Y-124076912D01*
X170035000Y-123761033D01*
X170035000Y-123438967D01*
X169972168Y-123123088D01*
X169936238Y-123036345D01*
X170053368Y-123153475D01*
X170296589Y-123315990D01*
X170566842Y-123427932D01*
X170853740Y-123485000D01*
X171146260Y-123485000D01*
X171433158Y-123427932D01*
X171703411Y-123315990D01*
X171946632Y-123153475D01*
X172063762Y-123036345D01*
X172027832Y-123123088D01*
X171965000Y-123438967D01*
X171965000Y-123761033D01*
X172027832Y-124076912D01*
X172151082Y-124374463D01*
X172330013Y-124642252D01*
X172557748Y-124869987D01*
X172825537Y-125048918D01*
X173123088Y-125172168D01*
X173438967Y-125235000D01*
X173761033Y-125235000D01*
X174076912Y-125172168D01*
X174374463Y-125048918D01*
X174642252Y-124869987D01*
X174869987Y-124642252D01*
X175048918Y-124374463D01*
X175172168Y-124076912D01*
X175188831Y-123993137D01*
X177915000Y-123993137D01*
X177915000Y-124206863D01*
X177956696Y-124416483D01*
X178038485Y-124613940D01*
X178157225Y-124791647D01*
X178308353Y-124942775D01*
X178486060Y-125061515D01*
X178683517Y-125143304D01*
X178893137Y-125185000D01*
X179106863Y-125185000D01*
X179316483Y-125143304D01*
X179513940Y-125061515D01*
X179691647Y-124942775D01*
X179842775Y-124791647D01*
X179961515Y-124613940D01*
X180043304Y-124416483D01*
X180085000Y-124206863D01*
X180085000Y-123993137D01*
X180043304Y-123783517D01*
X179961515Y-123586060D01*
X179842775Y-123408353D01*
X179691647Y-123257225D01*
X179513940Y-123138485D01*
X179316483Y-123056696D01*
X179106863Y-123015000D01*
X178893137Y-123015000D01*
X178683517Y-123056696D01*
X178486060Y-123138485D01*
X178308353Y-123257225D01*
X178157225Y-123408353D01*
X178038485Y-123586060D01*
X177956696Y-123783517D01*
X177915000Y-123993137D01*
X175188831Y-123993137D01*
X175235000Y-123761033D01*
X175235000Y-123438967D01*
X175172168Y-123123088D01*
X175048918Y-122825537D01*
X174869987Y-122557748D01*
X174642252Y-122330013D01*
X174374463Y-122151082D01*
X174076912Y-122027832D01*
X173761033Y-121965000D01*
X173438967Y-121965000D01*
X173123088Y-122027832D01*
X172825537Y-122151082D01*
X172557748Y-122330013D01*
X172409073Y-122478688D01*
X172427932Y-122433158D01*
X172485000Y-122146260D01*
X172485000Y-121853740D01*
X172427932Y-121566842D01*
X172315990Y-121296589D01*
X172153475Y-121053368D01*
X172100107Y-121000000D01*
X172153475Y-120946632D01*
X172315990Y-120703411D01*
X172427932Y-120433158D01*
X172485000Y-120146260D01*
X172485000Y-119853740D01*
X172427932Y-119566842D01*
X172315990Y-119296589D01*
X172153475Y-119053368D01*
X172100107Y-119000000D01*
X172146959Y-118953148D01*
X177354989Y-118953148D01*
X177354989Y-119166874D01*
X177396685Y-119376494D01*
X177478474Y-119573951D01*
X177597214Y-119751658D01*
X177748342Y-119902786D01*
X177926049Y-120021526D01*
X178123506Y-120103315D01*
X178333126Y-120145011D01*
X178546852Y-120145011D01*
X178756472Y-120103315D01*
X178953929Y-120021526D01*
X179131636Y-119902786D01*
X179282764Y-119751658D01*
X179401504Y-119573951D01*
X179449475Y-119458137D01*
X180740000Y-119458137D01*
X180740000Y-119671863D01*
X180781696Y-119881483D01*
X180863485Y-120078940D01*
X180982225Y-120256647D01*
X180990578Y-120265000D01*
X180982225Y-120273353D01*
X180863485Y-120451060D01*
X180781696Y-120648517D01*
X180740000Y-120858137D01*
X180740000Y-121071863D01*
X180781696Y-121281483D01*
X180863485Y-121478940D01*
X180982225Y-121656647D01*
X180990578Y-121665000D01*
X180982225Y-121673353D01*
X180863485Y-121851060D01*
X180781696Y-122048517D01*
X180740000Y-122258137D01*
X180740000Y-122471863D01*
X180781696Y-122681483D01*
X180863485Y-122878940D01*
X180982225Y-123056647D01*
X181133353Y-123207775D01*
X181311060Y-123326515D01*
X181508517Y-123408304D01*
X181718137Y-123450000D01*
X181931863Y-123450000D01*
X182141483Y-123408304D01*
X182168440Y-123397138D01*
X182157225Y-123408353D01*
X182038485Y-123586060D01*
X181956696Y-123783517D01*
X181915000Y-123993137D01*
X181915000Y-124206863D01*
X181956696Y-124416483D01*
X182038485Y-124613940D01*
X182157225Y-124791647D01*
X182308353Y-124942775D01*
X182486060Y-125061515D01*
X182683517Y-125143304D01*
X182893137Y-125185000D01*
X183106863Y-125185000D01*
X183316483Y-125143304D01*
X183513940Y-125061515D01*
X183691647Y-124942775D01*
X183842775Y-124791647D01*
X183961515Y-124613940D01*
X184043304Y-124416483D01*
X184085000Y-124206863D01*
X184085000Y-124093137D01*
X185415000Y-124093137D01*
X185415000Y-124306863D01*
X185456696Y-124516483D01*
X185538485Y-124713940D01*
X185657225Y-124891647D01*
X185808353Y-125042775D01*
X185986060Y-125161515D01*
X186183517Y-125243304D01*
X186393137Y-125285000D01*
X186606863Y-125285000D01*
X186816483Y-125243304D01*
X187013940Y-125161515D01*
X187191647Y-125042775D01*
X187342775Y-124891647D01*
X187461515Y-124713940D01*
X187543304Y-124516483D01*
X187585000Y-124306863D01*
X187585000Y-124093137D01*
X187543304Y-123883517D01*
X187461515Y-123686060D01*
X187342775Y-123508353D01*
X187191647Y-123357225D01*
X187013940Y-123238485D01*
X186816483Y-123156696D01*
X186606863Y-123115000D01*
X186393137Y-123115000D01*
X186183517Y-123156696D01*
X185986060Y-123238485D01*
X185808353Y-123357225D01*
X185657225Y-123508353D01*
X185538485Y-123686060D01*
X185456696Y-123883517D01*
X185415000Y-124093137D01*
X184085000Y-124093137D01*
X184085000Y-123993137D01*
X184043304Y-123783517D01*
X183961515Y-123586060D01*
X183842775Y-123408353D01*
X183752126Y-123317704D01*
X183916647Y-123207775D01*
X184067775Y-123056647D01*
X184186515Y-122878940D01*
X184268304Y-122681483D01*
X184288490Y-122580000D01*
X197233461Y-122580000D01*
X197279510Y-123047542D01*
X197415887Y-123497116D01*
X197637351Y-123911446D01*
X197935391Y-124274609D01*
X198298554Y-124572649D01*
X198712884Y-124794113D01*
X199162458Y-124930490D01*
X199512843Y-124965000D01*
X203247157Y-124965000D01*
X203597542Y-124930490D01*
X204047116Y-124794113D01*
X204461446Y-124572649D01*
X204824609Y-124274609D01*
X205122649Y-123911446D01*
X205344113Y-123497116D01*
X205480490Y-123047542D01*
X205526539Y-122580000D01*
X205480490Y-122112458D01*
X205344113Y-121662884D01*
X205122649Y-121248554D01*
X204824609Y-120885391D01*
X204461446Y-120587351D01*
X204047116Y-120365887D01*
X203597542Y-120229510D01*
X203247157Y-120195000D01*
X199512843Y-120195000D01*
X199162458Y-120229510D01*
X198712884Y-120365887D01*
X198298554Y-120587351D01*
X197935391Y-120885391D01*
X197637351Y-121248554D01*
X197415887Y-121662884D01*
X197279510Y-122112458D01*
X197233461Y-122580000D01*
X184288490Y-122580000D01*
X184310000Y-122471863D01*
X184310000Y-122258137D01*
X184268304Y-122048517D01*
X184186515Y-121851060D01*
X184067775Y-121673353D01*
X184059422Y-121665000D01*
X184067775Y-121656647D01*
X184186515Y-121478940D01*
X184268304Y-121281483D01*
X184310000Y-121071863D01*
X184310000Y-120858137D01*
X184268304Y-120648517D01*
X184186515Y-120451060D01*
X184067775Y-120273353D01*
X184059422Y-120265000D01*
X184067775Y-120256647D01*
X184186515Y-120078940D01*
X184268304Y-119881483D01*
X184310000Y-119671863D01*
X184310000Y-119458137D01*
X184268304Y-119248517D01*
X184186515Y-119051060D01*
X184067775Y-118873353D01*
X183916647Y-118722225D01*
X183738940Y-118603485D01*
X183541483Y-118521696D01*
X183331863Y-118480000D01*
X183118137Y-118480000D01*
X182908517Y-118521696D01*
X182711060Y-118603485D01*
X182533353Y-118722225D01*
X182525000Y-118730578D01*
X182516647Y-118722225D01*
X182338940Y-118603485D01*
X182141483Y-118521696D01*
X181931863Y-118480000D01*
X181718137Y-118480000D01*
X181508517Y-118521696D01*
X181311060Y-118603485D01*
X181133353Y-118722225D01*
X180982225Y-118873353D01*
X180863485Y-119051060D01*
X180781696Y-119248517D01*
X180740000Y-119458137D01*
X179449475Y-119458137D01*
X179483293Y-119376494D01*
X179524989Y-119166874D01*
X179524989Y-118953148D01*
X179483293Y-118743528D01*
X179401504Y-118546071D01*
X179282764Y-118368364D01*
X179131636Y-118217236D01*
X178953929Y-118098496D01*
X178756472Y-118016707D01*
X178546852Y-117975011D01*
X178333126Y-117975011D01*
X178123506Y-118016707D01*
X177926049Y-118098496D01*
X177748342Y-118217236D01*
X177597214Y-118368364D01*
X177478474Y-118546071D01*
X177396685Y-118743528D01*
X177354989Y-118953148D01*
X172146959Y-118953148D01*
X172153475Y-118946632D01*
X172315990Y-118703411D01*
X172427932Y-118433158D01*
X172485000Y-118146260D01*
X172485000Y-117853740D01*
X172427932Y-117566842D01*
X172315990Y-117296589D01*
X172153475Y-117053368D01*
X172100107Y-117000000D01*
X172153475Y-116946632D01*
X172315990Y-116703411D01*
X172427932Y-116433158D01*
X172485000Y-116146260D01*
X172485000Y-115853740D01*
X172427932Y-115566842D01*
X172397403Y-115493137D01*
X173515000Y-115493137D01*
X173515000Y-115706863D01*
X173556696Y-115916483D01*
X173638485Y-116113940D01*
X173757225Y-116291647D01*
X173908353Y-116442775D01*
X174086060Y-116561515D01*
X174283517Y-116643304D01*
X174493137Y-116685000D01*
X174706863Y-116685000D01*
X174916483Y-116643304D01*
X175113940Y-116561515D01*
X175291647Y-116442775D01*
X175442775Y-116291647D01*
X175561515Y-116113940D01*
X175643304Y-115916483D01*
X175685000Y-115706863D01*
X175685000Y-115493137D01*
X175643304Y-115283517D01*
X175561515Y-115086060D01*
X175442775Y-114908353D01*
X175291647Y-114757225D01*
X175113940Y-114638485D01*
X174916483Y-114556696D01*
X174706863Y-114515000D01*
X174493137Y-114515000D01*
X174283517Y-114556696D01*
X174086060Y-114638485D01*
X173908353Y-114757225D01*
X173757225Y-114908353D01*
X173638485Y-115086060D01*
X173556696Y-115283517D01*
X173515000Y-115493137D01*
X172397403Y-115493137D01*
X172315990Y-115296589D01*
X172153475Y-115053368D01*
X172100107Y-115000000D01*
X172153475Y-114946632D01*
X172315990Y-114703411D01*
X172427932Y-114433158D01*
X172485000Y-114146260D01*
X172485000Y-113853740D01*
X172427932Y-113566842D01*
X172315990Y-113296589D01*
X172153475Y-113053368D01*
X172100107Y-113000000D01*
X172146973Y-112953134D01*
X185474997Y-112953134D01*
X185474997Y-113166860D01*
X185516693Y-113376480D01*
X185598482Y-113573937D01*
X185717222Y-113751644D01*
X185868350Y-113902772D01*
X186046057Y-114021512D01*
X186243514Y-114103301D01*
X186453134Y-114144997D01*
X186666860Y-114144997D01*
X186876480Y-114103301D01*
X187073937Y-114021512D01*
X187116403Y-113993137D01*
X188915000Y-113993137D01*
X188915000Y-114206863D01*
X188956696Y-114416483D01*
X189038485Y-114613940D01*
X189157225Y-114791647D01*
X189308353Y-114942775D01*
X189486060Y-115061515D01*
X189683517Y-115143304D01*
X189893137Y-115185000D01*
X190106863Y-115185000D01*
X190316483Y-115143304D01*
X190513940Y-115061515D01*
X190665867Y-114960000D01*
X194408057Y-114960000D01*
X194435764Y-115241309D01*
X194517818Y-115511808D01*
X194651068Y-115761101D01*
X194830392Y-115979608D01*
X195048899Y-116158932D01*
X195181858Y-116230000D01*
X195048899Y-116301068D01*
X194830392Y-116480392D01*
X194651068Y-116698899D01*
X194517818Y-116948192D01*
X194435764Y-117218691D01*
X194408057Y-117500000D01*
X194435764Y-117781309D01*
X194517818Y-118051808D01*
X194651068Y-118301101D01*
X194830392Y-118519608D01*
X195048899Y-118698932D01*
X195298192Y-118832182D01*
X195568691Y-118914236D01*
X195779508Y-118935000D01*
X196820492Y-118935000D01*
X197031309Y-118914236D01*
X197301808Y-118832182D01*
X197551101Y-118698932D01*
X197769608Y-118519608D01*
X197948932Y-118301101D01*
X198082182Y-118051808D01*
X198164236Y-117781309D01*
X198191943Y-117500000D01*
X198164236Y-117218691D01*
X198082182Y-116948192D01*
X197948932Y-116698899D01*
X197769608Y-116480392D01*
X197551101Y-116301068D01*
X197418142Y-116230000D01*
X197551101Y-116158932D01*
X197769608Y-115979608D01*
X197948932Y-115761101D01*
X198082182Y-115511808D01*
X198164236Y-115241309D01*
X198191943Y-114960000D01*
X198164236Y-114678691D01*
X198082182Y-114408192D01*
X197948932Y-114158899D01*
X197769608Y-113940392D01*
X197551101Y-113761068D01*
X197301808Y-113627818D01*
X197031309Y-113545764D01*
X196820492Y-113525000D01*
X195779508Y-113525000D01*
X195568691Y-113545764D01*
X195298192Y-113627818D01*
X195048899Y-113761068D01*
X194830392Y-113940392D01*
X194651068Y-114158899D01*
X194517818Y-114408192D01*
X194435764Y-114678691D01*
X194408057Y-114960000D01*
X190665867Y-114960000D01*
X190691647Y-114942775D01*
X190842775Y-114791647D01*
X190961515Y-114613940D01*
X191043304Y-114416483D01*
X191085000Y-114206863D01*
X191085000Y-114014034D01*
X191191647Y-113942775D01*
X191342775Y-113791647D01*
X191461515Y-113613940D01*
X191543304Y-113416483D01*
X191585000Y-113206863D01*
X191585000Y-112993137D01*
X191543304Y-112783517D01*
X191461515Y-112586060D01*
X191350558Y-112420000D01*
X197233461Y-112420000D01*
X197279510Y-112887542D01*
X197415887Y-113337116D01*
X197637351Y-113751446D01*
X197935391Y-114114609D01*
X198298554Y-114412649D01*
X198712884Y-114634113D01*
X199162458Y-114770490D01*
X199512843Y-114805000D01*
X203247157Y-114805000D01*
X203597542Y-114770490D01*
X204047116Y-114634113D01*
X204461446Y-114412649D01*
X204824609Y-114114609D01*
X205122649Y-113751446D01*
X205344113Y-113337116D01*
X205480490Y-112887542D01*
X205526539Y-112420000D01*
X205480490Y-111952458D01*
X205344113Y-111502884D01*
X205122649Y-111088554D01*
X204824609Y-110725391D01*
X204461446Y-110427351D01*
X204047116Y-110205887D01*
X203597542Y-110069510D01*
X203247157Y-110035000D01*
X199512843Y-110035000D01*
X199162458Y-110069510D01*
X198712884Y-110205887D01*
X198298554Y-110427351D01*
X197935391Y-110725391D01*
X197637351Y-111088554D01*
X197415887Y-111502884D01*
X197279510Y-111952458D01*
X197233461Y-112420000D01*
X191350558Y-112420000D01*
X191342775Y-112408353D01*
X191191647Y-112257225D01*
X191013940Y-112138485D01*
X190816483Y-112056696D01*
X190606863Y-112015000D01*
X190393137Y-112015000D01*
X190183517Y-112056696D01*
X189986060Y-112138485D01*
X189808353Y-112257225D01*
X189657225Y-112408353D01*
X189538485Y-112586060D01*
X189456696Y-112783517D01*
X189415000Y-112993137D01*
X189415000Y-113185966D01*
X189308353Y-113257225D01*
X189157225Y-113408353D01*
X189038485Y-113586060D01*
X188956696Y-113783517D01*
X188915000Y-113993137D01*
X187116403Y-113993137D01*
X187251644Y-113902772D01*
X187402772Y-113751644D01*
X187521512Y-113573937D01*
X187603301Y-113376480D01*
X187644997Y-113166860D01*
X187644997Y-112953134D01*
X187603301Y-112743514D01*
X187521512Y-112546057D01*
X187402772Y-112368350D01*
X187251644Y-112217222D01*
X187073937Y-112098482D01*
X186876480Y-112016693D01*
X186666860Y-111974997D01*
X186453134Y-111974997D01*
X186243514Y-112016693D01*
X186046057Y-112098482D01*
X185868350Y-112217222D01*
X185717222Y-112368350D01*
X185598482Y-112546057D01*
X185516693Y-112743514D01*
X185474997Y-112953134D01*
X172146973Y-112953134D01*
X172153475Y-112946632D01*
X172315990Y-112703411D01*
X172427932Y-112433158D01*
X172485000Y-112146260D01*
X172485000Y-111853740D01*
X172446140Y-111658379D01*
X172557748Y-111769987D01*
X172825537Y-111948918D01*
X173123088Y-112072168D01*
X173438967Y-112135000D01*
X173761033Y-112135000D01*
X174076912Y-112072168D01*
X174374463Y-111948918D01*
X174642252Y-111769987D01*
X174869987Y-111542252D01*
X175048918Y-111274463D01*
X175172168Y-110976912D01*
X175235000Y-110661033D01*
X175235000Y-110338967D01*
X175172168Y-110023088D01*
X175048918Y-109725537D01*
X174869987Y-109457748D01*
X174642252Y-109230013D01*
X174374463Y-109051082D01*
X174076912Y-108927832D01*
X173761033Y-108865000D01*
X173438967Y-108865000D01*
X173123088Y-108927832D01*
X172825537Y-109051082D01*
X172557748Y-109230013D01*
X172330013Y-109457748D01*
X172151082Y-109725537D01*
X172027832Y-110023088D01*
X171965000Y-110338967D01*
X171965000Y-110661033D01*
X172015619Y-110915512D01*
X171946632Y-110846525D01*
X171703411Y-110684010D01*
X171433158Y-110572068D01*
X171146260Y-110515000D01*
X170853740Y-110515000D01*
X170566842Y-110572068D01*
X170296589Y-110684010D01*
X170053368Y-110846525D01*
X169984381Y-110915512D01*
X170035000Y-110661033D01*
X170035000Y-110338967D01*
X169972168Y-110023088D01*
X169848918Y-109725537D01*
X169669987Y-109457748D01*
X169442252Y-109230013D01*
X169174463Y-109051082D01*
X168876912Y-108927832D01*
X168561033Y-108865000D01*
X168238967Y-108865000D01*
X167923088Y-108927832D01*
X167625537Y-109051082D01*
X167357748Y-109230013D01*
X167130013Y-109457748D01*
X166951082Y-109725537D01*
X166827832Y-110023088D01*
X166765000Y-110338967D01*
X163849515Y-110338967D01*
X163802928Y-110104761D01*
X163700785Y-109858167D01*
X163552497Y-109636238D01*
X163363762Y-109447503D01*
X163141833Y-109299215D01*
X162895239Y-109197072D01*
X162633456Y-109145000D01*
X162366544Y-109145000D01*
X162104761Y-109197072D01*
X161858167Y-109299215D01*
X161636238Y-109447503D01*
X161447503Y-109636238D01*
X161299215Y-109858167D01*
X161197072Y-110104761D01*
X161145000Y-110366544D01*
X143355000Y-110366544D01*
X143302928Y-110104761D01*
X143200785Y-109858167D01*
X143052497Y-109636238D01*
X142863762Y-109447503D01*
X142641833Y-109299215D01*
X142395239Y-109197072D01*
X142133456Y-109145000D01*
X141866544Y-109145000D01*
X141604761Y-109197072D01*
X141358167Y-109299215D01*
X141136238Y-109447503D01*
X140947503Y-109636238D01*
X140799215Y-109858167D01*
X140697072Y-110104761D01*
X140645000Y-110366544D01*
X140627000Y-110366544D01*
X140627000Y-107893137D01*
X152415000Y-107893137D01*
X152415000Y-108106863D01*
X152456696Y-108316483D01*
X152538485Y-108513940D01*
X152657225Y-108691647D01*
X152808353Y-108842775D01*
X152986060Y-108961515D01*
X153183517Y-109043304D01*
X153393137Y-109085000D01*
X153606863Y-109085000D01*
X153816483Y-109043304D01*
X154013940Y-108961515D01*
X154191647Y-108842775D01*
X154342775Y-108691647D01*
X154400000Y-108606004D01*
X154457225Y-108691647D01*
X154608353Y-108842775D01*
X154786060Y-108961515D01*
X154983517Y-109043304D01*
X155193137Y-109085000D01*
X155406863Y-109085000D01*
X155616483Y-109043304D01*
X155813940Y-108961515D01*
X155991647Y-108842775D01*
X156142775Y-108691647D01*
X156261515Y-108513940D01*
X156343304Y-108316483D01*
X156385000Y-108106863D01*
X156385000Y-107893137D01*
X156343304Y-107683517D01*
X156261515Y-107486060D01*
X156142775Y-107308353D01*
X155991647Y-107157225D01*
X155813940Y-107038485D01*
X155616483Y-106956696D01*
X155406863Y-106915000D01*
X155193137Y-106915000D01*
X154983517Y-106956696D01*
X154786060Y-107038485D01*
X154608353Y-107157225D01*
X154457225Y-107308353D01*
X154400000Y-107393996D01*
X154342775Y-107308353D01*
X154191647Y-107157225D01*
X154013940Y-107038485D01*
X153816483Y-106956696D01*
X153606863Y-106915000D01*
X153393137Y-106915000D01*
X153183517Y-106956696D01*
X152986060Y-107038485D01*
X152808353Y-107157225D01*
X152657225Y-107308353D01*
X152538485Y-107486060D01*
X152456696Y-107683517D01*
X152415000Y-107893137D01*
X140627000Y-107893137D01*
X140627000Y-106385971D01*
X140691647Y-106342775D01*
X140715000Y-106319422D01*
X140715000Y-106356863D01*
X140756696Y-106566483D01*
X140838485Y-106763940D01*
X140957225Y-106941647D01*
X141108353Y-107092775D01*
X141286060Y-107211515D01*
X141483517Y-107293304D01*
X141693137Y-107335000D01*
X141906863Y-107335000D01*
X142116483Y-107293304D01*
X142313940Y-107211515D01*
X142491647Y-107092775D01*
X142642775Y-106941647D01*
X142761515Y-106763940D01*
X142843304Y-106566483D01*
X142885000Y-106356863D01*
X142885000Y-106143137D01*
X142843304Y-105933517D01*
X142761515Y-105736060D01*
X142642775Y-105558353D01*
X142491647Y-105407225D01*
X142470563Y-105393137D01*
X144415000Y-105393137D01*
X144415000Y-105606863D01*
X144456696Y-105816483D01*
X144538485Y-106013940D01*
X144657225Y-106191647D01*
X144808353Y-106342775D01*
X144986060Y-106461515D01*
X145183517Y-106543304D01*
X145393137Y-106585000D01*
X145606863Y-106585000D01*
X145816483Y-106543304D01*
X146013940Y-106461515D01*
X146191647Y-106342775D01*
X146342775Y-106191647D01*
X146461515Y-106013940D01*
X146543304Y-105816483D01*
X146567839Y-105693137D01*
X157715000Y-105693137D01*
X157715000Y-105906863D01*
X157756696Y-106116483D01*
X157838485Y-106313940D01*
X157957225Y-106491647D01*
X158108353Y-106642775D01*
X158286060Y-106761515D01*
X158483517Y-106843304D01*
X158693137Y-106885000D01*
X158906863Y-106885000D01*
X159116483Y-106843304D01*
X159313940Y-106761515D01*
X159491647Y-106642775D01*
X159642775Y-106491647D01*
X159761515Y-106313940D01*
X159843304Y-106116483D01*
X159885000Y-105906863D01*
X159885000Y-105693137D01*
X159843304Y-105483517D01*
X159761515Y-105286060D01*
X159642775Y-105108353D01*
X159491647Y-104957225D01*
X159313940Y-104838485D01*
X159116483Y-104756696D01*
X158906863Y-104715000D01*
X158693137Y-104715000D01*
X158483517Y-104756696D01*
X158286060Y-104838485D01*
X158108353Y-104957225D01*
X157957225Y-105108353D01*
X157838485Y-105286060D01*
X157756696Y-105483517D01*
X157715000Y-105693137D01*
X146567839Y-105693137D01*
X146585000Y-105606863D01*
X146585000Y-105393137D01*
X146543304Y-105183517D01*
X146461515Y-104986060D01*
X146342775Y-104808353D01*
X146191647Y-104657225D01*
X146095733Y-104593137D01*
X185315000Y-104593137D01*
X185315000Y-104806863D01*
X185356696Y-105016483D01*
X185438485Y-105213940D01*
X185557225Y-105391647D01*
X185708353Y-105542775D01*
X185886060Y-105661515D01*
X186083517Y-105743304D01*
X186293137Y-105785000D01*
X186506863Y-105785000D01*
X186716483Y-105743304D01*
X186913940Y-105661515D01*
X187091647Y-105542775D01*
X187242775Y-105391647D01*
X187361515Y-105213940D01*
X187443304Y-105016483D01*
X187485000Y-104806863D01*
X187485000Y-104593137D01*
X187443304Y-104383517D01*
X187361515Y-104186060D01*
X187242775Y-104008353D01*
X187091647Y-103857225D01*
X186913940Y-103738485D01*
X186716483Y-103656696D01*
X186506863Y-103615000D01*
X186293137Y-103615000D01*
X186083517Y-103656696D01*
X185886060Y-103738485D01*
X185708353Y-103857225D01*
X185557225Y-104008353D01*
X185438485Y-104186060D01*
X185356696Y-104383517D01*
X185315000Y-104593137D01*
X146095733Y-104593137D01*
X146013940Y-104538485D01*
X145816483Y-104456696D01*
X145606863Y-104415000D01*
X145393137Y-104415000D01*
X145183517Y-104456696D01*
X144986060Y-104538485D01*
X144808353Y-104657225D01*
X144657225Y-104808353D01*
X144538485Y-104986060D01*
X144456696Y-105183517D01*
X144415000Y-105393137D01*
X142470563Y-105393137D01*
X142313940Y-105288485D01*
X142116483Y-105206696D01*
X141906863Y-105165000D01*
X141693137Y-105165000D01*
X141483517Y-105206696D01*
X141286060Y-105288485D01*
X141108353Y-105407225D01*
X141085000Y-105430578D01*
X141085000Y-105393137D01*
X141043304Y-105183517D01*
X140961515Y-104986060D01*
X140842775Y-104808353D01*
X140691647Y-104657225D01*
X140627000Y-104614029D01*
X140627000Y-103885971D01*
X140691647Y-103842775D01*
X140807422Y-103727000D01*
X149700000Y-103727000D01*
X149724776Y-103724560D01*
X149748601Y-103717333D01*
X149770557Y-103705597D01*
X149789803Y-103689803D01*
X150386469Y-103093137D01*
X154015000Y-103093137D01*
X154015000Y-103306863D01*
X154056696Y-103516483D01*
X154138485Y-103713940D01*
X154257225Y-103891647D01*
X154408353Y-104042775D01*
X154586060Y-104161515D01*
X154783517Y-104243304D01*
X154993137Y-104285000D01*
X155206863Y-104285000D01*
X155416483Y-104243304D01*
X155613940Y-104161515D01*
X155791647Y-104042775D01*
X155942775Y-103891647D01*
X156061515Y-103713940D01*
X156143304Y-103516483D01*
X156185000Y-103306863D01*
X156185000Y-103093137D01*
X170115000Y-103093137D01*
X170115000Y-103306863D01*
X170156696Y-103516483D01*
X170238485Y-103713940D01*
X170357225Y-103891647D01*
X170508353Y-104042775D01*
X170686060Y-104161515D01*
X170883517Y-104243304D01*
X171093137Y-104285000D01*
X171306863Y-104285000D01*
X171516483Y-104243304D01*
X171713940Y-104161515D01*
X171891647Y-104042775D01*
X172042775Y-103891647D01*
X172161515Y-103713940D01*
X172243304Y-103516483D01*
X172285000Y-103306863D01*
X172285000Y-103093137D01*
X172243304Y-102883517D01*
X172161515Y-102686060D01*
X172042775Y-102508353D01*
X171891647Y-102357225D01*
X171713940Y-102238485D01*
X171516483Y-102156696D01*
X171306863Y-102115000D01*
X171093137Y-102115000D01*
X170883517Y-102156696D01*
X170686060Y-102238485D01*
X170508353Y-102357225D01*
X170357225Y-102508353D01*
X170238485Y-102686060D01*
X170156696Y-102883517D01*
X170115000Y-103093137D01*
X156185000Y-103093137D01*
X156143304Y-102883517D01*
X156061515Y-102686060D01*
X155942775Y-102508353D01*
X155791647Y-102357225D01*
X155613940Y-102238485D01*
X155416483Y-102156696D01*
X155206863Y-102115000D01*
X154993137Y-102115000D01*
X154783517Y-102156696D01*
X154586060Y-102238485D01*
X154408353Y-102357225D01*
X154257225Y-102508353D01*
X154138485Y-102686060D01*
X154056696Y-102883517D01*
X154015000Y-103093137D01*
X150386469Y-103093137D01*
X150752606Y-102727000D01*
X153200000Y-102727000D01*
X153224776Y-102724560D01*
X153248601Y-102717333D01*
X153270557Y-102705597D01*
X153289803Y-102689803D01*
X153305597Y-102670557D01*
X153317333Y-102648601D01*
X153324560Y-102624776D01*
X153327000Y-102600000D01*
X153327000Y-101798137D01*
X157715000Y-101798137D01*
X157715000Y-102011863D01*
X157756696Y-102221483D01*
X157838485Y-102418940D01*
X157957225Y-102596647D01*
X158108353Y-102747775D01*
X158286060Y-102866515D01*
X158483517Y-102948304D01*
X158693137Y-102990000D01*
X158906863Y-102990000D01*
X159116483Y-102948304D01*
X159313940Y-102866515D01*
X159491647Y-102747775D01*
X159642775Y-102596647D01*
X159761515Y-102418940D01*
X159843304Y-102221483D01*
X159885000Y-102011863D01*
X159885000Y-101798137D01*
X159843304Y-101588517D01*
X159761515Y-101391060D01*
X159642775Y-101213353D01*
X159491647Y-101062225D01*
X159313940Y-100943485D01*
X159116483Y-100861696D01*
X158906863Y-100820000D01*
X158693137Y-100820000D01*
X158483517Y-100861696D01*
X158286060Y-100943485D01*
X158108353Y-101062225D01*
X157957225Y-101213353D01*
X157838485Y-101391060D01*
X157756696Y-101588517D01*
X157715000Y-101798137D01*
X153327000Y-101798137D01*
X153327000Y-101400000D01*
X153324560Y-101375224D01*
X153317333Y-101351399D01*
X153305597Y-101329443D01*
X153289803Y-101310197D01*
X153270557Y-101294403D01*
X153248601Y-101282667D01*
X153224776Y-101275440D01*
X153200000Y-101273000D01*
X150700000Y-101273000D01*
X150675224Y-101275440D01*
X150651399Y-101282667D01*
X150629443Y-101294403D01*
X150610197Y-101310197D01*
X149847394Y-102073000D01*
X148052606Y-102073000D01*
X147727000Y-101747394D01*
X147727000Y-100978473D01*
X147883517Y-101043304D01*
X148093137Y-101085000D01*
X148306863Y-101085000D01*
X148516483Y-101043304D01*
X148713940Y-100961515D01*
X148799998Y-100904013D01*
X148886056Y-100961515D01*
X149083513Y-101043304D01*
X149293133Y-101085000D01*
X149506859Y-101085000D01*
X149716479Y-101043304D01*
X149913936Y-100961515D01*
X150091643Y-100842775D01*
X150242771Y-100691647D01*
X150259544Y-100666544D01*
X166945000Y-100666544D01*
X166945000Y-100933456D01*
X166997072Y-101195239D01*
X167099215Y-101441833D01*
X167247503Y-101663762D01*
X167436238Y-101852497D01*
X167658167Y-102000785D01*
X167904761Y-102102928D01*
X168166544Y-102155000D01*
X168433456Y-102155000D01*
X168695239Y-102102928D01*
X168941833Y-102000785D01*
X169163762Y-101852497D01*
X169352497Y-101663762D01*
X169500785Y-101441833D01*
X169602928Y-101195239D01*
X169655000Y-100933456D01*
X169655000Y-100666544D01*
X172025000Y-100666544D01*
X172025000Y-100933456D01*
X172077072Y-101195239D01*
X172179215Y-101441833D01*
X172327503Y-101663762D01*
X172516238Y-101852497D01*
X172738167Y-102000785D01*
X172984761Y-102102928D01*
X173246544Y-102155000D01*
X173513456Y-102155000D01*
X173775239Y-102102928D01*
X174021833Y-102000785D01*
X174243762Y-101852497D01*
X174303122Y-101793137D01*
X190215000Y-101793137D01*
X190215000Y-102006863D01*
X190256696Y-102216483D01*
X190338485Y-102413940D01*
X190457225Y-102591647D01*
X190608353Y-102742775D01*
X190786060Y-102861515D01*
X190983517Y-102943304D01*
X191193137Y-102985000D01*
X191406863Y-102985000D01*
X191616483Y-102943304D01*
X191813940Y-102861515D01*
X191916274Y-102793137D01*
X196115000Y-102793137D01*
X196115000Y-103006863D01*
X196156696Y-103216483D01*
X196238485Y-103413940D01*
X196357225Y-103591647D01*
X196508353Y-103742775D01*
X196686060Y-103861515D01*
X196883517Y-103943304D01*
X197093137Y-103985000D01*
X197306863Y-103985000D01*
X197516483Y-103943304D01*
X197713940Y-103861515D01*
X197891647Y-103742775D01*
X198042775Y-103591647D01*
X198161515Y-103413940D01*
X198243304Y-103216483D01*
X198285000Y-103006863D01*
X198285000Y-102793137D01*
X198243304Y-102583517D01*
X198161515Y-102386060D01*
X198042775Y-102208353D01*
X197891647Y-102057225D01*
X197713940Y-101938485D01*
X197516483Y-101856696D01*
X197306863Y-101815000D01*
X197093137Y-101815000D01*
X196883517Y-101856696D01*
X196686060Y-101938485D01*
X196508353Y-102057225D01*
X196357225Y-102208353D01*
X196238485Y-102386060D01*
X196156696Y-102583517D01*
X196115000Y-102793137D01*
X191916274Y-102793137D01*
X191991647Y-102742775D01*
X192142775Y-102591647D01*
X192261515Y-102413940D01*
X192343304Y-102216483D01*
X192385000Y-102006863D01*
X192385000Y-101793137D01*
X192343304Y-101583517D01*
X192261515Y-101386060D01*
X192142775Y-101208353D01*
X191991647Y-101057225D01*
X191813940Y-100938485D01*
X191616483Y-100856696D01*
X191406863Y-100815000D01*
X191193137Y-100815000D01*
X190983517Y-100856696D01*
X190786060Y-100938485D01*
X190608353Y-101057225D01*
X190457225Y-101208353D01*
X190338485Y-101386060D01*
X190256696Y-101583517D01*
X190215000Y-101793137D01*
X174303122Y-101793137D01*
X174432497Y-101663762D01*
X174580785Y-101441833D01*
X174682928Y-101195239D01*
X174735000Y-100933456D01*
X174735000Y-100666544D01*
X174682928Y-100404761D01*
X174580785Y-100158167D01*
X174432497Y-99936238D01*
X174243762Y-99747503D01*
X174021833Y-99599215D01*
X173775239Y-99497072D01*
X173513456Y-99445000D01*
X173246544Y-99445000D01*
X172984761Y-99497072D01*
X172738167Y-99599215D01*
X172516238Y-99747503D01*
X172327503Y-99936238D01*
X172179215Y-100158167D01*
X172077072Y-100404761D01*
X172025000Y-100666544D01*
X169655000Y-100666544D01*
X169602928Y-100404761D01*
X169500785Y-100158167D01*
X169352497Y-99936238D01*
X169163762Y-99747503D01*
X168941833Y-99599215D01*
X168695239Y-99497072D01*
X168433456Y-99445000D01*
X168166544Y-99445000D01*
X167904761Y-99497072D01*
X167658167Y-99599215D01*
X167436238Y-99747503D01*
X167247503Y-99936238D01*
X167099215Y-100158167D01*
X166997072Y-100404761D01*
X166945000Y-100666544D01*
X150259544Y-100666544D01*
X150361511Y-100513940D01*
X150443300Y-100316483D01*
X150484996Y-100106863D01*
X150484996Y-99893137D01*
X150443300Y-99683517D01*
X150361511Y-99486060D01*
X150242771Y-99308353D01*
X150091643Y-99157225D01*
X149913936Y-99038485D01*
X149716479Y-98956696D01*
X149506859Y-98915000D01*
X149293133Y-98915000D01*
X149083513Y-98956696D01*
X148886056Y-99038485D01*
X148799998Y-99095987D01*
X148713940Y-99038485D01*
X148516483Y-98956696D01*
X148306863Y-98915000D01*
X148093137Y-98915000D01*
X147883517Y-98956696D01*
X147727000Y-99021527D01*
X147727000Y-97927000D01*
X149747394Y-97927000D01*
X150510197Y-98689803D01*
X150529443Y-98705597D01*
X150551399Y-98717333D01*
X150575224Y-98724560D01*
X150600000Y-98727000D01*
X153200000Y-98727000D01*
X153224776Y-98724560D01*
X153248601Y-98717333D01*
X153270557Y-98705597D01*
X153289803Y-98689803D01*
X153305597Y-98670557D01*
X153317333Y-98648601D01*
X153324560Y-98624776D01*
X153327000Y-98600000D01*
X153327000Y-98126544D01*
X169485000Y-98126544D01*
X169485000Y-98393456D01*
X169537072Y-98655239D01*
X169639215Y-98901833D01*
X169787503Y-99123762D01*
X169976238Y-99312497D01*
X170198167Y-99460785D01*
X170444761Y-99562928D01*
X170706544Y-99615000D01*
X170973456Y-99615000D01*
X171235239Y-99562928D01*
X171481833Y-99460785D01*
X171703762Y-99312497D01*
X171892497Y-99123762D01*
X171908374Y-99100000D01*
X199261928Y-99100000D01*
X199261928Y-100900000D01*
X199274188Y-101024482D01*
X199310498Y-101144180D01*
X199369463Y-101254494D01*
X199448815Y-101351185D01*
X199545506Y-101430537D01*
X199655820Y-101489502D01*
X199775518Y-101525812D01*
X199900000Y-101538072D01*
X201700000Y-101538072D01*
X201824482Y-101525812D01*
X201944180Y-101489502D01*
X202054494Y-101430537D01*
X202151185Y-101351185D01*
X202230537Y-101254494D01*
X202289502Y-101144180D01*
X202295056Y-101125873D01*
X202361495Y-101192312D01*
X202612905Y-101360299D01*
X202892257Y-101476011D01*
X203188816Y-101535000D01*
X203491184Y-101535000D01*
X203787743Y-101476011D01*
X204067095Y-101360299D01*
X204318505Y-101192312D01*
X204532312Y-100978505D01*
X204700299Y-100727095D01*
X204816011Y-100447743D01*
X204875000Y-100151184D01*
X204875000Y-99848816D01*
X204816011Y-99552257D01*
X204700299Y-99272905D01*
X204532312Y-99021495D01*
X204318505Y-98807688D01*
X204067095Y-98639701D01*
X203787743Y-98523989D01*
X203491184Y-98465000D01*
X203188816Y-98465000D01*
X202892257Y-98523989D01*
X202612905Y-98639701D01*
X202361495Y-98807688D01*
X202295056Y-98874127D01*
X202289502Y-98855820D01*
X202230537Y-98745506D01*
X202151185Y-98648815D01*
X202054494Y-98569463D01*
X201944180Y-98510498D01*
X201824482Y-98474188D01*
X201700000Y-98461928D01*
X199900000Y-98461928D01*
X199775518Y-98474188D01*
X199655820Y-98510498D01*
X199545506Y-98569463D01*
X199448815Y-98648815D01*
X199369463Y-98745506D01*
X199310498Y-98855820D01*
X199274188Y-98975518D01*
X199261928Y-99100000D01*
X171908374Y-99100000D01*
X172040785Y-98901833D01*
X172142928Y-98655239D01*
X172195000Y-98393456D01*
X172195000Y-98126544D01*
X172142928Y-97864761D01*
X172040785Y-97618167D01*
X171892497Y-97396238D01*
X171703762Y-97207503D01*
X171481833Y-97059215D01*
X171235239Y-96957072D01*
X170973456Y-96905000D01*
X170706544Y-96905000D01*
X170444761Y-96957072D01*
X170198167Y-97059215D01*
X169976238Y-97207503D01*
X169787503Y-97396238D01*
X169639215Y-97618167D01*
X169537072Y-97864761D01*
X169485000Y-98126544D01*
X153327000Y-98126544D01*
X153327000Y-97455235D01*
X153486060Y-97561515D01*
X153683517Y-97643304D01*
X153893137Y-97685000D01*
X154106863Y-97685000D01*
X154316483Y-97643304D01*
X154513940Y-97561515D01*
X154691647Y-97442775D01*
X154842775Y-97291647D01*
X154961515Y-97113940D01*
X155043304Y-96916483D01*
X155085000Y-96706863D01*
X155085000Y-96493137D01*
X155043304Y-96283517D01*
X154961515Y-96086060D01*
X154842775Y-95908353D01*
X154691647Y-95757225D01*
X154513940Y-95638485D01*
X154316483Y-95556696D01*
X154106863Y-95515000D01*
X153893137Y-95515000D01*
X153683517Y-95556696D01*
X153486060Y-95638485D01*
X153308353Y-95757225D01*
X153157225Y-95908353D01*
X153038485Y-96086060D01*
X152956696Y-96283517D01*
X152915000Y-96493137D01*
X152915000Y-96706863D01*
X152956696Y-96916483D01*
X153038485Y-97113940D01*
X153144765Y-97273000D01*
X150652606Y-97273000D01*
X149689803Y-96310197D01*
X149670557Y-96294403D01*
X149648601Y-96282667D01*
X149624776Y-96275440D01*
X149600000Y-96273000D01*
X140807436Y-96273000D01*
X140691661Y-96157225D01*
X140627000Y-96114020D01*
X140627000Y-95385971D01*
X140691647Y-95342775D01*
X140842775Y-95191647D01*
X140961515Y-95013940D01*
X141043304Y-94816483D01*
X141085000Y-94606863D01*
X141085000Y-94393137D01*
X141043304Y-94183517D01*
X140961515Y-93986060D01*
X140842775Y-93808353D01*
X140691647Y-93657225D01*
X140670519Y-93643107D01*
X142615000Y-93643107D01*
X142615000Y-93856833D01*
X142656696Y-94066453D01*
X142738485Y-94263910D01*
X142857225Y-94441617D01*
X143008353Y-94592745D01*
X143186060Y-94711485D01*
X143383517Y-94793274D01*
X143593137Y-94834970D01*
X143806863Y-94834970D01*
X144016483Y-94793274D01*
X144213940Y-94711485D01*
X144391647Y-94592745D01*
X144415000Y-94569392D01*
X144415000Y-94606863D01*
X144456696Y-94816483D01*
X144538485Y-95013940D01*
X144657225Y-95191647D01*
X144808353Y-95342775D01*
X144986060Y-95461515D01*
X145183517Y-95543304D01*
X145393137Y-95585000D01*
X145606863Y-95585000D01*
X145816483Y-95543304D01*
X146013940Y-95461515D01*
X146191647Y-95342775D01*
X146342775Y-95191647D01*
X146461515Y-95013940D01*
X146543304Y-94816483D01*
X146585000Y-94606863D01*
X146585000Y-94393137D01*
X146543304Y-94183517D01*
X146505868Y-94093137D01*
X157715000Y-94093137D01*
X157715000Y-94306863D01*
X157756696Y-94516483D01*
X157838485Y-94713940D01*
X157957225Y-94891647D01*
X158108353Y-95042775D01*
X158286060Y-95161515D01*
X158483517Y-95243304D01*
X158693137Y-95285000D01*
X158906863Y-95285000D01*
X159116483Y-95243304D01*
X159313940Y-95161515D01*
X159491647Y-95042775D01*
X159642775Y-94891647D01*
X159761515Y-94713940D01*
X159843304Y-94516483D01*
X159885000Y-94306863D01*
X159885000Y-94093137D01*
X159843304Y-93883517D01*
X159761515Y-93686060D01*
X159642775Y-93508353D01*
X159491647Y-93357225D01*
X159313940Y-93238485D01*
X159116483Y-93156696D01*
X158906863Y-93115000D01*
X158693137Y-93115000D01*
X158483517Y-93156696D01*
X158286060Y-93238485D01*
X158108353Y-93357225D01*
X157957225Y-93508353D01*
X157838485Y-93686060D01*
X157756696Y-93883517D01*
X157715000Y-94093137D01*
X146505868Y-94093137D01*
X146461515Y-93986060D01*
X146342775Y-93808353D01*
X146191647Y-93657225D01*
X146013940Y-93538485D01*
X145816483Y-93456696D01*
X145606863Y-93415000D01*
X145393137Y-93415000D01*
X145183517Y-93456696D01*
X144986060Y-93538485D01*
X144808353Y-93657225D01*
X144785000Y-93680578D01*
X144785000Y-93643107D01*
X144743304Y-93433487D01*
X144661515Y-93236030D01*
X144542775Y-93058323D01*
X144391647Y-92907195D01*
X144213940Y-92788455D01*
X144016483Y-92706666D01*
X143806863Y-92664970D01*
X143593137Y-92664970D01*
X143383517Y-92706666D01*
X143186060Y-92788455D01*
X143008353Y-92907195D01*
X142857225Y-93058323D01*
X142738485Y-93236030D01*
X142656696Y-93433487D01*
X142615000Y-93643107D01*
X140670519Y-93643107D01*
X140627000Y-93614029D01*
X140627000Y-89893137D01*
X147715000Y-89893137D01*
X147715000Y-90106863D01*
X147756696Y-90316483D01*
X147838485Y-90513940D01*
X147957225Y-90691647D01*
X148108353Y-90842775D01*
X148286060Y-90961515D01*
X148483517Y-91043304D01*
X148693137Y-91085000D01*
X148906863Y-91085000D01*
X149116483Y-91043304D01*
X149313940Y-90961515D01*
X149491647Y-90842775D01*
X149642775Y-90691647D01*
X149761515Y-90513940D01*
X149843304Y-90316483D01*
X149885000Y-90106863D01*
X149885000Y-89893137D01*
X149843304Y-89683517D01*
X149761515Y-89486060D01*
X149642775Y-89308353D01*
X149491647Y-89157225D01*
X149313940Y-89038485D01*
X149204460Y-88993137D01*
X151615000Y-88993137D01*
X151615000Y-89206863D01*
X151656696Y-89416483D01*
X151738485Y-89613940D01*
X151857225Y-89791647D01*
X152008353Y-89942775D01*
X152186060Y-90061515D01*
X152383517Y-90143304D01*
X152593137Y-90185000D01*
X152806863Y-90185000D01*
X153016483Y-90143304D01*
X153213940Y-90061515D01*
X153391647Y-89942775D01*
X153441285Y-89893137D01*
X158915000Y-89893137D01*
X158915000Y-90106863D01*
X158956696Y-90316483D01*
X159038485Y-90513940D01*
X159157225Y-90691647D01*
X159308353Y-90842775D01*
X159486060Y-90961515D01*
X159683517Y-91043304D01*
X159893137Y-91085000D01*
X160106863Y-91085000D01*
X160316483Y-91043304D01*
X160513940Y-90961515D01*
X160691647Y-90842775D01*
X160842775Y-90691647D01*
X160961515Y-90513940D01*
X160973053Y-90486085D01*
X161051082Y-90674463D01*
X161230013Y-90942252D01*
X161457748Y-91169987D01*
X161725537Y-91348918D01*
X162023088Y-91472168D01*
X162338967Y-91535000D01*
X162661033Y-91535000D01*
X162915512Y-91484381D01*
X162846525Y-91553368D01*
X162684010Y-91796589D01*
X162572068Y-92066842D01*
X162515000Y-92353740D01*
X162515000Y-92646260D01*
X162572068Y-92933158D01*
X162684010Y-93203411D01*
X162846525Y-93446632D01*
X162915512Y-93515619D01*
X162661033Y-93465000D01*
X162338967Y-93465000D01*
X162023088Y-93527832D01*
X161725537Y-93651082D01*
X161457748Y-93830013D01*
X161230013Y-94057748D01*
X161051082Y-94325537D01*
X160927832Y-94623088D01*
X160865000Y-94938967D01*
X160865000Y-95261033D01*
X160927832Y-95576912D01*
X161051082Y-95874463D01*
X161230013Y-96142252D01*
X161457748Y-96369987D01*
X161725537Y-96548918D01*
X162023088Y-96672168D01*
X162338967Y-96735000D01*
X162661033Y-96735000D01*
X162976912Y-96672168D01*
X163274463Y-96548918D01*
X163542252Y-96369987D01*
X163769987Y-96142252D01*
X163948918Y-95874463D01*
X164072168Y-95576912D01*
X164135000Y-95261033D01*
X164135000Y-94938967D01*
X164072168Y-94623088D01*
X163948918Y-94325537D01*
X163769987Y-94057748D01*
X163658379Y-93946140D01*
X163853740Y-93985000D01*
X164146260Y-93985000D01*
X164433158Y-93927932D01*
X164703411Y-93815990D01*
X164946632Y-93653475D01*
X165000000Y-93600107D01*
X165053368Y-93653475D01*
X165296589Y-93815990D01*
X165566842Y-93927932D01*
X165853740Y-93985000D01*
X166146260Y-93985000D01*
X166433158Y-93927932D01*
X166703411Y-93815990D01*
X166946632Y-93653475D01*
X167000000Y-93600107D01*
X167053368Y-93653475D01*
X167296589Y-93815990D01*
X167566842Y-93927932D01*
X167853740Y-93985000D01*
X168146260Y-93985000D01*
X168433158Y-93927932D01*
X168703411Y-93815990D01*
X168946632Y-93653475D01*
X169000000Y-93600107D01*
X169053368Y-93653475D01*
X169296589Y-93815990D01*
X169566842Y-93927932D01*
X169853740Y-93985000D01*
X170146260Y-93985000D01*
X170433158Y-93927932D01*
X170703411Y-93815990D01*
X170946632Y-93653475D01*
X171000000Y-93600107D01*
X171053368Y-93653475D01*
X171296589Y-93815990D01*
X171566842Y-93927932D01*
X171853740Y-93985000D01*
X172146260Y-93985000D01*
X172433158Y-93927932D01*
X172703411Y-93815990D01*
X172946632Y-93653475D01*
X173000000Y-93600107D01*
X173053368Y-93653475D01*
X173296589Y-93815990D01*
X173566842Y-93927932D01*
X173853740Y-93985000D01*
X174146260Y-93985000D01*
X174433158Y-93927932D01*
X174478688Y-93909073D01*
X174330013Y-94057748D01*
X174151082Y-94325537D01*
X174027832Y-94623088D01*
X173965000Y-94938967D01*
X173965000Y-95261033D01*
X174027832Y-95576912D01*
X174151082Y-95874463D01*
X174330013Y-96142252D01*
X174557748Y-96369987D01*
X174825537Y-96548918D01*
X175123088Y-96672168D01*
X175438967Y-96735000D01*
X175761033Y-96735000D01*
X176076912Y-96672168D01*
X176374463Y-96548918D01*
X176642252Y-96369987D01*
X176869987Y-96142252D01*
X177048918Y-95874463D01*
X177172168Y-95576912D01*
X177235000Y-95261033D01*
X177235000Y-94938967D01*
X177172168Y-94623088D01*
X177048918Y-94325537D01*
X176869987Y-94057748D01*
X176642252Y-93830013D01*
X176374463Y-93651082D01*
X176076912Y-93527832D01*
X175761033Y-93465000D01*
X175438967Y-93465000D01*
X175123088Y-93527832D01*
X175036345Y-93563762D01*
X175153475Y-93446632D01*
X175315990Y-93203411D01*
X175427932Y-92933158D01*
X175485000Y-92646260D01*
X175485000Y-92353740D01*
X175427932Y-92066842D01*
X175315990Y-91796589D01*
X175153475Y-91553368D01*
X175036345Y-91436238D01*
X175123088Y-91472168D01*
X175438967Y-91535000D01*
X175761033Y-91535000D01*
X176076912Y-91472168D01*
X176374463Y-91348918D01*
X176642252Y-91169987D01*
X176869987Y-90942252D01*
X177048918Y-90674463D01*
X177172168Y-90376912D01*
X177235000Y-90061033D01*
X177235000Y-89738967D01*
X177172168Y-89423088D01*
X177048918Y-89125537D01*
X176869987Y-88857748D01*
X176642252Y-88630013D01*
X176374463Y-88451082D01*
X176076912Y-88327832D01*
X175761033Y-88265000D01*
X175438967Y-88265000D01*
X175123088Y-88327832D01*
X174825537Y-88451082D01*
X174557748Y-88630013D01*
X174330013Y-88857748D01*
X174151082Y-89125537D01*
X174027832Y-89423088D01*
X173965000Y-89738967D01*
X173965000Y-90061033D01*
X174027832Y-90376912D01*
X174151082Y-90674463D01*
X174330013Y-90942252D01*
X174478688Y-91090927D01*
X174433158Y-91072068D01*
X174146260Y-91015000D01*
X173853740Y-91015000D01*
X173566842Y-91072068D01*
X173296589Y-91184010D01*
X173053368Y-91346525D01*
X173000000Y-91399893D01*
X172946632Y-91346525D01*
X172703411Y-91184010D01*
X172433158Y-91072068D01*
X172146260Y-91015000D01*
X171853740Y-91015000D01*
X171566842Y-91072068D01*
X171296589Y-91184010D01*
X171053368Y-91346525D01*
X171000000Y-91399893D01*
X170946632Y-91346525D01*
X170703411Y-91184010D01*
X170433158Y-91072068D01*
X170146260Y-91015000D01*
X169853740Y-91015000D01*
X169566842Y-91072068D01*
X169296589Y-91184010D01*
X169053368Y-91346525D01*
X169000000Y-91399893D01*
X168946632Y-91346525D01*
X168703411Y-91184010D01*
X168433158Y-91072068D01*
X168146260Y-91015000D01*
X167853740Y-91015000D01*
X167566842Y-91072068D01*
X167296589Y-91184010D01*
X167053368Y-91346525D01*
X167000000Y-91399893D01*
X166946632Y-91346525D01*
X166703411Y-91184010D01*
X166433158Y-91072068D01*
X166146260Y-91015000D01*
X165853740Y-91015000D01*
X165566842Y-91072068D01*
X165296589Y-91184010D01*
X165053368Y-91346525D01*
X165000000Y-91399893D01*
X164946632Y-91346525D01*
X164703411Y-91184010D01*
X164433158Y-91072068D01*
X164146260Y-91015000D01*
X163853740Y-91015000D01*
X163658379Y-91053860D01*
X163769987Y-90942252D01*
X163948918Y-90674463D01*
X164072168Y-90376912D01*
X164135000Y-90061033D01*
X164135000Y-89738967D01*
X164072168Y-89423088D01*
X163948918Y-89125537D01*
X163769987Y-88857748D01*
X163542252Y-88630013D01*
X163274463Y-88451082D01*
X162976912Y-88327832D01*
X162661033Y-88265000D01*
X162338967Y-88265000D01*
X162023088Y-88327832D01*
X161725537Y-88451082D01*
X161457748Y-88630013D01*
X161230013Y-88857748D01*
X161051082Y-89125537D01*
X160927832Y-89423088D01*
X160925907Y-89432768D01*
X160842775Y-89308353D01*
X160691647Y-89157225D01*
X160513940Y-89038485D01*
X160316483Y-88956696D01*
X160106863Y-88915000D01*
X159893137Y-88915000D01*
X159683517Y-88956696D01*
X159486060Y-89038485D01*
X159308353Y-89157225D01*
X159157225Y-89308353D01*
X159038485Y-89486060D01*
X158956696Y-89683517D01*
X158915000Y-89893137D01*
X153441285Y-89893137D01*
X153542775Y-89791647D01*
X153661515Y-89613940D01*
X153743304Y-89416483D01*
X153785000Y-89206863D01*
X153785000Y-88993137D01*
X153743304Y-88783517D01*
X153661515Y-88586060D01*
X153542775Y-88408353D01*
X153391647Y-88257225D01*
X153213940Y-88138485D01*
X153016483Y-88056696D01*
X152806863Y-88015000D01*
X152593137Y-88015000D01*
X152383517Y-88056696D01*
X152186060Y-88138485D01*
X152008353Y-88257225D01*
X151857225Y-88408353D01*
X151738485Y-88586060D01*
X151656696Y-88783517D01*
X151615000Y-88993137D01*
X149204460Y-88993137D01*
X149116483Y-88956696D01*
X148906863Y-88915000D01*
X148693137Y-88915000D01*
X148483517Y-88956696D01*
X148286060Y-89038485D01*
X148108353Y-89157225D01*
X147957225Y-89308353D01*
X147838485Y-89486060D01*
X147756696Y-89683517D01*
X147715000Y-89893137D01*
X140627000Y-89893137D01*
X140627000Y-87000000D01*
X201507089Y-87000000D01*
X201538657Y-87320516D01*
X201632148Y-87628715D01*
X201783969Y-87912752D01*
X201988286Y-88161714D01*
X202237248Y-88366031D01*
X202521285Y-88517852D01*
X202829484Y-88611343D01*
X203069678Y-88635000D01*
X204730322Y-88635000D01*
X204970516Y-88611343D01*
X205278715Y-88517852D01*
X205562752Y-88366031D01*
X205811714Y-88161714D01*
X206016031Y-87912752D01*
X206167852Y-87628715D01*
X206261343Y-87320516D01*
X206292911Y-87000000D01*
X206261343Y-86679484D01*
X206167852Y-86371285D01*
X206016031Y-86087248D01*
X205811714Y-85838286D01*
X205562752Y-85633969D01*
X205278715Y-85482148D01*
X204970516Y-85388657D01*
X204730322Y-85365000D01*
X203069678Y-85365000D01*
X202829484Y-85388657D01*
X202521285Y-85482148D01*
X202237248Y-85633969D01*
X201988286Y-85838286D01*
X201783969Y-86087248D01*
X201632148Y-86371285D01*
X201538657Y-86679484D01*
X201507089Y-87000000D01*
X140627000Y-87000000D01*
X140627000Y-82640475D01*
X144365000Y-82640475D01*
X144365000Y-83159525D01*
X144466261Y-83668601D01*
X144664893Y-84148141D01*
X144953262Y-84579715D01*
X145320285Y-84946738D01*
X145751859Y-85235107D01*
X146231399Y-85433739D01*
X146740475Y-85535000D01*
X147259525Y-85535000D01*
X147768601Y-85433739D01*
X148108044Y-85293137D01*
X149915000Y-85293137D01*
X149915000Y-85506863D01*
X149956696Y-85716483D01*
X150038485Y-85913940D01*
X150157225Y-86091647D01*
X150308353Y-86242775D01*
X150486060Y-86361515D01*
X150683517Y-86443304D01*
X150893137Y-86485000D01*
X151106863Y-86485000D01*
X151316483Y-86443304D01*
X151513940Y-86361515D01*
X151691647Y-86242775D01*
X151842775Y-86091647D01*
X151961515Y-85913940D01*
X152043304Y-85716483D01*
X152085000Y-85506863D01*
X152085000Y-85293137D01*
X152043304Y-85083517D01*
X151961515Y-84886060D01*
X151842775Y-84708353D01*
X151691647Y-84557225D01*
X151513940Y-84438485D01*
X151316483Y-84356696D01*
X151106863Y-84315000D01*
X150893137Y-84315000D01*
X150683517Y-84356696D01*
X150486060Y-84438485D01*
X150308353Y-84557225D01*
X150157225Y-84708353D01*
X150038485Y-84886060D01*
X149956696Y-85083517D01*
X149915000Y-85293137D01*
X148108044Y-85293137D01*
X148248141Y-85235107D01*
X148679715Y-84946738D01*
X149046738Y-84579715D01*
X149335107Y-84148141D01*
X149533739Y-83668601D01*
X149635000Y-83159525D01*
X149635000Y-82640475D01*
X166365000Y-82640475D01*
X166365000Y-83159525D01*
X166466261Y-83668601D01*
X166664893Y-84148141D01*
X166953262Y-84579715D01*
X167320285Y-84946738D01*
X167751859Y-85235107D01*
X168231399Y-85433739D01*
X168740475Y-85535000D01*
X169259525Y-85535000D01*
X169768601Y-85433739D01*
X170248141Y-85235107D01*
X170679715Y-84946738D01*
X171046738Y-84579715D01*
X171335107Y-84148141D01*
X171533739Y-83668601D01*
X171635000Y-83159525D01*
X171635000Y-82640475D01*
X171625584Y-82593137D01*
X188915000Y-82593137D01*
X188915000Y-82806863D01*
X188956696Y-83016483D01*
X189038485Y-83213940D01*
X189157225Y-83391647D01*
X189308353Y-83542775D01*
X189486060Y-83661515D01*
X189683517Y-83743304D01*
X189893137Y-83785000D01*
X190106863Y-83785000D01*
X190316483Y-83743304D01*
X190513940Y-83661515D01*
X190691647Y-83542775D01*
X190842775Y-83391647D01*
X190961515Y-83213940D01*
X191043304Y-83016483D01*
X191085000Y-82806863D01*
X191085000Y-82593137D01*
X191043304Y-82383517D01*
X190961515Y-82186060D01*
X190842775Y-82008353D01*
X190691647Y-81857225D01*
X190513940Y-81738485D01*
X190316483Y-81656696D01*
X190106863Y-81615000D01*
X189893137Y-81615000D01*
X189683517Y-81656696D01*
X189486060Y-81738485D01*
X189308353Y-81857225D01*
X189157225Y-82008353D01*
X189038485Y-82186060D01*
X188956696Y-82383517D01*
X188915000Y-82593137D01*
X171625584Y-82593137D01*
X171533739Y-82131399D01*
X171335107Y-81651859D01*
X171046738Y-81220285D01*
X170679715Y-80853262D01*
X170248141Y-80564893D01*
X170091476Y-80500000D01*
X195261928Y-80500000D01*
X195261928Y-84500000D01*
X195274188Y-84624482D01*
X195310498Y-84744180D01*
X195369463Y-84854494D01*
X195448815Y-84951185D01*
X195545506Y-85030537D01*
X195655820Y-85089502D01*
X195775518Y-85125812D01*
X195900000Y-85138072D01*
X197900000Y-85138072D01*
X198024482Y-85125812D01*
X198144180Y-85089502D01*
X198254494Y-85030537D01*
X198351185Y-84951185D01*
X198430537Y-84854494D01*
X198489502Y-84744180D01*
X198525812Y-84624482D01*
X198538072Y-84500000D01*
X198538072Y-81769679D01*
X201265000Y-81769679D01*
X201265000Y-83230322D01*
X201288657Y-83470516D01*
X201382149Y-83778715D01*
X201533970Y-84062752D01*
X201738287Y-84311714D01*
X201987249Y-84516031D01*
X202271286Y-84667852D01*
X202579485Y-84761343D01*
X202900000Y-84792911D01*
X203220516Y-84761343D01*
X203528715Y-84667852D01*
X203812752Y-84516031D01*
X204061714Y-84311714D01*
X204266031Y-84062752D01*
X204417852Y-83778715D01*
X204511343Y-83470516D01*
X204535000Y-83230322D01*
X204535000Y-82954432D01*
X204628320Y-83179727D01*
X204785363Y-83414759D01*
X204985241Y-83614637D01*
X205220273Y-83771680D01*
X205481426Y-83879853D01*
X205758665Y-83935000D01*
X206041335Y-83935000D01*
X206318574Y-83879853D01*
X206579727Y-83771680D01*
X206814759Y-83614637D01*
X207014637Y-83414759D01*
X207171680Y-83179727D01*
X207279853Y-82918574D01*
X207335000Y-82641335D01*
X207335000Y-82358665D01*
X207279853Y-82081426D01*
X207171680Y-81820273D01*
X207014637Y-81585241D01*
X206814759Y-81385363D01*
X206579727Y-81228320D01*
X206318574Y-81120147D01*
X206041335Y-81065000D01*
X205758665Y-81065000D01*
X205481426Y-81120147D01*
X205220273Y-81228320D01*
X204985241Y-81385363D01*
X204785363Y-81585241D01*
X204628320Y-81820273D01*
X204535000Y-82045568D01*
X204535000Y-81769678D01*
X204511343Y-81529484D01*
X204417852Y-81221285D01*
X204266031Y-80937248D01*
X204061714Y-80688286D01*
X203812751Y-80483969D01*
X203528714Y-80332148D01*
X203220515Y-80238657D01*
X202900000Y-80207089D01*
X202579484Y-80238657D01*
X202271285Y-80332148D01*
X201987248Y-80483969D01*
X201738286Y-80688286D01*
X201533969Y-80937249D01*
X201382148Y-81221286D01*
X201288657Y-81529485D01*
X201265000Y-81769679D01*
X198538072Y-81769679D01*
X198538072Y-80500000D01*
X198525812Y-80375518D01*
X198489502Y-80255820D01*
X198430537Y-80145506D01*
X198351185Y-80048815D01*
X198254494Y-79969463D01*
X198144180Y-79910498D01*
X198024482Y-79874188D01*
X197900000Y-79861928D01*
X195900000Y-79861928D01*
X195775518Y-79874188D01*
X195655820Y-79910498D01*
X195545506Y-79969463D01*
X195448815Y-80048815D01*
X195369463Y-80145506D01*
X195310498Y-80255820D01*
X195274188Y-80375518D01*
X195261928Y-80500000D01*
X170091476Y-80500000D01*
X169768601Y-80366261D01*
X169259525Y-80265000D01*
X168740475Y-80265000D01*
X168231399Y-80366261D01*
X167751859Y-80564893D01*
X167320285Y-80853262D01*
X166953262Y-81220285D01*
X166664893Y-81651859D01*
X166466261Y-82131399D01*
X166365000Y-82640475D01*
X149635000Y-82640475D01*
X149533739Y-82131399D01*
X149505855Y-82064080D01*
X153115525Y-82064080D01*
X153199208Y-82318261D01*
X153471775Y-82449158D01*
X153764642Y-82524365D01*
X154066553Y-82540991D01*
X154365907Y-82498397D01*
X154651199Y-82398222D01*
X154800792Y-82318261D01*
X154884475Y-82064080D01*
X154000000Y-81179605D01*
X153115525Y-82064080D01*
X149505855Y-82064080D01*
X149335107Y-81651859D01*
X149046738Y-81220285D01*
X148893006Y-81066553D01*
X152459009Y-81066553D01*
X152501603Y-81365907D01*
X152601778Y-81651199D01*
X152681739Y-81800792D01*
X152935920Y-81884475D01*
X153820395Y-81000000D01*
X154179605Y-81000000D01*
X155064080Y-81884475D01*
X155318261Y-81800792D01*
X155449158Y-81528225D01*
X155524365Y-81235358D01*
X155540991Y-80933447D01*
X155498397Y-80634093D01*
X155398222Y-80348801D01*
X155318261Y-80199208D01*
X155064080Y-80115525D01*
X154179605Y-81000000D01*
X153820395Y-81000000D01*
X152935920Y-80115525D01*
X152681739Y-80199208D01*
X152550842Y-80471775D01*
X152475635Y-80764642D01*
X152459009Y-81066553D01*
X148893006Y-81066553D01*
X148679715Y-80853262D01*
X148248141Y-80564893D01*
X147768601Y-80366261D01*
X147259525Y-80265000D01*
X146740475Y-80265000D01*
X146231399Y-80366261D01*
X145751859Y-80564893D01*
X145320285Y-80853262D01*
X144953262Y-81220285D01*
X144664893Y-81651859D01*
X144466261Y-82131399D01*
X144365000Y-82640475D01*
X140627000Y-82640475D01*
X140627000Y-73840475D01*
X144365000Y-73840475D01*
X144365000Y-74359525D01*
X144466261Y-74868601D01*
X144664893Y-75348141D01*
X144953262Y-75779715D01*
X145320285Y-76146738D01*
X145751859Y-76435107D01*
X146231399Y-76633739D01*
X146740475Y-76735000D01*
X147259525Y-76735000D01*
X147768601Y-76633739D01*
X148248141Y-76435107D01*
X148679715Y-76146738D01*
X148977637Y-75848816D01*
X152465000Y-75848816D01*
X152465000Y-76151184D01*
X152523989Y-76447743D01*
X152639701Y-76727095D01*
X152807688Y-76978505D01*
X153021495Y-77192312D01*
X153107831Y-77250000D01*
X153021495Y-77307688D01*
X152807688Y-77521495D01*
X152639701Y-77772905D01*
X152523989Y-78052257D01*
X152465000Y-78348816D01*
X152465000Y-78651184D01*
X152523989Y-78947743D01*
X152639701Y-79227095D01*
X152807688Y-79478505D01*
X153021495Y-79692312D01*
X153164310Y-79787738D01*
X153115525Y-79935920D01*
X154000000Y-80820395D01*
X154884475Y-79935920D01*
X154835690Y-79787738D01*
X154978505Y-79692312D01*
X155192312Y-79478505D01*
X155360299Y-79227095D01*
X155476011Y-78947743D01*
X155535000Y-78651184D01*
X155535000Y-78348816D01*
X160465000Y-78348816D01*
X160465000Y-78651184D01*
X160523989Y-78947743D01*
X160639701Y-79227095D01*
X160807688Y-79478505D01*
X161021495Y-79692312D01*
X161107831Y-79750000D01*
X161021495Y-79807688D01*
X160807688Y-80021495D01*
X160639701Y-80272905D01*
X160523989Y-80552257D01*
X160465000Y-80848816D01*
X160465000Y-81151184D01*
X160523989Y-81447743D01*
X160639701Y-81727095D01*
X160807688Y-81978505D01*
X161021495Y-82192312D01*
X161272905Y-82360299D01*
X161552257Y-82476011D01*
X161848816Y-82535000D01*
X162151184Y-82535000D01*
X162447743Y-82476011D01*
X162727095Y-82360299D01*
X162978505Y-82192312D01*
X163192312Y-81978505D01*
X163360299Y-81727095D01*
X163476011Y-81447743D01*
X163535000Y-81151184D01*
X163535000Y-80848816D01*
X163476011Y-80552257D01*
X163360299Y-80272905D01*
X163192312Y-80021495D01*
X162978505Y-79807688D01*
X162892169Y-79750000D01*
X162978505Y-79692312D01*
X163192312Y-79478505D01*
X163360299Y-79227095D01*
X163476011Y-78947743D01*
X163535000Y-78651184D01*
X163535000Y-78348816D01*
X163476011Y-78052257D01*
X163360299Y-77772905D01*
X163307000Y-77693137D01*
X178515000Y-77693137D01*
X178515000Y-77906863D01*
X178556696Y-78116483D01*
X178638485Y-78313940D01*
X178757225Y-78491647D01*
X178908353Y-78642775D01*
X179086060Y-78761515D01*
X179283517Y-78843304D01*
X179493137Y-78885000D01*
X179706863Y-78885000D01*
X179916483Y-78843304D01*
X180113940Y-78761515D01*
X180291647Y-78642775D01*
X180442775Y-78491647D01*
X180561515Y-78313940D01*
X180643304Y-78116483D01*
X180685000Y-77906863D01*
X180685000Y-77693137D01*
X181315000Y-77693137D01*
X181315000Y-77906863D01*
X181356696Y-78116483D01*
X181438485Y-78313940D01*
X181557225Y-78491647D01*
X181708353Y-78642775D01*
X181886060Y-78761515D01*
X182083517Y-78843304D01*
X182293137Y-78885000D01*
X182506863Y-78885000D01*
X182716483Y-78843304D01*
X182913940Y-78761515D01*
X183091647Y-78642775D01*
X183242775Y-78491647D01*
X183361515Y-78313940D01*
X183443304Y-78116483D01*
X183485000Y-77906863D01*
X183485000Y-77693137D01*
X183443304Y-77483517D01*
X183361515Y-77286060D01*
X183299426Y-77193137D01*
X185915000Y-77193137D01*
X185915000Y-77406863D01*
X185956696Y-77616483D01*
X186038485Y-77813940D01*
X186157225Y-77991647D01*
X186308353Y-78142775D01*
X186486060Y-78261515D01*
X186683517Y-78343304D01*
X186893137Y-78385000D01*
X187106863Y-78385000D01*
X187316483Y-78343304D01*
X187513940Y-78261515D01*
X187691647Y-78142775D01*
X187842775Y-77991647D01*
X187961515Y-77813940D01*
X188043304Y-77616483D01*
X188085000Y-77406863D01*
X188085000Y-77193137D01*
X188915000Y-77193137D01*
X188915000Y-77406863D01*
X188956696Y-77616483D01*
X189038485Y-77813940D01*
X189157225Y-77991647D01*
X189308353Y-78142775D01*
X189486060Y-78261515D01*
X189683517Y-78343304D01*
X189893137Y-78385000D01*
X190106863Y-78385000D01*
X190316483Y-78343304D01*
X190513940Y-78261515D01*
X190691647Y-78142775D01*
X190834422Y-78000000D01*
X201507089Y-78000000D01*
X201538657Y-78320516D01*
X201632148Y-78628715D01*
X201783969Y-78912752D01*
X201988286Y-79161714D01*
X202237248Y-79366031D01*
X202521285Y-79517852D01*
X202829484Y-79611343D01*
X203069678Y-79635000D01*
X204730322Y-79635000D01*
X204970516Y-79611343D01*
X205278715Y-79517852D01*
X205562752Y-79366031D01*
X205811714Y-79161714D01*
X206016031Y-78912752D01*
X206167852Y-78628715D01*
X206261343Y-78320516D01*
X206292911Y-78000000D01*
X206261343Y-77679484D01*
X206167852Y-77371285D01*
X206016031Y-77087248D01*
X205811714Y-76838286D01*
X205562752Y-76633969D01*
X205278715Y-76482148D01*
X204970516Y-76388657D01*
X204730322Y-76365000D01*
X203069678Y-76365000D01*
X202829484Y-76388657D01*
X202521285Y-76482148D01*
X202237248Y-76633969D01*
X201988286Y-76838286D01*
X201783969Y-77087248D01*
X201632148Y-77371285D01*
X201538657Y-77679484D01*
X201507089Y-78000000D01*
X190834422Y-78000000D01*
X190842775Y-77991647D01*
X190961515Y-77813940D01*
X191043304Y-77616483D01*
X191085000Y-77406863D01*
X191085000Y-77193137D01*
X191043304Y-76983517D01*
X190961515Y-76786060D01*
X190842775Y-76608353D01*
X190691647Y-76457225D01*
X190513940Y-76338485D01*
X190316483Y-76256696D01*
X190106863Y-76215000D01*
X189893137Y-76215000D01*
X189683517Y-76256696D01*
X189486060Y-76338485D01*
X189308353Y-76457225D01*
X189157225Y-76608353D01*
X189038485Y-76786060D01*
X188956696Y-76983517D01*
X188915000Y-77193137D01*
X188085000Y-77193137D01*
X188043304Y-76983517D01*
X187961515Y-76786060D01*
X187842775Y-76608353D01*
X187691647Y-76457225D01*
X187513940Y-76338485D01*
X187316483Y-76256696D01*
X187106863Y-76215000D01*
X186893137Y-76215000D01*
X186683517Y-76256696D01*
X186486060Y-76338485D01*
X186308353Y-76457225D01*
X186157225Y-76608353D01*
X186038485Y-76786060D01*
X185956696Y-76983517D01*
X185915000Y-77193137D01*
X183299426Y-77193137D01*
X183242775Y-77108353D01*
X183091647Y-76957225D01*
X182913940Y-76838485D01*
X182716483Y-76756696D01*
X182506863Y-76715000D01*
X182293137Y-76715000D01*
X182083517Y-76756696D01*
X181886060Y-76838485D01*
X181708353Y-76957225D01*
X181557225Y-77108353D01*
X181438485Y-77286060D01*
X181356696Y-77483517D01*
X181315000Y-77693137D01*
X180685000Y-77693137D01*
X180643304Y-77483517D01*
X180561515Y-77286060D01*
X180442775Y-77108353D01*
X180291647Y-76957225D01*
X180113940Y-76838485D01*
X179916483Y-76756696D01*
X179706863Y-76715000D01*
X179493137Y-76715000D01*
X179283517Y-76756696D01*
X179086060Y-76838485D01*
X178908353Y-76957225D01*
X178757225Y-77108353D01*
X178638485Y-77286060D01*
X178556696Y-77483517D01*
X178515000Y-77693137D01*
X163307000Y-77693137D01*
X163192312Y-77521495D01*
X162978505Y-77307688D01*
X162835690Y-77212262D01*
X162884475Y-77064080D01*
X162000000Y-76179605D01*
X161115525Y-77064080D01*
X161164310Y-77212262D01*
X161021495Y-77307688D01*
X160807688Y-77521495D01*
X160639701Y-77772905D01*
X160523989Y-78052257D01*
X160465000Y-78348816D01*
X155535000Y-78348816D01*
X155476011Y-78052257D01*
X155360299Y-77772905D01*
X155192312Y-77521495D01*
X154978505Y-77307688D01*
X154892169Y-77250000D01*
X154978505Y-77192312D01*
X155192312Y-76978505D01*
X155360299Y-76727095D01*
X155476011Y-76447743D01*
X155535000Y-76151184D01*
X155535000Y-76066553D01*
X160459009Y-76066553D01*
X160501603Y-76365907D01*
X160601778Y-76651199D01*
X160681739Y-76800792D01*
X160935920Y-76884475D01*
X161820395Y-76000000D01*
X162179605Y-76000000D01*
X163064080Y-76884475D01*
X163318261Y-76800792D01*
X163449158Y-76528225D01*
X163524365Y-76235358D01*
X163540991Y-75933447D01*
X163498397Y-75634093D01*
X163398222Y-75348801D01*
X163318261Y-75199208D01*
X163064080Y-75115525D01*
X162179605Y-76000000D01*
X161820395Y-76000000D01*
X160935920Y-75115525D01*
X160681739Y-75199208D01*
X160550842Y-75471775D01*
X160475635Y-75764642D01*
X160459009Y-76066553D01*
X155535000Y-76066553D01*
X155535000Y-75848816D01*
X155476011Y-75552257D01*
X155360299Y-75272905D01*
X155192312Y-75021495D01*
X155106737Y-74935920D01*
X161115525Y-74935920D01*
X162000000Y-75820395D01*
X162884475Y-74935920D01*
X162800792Y-74681739D01*
X162528225Y-74550842D01*
X162235358Y-74475635D01*
X161933447Y-74459009D01*
X161634093Y-74501603D01*
X161348801Y-74601778D01*
X161199208Y-74681739D01*
X161115525Y-74935920D01*
X155106737Y-74935920D01*
X154978505Y-74807688D01*
X154727095Y-74639701D01*
X154447743Y-74523989D01*
X154151184Y-74465000D01*
X153848816Y-74465000D01*
X153552257Y-74523989D01*
X153272905Y-74639701D01*
X153021495Y-74807688D01*
X152807688Y-75021495D01*
X152639701Y-75272905D01*
X152523989Y-75552257D01*
X152465000Y-75848816D01*
X148977637Y-75848816D01*
X149046738Y-75779715D01*
X149335107Y-75348141D01*
X149533739Y-74868601D01*
X149635000Y-74359525D01*
X149635000Y-73840475D01*
X166365000Y-73840475D01*
X166365000Y-74359525D01*
X166466261Y-74868601D01*
X166664893Y-75348141D01*
X166953262Y-75779715D01*
X167320285Y-76146738D01*
X167751859Y-76435107D01*
X168231399Y-76633739D01*
X168740475Y-76735000D01*
X169259525Y-76735000D01*
X169768601Y-76633739D01*
X170248141Y-76435107D01*
X170679715Y-76146738D01*
X171046738Y-75779715D01*
X171335107Y-75348141D01*
X171533739Y-74868601D01*
X171635000Y-74359525D01*
X171635000Y-73840475D01*
X171546020Y-73393137D01*
X178515000Y-73393137D01*
X178515000Y-73606863D01*
X178556696Y-73816483D01*
X178638485Y-74013940D01*
X178757225Y-74191647D01*
X178908353Y-74342775D01*
X179086060Y-74461515D01*
X179283517Y-74543304D01*
X179493137Y-74585000D01*
X179706863Y-74585000D01*
X179916483Y-74543304D01*
X180113940Y-74461515D01*
X180291647Y-74342775D01*
X180442775Y-74191647D01*
X180561515Y-74013940D01*
X180643304Y-73816483D01*
X180685000Y-73606863D01*
X180685000Y-73393137D01*
X181315000Y-73393137D01*
X181315000Y-73606863D01*
X181356696Y-73816483D01*
X181438485Y-74013940D01*
X181557225Y-74191647D01*
X181708353Y-74342775D01*
X181886060Y-74461515D01*
X182083517Y-74543304D01*
X182293137Y-74585000D01*
X182506863Y-74585000D01*
X182716483Y-74543304D01*
X182913940Y-74461515D01*
X183091647Y-74342775D01*
X183141285Y-74293137D01*
X190215000Y-74293137D01*
X190215000Y-74506863D01*
X190256696Y-74716483D01*
X190338485Y-74913940D01*
X190457225Y-75091647D01*
X190608353Y-75242775D01*
X190786060Y-75361515D01*
X190983517Y-75443304D01*
X191193137Y-75485000D01*
X191406863Y-75485000D01*
X191616483Y-75443304D01*
X191813940Y-75361515D01*
X191991647Y-75242775D01*
X192142775Y-75091647D01*
X192261515Y-74913940D01*
X192343304Y-74716483D01*
X192385000Y-74506863D01*
X192385000Y-74293137D01*
X192343304Y-74083517D01*
X192261515Y-73886060D01*
X192142775Y-73708353D01*
X191991647Y-73557225D01*
X191813940Y-73438485D01*
X191616483Y-73356696D01*
X191406863Y-73315000D01*
X191193137Y-73315000D01*
X190983517Y-73356696D01*
X190786060Y-73438485D01*
X190608353Y-73557225D01*
X190457225Y-73708353D01*
X190338485Y-73886060D01*
X190256696Y-74083517D01*
X190215000Y-74293137D01*
X183141285Y-74293137D01*
X183242775Y-74191647D01*
X183361515Y-74013940D01*
X183443304Y-73816483D01*
X183485000Y-73606863D01*
X183485000Y-73393137D01*
X183443304Y-73183517D01*
X183361515Y-72986060D01*
X183242775Y-72808353D01*
X183091647Y-72657225D01*
X182913940Y-72538485D01*
X182716483Y-72456696D01*
X182506863Y-72415000D01*
X182293137Y-72415000D01*
X182083517Y-72456696D01*
X181886060Y-72538485D01*
X181708353Y-72657225D01*
X181557225Y-72808353D01*
X181438485Y-72986060D01*
X181356696Y-73183517D01*
X181315000Y-73393137D01*
X180685000Y-73393137D01*
X180643304Y-73183517D01*
X180561515Y-72986060D01*
X180442775Y-72808353D01*
X180291647Y-72657225D01*
X180113940Y-72538485D01*
X179916483Y-72456696D01*
X179706863Y-72415000D01*
X179493137Y-72415000D01*
X179283517Y-72456696D01*
X179086060Y-72538485D01*
X178908353Y-72657225D01*
X178757225Y-72808353D01*
X178638485Y-72986060D01*
X178556696Y-73183517D01*
X178515000Y-73393137D01*
X171546020Y-73393137D01*
X171533739Y-73331399D01*
X171335107Y-72851859D01*
X171046738Y-72420285D01*
X170679715Y-72053262D01*
X170248141Y-71764893D01*
X169768601Y-71566261D01*
X169259525Y-71465000D01*
X168740475Y-71465000D01*
X168231399Y-71566261D01*
X167751859Y-71764893D01*
X167320285Y-72053262D01*
X166953262Y-72420285D01*
X166664893Y-72851859D01*
X166466261Y-73331399D01*
X166365000Y-73840475D01*
X149635000Y-73840475D01*
X149533739Y-73331399D01*
X149335107Y-72851859D01*
X149046738Y-72420285D01*
X148679715Y-72053262D01*
X148248141Y-71764893D01*
X147768601Y-71566261D01*
X147259525Y-71465000D01*
X146740475Y-71465000D01*
X146231399Y-71566261D01*
X145751859Y-71764893D01*
X145320285Y-72053262D01*
X144953262Y-72420285D01*
X144664893Y-72851859D01*
X144466261Y-73331399D01*
X144365000Y-73840475D01*
X140627000Y-73840475D01*
X140627000Y-70293137D01*
X184615000Y-70293137D01*
X184615000Y-70506863D01*
X184656696Y-70716483D01*
X184738485Y-70913940D01*
X184857225Y-71091647D01*
X185008353Y-71242775D01*
X185186060Y-71361515D01*
X185383517Y-71443304D01*
X185593137Y-71485000D01*
X185806863Y-71485000D01*
X186016483Y-71443304D01*
X186150000Y-71388000D01*
X186283517Y-71443304D01*
X186493137Y-71485000D01*
X186706863Y-71485000D01*
X186916483Y-71443304D01*
X187113940Y-71361515D01*
X187291647Y-71242775D01*
X187384433Y-71149989D01*
X187541874Y-71149989D01*
X187751494Y-71108293D01*
X187948951Y-71026504D01*
X188126658Y-70907764D01*
X188277786Y-70756636D01*
X188396526Y-70578929D01*
X188478315Y-70381472D01*
X188520011Y-70171852D01*
X188520011Y-69958126D01*
X188478315Y-69748506D01*
X188396526Y-69551049D01*
X188277786Y-69373342D01*
X188126658Y-69222214D01*
X188083142Y-69193137D01*
X189715000Y-69193137D01*
X189715000Y-69406863D01*
X189756696Y-69616483D01*
X189838485Y-69813940D01*
X189957225Y-69991647D01*
X189965578Y-70000000D01*
X189957225Y-70008353D01*
X189838485Y-70186060D01*
X189756696Y-70383517D01*
X189715000Y-70593137D01*
X189715000Y-70806863D01*
X189756696Y-71016483D01*
X189838485Y-71213940D01*
X189957225Y-71391647D01*
X189965578Y-71400000D01*
X189957225Y-71408353D01*
X189838485Y-71586060D01*
X189756696Y-71783517D01*
X189715000Y-71993137D01*
X189715000Y-72206863D01*
X189756696Y-72416483D01*
X189838485Y-72613940D01*
X189957225Y-72791647D01*
X190108353Y-72942775D01*
X190286060Y-73061515D01*
X190483517Y-73143304D01*
X190693137Y-73185000D01*
X190906863Y-73185000D01*
X191116483Y-73143304D01*
X191313940Y-73061515D01*
X191491647Y-72942775D01*
X191500000Y-72934422D01*
X191508353Y-72942775D01*
X191686060Y-73061515D01*
X191883517Y-73143304D01*
X192093137Y-73185000D01*
X192306863Y-73185000D01*
X192516483Y-73143304D01*
X192713940Y-73061515D01*
X192891647Y-72942775D01*
X192941285Y-72893137D01*
X204915000Y-72893137D01*
X204915000Y-73106863D01*
X204956696Y-73316483D01*
X205012000Y-73450000D01*
X204956696Y-73583517D01*
X204915000Y-73793137D01*
X204915000Y-74006863D01*
X204956696Y-74216483D01*
X205038485Y-74413940D01*
X205157225Y-74591647D01*
X205308353Y-74742775D01*
X205486060Y-74861515D01*
X205683517Y-74943304D01*
X205893137Y-74985000D01*
X206106863Y-74985000D01*
X206316483Y-74943304D01*
X206513940Y-74861515D01*
X206691647Y-74742775D01*
X206842775Y-74591647D01*
X206961515Y-74413940D01*
X207043304Y-74216483D01*
X207085000Y-74006863D01*
X207085000Y-73793137D01*
X207043304Y-73583517D01*
X206988000Y-73450000D01*
X207043304Y-73316483D01*
X207085000Y-73106863D01*
X207085000Y-72893137D01*
X207043304Y-72683517D01*
X206961515Y-72486060D01*
X206842775Y-72308353D01*
X206691647Y-72157225D01*
X206513940Y-72038485D01*
X206316483Y-71956696D01*
X206106863Y-71915000D01*
X205893137Y-71915000D01*
X205683517Y-71956696D01*
X205486060Y-72038485D01*
X205308353Y-72157225D01*
X205157225Y-72308353D01*
X205038485Y-72486060D01*
X204956696Y-72683517D01*
X204915000Y-72893137D01*
X192941285Y-72893137D01*
X193042775Y-72791647D01*
X193161515Y-72613940D01*
X193243304Y-72416483D01*
X193285000Y-72206863D01*
X193285000Y-71993137D01*
X193243304Y-71783517D01*
X193161515Y-71586060D01*
X193042775Y-71408353D01*
X193034422Y-71400000D01*
X193042775Y-71391647D01*
X193161515Y-71213940D01*
X193243304Y-71016483D01*
X193285000Y-70806863D01*
X193285000Y-70593137D01*
X193243304Y-70383517D01*
X193161515Y-70186060D01*
X193042775Y-70008353D01*
X193034422Y-70000000D01*
X193042775Y-69991647D01*
X193161515Y-69813940D01*
X193243304Y-69616483D01*
X193285000Y-69406863D01*
X193285000Y-69193137D01*
X193243304Y-68983517D01*
X193161515Y-68786060D01*
X193042775Y-68608353D01*
X192891647Y-68457225D01*
X192713940Y-68338485D01*
X192516483Y-68256696D01*
X192306863Y-68215000D01*
X192093137Y-68215000D01*
X191883517Y-68256696D01*
X191686060Y-68338485D01*
X191508353Y-68457225D01*
X191500000Y-68465578D01*
X191491647Y-68457225D01*
X191313940Y-68338485D01*
X191116483Y-68256696D01*
X190906863Y-68215000D01*
X190693137Y-68215000D01*
X190483517Y-68256696D01*
X190286060Y-68338485D01*
X190108353Y-68457225D01*
X189957225Y-68608353D01*
X189838485Y-68786060D01*
X189756696Y-68983517D01*
X189715000Y-69193137D01*
X188083142Y-69193137D01*
X187948951Y-69103474D01*
X187751494Y-69021685D01*
X187541874Y-68979989D01*
X187328148Y-68979989D01*
X187118528Y-69021685D01*
X186921071Y-69103474D01*
X186743364Y-69222214D01*
X186650578Y-69315000D01*
X186493137Y-69315000D01*
X186283517Y-69356696D01*
X186150000Y-69412000D01*
X186016483Y-69356696D01*
X185806863Y-69315000D01*
X185593137Y-69315000D01*
X185383517Y-69356696D01*
X185186060Y-69438485D01*
X185008353Y-69557225D01*
X184857225Y-69708353D01*
X184738485Y-69886060D01*
X184656696Y-70083517D01*
X184615000Y-70293137D01*
X140627000Y-70293137D01*
X140627000Y-67993137D01*
X178515000Y-67993137D01*
X178515000Y-68206863D01*
X178556696Y-68416483D01*
X178638485Y-68613940D01*
X178757225Y-68791647D01*
X178908353Y-68942775D01*
X179086060Y-69061515D01*
X179283517Y-69143304D01*
X179493137Y-69185000D01*
X179706863Y-69185000D01*
X179916483Y-69143304D01*
X180113940Y-69061515D01*
X180291647Y-68942775D01*
X180442775Y-68791647D01*
X180561515Y-68613940D01*
X180643304Y-68416483D01*
X180685000Y-68206863D01*
X180685000Y-67993137D01*
X181315000Y-67993137D01*
X181315000Y-68206863D01*
X181356696Y-68416483D01*
X181438485Y-68613940D01*
X181557225Y-68791647D01*
X181708353Y-68942775D01*
X181886060Y-69061515D01*
X182083517Y-69143304D01*
X182293137Y-69185000D01*
X182506863Y-69185000D01*
X182716483Y-69143304D01*
X182913940Y-69061515D01*
X183091647Y-68942775D01*
X183242775Y-68791647D01*
X183361515Y-68613940D01*
X183443304Y-68416483D01*
X183485000Y-68206863D01*
X183485000Y-67993137D01*
X183443304Y-67783517D01*
X183361515Y-67586060D01*
X183249304Y-67418123D01*
X184139986Y-67418123D01*
X184139986Y-67631849D01*
X184181682Y-67841469D01*
X184263471Y-68038926D01*
X184382211Y-68216633D01*
X184533339Y-68367761D01*
X184711046Y-68486501D01*
X184908503Y-68568290D01*
X185118123Y-68609986D01*
X185331849Y-68609986D01*
X185541469Y-68568290D01*
X185738926Y-68486501D01*
X185916633Y-68367761D01*
X186067761Y-68216633D01*
X186083460Y-68193137D01*
X194715000Y-68193137D01*
X194715000Y-68406863D01*
X194756696Y-68616483D01*
X194838485Y-68813940D01*
X194957225Y-68991647D01*
X195108353Y-69142775D01*
X195286060Y-69261515D01*
X195483517Y-69343304D01*
X195693137Y-69385000D01*
X195906863Y-69385000D01*
X196116483Y-69343304D01*
X196313940Y-69261515D01*
X196491647Y-69142775D01*
X196642775Y-68991647D01*
X196761515Y-68813940D01*
X196843304Y-68616483D01*
X196885000Y-68406863D01*
X196885000Y-68193137D01*
X196843304Y-67983517D01*
X196761515Y-67786060D01*
X196642775Y-67608353D01*
X196491647Y-67457225D01*
X196313940Y-67338485D01*
X196116483Y-67256696D01*
X195906863Y-67215000D01*
X195693137Y-67215000D01*
X195483517Y-67256696D01*
X195286060Y-67338485D01*
X195108353Y-67457225D01*
X194957225Y-67608353D01*
X194838485Y-67786060D01*
X194756696Y-67983517D01*
X194715000Y-68193137D01*
X186083460Y-68193137D01*
X186186501Y-68038926D01*
X186268290Y-67841469D01*
X186309986Y-67631849D01*
X186309986Y-67418123D01*
X186268290Y-67208503D01*
X186186501Y-67011046D01*
X186067761Y-66833339D01*
X185916633Y-66682211D01*
X185738926Y-66563471D01*
X185541469Y-66481682D01*
X185331849Y-66439986D01*
X185118123Y-66439986D01*
X184908503Y-66481682D01*
X184711046Y-66563471D01*
X184533339Y-66682211D01*
X184382211Y-66833339D01*
X184263471Y-67011046D01*
X184181682Y-67208503D01*
X184139986Y-67418123D01*
X183249304Y-67418123D01*
X183242775Y-67408353D01*
X183091647Y-67257225D01*
X182913940Y-67138485D01*
X182716483Y-67056696D01*
X182506863Y-67015000D01*
X182293137Y-67015000D01*
X182083517Y-67056696D01*
X181886060Y-67138485D01*
X181708353Y-67257225D01*
X181557225Y-67408353D01*
X181438485Y-67586060D01*
X181356696Y-67783517D01*
X181315000Y-67993137D01*
X180685000Y-67993137D01*
X180643304Y-67783517D01*
X180561515Y-67586060D01*
X180442775Y-67408353D01*
X180291647Y-67257225D01*
X180113940Y-67138485D01*
X179916483Y-67056696D01*
X179706863Y-67015000D01*
X179493137Y-67015000D01*
X179283517Y-67056696D01*
X179086060Y-67138485D01*
X178908353Y-67257225D01*
X178757225Y-67408353D01*
X178638485Y-67586060D01*
X178556696Y-67783517D01*
X178515000Y-67993137D01*
X140627000Y-67993137D01*
X140627000Y-63410000D01*
X208840000Y-63410000D01*
X208840001Y-136590000D01*
G37*
G04 #@! TD.AperFunction*
M02*
